<?xml version="1.0" standalone="no"?>
<!DOCTYPE svg PUBLIC "-//W3C//DTD SVG 1.1//EN" "http://www.w3.org/Graphics/SVG/1.1/DTD/svg11.dtd" >
<svg xmlns="http://www.w3.org/2000/svg">
<metadata>
Created by FontPrep 20130207 at Sat Dec 24 19:29:00 2016
 By Alex
Copyright 2010 Monotype Imaging Inc. All rights reserved. Designed by Nick Job.
</metadata>
<defs>
<font id="6b43bdc17b879cf69abb31441f00ee33" horiz-adv-x='1024' >
  <font-face 
    font-family="Camphor-Medium"
    font-weight="500"
    font-stretch="normal"
    units-per-em="2048"
    panose-1="2 11 6 4 3 4 4 2 2 4"
    ascent="1638"
    descent="-410"
    x-height="1024"
    cap-height="1409"
    bbox="-451 -512 2398 1921"
    underline-thickness="102"
    underline-position="-256"
    unicode-range="U+0020-FB04"
  />
<missing-glyph horiz-adv-x="1024" 
d="M512 594l-332 -496h662zM569 682l332 -498v994zM123 186l14 21q24 34 123 186t193 289l-330 496v-992zM512 768l330 498h-662zM25 1362h972v-1362h-972v1362z" />
    <glyph glyph-name="IJ" unicode="IJ" horiz-adv-x="1558" 
d="M1372 383q0 -179 -118 -293.5t-304 -114.5q-131 0 -276 64v186q127 -71 236 -71t179 69t70 180v1006h213v-1026zM195 1409h211v-1409h-211v1409z" />
    <glyph glyph-name="ij" unicode="ij" horiz-adv-x="1030" 
d="M505 -301q73 0 119 46t46 120v1159h204v-1184q0 -138 -89.5 -225.5t-233.5 -87.5q-94 0 -207 45v176q88 -49 161 -49zM649 1315q0 53 35 87t88 34t88 -34t35 -87t-35 -87t-88 -34t-88 34t-35 87zM135 1315q0 53 35 87t88 34t88 -34t35 -87t-35 -87t-88 -34t-88 34t-35 87
zM156 1024h204v-1024h-204v1024z" />
    <glyph glyph-name="napostrophe" unicode="&#x27;n" horiz-adv-x="1423" 
d="M162 1409h200l-192 -457h-174zM604 922q150 127 310 127t262 -101t102 -262v-686h-207v653q0 96 -59.5 156.5t-151.5 60.5q-137 0 -256 -129v-741h-205v1024h205v-102z" />
    <glyph glyph-name="uniE400" unicode="fb" horiz-adv-x="1865" 
d="M1573 512q0 160 -81 260t-209 100t-236 -108v-502q106 -110 235 -110t210 100t81 260zM227 858h-186v166h186v96q0 163 114.5 270t303.5 107t402 -106v-449q129 106 276 107q201 0 331 -150.5t130 -386.5t-130 -386.5t-331 -150.5q-147 0 -276 107v-82h-207v1284
q-100 45 -192 45t-153 -60.5t-61 -156.5v-88h283v-166h-283v-858h-207v858z" />
    <glyph glyph-name="uniE401" unicode="ffb" horiz-adv-x="2478" 
d="M2185 512q0 160 -81 260t-209 100t-236 -108v-502q106 -110 235 -110t210 100t81 260zM1659 0h-207v1284q-100 45 -191 45t-152.5 -59.5t-61.5 -155.5v-90h282v-166h-282v-858h-207v858h-406v-858h-207v858h-186v166h186v160q0 137 92 225t234 88q96 0 205 -43v-176
q-84 47 -159 47t-120 -45t-45 -119v-137h406v96q0 165 116 271t300.5 106t402.5 -106v-449q123 107 278 107q203 0 331 -150.5t128 -386.5t-128 -386.5t-331 -150.5q-155 0 -278 107v-82z" />
    <glyph glyph-name="uniE402" unicode="fh" horiz-adv-x="1865" 
d="M227 858h-186v166h186v96q0 163 114.5 270t303.5 107t402 -106v-469q145 127 308 127t263 -102t100 -261v-686h-205v653q0 96 -59 156.5t-151 60.5q-137 0 -256 -129v-741h-207v1284q-100 45 -192 45t-153 -59.5t-61 -155.5v-90h283v-166h-283v-858h-207v858z" />
    <glyph glyph-name="uniE403" unicode="ffh" horiz-adv-x="2478" 
d="M1913 870q-135 0 -254 -129v-741h-207v1284q-100 45 -191 45t-152.5 -59.5t-61.5 -155.5v-90h282v-166h-282v-858h-207v858h-406v-858h-207v858h-186v166h186v160q0 137 92 225t234 88q96 0 205 -43v-176q-84 47 -159 47t-120 -45t-45 -119v-137h406v96q0 165 116 271
t300.5 106t402.5 -106v-469q150 127 311 127t261 -102.5t100 -260.5v-686h-205v653q0 96 -58.5 156.5t-154.5 60.5z" />
    <glyph glyph-name="uniE404" unicode="fj" horiz-adv-x="1200" 
d="M675 -301q73 0 119 46t46 120v993h-406v-858h-207v858h-186v166h186v96q0 164 112 270.5t288 106.5q133 0 276 -65v-183q-135 80 -243 80t-167 -60.5t-59 -156.5v-88h613v-1184q0 -135 -91 -224t-233 -89q-101 0 -209 45v176q88 -49 161 -49z" />
    <glyph glyph-name="uniE405" unicode="ffj" horiz-adv-x="1812" 
d="M1452 -135v993h-405v-858h-207v858h-406v-858h-207v858h-186v166h186v160q0 137 92 225t234 88q96 0 205 -43v-176q-84 47 -159 47t-120 -45t-45 -119v-137h406v96q0 164 110.5 270.5t288.5 106.5q133 0 277 -65v-183q-134 80 -242 80t-167.5 -60.5t-59.5 -156.5v-88h612
v-1184q0 -136 -90.5 -224.5t-235.5 -88.5q-97 0 -207 45v176q92 -49 163 -49t117 46t46 120z" />
    <glyph glyph-name="uniE406" unicode="fk" horiz-adv-x="1701" 
d="M227 858h-186v166h186v96q0 163 114.5 270t301.5 107q188 0 399 -106v-787l375 420h246l-446 -504l462 -520h-249l-388 436v-436h-202v1284q-100 45 -192 45t-153 -59.5t-61 -155.5v-90h283v-166h-283v-858h-207v858z" />
    <glyph glyph-name="uniE407" unicode="ffk" horiz-adv-x="2314" 
d="M565 1497q84 0 193 -43v-176q-84 47 -159 47t-120 -45t-45 -119v-137h406v96q0 165 116 271t302 106q185 0 397 -106v-787l377 420h243l-446 -504l463 -520h-248l-389 436v-436h-203v1284q-100 45 -191 45t-152.5 -59.5t-61.5 -155.5v-90h282v-166h-282v-858h-207v858
h-406v-858h-207v858h-186v166h186v160q0 137 92 225t246 88z" />
    <glyph glyph-name="uniE408" unicode="ft" horiz-adv-x="1443" 
d="M840 1024v260q-100 45 -192 45t-153 -59.5t-61 -155.5v-90h406zM840 289v569h-406v-858h-207v858h-186v166h186v96q0 163 114.5 270t303.5 107t402 -106v-367h323v-166h-323v-545q0 -74 46 -120t117 -46t160 50v-177q-104 -45 -191 -45q-160 0 -249.5 87.5t-89.5 226.5z
" />
    <glyph glyph-name="uniE409" unicode="fft" horiz-adv-x="2056" 
d="M1452 1024v260q-100 45 -191 45t-152.5 -59.5t-61.5 -155.5v-90h405zM1823 147q72 0 159 50v-177q-112 -45 -194 -45q-154 0 -245 88.5t-91 225.5v569h-405v-858h-207v858h-406v-858h-207v858h-186v166h186v160q0 137 92 225t234 88q96 0 205 -43v-176q-84 47 -159 47
t-120 -45t-45 -119v-137h406v96q0 165 116 271t300.5 106t402.5 -106v-367h323v-166h-323v-545q0 -74 46 -120t118 -46z" />
    <glyph glyph-name="uniE410" unicode="f&#xfe;" horiz-adv-x="1865" 
d="M1573 512q0 160 -81 260t-209 100t-236 -108v-502q106 -110 235 -110t210 100t81 260zM227 858h-186v166h186v96q0 163 114.5 270t303.5 107t402 -106v-449q129 106 276 107q201 0 331 -150.5t130 -386.5t-130 -386.5t-331 -150.5q-147 0 -276 107v-531h-207v1733
q-100 45 -192 45t-153 -60.5t-61 -156.5v-88h283v-166h-283v-858h-207v858z" />
    <glyph glyph-name="uniE411" unicode="ff&#xfe;" horiz-adv-x="2478" 
d="M2185 512q0 160 -81 260t-209 100t-236 -108v-502q106 -110 235 -110t210 100t81 260zM1659 -449h-207v1733q-100 45 -191 45t-152.5 -59.5t-61.5 -155.5v-90h282v-166h-282v-858h-207v858h-406v-858h-207v858h-186v166h186v160q0 137 92 225t234 88q96 0 205 -43v-176
q-84 47 -159 47t-120 -45t-45 -119v-137h406v96q0 165 116 271t300.5 106t402.5 -106v-449q123 107 278 107q203 0 331 -150.5t128 -386.5t-128 -386.5t-331 -150.5q-155 0 -278 107v-531z" />
    <glyph glyph-name="uniFB00" unicode="ff" horiz-adv-x="1370" 
d="M1177 1497q85 0 193 -43v-176q-84 47 -158 47t-119.5 -45t-45.5 -119v-137h282v-166h-282v-858h-207v858h-406v-858h-207v858h-186v166h186v160q0 137 92 225t234 88q96 0 205 -43v-176q-84 47 -159 47t-120 -45t-45 -119v-137h406v160q0 139 91.5 226t245.5 87z" />
    <glyph glyph-name="uniFB01" unicode="fi" horiz-adv-x="1200" 
d="M227 858h-186v166h186v96q0 164 112 270.5t288 106.5q133 0 276 -65v-183q-135 80 -243 80t-167 -60.5t-59 -156.5v-88h613v-1024h-207v858h-406v-858h-207v858z" />
    <glyph glyph-name="uniFB02" unicode="fl" horiz-adv-x="1200" 
d="M227 858h-186v166h186v96q0 163 114.5 270t303.5 107t402 -106v-1391h-207v1284q-96 45 -190 45t-155 -59.5t-61 -155.5v-90h283v-166h-283v-858h-207v858z" />
    <glyph glyph-name="uniFB03" unicode="ffi" horiz-adv-x="1812" 
d="M565 1497q84 0 193 -43v-176q-84 47 -159 47t-120 -45t-45 -119v-137h406v96q0 164 110.5 270.5t288.5 106.5q133 0 277 -65v-183q-134 80 -242 80t-167.5 -60.5t-59.5 -156.5v-88h612v-1024h-207v858h-405v-858h-207v858h-406v-858h-207v858h-186v166h186v160
q0 137 92 225t246 88z" />
    <glyph glyph-name="uniFB04" unicode="ffl" horiz-adv-x="1812" 
d="M1659 0h-207v1284q-100 45 -191 45t-152.5 -59.5t-61.5 -155.5v-90h282v-166h-282v-858h-207v858h-406v-858h-207v858h-186v166h186v160q0 137 92 225t234 88q96 0 205 -43v-176q-84 47 -159 47t-120 -45t-45 -119v-137h406v96q0 165 116 271t300.5 106t402.5 -106v-1391
z" />
    <glyph glyph-name=".notdef" horiz-adv-x="1024" 
d="M512 594l-332 -496h662zM569 682l332 -498v994zM123 186l14 21q24 34 123 186t193 289l-330 496v-992zM512 768l330 498h-662zM25 1362h972v-1362h-972v1362z" />
    <glyph glyph-name="glyph1" horiz-adv-x="0" 
 />
    <glyph glyph-name="glyph1" horiz-adv-x="0" 
 />
    <glyph glyph-name="glyph2" horiz-adv-x="512" 
 />
    <glyph glyph-name="space" unicode=" " horiz-adv-x="512" 
 />
    <glyph glyph-name="exclam" unicode="!" horiz-adv-x="569" 
d="M156 105q0 58 35.5 94.5t93 36.5t94.5 -36t37 -94t-37 -94.5t-94.5 -36.5t-93 36t-35.5 94zM182 1409h207v-995h-207v995z" />
    <glyph glyph-name="quotedbl" unicode="&#x22;" horiz-adv-x="876" 
d="M168 1409h178v-487h-178v487zM530 1409h179v-487h-179v487z" />
    <glyph glyph-name="numbersign" unicode="#" 
d="M401 547h312l39 315h-312zM12 547h209l39 315h-188v176h211l47 371h178l-45 -371h311l47 371h178l-45 -371h187v-176h-209l-39 -315h186v-176h-209l-47 -371h-178l45 371h-311l-47 -371h-178l45 371h-187v176z" />
    <glyph glyph-name="dollar" unicode="$" 
d="M535 211q113 0 185.5 55.5t72.5 136.5t-47.5 122.5t-118 71.5t-153.5 56.5t-153.5 68.5t-117.5 107.5t-47 188.5t91 217t240 123v307h179v-299q141 -10 278 -72v-196q-162 102 -326 102q-111 0 -180 -52t-69 -130t47 -117t117.5 -67.5t271.5 -92.5t201 -325
q0 -141 -93.5 -238.5t-246.5 -126.5v-307h-179v299q-162 12 -309 88v201q176 -121 357 -121z" />
    <glyph glyph-name="percent" unicode="%" horiz-adv-x="1730" 
d="M1313 1409h162l-1057 -1409h-162zM233 1056.5q0 -112.5 52.5 -182t135.5 -69.5t135 69.5t52 182t-52 182.5t-135 70t-135.5 -70t-52.5 -182.5zM663.5 1328q96.5 -106 96.5 -271t-96 -271t-245 -106t-243 105.5t-94 271.5t94.5 271.5t242.5 105.5t244.5 -106zM1122 352.5
q0 -112.5 52.5 -182.5t135.5 -70t135 70t52 182.5t-52 182t-135 69.5t-135.5 -69.5t-52.5 -182zM1065 623.5q94 105.5 243.5 105.5t245 -107t95.5 -270t-96 -270t-244.5 -107t-243 105t-94.5 272q0 166 94 271.5z" />
    <glyph glyph-name="ampersand" unicode="&#x26;" horiz-adv-x="1333" 
d="M602 150q117 0 236 51v434h-195q-142 0 -233 -70t-91 -177t83 -172.5t200 -65.5zM1309 635h-267v-545q-219 -115 -441 -115t-358.5 110t-136.5 282q0 127 72 223t195 137q-111 37 -173.5 126t-62.5 189q0 183 124 287.5t308 104.5q183 0 357 -84v-191q-164 100 -324 101
q-113 0 -183.5 -61.5t-70.5 -164.5t84 -170t221 -67h656v-162z" />
    <glyph glyph-name="quotesingle" unicode="'" horiz-adv-x="512" 
d="M168 1409h178v-487h-178v487z" />
    <glyph glyph-name="parenleft" unicode="(" horiz-adv-x="669" 
d="M147 578.5q0 484.5 302 894.5h215q-312 -399 -312 -897t312 -895h-215q-302 413 -302 897.5z" />
    <glyph glyph-name="parenright" unicode=")" horiz-adv-x="669" 
d="M522 574.5q0 -486.5 -301 -893.5h-217q313 400 313 896t-313 896h217q301 -412 301 -898.5z" />
    <glyph glyph-name="asterisk" unicode="*" horiz-adv-x="925" 
d="M381 1409h164v-301l286 94l50 -155l-285 -95l176 -243l-133 -97l-176 244l-178 -244l-131 97l176 243l-285 95l49 155l287 -94v301z" />
    <glyph glyph-name="plus" unicode="+" 
d="M63 666h424v424h179v-424h424v-179h-424v-424h-179v424h-424v179z" />
    <glyph glyph-name="comma" unicode="," horiz-adv-x="512" 
d="M170 201h201l-193 -457h-174z" />
    <glyph glyph-name="hyphen" unicode="-" horiz-adv-x="641" 
d="M66 604h509v-166h-509v166z" />
    <glyph glyph-name="period" unicode="." horiz-adv-x="512" 
d="M125 105q0 58 37 94.5t94 36.5t94 -36t37 -94t-37 -94.5t-94 -36.5t-94 36t-37 94z" />
    <glyph glyph-name="slash" unicode="/" horiz-adv-x="768" 
d="M504 1473h209l-449 -1792h-209z" />
    <glyph glyph-name="zero" unicode="0" 
d="M268 704.5q0 -124.5 22.5 -226t62.5 -174.5t97.5 -111.5t127 -38.5t126 38.5t96.5 111.5t62.5 174.5t22.5 226t-22.5 226t-62.5 173.5t-96.5 111.5t-126 39.5t-127 -39.5t-97.5 -111.5t-62.5 -173.5t-22.5 -226zM59 704.5q0 161.5 38 296t106.5 230.5t164 149.5t210 53.5
t210 -53.5t163 -149.5t105.5 -230.5t38 -296t-38 -296t-105.5 -230.5t-163 -149.5t-210 -53.5t-210 53.5t-164 149.5t-106.5 230.5t-38 296z" />
    <glyph glyph-name="one" unicode="1" 
d="M786 1409v-1409h-211v1182l-354 -203v192l422 238h143z" />
    <glyph glyph-name="two" unicode="2" 
d="M150 1317q197 117 389 117t312 -117.5t120 -296.5q0 -244 -208 -471t-362 -371h586v-178h-870v137q502 450 569.5 614.5t67.5 228.5q0 124 -72.5 197.5t-185.5 73.5q-175 0 -346 -135v201z" />
    <glyph glyph-name="three" unicode="3" 
d="M772 389q0 107 -86 175.5t-223 68.5h-80v166h68q129 0 210.5 66.5t81.5 168.5t-70.5 164t-202.5 62t-304 -103v193q174 84 357 84t307 -104t124 -273q0 -115 -62.5 -204t-172.5 -126q123 -41 195.5 -137t72.5 -202q0 -192 -136.5 -302.5t-336.5 -110.5t-381 93v196
q172 -114 323 -114t233.5 66t82.5 173z" />
    <glyph glyph-name="four" unicode="4" 
d="M676 535v575l-416 -575h416zM676 373h-625v135l656 901h170v-874h217v-162h-217v-373h-201v373z" />
    <glyph glyph-name="five" unicode="5" 
d="M439 709q-106 0 -236 -39v739h725v-178h-539v-377q72 14 163 14q193 0 319 -120t126 -318t-142 -326.5t-366 -128.5q-168 0 -327 80v203q156 -104 302 -104t233 79.5t87 199.5t-63.5 177.5t-119.5 78t-162 20.5z" />
    <glyph glyph-name="six" unicode="6" 
d="M311 477q0 -143 75 -233t195 -90t197.5 80.5t77.5 206.5t-75.5 204t-203.5 78t-255 -123q-11 -53 -11 -123zM631 899q194 0 312 -123.5t118 -326.5q0 -204 -137 -339t-346 -135t-342.5 146t-133.5 379t126 466.5t368 442.5h270q-369 -288 -497 -600q121 90 262 90z" />
    <glyph glyph-name="seven" unicode="7" 
d="M119 1231v178h891v-121l-541 -1288h-215l522 1231h-657z" />
    <glyph glyph-name="eight" unicode="8" 
d="M330 1032.5q0 -102.5 68.5 -168t178.5 -65.5t178 65.5t68 168t-68.5 168t-178.5 65.5t-178 -65.5t-68 -168zM305 389.5q0 -108.5 75 -177.5t197 -69t196.5 69t74.5 177.5t-75 177t-197 68.5t-196.5 -68.5t-74.5 -177zM131 1032q0 102 33 172t91 121t141 80t230.5 29
t271.5 -109t124 -278q0 -117 -61.5 -204t-165.5 -122q121 -35 189.5 -129t68.5 -200q0 -196 -132.5 -306.5t-344.5 -110.5t-344 110t-132 288q0 125 69 219t189 129q-104 35 -165.5 122t-61.5 189z" />
    <glyph glyph-name="nine" unicode="9" 
d="M842 936q0 140 -75 229.5t-192 89.5t-197.5 -79t-80.5 -207q0 -127 73.5 -205t203.5 -78t260 125q8 59 8 125zM522 512q-196 0 -313 122.5t-117 325.5q0 204 137 339t346 135t342.5 -146t133.5 -379t-126 -466.5t-368 -442.5h-270q371 295 497 602q-117 -90 -262 -90z
" />
    <glyph glyph-name="colon" unicode=":" horiz-adv-x="512" 
d="M125 105q0 58 37 94.5t94 36.5t94 -36t37 -94t-37 -94.5t-94 -36.5t-94 36t-37 94zM125 919q0 58 37 94t94 36t94 -36t37 -94t-37 -94.5t-94 -36.5t-94 36.5t-37 94.5z" />
    <glyph glyph-name="semicolon" unicode=";" horiz-adv-x="512" 
d="M125 919q0 58 37 94t94 36t94 -36t37 -94t-37 -94.5t-94 -36.5t-94 36.5t-37 94.5zM170 201h201l-193 -457h-174z" />
    <glyph glyph-name="less" unicode="&#x3c;" 
d="M63 504v145l1027 441v-193l-750 -319l750 -322v-193z" />
    <glyph glyph-name="equal" unicode="=" 
d="M63 877h1027v-179h-1027v179zM63 455h1027v-179h-1027v179z" />
    <glyph glyph-name="greater" unicode="&#x3e;" 
d="M1090 649v-145l-1027 -441v193l750 322l-750 319v193z" />
    <glyph glyph-name="question" unicode="?" horiz-adv-x="917" 
d="M301 471q0 155 116 282t143.5 184.5t27.5 130.5t-58.5 129t-154.5 56q-152 0 -303 -133v197q164 117 338 117t283.5 -100.5t109.5 -266.5q0 -165 -121.5 -298.5t-152.5 -197t-31 -116.5v-41h-197v57zM268 105q0 58 37 94.5t94.5 36.5t93 -36t35.5 -94t-35.5 -94.5
t-93 -36.5t-94.5 36t-37 94z" />
    <glyph glyph-name="at" unicode="@" horiz-adv-x="2015" 
d="M1007 811q-105 0 -171 -84t-66 -215t65.5 -214t173.5 -83t189 88v418q-86 90 -191 90zM963 981q126 0 235 -92v72h201v-607q0 -61 31.5 -99t81.5 -38q94 0 156.5 106t62.5 265q0 307 -196 494.5t-513 187.5q-316 0 -526.5 -212.5t-210.5 -544.5q0 -331 214 -545t543 -214
q229 0 476 137v-178q-244 -123 -463 -123q-220 0 -393 69t-297.5 191.5t-195.5 291.5t-71 371t69 371t192.5 290.5t294.5 190.5t371 69t362.5 -61.5t280.5 -171t183.5 -260t65.5 -303.5q0 -272 -118 -432.5t-314 -160.5q-165 0 -248 121q-113 -121 -280 -121t-279.5 130.5
t-112.5 336t112 337.5t286 132z" />
    <glyph glyph-name="A" unicode="A" horiz-adv-x="1333" 
d="M434 537h463l-231 598zM578 1409h176l559 -1409h-209l-146 375h-583l-148 -375h-209z" />
    <glyph glyph-name="B" unicode="B" horiz-adv-x="1259" 
d="M195 1409h499q182 0 297 -105.5t115 -263.5q0 -111 -57.5 -196.5t-157.5 -122.5q123 -35 193.5 -126t70.5 -195q0 -185 -118 -292.5t-308 -107.5h-534v1409zM399 797h256q109 0 176.5 62.5t67.5 161.5t-67.5 161.5t-176.5 62.5h-256v-448zM399 164h289q117 0 186.5 65.5
t69.5 170t-69.5 170t-186.5 65.5h-289v-471z" />
    <glyph glyph-name="C" unicode="C" horiz-adv-x="1269" 
d="M98 704.5q0 320.5 191.5 525t486.5 204.5q194 0 398 -103v-196q-186 121 -367 120q-219 0 -355.5 -154t-136.5 -396.5t137 -396.5t355 -154q180 0 367 120v-196q-202 -103 -375 -103t-296.5 54.5t-264 204.5t-140.5 470.5z" />
    <glyph glyph-name="D" unicode="D" horiz-adv-x="1452" 
d="M406 172h249q215 0 348.5 148.5t133.5 384t-133.5 384t-348.5 148.5h-249v-1065zM195 1409h473q303 0 494.5 -199t191.5 -505.5t-141.5 -453.5t-268.5 -199t-276 -52h-473v1409z" />
    <glyph glyph-name="E" unicode="E" horiz-adv-x="1142" 
d="M195 1409h827v-172h-616v-436h536v-170h-536v-459h632v-172h-843v1409z" />
    <glyph glyph-name="F" unicode="F" horiz-adv-x="1093" 
d="M195 1409h827v-172h-616v-473h536v-172h-536v-592h-211v1409z" />
    <glyph glyph-name="G" unicode="G" horiz-adv-x="1404" 
d="M98 704.5q0 321.5 195.5 525.5t497.5 204q213 0 421 -113v-201q-206 140 -412 140t-347.5 -155.5t-141.5 -398.5t138.5 -399.5t357.5 -156.5q126 0 260 59v371h-322v159h523v-647q-240 -117 -473 -117q-306 0 -501.5 204t-195.5 525.5z" />
    <glyph glyph-name="H" unicode="H" horiz-adv-x="1531" 
d="M195 1409h211v-606h720v606h211v-1409h-211v631h-720v-631h-211v1409z" />
    <glyph glyph-name="I" unicode="I" horiz-adv-x="600" 
d="M195 1409h211v-1409h-211v1409z" />
    <glyph glyph-name="J" unicode="J" horiz-adv-x="958" 
d="M772 383q0 -179 -118 -293.5t-304 -114.5q-131 0 -276 64v186q127 -71 236 -71t179 69t70 180v1006h213v-1026z" />
    <glyph glyph-name="K" unicode="K" horiz-adv-x="1284" 
d="M195 1409h206v-614l590 614h256l-653 -692l674 -717h-262l-605 639v-639h-206v1409z" />
    <glyph glyph-name="L" unicode="L" horiz-adv-x="1038" 
d="M195 1409h211v-1237h589v-172h-800v1409z" />
    <glyph glyph-name="M" unicode="M" horiz-adv-x="1716" 
d="M195 1409h186l479 -674l477 674h187v-1409h-201v1067l-399 -563h-131l-398 563v-1067h-200v1409z" />
    <glyph glyph-name="N" unicode="N" horiz-adv-x="1531" 
d="M195 1409h186l756 -1067v1067h200v-1409h-186l-756 1067v-1067h-200v1409z" />
    <glyph glyph-name="O" unicode="O" horiz-adv-x="1531" 
d="M315 704.5q0 -120.5 33 -222t92.5 -174t142.5 -113.5t183 -41t183 41t142.5 113.5t92.5 174t33 222t-33 222t-92.5 174.5t-142.5 113.5t-183 40.5t-183 -40.5t-142.5 -113.5t-92.5 -174.5t-33 -222zM98 704.5q0 159.5 49.5 294t137.5 231.5t210.5 150.5t270 53.5
t270.5 -53.5t212 -150.5t138.5 -231.5t49.5 -294t-49.5 -294t-138.5 -231.5t-212 -150.5t-270.5 -53.5t-270 53.5t-210.5 150.5t-137.5 231.5t-49.5 294z" />
    <glyph glyph-name="P" unicode="P" horiz-adv-x="1220" 
d="M401 694h228q133 0 216 75t83 197t-82.5 198.5t-216.5 76.5h-228v-547zM195 1409h464q210 0 347 -123.5t137 -318.5t-136 -318t-348 -123h-258v-526h-206v1409z" />
    <glyph glyph-name="Q" unicode="Q" horiz-adv-x="1531" 
d="M315 704.5q0 -120.5 33 -222t92.5 -174t142.5 -113.5t183 -41t183 41t142.5 113.5t92.5 174t33 222t-33 222t-92.5 174.5t-142.5 113.5t-183 40.5t-183 -40.5t-142.5 -113.5t-92.5 -174.5t-33 -222zM98 704.5q0 159.5 49.5 294t137.5 231.5t210.5 150.5t344 53.5
t409 -204.5t187.5 -524.5q0 -201 -76 -358t-207 -253l281 -303h-248l-203 223q-106 -39 -235 -39t-252 53.5t-211 150.5t-137.5 231.5t-49.5 294z" />
    <glyph glyph-name="R" unicode="R" horiz-adv-x="1259" 
d="M195 1409h456q209 0 342 -120t133 -314q0 -147 -80.5 -255t-224.5 -151l348 -569h-231l-326 541h-211v-541h-206v1409zM401 709h220q131 0 210.5 75.5t79.5 189.5q0 115 -79.5 191t-210.5 76h-220v-532z" />
    <glyph glyph-name="S" unicode="S" horiz-adv-x="1126" 
d="M520 145q133 0 215 64.5t82 158.5t-52 140.5t-132 79.5t-171 61.5t-223.5 104.5t-132.5 284q0 178 135.5 287t334.5 109q200 0 385 -80v-201q-178 111 -355 111q-129 0 -209 -61t-80 -151t52.5 -136t132.5 -77.5t171 -61t171 -76t132 -121t52 -180.5
q0 -200 -138.5 -312.5t-348.5 -112.5q-209 0 -408 97v204q200 -131 387 -131z" />
    <glyph glyph-name="T" unicode="T" horiz-adv-x="1214" 
d="M502 1237h-447v172h1102v-172h-444v-1237h-211v1237z" />
    <glyph glyph-name="U" unicode="U" horiz-adv-x="1531" 
d="M1346 520q0 -239 -164 -392t-416 -153t-416 153t-164 392v889h211v-872q0 -169 105 -276t264 -107t264 107t105 276v872h211v-889z" />
    <glyph glyph-name="V" unicode="V" horiz-adv-x="1333" 
d="M754 0h-176l-560 1409h218l430 -1112l430 1112h217z" />
    <glyph glyph-name="W" unicode="W" horiz-adv-x="2125" 
d="M1614 0h-187l-364 1137l-363 -1137h-188l-481 1409h211l364 -1137l363 1137h188l363 -1137l362 1137h213z" />
    <glyph glyph-name="X" unicode="X" horiz-adv-x="1339" 
d="M543 717l-486 692h244l369 -541l368 541h244l-485 -692l501 -717h-247l-381 565l-381 -565h-250z" />
    <glyph glyph-name="Y" unicode="Y" horiz-adv-x="1243" 
d="M727 0h-211v604l-506 805h242l369 -612l368 612h244l-506 -805v-604z" />
    <glyph glyph-name="Z" unicode="Z" horiz-adv-x="1277" 
d="M125 1237v172h1032v-129l-805 -1108h819v-172h-1087v129l807 1108h-766z" />
    <glyph glyph-name="bracketleft" unicode="[" horiz-adv-x="669" 
d="M197 1473h415v-160h-215v-1473h215v-159h-415v1792z" />
    <glyph glyph-name="backslash" unicode="\" horiz-adv-x="768" 
d="M55 1473h209l449 -1792h-209z" />
    <glyph glyph-name="bracketright" unicode="]" horiz-adv-x="669" 
d="M473 -319h-418v159h215v1473h-215v160h418v-1792z" />
    <glyph glyph-name="asciicircum" unicode="^" 
d="M504 1409h145l441 -1024h-193l-319 748l-322 -748h-193z" />
    <glyph glyph-name="underscore" unicode="_" horiz-adv-x="1024" 
d="M0 -174h1024v-166h-1024v166z" />
    <glyph glyph-name="grave" unicode="`" horiz-adv-x="512" 
d="M-41 1473h205l215 -316h-172z" />
    <glyph glyph-name="a" unicode="a" horiz-adv-x="1060" 
d="M287 309q0 -80 50 -126t128 -46q133 0 252 123v234q-68 6 -135 6q-133 0 -214 -55.5t-81 -135.5zM82 272q0 158 136.5 258.5t350.5 100.5q74 0 148 -6v69q0 86 -60.5 139.5t-156.5 53.5q-162 0 -330 -94v174q176 82 352 82t283.5 -101t107.5 -260v-688h-196v94
q-150 -119 -303 -119t-242.5 83.5t-89.5 213.5z" />
    <glyph glyph-name="b" unicode="b" horiz-adv-x="1179" 
d="M156 1473h204v-531q129 106 277 107q204 0 332.5 -151t128.5 -386t-128.5 -386t-332.5 -151q-147 0 -277 107v-82h-204v1473zM360 262q106 -110 236 -110t210.5 100t80.5 260t-81 260t-208 100q-128 0 -238 -108v-502z" />
    <glyph glyph-name="c" unicode="c" horiz-adv-x="983" 
d="M614 -25q-244 0 -388 151t-144 386t143.5 386t368.5 151q152 0 299 -72v-189q-131 89 -270 89q-140 0 -235 -101t-95 -262.5t94.5 -264t235.5 -102.5q142 0 270 89v-189q-147 -72 -279 -72z" />
    <glyph glyph-name="d" unicode="d" horiz-adv-x="1179" 
d="M1026 0h-207v82q-129 -106 -276 -107q-202 0 -331.5 150.5t-129.5 386.5t129.5 386.5t331.5 150.5q147 0 276 -107v531h207v-1473zM293 512q0 -160 81 -260t209 -100t236 110v502q-109 108 -237 108t-208.5 -100t-80.5 -260z" />
    <glyph glyph-name="e" unicode="e" horiz-adv-x="1075" 
d="M557 887q-109 0 -184.5 -80t-85.5 -209h516q-4 129 -70.5 209t-175.5 80zM219 898.5q137 150.5 341 150.5q205 0 324.5 -142.5t119.5 -363.5v-40t-5 -42h-712q8 -144 102 -234t238 -90q143 0 301 99v-181q-166 -80 -306 -80t-234.5 40t-200 154t-105.5 346
q0 233 137 383.5z" />
    <glyph glyph-name="f" unicode="f" horiz-adv-x="757" 
d="M565 1497q84 0 193 -43v-176q-84 47 -159 47t-120 -45t-45 -119v-137h283v-166h-283v-858h-207v858h-186v166h186v160q0 137 92 225t246 88z" />
    <glyph glyph-name="g" unicode="g" horiz-adv-x="1179" 
d="M293 512q0 -160 81 -260t209 -100t236 110v502q-109 108 -237 108t-208.5 -100t-80.5 -260zM178 -211q179 -98 322 -98t231 84t88 219v88q-129 -106 -276 -107q-202 0 -331.5 150.5t-129.5 386.5t129.5 386.5t331.5 150.5q147 0 276 -107v82h207v-1028
q0 -205 -139.5 -337t-358.5 -132q-176 0 -350 78v184z" />
    <glyph glyph-name="h" unicode="h" horiz-adv-x="1179" 
d="M360 922q150 127 310 127q161 0 262.5 -101.5t101.5 -261.5v-686h-207v653q0 96 -59 156.5t-152 60.5q-137 0 -256 -129v-741h-204v1473h204v-551z" />
    <glyph glyph-name="i" unicode="i" horiz-adv-x="514" 
d="M135 1315q0 53 35 87t88 34t88 -34t35 -87t-35 -87t-88 -34t-88 34t-35 87zM156 1024h204v-1024h-204v1024z" />
    <glyph glyph-name="j" unicode="j" horiz-adv-x="514" 
d="M-9 -301q73 0 119 46t46 120v1159h204v-1184q0 -138 -89.5 -225.5t-233.5 -87.5q-94 0 -207 45v176q88 -49 161 -49zM135 1315q0 53 35 87t88 34t88 -34t35 -87t-35 -87t-88 -34t-88 34t-35 87z" />
    <glyph glyph-name="k" unicode="k" horiz-adv-x="1015" 
d="M156 1473h200v-869l377 420h244l-447 -504l463 -520h-252l-385 436v-436h-200v1473z" />
    <glyph glyph-name="l" unicode="l" horiz-adv-x="514" 
d="M156 1473h204v-1473h-204v1473z" />
    <glyph glyph-name="m" unicode="m" horiz-adv-x="1781" 
d="M664 1049q198 0 290 -156q160 156 346 156q147 0 240.5 -97.5t93.5 -251.5v-700h-204v670q0 88 -52.5 144t-136.5 56q-125 0 -244 -125v-745h-204v670q0 88 -52.5 144t-136.5 56q-125 0 -244 -125v-745h-204v1024h204v-96q143 121 304 121z" />
    <glyph glyph-name="n" unicode="n" horiz-adv-x="1179" 
d="M360 922q150 127 310 127q161 0 262.5 -101.5t101.5 -261.5v-686h-207v653q0 96 -59 156.5t-152 60.5q-137 0 -256 -129v-741h-204v1024h204v-102z" />
    <glyph glyph-name="o" unicode="o" horiz-adv-x="1179" 
d="M293 512q0 -80 21.5 -147.5t61.5 -115.5t94 -75t119.5 -27t120 27t94.5 75t61.5 115.5t21.5 147.5t-21.5 147.5t-61.5 115.5t-94.5 75t-120 27t-119.5 -27t-94 -75t-61.5 -115.5t-21.5 -147.5zM82 512q0 119 37 217t104.5 169t160.5 111t205.5 40t206 -40t161 -111
t104.5 -169t37 -217t-37 -217t-104.5 -169t-161 -111t-206 -40t-205.5 40t-160.5 111t-104.5 169t-37 217z" />
    <glyph glyph-name="p" unicode="p" horiz-adv-x="1179" 
d="M156 1024h204v-82q129 106 277 107q204 0 332.5 -151t128.5 -386t-128.5 -386t-332.5 -151q-147 0 -277 107v-531h-204v1473zM360 262q106 -110 236 -110t210.5 100t80.5 260t-81 260t-208 100q-128 0 -238 -108v-502z" />
    <glyph glyph-name="q" unicode="q" horiz-adv-x="1179" 
d="M1026 -449h-207v531q-129 -106 -276 -107q-202 0 -331.5 150.5t-129.5 386.5t129.5 386.5t331.5 150.5q147 0 276 -107v82h207v-1473zM293 512q0 -160 81 -260t209 -100t236 110v502q-109 108 -237 108t-208.5 -100t-80.5 -260z" />
    <glyph glyph-name="r" unicode="r" horiz-adv-x="782" 
d="M623 866q-149 0 -263 -147v-719h-204v1024h204v-115q121 139 271 140q45 0 92 -13v-186q-49 16 -100 16z" />
    <glyph glyph-name="s" unicode="s" horiz-adv-x="876" 
d="M590 278q0 58 -37 87.5t-92 51t-213 70.5t-158 258q0 135 105 219.5t256 84.5t292 -60v-184q-133 80 -266 80q-80 0 -131 -38t-51 -93t37 -83t93 -49.5t214 -71.5t158 -263q0 -140 -107 -226t-266 -86q-160 0 -313 72v189q145 -96 290 -97q82 0 135.5 40.5t53.5 98.5z
" />
    <glyph glyph-name="t" unicode="t" horiz-adv-x="837" 
d="M594 147q70 0 164 50v-177q-113 -45 -195 -45q-155 0 -245.5 88.5t-90.5 225.5v569h-186v166h186v289h207v-289h324v-166h-324v-545q0 -74 45 -120t115 -46z" />
    <glyph glyph-name="u" unicode="u" horiz-adv-x="1179" 
d="M563 156q135 0 256 127v741h207v-1024h-207v102q-150 -127 -311 -127t-261 102.5t-100 260.5v686h205v-653q0 -94 59.5 -154.5t151.5 -60.5z" />
    <glyph glyph-name="v" unicode="v" horiz-adv-x="1036" 
d="M604 0h-172l-405 1024h211l280 -743l281 743h211z" />
    <glyph glyph-name="w" unicode="w" horiz-adv-x="1611" 
d="M1227 0h-185l-235 764l-238 -764h-184l-350 1024h205l237 -764l238 764h184l236 -764l237 764h205z" />
    <glyph glyph-name="x" unicode="x" horiz-adv-x="1050" 
d="M401 520l-348 504h234l237 -358l242 358h231l-348 -504l363 -520h-238l-250 375l-245 -375h-240z" />
    <glyph glyph-name="y" unicode="y" horiz-adv-x="1036" 
d="M428 -449h-203l195 480l-393 993h211l280 -743l281 743h211z" />
    <glyph glyph-name="z" unicode="z" horiz-adv-x="989" 
d="M111 858v166h770v-121l-537 -737h547v-166h-811v121l538 737h-507z" />
    <glyph glyph-name="braceleft" unicode="{" horiz-adv-x="669" 
d="M612 1313h-20q-78 0 -127 -51.5t-49 -131.5v-294q0 -92 -47 -161t-131 -97q84 -29 131 -98.5t47 -162.5v-294q0 -80 49 -131.5t127 -51.5h20v-159h-55q-150 0 -246 92t-96 233v299q0 86 -43 139.5t-111 53.5h-20v157h20q68 0 111 53.5t43 139.5v299q0 141 96.5 233.5
t245.5 92.5h55v-160z" />
    <glyph glyph-name="bar" unicode="|" horiz-adv-x="512" 
d="M168 1538h178v-2050h-178v2050z" />
    <glyph glyph-name="braceright" unicode="}" horiz-adv-x="669" 
d="M55 -160h23q78 0 127 51.5t49 131.5v294q0 92 46 162t132 99q-86 29 -132 97t-46 161v294q0 80 -49 131.5t-127 51.5h-23v160h56q150 0 247 -93t97 -233v-299q0 -86 43 -139.5t110 -53.5h19v-157h-19q-68 0 -110.5 -53.5t-42.5 -139.5v-299q0 -140 -96.5 -232.5
t-247.5 -92.5h-56v159z" />
    <glyph glyph-name="asciitilde" unicode="~" 
d="M53 416q0 158 82 255t217 97q76 0 135.5 -31.5t108.5 -70.5t93 -71t98 -32t94.5 48t40.5 126h178q0 -158 -82 -255t-217 -97q-78 0 -136.5 32t-107.5 70.5t-93 70.5t-98 32t-94.5 -48t-40.5 -126h-178z" />
    <glyph glyph-name="uni00A0" unicode="&#xa0;" horiz-adv-x="512" 
 />
    <glyph glyph-name="exclamdown" unicode="&#xa1;" horiz-adv-x="569" 
d="M416 919q0 -58 -37 -94.5t-94.5 -36.5t-93 36t-35.5 94t35.5 94.5t93 36.5t94.5 -36t37 -94zM389 -385h-209v997h209v-997z" />
    <glyph glyph-name="cent" unicode="&#xa2;" 
d="M979 981q-133 88 -273 88t-233.5 -102t-93.5 -261.5t93.5 -262.5t233.5 -103t273 88v-188q-113 -55 -238 -68v-301h-178v309q-176 35 -286.5 177t-110.5 347.5t109.5 346t287.5 178.5v309h178v-301q120 -8 238 -68v-188z" />
    <glyph glyph-name="sterling" unicode="&#xa3;" 
d="M129 633v168h182l99 334q41 139 140.5 219t221.5 80t236 -48v-184q-94 53 -178 53t-141.5 -47t-82.5 -131l-80 -276h301v-168h-350l-133 -461h711v-172h-940v113l151 520h-137z" />
    <glyph glyph-name="currency" unicode="&#xa4;" 
d="M317 704.5q0 -114.5 72 -186.5t187 -72t187.5 72t72.5 186.5t-73 187.5t-187 73t-186.5 -73t-72.5 -187.5zM156 704.5q0 133.5 63 231.5l-180 180l125 127l182 -182q96 65 230 65t231 -65l182 182l127 -127l-184 -180q66 -100 66 -233t-66 -230l184 -180l-127 -127
l-182 182q-96 -66 -231 -66t-232 66l-180 -182l-125 127l180 180q-63 98 -63 231.5z" />
    <glyph glyph-name="yen" unicode="&#xa5;" 
d="M471 285h-307v145h307v182h-307v144h252l-410 653h240l332 -549l329 549h240l-410 -653h252v-144h-307v-182h307v-145h-307v-285h-211v285z" />
    <glyph glyph-name="brokenbar" unicode="&#xa6;" horiz-adv-x="512" 
d="M168 385h178v-770h-178v770zM168 1409h178v-768h-178v768z" />
    <glyph glyph-name="section" unicode="&#xa7;" horiz-adv-x="1028" 
d="M315 621q0 -129 136.5 -174.5t193.5 -69.5q78 74 78 170t-75 137t-133.5 60t-115.5 44q-84 -72 -84 -167zM467 -111q98 0 159.5 48.5t61.5 115.5t-42 103.5t-105.5 64t-241.5 92.5t-178 282q0 161 117 282q-99 87 -99 227t114 235t283 95t326 -68v-192q-150 90 -299 90
q-94 0 -152.5 -45t-58.5 -111t42 -100.5t105.5 -61t136.5 -53.5t178.5 -95t105.5 -247q0 -143 -113 -262q92 -84 92 -231t-118 -243t-294 -96t-348 78v197q169 -105 328 -105z" />
    <glyph glyph-name="dieresis" unicode="&#xa8;" horiz-adv-x="512" 
d="M-74 1315q0 53 33 86t86 33t86 -33t33 -86t-33 -86t-86 -33t-86 33t-33 86zM350 1315q0 53 32 86t85 33t86 -33t33 -86t-33 -86t-86 -33t-85 33t-32 86z" />
    <glyph glyph-name="copyright" unicode="&#xa9;" horiz-adv-x="1730" 
d="M481 704.5q0 185.5 115 308t297 122.5q125 0 240 -60v-145q-108 71 -222 71t-189 -82.5t-75 -213.5t75.5 -213t187.5 -82t223 69v-145q-118 -60 -224 -60t-182 32t-161 122.5t-85 276zM254 704.5q0 -267.5 170.5 -440t439.5 -172.5t441 173t172 439.5t-171.5 439.5
t-441.5 173q-269 0 -439.5 -172.5t-170.5 -440zM129 704.5q0 161.5 54.5 297t151.5 233.5t232 152.5t297 54.5t297 -54.5t233.5 -152.5t153 -233.5t54.5 -297t-54.5 -297t-153 -233.5t-233.5 -152.5t-297 -54.5t-297 54.5t-232 152.5t-151.5 233.5t-54.5 297z" />
    <glyph glyph-name="ordfeminine" unicode="&#xaa;" horiz-adv-x="696" 
d="M213 968q0 -44 27.5 -70t72.5 -26q72 0 136 68v129q-18 4 -23 4h-51q-72 0 -117 -30.5t-45 -74.5zM59 950q0 92 85 154.5t223 62.5h31q30 0 51 -2v31q0 47 -35 78t-88 31q-100 0 -211 -62v129q119 53 231 53t182 -64.5t70 -166.5v-426h-149v53q-85 -67 -181 -67
t-152.5 52t-56.5 144zM82 637h532v-121h-532v121z" />
    <glyph glyph-name="guillemotleft" unicode="&#xab;" horiz-adv-x="1267" 
d="M342 512l377 -430h-221l-408 430l408 432h221zM801 512l377 -430h-220l-407 430l407 432h220z" />
    <glyph glyph-name="logicalnot" unicode="&#xac;" 
d="M63 666h1027v-603h-179v424h-848v179z" />
    <glyph glyph-name="uni00AD" unicode="&#xad;" horiz-adv-x="641" 
d="M66 604h509v-166h-509v166z" />
    <glyph glyph-name="registered" unicode="&#xae;" horiz-adv-x="1024" 
d="M358 1233h170q74 0 120 -43t46 -109q0 -100 -94 -139l111 -188h-105l-100 174h-53v-174h-95v479zM453 1006h61q37 0 59.5 20t22.5 54t-22.5 55.5t-59.5 21.5h-61v-151zM158 993q0 -78 26.5 -143.5t73.5 -112.5t111.5 -72.5t142.5 -25.5t143.5 25.5t112.5 72.5t73.5 112.5
t26.5 143.5t-26.5 142.5t-73.5 111.5t-112.5 74t-143.5 27t-142.5 -27t-111.5 -74t-73.5 -111.5t-26.5 -142.5zM72 993.5q0 96.5 32.5 177t91 139t139.5 91.5t177 33t177 -33t139.5 -91.5t91 -139t32.5 -177t-32.5 -177.5t-91 -139.5t-139.5 -91t-177 -32.5t-177 32.5
t-139.5 91t-91 139.5t-32.5 177.5z" />
    <glyph glyph-name="macron" unicode="&#xaf;" horiz-adv-x="512" 
d="M-68 1389h648v-146h-648v146z" />
    <glyph glyph-name="degree" unicode="&#xb0;" horiz-adv-x="733" 
d="M229 1165.5q0 -59.5 39.5 -98.5t99.5 -39t98 39t38 98.5t-38 98.5t-98 39t-99.5 -39t-39.5 -98.5zM98 1165.5q0 118.5 75 193.5t193.5 75t193.5 -75t75 -193.5t-75 -193.5t-193.5 -75t-193.5 75t-75 193.5z" />
    <glyph glyph-name="plusminus" unicode="&#xb1;" 
d="M63 178h1027v-178h-1027v178zM63 883h424v424h179v-424h424v-178h-424v-424h-179v424h-424v178z" />
    <glyph glyph-name="uni00B2" unicode="&#xb2;" horiz-adv-x="636" 
d="M41 934q352 304 352 456q0 72 -39 112t-98 40q-101 0 -195 -80v150q116 67 234 67q119 0 191.5 -70.5t72.5 -174.5t-71.5 -213t-229.5 -254h309v-133h-526v100z" />
    <glyph glyph-name="uni00B3" unicode="&#xb3;" horiz-adv-x="628" 
d="M195 1319h41q66 0 108.5 32.5t42.5 84.5t-35.5 82t-111.5 30t-172 -59v141q100 49 214 49t188.5 -62.5t74.5 -164.5q0 -66 -35 -117t-94 -73q68 -23 107.5 -79.5t39.5 -127.5q0 -104 -81 -170t-203 -66t-230 51v146q103 -66 185 -66t125.5 33t43.5 87t-44 89t-115 35h-49
v125z" />
    <glyph glyph-name="acute" unicode="&#xb4;" horiz-adv-x="512" 
d="M348 1473h205l-248 -316h-172z" />
    <glyph glyph-name="mu" unicode="&#xb5;" horiz-adv-x="1187" 
d="M571 156q135 0 256 127v741h207v-1024h-207v102q-131 -119 -276 -118q-111 0 -191 67v-500h-204v1473h204v-653q0 -94 59.5 -154.5t151.5 -60.5z" />
    <glyph glyph-name="paragraph" unicode="&#xb6;" horiz-adv-x="1187" 
d="M526 584q-197 0 -322.5 115t-125.5 296t124.5 297.5t323.5 116.5h467v-1665h-178v1487h-186v-647h-103z" />
    <glyph glyph-name="periodcentered" unicode="&#xb7;" horiz-adv-x="512" 
d="M125 511q0 58 37 94t94 36t94 -36t37 -94t-37 -94t-94 -36t-94 36t-37 94z" />
    <glyph glyph-name="cedilla" unicode="&#xb8;" horiz-adv-x="512" 
d="M459 -274q0 -90 -71 -144.5t-165 -54.5t-170 37v131q72 -41 129 -41t86 22.5t29 60.5t-32 61.5t-93 23.5h-12l45 178h135l-25 -104q68 -14 106 -61.5t38 -108.5z" />
    <glyph glyph-name="uni00B9" unicode="&#xb9;" horiz-adv-x="530" 
d="M406 1665v-831h-162v659l-201 -113v144l256 141h107z" />
    <glyph glyph-name="ordmasculine" unicode="&#xba;" horiz-adv-x="774" 
d="M219 1089.5q0 -92.5 46 -149.5t121 -57t122 57t47 149.5t-47 148.5t-122 56t-121 -56t-46 -148.5zM150.5 1329.5q91.5 95.5 236.5 95.5q146 0 236 -94t90 -243t-90.5 -241.5t-234.5 -92.5q-145 0 -237 94t-92 240t91.5 241.5zM82 637h610v-121h-610v121z" />
    <glyph glyph-name="guillemotright" unicode="&#xbb;" horiz-adv-x="1267" 
d="M926 512l-375 432h219l408 -432l-408 -430h-219zM467 512l-377 432h219l410 -432l-410 -430h-219z" />
    <glyph glyph-name="onequarter" unicode="&#xbc;" horiz-adv-x="1730" 
d="M1417 328v284l-207 -284h207zM1417 205h-358v98l381 528h127v-503h125v-123h-125v-205h-150v205zM1313 1409h162l-1057 -1409h-164zM492 1409v-831h-162v659l-201 -113v144l256 141h107z" />
    <glyph glyph-name="onehalf" unicode="&#xbd;" horiz-adv-x="1730" 
d="M1100 100q352 304 352 456q0 72 -39 112.5t-98 40.5q-103 0 -195 -80v149q117 68 235 68t190.5 -70t72.5 -174t-71.5 -213.5t-229.5 -255.5h309v-133h-526v100zM1313 1409h162l-1057 -1409h-164zM492 1409v-831h-162v659l-201 -113v144l256 141h107z" />
    <glyph glyph-name="threequarters" unicode="&#xbe;" horiz-adv-x="1730" 
d="M1417 328v284l-207 -284h207zM1417 205h-358v98l381 528h127v-503h125v-123h-125v-205h-150v205zM1313 1409h162l-1057 -1409h-164zM233 1063h41q66 0 109 32.5t43 84.5t-36 82t-112 30t-172 -59v141q100 49 214 49t189 -62.5t75 -164.5q0 -66 -35 -117t-94 -73
q68 -23 107.5 -79.5t39.5 -127.5q0 -104 -81 -170t-203 -66t-230 51v146q102 -66 184 -66t126 33t44 87t-44 89t-115 35h-50v125z" />
    <glyph glyph-name="questiondown" unicode="&#xbf;" horiz-adv-x="917" 
d="M846 -293q-167 -115 -340 -115t-282 100.5t-109 262.5t125 303t153.5 199.5t28.5 111.5v43h196v-59q0 -155 -114.5 -279t-143 -183.5t-28.5 -115.5q0 -92 58.5 -148t152.5 -56q150 0 303 135v-199zM649 919q0 -58 -35.5 -94.5t-93.5 -36.5t-94.5 36t-36.5 94t36 94.5
t94 36.5t94 -36t36 -94z" />
    <glyph glyph-name="Agrave" unicode="&#xc0;" horiz-adv-x="1333" 
d="M434 537h463l-231 598zM578 1409h176l559 -1409h-209l-146 375h-583l-148 -375h-209zM369 1858h204l215 -316h-172z" />
    <glyph glyph-name="Aacute" unicode="&#xc1;" horiz-adv-x="1333" 
d="M434 537h463l-231 598zM578 1409h176l559 -1409h-209l-146 375h-583l-148 -375h-209zM758 1858h205l-248 -316h-172z" />
    <glyph glyph-name="Acircumflex" unicode="&#xc2;" horiz-adv-x="1333" 
d="M434 537h463l-231 598zM578 1409h176l559 -1409h-209l-146 375h-583l-148 -375h-209zM575 1858h181l215 -316h-162l-143 184l-142 -184h-164z" />
    <glyph glyph-name="Atilde" unicode="&#xc3;" horiz-adv-x="1333" 
d="M434 537h463l-231 598zM578 1409h176l559 -1409h-209l-146 375h-583l-148 -375h-209zM338 1595q0 103 55 167t129 64t152 -56q77 -57 111 -57q34 -1 56 25t21 66h131q0 -102 -54 -167t-130 -65t-153 57q-30 22 -56 40q-26 19 -58 19q-30 0 -52 -26t-21 -67h-131z" />
    <glyph glyph-name="Adieresis" unicode="&#xc4;" horiz-adv-x="1333" 
d="M434 537h463l-231 598zM578 1409h176l559 -1409h-209l-146 375h-583l-148 -375h-209zM336 1700q0 53 33 86t86 33t86 -33t33 -86t-34 -86q-32 -33 -85 -33t-86 33t-33 86zM760 1700q0 53 32 86t85 33t86 -33t33 -86t-34 -86q-32 -33 -85 -33t-85 33t-32 86z" />
    <glyph glyph-name="Aring" unicode="&#xc5;" horiz-adv-x="1333" 
d="M434 537h463l-231 598zM578 1409h176l559 -1409h-209l-146 375h-583l-148 -375h-209zM561 1700q0 -47 29 -76t76 -29q48 0 76 29t28 76t-29 76q-29 28 -75 28t-76 -28q-29 -28 -29 -76zM461 1700q0 92 56 149q57 57 149 57t149 -56q57 -58 57 -150t-57 -148t-149 -57
q-92 0 -149 56q-56 57 -56 149z" />
    <glyph glyph-name="AE" unicode="&#xc6;" horiz-adv-x="1861" 
d="M1741 1409v-172h-617v-436h537v-170h-537v-459h633v-172h-844v360h-489l-223 -360h-219l880 1409h879zM913 520v635l-391 -635h391z" />
    <glyph glyph-name="Ccedilla" unicode="&#xc7;" horiz-adv-x="1269" 
d="M799 1434q172 0 375 -103v-196q-186 121 -367 120q-219 0 -355.5 -154t-136.5 -396.5t137 -396.5t355 -154q180 0 367 120v-196q-165 -88 -361 -103l-18 -79q68 -14 105.5 -61.5t37.5 -108.5q0 -90 -71 -144.5t-167 -54.5t-165 37v131q70 -41 128 -41t86.5 22.5
t28.5 60.5t-32.5 61.5t-94.5 23.5h-10l39 160q-258 31 -420 229.5t-162 505.5q0 308 192 512.5t509 204.5z" />
    <glyph glyph-name="Egrave" unicode="&#xc8;" horiz-adv-x="1142" 
d="M195 1409h827v-172h-616v-436h536v-170h-536v-459h632v-172h-843v1409zM303 1858h205l215 -316h-172z" />
    <glyph glyph-name="Eacute" unicode="&#xc9;" horiz-adv-x="1142" 
d="M195 1409h827v-172h-616v-436h536v-170h-536v-459h632v-172h-843v1409zM692 1858h205l-248 -316h-172z" />
    <glyph glyph-name="Ecircumflex" unicode="&#xca;" horiz-adv-x="1142" 
d="M195 1409h827v-172h-616v-436h536v-170h-536v-459h632v-172h-843v1409zM510 1858h180l215 -316h-162l-143 184l-141 -184h-164z" />
    <glyph glyph-name="Edieresis" unicode="&#xcb;" horiz-adv-x="1142" 
d="M195 1409h827v-172h-616v-436h536v-170h-536v-459h632v-172h-843v1409zM270 1700q0 53 33 86t86 33t86 -33t33 -86t-33 -86t-86 -33t-86 33t-33 86zM694 1700q0 53 32 86t85 33t86 -33t33 -86t-33 -86t-86 -33t-85 33t-32 86z" />
    <glyph glyph-name="Igrave" unicode="&#xcc;" horiz-adv-x="600" 
d="M195 1409h211v-1409h-211v1409zM4 1858h205l215 -316h-172z" />
    <glyph glyph-name="Iacute" unicode="&#xcd;" horiz-adv-x="600" 
d="M195 1409h211v-1409h-211v1409zM393 1858h205l-248 -316h-172z" />
    <glyph glyph-name="Icircumflex" unicode="&#xce;" horiz-adv-x="600" 
d="M195 1409h211v-1409h-211v1409zM211 1858h180l215 -316h-162l-143 184l-141 -184h-164z" />
    <glyph glyph-name="Idieresis" unicode="&#xcf;" horiz-adv-x="600" 
d="M195 1409h211v-1409h-211v1409zM-29 1700q0 53 33 86t86 33t86 -33t33 -86t-33 -86t-86 -33t-86 33t-33 86zM395 1700q0 53 32 86t85 33t86 -33t33 -86t-33 -86t-86 -33t-85 33t-32 86z" />
    <glyph glyph-name="Eth" unicode="&#xd0;" horiz-adv-x="1484" 
d="M438 791h310v-148h-310v-471h250q213 0 347 149t134 383.5t-134 383.5t-347 149h-250v-446zM227 643h-178v148h178v618h471q303 0 495.5 -198t192.5 -506.5t-192.5 -506.5t-495.5 -198h-471v643z" />
    <glyph glyph-name="Ntilde" unicode="&#xd1;" horiz-adv-x="1531" 
d="M195 1409h186l756 -1067v1067h200v-1409h-186l-756 1067v-1067h-200v1409zM436 1595q0 103 56 167t130 64q75 0 151 -56q76 -57 111 -57q34 -1 56 25t21 66h131q0 -102 -54 -167t-132 -65q-77 0 -151 57q-30 22 -57 40q-28 19 -58 19t-52 -26t-21 -67h-131z" />
    <glyph glyph-name="Ograve" unicode="&#xd2;" horiz-adv-x="1531" 
d="M315 705q0 -121 33 -223q68 -208 235 -287q83 -41 183 -41q198 0 326 154q125 154 125 396t-125 397q-125 154 -324 154q-200 0 -328 -154q-125 -155 -125 -396zM98 705q0 319 185 523t482 205q296 1 482 -202q187 -203 188 -524t-186 -525t-483 -206q-296 -1 -482 204
q-186 206 -186 525zM469 1858h205l215 -316h-172z" />
    <glyph glyph-name="Oacute" unicode="&#xd3;" horiz-adv-x="1531" 
d="M315 705q0 -121 33 -223q68 -208 235 -287q83 -41 183 -41q198 0 326 154q125 154 125 396t-125 397q-125 154 -324 154q-200 0 -328 -154q-125 -155 -125 -396zM98 705q0 319 185 523t482 205q296 1 482 -202q187 -203 188 -524t-186 -525t-483 -206q-296 -1 -482 204
q-186 206 -186 525zM858 1858h205l-248 -316h-172z" />
    <glyph glyph-name="Ocircumflex" unicode="&#xd4;" horiz-adv-x="1531" 
d="M315 705q0 -121 33 -223q68 -208 235 -287q83 -41 183 -41q198 0 326 154q125 154 125 396t-125 397q-125 154 -324 154q-200 0 -328 -154q-125 -155 -125 -396zM98 705q0 319 185 523t482 205q296 1 482 -202q187 -203 188 -524t-186 -525t-483 -206q-296 -1 -482 204
q-186 206 -186 525zM676 1858h180l215 -316h-162l-143 184l-141 -184h-164z" />
    <glyph glyph-name="Otilde" unicode="&#xd5;" horiz-adv-x="1531" 
d="M315 705q0 -121 33 -223q68 -208 235 -287q83 -41 183 -41q198 0 326 154q125 154 125 396t-125 397q-125 154 -324 154q-200 0 -328 -154q-125 -155 -125 -396zM98 705q0 319 185 523t482 205q296 1 482 -202q187 -203 188 -524t-186 -525t-483 -206q-296 -1 -482 204
q-186 206 -186 525zM438 1595q0 103 56 167t130 64q75 0 151 -56q76 -57 111 -57q34 -1 56 25t21 66h131q0 -102 -54 -167t-132 -65q-77 0 -151 57q-30 22 -57 40q-28 19 -58 19t-52 -26t-21 -67h-131z" />
    <glyph glyph-name="Odieresis" unicode="&#xd6;" horiz-adv-x="1531" 
d="M315 705q0 -121 33 -223q68 -208 235 -287q83 -41 183 -41q198 0 326 154q125 154 125 396t-125 397q-125 154 -324 154q-200 0 -328 -154q-125 -155 -125 -396zM98 705q0 319 185 523t482 205q296 1 482 -202q187 -203 188 -524t-186 -525t-483 -206q-296 -1 -482 204
q-186 206 -186 525zM436 1700q0 53 33 86t86 33t86 -33t33 -86t-33 -86t-86 -33t-86 33t-33 86zM860 1700q0 53 32 86t85 33t86 -33t33 -86t-33 -86t-86 -33t-85 33t-32 86z" />
    <glyph glyph-name="multiply" unicode="&#xd7;" 
d="M106 231l345 347l-345 344l125 125l347 -345l344 345l125 -125l-345 -344l345 -347l-125 -125l-344 345l-347 -345z" />
    <glyph glyph-name="Oslash" unicode="&#xd8;" horiz-adv-x="1531" 
d="M1217 692q0 230 -101 371l-610 -815q111 -94 260 -94q199 0 325 154t126 384zM766 1255q-200 0 -325.5 -154t-125.5 -382q0 -229 101 -373l610 815q-111 94 -260 94zM291 178q-193 210 -193 528t186 523t482 205q214 0 377 -119l71 94h162l-135 -178q195 -208 195 -527
q0 -320 -187.5 -524.5t-482.5 -204.5q-214 0 -377 119l-70 -94h-163z" />
    <glyph glyph-name="Ugrave" unicode="&#xd9;" horiz-adv-x="1531" 
d="M1346 520q0 -239 -164 -392t-416 -153t-416 153t-164 392v889h211v-872q0 -169 106 -277t264 -107t263 108t105 276v872h211v-889zM469 1858h205l215 -316h-172z" />
    <glyph glyph-name="Uacute" unicode="&#xda;" horiz-adv-x="1531" 
d="M1346 520q0 -239 -164 -392t-416 -153t-416 153t-164 392v889h211v-872q0 -169 106 -277t264 -107t263 108t105 276v872h211v-889zM858 1858h205l-248 -316h-172z" />
    <glyph glyph-name="Ucircumflex" unicode="&#xdb;" horiz-adv-x="1531" 
d="M1346 520q0 -239 -164 -392t-416 -153t-416 153t-164 392v889h211v-872q0 -169 106 -277t264 -107t263 108t105 276v872h211v-889zM676 1858h180l215 -316h-162l-143 184l-141 -184h-164z" />
    <glyph glyph-name="Udieresis" unicode="&#xdc;" horiz-adv-x="1531" 
d="M1346 520q0 -239 -164 -392t-416 -153t-416 153t-164 392v889h211v-872q0 -169 106 -277t264 -107t263 108t105 276v872h211v-889zM436 1700q0 53 33 86t86 33t86 -33t33 -86t-33 -86t-86 -33t-86 33t-33 86zM860 1700q0 53 32 86t85 33t86 -33t33 -86t-33 -86t-86 -33
t-85 33t-32 86z" />
    <glyph glyph-name="Yacute" unicode="&#xdd;" horiz-adv-x="1243" 
d="M727 0h-211v604l-506 805h242l369 -612l368 612h244l-506 -805v-604zM713 1858h205l-248 -316h-172z" />
    <glyph glyph-name="Thorn" unicode="&#xde;" horiz-adv-x="1220" 
d="M401 446h234q130 0 211.5 75.5t81.5 196t-82 195t-211 74.5h-234v-541zM195 1409h206v-254h263q212 0 345.5 -123t133.5 -315t-133.5 -315t-345.5 -123h-263v-279h-206v1409z" />
    <glyph glyph-name="germandbls" unicode="&#xdf;" horiz-adv-x="1329" 
d="M1075 280q0 60 -34.5 90.5t-87 53t-200 75t-147.5 255.5q0 74 24.5 124t55.5 93t55.5 85t24.5 110t-54.5 115.5t-143.5 47.5t-148.5 -59.5t-59.5 -155.5v-1114h-204v1120q0 169 117 273t299 104t291.5 -90.5t109.5 -237.5q0 -76 -25.5 -128t-55.5 -95t-55.5 -84
t-25.5 -96t35 -87t87 -55.5t200.5 -75.5t148.5 -257q0 -141 -109 -228.5t-266 -87.5q-158 0 -313 72v189q145 -96 291 -97q84 0 137 40.5t53 100.5z" />
    <glyph glyph-name="agrave" unicode="&#xe0;" horiz-adv-x="1060" 
d="M582 500q-133 0 -214 -56t-81 -135q0 -80 50 -126t128 -46q133 0 252 123v234q-68 6 -135 6zM569 631q74 0 148 -6v69q-1 86 -61 140t-156 53q-162 0 -330 -94v174q176 82 352 82t285 -102q108 -102 106 -259v-688h-196v94q-150 -119 -302 -119t-243 84q-92 84 -90 213
q0 160 138 260q138 99 349 99zM229 1473h205l215 -316h-172z" />
    <glyph glyph-name="aacute" unicode="&#xe1;" horiz-adv-x="1060" 
d="M582 500q-133 0 -214 -56t-81 -135q0 -80 50 -126t128 -46q133 0 252 123v234q-68 6 -135 6zM569 631q74 0 148 -6v69q-1 86 -61 140t-156 53q-162 0 -330 -94v174q176 82 352 82t285 -102q108 -102 106 -259v-688h-196v94q-150 -119 -302 -119t-243 84q-92 84 -90 213
q0 160 138 260q138 99 349 99zM618 1473h205l-248 -316h-172z" />
    <glyph glyph-name="acircumflex" unicode="&#xe2;" horiz-adv-x="1060" 
d="M582 500q-133 0 -214 -56t-81 -135q0 -80 50 -126t128 -46q133 0 252 123v234q-68 6 -135 6zM569 631q74 0 148 -6v69q-1 86 -61 140t-156 53q-162 0 -330 -94v174q176 82 352 82t285 -102q108 -102 106 -259v-688h-196v94q-150 -119 -302 -119t-243 84q-92 84 -90 213
q0 160 138 260q138 99 349 99zM436 1473h180l215 -316h-161l-144 184l-141 -184h-164z" />
    <glyph glyph-name="atilde" unicode="&#xe3;" horiz-adv-x="1060" 
d="M582 500q-133 0 -214 -56t-81 -135q0 -80 50 -126t128 -46q133 0 252 123v234q-68 6 -135 6zM569 631q74 0 148 -6v69q-1 86 -61 140t-156 53q-162 0 -330 -94v174q176 82 352 82t285 -102q108 -102 106 -259v-688h-196v94q-150 -119 -302 -119t-243 84q-92 84 -90 213
q0 160 138 260q138 99 349 99zM199 1210q0 104 55 168t129 64t152 -57q77 -57 111 -57q34 -1 56 25t21 66h131q0 -102 -54 -167q-54 -64 -130 -64t-153 56q-31 22 -57 40t-56 18t-53 -25q-22 -26 -21 -67h-131z" />
    <glyph glyph-name="adieresis" unicode="&#xe4;" horiz-adv-x="1060" 
d="M582 500q-133 0 -214 -56t-81 -135q0 -80 50 -126t128 -46q133 0 252 123v234q-68 6 -135 6zM569 631q74 0 148 -6v69q-1 86 -61 140t-156 53q-162 0 -330 -94v174q176 82 352 82t285 -102q108 -102 106 -259v-688h-196v94q-150 -119 -302 -119t-243 84q-92 84 -90 213
q0 160 138 260q138 99 349 99zM197 1315q0 53 32 86q33 33 86 33t86 -33t33 -86t-33 -86t-86 -33t-86 33q-32 33 -32 86zM621 1315q0 53 31 86q32 33 85 33t86 -33t33 -86t-33 -86t-86 -33t-85 33q-31 33 -31 86z" />
    <glyph glyph-name="aring" unicode="&#xe5;" horiz-adv-x="1060" 
d="M582 500q-133 0 -214 -56t-81 -135q0 -80 50 -126t128 -46q133 0 252 123v234q-68 6 -135 6zM569 631q74 0 148 -6v69q-1 86 -61 140t-156 53q-162 0 -330 -94v174q176 82 352 82t285 -102q108 -102 106 -259v-688h-196v94q-150 -119 -302 -119t-243 84q-92 84 -90 213
q0 160 138 260q138 99 349 99zM422 1315q0 -47 29 -76t75 -29t76 29q29 29 29 76t-29 76t-76 29q-48 0 -76 -30q-28 -28 -28 -75zM322 1315q0 92 56 149q56 58 148 58t150 -58t57 -149q0 -93 -57 -149q-58 -56 -150 -56t-148 56t-56 149z" />
    <glyph glyph-name="ae" unicode="&#xe6;" horiz-adv-x="1705" 
d="M1184 887q-110 0 -185 -80t-86 -209h517q-4 129 -70 209t-176 80zM287 305q0 -82 52 -126t131 -44q159 0 282 148q-35 90 -35 202v9q-72 6 -135 6q-133 0 -214 -56.5t-81 -138.5zM846 887q134 162 340 162t325 -142t119 -364v-40t-2 -42h-715q12 -145 105.5 -234.5
t236.5 -89.5t301 99v-181q-166 -80 -333 -80q-247 0 -394 185q-189 -185 -401 -185q-155 0 -250.5 82.5t-95.5 227.5t136.5 245.5t350.5 100.5q90 0 148 -6v69q0 86 -60.5 139.5t-154.5 53.5q-164 0 -332 -94v174q176 82 352 82q111 0 195 -42t129 -120z" />
    <glyph glyph-name="ccedilla" unicode="&#xe7;" horiz-adv-x="983" 
d="M770 -274q0 -90 -71 -144.5t-167 -54.5t-165 37v131q70 -41 128 -41t86.5 22.5t28.5 60.5t-32.5 61.5t-94.5 23.5h-10l37 160q-194 28 -311 172t-117 369t143.5 375.5t368.5 150.5q152 0 299 -72v-189q-131 89 -270 89q-140 0 -235 -101t-95 -262.5t94.5 -264
t235.5 -102.5q142 0 270 89v-189q-108 -55 -248 -70l-20 -81q70 -14 107.5 -61.5t37.5 -108.5z" />
    <glyph glyph-name="egrave" unicode="&#xe8;" horiz-adv-x="1075" 
d="M556 887q-108 0 -184 -80t-85 -209h516q-4 129 -71 209q-68 80 -176 80zM1004 543v-39q0 -20 -5 -43h-712q8 -142 102 -234q94 -90 238 -90q143 0 301 99v-181q-166 -80 -306 -80q-254 0 -397 153t-143 386t137 384t343 151q205 0 324 -144q118 -144 118 -362zM266 1473
h205l215 -316h-172z" />
    <glyph glyph-name="eacute" unicode="&#xe9;" horiz-adv-x="1075" 
d="M556 887q-108 0 -184 -80t-85 -209h516q-4 129 -71 209q-68 80 -176 80zM1004 543v-39q0 -20 -5 -43h-712q8 -142 102 -234q94 -90 238 -90q143 0 301 99v-181q-166 -80 -306 -80q-254 0 -397 153t-143 386t137 384t343 151q205 0 324 -144q118 -144 118 -362zM655 1473
h205l-248 -316h-172z" />
    <glyph glyph-name="ecircumflex" unicode="&#xea;" horiz-adv-x="1075" 
d="M556 887q-108 0 -184 -80t-85 -209h516q-4 129 -71 209q-68 80 -176 80zM1004 543v-39q0 -20 -5 -43h-712q8 -142 102 -234q94 -90 238 -90q143 0 301 99v-181q-166 -80 -306 -80q-254 0 -397 153t-143 386t137 384t343 151q205 0 324 -144q118 -144 118 -362zM473 1473
h180l215 -316h-161l-144 184l-141 -184h-164z" />
    <glyph glyph-name="edieresis" unicode="&#xeb;" horiz-adv-x="1075" 
d="M556 887q-108 0 -184 -80t-85 -209h516q-4 129 -71 209q-68 80 -176 80zM1004 543v-39q0 -20 -5 -43h-712q8 -142 102 -234q94 -90 238 -90q143 0 301 99v-181q-166 -80 -306 -80q-254 0 -397 153t-143 386t137 384t343 151q205 0 324 -144q118 -144 118 -362zM233 1315
q0 53 33 86t86 33t86 -33t33 -86t-33 -86t-86 -33t-86 33t-33 86zM657 1315q0 53 32 86t85 33t86 -33t33 -86t-33 -86t-86 -33t-85 33t-32 86z" />
    <glyph glyph-name="igrave" unicode="&#xec;" horiz-adv-x="514" 
d="M156 1024h204v-1024h-204v1024zM-39 1473h205l215 -316h-172z" />
    <glyph glyph-name="iacute" unicode="&#xed;" horiz-adv-x="514" 
d="M156 1024h204v-1024h-204v1024zM350 1473h205l-248 -316h-172z" />
    <glyph glyph-name="icircumflex" unicode="&#xee;" horiz-adv-x="514" 
d="M156 1024h204v-1024h-204v1024zM168 1473h180l215 -316h-162l-143 184l-141 -184h-164z" />
    <glyph glyph-name="idieresis" unicode="&#xef;" horiz-adv-x="514" 
d="M156 1024h204v-1024h-204v1024zM-72 1315q0 53 33 86t86 33t86 -33t33 -86t-33 -86t-86 -33t-86 33t-33 86zM352 1315q0 53 32 86t85 33t86 -33t33 -86t-33 -86t-86 -33t-85 33t-32 86z" />
    <glyph glyph-name="eth" unicode="&#xf0;" horiz-adv-x="1171" 
d="M375.5 248.5q82.5 -101.5 210.5 -101.5t210.5 105.5t82.5 250.5t-45 273q-118 101 -249 101t-211.5 -102t-80.5 -263.5t82.5 -263zM1092 551q0 -256 -144.5 -416t-366.5 -160t-360.5 150t-138.5 386t132 387t339 151q119 0 219 -62q-84 131 -194 244l-277 -113v144
l172 71q-103 84 -188 140h270q13 -9 90 -72l227 92v-143l-118 -50q338 -347 338 -749z" />
    <glyph glyph-name="ntilde" unicode="&#xf1;" horiz-adv-x="1179" 
d="M360 922q150 127 310 127q161 0 263 -102t101 -261v-686h-207v653q0 97 -59 157t-152 60q-137 0 -256 -129v-741h-204v1024h204v-102zM266 1210q0 104 56 168t130 64q75 0 151 -57t111 -57q34 -1 56 25t21 66h131q0 -102 -54 -167q-54 -64 -132 -64q-77 0 -151 56
q-30 22 -57 40q-28 18 -58 18t-52 -25q-22 -26 -21 -67h-131z" />
    <glyph glyph-name="ograve" unicode="&#xf2;" horiz-adv-x="1179" 
d="M293 512q0 -163 83 -263q85 -102 214 -102q66 0 120 27q114 57 155 191q22 67 22 147q0 160 -83 263q-85 102 -214 102t-213 -101t-84 -264zM1098 512q0 -238 -143 -387q-143 -150 -365 -150t-365 149t-143 387t143 388t366 150t365 -150q142 -149 142 -387zM293 1473
h205l215 -316h-172z" />
    <glyph glyph-name="oacute" unicode="&#xf3;" horiz-adv-x="1179" 
d="M293 512q0 -163 83 -263q85 -102 214 -102q66 0 120 27q114 57 155 191q22 67 22 147q0 160 -83 263q-85 102 -214 102t-213 -101t-84 -264zM1098 512q0 -238 -143 -387q-143 -150 -365 -150t-365 149t-143 387t143 388t366 150t365 -150q142 -149 142 -387zM682 1473
h205l-248 -316h-172z" />
    <glyph glyph-name="ocircumflex" unicode="&#xf4;" horiz-adv-x="1179" 
d="M293 512q0 -163 83 -263q85 -102 214 -102q66 0 120 27q114 57 155 191q22 67 22 147q0 160 -83 263q-85 102 -214 102t-213 -101t-84 -264zM1098 512q0 -238 -143 -387q-143 -150 -365 -150t-365 149t-143 387t143 388t366 150t365 -150q142 -149 142 -387zM500 1473
h180l215 -316h-162l-143 184l-141 -184h-164z" />
    <glyph glyph-name="otilde" unicode="&#xf5;" horiz-adv-x="1179" 
d="M293 512q0 -163 83 -263q85 -102 214 -102q66 0 120 27q114 57 155 191q22 67 22 147q0 160 -83 263q-85 102 -214 102t-213 -101t-84 -264zM1098 512q0 -238 -143 -387q-143 -150 -365 -150t-365 149t-143 387t143 388t366 150t365 -150q142 -149 142 -387zM262 1210
q0 104 55 168t131 64t151 -57q76 -57 111 -57q34 -1 56 25t20 66h132q0 -102 -54 -167q-54 -64 -132 -64q-77 0 -151 56q-30 22 -57 40q-28 18 -58 18t-52 -25q-22 -26 -21 -67h-131z" />
    <glyph glyph-name="odieresis" unicode="&#xf6;" horiz-adv-x="1179" 
d="M293 512q0 -163 83 -263q85 -102 214 -102q66 0 120 27q114 57 155 191q22 67 22 147q0 160 -83 263q-85 102 -214 102t-213 -101t-84 -264zM1098 512q0 -238 -143 -387q-143 -150 -365 -150t-365 149t-143 387t143 388t366 150t365 -150q142 -149 142 -387zM260 1315
q0 53 33 86t86 33t86 -33t33 -86t-33 -86t-86 -33t-86 33t-33 86zM684 1315q0 53 32 86t85 33t86 -33t33 -86t-33 -86t-86 -33t-85 33t-32 86z" />
    <glyph glyph-name="divide" unicode="&#xf7;" 
d="M459 962q0 52 32.5 84.5t84.5 32.5t86 -32.5t34 -84.5t-33.5 -86t-85.5 -34t-85 34t-33 86zM63 666h1027v-179h-1027v179zM459 192q0 52 32.5 85.5t84.5 33.5t86 -33.5t34 -85.5t-33.5 -85t-85.5 -33t-85 33t-33 85z" />
    <glyph glyph-name="oslash" unicode="&#xf8;" horiz-adv-x="1179" 
d="M893 500q0 149 -64 245l-407 -544q74 -57 155 -57q147 -1 231.5 103t84.5 253zM287 523q0 -150 63 -242l408 544q-73 56 -154 56q-148 0 -232.5 -104t-84.5 -254zM231 121q-149 149 -149 389t142.5 389.5t365.5 149.5q159 0 276 -80l43 55h131l-90 -119
q148 -148 148 -389t-142.5 -391t-365.5 -150q-158 0 -277 80l-43 -55h-131z" />
    <glyph glyph-name="ugrave" unicode="&#xf9;" horiz-adv-x="1179" 
d="M563 156q135 0 256 127v741h207v-1024h-207v102q-150 -127 -312 -127t-261 103t-99 260v686h205v-653q0 -95 60 -155t151 -60zM289 1473h205l215 -316h-172z" />
    <glyph glyph-name="uacute" unicode="&#xfa;" horiz-adv-x="1179" 
d="M563 156q135 0 256 127v741h207v-1024h-207v102q-150 -127 -312 -127t-261 103t-99 260v686h205v-653q0 -95 60 -155t151 -60zM678 1473h205l-248 -316h-172z" />
    <glyph glyph-name="ucircumflex" unicode="&#xfb;" horiz-adv-x="1179" 
d="M563 156q135 0 256 127v741h207v-1024h-207v102q-150 -127 -312 -127t-261 103t-99 260v686h205v-653q0 -95 60 -155t151 -60zM496 1473h180l215 -316h-162l-143 184l-142 -184h-163z" />
    <glyph glyph-name="udieresis" unicode="&#xfc;" horiz-adv-x="1179" 
d="M563 156q135 0 256 127v741h207v-1024h-207v102q-150 -127 -312 -127t-261 103t-99 260v686h205v-653q0 -95 60 -155t151 -60zM256 1315q0 53 33 86t86 33t86 -33t33 -86t-33 -86t-86 -33t-86 33t-33 86zM680 1315q0 53 32 86t85 33t86 -33t33 -86t-34 -86
q-32 -33 -85 -33t-85 33t-32 86z" />
    <glyph glyph-name="yacute" unicode="&#xfd;" horiz-adv-x="1036" 
d="M428 -449h-203l195 480l-393 993h211l280 -743l281 743h211zM610 1473h205l-248 -316h-172z" />
    <glyph glyph-name="thorn" unicode="&#xfe;" horiz-adv-x="1179" 
d="M156 1473h204v-531q129 106 277 107q204 0 332.5 -151t128.5 -386t-128.5 -386t-332.5 -151q-147 0 -277 107v-531h-204v1922zM360 262q106 -110 236 -110t210.5 100t80.5 260t-81 260t-208 100q-128 0 -238 -108v-502z" />
    <glyph glyph-name="ydieresis" unicode="&#xff;" horiz-adv-x="1036" 
d="M428 -449h-203l195 480l-393 993h211l280 -743l281 743h211zM188 1315q0 53 33 86t86 33t86 -33t33 -86t-33 -86t-86 -33t-86 33t-33 86zM612 1315q0 53 32 86t85 33t86 -33t33 -86t-33 -86t-86 -33t-85 33t-32 86z" />
    <glyph glyph-name="Amacron" unicode="&#x100;" horiz-adv-x="1333" 
d="M434 537h463l-231 598zM578 1409h176l559 -1409h-209l-146 375h-583l-148 -375h-209zM342 1774h647v-146h-647v146z" />
    <glyph glyph-name="amacron" unicode="&#x101;" horiz-adv-x="1060" 
d="M582 500q-133 0 -214 -56t-81 -135q0 -80 50 -126t128 -46q133 0 252 123v234q-68 6 -135 6zM569 631q74 0 148 -6v69q-1 86 -61 140t-156 53q-162 0 -330 -94v174q176 82 352 82t285 -102q108 -102 106 -259v-688h-196v94q-150 -119 -302 -119t-243 84q-92 84 -90 213
q0 160 138 260q138 99 349 99zM203 1389h647v-146h-647v146z" />
    <glyph glyph-name="Abreve" unicode="&#x102;" horiz-adv-x="1333" 
d="M434 537h463l-231 598zM578 1409h176l559 -1409h-209l-146 375h-583l-148 -375h-209zM504 1858q0 -74 45 -121t117 -47t116 47t45 121h134q0 -134 -82 -227q-81 -87 -212 -87t-215 89q-83 89 -81 225h133z" />
    <glyph glyph-name="abreve" unicode="&#x103;" horiz-adv-x="1060" 
d="M582 500q-133 0 -214 -56t-81 -135q0 -80 50 -126t128 -46q133 0 252 123v234q-68 6 -135 6zM569 631q74 0 148 -6v69q-1 86 -61 140t-156 53q-162 0 -330 -94v174q176 82 352 82t285 -102q108 -102 106 -259v-688h-196v94q-150 -119 -302 -119t-243 84q-92 84 -90 213
q0 160 138 260q138 99 349 99zM365 1473q0 -74 45 -121q44 -47 116 -47t117 47t45 121h133q0 -137 -81 -225q-81 -89 -212 -89q-130 0 -215 87q-82 88 -82 227h134z" />
    <glyph glyph-name="Aogonek" unicode="&#x104;" horiz-adv-x="1333" 
d="M434 537h463l-231 598zM1139 -221q0 -43 27.5 -70.5t69.5 -27.5t77 22v-129q-55 -29 -136 -29t-138.5 53.5t-57.5 137.5q0 153 186 264h-63l-146 375h-583l-148 -375h-209l560 1409h176l559 -1409q-174 -95 -174 -221z" />
    <glyph glyph-name="aogonek" unicode="&#x105;" horiz-adv-x="1060" 
d="M287 309q0 -80 50 -126t128 -46q133 0 252 123v234q-68 6 -135 6q-133 0 -214 -55.5t-81 -135.5zM82 272q0 158 136.5 258.5t350.5 100.5q74 0 148 -6v69q0 86 -60.5 139.5t-156.5 53.5q-162 0 -330 -94v174q176 82 352 82t283.5 -101t107.5 -260v-688
q-174 -95 -174 -221q0 -43 28 -70.5t70 -27.5t76 22v-129q-55 -29 -136 -29t-138 53.5t-57 137.5q0 153 186 264h-51v94q-150 -119 -303 -119t-242.5 83.5t-89.5 213.5z" />
    <glyph glyph-name="Cacute" unicode="&#x106;" horiz-adv-x="1269" 
d="M98 705q0 320 191 524q191 203 487 205q194 0 398 -103v-196q-186 121 -367 120q-218 0 -355 -154q-137 -155 -137 -397q0 -243 137 -396q137 -154 355 -154q180 0 367 120v-196q-202 -103 -375 -103q-173 1 -297 55q-252 111 -354 381q-50 134 -50 294zM829 1858h205
l-248 -316h-172z" />
    <glyph glyph-name="cacute" unicode="&#x107;" horiz-adv-x="983" 
d="M614 -25q-132 0 -227 40q-193 82 -267 281q-38 99 -38 217q0 233 143 385q145 151 369 151q152 0 299 -72v-189q-131 89 -269 89q-139 0 -237 -102q-96 -102 -95 -263q1 -160 95 -262q94 -103 236 -103q141 0 270 89v-189q-147 -72 -279 -72zM659 1473h205l-248 -316
h-172z" />
    <glyph glyph-name="Ccircumflex" unicode="&#x108;" horiz-adv-x="1269" 
d="M98 705q0 320 191 524q191 203 487 205q194 0 398 -103v-196q-186 121 -367 120q-218 0 -355 -154q-137 -155 -137 -397q0 -243 137 -396q137 -154 355 -154q180 0 367 120v-196q-202 -103 -375 -103q-173 1 -297 55q-252 111 -354 381q-50 134 -50 294zM647 1858h180
l215 -316h-161l-144 184l-141 -184h-164z" />
    <glyph glyph-name="ccircumflex" unicode="&#x109;" horiz-adv-x="983" 
d="M614 -25q-132 0 -227 40q-193 82 -267 281q-38 99 -38 217q0 233 143 385q145 151 369 151q152 0 299 -72v-189q-131 89 -269 89q-139 0 -237 -102q-96 -102 -95 -263q1 -160 95 -262q94 -103 236 -103q141 0 270 89v-189q-147 -72 -279 -72zM477 1473h180l215 -316h-161
l-144 184l-141 -184h-164z" />
    <glyph glyph-name="Cdotaccent" unicode="&#x10a;" horiz-adv-x="1269" 
d="M98 705q0 320 191 524q191 203 487 205q194 0 398 -103v-196q-186 121 -367 120q-218 0 -355 -154q-137 -155 -137 -397q0 -243 137 -396q137 -154 355 -154q180 0 367 120v-196q-202 -103 -375 -103q-173 1 -297 55q-252 111 -354 381q-50 134 -50 294zM614 1700
q0 53 35 87t88 34t88 -34t35 -87t-35 -87t-88 -34t-88 34t-35 87z" />
    <glyph glyph-name="cdotaccent" unicode="&#x10b;" horiz-adv-x="983" 
d="M614 -25q-132 0 -227 40q-193 82 -267 281q-38 99 -38 217q0 233 143 385q145 151 369 151q152 0 299 -72v-189q-131 89 -269 89q-139 0 -237 -102q-96 -102 -95 -263q1 -160 95 -262q94 -103 236 -103q141 0 270 89v-189q-147 -72 -279 -72zM444 1315q0 53 35 87t88 34
t88 -34t35 -87t-35 -87t-88 -34t-88 34t-35 87z" />
    <glyph glyph-name="Ccaron" unicode="&#x10c;" horiz-adv-x="1269" 
d="M98 705q0 320 191 524q191 203 487 205q194 0 398 -103v-196q-186 121 -367 120q-218 0 -355 -154q-137 -155 -137 -397q0 -243 137 -396q137 -154 355 -154q180 0 367 120v-196q-202 -103 -375 -103q-173 1 -297 55q-252 111 -354 381q-50 134 -50 294zM827 1542h-180
l-215 316h164l141 -185l144 185h161z" />
    <glyph glyph-name="ccaron" unicode="&#x10d;" horiz-adv-x="983" 
d="M614 -25q-132 0 -227 40q-193 82 -267 281q-38 99 -38 217q0 233 143 385q145 151 369 151q152 0 299 -72v-189q-131 89 -269 89q-139 0 -237 -102q-96 -102 -95 -263q1 -160 95 -262q94 -103 236 -103q141 0 270 89v-189q-147 -72 -279 -72zM657 1157h-180l-215 316h164
l141 -185l144 185h161z" />
    <glyph glyph-name="Dcaron" unicode="&#x10e;" horiz-adv-x="1452" 
d="M406 172h249q215 0 349 149q133 150 133 384t-132 383t-350 149h-249v-1065zM195 1409h473q303 0 495 -199q191 -199 191 -507t-193 -505q-90 -94 -217 -146t-276 -52h-473v1409zM784 1542h-180l-215 316h164l141 -185l144 185h161z" />
    <glyph glyph-name="dcaron" unicode="&#x10f;" horiz-adv-x="1179" 
d="M1241 1473h178l-135 -316h-156zM1026 0h-207v82q-129 -106 -276 -107q-202 0 -331.5 150.5t-129.5 386.5t129.5 386.5t331.5 150.5q147 0 276 -107v531h207v-1473zM293 512q0 -160 81 -260t209 -100t236 110v502q-109 108 -237 108t-208.5 -100t-80.5 -260z" />
    <glyph glyph-name="Dcroat" unicode="&#x110;" horiz-adv-x="1484" 
d="M438 791h310v-148h-310v-471h250q213 0 347 149t134 383.5t-134 383.5t-347 149h-250v-446zM227 643h-178v148h178v618h471q303 0 495.5 -198t192.5 -506.5t-192.5 -506.5t-495.5 -198h-471v643z" />
    <glyph glyph-name="dcroat" unicode="&#x111;" horiz-adv-x="1179" 
d="M293 512q0 -160 81 -260t209 -100t236 110v502q-109 108 -237 108t-208.5 -100t-80.5 -260zM1026 1331h145v-145h-145v-1186h-207v82q-129 -106 -276 -107q-202 0 -331.5 150.5t-129.5 386.5t129.5 386.5t331.5 150.5q147 0 276 -107v244h-309v145h309v142h207v-142z" />
    <glyph glyph-name="Emacron" unicode="&#x112;" horiz-adv-x="1142" 
d="M195 1409h827v-172h-616v-436h536v-170h-536v-459h632v-172h-843v1409zM276 1774h648v-146h-648v146z" />
    <glyph glyph-name="emacron" unicode="&#x113;" horiz-adv-x="1075" 
d="M556 887q-108 0 -184 -80t-85 -209h516q-4 129 -71 209q-68 80 -176 80zM1004 543v-39q0 -20 -5 -43h-712q8 -142 102 -234q94 -90 238 -90q143 0 301 99v-181q-166 -80 -306 -80q-254 0 -397 153t-143 386t137 384t343 151q205 0 324 -144q118 -144 118 -362zM240 1389
h647v-146h-647v146z" />
    <glyph glyph-name="Ebreve" unicode="&#x114;" horiz-adv-x="1142" 
d="M195 1409h827v-172h-616v-436h536v-170h-536v-459h632v-172h-843v1409zM438 1858q0 -74 45 -121t117 -47t117 47t45 121h133q0 -134 -82 -227q-81 -87 -212 -87t-214 87q-82 88 -82 227h133z" />
    <glyph glyph-name="ebreve" unicode="&#x115;" horiz-adv-x="1075" 
d="M556 887q-108 0 -184 -80t-85 -209h516q-4 129 -71 209q-68 80 -176 80zM1004 543v-39q0 -20 -5 -43h-712q8 -142 102 -234q94 -90 238 -90q143 0 301 99v-181q-166 -80 -306 -80q-254 0 -397 153t-143 386t137 384t343 151q205 0 324 -144q118 -144 118 -362zM401 1473
q0 -74 45 -121t117 -47t117 47t45 121h133q0 -137 -81 -225q-81 -89 -213 -89q-131 0 -214 87q-82 88 -82 227h133z" />
    <glyph glyph-name="Edotaccent" unicode="&#x116;" horiz-adv-x="1142" 
d="M195 1409h827v-172h-616v-436h536v-170h-536v-459h632v-172h-843v1409zM477 1700q0 53 35 87t88 34t88 -34t35 -87t-35 -87t-88 -34t-88 34t-35 87z" />
    <glyph glyph-name="edotaccent" unicode="&#x117;" horiz-adv-x="1075" 
d="M556 887q-108 0 -184 -80t-85 -209h516q-4 129 -71 209q-68 80 -176 80zM1004 543v-39q0 -20 -5 -43h-712q8 -142 102 -234q94 -90 238 -90q143 0 301 99v-181q-166 -80 -306 -80q-254 0 -397 153t-143 386t137 384t343 151q205 0 324 -144q118 -144 118 -362zM440 1315
q0 53 35 87t88 34t88 -34t35 -87t-35 -87t-88 -34t-88 34t-35 87z" />
    <glyph glyph-name="Eogonek" unicode="&#x118;" horiz-adv-x="1142" 
d="M707 -264q0 153 186 264h-698v1409h827v-172h-616v-436h536v-170h-536v-459h632v-172q-174 -95 -174 -221q0 -43 28 -70.5t70 -27.5t76 22v-129q-55 -29 -136 -29t-138 53.5t-57 137.5z" />
    <glyph glyph-name="eogonek" unicode="&#x119;" horiz-adv-x="1075" 
d="M557 887q-109 0 -184.5 -80t-85.5 -209h516q-4 129 -70.5 209t-175.5 80zM594 -25q-226 0 -369 152.5t-143 385.5t138 384.5t341 151.5q204 0 323.5 -142.5t119.5 -363.5v-40t-5 -42h-712q8 -144 102 -234t238 -90q143 0 301 99v-181q-174 -122 -174 -268
q0 -47 27.5 -76.5t69.5 -29.5t77 22v-129q-53 -29 -135 -29t-139.5 55.5t-57.5 143.5q0 135 127 246q-87 -15 -129 -15z" />
    <glyph glyph-name="Ecaron" unicode="&#x11a;" horiz-adv-x="1142" 
d="M195 1409h827v-172h-616v-436h536v-170h-536v-459h632v-172h-843v1409zM690 1542h-180l-215 316h164l141 -185l143 185h162z" />
    <glyph glyph-name="ecaron" unicode="&#x11b;" horiz-adv-x="1075" 
d="M556 887q-108 0 -184 -80t-85 -209h516q-4 129 -71 209q-68 80 -176 80zM1004 543v-39q0 -20 -5 -43h-712q8 -142 102 -234q94 -90 238 -90q143 0 301 99v-181q-166 -80 -306 -80q-254 0 -397 153t-143 386t137 384t343 151q205 0 324 -144q118 -144 118 -362zM653 1157
h-180l-215 316h164l141 -185l144 185h161z" />
    <glyph glyph-name="Gcircumflex" unicode="&#x11c;" horiz-adv-x="1404" 
d="M1212 1120q-206 140 -412 140t-347 -155q-142 -155 -142 -399t140 -401t356 -155q128 0 260 59v371h-322v159h523v-647q-240 -117 -473 -117q-306 0 -500 203q-195 203 -196 524t194 526q195 204 498 206q213 0 421 -113v-201zM676 1858h180l215 -316h-162l-143 184
l-141 -184h-164z" />
    <glyph glyph-name="gcircumflex" unicode="&#x11d;" horiz-adv-x="1179" 
d="M293 512q0 -160 82 -261t209 -100t235 111v502q-109 108 -237 108t-208 -100q-81 -100 -81 -260zM82 512q0 236 129 386q129 151 332 151q147 0 276 -107v82h207v-1028q0 -204 -139 -337q-141 -132 -359 -132q-176 0 -350 78v184q183 -100 324 -99t230 86t87 218v88
q-129 -106 -276 -107q-202 0 -332 151q-129 150 -129 386zM500 1473h180l215 -316h-162l-143 184l-141 -184h-164z" />
    <glyph glyph-name="Gbreve" unicode="&#x11e;" horiz-adv-x="1404" 
d="M1212 1120q-206 140 -412 140t-347 -155q-142 -155 -142 -399t140 -401t356 -155q128 0 260 59v371h-322v159h523v-647q-240 -117 -473 -117q-306 0 -500 203q-195 203 -196 524t194 526q195 204 498 206q213 0 421 -113v-201zM604 1858q0 -74 45 -121t117 -47t117 47
t45 121h133q0 -134 -82 -227q-81 -87 -212 -87t-214 87q-82 88 -82 227h133z" />
    <glyph glyph-name="gbreve" unicode="&#x11f;" horiz-adv-x="1179" 
d="M293 512q0 -160 82 -261t209 -100t235 111v502q-109 108 -237 108t-208 -100q-81 -100 -81 -260zM82 512q0 236 129 386q129 151 332 151q147 0 276 -107v82h207v-1028q0 -204 -139 -337q-141 -132 -359 -132q-176 0 -350 78v184q183 -100 324 -99t230 86t87 218v88
q-129 -106 -276 -107q-202 0 -332 151q-129 150 -129 386zM428 1473q0 -74 45 -121t117 -47t117 47t45 121h133q0 -134 -82 -227q-81 -87 -212 -87t-215 89q-83 89 -81 225h133z" />
    <glyph glyph-name="Gdotaccent" unicode="&#x120;" horiz-adv-x="1404" 
d="M1212 1120q-206 140 -412 140t-347 -155q-142 -155 -142 -399t140 -401t356 -155q128 0 260 59v371h-322v159h523v-647q-240 -117 -473 -117q-306 0 -500 203q-195 203 -196 524t194 526q195 204 498 206q213 0 421 -113v-201zM643 1700q0 53 35 87t88 34t88 -34t35 -87
t-35 -87t-88 -34t-88 34t-35 87z" />
    <glyph glyph-name="gdotaccent" unicode="&#x121;" horiz-adv-x="1179" 
d="M293 512q0 -160 82 -261t209 -100t235 111v502q-109 108 -237 108t-208 -100q-81 -100 -81 -260zM82 512q0 236 129 386q129 151 332 151q147 0 276 -107v82h207v-1028q0 -204 -139 -337q-141 -132 -359 -132q-176 0 -350 78v184q183 -100 324 -99t230 86t87 218v88
q-129 -106 -276 -107q-202 0 -332 151q-129 150 -129 386zM467 1315q0 53 35 87t88 34t88 -34t35 -87t-35 -87t-88 -34t-88 34t-35 87z" />
    <glyph glyph-name="uni0122" unicode="&#x122;" horiz-adv-x="1404" 
d="M1212 1120q-206 140 -412 140t-347 -155q-142 -155 -142 -399t140 -401t356 -155q128 0 260 59v371h-322v159h523v-647q-240 -117 -473 -117q-306 0 -500 203q-195 203 -196 524t194 526q195 204 498 206q213 0 421 -113v-201zM692 -131h180l-153 -365h-158z" />
    <glyph glyph-name="uni0123" unicode="&#x123;" horiz-adv-x="1179" 
d="M666 1157h-183l154 365h158zM293 512q0 -160 81 -260t209 -100t236 110v502q-109 108 -237 108t-208.5 -100t-80.5 -260zM178 -211q179 -98 322 -98t231 84t88 219v88q-129 -106 -276 -107q-202 0 -331.5 150.5t-129.5 386.5t129.5 386.5t331.5 150.5q147 0 276 -107v82
h207v-1028q0 -205 -139.5 -337t-358.5 -132q-176 0 -350 78v184z" />
    <glyph glyph-name="Hcircumflex" unicode="&#x124;" horiz-adv-x="1531" 
d="M195 1409h211v-606h720v606h211v-1409h-211v631h-720v-631h-211v1409zM676 1858h180l215 -316h-162l-143 184l-141 -184h-164z" />
    <glyph glyph-name="hcircumflex" unicode="&#x125;" horiz-adv-x="1179" 
d="M360 922q150 127 310 127q161 0 263 -102t101 -261v-686h-207v653q0 97 -59 157t-152 60q-137 0 -256 -129v-741h-204v1473h204v-551zM168 1921h180l215 -315h-162l-143 184l-141 -184h-164z" />
    <glyph glyph-name="Hbar" unicode="&#x126;" horiz-adv-x="1531" 
d="M406 799h718v207h-718v-207zM195 1010h-170v145h170v254h211v-254h718v254h213v-254h170v-145h-170v-1010h-213v629h-718v-629h-211v1010z" />
    <glyph glyph-name="hbar" unicode="&#x127;" horiz-adv-x="1179" 
d="M360 922q150 127 310 127q161 0 262.5 -101.5t101.5 -261.5v-686h-207v653q0 96 -59 156.5t-152 60.5q-137 0 -256 -129v-741h-204v1186h-148v145h148v142h204v-142h312v-145h-312v-264z" />
    <glyph glyph-name="Itilde" unicode="&#x128;" horiz-adv-x="600" 
d="M195 1409h211v-1409h-211v1409zM-27 1595q-1 103 55 167t131 64t151 -56q76 -57 111 -57q33 -1 55 25t22 66h131q-1 -102 -55 -167t-131 -65t-151 57q-30 22 -56 40q-26 19 -58 19q-30 0 -52 -26t-22 -67h-131z" />
    <glyph glyph-name="itilde" unicode="&#x129;" horiz-adv-x="514" 
d="M156 1024h204v-1024h-204v1024zM-70 1210q0 104 56 168t130 64q75 0 151 -57t111 -57q34 -1 56 25t21 66h131q0 -102 -54 -167q-54 -64 -132 -64q-77 0 -151 56q-31 22 -57 40t-57 18t-53 -25q-22 -26 -21 -67h-131z" />
    <glyph glyph-name="Imacron" unicode="&#x12a;" horiz-adv-x="600" 
d="M195 1409h211v-1409h-211v1409zM-23 1774h648v-146h-648v146z" />
    <glyph glyph-name="imacron" unicode="&#x12b;" horiz-adv-x="514" 
d="M156 1024h204v-1024h-204v1024zM-66 1389h648v-146h-648v146z" />
    <glyph glyph-name="Ibreve" unicode="&#x12c;" horiz-adv-x="600" 
d="M195 1409h211v-1409h-211v1409zM139 1858q0 -74 45 -121t117 -47t117 47t45 121h133q0 -134 -82 -227q-81 -87 -212 -87t-214 87q-82 88 -82 227h133z" />
    <glyph glyph-name="ibreve" unicode="&#x12d;" horiz-adv-x="514" 
d="M156 1024h204v-1024h-204v1024zM96 1473q0 -74 45 -121t117 -47t117 47t45 121h133q0 -134 -82 -227q-81 -87 -212 -87t-214 87q-82 88 -82 227h133z" />
    <glyph glyph-name="Iogonek" unicode="&#x12e;" horiz-adv-x="610" 
d="M78 -264q0 153 186 264h-65v1409h211v-1409q-174 -95 -174 -221q0 -43 27.5 -70.5t69.5 -27.5t77 22v-129q-55 -29 -136 -29t-138.5 53.5t-57.5 137.5z" />
    <glyph glyph-name="iogonek" unicode="&#x12f;" horiz-adv-x="514" 
d="M135 1315q0 53 35 87t88 34t88 -34t35 -87t-35 -87t-88 -34t-88 34t-35 87zM29 -264q0 153 186 264h-59v1024h204v-1024q-174 -95 -174 -221q0 -43 28 -70.5t70 -27.5t76 22v-129q-56 -29 -136 -29t-137.5 53.5t-57.5 137.5z" />
    <glyph glyph-name="Idotaccent" unicode="&#x130;" horiz-adv-x="600" 
d="M195 1409h211v-1409h-211v1409zM178 1700q0 53 35 87t88 34t88 -34t35 -87t-35 -87t-88 -34t-88 34t-35 87z" />
    <glyph glyph-name="dotlessi" unicode="&#x131;" horiz-adv-x="514" 
d="M156 1024h204v-1024h-204v1024z" />
    <glyph glyph-name="Jcircumflex" unicode="&#x134;" horiz-adv-x="958" 
d="M772 383q0 -177 -118 -293q-118 -115 -304 -115q-131 0 -276 64v186q127 -71 236 -71t179 69t70 180v1006h213v-1026zM573 1858h181l215 -316h-162l-143 184l-142 -184h-164z" />
    <glyph glyph-name="jcircumflex" unicode="&#x135;" horiz-adv-x="514" 
d="M168 1473h180l215 -316h-162l-143 184l-141 -184h-164zM-9 -301q73 0 119 46t46 120v1159h204v-1184q0 -138 -89.5 -225.5t-233.5 -87.5q-94 0 -207 45v176q88 -49 161 -49z" />
    <glyph glyph-name="uni0136" unicode="&#x136;" horiz-adv-x="1284" 
d="M195 1409h206v-614l590 614h256l-653 -692l674 -717h-262l-605 639v-639h-206v1409zM575 -131h181l-154 -365h-158z" />
    <glyph glyph-name="uni0137" unicode="&#x137;" horiz-adv-x="1015" 
d="M156 1473h200v-869l377 420h244l-447 -504l463 -520h-252l-385 436v-436h-200v1473zM446 -131h181l-154 -365h-158z" />
    <glyph glyph-name="kgreenlandic" unicode="&#x138;" horiz-adv-x="1015" 
d="M156 1024h200v-420l377 420h244l-447 -504l463 -520h-252l-385 436v-436h-200v1024z" />
    <glyph glyph-name="Lacute" unicode="&#x139;" horiz-adv-x="1038" 
d="M195 1409h211v-1237h589v-172h-800v1409zM393 1858h205l-248 -316h-172z" />
    <glyph glyph-name="lacute" unicode="&#x13a;" horiz-adv-x="514" 
d="M156 1473h204v-1473h-204v1473zM350 1921h205l-248 -315h-172z" />
    <glyph glyph-name="uni013B" unicode="&#x13b;" horiz-adv-x="1038" 
d="M195 1409h211v-1237h589v-172h-800v1409zM494 -131h180l-154 -365h-158z" />
    <glyph glyph-name="uni013C" unicode="&#x13c;" horiz-adv-x="514" 
d="M156 1473h204v-1473h-204v1473zM184 -131h181l-154 -365h-158z" />
    <glyph glyph-name="Lcaron" unicode="&#x13d;" horiz-adv-x="1038" 
d="M653 1473h178l-135 -316h-155zM195 1409h211v-1237h589v-172h-800v1409z" />
    <glyph glyph-name="lcaron" unicode="&#x13e;" horiz-adv-x="514" 
d="M575 1473h179l-136 -316h-155zM156 1473h204v-1473h-204v1473z" />
    <glyph glyph-name="Ldot" unicode="&#x13f;" horiz-adv-x="1038" 
d="M696 733q0 53 35 87t88 34t88 -34t35 -87t-35 -87t-88 -34t-88 34t-35 87zM195 1409h211v-1237h589v-172h-800v1409z" />
    <glyph glyph-name="ldot" unicode="&#x140;" horiz-adv-x="755" 
d="M512 717q0 53 35 87t88 34t88 -34t35 -87t-35 -87t-88 -34t-88 34t-35 87zM156 1473h204v-1473h-204v1473z" />
    <glyph glyph-name="Lslash" unicode="&#x141;" horiz-adv-x="1069" 
d="M227 1409h211v-604l287 143v-160l-287 -145v-471h590v-172h-801v537l-157 -78v162l157 77v711z" />
    <glyph glyph-name="lslash" unicode="&#x142;" horiz-adv-x="620" 
d="M207 1473h205v-596l184 92v-162l-184 -90v-717h-205v612l-182 -92v164l182 90v699z" />
    <glyph glyph-name="Nacute" unicode="&#x143;" horiz-adv-x="1531" 
d="M195 1409h186l756 -1067v1067h200v-1409h-186l-756 1067v-1067h-200v1409zM858 1858h205l-248 -316h-172z" />
    <glyph glyph-name="nacute" unicode="&#x144;" horiz-adv-x="1179" 
d="M360 922q150 127 310 127q161 0 263 -102t101 -261v-686h-207v653q0 97 -59 157t-152 60q-137 0 -256 -129v-741h-204v1024h204v-102zM686 1473h205l-248 -316h-172z" />
    <glyph glyph-name="uni0145" unicode="&#x145;" horiz-adv-x="1531" 
d="M195 1409h186l756 -1067v1067h200v-1409h-186l-756 1067v-1067h-200v1409zM692 -131h180l-153 -365h-158z" />
    <glyph glyph-name="uni0146" unicode="&#x146;" horiz-adv-x="1179" 
d="M360 922q150 127 310 127q161 0 263 -102t101 -261v-686h-207v653q0 97 -59 157t-152 60q-137 0 -256 -129v-741h-204v1024h204v-102zM520 -131h180l-153 -365h-158z" />
    <glyph glyph-name="Ncaron" unicode="&#x147;" horiz-adv-x="1531" 
d="M195 1409h186l756 -1067v1067h200v-1409h-186l-756 1067v-1067h-200v1409zM856 1542h-180l-215 316h164l141 -185l143 185h162z" />
    <glyph glyph-name="ncaron" unicode="&#x148;" horiz-adv-x="1179" 
d="M360 922q150 127 310 127q161 0 263 -102t101 -261v-686h-207v653q0 97 -59 157t-152 60q-137 0 -256 -129v-741h-204v1024h204v-102zM684 1157h-180l-215 316h164l141 -185l143 185h162z" />
    <glyph glyph-name="Eng" unicode="&#x14a;" horiz-adv-x="1531" 
d="M195 1409h186l756 -1067v1067h200v-1472q0 -183 -117.5 -296.5t-301.5 -113.5q-135 0 -277 63v187q125 -72 237.5 -72t182 69.5t69.5 180.5v76l-735 1036v-1067h-200v1409z" />
    <glyph glyph-name="eng" unicode="&#x14b;" horiz-adv-x="1179" 
d="M664 -301q72 0 117.5 46t45.5 120v788q0 96 -59 156.5t-152 60.5q-137 0 -256 -129v-741h-204v1024h204v-102q150 127 310 127q161 0 262.5 -101.5t101.5 -261.5v-846q0 -136 -90.5 -224.5t-234.5 -88.5q-101 0 -205 45v176q88 -49 160 -49z" />
    <glyph glyph-name="Omacron" unicode="&#x14c;" horiz-adv-x="1531" 
d="M315 705q0 -121 33 -223q68 -208 235 -287q83 -41 183 -41q198 0 326 154q125 154 125 396t-125 397q-125 154 -324 154q-200 0 -328 -154q-125 -155 -125 -396zM98 705q0 319 185 523t482 205q296 1 482 -202q187 -203 188 -524t-186 -525t-483 -206q-296 -1 -482 204
q-186 206 -186 525zM440 1774h647v-146h-647v146z" />
    <glyph glyph-name="omacron" unicode="&#x14d;" horiz-adv-x="1179" 
d="M293 512q0 -163 83 -263q85 -102 214 -102q66 0 120 27q114 57 155 191q22 67 22 147q0 160 -83 263q-85 102 -214 102t-213 -101t-84 -264zM1098 512q0 -238 -143 -387q-143 -150 -365 -150t-365 149t-143 387t143 388t366 150t365 -150q142 -149 142 -387zM266 1389
h647v-146h-647v146z" />
    <glyph glyph-name="Obreve" unicode="&#x14e;" horiz-adv-x="1531" 
d="M315 705q0 -121 33 -223q68 -208 235 -287q83 -41 183 -41q198 0 326 154q125 154 125 396t-125 397q-125 154 -324 154q-200 0 -328 -154q-125 -155 -125 -396zM98 705q0 319 185 523t482 205q296 1 482 -202q187 -203 188 -524t-186 -525t-483 -206q-296 -1 -482 204
q-186 206 -186 525zM604 1858q0 -74 45 -121t117 -47t117 47t45 121h133q0 -134 -82 -227q-81 -87 -212 -87t-214 87q-82 88 -82 227h133z" />
    <glyph glyph-name="obreve" unicode="&#x14f;" horiz-adv-x="1179" 
d="M293 512q0 -163 83 -263q85 -102 214 -102q66 0 120 27q114 57 155 191q22 67 22 147q0 160 -83 263q-85 102 -214 102t-213 -101t-84 -264zM1098 512q0 -238 -143 -387q-143 -150 -365 -150t-365 149t-143 387t143 388t366 150t365 -150q142 -149 142 -387zM428 1473
q0 -74 45 -121t117 -47t117 47t45 121h133q0 -134 -82 -227q-81 -87 -212 -87t-215 89q-83 89 -81 225h133z" />
    <glyph glyph-name="Ohungarumlaut" unicode="&#x150;" horiz-adv-x="1531" 
d="M315 705q0 -121 33 -223q68 -208 235 -287q83 -41 183 -41q198 0 326 154q125 154 125 396t-125 397q-125 154 -324 154q-200 0 -328 -154q-125 -155 -125 -396zM98 705q0 319 185 523t482 205q296 1 482 -202q187 -203 188 -524t-186 -525t-483 -206q-296 -1 -482 204
q-186 206 -186 525zM670 1858h204l-247 -316h-172zM1047 1858h206l-249 -316h-173z" />
    <glyph glyph-name="ohungarumlaut" unicode="&#x151;" horiz-adv-x="1179" 
d="M293 512q0 -163 83 -263q85 -102 214 -102q66 0 120 27q114 57 155 191q22 67 22 147q0 160 -83 263q-85 102 -214 102t-213 -101t-84 -264zM1098 512q0 -238 -143 -387q-143 -150 -365 -150t-365 149t-143 387t143 388t366 150t365 -150q142 -149 142 -387zM494 1473
h204l-247 -316h-172zM870 1473h207l-250 -316h-172z" />
    <glyph glyph-name="OE" unicode="&#x152;" horiz-adv-x="1953" 
d="M1006 1237h-209q-215 0 -348.5 -148.5t-133.5 -383t134.5 -384t347.5 -149.5h209v1065zM1833 1237h-616v-436h536v-170h-536v-459h632v-172h-1065q-303 0 -494.5 199t-191.5 505.5t191.5 505.5t494.5 199h1049v-172z" />
    <glyph glyph-name="oe" unicode="&#x153;" horiz-adv-x="1878" 
d="M1358 887q-108 0 -184 -80t-87 -209h517q-4 127 -71 208t-175 81zM293 512q0 -80 21.5 -147.5t61.5 -115.5t94 -75t119.5 -27t120 27t94.5 75t61.5 115.5t21.5 147.5t-21.5 147.5t-61.5 115.5t-94.5 75t-120 27t-119.5 -27t-94 -75t-61.5 -115.5t-21.5 -147.5zM1412 -25
q-281 0 -421 213q-63 -98 -167.5 -155.5t-225.5 -57.5t-214 40t-160.5 111t-104.5 169t-37 276t142.5 328t365.5 150q129 0 231.5 -55.5t165.5 -153.5q61 98 162 153.5t211 55.5q205 0 324.5 -140.5t119.5 -365.5l-2 -82h-715q12 -144 104 -234t235.5 -90t304.5 99v-181
q-169 -80 -319 -80z" />
    <glyph glyph-name="Racute" unicode="&#x154;" horiz-adv-x="1259" 
d="M195 1409h456q208 0 343 -122q134 -122 132 -312q0 -147 -80 -255t-225 -151l348 -569h-231l-326 541h-211v-541h-206v1409zM401 709h220q197 0 269 158q22 49 22 107q-1 116 -81 191q-80 76 -210 76h-220v-532zM723 1858h205l-248 -316h-172z" />
    <glyph glyph-name="racute" unicode="&#x155;" horiz-adv-x="782" 
d="M623 866q-149 0 -263 -147v-719h-204v1024h204v-115q121 139 271 140q45 0 92 -13v-186q-49 16 -100 16zM522 1473h205l-248 -316h-172z" />
    <glyph glyph-name="uni0156" unicode="&#x156;" horiz-adv-x="1259" 
d="M195 1409h456q208 0 343 -122q134 -122 132 -312q0 -147 -80 -255t-225 -151l348 -569h-231l-326 541h-211v-541h-206v1409zM401 709h220q197 0 269 158q22 49 22 107q-1 116 -81 191q-80 76 -210 76h-220v-532zM557 -131h180l-153 -365h-158z" />
    <glyph glyph-name="uni0157" unicode="&#x157;" horiz-adv-x="782" 
d="M623 866q-149 0 -263 -147v-719h-204v1024h204v-115q121 139 271 140q45 0 92 -13v-186q-49 16 -100 16zM184 -131h181l-154 -365h-158z" />
    <glyph glyph-name="Rcaron" unicode="&#x158;" horiz-adv-x="1259" 
d="M195 1409h456q208 0 343 -122q134 -122 132 -312q0 -147 -80 -255t-225 -151l348 -569h-231l-326 541h-211v-541h-206v1409zM401 709h220q197 0 269 158q22 49 22 107q-1 116 -81 191q-80 76 -210 76h-220v-532zM721 1542h-180l-215 316h163l142 -185l143 185h162z" />
    <glyph glyph-name="rcaron" unicode="&#x159;" horiz-adv-x="782" 
d="M623 866q-149 0 -263 -147v-719h-204v1024h204v-115q121 139 271 140q45 0 92 -13v-186q-49 16 -100 16zM520 1157h-180l-215 316h164l141 -185l143 185h162z" />
    <glyph glyph-name="Sacute" unicode="&#x15a;" horiz-adv-x="1126" 
d="M520 145q133 0 215 65t82 158t-52 140q-80 72 -298 141q-359 112 -361 373q-1 287 287 383q88 29 197 29q186 0 371 -80v-201q-178 111 -355 111q-129 0 -209 -62t-80 -150q1 -90 53 -136t132 -78t171 -61q215 -71 303 -196q52 -75 52 -181q0 -297 -293 -395
q-90 -30 -198 -30q-205 0 -404 97v204q200 -131 387 -131zM655 1858h205l-248 -316h-172z" />
    <glyph glyph-name="sacute" unicode="&#x15b;" horiz-adv-x="876" 
d="M590 278q0 58 -37 88t-92 52t-121 41q-250 76 -250 286q0 131 105 218q105 86 256 86t292 -60v-184q-133 80 -266 80q-80 0 -131 -38t-51 -93t37 -83q37 -27 93 -49t121 -42t121 -56q130 -82 130 -228t-107 -234q-107 -87 -266 -87q-160 0 -313 72v189q145 -96 290 -97
q82 0 136 40q53 41 53 99zM530 1473h205l-248 -316h-172z" />
    <glyph glyph-name="Scircumflex" unicode="&#x15c;" horiz-adv-x="1126" 
d="M520 145q133 0 215 65t82 158t-52 140q-80 72 -298 141q-359 112 -361 373q-1 287 287 383q88 29 197 29q186 0 371 -80v-201q-178 111 -355 111q-129 0 -209 -62t-80 -150q1 -90 53 -136t132 -78t171 -61q215 -71 303 -196q52 -75 52 -181q0 -297 -293 -395
q-90 -30 -198 -30q-205 0 -404 97v204q200 -131 387 -131zM473 1858h180l215 -316h-161l-144 184l-141 -184h-164z" />
    <glyph glyph-name="scircumflex" unicode="&#x15d;" horiz-adv-x="876" 
d="M590 278q0 58 -37 88t-92 52t-121 41q-250 76 -250 286q0 131 105 218q105 86 256 86t292 -60v-184q-133 80 -266 80q-80 0 -131 -38t-51 -93t37 -83q37 -27 93 -49t121 -42t121 -56q130 -82 130 -228t-107 -234q-107 -87 -266 -87q-160 0 -313 72v189q145 -96 290 -97
q82 0 136 40q53 41 53 99zM348 1473h180l215 -316h-161l-144 184l-141 -184h-164z" />
    <glyph glyph-name="Scedilla" unicode="&#x15e;" horiz-adv-x="1126" 
d="M520 145q133 0 215 64.5t82 158.5t-52 140.5t-132 79.5t-171 61.5t-223.5 104.5t-132.5 284q0 178 135.5 287t334.5 109q200 0 385 -80v-201q-178 111 -355 111q-129 0 -209 -61t-80 -151t52.5 -136t132.5 -77.5t171 -61t171 -76t132 -121t52 -174.5
q0 -181 -107.5 -287.5t-277.5 -134.5l-20 -88q66 -14 104.5 -61.5t38.5 -108.5q0 -90 -70 -144.5t-166 -54.5t-170 37v131q70 -41 128 -41t87 22.5t29 60.5t-31.5 61.5t-91.5 23.5h-14l39 153q-192 8 -373 97v204q200 -131 387 -131z" />
    <glyph glyph-name="scedilla" unicode="&#x15f;" horiz-adv-x="876" 
d="M502 -104q141 -28 141 -184q0 -76 -69.5 -130.5t-165.5 -54.5t-168 37v131q72 -41 129 -41t85.5 22.5t28.5 60.5t-31.5 61.5t-93.5 23.5h-12l39 153q-153 9 -274 72v189q145 -96 290 -97q82 0 135.5 40.5t53.5 98.5t-37 87.5t-92 51t-213 70.5t-158 258q0 135 105 219.5
t256 84.5t292 -60v-184q-133 80 -266 80q-80 0 -131 -38t-51 -93t37 -83t93 -49.5t214 -71.5t158 -263q0 -117 -75 -196t-200 -103z" />
    <glyph glyph-name="Scaron" unicode="&#x160;" horiz-adv-x="1126" 
d="M520 145q133 0 215 65t82 158t-52 140q-80 72 -298 141q-359 112 -361 373q-1 287 287 383q88 29 197 29q186 0 371 -80v-201q-178 111 -355 111q-129 0 -209 -62t-80 -150q1 -90 53 -136t132 -78t171 -61q215 -71 303 -196q52 -75 52 -181q0 -297 -293 -395
q-90 -30 -198 -30q-205 0 -404 97v204q200 -131 387 -131zM653 1542h-180l-215 316h164l141 -185l144 185h161z" />
    <glyph glyph-name="scaron" unicode="&#x161;" horiz-adv-x="876" 
d="M590 278q0 58 -37 88t-92 52t-121 41q-250 76 -250 286q0 131 105 218q105 86 256 86t292 -60v-184q-133 80 -266 80q-80 0 -131 -38t-51 -93t37 -83q37 -27 93 -49t121 -42t121 -56q130 -82 130 -228t-107 -234q-107 -87 -266 -87q-160 0 -313 72v189q145 -96 290 -97
q82 0 136 40q53 41 53 99zM528 1157h-180l-215 316h164l141 -185l144 185h161z" />
    <glyph glyph-name="uni0162" unicode="&#x162;" horiz-adv-x="1214" 
d="M502 1237h-447v172h1102v-172h-444v-1237h-211v1237zM532 -131h181l-154 -365h-158z" />
    <glyph glyph-name="uni0163" unicode="&#x163;" horiz-adv-x="837" 
d="M563 -25q-151 0 -244 87q-92 90 -92 227v569h-186v166h186v289h207v-289h324v-166h-324v-545q0 -74 45 -119q94 -96 279 3v-177q-113 -45 -195 -45zM406 -131h180l-154 -365h-158z" />
    <glyph glyph-name="Tcaron" unicode="&#x164;" horiz-adv-x="1214" 
d="M502 1237h-447v172h1102v-172h-444v-1237h-211v1237zM696 1542h-180l-215 316h164l141 -185l144 185h161z" />
    <glyph glyph-name="tcaron" unicode="&#x165;" horiz-adv-x="837" 
d="M664 1473h178l-135 -316h-156zM594 147q70 0 164 50v-177q-113 -45 -195 -45q-155 0 -245.5 88.5t-90.5 225.5v569h-186v166h186v289h207v-289h324v-166h-324v-545q0 -74 45 -120t115 -46z" />
    <glyph glyph-name="Tbar" unicode="&#x166;" horiz-adv-x="1214" 
d="M502 606h-277v144h277v487h-447v172h1102v-172h-444v-487h274v-144h-274v-606h-211v606z" />
    <glyph glyph-name="tbar" unicode="&#x167;" horiz-adv-x="837" 
d="M594 147q70 0 164 50v-177q-113 -45 -195 -45q-155 0 -245.5 88.5t-90.5 225.5v160h-172v145h172v264h-186v166h186v289h207v-289h324v-166h-324v-264h293v-145h-293v-136q0 -74 45 -120t115 -46z" />
    <glyph glyph-name="Utilde" unicode="&#x168;" horiz-adv-x="1531" 
d="M1346 520q0 -239 -164 -392t-416 -153t-416 153t-164 392v889h211v-872q0 -169 106 -277t264 -107t263 108t105 276v872h211v-889zM438 1595q0 103 56 167t130 64q75 0 151 -56q76 -57 111 -57q34 -1 56 25t21 66h131q0 -102 -54 -167t-132 -65q-77 0 -151 57
q-30 22 -57 40q-28 19 -58 19t-52 -26t-21 -67h-131z" />
    <glyph glyph-name="utilde" unicode="&#x169;" horiz-adv-x="1179" 
d="M563 156q135 0 256 127v741h207v-1024h-207v102q-150 -127 -312 -127t-261 103t-99 260v686h205v-653q0 -95 60 -155t151 -60zM258 1210q0 104 55 168t129 64t152 -57q77 -57 112 -57q34 -1 56 25t20 66h131q0 -102 -54 -167q-54 -64 -131 -64t-151 56q-30 22 -57 40
q-28 18 -58 18t-52 -25q-22 -26 -21 -67h-131z" />
    <glyph glyph-name="Umacron" unicode="&#x16a;" horiz-adv-x="1531" 
d="M1346 520q0 -239 -164 -392t-416 -153t-416 153t-164 392v889h211v-872q0 -169 106 -277t264 -107t263 108t105 276v872h211v-889zM442 1774h648v-146h-648v146z" />
    <glyph glyph-name="umacron" unicode="&#x16b;" horiz-adv-x="1179" 
d="M563 156q135 0 256 127v741h207v-1024h-207v102q-150 -127 -312 -127t-261 103t-99 260v686h205v-653q0 -95 60 -155t151 -60zM262 1389h647v-146h-647v146z" />
    <glyph glyph-name="Ubreve" unicode="&#x16c;" horiz-adv-x="1531" 
d="M1346 520q0 -239 -164 -392t-416 -153t-416 153t-164 392v889h211v-872q0 -169 106 -277t264 -107t263 108t105 276v872h211v-889zM604 1858q0 -74 45 -121t117 -47t117 47t45 121h133q0 -134 -82 -227q-81 -87 -212 -87t-214 87q-82 88 -82 227h133z" />
    <glyph glyph-name="ubreve" unicode="&#x16d;" horiz-adv-x="1179" 
d="M563 156q135 0 256 127v741h207v-1024h-207v102q-150 -127 -312 -127t-261 103t-99 260v686h205v-653q0 -95 60 -155t151 -60zM424 1473q0 -74 45 -121t117 -47t116 47t46 121h133q0 -134 -82 -227q-81 -87 -212 -87t-215 89q-83 89 -81 225h133z" />
    <glyph glyph-name="Uring" unicode="&#x16e;" horiz-adv-x="1531" 
d="M1346 520q0 -239 -164 -392t-416 -153t-416 153t-164 392v889h211v-872q0 -169 106 -277t264 -107t263 108t105 276v872h211v-889zM662 1700q0 -47 28 -76t76 -29q47 0 76 29t28 76q0 47 -28 76q-29 28 -76 28t-76 -28q-28 -29 -28 -76zM561 1700q0 92 56 149
q57 57 149 57t149 -56q57 -58 57 -150t-56 -148q-58 -56 -150 -57q-92 0 -149 56q-56 57 -56 149z" />
    <glyph glyph-name="uring" unicode="&#x16f;" horiz-adv-x="1179" 
d="M563 156q135 0 256 127v741h207v-1024h-207v102q-150 -127 -312 -127t-261 103t-99 260v686h205v-653q0 -95 60 -155t151 -60zM481 1315q0 -47 29 -76t76 -29t76 29t28 76q0 47 -28 76q-29 29 -76 29t-76 -30q-29 -28 -29 -75zM381 1315q0 92 56 149q57 58 149 58
t149 -58t57 -149q0 -93 -56 -149q-58 -56 -150 -56t-149 56q-56 57 -56 149z" />
    <glyph glyph-name="Uhungarumlaut" unicode="&#x170;" horiz-adv-x="1531" 
d="M1346 520q0 -239 -164 -392t-416 -153t-416 153t-164 392v889h211v-872q0 -169 106 -277t264 -107t263 108t105 276v872h211v-889zM670 1858h204l-247 -316h-172zM1047 1858h206l-249 -316h-173z" />
    <glyph glyph-name="uhungarumlaut" unicode="&#x171;" horiz-adv-x="1179" 
d="M563 156q135 0 256 127v741h207v-1024h-207v102q-150 -127 -312 -127t-261 103t-99 260v686h205v-653q0 -95 60 -155t151 -60zM489 1473h205l-248 -316h-172zM866 1473h207l-250 -316h-172z" />
    <glyph glyph-name="Uogonek" unicode="&#x172;" horiz-adv-x="1531" 
d="M766 -25q-252 0 -416 153t-164 392v889h211v-872q0 -169 105 -276t265 -107t264 106t104 277v872h211v-889q0 -311 -297 -485q-211 -125 -211 -256q0 -43 26.5 -70.5t69.5 -27.5t78 22v-129q-55 -29 -136 -29t-138.5 53.5t-57.5 127.5q0 145 151 256q-56 -7 -65 -7z" />
    <glyph glyph-name="uogonek" unicode="&#x173;" horiz-adv-x="1179" 
d="M694 -264q0 153 187 264h-62v102q-150 -127 -311 -127t-261 102.5t-100 260.5v686h205v-653q0 -94 59.5 -154.5t151.5 -60.5q135 0 256 127v741h207v-1024q-174 -95 -174 -221q0 -43 27.5 -70.5t69.5 -27.5t77 22v-129q-55 -29 -136 -29t-138.5 53.5t-57.5 137.5z" />
    <glyph glyph-name="Wcircumflex" unicode="&#x174;" horiz-adv-x="2125" 
d="M1614 0h-187l-364 1137l-363 -1137h-188l-481 1409h211l364 -1137l363 1137h188l363 -1137l362 1137h213zM973 1858h180l215 -316h-162l-143 184l-141 -184h-164z" />
    <glyph glyph-name="wcircumflex" unicode="&#x175;" horiz-adv-x="1611" 
d="M1227 0h-185l-235 764l-238 -764h-184l-350 1024h205l237 -764l238 764h184l236 -764l237 764h205zM717 1473h180l215 -316h-162l-143 184l-141 -184h-164z" />
    <glyph glyph-name="Ycircumflex" unicode="&#x176;" horiz-adv-x="1243" 
d="M727 0h-211v604l-506 805h242l369 -612l368 612h244l-506 -805v-604zM530 1858h181l215 -316h-162l-143 184l-142 -184h-164z" />
    <glyph glyph-name="ycircumflex" unicode="&#x177;" horiz-adv-x="1036" 
d="M428 -449h-203l195 480l-393 993h211l280 -743l281 743h211zM428 1473h180l215 -316h-161l-144 184l-141 -184h-164z" />
    <glyph glyph-name="Ydieresis" unicode="&#x178;" horiz-adv-x="1243" 
d="M727 0h-211v604l-506 805h242l369 -612l368 612h244l-506 -805v-604zM291 1700q0 53 33 86t86 33t86 -33q32 -33 32 -86t-32 -86t-86 -33q-53 0 -86 33t-33 86zM715 1700q0 53 31 86q32 33 85 33t87 -33t32 -86q0 -53 -32 -86t-86 -33t-86 33q-31 33 -31 86z" />
    <glyph glyph-name="Zacute" unicode="&#x179;" horiz-adv-x="1277" 
d="M125 1237v172h1032v-129l-805 -1108h819v-172h-1087v129l807 1108h-766zM731 1858h205l-248 -316h-172z" />
    <glyph glyph-name="zacute" unicode="&#x17a;" horiz-adv-x="989" 
d="M111 858v166h770v-121l-537 -737h547v-166h-811v121l538 737h-507zM586 1473h205l-248 -316h-172z" />
    <glyph glyph-name="Zdotaccent" unicode="&#x17b;" horiz-adv-x="1277" 
d="M125 1237v172h1032v-129l-805 -1108h819v-172h-1087v129l807 1108h-766zM516 1700q0 53 35 87t88 34t88 -34t35 -87t-35 -87t-88 -34t-88 34t-35 87z" />
    <glyph glyph-name="zdotaccent" unicode="&#x17c;" horiz-adv-x="989" 
d="M111 858v166h770v-121l-537 -737h547v-166h-811v121l538 737h-507zM371 1315q0 53 35 87t88 34t88 -34q34 -34 34 -87t-34 -87t-88 -34q-53 0 -88 34t-35 87z" />
    <glyph glyph-name="Zcaron" unicode="&#x17d;" horiz-adv-x="1277" 
d="M125 1237v172h1032v-129l-805 -1108h819v-172h-1087v129l807 1108h-766zM729 1542h-180l-215 316h164l141 -185l143 185h162z" />
    <glyph glyph-name="zcaron" unicode="&#x17e;" horiz-adv-x="989" 
d="M111 858v166h770v-121l-537 -737h547v-166h-811v121l538 737h-507zM584 1157h-181l-215 316h164l142 -185l143 185h162z" />
    <glyph glyph-name="florin" unicode="&#x192;" 
d="M244 903h211v223q0 136 90 222t233 86q94 0 180 -33v-184q-63 39 -132.5 38.5t-114.5 -44.5t-45 -113v-195h262v-166h-262v-710q0 -133 -91.5 -220.5t-232.5 -87.5q-86 0 -180 33v185q63 -39 134 -39t115 44t44 113v682h-211v166z" />
    <glyph glyph-name="uni0218" unicode="&#x218;" horiz-adv-x="1126" 
d="M520 145q133 0 215 65t82 158t-52 140q-80 72 -298 141q-359 112 -361 373q-1 287 287 383q88 29 197 29q186 0 371 -80v-201q-178 111 -355 111q-129 0 -209 -62t-80 -150q1 -90 53 -136t132 -78t171 -61q215 -71 303 -196q52 -75 52 -181q0 -297 -293 -395
q-90 -30 -198 -30q-205 0 -404 97v204q200 -131 387 -131zM489 -131h181l-154 -365h-158z" />
    <glyph glyph-name="uni0219" unicode="&#x219;" horiz-adv-x="876" 
d="M590 278q0 58 -37 88t-92 52t-121 41q-250 76 -250 286q0 131 105 218q105 86 256 86t292 -60v-184q-133 80 -266 80q-80 0 -131 -38t-51 -93t37 -83q37 -27 93 -49t121 -42t121 -56q130 -82 130 -228t-107 -234q-107 -87 -266 -87q-160 0 -313 72v189q145 -96 290 -97
q82 0 136 40q53 41 53 99zM365 -131h180l-154 -365h-158z" />
    <glyph glyph-name="uni021A" unicode="&#x21a;" horiz-adv-x="1214" 
d="M502 1237h-447v172h1102v-172h-444v-1237h-211v1237zM532 -131h181l-154 -365h-158z" />
    <glyph glyph-name="uni021B" unicode="&#x21b;" horiz-adv-x="837" 
d="M563 -25q-151 0 -244 87q-92 90 -92 227v569h-186v166h186v289h207v-289h324v-166h-324v-545q0 -74 45 -119q94 -96 279 3v-177q-113 -45 -195 -45zM406 -131h180l-154 -365h-158z" />
    <glyph glyph-name="uni0237" unicode="&#x237;" horiz-adv-x="514" 
d="M-9 -301q73 0 119 46t46 120v1159h204v-1184q0 -138 -89.5 -225.5t-233.5 -87.5q-94 0 -207 45v176q88 -49 161 -49z" />
    <glyph glyph-name="circumflex" unicode="&#x2c6;" horiz-adv-x="512" 
d="M166 1473h180l215 -316h-162l-143 184l-141 -184h-164z" />
    <glyph glyph-name="caron" unicode="&#x2c7;" horiz-adv-x="512" 
d="M346 1157h-180l-215 316h164l141 -185l143 185h162z" />
    <glyph glyph-name="uni02C9" unicode="&#x2c9;" horiz-adv-x="512" 
d="M-68 1389h648v-146h-648v146z" />
    <glyph glyph-name="breve" unicode="&#x2d8;" horiz-adv-x="512" 
d="M94 1473q0 -74 45 -121t117 -47t117 47t45 121h133q0 -139 -81.5 -226.5t-213.5 -87.5t-213.5 87.5t-81.5 226.5h133z" />
    <glyph glyph-name="dotaccent" unicode="&#x2d9;" horiz-adv-x="512" 
d="M133 1315q0 53 35 87t88 34t88 -34t35 -87t-35 -87t-88 -34t-88 34t-35 87z" />
    <glyph glyph-name="ring" unicode="&#x2da;" horiz-adv-x="512" 
d="M152 1315q0 -47 28.5 -76t75.5 -29t75.5 29t28.5 76t-28.5 75.5t-75.5 28.5t-75.5 -28.5t-28.5 -75.5zM51 1315q0 92 56.5 149.5t148.5 57.5t149.5 -57.5t57.5 -149.5t-57.5 -148.5t-149.5 -56.5t-148.5 56.5t-56.5 148.5z" />
    <glyph glyph-name="ogonek" unicode="&#x2db;" horiz-adv-x="512" 
d="M184 -221q0 -43 28 -70.5t70 -27.5t76 22v-129q-55 -29 -136 -29t-138 53.5t-57 137.5q0 153 186 264h145q-174 -95 -174 -221z" />
    <glyph glyph-name="tilde" unicode="&#x2dc;" horiz-adv-x="512" 
d="M-72 1210q0 104 55.5 168t129.5 64t129 -40t81.5 -57.5t56.5 -17.5t51.5 25.5t21.5 66.5h131q0 -102 -54.5 -166.5t-129.5 -64.5t-129 39t-80.5 57.5t-57.5 18.5t-52.5 -26t-21.5 -67h-131z" />
    <glyph glyph-name="hungarumlaut" unicode="&#x2dd;" horiz-adv-x="512" 
d="M160 1473h205l-248 -316h-172zM537 1473h206l-249 -316h-172z" />
    <glyph glyph-name="uni0394" unicode="&#x394;" horiz-adv-x="1333" 
d="M299 168h733l-366 944zM1268 0h-1205v115l515 1294h176l514 -1294v-115z" />
    <glyph glyph-name="uni03A9" unicode="&#x3a9;" horiz-adv-x="1597" 
d="M1466 793q0 -359 -309 -625h359v-168h-607v131q166 135 253 298t87 333q0 221 -126 357t-326 136q-201 0 -325 -137.5t-124 -355.5q0 -170 87 -333t253 -298v-131h-606v168h356q-309 271 -309 625q0 283 188.5 462t481 179t480 -179.5t187.5 -461.5z" />
    <glyph glyph-name="uni03BC" unicode="&#x3bc;" horiz-adv-x="1187" 
d="M571 156q135 0 256 127v741h207v-1024h-207v102q-131 -119 -276 -118q-111 0 -191 67v-500h-204v1473h204v-653q0 -94 59.5 -154.5t151.5 -60.5z" />
    <glyph glyph-name="pi" unicode="&#x3c0;" horiz-adv-x="1228" 
d="M215 862h-190v162h1179v-162h-190v-862h-207v862h-387v-862h-205v862z" />
    <glyph glyph-name="Wgrave" unicode="&#x1e80;" horiz-adv-x="2125" 
d="M1614 0h-187l-364 1137l-363 -1137h-188l-481 1409h211l364 -1137l363 1137h188l363 -1137l362 1137h213zM766 1858h205l215 -316h-172z" />
    <glyph glyph-name="wgrave" unicode="&#x1e81;" horiz-adv-x="1611" 
d="M1227 0h-185l-235 764l-238 -764h-184l-350 1024h205l237 -764l238 764h184l236 -764l237 764h205zM510 1473h205l215 -316h-172z" />
    <glyph glyph-name="Wacute" unicode="&#x1e82;" horiz-adv-x="2125" 
d="M1614 0h-187l-364 1137l-363 -1137h-188l-481 1409h211l364 -1137l363 1137h188l363 -1137l362 1137h213zM1155 1858h205l-248 -316h-172z" />
    <glyph glyph-name="wacute" unicode="&#x1e83;" horiz-adv-x="1611" 
d="M1227 0h-185l-235 764l-238 -764h-184l-350 1024h205l237 -764l238 764h184l236 -764l237 764h205zM899 1473h205l-248 -316h-172z" />
    <glyph glyph-name="Wdieresis" unicode="&#x1e84;" horiz-adv-x="2125" 
d="M1614 0h-187l-364 1137l-363 -1137h-188l-481 1409h211l364 -1137l363 1137h188l363 -1137l362 1137h213zM733 1700q0 53 33 86t86 33t86 -33t33 -86t-33 -86t-86 -33t-86 33t-33 86zM1157 1700q0 53 32 86t85 33t86 -33t33 -86t-33 -86t-86 -33t-85 33t-32 86z" />
    <glyph glyph-name="wdieresis" unicode="&#x1e85;" horiz-adv-x="1611" 
d="M1227 0h-185l-235 764l-238 -764h-184l-350 1024h205l237 -764l238 764h184l236 -764l237 764h205zM477 1315q0 53 33 86t86 33t86 -33t33 -86t-33 -86t-86 -33t-86 33t-33 86zM901 1315q0 53 32 86t85 33t86 -33t33 -86t-33 -86t-86 -33t-85 33t-32 86z" />
    <glyph glyph-name="uni1E9E" unicode="&#x1e9e;" horiz-adv-x="1531" 
d="M195 1409h1159v-129l-301 -434q171 -24 277 -141.5t106 -278.5q0 -199 -139 -325t-351 -126q-158 0 -317 80v203q156 -104 294 -104t218 75.5t80 197.5t-96.5 196.5t-247.5 74.5h-68v129l287 410h-695v-1237h-206v1409z" />
    <glyph glyph-name="Ygrave" unicode="&#x1ef2;" horiz-adv-x="1243" 
d="M727 0h-211v604l-506 805h242l369 -612l368 612h244l-506 -805v-604zM324 1858h204l215 -316h-172z" />
    <glyph glyph-name="ygrave" unicode="&#x1ef3;" horiz-adv-x="1036" 
d="M428 -449h-203l195 480l-393 993h211l280 -743l281 743h211zM221 1473h205l215 -316h-172z" />
    <glyph glyph-name="figuredash" unicode="&#x2012;" 
d="M82 770h989v-131h-989v131z" />
    <glyph glyph-name="endash" unicode="&#x2013;" horiz-adv-x="1024" 
d="M66 604h892v-166h-892v166z" />
    <glyph glyph-name="emdash" unicode="&#x2014;" horiz-adv-x="2048" 
d="M66 604h1916v-166h-1916v166z" />
    <glyph glyph-name="quoteleft" unicode="&#x2018;" horiz-adv-x="512" 
d="M272 952h-198l192 457h174z" />
    <glyph glyph-name="quoteright" unicode="&#x2019;" horiz-adv-x="512" 
d="M240 1409h200l-192 -457h-174z" />
    <glyph glyph-name="quotesinglbase" unicode="&#x201a;" horiz-adv-x="512" 
d="M170 201h201l-193 -457h-174z" />
    <glyph glyph-name="quotedblleft" unicode="&#x201c;" horiz-adv-x="876" 
d="M272 952h-198l192 457h174zM637 952h-201l193 457h174z" />
    <glyph glyph-name="quotedblright" unicode="&#x201d;" horiz-adv-x="876" 
d="M602 1409h201l-193 -457h-174zM240 1409h200l-192 -457h-174z" />
    <glyph glyph-name="quotedblbase" unicode="&#x201e;" horiz-adv-x="876" 
d="M170 201h201l-193 -457h-174zM532 201h201l-190 -457h-176z" />
    <glyph glyph-name="dagger" unicode="&#x2020;" horiz-adv-x="925" 
d="M373 907h-324v178h324v324h178v-324h326v-178h-326v-907h-178v907z" />
    <glyph glyph-name="daggerdbl" unicode="&#x2021;" horiz-adv-x="925" 
d="M373 324h-324v178h324v405h-324v178h324v324h178v-324h326v-178h-326v-405h326v-178h-326v-324h-178v324z" />
    <glyph glyph-name="bullet" unicode="&#x2022;" horiz-adv-x="1024" 
d="M223 704.5q0 59.5 22.5 112.5t62.5 92t92.5 61.5t111.5 22.5t112.5 -22.5t92.5 -61.5t61.5 -92t22.5 -112.5t-22.5 -112.5t-61.5 -92t-92.5 -61.5t-112.5 -22.5t-111.5 22.5t-92.5 61.5t-62.5 92t-22.5 112.5z" />
    <glyph glyph-name="ellipsis" unicode="&#x2026;" horiz-adv-x="2050" 
d="M1577 105q0 58 37 94.5t94 36.5t94 -36t37 -94t-37 -94.5t-94 -36.5t-94 36t-37 94zM211 105q0 58 37 94.5t94 36.5t94 -36t37 -94t-37 -94.5t-94 -36.5t-94 36t-37 94zM895 105q0 58 37 94.5t93 36.5t93 -36t37 -94t-37 -94.5t-93 -36.5t-93 36t-37 94z" />
    <glyph glyph-name="perthousand" unicode="&#x2030;" horiz-adv-x="2480" 
d="M1313 1409h162l-1057 -1409h-162zM233 1056.5q0 -112.5 52.5 -182t135.5 -69.5t135 69.5t52 182t-52 182.5t-135 70t-135.5 -70t-52.5 -182.5zM663.5 1328q96.5 -106 96.5 -271t-96 -271t-245 -106t-243 105.5t-94 271.5t94.5 271.5t242.5 105.5t244.5 -106zM1122 352.5
q0 -112.5 52.5 -182.5t135.5 -70t135 70t52 182.5t-52 182t-135 69.5t-135.5 -69.5t-52.5 -182zM1065 623.5q94 105.5 243.5 105.5t245 -107t95.5 -270t-96 -270t-244.5 -107t-243 105t-94.5 272q0 166 94 271.5zM1874 352.5q0 -112.5 51 -182.5t135 -70t135.5 70
t51.5 182.5t-51.5 182t-135.5 69.5t-135 -69.5t-51 -182zM2060.5 729q149.5 0 243.5 -105.5t94 -271.5t-94.5 -271.5t-243 -105.5t-243.5 106t-95 271t94.5 271t244 106z" />
    <glyph glyph-name="guilsinglleft" unicode="&#x2039;" horiz-adv-x="808" 
d="M342 512l377 -430h-221l-408 430l408 432h221z" />
    <glyph glyph-name="guilsinglright" unicode="&#x203a;" horiz-adv-x="808" 
d="M467 512l-377 432h219l410 -432l-410 -430h-219z" />
    <glyph glyph-name="fraction" unicode="&#x2044;" horiz-adv-x="319" 
d="M608 1409h162l-1057 -1409h-164z" />
    <glyph glyph-name="uni2070" unicode="&#x2070;" horiz-adv-x="765" 
d="M229 1249q0 -135 41 -216t113 -81t113 81t41 216t-41 216t-113 81t-113 -81t-41 -216zM608 1560.5q88 -118.5 88 -311.5q0 -194 -88.5 -312t-225 -118t-223.5 118.5t-87 311.5q0 192 86.5 311t224 119t225.5 -118.5z" />
    <glyph glyph-name="uni2074" unicode="&#x2074;" horiz-adv-x="712" 
d="M395 1161v285l-207 -285h207zM395 1038h-358v99l381 528h127v-504h125v-123h-125v-204h-150v204z" />
    <glyph glyph-name="uni2075" unicode="&#x2075;" horiz-adv-x="638" 
d="M244 1235q-80 0 -152 -23v453h440v-133h-301v-184q39 6 74 6q123 0 196.5 -71t73.5 -191t-86 -196.5t-223 -76.5q-96 0 -196 47v148q92 -62 173 -62t126 40t45 102t-45 101.5t-125 39.5z" />
    <glyph glyph-name="uni2076" unicode="&#x2076;" horiz-adv-x="710" 
d="M219 1100q0 -54 38 -101t98 -47t100.5 41t40.5 105t-38 103.5t-104 39.5t-129 -63q-6 -24 -6 -78zM66 1139q0 277 278 526h201q-213 -164 -287 -336q61 43 135 43q117 0 187.5 -73.5t70.5 -195.5t-85 -203t-213 -81t-207.5 87.5t-79.5 232.5z" />
    <glyph glyph-name="uni2077" unicode="&#x2077;" horiz-adv-x="581" 
d="M10 1532v133h545v-90l-309 -741h-162l293 698h-367z" />
    <glyph glyph-name="uni2078" unicode="&#x2078;" horiz-adv-x="712" 
d="M231 1437q0 -52 34 -86t90 -34t91 33.5t35 85.5t-34.5 86t-90.5 34t-90.5 -33.5t-34.5 -85.5zM221 1070q0 -54 37 -91t98.5 -37t99.5 37t38 91t-38 90t-99.5 36t-98.5 -36t-37 -90zM84 1448q0 104 74.5 167.5t197.5 63.5t199 -63.5t76 -167.5q0 -66 -34 -115t-93 -71
q68 -23 106.5 -78.5t38.5 -126.5q0 -106 -81 -172t-212 -66t-210.5 65.5t-79.5 172.5q0 72 37.5 127t105.5 78q-59 23 -92 71.5t-33 114.5z" />
    <glyph glyph-name="uni2079" unicode="&#x2079;" horiz-adv-x="710" 
d="M354 1546q-60 0 -99.5 -41t-39.5 -105t37 -103t102 -39t131 61q25 112 -23 169.5t-108 57.5zM315 1126q-115 0 -185.5 74t-70.5 197t83 202.5t213 79.5t210 -88t80 -227q0 -281 -280 -530h-201q213 164 289 335q-66 -43 -138 -43z" />
    <glyph glyph-name="uni207A" unicode="&#x207a;" horiz-adv-x="704" 
d="M49 1317h236v235h135v-235h235v-135h-235v-236h-135v236h-236v135z" />
    <glyph glyph-name="uni207B" unicode="&#x207b;" horiz-adv-x="704" 
d="M49 1317h606v-135h-606v135z" />
    <glyph glyph-name="uni207C" unicode="&#x207c;" horiz-adv-x="704" 
d="M49 1444h606v-133h-606v133zM49 1188h606v-133h-606v133z" />
    <glyph glyph-name="uni207D" unicode="&#x207d;" horiz-adv-x="430" 
d="M248 1251q0 -295 184 -532h-162q-176 238 -176 530.5t176 530.5h162q-184 -234 -184 -529z" />
    <glyph glyph-name="uni207E" unicode="&#x207e;" horiz-adv-x="430" 
d="M184 1250q0 294 -186 530h162q176 -238 176 -530t-176 -531h-162q186 237 186 531z" />
    <glyph glyph-name="uni2080" unicode="&#x2080;" horiz-adv-x="765" 
d="M229 160q0 -135 41 -216t113 -81t113 81t41 216t-41 216t-113 81t-113 -81t-41 -216zM607.5 472q88.5 -118 88.5 -312t-88 -312t-225.5 -118t-224 119t-86.5 311t87 311t223.5 119t225 -118z" />
    <glyph glyph-name="uni2081" unicode="&#x2081;" horiz-adv-x="530" 
d="M406 575v-831h-162v659l-201 -112v143l256 141h107z" />
    <glyph glyph-name="uni2082" unicode="&#x2082;" horiz-adv-x="636" 
d="M41 -156q352 304 352 456q0 72 -39 112.5t-98 40.5q-101 0 -195 -80v149q117 68 235 68t190.5 -70t72.5 -174t-71.5 -213.5t-229.5 -255.5h309v-133h-526v100z" />
    <glyph glyph-name="uni2083" unicode="&#x2083;" horiz-adv-x="628" 
d="M195 229h41q66 0 108.5 33t42.5 84t-35.5 82t-111.5 31t-172 -60v142q100 49 214 49t188.5 -62.5t74.5 -165.5q0 -66 -35 -116.5t-94 -73.5q68 -23 107.5 -79t39.5 -128q0 -104 -81 -169.5t-203 -65.5t-230 51v145q103 -66 185 -66t125.5 33t43.5 87t-44 89t-115 35h-49
v125z" />
    <glyph glyph-name="uni2084" unicode="&#x2084;" horiz-adv-x="712" 
d="M395 72v284l-207 -284h207zM395 -51h-358v98l381 528h127v-503h125v-123h-125v-205h-150v205z" />
    <glyph glyph-name="uni2085" unicode="&#x2085;" horiz-adv-x="638" 
d="M246 145q-78 0 -154 -22v452h440v-133h-301v-184q39 6 74 6q123 0 196.5 -70.5t73.5 -191.5t-86.5 -196.5t-202.5 -75.5t-216 47v147q92 -61 173 -61t126 40t45 102t-45 101t-123 39z" />
    <glyph glyph-name="uni2086" unicode="&#x2086;" horiz-adv-x="710" 
d="M219 10q0 -53 38 -100t98 -47t100.5 41t40.5 105t-38 103.5t-104 39.5t-129 -64q-6 -25 -6 -78zM393 283q117 0 187.5 -74t70.5 -196t-85.5 -202.5t-213.5 -80.5t-207 87.5t-79 227.5q0 283 278 530h201q-214 -164 -287 -335q61 43 135 43z" />
    <glyph glyph-name="uni2087" unicode="&#x2087;" horiz-adv-x="581" 
d="M10 442v133h545v-90l-309 -741h-162l293 698h-367z" />
    <glyph glyph-name="uni2088" unicode="&#x2088;" horiz-adv-x="712" 
d="M231 347q0 -52 34 -86t90 -34t91 34t35 86t-34.5 86t-90.5 34t-90.5 -34t-34.5 -86zM221 -19q0 -54 37 -91t98.5 -37t99.5 36.5t38 90.5t-38 90t-99.5 36t-98.5 -35.5t-37 -89.5zM84 358q0 104 74.5 168t197.5 64t199 -63.5t76 -168.5q0 -66 -34 -114.5t-93 -71.5
q68 -23 106.5 -78t38.5 -127q0 -106 -81 -171.5t-212 -65.5t-210.5 65.5t-79.5 171.5q0 72 37.5 127.5t105.5 77.5q-59 23 -92 71.5t-33 114.5z" />
    <glyph glyph-name="uni2089" unicode="&#x2089;" horiz-adv-x="710" 
d="M354 457q-60 0 -99.5 -41.5t-39.5 -105.5t37 -103t102 -39t131 61q25 112 -23 170t-108 58zM645 270q0 -275 -280 -526h-201q213 164 289 336q-66 -43 -138 -43q-115 0 -185.5 73.5t-70.5 196.5t83 203t213 80t210 -88t80 -232z" />
    <glyph glyph-name="uni208A" unicode="&#x208a;" horiz-adv-x="704" 
d="M49 227h236v236h135v-236h235v-135h-235v-235h-135v235h-236v135z" />
    <glyph glyph-name="uni208B" unicode="&#x208b;" horiz-adv-x="704" 
d="M49 227h606v-135h-606v135z" />
    <glyph glyph-name="uni208C" unicode="&#x208c;" horiz-adv-x="704" 
d="M49 354h606v-133h-606v133zM49 98h606v-133h-606v133z" />
    <glyph glyph-name="uni208D" unicode="&#x208d;" horiz-adv-x="430" 
d="M248 162q0 -294 184 -533h-162q-176 238 -176 530.5t176 530.5h162q-184 -234 -184 -528z" />
    <glyph glyph-name="uni208E" unicode="&#x208e;" horiz-adv-x="430" 
d="M184 160q0 294 -186 530h162q176 -238 176 -530t-176 -531h-162q186 237 186 531z" />
    <glyph glyph-name="Euro" unicode="&#x20ac;" 
d="M367 704.5q0 -43.5 4 -83.5h481v-144h-444q45 -152 146.5 -239.5t239.5 -87.5t277 90v-189q-150 -76 -283 -76q-239 0 -396 137t-210 365h-157v144h135q-2 20 -2 25v64q0 58 2 78h-135v144h157q53 228 210 365t372 137q158 0 307 -76v-189q-139 91 -277 91t-239.5 -88.5
t-146.5 -239.5h444v-144h-481q-4 -40 -4 -83.5z" />
    <glyph glyph-name="uni2113" unicode="&#x2113;" horiz-adv-x="811" 
d="M588 1159q0 76 -30 123t-82 47t-84 -47t-32 -129v-428q228 178 228 434zM156 285v874q0 151 83.5 244.5t211.5 93.5q129 0 207.5 -90t78.5 -238q0 -367 -377 -641v-215q0 -74 46.5 -120t116.5 -46t163 50v-177q-189 -79 -323.5 -28t-170.5 138t-36 155z" />
    <glyph glyph-name="uni2116" unicode="&#x2116;" horiz-adv-x="2306" 
d="M1751 1089.5q0 -92.5 46 -149.5t121 -57t122 57t47 149.5t-47 148.5t-122 56t-121 -56t-46 -148.5zM1682 1330q91 95 236 95t236 -94t91 -243t-91 -241.5t-236 -92.5q-144 0 -235.5 93.5t-91.5 240.5t91 242zM1614 637h610v-121h-610v121zM195 1409h186l756 -1067v1067
h200v-1409h-186l-756 1067v-1067h-200v1409z" />
    <glyph glyph-name="uni2117" unicode="&#x2117;" horiz-adv-x="1730" 
d="M780 715h117q68 0 110 39t42 100t-42 100t-110 39h-117v-278zM623 1120h297q128 0 209 -75t81 -192t-81 -192t-209 -75h-140v-297h-157v831zM254 704.5q0 -267.5 170.5 -440t439.5 -172.5t441 173t172 439.5t-171.5 439.5t-441.5 173q-269 0 -439.5 -172.5t-170.5 -440z
M129 704.5q0 161.5 54.5 297t151.5 233.5t232 152.5t297 54.5t297 -54.5t233.5 -152.5t153 -233.5t54.5 -297t-54.5 -297t-153 -233.5t-233.5 -152.5t-297 -54.5t-297 54.5t-232 152.5t-151.5 233.5t-54.5 297z" />
    <glyph glyph-name="uni2120" unicode="&#x2120;" horiz-adv-x="1748" 
d="M819 1409h139l267 -371l266 371h139v-831h-151v575l-207 -289h-96l-205 289v-575h-152v831zM381 1294q-68 0 -109 -30.5t-41 -75.5t30 -68.5t75 -40t172 -57t127 -211.5q0 -111 -85.5 -179.5t-214.5 -68.5q-128 0 -247 55v146q113 -74 231 -74q70 0 112 33t42 81
t-29.5 71.5t-74.5 41t-171 58t-126 200.5q0 116 82 182t202 66t238 -45v-145q-98 61 -213 61z" />
    <glyph glyph-name="trademark" unicode="&#x2122;" horiz-adv-x="1802" 
d="M872 1409h138l266 -371l268 371h137v-831h-149v575l-207 -289h-96l-207 289v-575h-150v831zM295 1278h-252v131h666v-131h-252v-700h-162v700z" />
    <glyph glyph-name="Omega" unicode="&#x2126;" horiz-adv-x="1597" 
d="M1466 793q0 -359 -309 -625h359v-168h-607v131q166 135 253 298t87 333q0 221 -126 357t-326 136q-201 0 -325 -137.5t-124 -355.5q0 -170 87 -333t253 -298v-131h-606v168h356q-309 271 -309 625q0 283 188.5 462t481 179t480 -179.5t187.5 -461.5z" />
    <glyph glyph-name="estimated" unicode="&#x212e;" horiz-adv-x="1921" 
d="M449 737h1024v391q-92 111 -224.5 176.5t-286.5 65.5t-287.5 -65.5t-225.5 -176.5v-391zM160 704.5q0 151.5 62.5 284.5t172 231.5t255 156t311 57.5t311 -57.5t255 -156t172 -231.5t62.5 -284v-33h-1312v-391q92 -111 225 -175.5t290 -64.5t289.5 65.5t225.5 182.5h139
q-111 -143 -282 -228.5t-356 -85.5t-330.5 57.5t-255 157t-172 231.5t-62.5 283.5z" />
    <glyph glyph-name="onethird" unicode="&#x2153;" horiz-adv-x="1730" 
d="M1257 485h41q66 0 109 33t43 84t-36 82t-112 31t-172 -60v142q100 49 214 49t189 -62.5t75 -165.5q0 -66 -35 -116.5t-94 -73.5q68 -23 107.5 -79t39.5 -128q0 -104 -81 -169.5t-203 -65.5t-230 51v145q102 -66 184 -66t126 33t44 87t-44 89t-115 35h-50v125zM1313 1409
h162l-1057 -1409h-164zM492 1409v-831h-162v659l-201 -113v144l256 141h107z" />
    <glyph glyph-name="twothirds" unicode="&#x2154;" horiz-adv-x="1730" 
d="M1257 485h41q66 0 109 33t43 84t-36 82t-112 31t-172 -60v142q100 49 214 49t189 -62.5t75 -165.5q0 -66 -35 -116.5t-94 -73.5q68 -23 107.5 -79t39.5 -128q0 -104 -81 -169.5t-203 -65.5t-230 51v145q102 -66 184 -66t126 33t44 87t-44 89t-115 35h-50v125zM1313 1409
h162l-1057 -1409h-164zM76 678q352 304 352 456q0 72 -39 112t-98 40q-103 0 -195 -80v150q116 67 234 67q119 0 191.5 -70.5t72.5 -174.5t-71.5 -213t-229.5 -254h309v-133h-526v100z" />
    <glyph glyph-name="uni2155" unicode="&#x2155;" horiz-adv-x="1730" 
d="M1304 401q-78 0 -153 -22v452h440v-133h-301v-184q39 6 74 6q123 0 196.5 -70.5t73.5 -191.5t-87 -196.5t-203 -75.5q-115 0 -216 47v147q92 -61 174 -61t126.5 40t44.5 102t-45.5 101t-123.5 39zM1313 1409h162l-1057 -1409h-164zM492 1409v-831h-162v659l-201 -113v144
l256 141h107z" />
    <glyph glyph-name="uni2156" unicode="&#x2156;" horiz-adv-x="1730" 
d="M1304 401q-78 0 -153 -22v452h440v-133h-301v-184q39 6 74 6q123 0 196.5 -70.5t73.5 -191.5t-87 -196.5t-203 -75.5q-115 0 -216 47v147q92 -61 174 -61t126.5 40t44.5 102t-45.5 101t-123.5 39zM1313 1409h162l-1057 -1409h-164zM76 678q352 304 352 456q0 72 -39 112
t-98 40q-103 0 -195 -80v150q116 67 234 67q119 0 191.5 -70.5t72.5 -174.5t-71.5 -213t-229.5 -254h309v-133h-526v100z" />
    <glyph glyph-name="uni2157" unicode="&#x2157;" horiz-adv-x="1730" 
d="M1304 401q-78 0 -153 -22v452h440v-133h-301v-184q39 6 74 6q123 0 196.5 -70.5t73.5 -191.5t-87 -196.5t-203 -75.5q-115 0 -216 47v147q92 -61 174 -61t126.5 40t44.5 102t-45.5 101t-123.5 39zM1313 1409h162l-1057 -1409h-164zM233 1063h41q66 0 109 32.5t43 84.5
t-36 82t-112 30t-172 -59v141q100 49 214 49t189 -62.5t75 -164.5q0 -66 -35 -117t-94 -73q68 -23 107.5 -79.5t39.5 -127.5q0 -104 -81 -170t-203 -66t-230 51v146q102 -66 184 -66t126 33t44 87t-44 89t-115 35h-50v125z" />
    <glyph glyph-name="uni2158" unicode="&#x2158;" horiz-adv-x="1730" 
d="M1304 401q-78 0 -153 -22v452h440v-133h-301v-184q39 6 74 6q123 0 196.5 -70.5t73.5 -191.5t-87 -196.5t-203 -75.5q-115 0 -216 47v147q92 -61 174 -61t126.5 40t44.5 102t-45.5 101t-123.5 39zM1313 1409h162l-1057 -1409h-164zM391 905v285l-207 -285h207zM391 782
h-358v99l381 528h127v-504h125v-123h-125v-204h-150v204z" />
    <glyph glyph-name="uni2159" unicode="&#x2159;" horiz-adv-x="1730" 
d="M1241 266q0 -53 38 -100t98 -47t100.5 41t40.5 105t-38 103.5t-104 39.5t-129 -64q-6 -25 -6 -78zM1415 539q117 0 187.5 -74t70.5 -196t-85.5 -202.5t-213.5 -80.5t-207.5 88t-79.5 227q0 282 279 530h201q-214 -164 -287 -335q61 43 135 43zM1313 1409h162l-1057 -1409
h-164zM492 1409v-831h-162v659l-201 -113v144l256 141h107z" />
    <glyph glyph-name="uni215A" unicode="&#x215a;" horiz-adv-x="1730" 
d="M1241 266q0 -53 38 -100t98 -47t100.5 41t40.5 105t-38 103.5t-104 39.5t-129 -64q-6 -25 -6 -78zM1415 539q117 0 187.5 -74t70.5 -196t-85.5 -202.5t-213.5 -80.5t-207.5 88t-79.5 227q0 282 279 530h201q-214 -164 -287 -335q61 43 135 43zM1313 1409h162l-1057 -1409
h-164zM277 979q-79 0 -152 -23v453h440v-133h-301v-184q39 6 74 6q123 0 196.5 -71t73.5 -191t-87 -196.5t-202 -76.5q-116 0 -217 47v148q92 -62 174 -62t126 40t44 102t-45 101.5t-124 39.5z" />
    <glyph glyph-name="oneeighth" unicode="&#x215b;" horiz-adv-x="1730" 
d="M1253 603q0 -52 34 -86t90 -34t91 34t35 86t-34.5 86t-90.5 34t-90.5 -34t-34.5 -86zM1243 237q0 -54 37 -91t98.5 -37t99.5 36.5t38 90.5t-38 90t-99.5 36t-98.5 -35.5t-37 -89.5zM1106 614q0 104 74.5 168t197.5 64t199 -63.5t76 -168.5q0 -66 -34 -114.5t-93 -71.5
q68 -23 106.5 -78t38.5 -127q0 -106 -81 -171.5t-212 -65.5t-211 65.5t-80 171.5q0 72 38 127.5t106 77.5q-59 23 -92 71.5t-33 114.5zM1313 1409h162l-1057 -1409h-164zM492 1409v-831h-162v659l-201 -113v144l256 141h107z" />
    <glyph glyph-name="threeeighths" unicode="&#x215c;" horiz-adv-x="1730" 
d="M1253 603q0 -52 34 -86t90 -34t91 34t35 86t-34.5 86t-90.5 34t-90.5 -34t-34.5 -86zM1243 237q0 -54 37 -91t98.5 -37t99.5 36.5t38 90.5t-38 90t-99.5 36t-98.5 -35.5t-37 -89.5zM1106 614q0 104 74.5 168t197.5 64t199 -63.5t76 -168.5q0 -66 -34 -114.5t-93 -71.5
q68 -23 106.5 -78t38.5 -127q0 -106 -81 -171.5t-212 -65.5t-211 65.5t-80 171.5q0 72 38 127.5t106 77.5q-59 23 -92 71.5t-33 114.5zM1313 1409h162l-1057 -1409h-164zM227 1063h41q66 0 109 32.5t43 84.5t-36 82t-112 30t-172 -59v141q100 49 214 49t189 -62.5t75 -164.5
q0 -66 -35 -117t-94 -73q68 -23 107.5 -79.5t39.5 -127.5q0 -104 -81 -170t-203 -66t-230 51v146q102 -66 184 -66t126 33t44 87t-44 89t-116 35h-49v125z" />
    <glyph glyph-name="fiveeighths" unicode="&#x215d;" horiz-adv-x="1730" 
d="M1253 603q0 -52 34 -86t90 -34t91 34t35 86t-34.5 86t-90.5 34t-90.5 -34t-34.5 -86zM1243 237q0 -54 37 -91t98.5 -37t99.5 36.5t38 90.5t-38 90t-99.5 36t-98.5 -35.5t-37 -89.5zM1106 614q0 104 74.5 168t197.5 64t199 -63.5t76 -168.5q0 -66 -34 -114.5t-93 -71.5
q68 -23 106.5 -78t38.5 -127q0 -106 -81 -171.5t-212 -65.5t-211 65.5t-80 171.5q0 72 38 127.5t106 77.5q-59 23 -92 71.5t-33 114.5zM1313 1409h162l-1057 -1409h-164zM277 979q-79 0 -152 -23v453h440v-133h-301v-184q39 6 74 6q123 0 196.5 -71t73.5 -191t-87 -196.5
t-202 -76.5q-116 0 -217 47v148q92 -62 174 -62t126 40t44 102t-45 101.5t-124 39.5z" />
    <glyph glyph-name="seveneighths" unicode="&#x215e;" horiz-adv-x="1730" 
d="M1253 603q0 -52 34 -86t90 -34t91 34t35 86t-34.5 86t-90.5 34t-90.5 -34t-34.5 -86zM1243 237q0 -54 37 -91t98.5 -37t99.5 36.5t38 90.5t-38 90t-99.5 36t-98.5 -35.5t-37 -89.5zM1106 614q0 104 74.5 168t197.5 64t199 -63.5t76 -168.5q0 -66 -34 -114.5t-93 -71.5
q68 -23 106.5 -78t38.5 -127q0 -106 -81 -171.5t-212 -65.5t-211 65.5t-80 171.5q0 72 38 127.5t106 77.5q-59 23 -92 71.5t-33 114.5zM1313 1409h162l-1057 -1409h-164zM74 1276v133h544v-90l-309 -741h-162l293 698h-366z" />
    <glyph glyph-name="uni215F" unicode="&#x215f;" horiz-adv-x="1024" 
d="M1313 1409h162l-1057 -1409h-164zM481 1409v-831h-162v659l-200 -113v144l256 141h106z" />
    <glyph glyph-name="arrowleft" unicode="&#x2190;" horiz-adv-x="2048" 
d="M1919 676v-197h-1413l479 -479h-278l-578 578l578 577h278l-479 -479h1413z" />
    <glyph glyph-name="arrowup" unicode="&#x2191;" horiz-adv-x="2048" 
d="M1122 -317h-196v1413l-480 -480v279l578 578l578 -578v-279l-480 480v-1413z" />
    <glyph glyph-name="arrowright" unicode="&#x2192;" horiz-adv-x="2048" 
d="M129 479v197h1413l-479 479h278l578 -577l-578 -578h-278l479 479h-1413z" />
    <glyph glyph-name="arrowdown" unicode="&#x2193;" horiz-adv-x="2048" 
d="M926 1473h196v-1414l480 480v-279l-578 -577l-578 577v279l480 -480v1414z" />
    <glyph glyph-name="uni2196" unicode="&#x2196;" horiz-adv-x="2048" 
d="M391 1210h817l197 -196h-678l999 -1000l-139 -139l-999 999v-677l-197 196v817z" />
    <glyph glyph-name="uni2197" unicode="&#x2197;" horiz-adv-x="2048" 
d="M1657 1210v-817l-197 -196v677l-999 -999l-139 139l999 1000h-678l197 196h817z" />
    <glyph glyph-name="uni2198" unicode="&#x2198;" horiz-adv-x="2048" 
d="M1657 -55h-817l-197 196h678l-999 1000l139 139l999 -999v677l197 -196v-817z" />
    <glyph glyph-name="uni2199" unicode="&#x2199;" horiz-adv-x="2048" 
d="M391 -55v817l197 196v-677l999 999l139 -139l-999 -1000h678l-197 -196h-817z" />
    <glyph glyph-name="partialdiff" unicode="&#x2202;" horiz-adv-x="1179" 
d="M368 250q77 -103 205 -103q129 0 213 129t84 342q0 55 -6 115q-61 70 -133.5 107t-140.5 37t-123 -27t-115.5 -100t-60.5 -235t77 -265zM511 1497q147 0 247 -55.5t211.5 -214.5t111.5 -501q0 -341 -145 -546t-365 -205t-354.5 154.5t-134.5 389.5t134 382.5t341 147.5
q166 0 291 -119q-25 186 -116 292.5t-232 106.5t-293 -98v186q157 80 304 80z" />
    <glyph glyph-name="Delta" unicode="&#x2206;" horiz-adv-x="1333" 
d="M299 168h733l-366 944zM1268 0h-1205v115l515 1294h176l514 -1294v-115z" />
    <glyph glyph-name="product" unicode="&#x220f;" horiz-adv-x="1581" 
d="M195 1473h1191v-1922h-212v1754h-768v-1754h-211v1922z" />
    <glyph glyph-name="summation" unicode="&#x2211;" horiz-adv-x="1374" 
d="M168 1473h1077v-168h-807l545 -719v-123l-577 -744h872v-168h-1141v130l654 843l-623 819v130z" />
    <glyph glyph-name="minus" unicode="&#x2212;" 
d="M63 666h1027v-179h-1027v179z" />
    <glyph glyph-name="uni2215" unicode="&#x2215;" horiz-adv-x="319" 
d="M608 1409h162l-1057 -1409h-164z" />
    <glyph glyph-name="uni2219" unicode="&#x2219;" horiz-adv-x="512" 
d="M125 511q0 58 37 94t94 36t94 -36t37 -94t-37 -94t-94 -36t-94 36t-37 94z" />
    <glyph glyph-name="radical" unicode="&#x221a;" horiz-adv-x="1409" 
d="M840 -449h-189l-229 691l-322 -109v180l432 144l205 -615l408 1631h176z" />
    <glyph glyph-name="infinity" unicode="&#x221e;" horiz-adv-x="1644" 
d="M1376 577q0 105 -54 171.5t-140 66.5q-113 0 -189 -119l-80 -118l80 -121q76 -117 189 -117q86 0 140 66t54 171zM268 577q0 -105 54.5 -171t140.5 -66q111 0 190 117l78 121l-78 118q-81 119 -190 119q-86 0 -140.5 -66.5t-54.5 -171.5zM184 869.5q102 113.5 267 113.5
q199 0 325 -190l45 -72l47 72q61 92 145.5 141t173.5 49q171 0 273.5 -114.5t102.5 -292.5t-102.5 -292t-266.5 -114q-198 0 -326 190l-47 72l-45 -72q-126 -190 -325 -190q-165 0 -267 113t-102 293t102 293.5z" />
    <glyph glyph-name="integral" unicode="&#x222b;" horiz-adv-x="1024" 
d="M406 -473q-68 0 -138 20v177q55 -25 97 -25q72 0 115.5 59.5t43.5 146.5t-17.5 182t-44 195.5t-102 353.5t-75.5 445t96 304t246 112q66 0 129 -20v-174q-137 62 -196.5 -16.5t-59.5 -165.5t17.5 -182t44 -195.5t58 -206t75.5 -277.5t44 -298t-25.5 -198.5t-70.5 -125
t-107 -82t-130 -29.5z" />
    <glyph glyph-name="approxequal" unicode="&#x2248;" 
d="M63 836q121 92 255 92q135 0 268 -60q146 -59 235 -59q139 0 269 102v-190q-121 -90 -255 -90q-134 -1 -270 59t-233 60q-138 0 -269 -103v189zM332 346q-139 0 -269 -102v190q121 90 256 90t267 -59q146 -59 235 -59q139 0 269 102v-191q-125 -90 -258 -90t-267 60
q-146 59 -233 59z" />
    <glyph glyph-name="notequal" unicode="&#x2260;" 
d="M63 276v179h353l123 243h-476v179h564l139 276h199l-140 -276h265v-179h-353l-123 -243h476v-179h-564l-139 -276h-199l140 276h-265z" />
    <glyph glyph-name="lessequal" unicode="&#x2264;" 
d="M63 721v147l1027 439v-193l-750 -319l750 -320v-194zM63 178h1027v-178h-1027v178z" />
    <glyph glyph-name="greaterequal" unicode="&#x2265;" 
d="M1090 868v-147l-1027 -440v194l750 320l-750 319v193zM63 178h1027v-178h-1027v178z" />
    <glyph glyph-name="lozenge" unicode="&#x25ca;" 
d="M291 705l287 -490l284 490l-284 489zM86 705l408 704h165l408 -704l-408 -705h-165z" />
    <glyph glyph-name="uniE010" unicode="&#xe010;" horiz-adv-x="1247" 
d="M315 704.5q0 -124.5 22.5 -226t62.5 -174.5t97.5 -111.5t127 -38.5t126 38.5t96.5 111.5t62.5 174.5t22.5 226t-22.5 226t-62.5 173.5t-96.5 111.5t-126 39.5t-127 -39.5t-97.5 -111.5t-62.5 -173.5t-22.5 -226zM106 704.5q0 161.5 38 296t106.5 230.5t164 149.5
t210 53.5t210 -53.5t163 -149.5t105.5 -230.5t38 -296t-38 -296t-105.5 -230.5t-163 -149.5t-210 -53.5t-210 53.5t-164 149.5t-106.5 230.5t-38 296z" />
    <glyph glyph-name="uniE011" unicode="&#xe011;" horiz-adv-x="825" 
d="M623 1409v-1409h-211v1182l-355 -203v192l422 238h144z" />
    <glyph glyph-name="uniE012" unicode="&#xe012;" horiz-adv-x="1030" 
d="M88 1317q197 117 389 117t312 -116.5t120 -297.5q0 -245 -207.5 -471.5t-361.5 -370.5h586v-178h-871v137q505 453 571 616t66 227q0 123 -72 197t-186 74q-175 0 -346 -135v201z" />
    <glyph glyph-name="uniE013" unicode="&#xe013;" horiz-adv-x="1013" 
d="M63 264q172 -114 324 -114t233.5 66.5t81.5 172.5q0 107 -86 175.5t-223 68.5h-80v166h68q129 0 211 66.5t82 168.5t-71 164t-203 62t-304 -103v193q174 84 357 84t307.5 -104.5t124.5 -272.5q0 -115 -62.5 -204t-173.5 -126q123 -41 196 -137t73 -202
q0 -192 -136.5 -302.5t-336.5 -110.5q-201 0 -382 93v196z" />
    <glyph glyph-name="uniE014" unicode="&#xe014;" horiz-adv-x="1148" 
d="M674 535v575l-416 -575h416zM674 373h-625v135l656 901h169v-874h218v-162h-218v-373h-200v373z" />
    <glyph glyph-name="uniE015" unicode="&#xe015;" horiz-adv-x="1030" 
d="M378 709q-105 0 -237 -39v739h725v-178h-538v-377q72 14 162 14q194 0 320 -120.5t126 -317.5t-142 -326t-366 -129q-168 0 -328 80v203q156 -104 303 -104t233.5 79.5t86.5 199.5t-63.5 177.5t-120 78t-161.5 20.5z" />
    <glyph glyph-name="uniE016" unicode="&#xe016;" horiz-adv-x="1140" 
d="M305 479q0 -146 75 -235.5t195 -89.5q119 0 197 80.5t78 206.5t-75.5 204t-203.5 78q-129 0 -256 -123q-10 -49 -10 -121zM625 899q194 0 312 -123.5t118 -326.5q0 -204 -137 -339t-346 -135t-342.5 146t-133.5 379t126 466.5t368 442.5h270q-368 -287 -498 -600
q121 90 263 90z" />
    <glyph glyph-name="uniE017" unicode="&#xe017;" horiz-adv-x="925" 
d="M4 1231v178h891v-121l-541 -1288h-215l523 1231h-658z" />
    <glyph glyph-name="uniE018" unicode="&#xe018;" horiz-adv-x="1148" 
d="M328 1032.5q0 -102.5 68 -168t178 -65.5t178.5 65.5t68.5 168t-68.5 168t-178.5 65.5t-178 -65.5t-68 -168zM303 389.5q0 -108.5 74.5 -177.5t196.5 -69t197 69t75 177.5t-75 177t-197 68.5t-196.5 -68.5t-74.5 -177zM129 1032q0 102 33 172t91 121t141 80t230.5 29
t271.5 -109t124 -278q0 -117 -61.5 -204t-165.5 -122q121 -35 189.5 -129t68.5 -200q0 -196 -132.5 -306.5t-344.5 -110.5t-344 110t-132 288q0 125 69 219t189 129q-104 35 -165.5 122t-61.5 189z" />
    <glyph glyph-name="uniE019" unicode="&#xe019;" horiz-adv-x="1140" 
d="M836 939q0 136 -75 226t-192 90t-197.5 -79t-80.5 -207q0 -127 73.5 -205t203.5 -78t259 125q9 65 9 128zM516 512q-195 0 -312.5 121.5t-117.5 326.5q0 204 137 339t346 135t342 -145.5t133 -378.5q0 -234 -125.5 -467.5t-367.5 -442.5h-270q371 295 497 602
q-117 -90 -262 -90z" />
    <glyph glyph-name="uniE020" unicode="&#xe020;" 
d="M364.5 258q81.5 -111 211.5 -111q129 0 211.5 111t82.5 286t-81 285.5t-213 110.5t-212.5 -110.5t-80.5 -285.5t81.5 -286zM74 545q0 125 36.5 229.5t104.5 180t160 117.5t202.5 42t202.5 -42t159 -117.5t103.5 -180t36.5 -229.5t-36.5 -229.5t-103.5 -180.5t-159 -118
t-202.5 -42t-202.5 42t-160 118t-104.5 180.5t-36.5 229.5z" />
    <glyph glyph-name="uniE021" unicode="&#xe021;" 
d="M764 1090v-1090h-207v870l-281 -163v188l347 195h141z" />
    <glyph glyph-name="uniE022" unicode="&#xe022;" 
d="M188 133q514 405 514 595q0 97 -53 153.5t-135 56.5q-143 0 -291 -119v191q167 104 328 104t261.5 -94.5t100.5 -243.5q0 -246 -430 -604h443v-172h-738v133z" />
    <glyph glyph-name="uniE023" unicode="&#xe023;" 
d="M745 168q0 94 -74.5 152.5t-195.5 58.5h-76v162h62q115 0 186.5 57.5t71.5 147.5t-61.5 142t-159.5 52q-148 0 -293 -92v188q156 78 325 78t282.5 -96t113.5 -250q0 -102 -55.5 -182t-153.5 -115q111 -37 175 -124t64 -183q0 -177 -124 -277t-305 -100t-353 84v195
q154 -106 290 -106t208.5 57t72.5 151z" />
    <glyph glyph-name="uniE024" unicode="&#xe024;" 
d="M653 299v500l-358 -500h358zM653 141h-561v133l592 816h168v-791h197v-158h-197v-334h-199v334z" />
    <glyph glyph-name="uniE025" unicode="&#xe025;" 
d="M473 442q-129 0 -237 -32v680h661v-177h-481v-321q88 10 157 10q70 0 146 -28.5t160 -110t84 -261.5t-130 -299.5t-335 -119.5q-152 0 -303 76v196q145 -96 275 -96t206 69.5t76 175.5t-75 172t-204 66z" />
    <glyph glyph-name="uniE026" unicode="&#xe026;" 
d="M342 436q0 -125 64.5 -204.5t169.5 -79.5t172 70t67 180t-62.5 179.5t-177.5 69.5t-223 -108q-10 -57 -10 -107zM610 821q195 0 302.5 -114t107.5 -299t-125.5 -309t-318.5 -124t-316 134.5t-123 348.5t114 424t331 400h264q-333 -263 -453 -539q109 78 217 78z" />
    <glyph glyph-name="uniE027" unicode="&#xe027;" 
d="M152 913v177h823v-121l-486 -1162h-215l467 1106h-589z" />
    <glyph glyph-name="uniE028" unicode="&#xe028;" 
d="M362 937q0 -89 59 -147.5t155 -58.5t155.5 58.5t59.5 147.5t-59.5 146.5t-154.5 57.5t-155 -57.5t-60 -146.5zM340 355q0 -93 66.5 -154.5t171 -61.5t170 61.5t65.5 154.5t-65.5 154.5t-170 61.5t-171 -61.5t-66.5 -154.5zM168 938q0 90 29.5 155.5t84 111.5t130 73
t208.5 27t249 -98t116 -255q0 -104 -54 -182t-147 -113q106 -33 168 -118t62 -183q0 -177 -121 -279t-315 -102t-316.5 101.5t-122.5 261.5q0 115 61.5 201t168.5 118q-92 35 -146.5 113t-54.5 168z" />
    <glyph glyph-name="uniE029" unicode="&#xe029;" 
d="M811 653q0 125 -64.5 205t-168.5 80t-172 -72t-68 -180t63 -178t177 -70t223 109q10 57 10 106zM544 266q-190 0 -300.5 113.5t-110.5 300.5t125 310.5t318 123.5q194 0 317 -134.5t123 -348.5q0 -213 -114 -424t-331 -400h-264q329 256 453 539q-108 -80 -216 -80z" />
    <glyph glyph-name="uniE02A" unicode="&#xe02a;" 
d="M618 981q-96 0 -158.5 -43.5t-62.5 -111.5t42 -102t106.5 -58.5t138.5 -49t180.5 -89t106.5 -240.5q0 -129 -84 -217t-221 -117v-289h-179v279q-143 12 -278 82v192q158 -109 326 -108q98 0 163.5 48.5t65.5 118.5t-42 106t-106.5 61.5t-138.5 49t-180.5 86t-106.5 234.5
q0 123 81 209t216 115v288h179v-278q135 -13 247 -66v-190q-145 90 -295 90z" />
    <glyph glyph-name="uniE02B" unicode="&#xe02b;" 
d="M735 -223h-178v293q-159 36 -258.5 163t-99.5 312t99.5 312t258.5 161v295h178v-285q109 -12 213 -61v-185q-116 78 -243 78t-211 -87t-84 -228t83 -229.5t210 -88.5q126 0 245 80v-184q-106 -50 -213 -64v-282z" />
    <glyph glyph-name="uniE02C" unicode="&#xe02c;" 
d="M778 147q119 0 252 82v-182q-138 -72 -258 -72q-222 0 -364.5 124t-192.5 331h-143v139h118q-2 18 -2 23v53q0 49 2 66h-118v141h143q50 205 193 329t342 124q144 0 280 -70v-184q-129 82 -250 82t-210 -76t-130 -205h396v-141h-437q-2 -16 -2 -21v-53q0 -49 2 -68h437
v-139h-396q41 -129 130 -206t208 -77z" />
    <glyph glyph-name="uniE02D" unicode="&#xe02d;" 
d="M809 1130q-74 0 -124 -45t-73 -118l-67 -232h266v-166h-313l-115 -403h633v-166h-862v113l133 456h-121v166h168l84 289q37 129 128.5 205t205.5 76t219 -41v-183q-88 49 -162 49z" />
    <glyph glyph-name="uniE02E" unicode="&#xe02e;" 
d="M473 258h-278v145h278v148h-278v145h223l-367 586h238l289 -487l286 487h238l-367 -586h223v-145h-278v-148h278v-145h-278v-258h-207v258z" />
    <glyph glyph-name="uniE030" unicode="&#xe030;" horiz-adv-x="1183" 
d="M382 257.5q83 -110.5 211 -110.5t211 110.5t83 286.5t-81.5 286t-212.5 110t-212.5 -110t-81.5 -286t83 -286.5zM90 545q0 125 37 229.5t104.5 180t159.5 117.5t203 42t203 -42t158.5 -117.5t103.5 -180t37 -229.5t-37 -229.5t-103.5 -180.5t-158.5 -118t-203 -42
t-203 42t-159.5 118t-104.5 180.5t-37 229.5z" />
    <glyph glyph-name="uniE031" unicode="&#xe031;" horiz-adv-x="698" 
d="M537 1090v-1090h-207v870l-281 -163v188l346 195h142z" />
    <glyph glyph-name="uniE032" unicode="&#xe032;" horiz-adv-x="878" 
d="M51 133q514 405 514 595q0 97 -53 153.5t-135 56.5q-143 0 -291 -119v191q167 104 328 104t261.5 -94.5t100.5 -243.5q0 -246 -430 -604h442v-172h-737v133z" />
    <glyph glyph-name="uniE033" unicode="&#xe033;" horiz-adv-x="911" 
d="M625 168q0 94 -75 152.5t-196 58.5h-75v162h61q115 0 186.5 57.5t71.5 147.5t-61.5 142t-159.5 52q-146 0 -293 -92v188q156 78 325 78t282.5 -96t113.5 -250q0 -102 -55.5 -182t-153.5 -115q111 -37 175.5 -124t64.5 -183q0 -176 -124.5 -276.5t-305.5 -100.5t-353 84
v195q154 -106 290 -106t209 57t73 151z" />
    <glyph glyph-name="uniE034" unicode="&#xe034;" horiz-adv-x="1052" 
d="M604 299v500l-358 -500h358zM604 141h-561v133l592 816h168v-791h196v-158h-196v-334h-199v334z" />
    <glyph glyph-name="uniE035" unicode="&#xe035;" horiz-adv-x="909" 
d="M352 442q-129 0 -237 -32v680h661v-177h-481v-321q87 10 157 10t146 -28.5t160 -110t84 -261.5t-130 -299.5t-335 -119.5q-152 0 -303 76v196q145 -96 275 -96t206 69.5t76 175.5t-75 172t-204 66z" />
    <glyph glyph-name="uniE036" unicode="&#xe036;" horiz-adv-x="1056" 
d="M295 436q0 -125 64.5 -204.5t169.5 -79.5t172 70t67 180t-62.5 179.5t-177.5 69.5t-223 -108q-10 -57 -10 -107zM562 821q195 0 303 -115t108 -299t-126 -308t-319 -124t-315.5 134.5t-122.5 348.5t113.5 424t331.5 400h264q-333 -263 -453 -539q108 78 216 78z" />
    <glyph glyph-name="uniE037" unicode="&#xe037;" horiz-adv-x="845" 
d="M-2 913v177h823v-121l-485 -1162h-215l467 1106h-590z" />
    <glyph glyph-name="uniE038" unicode="&#xe038;" horiz-adv-x="1052" 
d="M313 937q0 -89 59.5 -147.5t154.5 -58.5t154.5 58.5t59.5 147.5t-58.5 146.5t-154.5 57.5t-155.5 -57.5t-59.5 -146.5zM291 355q0 -93 66.5 -154.5t171 -61.5t170 61.5t65.5 154.5t-65.5 154.5t-170 61.5t-171 -61.5t-66.5 -154.5zM119 938q0 90 29.5 155.5t84 111.5
t130 73t208.5 27t249 -98t116 -255q0 -104 -54.5 -182t-146.5 -113q106 -33 168 -118t62 -183q0 -177 -122 -279t-315 -102t-315.5 101.5t-122.5 261.5q0 115 61.5 201t167.5 118q-92 35 -146 113t-54 168z" />
    <glyph glyph-name="uniE039" unicode="&#xe039;" horiz-adv-x="1056" 
d="M764 653q0 125 -65 205t-169 80t-171.5 -72t-67.5 -180t62.5 -178t176.5 -70t224 109q10 57 10 106zM497 266q-190 0 -300.5 113.5t-110.5 300.5t125 310.5t318 123.5t316.5 -134t123.5 -348t-114 -425t-331 -400h-264q329 256 453 539q-108 -80 -216 -80z" />
    <glyph glyph-name="uniE040" unicode="&#xe040;" horiz-adv-x="765" 
d="M229 993q0 -135 41 -216t113 -81t113 81t41 216t-41 216t-113 81t-113 -81t-41 -216zM608 1304.5q88 -118.5 88 -311.5q0 -194 -88.5 -312t-225 -118t-223.5 118.5t-87 311.5q0 192 86.5 311t224 119t225.5 -118.5z" />
    <glyph glyph-name="uniE041" unicode="&#xe041;" horiz-adv-x="530" 
d="M406 1409v-831h-162v659l-201 -113v144l256 141h107z" />
    <glyph glyph-name="uniE042" unicode="&#xe042;" horiz-adv-x="636" 
d="M41 678q352 304 352 456q0 72 -39 112t-98 40q-101 0 -195 -80v150q116 67 234 67q119 0 191.5 -70.5t72.5 -174.5t-71.5 -213t-229.5 -254h309v-133h-526v100z" />
    <glyph glyph-name="uniE043" unicode="&#xe043;" horiz-adv-x="628" 
d="M195 1063h41q66 0 108.5 32.5t42.5 84.5t-35.5 82t-111.5 30t-172 -59v141q100 49 214 49t188.5 -62.5t74.5 -164.5q0 -66 -35 -117t-94 -73q68 -23 107.5 -79.5t39.5 -127.5q0 -104 -81 -170t-203 -66t-230 51v146q103 -66 185 -66t125.5 33t43.5 87t-44 89t-115 35h-49
v125z" />
    <glyph glyph-name="uniE044" unicode="&#xe044;" horiz-adv-x="712" 
d="M395 905v285l-207 -285h207zM395 782h-358v99l381 528h127v-504h125v-123h-125v-204h-150v204z" />
    <glyph glyph-name="uniE045" unicode="&#xe045;" horiz-adv-x="638" 
d="M244 979q-80 0 -152 -23v453h440v-133h-301v-184q39 6 74 6q123 0 196.5 -71t73.5 -191t-86 -196.5t-223 -76.5q-96 0 -196 47v148q92 -62 173 -62t126 40t45 102t-45 101.5t-125 39.5z" />
    <glyph glyph-name="uniE046" unicode="&#xe046;" horiz-adv-x="710" 
d="M219 844q0 -54 38 -101t98 -47t100.5 41t40.5 105t-38 103.5t-104 39.5t-129 -63q-6 -24 -6 -78zM66 883q0 277 278 526h201q-213 -164 -287 -336q61 43 135 43q117 0 187.5 -73.5t70.5 -195.5t-85 -203t-213 -81t-207.5 87.5t-79.5 232.5z" />
    <glyph glyph-name="uniE047" unicode="&#xe047;" horiz-adv-x="581" 
d="M10 1276v133h545v-90l-309 -741h-162l293 698h-367z" />
    <glyph glyph-name="uniE048" unicode="&#xe048;" horiz-adv-x="712" 
d="M231 1181q0 -52 34 -86t90 -34t91 33.5t35 85.5t-34.5 86t-90.5 34t-90.5 -33.5t-34.5 -85.5zM221 814q0 -54 37 -91t98.5 -37t99.5 37t38 91t-38 90t-99.5 36t-98.5 -36t-37 -90zM84 1192q0 104 74.5 167.5t197.5 63.5t199 -63.5t76 -167.5q0 -66 -34 -115t-93 -71
q68 -23 106.5 -78.5t38.5 -126.5q0 -106 -81 -172t-212 -66t-210.5 65.5t-79.5 172.5q0 72 37.5 127t105.5 78q-59 23 -92 71.5t-33 114.5z" />
    <glyph glyph-name="uniE049" unicode="&#xe049;" horiz-adv-x="710" 
d="M354 1290q-60 0 -99.5 -41t-39.5 -105t37 -103t102 -39t131 61q25 112 -23 169.5t-108 57.5zM315 870q-115 0 -185.5 74t-70.5 197t83 202.5t213 79.5t210 -88t80 -227q0 -281 -280 -530h-201q213 164 289 335q-66 -43 -138 -43z" />
    <glyph glyph-name="uniE04A" unicode="&#xe04a;" horiz-adv-x="704" 
d="M49 1061h236v235h135v-235h235v-135h-235v-236h-135v236h-236v135z" />
    <glyph glyph-name="uniE04B" unicode="&#xe04b;" horiz-adv-x="704" 
d="M49 1061h606v-135h-606v135z" />
    <glyph glyph-name="uniE04C" unicode="&#xe04c;" horiz-adv-x="704" 
d="M49 1188h606v-133h-606v133zM49 932h606v-133h-606v133z" />
    <glyph glyph-name="uniE04D" unicode="&#xe04d;" horiz-adv-x="430" 
d="M248 995q0 -295 184 -532h-162q-176 238 -176 530.5t176 530.5h162q-184 -234 -184 -529z" />
    <glyph glyph-name="uniE04E" unicode="&#xe04e;" horiz-adv-x="430" 
d="M184 994q0 294 -186 530h162q176 -238 176 -530t-176 -531h-162q186 237 186 531z" />
    <glyph glyph-name="uniE050" unicode="&#xe050;" horiz-adv-x="765" 
d="M229 416q0 -135 41 -216t113 -81t113 81t41 216t-41 216t-113 81t-113 -81t-41 -216zM607.5 728q88.5 -118 88.5 -312t-88 -312t-225.5 -118t-224 119t-86.5 311t87 311t223.5 119t225 -118z" />
    <glyph glyph-name="uniE051" unicode="&#xe051;" horiz-adv-x="530" 
d="M406 831v-831h-162v659l-201 -112v143l256 141h107z" />
    <glyph glyph-name="uniE052" unicode="&#xe052;" horiz-adv-x="636" 
d="M41 100q352 304 352 456q0 72 -39 112.5t-98 40.5q-101 0 -195 -80v149q117 68 235 68t190.5 -70t72.5 -174t-71.5 -213.5t-229.5 -255.5h309v-133h-526v100z" />
    <glyph glyph-name="uniE053" unicode="&#xe053;" horiz-adv-x="628" 
d="M195 485h41q66 0 108.5 33t42.5 84t-35.5 82t-111.5 31t-172 -60v142q100 49 214 49t188.5 -62.5t74.5 -165.5q0 -66 -35 -116.5t-94 -73.5q68 -23 107.5 -79t39.5 -128q0 -104 -81 -169.5t-203 -65.5t-230 51v145q103 -66 185 -66t125.5 33t43.5 87t-44 89t-115 35h-49
v125z" />
    <glyph glyph-name="uniE054" unicode="&#xe054;" horiz-adv-x="712" 
d="M395 328v284l-207 -284h207zM395 205h-358v98l381 528h127v-503h125v-123h-125v-205h-150v205z" />
    <glyph glyph-name="uniE055" unicode="&#xe055;" horiz-adv-x="638" 
d="M246 401q-78 0 -154 -22v452h440v-133h-301v-184q39 6 74 6q123 0 196.5 -70.5t73.5 -191.5t-86.5 -196.5t-202.5 -75.5t-216 47v147q92 -61 173 -61t126 40t45 102t-45 101t-123 39z" />
    <glyph glyph-name="uniE056" unicode="&#xe056;" horiz-adv-x="710" 
d="M219 266q0 -53 38 -100t98 -47t100.5 41t40.5 105t-38 103.5t-104 39.5t-129 -64q-6 -25 -6 -78zM393 539q117 0 187.5 -74t70.5 -196t-85.5 -202.5t-213.5 -80.5t-207 87.5t-79 227.5q0 283 278 530h201q-214 -164 -287 -335q61 43 135 43z" />
    <glyph glyph-name="uniE057" unicode="&#xe057;" horiz-adv-x="581" 
d="M10 698v133h545v-90l-309 -741h-162l293 698h-367z" />
    <glyph glyph-name="uniE058" unicode="&#xe058;" horiz-adv-x="712" 
d="M231 603q0 -52 34 -86t90 -34t91 34t35 86t-34.5 86t-90.5 34t-90.5 -34t-34.5 -86zM221 237q0 -54 37 -91t98.5 -37t99.5 36.5t38 90.5t-38 90t-99.5 36t-98.5 -35.5t-37 -89.5zM84 614q0 104 74.5 168t197.5 64t199 -63.5t76 -168.5q0 -66 -34 -114.5t-93 -71.5
q68 -23 106.5 -78t38.5 -127q0 -106 -81 -171.5t-212 -65.5t-210.5 65.5t-79.5 171.5q0 72 37.5 127.5t105.5 77.5q-59 23 -92 71.5t-33 114.5z" />
    <glyph glyph-name="uniE059" unicode="&#xe059;" horiz-adv-x="710" 
d="M354 713q-60 0 -99.5 -41.5t-39.5 -105.5t37 -103t102 -39t131 61q25 112 -23 170t-108 58zM645 526q0 -275 -280 -526h-201q213 164 289 336q-66 -43 -138 -43q-115 0 -185.5 73.5t-70.5 196.5t83 203t213 80t210 -88t80 -232z" />
    <glyph glyph-name="uniE05A" unicode="&#xe05a;" horiz-adv-x="704" 
d="M49 483h236v236h135v-236h235v-135h-235v-235h-135v235h-236v135z" />
    <glyph glyph-name="uniE05B" unicode="&#xe05b;" horiz-adv-x="704" 
d="M49 483h606v-135h-606v135z" />
    <glyph glyph-name="uniE05C" unicode="&#xe05c;" horiz-adv-x="704" 
d="M49 610h606v-133h-606v133zM49 354h606v-133h-606v133z" />
    <glyph glyph-name="uniE05D" unicode="&#xe05d;" horiz-adv-x="430" 
d="M248 418q0 -294 184 -533h-162q-176 238 -176 530.5t176 530.5h162q-184 -234 -184 -528z" />
    <glyph glyph-name="uniE05E" unicode="&#xe05e;" horiz-adv-x="430" 
d="M184 416q0 294 -186 530h162q176 -238 176 -530t-176 -531h-162q186 237 186 531z" />
    <glyph glyph-name="uniE060" unicode="&#xe060;" horiz-adv-x="327" 
d="M70 913q0 41 26.5 68t67.5 27t67.5 -27t26.5 -68t-26.5 -67.5t-67.5 -26.5t-67.5 26.5t-26.5 67.5z" />
    <glyph glyph-name="uniE061" unicode="&#xe061;" horiz-adv-x="327" 
d="M98 975h150l-125 -295h-129z" />
    <glyph glyph-name="uniE062" unicode="&#xe062;" horiz-adv-x="327" 
d="M70 -176q0 41 26.5 67.5t67.5 26.5t67.5 -26.5t26.5 -67.5t-26.5 -67.5t-67.5 -26.5t-67.5 26.5t-26.5 67.5z" />
    <glyph glyph-name="uniE063" unicode="&#xe063;" horiz-adv-x="327" 
d="M98 -115h150l-125 -295h-129z" />
    <glyph glyph-name="uniE064" unicode="&#xe064;" horiz-adv-x="327" 
d="M70 657q0 41 26.5 68t67.5 27t67.5 -27t26.5 -68t-26.5 -67.5t-67.5 -26.5t-67.5 26.5t-26.5 67.5z" />
    <glyph glyph-name="uniE065" unicode="&#xe065;" horiz-adv-x="327" 
d="M98 719h150l-125 -295h-129z" />
    <glyph glyph-name="uniE066" unicode="&#xe066;" horiz-adv-x="327" 
d="M70 80q0 41 26.5 67.5t67.5 26.5t67.5 -26.5t26.5 -67.5t-26.5 -67.5t-67.5 -26.5t-67.5 26.5t-26.5 67.5z" />
    <glyph glyph-name="uniE067" unicode="&#xe067;" horiz-adv-x="327" 
d="M98 141h150l-125 -295h-129z" />
    <glyph glyph-name="uniE080" unicode="&#xe080;" 
d="M299 -219q352 305 352 457q0 72 -39 111.5t-98 39.5q-101 0 -195 -80v150q116 67 234 67q119 0 191.5 -70t72.5 -174t-71.5 -213.5t-229.5 -254.5h309v-133h-526v100zM82 770h989v-131h-989v131zM700 1729v-832h-161v659l-201 -112v143l256 142h106z" />
    <glyph glyph-name="uniE081" unicode="&#xe081;" 
d="M457 166h41q66 0 108.5 32t42.5 84t-35.5 82.5t-111.5 30.5t-172 -59v141q100 49 214 49t188.5 -62.5t74.5 -164.5q0 -66 -35 -117t-94 -73q68 -23 107.5 -79.5t39.5 -127.5q0 -104 -80.5 -170t-202.5 -66t-231 51v146q103 -66 185 -66t126 33t44 87t-44 89t-116 35h-49
v125zM82 770h989v-131h-989v131zM700 1729v-832h-161v659l-201 -112v143l256 142h106z" />
    <glyph glyph-name="uniE082" unicode="&#xe082;" 
d="M457 166h41q66 0 108.5 32t42.5 84t-35.5 82.5t-111.5 30.5t-172 -59v141q100 49 214 49t188.5 -62.5t74.5 -164.5q0 -66 -35 -117t-94 -73q68 -23 107.5 -79.5t39.5 -127.5q0 -104 -80.5 -170t-202.5 -66t-231 51v146q103 -66 185 -66t126 33t44 87t-44 89t-116 35h-49
v125zM82 770h989v-131h-989v131zM299 997q352 305 352 457q0 72 -39 112t-98 40q-101 0 -195 -80v149q117 68 235 68t190.5 -70.5t72.5 -174.5t-71.5 -213t-229.5 -255h309v-133h-526v100z" />
    <glyph glyph-name="uniE083" unicode="&#xe083;" 
d="M616 8v285l-206 -285h206zM616 -115h-358v99l381 528h127v-504h125v-123h-125v-204h-150v204zM82 770h989v-131h-989v131zM700 1729v-832h-161v659l-201 -112v143l256 142h106z" />
    <glyph glyph-name="uniE084" unicode="&#xe084;" 
d="M616 8v285l-206 -285h206zM616 -115h-358v99l381 528h127v-504h125v-123h-125v-204h-150v204zM82 770h989v-131h-989v131zM457 1382h41q66 0 108.5 33t42.5 84t-35.5 82t-111.5 31t-172 -60v142q100 49 214 49t188.5 -62.5t74.5 -164.5q0 -66 -35 -117t-94 -74
q68 -23 107.5 -79t39.5 -128q0 -104 -80.5 -169.5t-202.5 -65.5t-231 51v145q103 -65 185 -65t126 33t44 87t-44 88.5t-116 34.5h-49v125z" />
    <glyph glyph-name="uniE085" unicode="&#xe085;" 
d="M502 82q-80 0 -152 -23v453h441v-133h-302v-184q39 6 74 6q123 0 197 -71t74 -191t-86.5 -196.5t-223.5 -76.5q-96 0 -196 47v148q92 -61 173 -61t126 40t45 102t-45 101t-125 39zM82 770h989v-131h-989v131zM700 1729v-832h-161v659l-201 -112v143l256 142h106z" />
    <glyph glyph-name="uniE086" unicode="&#xe086;" 
d="M502 82q-80 0 -152 -23v453h441v-133h-302v-184q39 6 74 6q123 0 197 -71t74 -191t-86.5 -196.5t-223.5 -76.5q-96 0 -196 47v148q92 -61 173 -61t126 40t45 102t-45 101t-125 39zM82 770h989v-131h-989v131zM299 997q352 305 352 457q0 72 -39 112t-98 40
q-101 0 -195 -80v149q117 68 235 68t190.5 -70.5t72.5 -174.5t-71.5 -213t-229.5 -255h309v-133h-526v100z" />
    <glyph glyph-name="uniE087" unicode="&#xe087;" 
d="M502 82q-80 0 -152 -23v453h441v-133h-302v-184q39 6 74 6q123 0 197 -71t74 -191t-86.5 -196.5t-223.5 -76.5q-96 0 -196 47v148q92 -61 173 -61t126 40t45 102t-45 101t-125 39zM82 770h989v-131h-989v131zM453 1382h41q66 0 108.5 33t42.5 84t-35.5 82t-111.5 31
t-172 -60v142q100 49 214 49t188.5 -62.5t74.5 -164.5q0 -66 -35 -117t-94 -74q68 -23 107.5 -79t39.5 -128q0 -104 -81 -169.5t-203 -65.5t-230 51v145q103 -65 185 -65t126 33t44 87t-44.5 88.5t-115.5 34.5h-49v125z" />
    <glyph glyph-name="uniE088" unicode="&#xe088;" 
d="M502 82q-80 0 -152 -23v453h441v-133h-302v-184q39 6 74 6q123 0 197 -71t74 -191t-86.5 -196.5t-223.5 -76.5q-96 0 -196 47v148q92 -61 173 -61t126 40t45 102t-45 101t-125 39zM82 770h989v-131h-989v131zM616 1225v284l-206 -284h206zM616 1102h-358v98l381 529h127
v-504h125v-123h-125v-205h-150v205z" />
    <glyph glyph-name="uniE089" unicode="&#xe089;" 
d="M440 -54q0 -54 38 -100.5t98 -46.5t100.5 41.5t40.5 105.5t-38 103t-104 39t-129 -63q-6 -25 -6 -79zM287 -14q0 277 278 526h201q-213 -164 -287 -336q61 43 135 43q117 0 187.5 -73.5t70.5 -195.5t-84.5 -203t-213.5 -81t-208 88.5t-79 231.5zM82 770h989v-131h-989
v131zM700 1729v-832h-161v659l-201 -112v143l256 142h106z" />
    <glyph glyph-name="uniE08A" unicode="&#xe08a;" 
d="M440 -54q0 -54 38 -100.5t98 -46.5t100.5 41.5t40.5 105.5t-38 103t-104 39t-129 -63q-6 -25 -6 -79zM287 -14q0 277 278 526h201q-213 -164 -287 -336q61 43 135 43q117 0 187.5 -73.5t70.5 -195.5t-84.5 -203t-213.5 -81t-208 88.5t-79 231.5zM82 770h989v-131h-989
v131zM504 1298q-78 0 -154 -22v453h441v-134h-302v-184q39 6 74 6q123 0 197 -70.5t74 -190.5t-87 -196.5t-203 -76.5t-216 47v147q92 -61 173 -61t126 40t45 102t-45 101t-123 39z" />
    <glyph glyph-name="uniE08B" unicode="&#xe08b;" 
d="M453 284q0 -52 33.5 -86t89.5 -34t91 34t35 86t-34.5 85.5t-90.5 33.5t-90 -33.5t-34 -85.5zM442 -83q0 -54 37 -91t98.5 -37t99.5 37t38 91t-38 90t-99.5 36t-98.5 -36t-37 -90zM305 295q0 104 75 167.5t197.5 63.5t198.5 -63.5t76 -167.5q0 -66 -34 -115t-93 -71
q68 -23 106.5 -78.5t38.5 -126.5q0 -106 -80.5 -172t-212 -66t-211 65.5t-79.5 172.5q0 72 37.5 127t105.5 78q-59 23 -92 71.5t-33 114.5zM82 770h989v-131h-989v131zM700 1729v-832h-161v659l-201 -112v143l256 142h106z" />
    <glyph glyph-name="uniE08C" unicode="&#xe08c;" 
d="M453 284q0 -52 33.5 -86t89.5 -34t91 34t35 86t-34.5 85.5t-90.5 33.5t-90 -33.5t-34 -85.5zM442 -83q0 -54 37 -91t98.5 -37t99.5 37t38 91t-38 90t-99.5 36t-98.5 -36t-37 -90zM305 295q0 104 75 167.5t197.5 63.5t198.5 -63.5t76 -167.5q0 -66 -34 -115t-93 -71
q68 -23 106.5 -78.5t38.5 -126.5q0 -106 -80.5 -172t-212 -66t-211 65.5t-79.5 172.5q0 72 37.5 127t105.5 78q-59 23 -92 71.5t-33 114.5zM82 770h989v-131h-989v131zM453 1382h41q66 0 108.5 33t42.5 84t-35.5 82t-111.5 31t-172 -60v142q100 49 214 49t188.5 -62.5
t74.5 -164.5q0 -66 -35 -117t-94 -74q68 -23 107.5 -79t39.5 -128q0 -104 -81 -169.5t-203 -65.5t-230 51v145q103 -65 185 -65t126 33t44 87t-44.5 88.5t-115.5 34.5h-49v125z" />
    <glyph glyph-name="uniE08D" unicode="&#xe08d;" 
d="M453 284q0 -52 33.5 -86t89.5 -34t91 34t35 86t-34.5 85.5t-90.5 33.5t-90 -33.5t-34 -85.5zM442 -83q0 -54 37 -91t98.5 -37t99.5 37t38 91t-38 90t-99.5 36t-98.5 -36t-37 -90zM305 295q0 104 75 167.5t197.5 63.5t198.5 -63.5t76 -167.5q0 -66 -34 -115t-93 -71
q68 -23 106.5 -78.5t38.5 -126.5q0 -106 -80.5 -172t-212 -66t-211 65.5t-79.5 172.5q0 72 37.5 127t105.5 78q-59 23 -92 71.5t-33 114.5zM82 770h989v-131h-989v131zM504 1298q-78 0 -154 -22v453h441v-134h-302v-184q39 6 74 6q123 0 197 -70.5t74 -190.5t-87 -196.5
t-203 -76.5t-216 47v147q92 -61 173 -61t126 40t45 102t-45 101t-123 39z" />
    <glyph glyph-name="uniE08E" unicode="&#xe08e;" 
d="M453 284q0 -52 33.5 -86t89.5 -34t91 34t35 86t-34.5 85.5t-90.5 33.5t-90 -33.5t-34 -85.5zM442 -83q0 -54 37 -91t98.5 -37t99.5 37t38 91t-38 90t-99.5 36t-98.5 -36t-37 -90zM305 295q0 104 75 167.5t197.5 63.5t198.5 -63.5t76 -167.5q0 -66 -34 -115t-93 -71
q68 -23 106.5 -78.5t38.5 -126.5q0 -106 -80.5 -172t-212 -66t-211 65.5t-79.5 172.5q0 72 37.5 127t105.5 78q-59 23 -92 71.5t-33 114.5zM82 770h989v-131h-989v131zM297 1595v134h545v-91l-310 -741h-161l293 698h-367z" />
    <glyph glyph-name="uniE08F" unicode="&#xe08f;" 
d="M82 770h989v-131h-989v131zM700 1729v-832h-161v659l-201 -112v143l256 142h106z" />
    <glyph glyph-name="uniE100" unicode="&#xe100;" horiz-adv-x="825" 
d="M293 895h239l-118 313zM344 1409h137l328 -831h-156l-75 196h-330l-74 -196h-158z" />
    <glyph glyph-name="uniE101" unicode="&#xe101;" horiz-adv-x="784" 
d="M563 1006q150 -48 150 -218q0 -86 -71 -148t-185 -62h-336v831h315q111 0 179.5 -62.5t68.5 -160.5q0 -61 -31.5 -109.5t-89.5 -70.5zM272 1061h136q55 0 88.5 30.5t33.5 80.5t-33.5 81t-88.5 31h-136v-223zM272 700h154q59 0 94 33t35 86t-35 87t-94 34h-154v-240z" />
    <glyph glyph-name="uniE102" unicode="&#xe102;" horiz-adv-x="782" 
d="M493 563q-108 0 -184 32t-130 89t-83.5 136t-29.5 220.5t113 262t296 120.5q121 0 240 -59v-145q-111 69 -223 69t-187.5 -82t-75.5 -212t76 -214t188 -84q113 0 222 72v-145q-114 -60 -222 -60z" />
    <glyph glyph-name="uniE103" unicode="&#xe103;" horiz-adv-x="897" 
d="M281 709h133q113 0 183.5 78.5t70.5 205.5t-71 206t-183 79h-133v-569zM121 1409h301q181 0 295 -117.5t114 -298t-114 -298t-295 -117.5h-301v831z" />
    <glyph glyph-name="uniE104" unicode="&#xe104;" horiz-adv-x="706" 
d="M121 1409h506v-131h-346v-213h299v-129h-299v-227h354v-131h-514v831z" />
    <glyph glyph-name="uniE105" unicode="&#xe105;" horiz-adv-x="677" 
d="M121 1409h506v-131h-346v-240h299v-133h-299v-327h-160v831z" />
    <glyph glyph-name="uniE106" unicode="&#xe106;" horiz-adv-x="868" 
d="M743 1208q-121 84 -240 84t-197.5 -83t-78.5 -216t76 -216t197 -83q61 0 127 27v184h-176v121h325v-395q-139 -68 -306 -68t-285.5 120t-118.5 309.5t116.5 310t302.5 120.5q127 0 258 -65v-150z" />
    <glyph glyph-name="uniE107" unicode="&#xe107;" horiz-adv-x="944" 
d="M121 1409h160v-344h383v344h159v-831h-159v356h-383v-356h-160v831z" />
    <glyph glyph-name="uniE108" unicode="&#xe108;" horiz-adv-x="401" 
d="M121 1409h160v-831h-160v831z" />
    <glyph glyph-name="uniE109" unicode="&#xe109;" horiz-adv-x="600" 
d="M485 813q0 -110 -73.5 -180t-170.5 -70q-98 0 -186 37v135q72 -39 131.5 -39t98.5 38t39 97v578h161v-596z" />
    <glyph glyph-name="uniE10A" unicode="&#xe10a;" horiz-adv-x="806" 
d="M121 1409h155v-344l316 344h190l-368 -410l381 -421h-195l-324 358v-358h-155v831z" />
    <glyph glyph-name="uniE10B" unicode="&#xe10b;" horiz-adv-x="647" 
d="M121 1409h160v-700h331v-131h-491v831z" />
    <glyph glyph-name="uniE10C" unicode="&#xe10c;" horiz-adv-x="1050" 
d="M121 1409h139l264 -371l267 371h139v-831h-150v575l-207 -289h-96l-207 289v-575h-149v831z" />
    <glyph glyph-name="uniE10D" unicode="&#xe10d;" horiz-adv-x="944" 
d="M121 1409h139l414 -578v578h149v-831h-139l-414 575v-575h-149v831z" />
    <glyph glyph-name="uniE10E" unicode="&#xe10e;" horiz-adv-x="944" 
d="M229 993q0 -131 67.5 -214t175.5 -83t175.5 83t67.5 214t-67.5 213t-175.5 82t-175.5 -82t-67.5 -213zM178 1303.5q112 119.5 292.5 119.5t295.5 -120.5t115 -309.5t-116 -309.5t-294.5 -120.5t-291.5 119t-113 311q0 191 112 310.5z" />
    <glyph glyph-name="uniE10F" unicode="&#xe10f;" horiz-adv-x="761" 
d="M276 1001h117q68 0 111 39.5t43 101.5t-43 100t-111 38h-117v-279zM121 1409h295q128 0 209.5 -75.5t81.5 -191.5q0 -117 -81.5 -192.5t-209.5 -75.5h-140v-296h-155v831z" />
    <glyph glyph-name="uniE110" unicode="&#xe110;" horiz-adv-x="944" 
d="M229 993q0 -131 67.5 -214t175.5 -83t175.5 83t67.5 214t-67.5 213t-175.5 82t-175.5 -82t-67.5 -213zM881 993q0 -233 -166 -354l168 -186h-185l-108 127q-154 -40 -294.5 20t-185 178.5t-44.5 213.5t29.5 175t82.5 136.5t128 88t210 31.5t250 -120.5t115 -309.5z" />
    <glyph glyph-name="uniE111" unicode="&#xe111;" horiz-adv-x="784" 
d="M121 1409h291q127 0 206.5 -72.5t79.5 -174.5q0 -195 -168 -257l197 -327h-174l-178 307h-99v-307h-155v831zM276 1010h113q66 0 107 38.5t41 98t-41 97.5t-107 38h-113v-272z" />
    <glyph glyph-name="uniE112" unicode="&#xe112;" horiz-adv-x="698" 
d="M381 1294q-68 0 -109 -30.5t-41 -75.5t30 -68.5t75 -40t172 -57t127 -211.5q0 -111 -85.5 -179.5t-214.5 -68.5q-128 0 -247 55v146q113 -74 231 -74q70 0 112 33t42 81t-29.5 71.5t-74.5 41t-171 58t-126 200.5q0 116 82 182t202 66t238 -45v-145q-98 61 -213 61z" />
    <glyph glyph-name="uniE113" unicode="&#xe113;" horiz-adv-x="751" 
d="M295 1278h-252v131h666v-131h-252v-700h-162v700z" />
    <glyph glyph-name="uniE114" unicode="&#xe114;" horiz-adv-x="944" 
d="M829 887q0 -144 -100.5 -234t-258 -90t-256.5 90.5t-99 233.5v522h161v-510q0 -90 54.5 -146.5t141.5 -56.5t141.5 56.5t54.5 146.5v510h161v-522z" />
    <glyph glyph-name="uniE115" unicode="&#xe115;" horiz-adv-x="825" 
d="M481 578h-137l-328 831h166l232 -612l231 612h164z" />
    <glyph glyph-name="uniE116" unicode="&#xe116;" horiz-adv-x="1294" 
d="M987 578h-145l-195 628l-196 -628h-144l-284 831h161l197 -629l192 629h146l196 -629l195 629h162z" />
    <glyph glyph-name="uniE117" unicode="&#xe117;" horiz-adv-x="835" 
d="M322 999l-285 410h184l197 -295l194 295h185l-285 -410l295 -421h-189l-200 309l-203 -309h-188z" />
    <glyph glyph-name="uniE118" unicode="&#xe118;" horiz-adv-x="778" 
d="M469 578h-160v348l-297 483h183l194 -334l195 334h182l-297 -483v-348z" />
    <glyph glyph-name="uniE119" unicode="&#xe119;" horiz-adv-x="788" 
d="M84 1278v131h623v-96l-443 -604h453v-131h-658v94l445 606h-420z" />
    <glyph glyph-name="uniE11A" unicode="&#xe11a;" horiz-adv-x="890" 
d="M49 446h791v-122h-791v122zM326 895h237l-119 313zM377 1409h137l328 -831h-158l-74 196h-331l-72 -196h-158z" />
    <glyph glyph-name="uniE11B" unicode="&#xe11b;" horiz-adv-x="944" 
d="M82 446h780v-122h-780v122zM229 993q0 -131 67.5 -214t175.5 -83t175.5 83t67.5 214t-67.5 213t-175.5 82t-175.5 -82t-67.5 -213zM178 1303.5q112 119.5 292.5 119.5t295.5 -120.5t115 -309.5t-116 -309.5t-294.5 -120.5t-291.5 119t-113 311q0 191 112 310.5z" />
    <glyph glyph-name="uniE11C" unicode="&#xe11c;" horiz-adv-x="1024" 
d="M358 1233h170q74 0 120 -43t46 -109q0 -100 -94 -139l111 -188h-105l-100 174h-53v-174h-95v479zM453 1006h61q37 0 59.5 20t22.5 54t-22.5 55.5t-59.5 21.5h-61v-151zM158 993q0 -78 26.5 -143.5t73.5 -112.5t111.5 -72.5t142.5 -25.5t143.5 25.5t112.5 72.5t73.5 112.5
t26.5 143.5t-26.5 142.5t-73.5 111.5t-112.5 74t-143.5 27t-142.5 -27t-111.5 -74t-73.5 -111.5t-26.5 -142.5zM72 993.5q0 96.5 32.5 177t91 139t139.5 91.5t177 33t177 -33t139.5 -91.5t91 -139t32.5 -177t-32.5 -177.5t-91 -139.5t-139.5 -91t-177 -32.5t-177 32.5
t-139.5 91t-91 139.5t-32.5 177.5z" />
    <glyph glyph-name="uniE120" unicode="&#xe120;" horiz-adv-x="696" 
d="M213 776q0 -45 27.5 -70.5t72.5 -25.5q72 0 136 68v129q-18 4 -23 4h-51q-72 0 -117 -30t-45 -75zM268 561q-96 0 -152.5 52.5t-56.5 144.5t85 154.5t223 62.5h31q30 0 51 -2v35q0 47 -34 76.5t-89 29.5q-100 0 -211 -63v129q119 53 231 53t182 -64.5t70 -169.5v-421
h-149v53q-85 -70 -181 -70z" />
    <glyph glyph-name="uniE121" unicode="&#xe121;" horiz-adv-x="774" 
d="M555 897q0 90 -46 146.5t-118 56.5t-133 -62v-282q63 -64 134 -64t117 57.5t46 147.5zM104 1497h154v-326q80 61 156 61t128 -24t90 -69t59.5 -106.5t21.5 -171.5t-80 -205t-207 -95q-88 0 -168 62v-45h-154v919z" />
    <glyph glyph-name="uniE122" unicode="&#xe122;" horiz-adv-x="643" 
d="M59 897q0 145 91.5 240.5t236.5 95.5q90 0 191 -45v-141q-84 55 -167 55t-137.5 -56.5t-54.5 -148.5t54.5 -148.5t137.5 -56.5t167 53v-139q-100 -45 -182 -45t-141.5 24.5t-127.5 95.5t-68 216z" />
    <glyph glyph-name="uniE123" unicode="&#xe123;" horiz-adv-x="774" 
d="M219 897q0 -90 45 -147.5t116 -57.5t134 64v282q-61 61 -133 61.5t-117 -56t-45 -146.5zM670 578h-156v45q-80 -61 -154 -61t-128 24t-92 69t-59.5 106.5t-21.5 171.5t80 205t209 95q86 0 166 -62v326h156v-919z" />
    <glyph glyph-name="uniE124" unicode="&#xe124;" horiz-adv-x="704" 
d="M364 1114q-60 0 -102.5 -44t-48.5 -116h289q-4 72 -41 116t-97 44zM651 934q0 -46 -4 -78h-434q8 -78 62.5 -127t139.5 -49t187 63v-131q-113 -51 -200 -51t-147 25.5t-103 70.5t-68 107.5t-25 172t87.5 203t218.5 93.5q132 0 188.5 -66.5t77 -126.5t20.5 -106z" />
    <glyph glyph-name="uniE125" unicode="&#xe125;" horiz-adv-x="501" 
d="M147 1092h-110v125h110v94q0 88 59.5 145t135.5 57t150 -28v-129q-48 26 -92 26t-71.5 -25.5t-27.5 -66.5v-73h168v-125h-168v-514h-154v514z" />
    <glyph glyph-name="uniE126" unicode="&#xe126;" horiz-adv-x="774" 
d="M219 897q0 -90 45 -147.5t116 -57.5t134 64v282q-61 61 -133 61.5t-117 -56t-45 -146.5zM670 582q0 -132 -90.5 -216.5t-219.5 -84.5t-239 49v137q109 -63 200 -63t142 48t51 126v45q-80 -61 -154 -61t-128 24t-92 69t-59.5 106.5t-21.5 171.5t80 205t209 95
q86 0 166 -62v46h156v-635z" />
    <glyph glyph-name="uniE127" unicode="&#xe127;" horiz-adv-x="774" 
d="M104 1497h154v-338q92 74 190.5 74t162 -63.5t63.5 -165.5v-426h-156v399q0 51 -31.5 85t-96.5 34t-132 -70v-448h-154v919z" />
    <glyph glyph-name="uniE128" unicode="&#xe128;" horiz-adv-x="360" 
d="M92 1394q0 40 24.5 65.5t64.5 25.5t64.5 -25.5t24.5 -65.5t-24.5 -64.5t-64.5 -24.5t-64.5 24.5t-24.5 64.5zM104 1217h154v-639h-154v639z" />
    <glyph glyph-name="uniE129" unicode="&#xe129;" horiz-adv-x="360" 
d="M258 483q0 -90 -59 -146t-135 -56t-150 28v129q47 -26 91 -26t71.5 25.5t27.5 66.5v713h154v-734zM92 1394q0 40 24.5 65.5t64.5 25.5t64.5 -25.5t24.5 -65.5t-24.5 -64.5t-64.5 -24.5t-64.5 24.5t-24.5 64.5z" />
    <glyph glyph-name="uniE12A" unicode="&#xe12a;" horiz-adv-x="677" 
d="M104 1497h150v-528l213 248h180l-266 -316l276 -323h-184l-219 258v-258h-150v919z" />
    <glyph glyph-name="uniE12B" unicode="&#xe12b;" horiz-adv-x="360" 
d="M104 1497h154v-919h-154v919z" />
    <glyph glyph-name="uniE12C" unicode="&#xe12c;" horiz-adv-x="1146" 
d="M104 1217h154v-54q84 70 194 70t171 -98q97 98 203 98t164.5 -63.5t58.5 -161.5v-430h-156v407q0 47 -28.5 79t-88.5 32t-123 -68v-450h-155v407q0 47 -29 79t-87 32t-124 -68v-450h-154v639z" />
    <glyph glyph-name="uniE12D" unicode="&#xe12d;" horiz-adv-x="774" 
d="M104 1217h154v-58q92 74 190.5 74t162 -63.5t63.5 -165.5v-426h-156v399q0 51 -31.5 85t-96.5 34t-132 -70v-448h-154v639z" />
    <glyph glyph-name="uniE12E" unicode="&#xe12e;" horiz-adv-x="774" 
d="M219 897q0 -92 46 -148.5t121 -56.5t122 56.5t47 148.5t-47 148.5t-122 56.5t-121 -56.5t-46 -148.5zM59 897q0 145 91.5 240.5t236.5 95.5q146 0 236 -94t90 -242t-90 -242t-236 -94t-237 95.5t-91 240.5z" />
    <glyph glyph-name="uniE12F" unicode="&#xe12f;" horiz-adv-x="774" 
d="M555 897q0 90 -46 146.5t-118 56.5t-133 -62v-282q63 -64 134 -64t117 57.5t46 147.5zM104 1217h154v-46q80 61 156 61t128 -24t90 -69t59.5 -106.5t21.5 -171.5t-80 -205t-207 -95q-88 0 -168 62v-326h-154v920z" />
    <glyph glyph-name="uniE130" unicode="&#xe130;" horiz-adv-x="774" 
d="M219 897q0 -90 45 -147.5t116 -57.5t134 64v282q-61 61 -133 61.5t-117 -56t-45 -146.5zM670 297h-156v326q-80 -61 -154 -61t-128 24t-92 69t-59.5 106.5t-21.5 171.5t80 205t209 95q86 0 166 -62v46h156v-920z" />
    <glyph glyph-name="uniE131" unicode="&#xe131;" horiz-adv-x="520" 
d="M414 1096q-88 0 -156 -86v-432h-154v639h154v-66q72 82 162 82q25 0 53 -8v-138q-32 9 -59 9z" />
    <glyph glyph-name="uniE132" unicode="&#xe132;" horiz-adv-x="579" 
d="M292 1233q93 0 195 -39v-135q-89 51 -151 51t-89.5 -20.5t-27.5 -49.5t22.5 -44t55.5 -26.5t128 -40t95 -162.5q0 -95 -69 -150.5t-171 -55.5t-202 45v137q94 -59 184 -59q47 0 75 20.5t28 52.5t-23 47t-55.5 27.5t-71.5 24.5t-94 48.5t-55 127.5q0 92 66.5 146.5
t159.5 54.5z" />
    <glyph glyph-name="uniE133" unicode="&#xe133;" horiz-adv-x="552" 
d="M358 561q-92 0 -151.5 56.5t-59.5 146.5v328h-110v125h110v180h154v-180h191v-125h-191v-308q0 -41 27.5 -66.5t70.5 -25.5t93 25v-129q-79 -27 -134 -27z" />
    <glyph glyph-name="uniE134" unicode="&#xe134;" horiz-adv-x="774" 
d="M670 578h-156v57q-86 -74 -187 -74t-165 63.5t-64 166.5v426h156v-400q0 -51 31.5 -86t97.5 -35t131 72v449h156v-639z" />
    <glyph glyph-name="uniE135" unicode="&#xe135;" horiz-adv-x="684" 
d="M408 578h-132l-251 639h157l158 -433l160 433h159z" />
    <glyph glyph-name="uniE136" unicode="&#xe136;" horiz-adv-x="1042" 
d="M795 578h-140l-135 446l-133 -446h-139l-219 639h153l135 -447l134 447h139l135 -447l135 447h154z" />
    <glyph glyph-name="uniE137" unicode="&#xe137;" horiz-adv-x="696" 
d="M254 901l-215 316h174l135 -203l133 203h174l-215 -316l226 -323h-181l-137 213l-139 -213h-178z" />
    <glyph glyph-name="uniE138" unicode="&#xe138;" horiz-adv-x="684" 
d="M297 297h-150l119 301l-241 619h157l158 -433l160 433h159z" />
    <glyph glyph-name="uniE139" unicode="&#xe139;" horiz-adv-x="649" 
d="M78 1092v125h491v-91l-309 -424h318v-124h-517v90l312 424h-295z" />
    <glyph glyph-name="uniE13A" unicode="&#xe13a;" horiz-adv-x="774" 
d="M219 897q0 -90 45 -147.5t116 -57.5t134 64v282q-61 61 -133 61.5t-117 -56t-45 -146.5zM670 578h-156v45q-80 -61 -154 -61t-128 24t-92 69t-59.5 106.5t-21.5 171.5t80 205t209 95q86 0 166 -62v46h156v-639z" />
    <glyph glyph-name="uniE13B" unicode="&#xe13b;" horiz-adv-x="430" 
d="M277 561q-68 0 -120.5 51.5t-52.5 132.5v752h154v-731q0 -35 20.5 -54.5t57.5 -19.5t70 17v-127q-61 -21 -129 -21z" />
    <glyph glyph-name="uniE13C" unicode="&#xe13c;" horiz-adv-x="774" 
d="M670 582q0 -132 -90.5 -216.5t-219.5 -84.5t-239 49v137q109 -63 200 -63t142 48t51 126v57q-86 -74 -187 -74t-165 63.5t-64 166.5v426h156v-400q0 -51 31.5 -86t97.5 -35t131 72v449h156v-635z" />
    <glyph glyph-name="uniE13D" unicode="&#xe13d;" horiz-adv-x="774" 
d="M82 637h610v-121h-610v121zM219 1089.5q0 -90.5 45 -147.5t115 -57t135 61v285q-61 61 -133 61t-117 -56t-45 -146.5zM670 768h-156v47q-78 -61 -154 -61t-129 24.5t-91 68.5t-59.5 106.5t-21.5 172t80 204.5t209 95q86 0 166 -63v47h156v-641z" />
    <glyph glyph-name="uniE200" unicode="&#xe200;" horiz-adv-x="1083" 
d="M381 412h324l-162 419zM455 1090h176l428 -1090h-201l-100 260h-432l-101 -260h-200z" />
    <glyph glyph-name="uniE201" unicode="&#xe201;" horiz-adv-x="1032" 
d="M162 1090h413q142 0 233 -82.5t91 -208.5q0 -84 -43 -148.5t-115 -93.5q90 -31 142.5 -99.5t52.5 -146.5q0 -143 -92 -227t-242 -84h-440v1090zM358 627h179q74 0 119.5 42.5t45.5 110.5t-46 111t-119 43h-179v-307zM358 156h201q82 0 129 45t47 116.5t-47 115.5t-129 44
h-201v-321z" />
    <glyph glyph-name="uniE202" unicode="&#xe202;" horiz-adv-x="1030" 
d="M239.5 953.5q149.5 160.5 385.5 160.5q157 0 313 -80v-184q-139 90 -287 90t-249 -111.5t-101 -285.5t101.5 -285t246.5 -111t289 93v-187q-160 -78 -295 -78t-233.5 42t-209 161t-110.5 367t149.5 408.5z" />
    <glyph glyph-name="uniE203" unicode="&#xe203;" horiz-adv-x="1179" 
d="M369 166h174q150 0 243 106.5t93 272.5t-93.5 272.5t-242.5 106.5h-174v-758zM162 1090h393q235 0 385 -154t150 -392t-150 -391t-385 -153h-393v1090z" />
    <glyph glyph-name="uniE204" unicode="&#xe204;" horiz-adv-x="931" 
d="M162 1090h659v-162h-456v-299h395v-154h-395v-313h469v-162h-672v1090z" />
    <glyph glyph-name="uniE205" unicode="&#xe205;" horiz-adv-x="894" 
d="M162 1090h659v-162h-456v-330h395v-160h-395v-438h-203v1090z" />
    <glyph glyph-name="uniE206" unicode="&#xe206;" horiz-adv-x="1140" 
d="M668 -25q-150 0 -251.5 42t-174 118t-112.5 180.5t-40 292.5t153 347t394 159q168 0 338 -88v-190q-159 108 -314 108t-259.5 -112.5t-104.5 -287.5t100 -288t258 -113q80 0 170 35v254h-233v156h428v-525q-202 -88 -352 -88z" />
    <glyph glyph-name="uniE207" unicode="&#xe207;" horiz-adv-x="1245" 
d="M162 1090h207v-455h508v455h204v-1090h-204v469h-508v-469h-207v1090z" />
    <glyph glyph-name="uniE208" unicode="&#xe208;" horiz-adv-x="530" 
d="M162 1090h207v-1090h-207v1090z" />
    <glyph glyph-name="uniE209" unicode="&#xe209;" horiz-adv-x="790" 
d="M637 305q0 -142 -96 -236t-227 -94q-130 0 -236 50v176q90 -53 170 -53t132 51t52 129v762h205v-785z" />
    <glyph glyph-name="uniE20A" unicode="&#xe20a;" horiz-adv-x="1060" 
d="M162 1090h203v-455l413 455h244l-481 -537l495 -553h-248l-423 469v-469h-203v1090z" />
    <glyph glyph-name="uniE20B" unicode="&#xe20b;" horiz-adv-x="856" 
d="M162 1090h207v-924h434v-166h-641v1090z" />
    <glyph glyph-name="uniE20C" unicode="&#xe20c;" horiz-adv-x="1380" 
d="M162 1090h180l348 -484l348 484h181v-1090h-193v760l-274 -385h-123l-275 385v-760h-192v1090z" />
    <glyph glyph-name="uniE20D" unicode="&#xe20d;" horiz-adv-x="1245" 
d="M162 1090h180l547 -760v760h192v-1090h-180l-547 760v-760h-192v1090z" />
    <glyph glyph-name="uniE20E" unicode="&#xe20e;" horiz-adv-x="1245" 
d="M392.5 257.5q91.5 -110.5 230.5 -110.5q140 0 229.5 111t89.5 285t-89 285.5t-230 111.5t-231.5 -110.5t-90.5 -286.5q0 -175 91.5 -285.5zM90 545q0 125 39 229.5t109.5 180t169 117.5t215 42t215 -42t169 -117.5t109.5 -180t39 -229.5t-39 -229.5t-109.5 -180.5
t-169 -118t-215 -42t-215 42t-169 118t-109.5 180.5t-39 229.5z" />
    <glyph glyph-name="uniE20F" unicode="&#xe20f;" horiz-adv-x="1003" 
d="M362 551h156q92 0 148.5 52t56.5 137t-56.5 137.5t-148.5 52.5h-156v-379zM162 1090h385q166 0 273.5 -98.5t107.5 -249.5t-106.5 -250t-274.5 -99h-185v-393h-200v1090z" />
    <glyph glyph-name="uniE210" unicode="&#xe210;" horiz-adv-x="1245" 
d="M850.5 258q89.5 111 89.5 285t-89 285.5t-229 111.5t-230.5 -110.5t-90.5 -286.5q0 -175 91.5 -285.5t230 -110.5t228 111zM90 545q0 125 39 229.5t109.5 180t169 117.5t274.5 42t324.5 -159.5t148.5 -409.5q0 -154 -58.5 -277t-162.5 -194l217 -242h-236l-147 168
q-68 -25 -165 -25t-195.5 42t-169 118t-109.5 180.5t-39 229.5z" />
    <glyph glyph-name="uniE211" unicode="&#xe211;" horiz-adv-x="1030" 
d="M162 1090h379q164 0 269 -96.5t105 -248.5q0 -111 -58 -191.5t-163 -121.5l256 -432h-217l-235 406h-136v-406h-200v1090zM362 563h150q88 0 143.5 51.5t55.5 133.5t-55.5 132t-143.5 50h-150v-367z" />
    <glyph glyph-name="uniE212" unicode="&#xe212;" horiz-adv-x="921" 
d="M424 139q90 0 146.5 45.5t56.5 109.5t-39 96t-98.5 56.5t-127 46t-127 58.5t-98.5 93t-39 138q0 149 106.5 240.5t265.5 91.5q160 0 308 -65v-185q-139 84 -276 84q-88 0 -143.5 -42t-55.5 -101t39 -90t98.5 -54.5t127 -46t165.5 -83.5t98 -215t-110 -247.5t-269 -93.5
t-329 76v193q165 -105 301 -105z" />
    <glyph glyph-name="uniE213" unicode="&#xe213;" horiz-adv-x="989" 
d="M391 924h-332v166h869v-166h-330v-924h-207v924z" />
    <glyph glyph-name="uniE214" unicode="&#xe214;" horiz-adv-x="1245" 
d="M1090 401q0 -185 -131.5 -305.5t-336 -120.5t-335.5 120t-131 306v689h204v-672q0 -121 73 -196t189.5 -75t189.5 75t73 196v672h205v-689z" />
    <glyph glyph-name="uniE215" unicode="&#xe215;" horiz-adv-x="1083" 
d="M631 0h-176l-430 1090h211l307 -807l305 807h211z" />
    <glyph glyph-name="uniE216" unicode="&#xe216;" horiz-adv-x="1695" 
d="M1292 0h-184l-260 827l-260 -827h-185l-370 1090h205l258 -830l260 830h184l260 -830l258 830h205z" />
    <glyph glyph-name="uniE217" unicode="&#xe217;" horiz-adv-x="1095" 
d="M426 553l-381 537h236l266 -392l270 392h234l-381 -537l397 -553h-242l-278 408l-277 -408h-241z" />
    <glyph glyph-name="uniE218" unicode="&#xe218;" horiz-adv-x="1021" 
d="M614 0h-206v459l-390 631h236l258 -441l256 441h238l-392 -631v-459z" />
    <glyph glyph-name="uniE219" unicode="&#xe219;" horiz-adv-x="1038" 
d="M115 924v166h813v-123l-588 -801h600v-166h-856v123l586 801h-555z" />
    <glyph glyph-name="uniE21A" unicode="&#xe21a;" horiz-adv-x="1083" 
d="M381 412h324l-162 419zM455 1090h176l428 -1090h-201l-100 260h-432l-101 -260h-200zM244 1536h205l215 -315h-172z" />
    <glyph glyph-name="uniE21B" unicode="&#xe21b;" horiz-adv-x="1083" 
d="M381 412h324l-162 419zM455 1090h176l428 -1090h-201l-100 260h-432l-101 -260h-200zM633 1536h205l-248 -315h-172z" />
    <glyph glyph-name="uniE21C" unicode="&#xe21c;" horiz-adv-x="1083" 
d="M381 412h324l-162 419zM455 1090h176l428 -1090h-201l-100 260h-432l-101 -260h-200zM451 1536h180l215 -315h-162l-143 184l-142 -184h-163z" />
    <glyph glyph-name="uniE21D" unicode="&#xe21d;" horiz-adv-x="1083" 
d="M381 412h324l-162 419zM455 1090h176l428 -1090h-201l-100 260h-432l-101 -260h-200zM213 1274q0 104 55 168t130 63q75 0 154 -58q30 -22 56 -39t56 -17q30 -1 52 25t21 67h131q0 -102 -54 -167t-130 -65t-153 57q-31 22 -57 40t-56 18t-52 -26t-22 -66h-131z" />
    <glyph glyph-name="uniE21E" unicode="&#xe21e;" horiz-adv-x="1083" 
d="M381 412h324l-162 419zM455 1090h176l428 -1090h-201l-100 260h-432l-101 -260h-200zM211 1378q0 53 33 86t86 33t86 -33t33 -86t-33 -86q-33 -32 -86 -32t-86 32t-33 86zM635 1378q0 53 32 86t85 33t86 -33q32 -33 32 -86t-32 -86q-32 -32 -86 -32q-53 0 -85 32t-32 86z
" />
    <glyph glyph-name="uniE21F" unicode="&#xe21f;" horiz-adv-x="1083" 
d="M381 412h324l-162 419zM455 1090h176l428 -1090h-201l-100 260h-432l-101 -260h-200zM436 1378q0 -48 29 -76t76 -28t75 29t29 75q0 46 -29 76q-30 29 -76 29t-75 -29t-29 -76zM336 1378q0 92 56 150t148 57q92 0 150 -57q58 -58 58 -150t-58 -148t-149 -56
q-92 0 -149 56q-56 56 -56 148z" />
    <glyph glyph-name="uniE221" unicode="&#xe221;" horiz-adv-x="1083" 
d="M381 412h324l-162 419zM455 1090h176l428 -1090h-201l-100 260h-432l-101 -260h-200zM217 1452h647v-145h-647v145z" />
    <glyph glyph-name="uniE222" unicode="&#xe222;" horiz-adv-x="1083" 
d="M381 412h324l-162 419zM455 1090h176l428 -1090h-201l-100 260h-432l-101 -260h-200zM379 1536q0 -74 45 -121t117 -47q73 0 117 47t44 121h134q0 -135 -82 -226q-83 -89 -214 -88t-214 90q-82 89 -80 224h133z" />
    <glyph glyph-name="uniE223" unicode="&#xe223;" horiz-adv-x="1083" 
d="M381 412h324l-162 419zM885 -221q0 -43 27.5 -70.5t69.5 -27.5t77 22v-129q-55 -29 -136 -29t-138.5 53.5t-57.5 137.5q0 153 186 264h-55l-100 260h-432l-101 -260h-200l430 1090h176l428 -1090q-174 -95 -174 -221z" />
    <glyph glyph-name="uniE224" unicode="&#xe224;" horiz-adv-x="1492" 
d="M1382 1090v-162h-456v-299h395v-154h-395v-313h469v-162h-672v246h-365l-149 -246h-209l672 1090h710zM723 399v455l-274 -455h274z" />
    <glyph glyph-name="uniE226" unicode="&#xe226;" horiz-adv-x="1030" 
d="M90 545q0 247 150 408t385 161q161 0 313 -80v-184q-139 90 -287 90t-249 -111t-101 -284t100 -286q101 -112 248 -112t289 93v-187q-156 -76 -293 -77t-235 41q-198 85 -280 298q-40 105 -40 230zM692 1536h205l-248 -315h-172z" />
    <glyph glyph-name="uniE227" unicode="&#xe227;" horiz-adv-x="1030" 
d="M90 545q0 247 150 408t385 161q161 0 313 -80v-184q-139 90 -287 90t-249 -111t-101 -284t100 -286q101 -112 248 -112t289 93v-187q-156 -76 -293 -77t-235 41q-198 85 -280 298q-40 105 -40 230zM510 1536h180l215 -315h-162l-143 184l-141 -184h-164z" />
    <glyph glyph-name="uniE228" unicode="&#xe228;" horiz-adv-x="1030" 
d="M90 545q0 247 150 408t385 161q161 0 313 -80v-184q-139 90 -287 90t-249 -111t-101 -284t100 -286q101 -112 248 -112t289 93v-187q-156 -76 -293 -77t-235 41q-198 85 -280 298q-40 105 -40 230zM690 1221h-180l-215 315h164l141 -184l143 184h162z" />
    <glyph glyph-name="uniE229" unicode="&#xe229;" horiz-adv-x="1030" 
d="M90 545q0 247 150 408t385 161q161 0 313 -80v-184q-139 90 -287 90t-249 -111t-101 -284t100 -286q101 -112 248 -112t289 93v-187q-156 -76 -293 -77t-235 41q-198 85 -280 298q-40 105 -40 230zM477 1378q0 53 35 87t88 34t88 -34t35 -87t-35 -87t-88 -34t-88 34
t-35 87z" />
    <glyph glyph-name="uniE22A" unicode="&#xe22a;" horiz-adv-x="1030" 
d="M803 -274q0 -90 -70.5 -144.5t-166.5 -54.5t-169 37v131q72 -41 129 -41t86 22.5t29 60.5t-33 61.5t-92 23.5h-12l39 160q-202 28 -327.5 182.5t-125.5 391.5t149.5 397.5t385.5 160.5q157 0 313 -80v-184q-139 90 -287 90t-249 -111.5t-101 -285.5t101.5 -285
t246.5 -111t289 93v-187q-127 -66 -260 -73l-21 -84q68 -14 107 -61.5t39 -108.5z" />
    <glyph glyph-name="uniE22B" unicode="&#xe22b;" horiz-adv-x="1179" 
d="M369 166h174q148 0 242 105q94 107 94 273q0 167 -94 274q-94 106 -242 106h-174v-758zM162 1090h393q235 0 385 -154t150 -391t-150 -391t-385 -154h-393v1090zM655 1221h-180l-215 315h164l141 -184l144 184h161z" />
    <glyph glyph-name="uniE22C" unicode="&#xe22c;" horiz-adv-x="1204" 
d="M387 621h238v-138h-238v-321h184q150 0 244 106.5t94 277t-95.5 276.5t-242.5 106h-184v-307zM186 483h-149v138h149v469h394q236 0 385 -154.5t149 -391.5t-149.5 -390.5t-384.5 -153.5h-394v483z" />
    <glyph glyph-name="uniE22D" unicode="&#xe22d;" horiz-adv-x="931" 
d="M162 1090h659v-162h-456v-299h395v-154h-395v-313h469v-162h-672v1090zM190 1536h205l215 -315h-172z" />
    <glyph glyph-name="uniE22E" unicode="&#xe22e;" horiz-adv-x="931" 
d="M162 1090h659v-162h-456v-299h395v-154h-395v-313h469v-162h-672v1090zM580 1536h204l-247 -315h-172z" />
    <glyph glyph-name="uniE22F" unicode="&#xe22f;" horiz-adv-x="931" 
d="M162 1090h659v-162h-456v-299h395v-154h-395v-313h469v-162h-672v1090zM397 1536h181l215 -315h-162l-144 184l-141 -184h-164z" />
    <glyph glyph-name="uniE230" unicode="&#xe230;" horiz-adv-x="931" 
d="M162 1090h659v-162h-456v-299h395v-154h-395v-313h469v-162h-672v1090zM578 1221h-181l-215 315h164l141 -184l144 184h162z" />
    <glyph glyph-name="uniE231" unicode="&#xe231;" horiz-adv-x="931" 
d="M162 1090h659v-162h-456v-299h395v-154h-395v-313h469v-162h-672v1090zM158 1378q0 53 32 86q33 33 86 33t86 -33t33 -86t-33 -86q-33 -32 -86 -32t-86 32q-32 33 -32 86zM582 1378q0 53 31 86q32 33 85 33t86 -33t33 -86t-33 -86q-33 -32 -86 -32t-85 32q-31 33 -31 86z
" />
    <glyph glyph-name="uniE232" unicode="&#xe232;" horiz-adv-x="931" 
d="M162 1090h659v-162h-456v-299h395v-154h-395v-313h469v-162h-672v1090zM164 1452h647v-145h-647v145z" />
    <glyph glyph-name="uniE233" unicode="&#xe233;" horiz-adv-x="931" 
d="M162 1090h659v-162h-456v-299h395v-154h-395v-313h469v-162h-672v1090zM326 1536q0 -74 45 -121t117 -47t116 47q45 47 45 121h133q0 -138 -82 -226q-82 -89 -213 -88q-130 1 -213 89t-81 225h133z" />
    <glyph glyph-name="uniE234" unicode="&#xe234;" horiz-adv-x="931" 
d="M162 1090h659v-162h-456v-299h395v-154h-395v-313h469v-162h-672v1090zM365 1378q0 53 34 87q35 34 88 34t88 -34t35 -87t-35 -87t-88 -34t-88 34q-34 34 -34 87z" />
    <glyph glyph-name="uniE235" unicode="&#xe235;" horiz-adv-x="931" 
d="M502 -264q0 153 186 264h-526v1090h659v-162h-456v-299h395v-154h-395v-313h469v-162q-175 -96 -175 -221q0 -43 28 -70.5t70 -27.5t77 22v-129q-55 -29 -136 -29t-138.5 53.5t-57.5 137.5z" />
    <glyph glyph-name="uniE236" unicode="&#xe236;" horiz-adv-x="1140" 
d="M668 -25q-271 0 -425 160q-153 159 -153 409t153 410t394 160q168 0 338 -88v-190q-159 108 -314 108t-260 -113q-104 -113 -104 -286q0 -174 100 -289q100 -113 258 -113q80 0 170 35v254h-233v156h428v-525q-202 -88 -352 -88zM532 1536h181l215 -315h-162l-143 184
l-142 -184h-164z" />
    <glyph glyph-name="uniE237" unicode="&#xe237;" horiz-adv-x="1140" 
d="M668 -25q-271 0 -425 160q-153 159 -153 409t153 410t394 160q168 0 338 -88v-190q-159 108 -314 108t-260 -113q-104 -113 -104 -286q0 -174 100 -289q100 -113 258 -113q80 0 170 35v254h-233v156h428v-525q-202 -88 -352 -88zM461 1536q0 -74 45 -121t117 -47
q73 0 117 47t44 121h134q0 -135 -82 -226q-83 -89 -214 -88t-214 90q-82 89 -80 224h133z" />
    <glyph glyph-name="uniE238" unicode="&#xe238;" horiz-adv-x="1140" 
d="M668 -25q-271 0 -425 160q-153 159 -153 409t153 410t394 160q168 0 338 -88v-190q-159 108 -314 108t-260 -113q-104 -113 -104 -286q0 -174 100 -289q100 -113 258 -113q80 0 170 35v254h-233v156h428v-525q-202 -88 -352 -88zM500 1378q0 53 35 87t88 34t88 -34
t35 -87t-36 -87q-34 -34 -87 -34t-88 34t-35 87z" />
    <glyph glyph-name="uniE239" unicode="&#xe239;" horiz-adv-x="1140" 
d="M668 -25q-271 0 -425 160q-153 159 -153 409t153 410t394 160q168 0 338 -88v-190q-159 108 -314 108t-260 -113q-104 -113 -104 -286q0 -174 100 -289q100 -113 258 -113q80 0 170 35v254h-233v156h428v-525q-202 -88 -352 -88zM549 -131h180l-154 -365h-157z" />
    <glyph glyph-name="uniE23A" unicode="&#xe23a;" horiz-adv-x="1245" 
d="M162 1090h207v-455h508v455h204v-1090h-204v469h-508v-469h-207v1090zM532 1536h181l215 -315h-162l-143 184l-142 -184h-164z" />
    <glyph glyph-name="uniE23B" unicode="&#xe23b;" horiz-adv-x="1245" 
d="M369 631h508v145h-508v-145zM162 776h-137v131h137v183h207v-183h508v183h204v-183h140v-131h-140v-776h-204v473h-508v-473h-207v776z" />
    <glyph glyph-name="uniE23C" unicode="&#xe23c;" horiz-adv-x="530" 
d="M162 1090h207v-1090h-207v1090zM-33 1536h205l215 -315h-172z" />
    <glyph glyph-name="uniE23D" unicode="&#xe23d;" horiz-adv-x="530" 
d="M162 1090h207v-1090h-207v1090zM356 1536h205l-248 -315h-172z" />
    <glyph glyph-name="uniE23E" unicode="&#xe23e;" horiz-adv-x="530" 
d="M162 1090h207v-1090h-207v1090zM174 1536h180l215 -315h-161l-144 184l-141 -184h-164z" />
    <glyph glyph-name="uniE23F" unicode="&#xe23f;" horiz-adv-x="530" 
d="M162 1090h207v-1090h-207v1090zM-63 1274q0 104 55 168t131 63q76 0 152 -57t110 -57q33 -1 55 25t21 67h131q0 -102 -54 -167t-131 -65t-152 57q-31 22 -57 40t-57 18t-53 -26t-20 -66h-131z" />
    <glyph glyph-name="uniE240" unicode="&#xe240;" horiz-adv-x="530" 
d="M162 1090h207v-1090h-207v1090zM-66 1378q0 53 33 86t86 33t86 -33t33 -86t-33 -86q-33 -32 -86 -32t-86 32t-33 86zM358 1378q0 53 32 86t85 33t86 -33t33 -86t-33 -86q-33 -32 -86 -32t-85 32t-32 86z" />
    <glyph glyph-name="uniE241" unicode="&#xe241;" horiz-adv-x="530" 
d="M162 1090h207v-1090h-207v1090zM-59 1452h647v-145h-647v145z" />
    <glyph glyph-name="uniE242" unicode="&#xe242;" horiz-adv-x="530" 
d="M162 1090h207v-1090h-207v1090zM102 1536q0 -74 45 -121t117 -47t117 47t45 121h133q0 -138 -82 -226q-82 -89 -214 -88q-131 1 -213 89q-81 88 -81 225h133z" />
    <glyph glyph-name="uniE243" unicode="&#xe243;" horiz-adv-x="530" 
d="M141 1378.5q0 53.5 35 87t88 33.5t88 -33.5t35 -87t-35 -87.5t-88 -34t-88 34t-35 87.5zM162 1090h207v-1090h-207v1090z" />
    <glyph glyph-name="uniE244" unicode="&#xe244;" horiz-adv-x="530" 
d="M37 -264q0 153 186 264h-61v1090h207v-1090q-174 -95 -174 -221q0 -43 27.5 -70.5t69.5 -27.5t77 22v-129q-55 -29 -136 -29t-138.5 53.5t-57.5 137.5z" />
    <glyph glyph-name="uniE245" unicode="&#xe245;" horiz-adv-x="1323" 
d="M162 1090h207v-1090h-207v1090zM1167 305q0 -142 -96 -236t-227 -94q-130 0 -236 50v176q90 -53 170 -53t132.5 51t52.5 129v762h204v-785z" />
    <glyph glyph-name="uniE246" unicode="&#xe246;" horiz-adv-x="790" 
d="M637 305q0 -140 -96 -236q-96 -94 -227 -94q-130 0 -236 50v176q90 -53 170 -53t132 50q52 52 52 130v762h205v-785zM444 1536h181l215 -315h-162l-143 184l-142 -184h-164z" />
    <glyph glyph-name="uniE247" unicode="&#xe247;" horiz-adv-x="1060" 
d="M162 1090h203v-455l413 455h244l-481 -537l495 -553h-248l-423 469v-469h-203v1090zM463 -131h180l-154 -365h-157z" />
    <glyph glyph-name="uniE248" unicode="&#xe248;" horiz-adv-x="856" 
d="M162 1090h207v-924h434v-166h-641v1090zM356 1536h205l-248 -315h-172z" />
    <glyph glyph-name="uniE249" unicode="&#xe249;" horiz-adv-x="856" 
d="M582 1153h178l-135 -315h-156zM162 1090h207v-924h434v-166h-641v1090z" />
    <glyph glyph-name="uniE24A" unicode="&#xe24a;" horiz-adv-x="856" 
d="M571 571.5q0 53.5 35 87t88.5 33.5t88 -33.5t34.5 -87t-34.5 -87t-88 -33.5t-88.5 33.5t-35 87zM162 1090h207v-924h434v-166h-641v1090z" />
    <glyph glyph-name="uniE24B" unicode="&#xe24b;" horiz-adv-x="856" 
d="M162 1090h207v-924h434v-166h-641v1090zM395 -131h180l-153 -365h-158z" />
    <glyph glyph-name="uniE24C" unicode="&#xe24c;" horiz-adv-x="878" 
d="M186 1090h207v-437l242 119v-162l-242 -121v-323h434v-166h-641v387l-123 -61v161l123 62v541z" />
    <glyph glyph-name="uniE24D" unicode="&#xe24d;" horiz-adv-x="1245" 
d="M162 1090h180l547 -760v760h192v-1090h-180l-547 760v-760h-192v1090zM715 1536h205l-248 -315h-172z" />
    <glyph glyph-name="uniE24E" unicode="&#xe24e;" horiz-adv-x="1245" 
d="M162 1090h180l547 -760v760h192v-1090h-180l-547 760v-760h-192v1090zM713 1221h-181l-215 315h164l142 -184l143 184h162z" />
    <glyph glyph-name="uniE24F" unicode="&#xe24f;" horiz-adv-x="1245" 
d="M162 1090h180l547 -760v760h192v-1090h-180l-547 760v-760h-192v1090zM295 1274q0 104 55 168t130 63q75 0 154 -58q30 -22 56 -39t56 -17q30 -1 52 25t21 67h131q0 -102 -54 -167t-130 -65t-153 57q-31 22 -57 40t-56 18t-53 -26q-22 -26 -21 -66h-131z" />
    <glyph glyph-name="uniE250" unicode="&#xe250;" horiz-adv-x="1245" 
d="M162 1090h180l547 -760v760h192v-1090h-180l-547 760v-760h-192v1090zM549 -131h180l-154 -365h-157z" />
    <glyph glyph-name="uniE251" unicode="&#xe251;" horiz-adv-x="1628" 
d="M240 1409h200l-192 -457h-174zM547 1090h180l547 -760v760h192v-1090h-180l-547 760v-760h-192v1090z" />
    <glyph glyph-name="uniE252" unicode="&#xe252;" horiz-adv-x="1245" 
d="M623 147q140 0 230 112q91 112 90 286q-1 173 -91 284t-228 111t-231 -110q-92 -110 -92 -285q0 -174 91 -286q92 -112 231 -112zM623 1114q117 0 215 -42q201 -86 278 -298q39 -104 39 -229q0 -249 -148 -410q-149 -160 -384 -160t-384 160q-149 159 -149 409t149 410
t384 160zM326 1536h204l215 -315h-172z" />
    <glyph glyph-name="uniE253" unicode="&#xe253;" horiz-adv-x="1245" 
d="M623 147q140 0 230 112q91 112 90 286q-1 173 -91 284t-228 111t-231 -110q-92 -110 -92 -285q0 -174 91 -286q92 -112 231 -112zM623 1114q117 0 215 -42q201 -86 278 -298q39 -104 39 -229q0 -249 -148 -410q-149 -160 -384 -160t-384 160q-149 159 -149 409t149 410
t384 160zM715 1536h205l-248 -315h-172z" />
    <glyph glyph-name="uniE254" unicode="&#xe254;" horiz-adv-x="1245" 
d="M623 147q140 0 230 112q91 112 90 286q-1 173 -91 284t-228 111t-231 -110q-92 -110 -92 -285q0 -174 91 -286q92 -112 231 -112zM623 1114q117 0 215 -42q201 -86 278 -298q39 -104 39 -229q0 -249 -148 -410q-149 -160 -384 -160t-384 160q-149 159 -149 409t149 410
t384 160zM532 1536h181l215 -315h-162l-143 184l-142 -184h-164z" />
    <glyph glyph-name="uniE255" unicode="&#xe255;" horiz-adv-x="1245" 
d="M623 147q140 0 230 112q91 112 90 286q-1 173 -91 284t-228 111t-231 -110q-92 -110 -92 -285q0 -174 91 -286q92 -112 231 -112zM623 1114q117 0 215 -42q201 -86 278 -298q39 -104 39 -229q0 -249 -148 -410q-149 -160 -384 -160t-384 160q-149 159 -149 409t149 410
t384 160zM295 1274q0 104 55 168t130 63q75 0 154 -58q30 -22 56 -39t56 -17q30 -1 52 25t21 67h131q0 -102 -54 -167t-130 -65t-153 57q-31 22 -57 40t-56 18t-53 -26q-22 -26 -21 -66h-131z" />
    <glyph glyph-name="uniE256" unicode="&#xe256;" horiz-adv-x="1245" 
d="M623 147q140 0 230 112q91 112 90 286q-1 173 -91 284t-228 111t-231 -110q-92 -110 -92 -285q0 -174 91 -286q92 -112 231 -112zM623 1114q117 0 215 -42q201 -86 278 -298q39 -104 39 -229q0 -249 -148 -410q-149 -160 -384 -160t-384 160q-149 159 -149 409t149 410
t384 160zM293 1378q0 53 33 86t86 33t86 -33q32 -33 32 -86t-32 -86q-32 -32 -86 -32q-53 0 -86 32t-33 86zM717 1378q0 53 32 86t85 33t86 -33q32 -33 32 -86t-32 -86q-32 -32 -86 -32q-53 0 -85 32t-32 86z" />
    <glyph glyph-name="uniE257" unicode="&#xe257;" horiz-adv-x="1245" 
d="M623 147q140 0 230 112q91 112 90 286q-1 173 -91 284t-228 111t-231 -110q-92 -110 -92 -285q0 -174 91 -286q92 -112 231 -112zM623 1114q117 0 215 -42q201 -86 278 -298q39 -104 39 -229q0 -249 -148 -410q-149 -160 -384 -160t-384 160q-149 159 -149 409t149 410
t384 160zM299 1452h647v-145h-647v145z" />
    <glyph glyph-name="uniE258" unicode="&#xe258;" horiz-adv-x="1245" 
d="M623 147q140 0 230 112q91 112 90 286q-1 173 -91 284t-228 111t-231 -110q-92 -110 -92 -285q0 -174 91 -286q92 -112 231 -112zM623 1114q117 0 215 -42q201 -86 278 -298q39 -104 39 -229q0 -249 -148 -410q-149 -160 -384 -160t-384 160q-149 159 -149 409t149 410
t384 160zM461 1536q0 -74 45 -121t117 -47q73 0 117 47t44 121h134q0 -135 -82 -226q-83 -89 -214 -88t-214 90q-82 89 -80 224h133z" />
    <glyph glyph-name="uniE259" unicode="&#xe259;" horiz-adv-x="1245" 
d="M623 147q140 0 230 112q91 112 90 286q-1 173 -91 284t-228 111t-231 -110q-92 -110 -92 -285q0 -174 91 -286q92 -112 231 -112zM623 1114q117 0 215 -42q201 -86 278 -298q39 -104 39 -229q0 -249 -148 -410q-149 -160 -384 -160t-384 160q-149 159 -149 409t149 410
t384 160zM526 1536h205l-248 -315h-172zM903 1536h207l-250 -315h-172z" />
    <glyph glyph-name="uniE25A" unicode="&#xe25a;" horiz-adv-x="1243" 
d="M948 533q0 168 -67 266l-445 -590q80 -63 170 -63q160 -1 251 109t91 278zM641 944q-163 0 -254.5 -112t-91.5 -276q0 -165 70 -265l442 590q-76 63 -166 63zM246 131q-156 156 -156 410t148.5 413.5t384.5 159.5q162 0 295 -88l47 64h131l-97 -132q156 -160 156 -412
q0 -251 -148.5 -411t-383.5 -160q-172 0 -295 88l-49 -63h-132z" />
    <glyph glyph-name="uniE25C" unicode="&#xe25c;" horiz-adv-x="1550" 
d="M780 924h-147q-148 0 -242 -107t-94 -273q0 -167 94 -272.5t242 -105.5h147v758zM1438 928h-455v-299h393v-154h-393v-313h467v-162h-825q-236 0 -385.5 153.5t-149.5 390.5t149 391.5t386 154.5h813v-162z" />
    <glyph glyph-name="uniE25D" unicode="&#xe25d;" horiz-adv-x="1030" 
d="M162 1090h379q164 0 270 -97t104 -248q0 -111 -58 -191t-163 -122l256 -432h-217l-235 406h-136v-406h-200v1090zM362 563h150q88 0 143 51t55 133q0 83 -54 133q-56 50 -144 50h-150v-367zM610 1536h205l-248 -315h-172z" />
    <glyph glyph-name="uniE25E" unicode="&#xe25e;" horiz-adv-x="1030" 
d="M162 1090h379q164 0 270 -97t104 -248q0 -111 -58 -191t-163 -122l256 -432h-217l-235 406h-136v-406h-200v1090zM362 563h150q88 0 143 51t55 133q0 83 -54 133q-56 50 -144 50h-150v-367zM608 1221h-180l-215 315h164l141 -184l144 184h161z" />
    <glyph glyph-name="uniE25F" unicode="&#xe25f;" horiz-adv-x="1030" 
d="M162 1090h379q164 0 270 -97t104 -248q0 -111 -58 -191t-163 -122l256 -432h-217l-235 406h-136v-406h-200v1090zM362 563h150q88 0 143 51t55 133q0 83 -54 133q-56 50 -144 50h-150v-367zM444 -131h181l-154 -365h-158z" />
    <glyph glyph-name="uniE260" unicode="&#xe260;" horiz-adv-x="921" 
d="M424 139q90 0 146 46q56 45 56 109t-38 96q-60 49 -219 101q-159 51 -232 153q-39 56 -39 138q0 149 108 242q108 92 266 91t306 -66v-185q-139 84 -276 84q-88 0 -144 -42t-55 -101q0 -59 39 -90q60 -48 176 -86q117 -39 176 -75q139 -86 138 -239q-1 -154 -111 -247
t-269 -93t-329 76v193q165 -105 301 -105zM553 1536h205l-248 -315h-172z" />
    <glyph glyph-name="uniE261" unicode="&#xe261;" horiz-adv-x="921" 
d="M424 139q90 0 146 46q56 45 56 109t-38 96q-60 49 -219 101q-159 51 -232 153q-39 56 -39 138q0 149 108 242q108 92 266 91t306 -66v-185q-139 84 -276 84q-88 0 -144 -42t-55 -101q0 -59 39 -90q60 -48 176 -86q117 -39 176 -75q139 -86 138 -239q-1 -154 -111 -247
t-269 -93t-329 76v193q165 -105 301 -105zM371 1536h180l215 -315h-162l-143 184l-142 -184h-163z" />
    <glyph glyph-name="uniE262" unicode="&#xe262;" horiz-adv-x="921" 
d="M551 1221h-180l-215 315h163l142 -184l143 184h162zM424 139q90 0 146.5 45.5t56.5 109.5t-39 96t-98.5 56.5t-127 46t-127 58.5t-98.5 93t-39 138q0 149 106.5 240.5t265.5 91.5q160 0 308 -65v-185q-139 84 -276 84q-88 0 -143.5 -42t-55.5 -101t39 -90t98.5 -54.5
t127 -46t165.5 -83.5t98 -215t-110 -247.5t-269 -93.5t-329 76v193q165 -105 301 -105z" />
    <glyph glyph-name="uniE263" unicode="&#xe263;" horiz-adv-x="921" 
d="M424 139q90 0 146.5 45.5t56.5 109.5t-39 96t-98.5 56.5t-127 46t-127 58.5t-98.5 93t-39 138q0 149 106.5 240.5t265.5 91.5q160 0 308 -65v-185q-139 84 -276 84q-88 0 -143.5 -42t-55.5 -101t39 -90t98.5 -54.5t127 -46t165.5 -83.5t98 -226q0 -123 -79.5 -208
t-210.5 -109l-21 -92q68 -14 106 -61.5t38 -108.5q0 -90 -71 -144.5t-165 -54.5t-170 37v131q72 -41 129 -41t86 22.5t29 60.5t-32 61.5t-91 23.5h-14l38 155q-146 8 -280 74v193q165 -105 301 -105z" />
    <glyph glyph-name="uniE264" unicode="&#xe264;" horiz-adv-x="921" 
d="M424 139q90 0 146 46q56 45 56 109t-38 96q-60 49 -219 101q-159 51 -232 153q-39 56 -39 138q0 149 108 242q108 92 266 91t306 -66v-185q-139 84 -276 84q-88 0 -144 -42t-55 -101q0 -59 39 -90q60 -48 176 -86q117 -39 176 -75q139 -86 138 -239q-1 -154 -111 -247
t-269 -93t-329 76v193q165 -105 301 -105zM387 -131h180l-153 -365h-158z" />
    <glyph glyph-name="uniE265" unicode="&#xe265;" horiz-adv-x="1245" 
d="M950 335q0 85 -69.5 137t-180.5 52h-51v119l197 285h-484v-928h-200v1090h928v-119l-218 -314q124 -20 203.5 -108t79.5 -213q0 -159 -110.5 -260t-278.5 -101q-119 0 -244 58v184q125 -74 220 -74q96 0 152 53.5t56 138.5z" />
    <glyph glyph-name="uniE266" unicode="&#xe266;" horiz-adv-x="989" 
d="M391 924h-332v166h869v-166h-330v-924h-207v924zM584 1221h-181l-215 315h164l142 -184l143 184h162z" />
    <glyph glyph-name="uniE268" unicode="&#xe268;" horiz-adv-x="989" 
d="M391 446h-213v146h213v332h-332v166h869v-166h-330v-332h215v-146h-215v-446h-207v446z" />
    <glyph glyph-name="uniE269" unicode="&#xe269;" horiz-adv-x="1245" 
d="M1090 401q0 -187 -131 -306q-131 -120 -337 -120q-205 0 -336 121q-132 121 -130 305v689h204v-672q0 -121 73 -196t190 -75t189 75t73 196v672h205v-689zM326 1536h204l215 -315h-172z" />
    <glyph glyph-name="uniE26A" unicode="&#xe26a;" horiz-adv-x="1245" 
d="M1090 401q0 -187 -131 -306q-131 -120 -337 -120q-205 0 -336 121q-132 121 -130 305v689h204v-672q0 -121 73 -196t190 -75t189 75t73 196v672h205v-689zM715 1536h205l-248 -315h-172z" />
    <glyph glyph-name="uniE26B" unicode="&#xe26b;" horiz-adv-x="1245" 
d="M1090 401q0 -187 -131 -306q-131 -120 -337 -120q-205 0 -336 121q-132 121 -130 305v689h204v-672q0 -121 73 -196t190 -75t189 75t73 196v672h205v-689zM532 1536h181l215 -315h-162l-143 184l-142 -184h-164z" />
    <glyph glyph-name="uniE26C" unicode="&#xe26c;" horiz-adv-x="1245" 
d="M1090 401q0 -187 -131 -306q-131 -120 -337 -120q-205 0 -336 121q-132 121 -130 305v689h204v-672q0 -121 73 -196t190 -75t189 75t73 196v672h205v-689zM295 1274q0 104 55 168t130 63q75 0 154 -58q30 -22 56 -39t56 -17q30 -1 52 25t21 67h131q0 -102 -54 -167
t-130 -65t-153 57q-31 22 -57 40t-56 18t-53 -26q-22 -26 -21 -66h-131z" />
    <glyph glyph-name="uniE26D" unicode="&#xe26d;" horiz-adv-x="1245" 
d="M1090 401q0 -187 -131 -306q-131 -120 -337 -120q-205 0 -336 121q-132 121 -130 305v689h204v-672q0 -121 73 -196t190 -75t189 75t73 196v672h205v-689zM293 1378q0 53 33 86t86 33t86 -33q32 -33 32 -86t-32 -86q-32 -32 -86 -32q-53 0 -86 32t-33 86zM717 1378
q0 53 32 86t85 33t86 -33q32 -33 32 -86t-32 -86q-32 -32 -86 -32q-53 0 -85 32t-32 86z" />
    <glyph glyph-name="uniE26E" unicode="&#xe26e;" horiz-adv-x="1245" 
d="M1090 401q0 -187 -131 -306q-131 -120 -337 -120q-205 0 -336 121q-132 121 -130 305v689h204v-672q0 -121 73 -196t190 -75t189 75t73 196v672h205v-689zM518 1378q0 -48 29 -76t76 -28t75 29t29 75q0 46 -29 76q-30 29 -76 29t-75 -29t-29 -76zM418 1378q0 92 56 150
t148 57q92 0 150 -57q57 -58 57 -150t-57 -148t-149 -56t-149 56q-56 56 -56 148z" />
    <glyph glyph-name="uniE26F" unicode="&#xe26f;" horiz-adv-x="1245" 
d="M1090 401q0 -187 -131 -306q-131 -120 -337 -120q-205 0 -336 121q-132 121 -130 305v689h204v-672q0 -121 73 -196t190 -75t189 75t73 196v672h205v-689zM299 1452h647v-145h-647v145z" />
    <glyph glyph-name="uniE270" unicode="&#xe270;" horiz-adv-x="1245" 
d="M1090 401q0 -187 -131 -306q-131 -120 -337 -120q-205 0 -336 121q-132 121 -130 305v689h204v-672q0 -121 73 -196t190 -75t189 75t73 196v672h205v-689zM461 1536q0 -74 45 -121t117 -47q73 0 117 47t44 121h134q0 -135 -82 -226q-83 -89 -214 -88t-214 90
q-82 89 -80 224h133z" />
    <glyph glyph-name="uniE271" unicode="&#xe271;" horiz-adv-x="1245" 
d="M1090 401q0 -187 -131 -306q-131 -120 -337 -120q-205 0 -336 121q-132 121 -130 305v689h204v-672q0 -121 73 -196t190 -75t189 75t73 196v672h205v-689zM526 1536h205l-248 -315h-172zM903 1536h207l-250 -315h-172z" />
    <glyph glyph-name="uniE272" unicode="&#xe272;" horiz-adv-x="1245" 
d="M623 -25q-204 0 -335.5 118.5t-131.5 309.5v687h204v-672q0 -121 73 -194.5t189.5 -73.5t189.5 73.5t73 194.5v672h205v-687q0 -121 -56.5 -216t-159.5 -150q-186 -112 -186 -254q0 -45 27.5 -73.5t70.5 -28.5t78 22v-129q-60 -29 -139 -29q-78 0 -135.5 53.5
t-57.5 128.5q0 143 134 253q-25 -5 -43 -5z" />
    <glyph glyph-name="uniE273" unicode="&#xe273;" horiz-adv-x="1695" 
d="M1292 0h-184l-260 827l-260 -827h-185l-370 1090h205l258 -830l260 830h184l260 -830l258 830h205zM551 1536h205l215 -315h-172z" />
    <glyph glyph-name="uniE274" unicode="&#xe274;" horiz-adv-x="1695" 
d="M1292 0h-184l-260 827l-260 -827h-185l-370 1090h205l258 -830l260 830h184l260 -830l258 830h205zM940 1536h205l-248 -315h-172z" />
    <glyph glyph-name="uniE275" unicode="&#xe275;" horiz-adv-x="1695" 
d="M1292 0h-184l-260 827l-260 -827h-185l-370 1090h205l258 -830l260 830h184l260 -830l258 830h205zM758 1536h180l215 -315h-162l-143 184l-141 -184h-164z" />
    <glyph glyph-name="uniE276" unicode="&#xe276;" horiz-adv-x="1695" 
d="M1292 0h-184l-260 827l-260 -827h-185l-370 1090h205l258 -830l260 830h184l260 -830l258 830h205zM518 1378q0 53 33 86t86 33t86 -33t33 -86t-33 -86q-33 -32 -86 -32t-86 32t-33 86zM942 1378q0 53 32 86t85 33t86 -33t33 -86t-33 -86q-33 -32 -86 -32t-85 32t-32 86z
" />
    <glyph glyph-name="uniE277" unicode="&#xe277;" horiz-adv-x="1021" 
d="M614 0h-206v459l-390 631h236l258 -441l256 441h238l-392 -631v-459zM213 1536h205l215 -315h-172z" />
    <glyph glyph-name="uniE278" unicode="&#xe278;" horiz-adv-x="1021" 
d="M614 0h-206v459l-390 631h236l258 -441l256 441h238l-392 -631v-459zM602 1536h205l-248 -315h-172z" />
    <glyph glyph-name="uniE279" unicode="&#xe279;" horiz-adv-x="1021" 
d="M614 0h-206v459l-390 631h236l258 -441l256 441h238l-392 -631v-459zM420 1536h180l215 -315h-162l-143 184l-141 -184h-164z" />
    <glyph glyph-name="uniE27A" unicode="&#xe27a;" horiz-adv-x="1021" 
d="M614 0h-206v459l-390 631h236l258 -441l256 441h238l-392 -631v-459zM180 1378q0 53 33 86t86 33t86 -33t33 -86t-33 -86q-33 -32 -86 -32t-86 32t-33 86zM604 1378q0 53 32 86t85 33t86 -33t33 -86t-33 -86q-33 -32 -86 -32t-85 32t-32 86z" />
    <glyph glyph-name="uniE27B" unicode="&#xe27b;" horiz-adv-x="1038" 
d="M115 924v166h813v-123l-588 -801h600v-166h-856v123l586 801h-555zM610 1536h205l-248 -315h-172z" />
    <glyph glyph-name="uniE27C" unicode="&#xe27c;" horiz-adv-x="1038" 
d="M608 1221h-180l-215 315h164l141 -184l144 184h161zM115 924v166h813v-123l-588 -801h600v-166h-856v123l586 801h-555z" />
    <glyph glyph-name="uniE27D" unicode="&#xe27d;" horiz-adv-x="1038" 
d="M115 924v166h813v-123l-588 -801h600v-166h-856v123l586 801h-555zM395 1378q0 53 35 87t88 34t88 -34t35 -87t-35 -87t-88 -34t-88 34t-35 87z" />
    <glyph glyph-name="uniE27E" unicode="&#xe27e;" horiz-adv-x="1245" 
d="M162 1090h180l547 -760v760h192v-1233q0 -145 -94.5 -237.5t-245.5 -92.5q-113 0 -219 49v176q94 -53 176 -53t134.5 51t52.5 127v146l-531 737v-760h-192v1090z" />
    <glyph glyph-name="uniE27F" unicode="&#xe27f;" horiz-adv-x="1204" 
d="M387 621h238v-138h-238v-321h184q150 0 244 106.5t94 277t-95.5 276.5t-242.5 106h-184v-307zM186 483h-149v138h149v469h394q236 0 385 -154.5t149 -391.5t-149.5 -390.5t-384.5 -153.5h-394v483z" />
    <glyph glyph-name="uniE280" unicode="&#xe280;" horiz-adv-x="1005" 
d="M362 365h156q92 0 148.5 51t56.5 137t-56.5 137t-148.5 51h-156v-376zM162 1090h200v-189h185q168 0 274.5 -98t106.5 -250t-106.5 -250t-274.5 -98h-185v-205h-200v1090z" />
    <glyph glyph-name="uniE281" unicode="&#xe281;" horiz-adv-x="512" 
d="M272 633h-198l192 457h174z" />
    <glyph glyph-name="uniE282" unicode="&#xe282;" horiz-adv-x="512" 
d="M240 1090h200l-192 -457h-174z" />
    <glyph glyph-name="uniE283" unicode="&#xe283;" horiz-adv-x="876" 
d="M272 633h-198l192 457h174zM637 633h-201l193 457h174z" />
    <glyph glyph-name="uniE284" unicode="&#xe284;" horiz-adv-x="876" 
d="M602 1090h201l-193 -457h-174zM240 1090h200l-192 -457h-174z" />
    <glyph glyph-name="uniE285" unicode="&#xe285;" horiz-adv-x="526" 
d="M143 94q0 53 33 87t86 34t87 -34t34 -87t-34 -86t-87 -33t-86 33t-33 86zM162 1090h200v-750h-200v750z" />
    <glyph glyph-name="uniE286" unicode="&#xe286;" horiz-adv-x="468" 
d="M354 994q0 -52 -32.5 -86t-86 -34t-87 34t-33.5 86t33.5 86t87 34t86 -34t32.5 -86zM334 0h-199v750h199v-750z" />
    <glyph glyph-name="uniE287" unicode="&#xe287;" horiz-adv-x="755" 
d="M213 94q0 53 33 87t86 34t86 -34t33 -87t-33 -86t-86 -33t-86 33t-33 86zM347 1114q136 0 222 -80t86 -207q0 -86 -35.5 -148.5t-77.5 -112.5t-78 -97t-36 -102v-27h-192v39q0 80 32.5 134t71.5 99t71.5 87.5t32.5 100.5t-39.5 97t-105.5 39q-111 0 -227 -98v186
q139 90 275 90z" />
    <glyph glyph-name="uniE288" unicode="&#xe288;" horiz-adv-x="755" 
d="M543 994q0 -52 -33 -86t-85 -34t-86 34t-34 86t34 86t86 34t85 -34t33 -86zM102 262q0 86 35 148.5t78 112.5t78 96.5t35 101.5v29h194v-39q0 -80 -32.5 -134.5t-71.5 -99.5t-72 -88t-33 -100t40 -96t104 -39q113 0 227 98v-189q-142 -88 -276 -88q-135 0 -220.5 80
t-85.5 207z" />
    <glyph glyph-name="uniE289" unicode="&#xe289;" horiz-adv-x="641" 
d="M393 1237h201l-346 -1384h-203z" />
    <glyph glyph-name="uniE28A" unicode="&#xe28a;" horiz-adv-x="641" 
d="M45 1237h203l346 -1384h-201z" />
    <glyph glyph-name="uniE28B" unicode="&#xe28b;" horiz-adv-x="569" 
d="M123 541.5q0 379.5 231 695.5h207q-239 -305 -239 -693t239 -691h-207q-231 309 -231 688.5z" />
    <glyph glyph-name="uniE28C" unicode="&#xe28c;" horiz-adv-x="569" 
d="M446 542q0 -382 -231 -689h-209q242 309 242 692t-242 692h209q231 -313 231 -695z" />
    <glyph glyph-name="uniE28D" unicode="&#xe28d;" horiz-adv-x="569" 
d="M156 1237h352v-156h-158v-1073h158v-155h-352v1384z" />
    <glyph glyph-name="uniE28E" unicode="&#xe28e;" horiz-adv-x="569" 
d="M414 -147h-355v155h160v1073h-160v156h355v-1384z" />
    <glyph glyph-name="uniE28F" unicode="&#xe28f;" horiz-adv-x="569" 
d="M508 1081h-16q-53 0 -88 -35.5t-35 -91.5v-206q0 -72 -38 -126.5t-106 -76.5q68 -23 106 -77t38 -126v-207q0 -57 34.5 -92t88.5 -35h16v-155h-55q-125 0 -202 75t-77 191v211q0 61 -31.5 99t-81.5 38h-12v154h12q49 0 81 38.5t32 100.5v211q0 115 77.5 190.5t201.5 75.5
h55v-156z" />
    <glyph glyph-name="uniE290" unicode="&#xe290;" horiz-adv-x="569" 
d="M59 8h19q55 0 89 36t34 91v207q0 72 37.5 126t105.5 77q-68 23 -105.5 77t-37.5 126v206q0 57 -34 92t-89 35h-19v156h56q126 0 203 -75.5t77 -190.5v-211q0 -61 32 -100t81 -39h12v-154h-12q-49 0 -81 -38t-32 -99v-211q0 -116 -76.5 -191t-203.5 -75h-56v155z" />
    <glyph glyph-name="uniE291" unicode="&#xe291;" horiz-adv-x="1083" 
d="M301 307q0 -74 56.5 -121t138.5 -47t157 35v303h-131q-100 0 -160.5 -48t-60.5 -122zM494 948q-76 0 -124 -43t-48 -113t59 -117.5t154 -47.5h514v-150h-199v-409q-178 -93 -358 -93t-288 87t-108 223q0 96 51.5 170.5t143.5 107.5q-80 29 -125 97t-45 144q0 144 98 227
t243 83q144 0 279 -65v-181q-123 80 -247 80z" />
    <glyph glyph-name="uniE292" unicode="&#xe292;" horiz-adv-x="1605" 
d="M641 545q0 -90 43 -145.5t118 -55.5t126 57v287q-53 57 -127 57t-117 -55t-43 -145zM840 -176q-174 0 -309.5 54t-233.5 149.5t-152.5 227.5t-54.5 289.5t53.5 291t205 282t464.5 148.5q312 0 507.5 -182.5t195.5 -460.5q0 -192 -101.5 -315.5t-255.5 -123.5
q-59 0 -111.5 22.5t-80.5 65.5q-88 -88 -215 -88t-213 100.5t-86 261t86.5 260t218.5 99.5q94 0 170 -65v51h182v-440q0 -45 25.5 -72t62.5 -27q63 0 106.5 70t43.5 184q0 226 -151 370t-389 144t-393 -161t-155 -414t160.5 -415.5t408.5 -162.5q179 0 369 103v-156
q-184 -90 -358 -90z" />
    <glyph glyph-name="uniE300" unicode="&#xe300;" horiz-adv-x="1015" 
d="M297 545q0 -180 56.5 -286.5t153.5 -106.5t155.5 106.5t58.5 286.5t-58.5 286.5t-155.5 106.5t-153.5 -106.5t-56.5 -286.5zM508 1114q181 0 295.5 -158t114.5 -411t-114 -411.5t-296 -158.5t-296 158.5t-114 411.5t114.5 411t295.5 158z" />
    <glyph glyph-name="uniE301" unicode="&#xe301;" horiz-adv-x="700" 
d="M535 1090v-1090h-207v868l-269 -147v184l336 185h140z" />
    <glyph glyph-name="uniE302" unicode="&#xe302;" horiz-adv-x="845" 
d="M59 127q465 404 465 608q0 94 -51 148.5t-131 54.5q-127 0 -254 -102v188q163 90 312 90t242 -93t93 -229t-93 -281.5t-306 -338.5h409v-172h-686v127z" />
    <glyph glyph-name="uniE303" unicode="&#xe303;" horiz-adv-x="831" 
d="M315 141q109 0 166.5 46t57.5 120t-58.5 121t-154.5 47h-64v154h53q90 0 145.5 47t55.5 116t-48 111.5t-124 42.5q-125 0 -248 -78v181q137 65 280 65t241 -82t98 -215q0 -90 -44 -157.5t-124 -96.5q92 -33 144 -106.5t52 -156.5q0 -148 -105.5 -236.5t-265.5 -88.5
q-161 0 -302 70v180q136 -84 245 -84z" />
    <glyph glyph-name="uniE304" unicode="&#xe304;" horiz-adv-x="942" 
d="M528 428v395l-288 -395h288zM528 270h-475v125l498 695h164v-662h166v-158h-166v-270h-187v270z" />
    <glyph glyph-name="uniE305" unicode="&#xe305;" horiz-adv-x="845" 
d="M415 682q147 0 245 -92.5t98 -250.5t-115.5 -261t-292.5 -103q-127 0 -254 64v190q120 -79 228 -79t166.5 53t58.5 139t-58.5 138t-158.5 52t-207 -30v588h573v-168h-393v-250q41 10 110 10z" />
    <glyph glyph-name="uniE306" unicode="&#xe306;" horiz-adv-x="935" 
d="M289 367q0 -98 49 -159t131 -61t134 56.5t52 142.5t-49 138.5t-139 52.5t-172 -82q-6 -41 -6 -88zM854 351q0 -164 -111.5 -270t-278.5 -106t-270.5 115.5t-103.5 297.5q0 183 94.5 362.5t274.5 339.5h256q-274 -213 -375 -443q155 98 297 39t179.5 -157.5t37.5 -177.5z
" />
    <glyph glyph-name="uniE307" unicode="&#xe307;" horiz-adv-x="770" 
d="M14 918v172h713v-117l-403 -973h-209l389 918h-490z" />
    <glyph glyph-name="uniE308" unicode="&#xe308;" horiz-adv-x="942" 
d="M301 792.5q0 -71.5 48 -117.5t122 -46t122 46t48 117.5t-48 116.5t-122 45t-122 -45t-48 -116.5zM285 305q0 -76 52 -124t134 -48t134 48t52 124t-52 123t-134 47t-134 -47t-52 -123zM115 794q0 77 25.5 133t72.5 98t112.5 65.5t184.5 23.5t218 -88.5t99 -222.5
q0 -86 -45 -151.5t-123 -94.5q88 -29 140.5 -100.5t52.5 -152.5t-27.5 -139.5t-78 -100t-120 -65.5t-196 -24t-233.5 88t-107 230q0 92 52.5 163.5t140.5 100.5q-78 29 -123 94.5t-45 142.5z" />
    <glyph glyph-name="uniE309" unicode="&#xe309;" horiz-adv-x="935" 
d="M647 723q0 96 -49 156.5t-131 60.5t-135 -55.5t-53 -141.5t50 -139t140 -53t170 84q8 40 8 88zM424 385q-156 0 -249 97t-93 258t110.5 267.5t278.5 106.5t271.5 -118.5t103.5 -297.5q0 -180 -95.5 -359t-273.5 -339h-256q274 215 375 440q-90 -55 -172 -55z" />
    <glyph glyph-name="uniE30A" unicode="&#xe30a;" horiz-adv-x="897" 
d="M588 320q0 56 -36 83t-88 47.5t-202.5 70t-150.5 247.5q0 104 68.5 178t178.5 101v235h179v-227q99 -7 206 -54v-180q-129 76 -258 76q-74 0 -121 -33t-47 -85t35 -78.5t88.5 -47t203 -68.5t149.5 -253q0 -111 -70 -187.5t-186 -101.5v-236h-179v228q-117 10 -227 63v187
q137 -92 285 -92q76 0 124 35.5t48 91.5z" />
    <glyph glyph-name="uniE30B" unicode="&#xe30b;" horiz-adv-x="897" 
d="M561 293q102 0 207 67v-174q-86 -45 -172 -51v-231h-178v239q-133 33 -214 140.5t-81 261t80 261t215 140.5v240h178v-232q89 -8 172 -51v-174q-104 68 -206 68t-168 -71t-66 -181.5t65.5 -181t167.5 -70.5z" />
    <glyph glyph-name="uniE30C" unicode="&#xe30c;" horiz-adv-x="897" 
d="M676 727v-117h-357q-2 -16 -2 -20v-49q0 -45 2 -62h357v-117h-324q33 -104 105.5 -164.5t174.5 -60.5t206 68v-172q-114 -57 -266 -57t-272 105t-165 281h-119v117h99q-2 16 -2 32.5v33v33t2 32.5h-99v117h119q45 176 165 281.5t292 105.5q131 0 246 -57v-172
q-95 65 -201 65t-179 -59.5t-106 -163.5h324z" />
    <glyph glyph-name="uniE30D" unicode="&#xe30d;" horiz-adv-x="897" 
d="M94 479v146h139l70 241q35 117 118 182.5t180 65.5t185 -35v-172q-72 37 -131 37t-100 -35t-59 -94l-56 -190h224v-146h-263l-90 -317h516v-162h-741v111l107 368h-99z" />
    <glyph glyph-name="uniE30E" unicode="&#xe30e;" horiz-adv-x="897" 
d="M346 211h-231v117h231v139h-231v115h184l-313 508h235l228 -394l227 394h235l-315 -508h186v-115h-231v-139h231v-117h-231v-211h-205v211z" />
    <glyph glyph-name="uniE600" unicode="&#xe600;" horiz-adv-x="641" 
d="M66 797h509v-166h-509v166z" />
    <glyph glyph-name="uniE601" unicode="&#xe601;" horiz-adv-x="641" 
d="M66 797h509v-166h-509v166z" />
    <glyph glyph-name="uniE602" unicode="&#xe602;" horiz-adv-x="1024" 
d="M66 797h892v-166h-892v166z" />
    <glyph glyph-name="uniE603" unicode="&#xe603;" horiz-adv-x="2048" 
d="M66 797h1916v-166h-1916v166z" />
    <glyph glyph-name="uniE604" unicode="&#xe604;" horiz-adv-x="512" 
d="M125 704q0 58 37 94t94 36t94 -36t37 -94t-37 -94.5t-94 -36.5t-94 36.5t-37 94.5z" />
    <glyph glyph-name="uniE605" unicode="&#xe605;" horiz-adv-x="768" 
d="M504 1602h209l-449 -1792h-209z" />
    <glyph glyph-name="uniE606" unicode="&#xe606;" horiz-adv-x="768" 
d="M55 1602h209l449 -1792h-209z" />
    <glyph glyph-name="uniE607" unicode="&#xe607;" horiz-adv-x="669" 
d="M147 707.5q0 484.5 302 894.5h215q-312 -399 -312 -897t312 -895h-215q-302 413 -302 897.5z" />
    <glyph glyph-name="uniE608" unicode="&#xe608;" horiz-adv-x="669" 
d="M522 703.5q0 -486.5 -301 -893.5h-217q313 400 313 896t-313 896h217q301 -412 301 -898.5z" />
    <glyph glyph-name="uniE609" unicode="&#xe609;" horiz-adv-x="669" 
d="M197 1602h415v-160h-215v-1473h215v-159h-415v1792z" />
    <glyph glyph-name="uniE60A" unicode="&#xe60a;" horiz-adv-x="669" 
d="M473 -190h-418v159h215v1473h-215v160h418v-1792z" />
    <glyph glyph-name="uniE60B" unicode="&#xe60b;" horiz-adv-x="669" 
d="M612 1442h-20q-78 0 -127 -51.5t-49 -130.5v-295q0 -92 -47 -161t-131 -97q84 -29 131 -98.5t47 -162.5v-294q0 -80 49 -131.5t127 -51.5h20v-159h-55q-150 0 -246 92t-96 233v299q0 86 -43 139.5t-111 53.5h-20v157h20q68 0 111 53.5t43 139.5v299q0 141 96.5 233.5
t245.5 92.5h55v-160z" />
    <glyph glyph-name="uniE60C" unicode="&#xe60c;" horiz-adv-x="669" 
d="M55 -31h23q78 0 127 51.5t49 131.5v294q0 92 46 162t132 99q-86 29 -132 97t-46 161v295q0 80 -49 131t-127 51h-23v160h56q150 0 247 -93t97 -233v-299q0 -86 43 -139.5t110 -53.5h19v-157h-19q-68 0 -110.5 -53.5t-42.5 -139.5v-299q0 -140 -96.5 -232.5t-247.5 -92.5
h-56v159z" />
    <glyph glyph-name="uniE60D" unicode="&#xe60d;" horiz-adv-x="808" 
d="M342 705l377 -431h-221l-408 431l408 432h221z" />
    <glyph glyph-name="uniE60E" unicode="&#xe60e;" horiz-adv-x="808" 
d="M467 705l-377 432h219l410 -432l-410 -431h-219z" />
    <glyph glyph-name="uniE60F" unicode="&#xe60f;" horiz-adv-x="1267" 
d="M342 705l377 -431h-221l-408 431l408 432h221zM801 705l377 -431h-220l-407 431l407 432h220z" />
    <glyph glyph-name="uniE610" unicode="&#xe610;" horiz-adv-x="1267" 
d="M926 705l-375 432h219l408 -432l-408 -431h-219zM467 705l-377 432h219l410 -432l-410 -431h-219z" />
    </font>
</defs>
</svg>
