<svg width="250" height="250" viewBox="0 0 250 250" fill="none" xmlns="http://www.w3.org/2000/svg">
<circle cx="125" cy="125" r="120" fill="#F5C09A"/>
<path d="M103.6 14.6C66.5 21.9 34.8 48 21 82.3C3.79995 125.2 13.3 172.1 45.6 204.4C60.3 219.1 77.5 228.9 97.8 234.1C106.1 236.2 119 237.7 119 236.6C119 236.2 105.2 216.6 88.3 193.2C71.4 169.7 57.5 149.6 57.2 148.4C56.7 145.6 58.3 144.5 70 139.6L80 135.4L69 128.4C61.8 123.9 57.7 120.7 57.4 119.3C56.9 117.7 64.4 104.7 88.2 65.9C105.4 37.7 119.7 14.3 119.8 13.8C120.3 12.6 111.5 13 103.6 14.6Z" fill="#252736"/>
<path d="M193.292 148.488L193.289 148.505L193.285 148.521C193.262 148.612 193.215 148.705 193.186 148.762C193.148 148.834 193.098 148.922 193.038 149.023C192.919 149.225 192.751 149.495 192.54 149.826C192.116 150.491 191.506 151.416 190.738 152.565C189.2 154.864 187.02 158.068 184.395 161.891C179.146 169.538 172.117 179.667 164.897 189.999C150.475 210.64 135.27 232.123 131.995 236.206C131.936 236.286 131.892 236.352 131.86 236.405C131.912 236.417 131.979 236.43 132.066 236.442C132.443 236.492 133.041 236.497 133.939 236.455C134.829 236.414 135.983 236.327 137.456 236.202C182.336 232.021 221.966 197.479 233.516 152.376L233.516 152.376C244.565 109.273 228.339 63.0776 192.698 35.9981C176.566 23.7503 156.355 15.589 137.555 13.798C137.554 13.7979 137.554 13.7978 137.553 13.7977L131.554 13.2836L132.518 14.8258C133.495 16.2527 147.58 39.7289 163.83 67.0441C174.879 85.5938 182.282 98.1988 186.873 106.368C189.168 110.451 190.765 113.434 191.764 115.499C192.263 116.531 192.619 117.346 192.838 117.96C192.947 118.267 193.026 118.535 193.071 118.763C193.113 118.974 193.137 119.205 193.087 119.412C193.03 119.673 192.894 119.937 192.721 120.193C192.543 120.456 192.307 120.738 192.022 121.038C191.451 121.638 190.656 122.336 189.659 123.118C187.664 124.684 184.822 126.619 181.266 128.823C181.265 128.824 181.264 128.824 181.263 128.825L171.075 135.309L180.193 139.139C186.025 141.581 189.406 143.102 191.258 144.375C192.192 145.017 192.794 145.633 193.111 146.325C193.433 147.028 193.426 147.737 193.292 148.488ZM131.799 236.534C131.799 236.534 131.8 236.533 131.8 236.532L131.799 236.534ZM234 152.5C245.1 109.2 228.8 62.8 193 35.6C176.8 23.3 156.5 15.1 137.6 13.3L234 152.5Z" fill="#252736" stroke="#F5C09A"/>
<path d="M96.9001 68.8C83.9001 90.1 73.3001 107.6 73.4001 107.7C73.7001 108 119.3 87.9 120.3 87.1C120.7 86.7 120.9 73.7 120.8 58.2L120.5 30.1L96.9001 68.8Z" fill="#252736"/>
<path d="M129.6 58.1C129.2 73.6 129.2 86.6 129.7 87C130.8 88 176.3 108 176.7 107.7C176.9 107.5 131.5 31.1 130.6 30.2C130.4 30.1 130 42.6 129.6 58.1Z" fill="#252736"/>
<path d="M95.6999 107.9C82.6999 113.7 72.0999 118.8 72.1999 119.2C72.4999 119.9 117.5 148.8 119.8 149.7C120.7 150.1 121 144.6 121 124.2C121 109.8 120.7 97.9 120.3 97.7C119.8 97.5 108.8 102.1 95.6999 107.9Z" fill="#252736"/>
<path d="M129.5 97.8C129.2 98.1 129 110 129 124.3C129 144.6 129.3 150.1 130.3 149.7C132.5 148.8 177.5 119.9 177.8 119.2C178.1 118.3 130.3 97.1 129.5 97.8Z" fill="#252736"/>
<path d="M79.2001 145.3C75.2001 147 72.1001 148.7 72.2001 149.1C72.5001 150 122.4 183.8 124.5 184.6C125.8 185.1 178 150.4 178 149C178 147.9 161.9 141.8 160.2 142.3C159.3 142.5 151.3 147.3 142.6 152.9C133.8 158.4 125.9 163 125 163C124.1 163 116 158.3 106.9 152.5C97.9001 146.8 89.6001 142.1 88.5001 142.1C87.4001 142.2 83.2001 143.6 79.2001 145.3Z" fill="#252736"/>
<path d="M81.6 168.1C83.5 171.3 120.2 222 120.6 222C120.8 222 121 215.5 121 207.7V193.3L103.8 181.8C79.2 165.5 80.5 166.3 81.6 168.1Z" fill="#252736"/>
<path d="M149.3 180.1L130 193.3V207.8C130 215.8 130.4 222 130.8 221.4C131.9 220.3 167.4 170 168.4 168.2C168.8 167.6 169 167 168.8 167C168.6 167 159.8 172.9 149.3 180.1Z" fill="#252736"/>
</svg>
