<svg width="24" height="24" viewBox="0 0 24 24" fill="none" xmlns="http://www.w3.org/2000/svg">
<g clip-path="url(#clip0)">
<circle cx="12" cy="12" r="12" fill="#F5C09A"/>
<path d="M9.86014 0.96001C6.15014 1.69001 2.98014 4.30001 1.60014 7.73001C-0.119858 12.02 0.830142 16.71 4.06014 19.94C5.53014 21.41 7.25014 22.39 9.28014 22.91C10.1101 23.12 11.4001 23.27 11.4001 23.16C11.4001 23.12 10.0201 21.16 8.33014 18.82C6.64014 16.47 5.25014 14.46 5.22014 14.34C5.17014 14.06 5.33014 13.95 6.50014 13.46L7.50014 13.04L6.40014 12.34C5.68014 11.89 5.27014 11.57 5.24014 11.43C5.19014 11.27 5.94014 9.97001 8.32014 6.09001C10.0401 3.27001 11.4701 0.93001 11.4801 0.88001C11.5301 0.76001 10.6501 0.80001 9.86014 0.96001Z" fill="#252736"/>
<path d="M12.7101 1.00999C12.8001 1.13999 14.2101 3.48999 15.8401 6.22999C18.0501 9.93999 18.8001 11.27 18.7601 11.43C18.7301 11.57 18.3101 11.9 17.6001 12.34L16.5001 13.04L17.5001 13.46C18.6701 13.95 18.8301 14.06 18.7801 14.34C18.7401 14.5 13.3101 22.28 12.6601 23.09C12.5701 23.21 12.6601 23.22 13.2501 23.17C17.7601 22.75 21.7401 19.28 22.9001 14.75C24.0101 10.42 22.3801 5.77999 18.8001 3.05999C17.1801 1.82999 15.1501 1.00999 13.2601 0.829994L12.5601 0.769994L12.7101 1.00999Z" fill="#252736"/>
<path d="M9.18991 6.37999C7.88991 8.50999 6.82991 10.26 6.83991 10.27C6.86991 10.3 11.4299 8.28999 11.5299 8.20999C11.5699 8.16999 11.5899 6.86999 11.5799 5.31999L11.5499 2.50999L9.18991 6.37999Z" fill="#252736"/>
<path d="M12.46 5.30999C12.42 6.85999 12.42 8.15999 12.47 8.19999C12.58 8.29999 17.13 10.3 17.17 10.27C17.19 10.25 12.65 2.60999 12.56 2.51999C12.54 2.50999 12.5 3.75999 12.46 5.30999Z" fill="#252736"/>
<path d="M9.07004 10.29C7.77004 10.87 6.71004 11.38 6.72004 11.42C6.75004 11.49 11.25 14.38 11.48 14.47C11.57 14.51 11.6 13.96 11.6 11.92C11.6 10.48 11.57 9.28999 11.53 9.26999C11.48 9.24999 10.38 9.70999 9.07004 10.29Z" fill="#252736"/>
<path d="M12.4501 9.27999C12.4201 9.30999 12.4001 10.5 12.4001 11.93C12.4001 13.96 12.4301 14.51 12.5301 14.47C12.7501 14.38 17.2501 11.49 17.2801 11.42C17.3101 11.33 12.5301 9.20999 12.4501 9.27999Z" fill="#252736"/>
<path d="M7.41996 14.03C7.01996 14.2 6.70996 14.37 6.71996 14.41C6.74996 14.5 11.74 17.88 11.95 17.96C12.08 18.01 17.3 14.54 17.3 14.4C17.3 14.29 15.69 13.68 15.52 13.73C15.43 13.75 14.63 14.23 13.76 14.79C12.88 15.34 12.09 15.8 12 15.8C11.91 15.8 11.1 15.33 10.19 14.75C9.28996 14.18 8.45996 13.71 8.34996 13.71C8.23996 13.72 7.81996 13.86 7.41996 14.03Z" fill="#252736"/>
<path d="M7.66009 16.31C7.85009 16.63 11.5201 21.7 11.5601 21.7C11.5801 21.7 11.6001 21.05 11.6001 20.27V18.83L9.88009 17.68C7.4201 16.05 7.55009 16.13 7.66009 16.31Z" fill="#252736"/>
<path d="M14.43 17.51L12.5 18.83V20.28C12.5 21.08 12.54 21.7 12.58 21.64C12.69 21.53 16.24 16.5 16.34 16.32C16.38 16.26 16.4 16.2 16.38 16.2C16.36 16.2 15.48 16.79 14.43 17.51Z" fill="#252736"/>
</g>
<defs>
<clipPath id="clip0">
<rect width="24" height="24" fill="white"/>
</clipPath>
</defs>
</svg>
