<svg width="24" height="24" viewBox="0 0 24 24" fill="none" xmlns="http://www.w3.org/2000/svg">
<g clip-path="url(#clip0)">
<circle cx="12" cy="12" r="12" fill="#F5C09A"/>
<path d="M9.86011 0.959948C6.15011 1.68995 2.98011 4.29995 1.60011 7.72995C-0.119889 12.0199 0.830111 16.7099 4.06011 19.9399C5.53011 21.4099 7.25011 22.3899 9.28011 22.9099C10.1101 23.1199 11.4001 23.2699 11.4001 23.1599C11.4001 23.1199 10.0201 21.1599 8.33011 18.8199C6.64011 16.4699 5.25011 14.4599 5.22011 14.3399C5.17011 14.0599 5.33011 13.9499 6.50011 13.4599L7.50011 13.0399L6.40011 12.3399C5.68011 11.8899 5.27011 11.5699 5.24011 11.4299C5.19011 11.2699 5.94011 9.96995 8.32011 6.08995C10.0401 3.26995 11.4701 0.929947 11.4801 0.879948C11.5301 0.759947 10.6501 0.799948 9.86011 0.959948Z" fill="#252736"/>
<path d="M12.71 1.01002C12.8 1.14002 14.21 3.49002 15.84 6.23002C18.05 9.94002 18.8 11.27 18.76 11.43C18.73 11.57 18.31 11.9 17.6 12.34L16.5 13.04L17.5 13.46C18.67 13.95 18.83 14.06 18.78 14.34C18.74 14.5 13.31 22.28 12.66 23.09C12.57 23.21 12.66 23.22 13.25 23.17C17.76 22.75 21.74 19.28 22.9 14.75C24.01 10.42 22.38 5.78002 18.8 3.06002C17.18 1.83002 15.15 1.01002 13.26 0.830023L12.56 0.770023L12.71 1.01002Z" fill="#252736"/>
<path d="M9.18982 6.38005C7.88982 8.51005 6.82982 10.2601 6.83982 10.2701C6.86982 10.3001 11.4298 8.29005 11.5298 8.21005C11.5698 8.17005 11.5898 6.87005 11.5798 5.32005L11.5498 2.51005L9.18982 6.38005Z" fill="#252736"/>
<path d="M12.4599 5.30993C12.4199 6.85993 12.4199 8.15993 12.4699 8.19993C12.5799 8.29993 17.1299 10.2999 17.1699 10.2699C17.1899 10.2499 12.6499 2.60993 12.5599 2.51993C12.5399 2.50993 12.4999 3.75993 12.4599 5.30993Z" fill="#252736"/>
<path d="M9.07004 10.29C7.77004 10.87 6.71004 11.38 6.72004 11.42C6.75004 11.49 11.25 14.38 11.48 14.47C11.57 14.51 11.6 13.96 11.6 11.92C11.6 10.48 11.57 9.29005 11.53 9.27005C11.48 9.25005 10.38 9.71005 9.07004 10.29Z" fill="#252736"/>
<path d="M12.4501 9.28005C12.4201 9.31005 12.4001 10.5 12.4001 11.93C12.4001 13.96 12.4301 14.51 12.5301 14.47C12.7501 14.38 17.2501 11.49 17.2801 11.42C17.3101 11.33 12.5301 9.21005 12.4501 9.28005Z" fill="#252736"/>
<path d="M7.41996 14.03C7.01996 14.2 6.70996 14.37 6.71996 14.41C6.74996 14.5 11.74 17.88 11.95 17.96C12.08 18.01 17.3 14.54 17.3 14.4C17.3 14.29 15.69 13.68 15.52 13.73C15.43 13.75 14.63 14.23 13.76 14.79C12.88 15.34 12.09 15.8 12 15.8C11.91 15.8 11.1 15.33 10.19 14.75C9.28996 14.18 8.45996 13.71 8.34996 13.71C8.23996 13.72 7.81996 13.86 7.41996 14.03Z" fill="#252736"/>
<path d="M7.66016 16.31C7.85016 16.63 11.5202 21.7 11.5602 21.7C11.5802 21.7 11.6002 21.05 11.6002 20.27V18.83L9.88015 17.68C7.42016 16.05 7.55016 16.13 7.66016 16.31Z" fill="#252736"/>
<path d="M14.43 17.51L12.5 18.83V20.28C12.5 21.08 12.54 21.7 12.58 21.64C12.69 21.53 16.24 16.5 16.34 16.32C16.38 16.26 16.4 16.2 16.38 16.2C16.36 16.2 15.48 16.79 14.43 17.51Z" fill="#252736"/>
</g>
<defs>
<clipPath id="clip0">
<rect width="24" height="24" fill="white"/>
</clipPath>
</defs>
</svg>
