<svg width="18" height="18" viewBox="0 0 18 18" fill="none" xmlns="http://www.w3.org/2000/svg">
<circle cx="9.03516" cy="9.03516" r="8.68359" fill="#F5C19B"/>
<path d="M7.92445 0.773438C4.91507 1.17422 2.27132 3.28359 1.20257 6.13125C0.836947 7.0875 0.710384 7.83984 0.703353 8.96484C0.696322 10.2023 0.851009 11.0461 1.28695 12.1289C1.82835 13.4719 2.86195 14.7938 4.07132 15.7008C5.20335 16.5445 6.95413 17.2195 8.11429 17.2477L8.64163 17.2617L8.66273 16.6781C8.67679 16.2773 8.6557 16.0523 8.59242 15.982C8.5432 15.9188 7.24945 14.8852 5.71663 13.6688C4.19085 12.4594 2.90413 11.4258 2.86898 11.3766C2.81976 11.3203 2.81976 10.4766 2.85492 9.03516L2.91117 6.78516L3.17835 6.56719C3.31898 6.44063 4.59163 5.4 6.00492 4.24688C7.4182 3.10078 8.59242 2.12344 8.62757 2.08125C8.6557 2.03906 8.66976 1.71563 8.66273 1.37109C8.64163 0.646875 8.67679 0.675 7.92445 0.773438Z" fill="#202233"/>
<path d="M9.35879 0.752344C9.33066 0.773438 9.30957 1.08984 9.30957 1.44141V2.08828L12.2275 4.39453L15.1455 6.70781V9.03516V11.3695L12.2275 13.6758L9.30957 15.9891V16.643V17.2969H9.62598C10.0619 17.2969 10.8986 17.1211 11.665 16.868C14.1611 16.0383 16.1932 13.9078 16.9314 11.3625C17.2197 10.3711 17.276 9.92109 17.2338 8.73281C17.1986 7.38281 17.0088 6.60234 16.4533 5.44922C15.5252 3.52969 13.908 2.025 11.9533 1.27266C11.1518 0.963282 9.47832 0.625782 9.35879 0.752344Z" fill="#202233"/>
<path d="M8.34642 3.19923C7.95267 3.51564 7.65736 3.82501 7.57298 3.98673C7.44642 4.25392 7.32689 4.35236 6.56048 4.78126C5.62533 5.30861 4.70423 6.39142 4.39486 7.33361C4.19798 7.9172 4.08548 8.85236 4.14876 9.42189C4.32455 11.1375 5.25267 12.382 7.15111 13.4578C7.48861 13.6477 7.6222 13.8516 7.6222 14.168C7.6222 14.2875 7.79095 14.4633 8.2972 14.8641L8.97923 15.3914L9.5347 14.9555C9.84408 14.7164 10.1394 14.4844 10.1956 14.4422C10.2519 14.4 10.2941 14.2734 10.2941 14.1609C10.2941 13.8445 10.4417 13.6969 11.1378 13.282C12.2628 12.6281 13.0925 11.7211 13.43 10.793C13.7605 9.87892 13.8167 8.47267 13.5566 7.59376C13.2261 6.4547 12.2769 5.3297 11.1167 4.68986C10.4839 4.33126 10.2941 4.15548 10.2941 3.90236C10.2941 3.74064 10.1394 3.57892 9.4433 3.03751L8.97923 2.67892L8.34642 3.19923ZM9.46439 4.97111C9.5558 5.05548 9.59095 5.18204 9.59095 5.45626V5.83595L10.0058 6.03986C10.7019 6.39142 11.1449 7.06642 10.9902 7.52345C10.9269 7.68517 10.8636 7.72736 10.6035 7.76954C10.1745 7.83282 10.0269 7.76954 9.67533 7.37579C9.3097 6.96798 9.00736 6.85548 8.55736 6.97501C8.19173 7.06642 8.04408 7.24923 8.04408 7.60782C8.04408 7.94532 8.19876 8.0297 9.26048 8.26173C10.6667 8.57814 11.166 8.97189 11.2574 9.85782C11.3417 10.7086 10.9269 11.4117 10.0831 11.8406C9.6472 12.0586 9.62611 12.0797 9.60501 12.3469C9.56986 12.8672 9.5347 12.9305 9.23236 13.0078C8.90892 13.0992 8.56439 13.043 8.38158 12.8813C8.29017 12.8039 8.25501 12.6703 8.25501 12.4102V12.0445L7.85423 11.8969C7.29173 11.6859 6.94017 11.3766 6.70111 10.8703C6.4972 10.4344 6.45501 10.2305 6.55345 10.0758C6.6308 9.95626 6.96126 9.84376 7.24251 9.84376C7.5097 9.84376 7.74173 10.0406 8.00892 10.4836C8.19173 10.793 8.41673 10.8984 8.90892 10.8984C9.56986 10.8984 9.8722 10.6734 9.8722 10.1742C9.8722 9.78751 9.64017 9.65392 8.5433 9.42189C7.76283 9.25314 7.34095 9.06329 7.02454 8.71173C6.54642 8.18439 6.53939 7.21407 7.01048 6.58829C7.21439 6.32111 7.7347 5.99064 8.13548 5.87814C8.22689 5.85001 8.25501 5.76564 8.25501 5.50548C8.25501 4.97814 8.38158 4.85157 8.90189 4.85157C9.20423 4.85157 9.37298 4.88673 9.46439 4.97111Z" fill="#202233"/>
</svg>
