<svg
    width="11"
    height="11"
    viewBox="0 0 11 11"
    fill="none"
    xmlns="http://www.w3.org/2000/svg"
  >
    <path
      fillRule="evenodd"
      clipRule="evenodd"
      d="M5.23467 1H5.5C7.98605 1 10 3.01525 10 5.49924C10 7.98311 7.98618 10 5.5 10C3.01388 10 1 7.98469 1 5.49924C1 4.30732 1.46423 3.22282 2.21973 2.41912L2.60641 2.78249C1.93974 3.49169 1.53066 4.4476 1.53066 5.49924C1.53066 7.69191 3.30721 9.46943 5.5 9.46943C7.69273 9.46943 9.46934 7.69046 9.46934 5.49924C9.46934 3.39724 7.83438 1.67581 5.76533 1.5393V2.96008H5.23467V1Z"
      strokeWidth="0.3"
      strokeMiterlimit="10"
    />
    <path d="M5.85879 5.41311L3 3L5.41281 5.85768C5.47056 5.94243 5.56842 6 5.67911 6C5.85719 6 5.99997 5.85608 5.99997 5.68017C6.00157 5.56823 5.94542 5.47068 5.85879 5.41311Z" />
  </svg>