<svg width="18" height="18" viewBox="0 0 18 18" fill="none" xmlns="http://www.w3.org/2000/svg">
<path d="M9 18C13.9706 18 18 13.9706 18 9C18 4.02944 13.9706 0 9 0C4.02944 0 0 4.02944 0 9C0 13.9706 4.02944 18 9 18Z" fill="#22996E"/>
<path d="M9.00009 13.0097H4.07461C3.40751 13.0097 3.00426 12.2722 3.36434 11.7106L6.16663 7.34002C6.37349 7.01737 6.7304 6.82224 7.11369 6.82224H10.8865C11.2698 6.82224 11.6267 7.01737 11.8335 7.34002L14.6358 11.7106C14.9959 12.2722 14.5927 13.0097 13.9256 13.0097H9.00009Z" fill="white"/>
<path d="M9.50335 2.95608L10.6803 4.75447C10.9251 5.12859 10.6567 5.625 10.2096 5.625H7.81175C7.36034 5.625 7.09281 5.12004 7.34636 4.74654L8.5673 2.94815C8.79278 2.61604 9.28356 2.6202 9.50335 2.95608Z" fill="white"/>
</svg>
