<svg width="18" height="18" viewBox="0 0 18 18" fill="none" xmlns="http://www.w3.org/2000/svg">
<circle cx="9" cy="9.375" r="7.5" fill="white"/>
<path d="M7.74642 0.984555C3.70345 1.70174 0.76439 5.13299 0.750328 9.16893C0.743297 10.1814 0.848765 10.9056 1.12298 11.7775C1.90345 14.2455 3.85814 16.2705 6.29798 17.1494C7.47923 17.5713 9.22298 17.74 10.4394 17.5431C14.18 16.9385 17.0206 13.9853 17.4917 10.2096C17.5902 9.42909 17.5831 8.9158 17.4566 8.08612C17.1613 6.13143 16.3386 4.55643 14.8831 3.17127C13.7933 2.13768 12.6542 1.5119 11.1074 1.11815C10.2425 0.893149 8.63236 0.829868 7.74642 0.984555ZM5.71439 4.47206C5.98861 4.74627 6.32611 5.06268 6.47376 5.18221L6.74095 5.40018L7.08548 5.21034C8.22455 4.59159 10.0878 4.60565 11.2128 5.23846L11.5925 5.45643L12.3027 4.71112C12.6894 4.30331 13.0269 3.97284 13.055 3.97284C13.0761 3.97987 13.3995 4.26112 13.7652 4.60565L14.4331 5.23143L13.6667 5.99784L12.9074 6.77127L13.1253 7.21424C13.4277 7.84002 13.5613 8.40955 13.5613 9.10565C13.5683 9.90721 13.4488 10.4697 13.1394 11.1096L12.8792 11.6439L13.6738 12.3963L14.4753 13.1486L13.8706 13.8025C13.5331 14.1541 13.2238 14.4494 13.1745 14.4494C13.1253 14.4494 12.9777 14.3369 12.8441 14.1963C12.7175 14.0556 12.3589 13.7252 12.0636 13.458L11.5222 12.9658L11.1074 13.1767C10.4956 13.4861 9.89095 13.6197 9.12455 13.6197C8.33705 13.6197 7.72533 13.4791 7.10658 13.1556L6.67064 12.9236L5.88314 13.7181L5.09564 14.5127L4.4558 13.915C4.10423 13.5846 3.80189 13.2822 3.78783 13.24C3.77377 13.1978 4.1183 12.8111 4.55423 12.3752L5.34173 11.5877L5.12376 11.1517C4.80033 10.5189 4.67377 9.9494 4.67377 9.17596C4.67377 8.39549 4.81439 7.78377 5.14486 7.15799L5.37689 6.72909L4.64564 6.04705C4.25189 5.6744 3.92142 5.32987 3.92142 5.28768C3.92142 5.21034 5.1097 3.97284 5.18705 3.97284C5.20814 3.97284 5.4472 4.19784 5.71439 4.47206Z" fill="black"/>
<path d="M8.38623 6.5955C7.58467 6.86268 7.05732 7.31971 6.70576 8.05096C6.50889 8.46581 6.48779 8.57128 6.48779 9.17596C6.48779 9.78065 6.50889 9.88612 6.71279 10.315C6.98701 10.8916 7.45811 11.3767 7.98545 11.6228C8.33701 11.7916 8.47061 11.8127 9.12451 11.8127C9.79951 11.8127 9.89795 11.7916 10.2847 11.6088C10.819 11.3416 11.269 10.8775 11.5433 10.301C11.7401 9.89315 11.7612 9.77362 11.7612 9.17596C11.7612 8.56425 11.7401 8.46581 11.5362 8.05096C11.0651 7.09471 10.2706 6.56737 9.22998 6.52518C8.89248 6.51112 8.55498 6.53925 8.38623 6.5955Z" fill="black"/>
</svg>
