<svg width="18" height="18" viewBox="0 0 18 18" fill="none" xmlns="http://www.w3.org/2000/svg">
<path d="M7.62191 0.738278C3.57894 1.45547 0.639879 4.88672 0.625816 8.92265C0.618785 9.93515 0.724254 10.6594 0.998472 11.5312C1.77894 13.9992 3.73363 16.0242 6.17347 16.9031C7.35472 17.325 9.09847 17.4937 10.3149 17.2969C14.0555 16.6922 16.8961 13.7391 17.3672 9.96328C17.4657 9.18281 17.4586 8.66953 17.3321 7.83984C17.0368 5.88515 16.2141 4.31015 14.7586 2.925C13.6688 1.8914 12.5297 1.26562 10.9828 0.871872C10.118 0.646872 8.50785 0.583591 7.62191 0.738278ZM5.58988 4.22578C5.8641 4.5 6.2016 4.8164 6.34925 4.93593L6.61644 5.1539L6.96097 4.96406C8.10003 4.34531 9.96332 4.35937 11.0883 4.99218L11.468 5.21015L12.1782 4.46484C12.5649 4.05703 12.9024 3.72656 12.9305 3.72656C12.9516 3.73359 13.275 4.01484 13.6407 4.35937L14.3086 4.98515L13.5422 5.75156L12.7828 6.525L13.0008 6.96797C13.3032 7.59375 13.4368 8.16328 13.4368 8.85937C13.4438 9.66093 13.3243 10.2234 13.0149 10.8633L12.7547 11.3977L13.5493 12.15L14.3508 12.9023L13.7461 13.5562C13.4086 13.9078 13.0993 14.2031 13.05 14.2031C13.0008 14.2031 12.8532 14.0906 12.7196 13.95C12.593 13.8094 12.2344 13.4789 11.9391 13.2117L11.3977 12.7195L10.9828 12.9305C10.3711 13.2398 9.76644 13.3734 9.00003 13.3734C8.21253 13.3734 7.60082 13.2328 6.98207 12.9094L6.54613 12.6773L5.75863 13.4719L4.97113 14.2664L4.33128 13.6687C3.97972 13.3383 3.67738 13.0359 3.66332 12.9937C3.64925 12.9516 3.99378 12.5648 4.42972 12.1289L5.21722 11.3414L4.99925 10.9055C4.67582 10.2727 4.54925 9.70312 4.54925 8.92968C4.54925 8.14922 4.68988 7.5375 5.02035 6.91172L5.25238 6.48281L4.52113 5.80078C4.12738 5.42812 3.79691 5.08359 3.79691 5.0414C3.79691 4.96406 4.98519 3.72656 5.06253 3.72656C5.08363 3.72656 5.32269 3.95156 5.58988 4.22578Z" fill="black"/>
<path d="M8.26172 6.34922C7.46016 6.61641 6.93281 7.07344 6.58125 7.80469C6.38437 8.21953 6.36328 8.325 6.36328 8.92969C6.36328 9.53438 6.38437 9.63984 6.58828 10.0688C6.8625 10.6453 7.33359 11.1305 7.86094 11.3766C8.2125 11.5453 8.34609 11.5664 9 11.5664C9.675 11.5664 9.77344 11.5453 10.1602 11.3625C10.6945 11.0953 11.1445 10.6313 11.4187 10.0547C11.6156 9.64688 11.6367 9.52734 11.6367 8.92969C11.6367 8.31797 11.6156 8.21953 11.4117 7.80469C10.9406 6.84844 10.1461 6.32109 9.10547 6.27891C8.76797 6.26484 8.43047 6.29297 8.26172 6.34922Z" fill="black"/>
</svg>
