<svg width="56" height="32" viewBox="0 0 56 32" fill="none" xmlns="http://www.w3.org/2000/svg">
<path d="M50.8971 13.8986L34.2368 2.46698C33.4241 1.9066 32.3792 1.85057 31.5085 2.29887C30.6377 2.74716 30.0572 3.58773 30.0572 4.54036V10.9286L6.54709 12.3856C4.68949 12.4977 3.12215 13.9546 3.00605 15.8039C2.88995 17.8212 4.4573 19.5584 6.54709 19.6704L30.0572 21.0714V27.4596C30.0572 28.4123 30.6377 29.3089 31.5085 29.7011C32.3792 30.1494 33.4241 30.0934 34.2368 29.533L50.8971 18.1014C51.5937 17.5971 52 16.8686 52 16.028C52 15.1875 51.5937 14.4029 50.8971 13.8986Z" fill="#EEBA0B"/>
</svg>
