<svg width="104" height="104" viewBox="0 0 104 104" fill="none" xmlns="http://www.w3.org/2000/svg">
<path d="M102.44 64.5839C95.4993 92.4382 67.2789 109.391 39.4163 102.44C11.5536 95.4885 -5.39162 67.2822 1.56026 39.4253C8.51214 11.5683 36.7185 -5.39252 64.5749 1.55989C92.4313 8.51229 109.392 36.7202 102.44 64.5839Z" fill="#FFEB3A"/>
<path d="M74.9323 44.5915C75.966 37.6719 70.6974 33.9518 63.4923 31.4704L65.8323 22.0974L60.1248 20.6757L57.8451 29.8022C56.3465 29.4289 54.8062 29.0742 53.2753 28.7269L55.5633 19.54L49.8615 18.1183L47.5283 27.4877L36.0197 24.6371L34.5013 30.732C34.5013 30.732 38.7351 31.7023 38.6457 31.7626C40.9565 32.3398 41.3757 33.8686 41.3049 35.0813L34.9017 60.7588C34.6188 61.4608 33.9022 62.5133 32.2871 62.1108C32.3443 62.194 28.1396 61.0708 28.1396 61.0708L25.3066 67.6119L36.7986 70.5135L34.4368 79.9957L40.136 81.4174L42.476 72.0371C44.036 72.4593 45.544 72.8494 47.0218 73.2165L44.6912 82.5531L50.3977 83.9747L52.7595 74.5107C62.4902 76.3516 69.8077 75.609 72.8835 66.8148C75.3649 59.7298 72.7618 55.6426 67.6419 52.976C71.3703 52.1128 74.1783 49.6615 74.9276 44.5952L74.9323 44.5915ZM61.8907 62.8742C60.1227 69.9592 48.1965 66.1304 44.3267 65.1684L47.4602 52.6078C51.3279 53.573 63.7304 55.4845 61.8928 62.8732L61.8907 62.8742ZM63.6608 44.4912C62.0519 50.9392 52.1215 47.6632 48.8985 46.8593L51.7356 35.464C54.9596 36.2689 65.3341 37.7676 63.6566 44.4907" fill="black"/>
</svg>
