<svg width="104" height="104" viewBox="0 0 104 104" fill="none" xmlns="http://www.w3.org/2000/svg">
<path d="M102.44 64.5839C95.4991 92.4382 67.2787 109.391 39.416 102.44C11.5534 95.4885 -5.39186 67.2822 1.56002 39.4253C8.5119 11.5683 36.7183 -5.39252 64.5747 1.55989C92.4311 8.51229 109.392 36.7202 102.44 64.5839Z" fill="#F7931A"/>
<path d="M74.9319 44.5915C75.9657 37.6719 70.697 33.9518 63.4919 31.4704L65.8319 22.0974L60.1244 20.6757L57.8447 29.8022C56.3461 29.4289 54.8058 29.0742 53.275 28.7269L55.563 19.54L49.8612 18.1184L47.5279 27.4877L36.0193 24.6371L34.5009 30.732C34.5009 30.732 38.7347 31.7023 38.6453 31.7626C40.9562 32.3398 41.3753 33.8686 41.3046 35.0813L34.9013 60.7589C34.6184 61.4609 33.9019 62.5133 32.2867 62.1109C32.3439 62.1941 28.1392 61.0709 28.1392 61.0709L25.3063 67.6119L36.7983 70.5135L34.4364 79.9957L40.1356 81.4174L42.4756 72.0371C44.0356 72.4594 45.5436 72.8494 47.0215 73.2165L44.6908 82.5531L50.3973 83.9748L52.7591 74.5108C62.4899 76.3516 69.8073 75.609 72.8831 66.8148C75.3645 59.7298 72.7614 55.6426 67.6415 52.976C71.3699 52.1128 74.1779 49.6615 74.9272 44.5952L74.9319 44.5915ZM61.8903 62.8742C60.1223 69.9592 48.1961 66.1305 44.3263 65.1685L47.4598 52.6079C51.3276 53.573 63.7301 55.4845 61.8924 62.8732L61.8903 62.8742ZM63.6604 44.4912C62.0515 50.9392 52.1211 47.6632 48.8981 46.8593L51.7352 35.464C54.9592 36.269 65.3338 37.7676 63.6562 44.4907" fill="white"/>
</svg>
