<svg width="20" height="20" viewBox="0 0 20 20" fill="none" xmlns="http://www.w3.org/2000/svg">
<path d="M18.7643 1.81323C18.6591 1.35069 18.0705 1.1825 17.7341 1.51889L16.6829 2.57011C12.7513 -0.961989 6.71729 -0.856867 2.9329 2.9065C-0.977634 6.81704 -0.977634 13.1664 2.9329 17.0769C3.05905 17.2031 3.1852 17.3082 3.29032 17.4344C3.50056 17.6236 3.75285 17.7077 4.00515 17.7077C4.29949 17.7077 4.59383 17.5815 4.80407 17.3503C5.20354 16.9087 5.16149 16.236 4.71998 15.8365L4.42563 15.5632C1.3771 12.4936 1.3771 7.48982 4.44666 4.42026C7.39007 1.47684 12.0785 1.39274 15.1691 4.08387L14.0128 5.24021C13.6764 5.5766 13.8446 6.16528 14.3071 6.2704L19.2268 7.46879C19.6683 7.57392 20.0888 7.17445 19.9837 6.71191L18.7643 1.81323Z" fill="white"/>
<path d="M13.5291 10.9588L11.0693 9.40304V5.47148C11.0693 4.88279 10.5857 4.39923 9.99705 4.39923C9.40837 4.39923 8.9248 4.88279 8.9248 5.47148V9.97069C8.9248 10.3281 9.11402 10.6855 9.42939 10.8747L12.3728 12.7459C12.541 12.851 12.7512 12.9141 12.9405 12.9141C13.2979 12.9141 13.6343 12.7459 13.8445 12.4095C14.1809 11.926 14.0337 11.2742 13.5291 10.9588Z" fill="white"/>
<path d="M7.95791 17.5815L7.55845 17.4554C6.99079 17.2662 6.38108 17.5815 6.21289 18.1282C6.02367 18.6958 6.33903 19.3055 6.88567 19.4737C7.05386 19.5368 7.22206 19.5788 7.39025 19.6209C7.47435 19.6419 7.57947 19.6629 7.66357 19.6629C8.12611 19.6629 8.56762 19.3476 8.69377 18.864C8.86196 18.3174 8.52557 17.7287 7.95791 17.5815Z" fill="white"/>
<path d="M11.595 17.6866L11.1745 17.7497C10.5858 17.8338 10.1864 18.3804 10.2704 18.9691C10.3545 19.4947 10.8171 19.8942 11.3217 19.8942C11.3637 19.8942 11.4268 19.8942 11.4899 19.8732C11.6581 19.8521 11.8473 19.8101 12.0155 19.7891C12.6042 19.6629 12.9616 19.1163 12.8564 18.5276C12.7303 17.96 12.1626 17.5815 11.595 17.6866Z" fill="white"/>
<path d="M14.8749 16.1729L14.5385 16.4252C14.0549 16.7616 13.9498 17.4344 14.2862 17.9179C14.4964 18.2123 14.8328 18.3805 15.1692 18.3805C15.3795 18.3805 15.5897 18.3174 15.7789 18.1912C15.9261 18.0861 16.0733 17.981 16.1994 17.8759C16.6619 17.5185 16.746 16.8246 16.3676 16.3621C16.0312 15.8785 15.3374 15.8155 14.8749 16.1729Z" fill="white"/>
</svg>
