<svg width="92" height="98" viewBox="0 0 92 98" fill="none" xmlns="http://www.w3.org/2000/svg">
<path d="M19.9546 79.6858C23.2378 79.5155 26.3021 78.1536 28.6369 75.8189L63.9252 40.5306C64.3386 40.7981 64.8007 40.944 65.2628 40.944C65.8951 40.944 66.5031 40.7008 66.9895 40.2387L75.2583 31.9699L76.0122 35.3504L56.313 55.0496C55.3645 55.9981 55.3645 57.5302 56.313 58.4787C56.7994 58.9651 57.4074 59.184 58.0397 59.184C58.6721 59.184 59.2801 58.9408 59.7665 58.4787L80.4141 37.8311C80.9978 37.2474 81.241 36.3962 81.0708 35.5693L79.3441 27.8842L80.9249 26.3034C86.6887 20.5395 86.6887 11.1763 80.9249 5.41249L80.3169 4.80449C74.553 -0.959347 65.1898 -0.959347 59.426 4.80449L45.4906 18.7399C45.0285 19.2019 44.7853 19.8099 44.7853 20.4666C44.7853 20.953 44.9313 21.4151 45.1988 21.8042L9.8375 57.1168C7.55142 59.4029 6.1895 62.4186 5.99494 65.6288L5.31398 76.4269L0.790462 80.9504C-0.158018 81.8989 -0.158018 83.4311 0.790462 84.3795C1.27686 84.8659 1.88486 85.0848 2.51718 85.0848C3.1495 85.0848 3.7575 84.8416 4.2439 84.3795L8.3783 80.2451L19.9546 79.6858ZM62.8551 8.23361C66.722 4.36673 72.9965 4.36673 76.8634 8.23361L77.4714 8.84161C81.3383 12.7085 81.3383 18.9831 77.4714 22.8499L65.2628 35.0586L60.4717 30.2675L50.6465 20.4423L62.8551 8.23361ZM10.8346 65.9693C10.9562 63.9264 11.8317 62.0294 13.2666 60.5703L48.5793 25.2576L54.5133 31.1917L60.4474 37.1258L25.1834 72.3898C23.7242 73.849 21.7786 74.7245 19.6871 74.8218L10.2266 75.3082L10.8346 65.9693Z" fill="#EA860B"/>
<path d="M90.9446 56.2413C90.7257 54.928 89.4611 54.0282 88.1235 54.2471C86.8102 54.4659 85.9103 55.7306 86.1292 57.0682C88.1964 69.0823 78.7846 75.673 70.5401 79.0778C68.5459 79.9047 66.4057 80.6343 64.1439 81.2423C63.6819 80.7316 63.1468 80.2452 62.5145 79.7588C57.7478 76.1351 52.0326 73.776 46.3903 73.1437C41.1372 72.56 36.5651 73.4842 33.8412 75.6973C31.3119 77.7645 30.6553 80.7559 32.0902 83.6986C33.8899 87.3953 40.6751 88.2951 46.0742 88.3924C50.1113 88.4653 54.4646 88.1005 58.7206 87.3709C55.8265 88.9517 50.1113 90.8001 40.9913 91.8945C29.7798 93.2321 18.2764 92.7943 11.6371 90.7514C10.3481 90.3623 8.98618 91.0676 8.59706 92.3565C8.20794 93.6455 8.91322 95.0074 10.2022 95.3965C15.2121 96.9287 21.6812 97.5124 28.0531 97.5124C32.8198 97.5124 37.5379 97.1962 41.5507 96.7098C49.1628 95.81 62.3443 93.4266 65.2627 87.7601C65.6031 87.1034 65.7977 86.4468 65.8463 85.7658C66.5759 85.5469 67.3055 85.3281 68.0351 85.1092C75.4041 82.7501 81.3868 79.2724 85.3023 75.0407C90.3123 69.7876 92.1849 63.44 90.9446 56.2413ZM48.4819 83.5527C40.7238 83.7229 37.0271 82.288 36.5164 81.5828C36.0787 80.6829 36.2003 80.0992 36.9785 79.4669C39.7267 77.2295 49.1628 76.4999 58.1612 82.5556C54.951 83.1392 51.6678 83.4797 48.4819 83.5527Z" fill="#EA860B"/>
</svg>
