<svg width="20" height="20" viewBox="0 0 20 20" fill="none" xmlns="http://www.w3.org/2000/svg">
<path d="M18.8133 0.58194L9.85149 10.2314L7.09868 6.41115C7.04855 6.33538 6.98362 6.27053 6.90778 6.22049C6.83195 6.17045 6.74679 6.13625 6.65741 6.11995C6.56803 6.10365 6.47628 6.10559 6.38766 6.12564C6.29905 6.14569 6.2154 6.18345 6.14175 6.23664C6.0681 6.28984 6.00595 6.35737 5.95906 6.43519C5.91216 6.513 5.88148 6.59949 5.86885 6.68947C5.85622 6.77944 5.86191 6.87104 5.88557 6.95875C5.90924 7.04647 5.95038 7.1285 6.00655 7.19992L9.24026 11.6898C9.29864 11.7708 9.37429 11.8378 9.46173 11.886C9.54917 11.9342 9.64622 11.9624 9.74587 11.9685H9.78632C9.87981 11.9673 9.97203 11.9468 10.0571 11.9081C10.1423 11.8694 10.2184 11.8134 10.2807 11.7437L19.7998 1.49879C19.86 1.43387 19.9068 1.35773 19.9376 1.27471C19.9684 1.19169 19.9825 1.10342 19.9792 1.01494C19.9758 0.926467 19.9551 0.839514 19.9181 0.75905C19.8812 0.678586 19.8288 0.606187 19.7639 0.545985C19.6989 0.485784 19.6228 0.438959 19.5398 0.408185C19.4567 0.377412 19.3685 0.363291 19.28 0.366629C19.1915 0.369968 19.1046 0.390701 19.0241 0.427644C18.9436 0.464587 18.8712 0.517017 18.811 0.58194H18.8133Z" fill="#00F4D7"/>
<path d="M18.3393 7.2089C18.1642 7.24413 18.0101 7.34748 17.9111 7.49622C17.8121 7.64497 17.7762 7.82694 17.8112 8.00215C17.9214 8.55037 17.9771 9.10814 17.9775 9.66732C17.9775 11.8725 17.1015 13.9873 15.5422 15.5466C13.983 17.1059 11.8681 17.9819 9.66293 17.9819C7.45776 17.9819 5.34291 17.1059 3.78362 15.5466C2.22433 13.9873 1.34833 11.8725 1.34833 9.66732C1.3482 8.22781 1.72181 6.81293 2.43259 5.56114C3.14336 4.30935 4.16696 3.26354 5.4032 2.52605C6.63944 1.78856 8.04598 1.38467 9.48516 1.35389C10.9243 1.32311 12.3469 1.66651 13.6135 2.35047C13.7708 2.43629 13.9558 2.45609 14.1278 2.40552C14.2997 2.35495 14.4445 2.23815 14.5303 2.0808C14.6162 1.92346 14.636 1.73847 14.5854 1.56653C14.5348 1.39459 14.418 1.24977 14.2607 1.16395C12.4 0.15737 10.2604 -0.210787 8.17032 0.115989C6.08022 0.442765 4.15511 1.44641 2.69046 2.97289C1.22582 4.49937 0.302583 6.46431 0.0624613 8.56613C-0.17766 10.668 0.278601 12.7905 1.36122 14.608C2.44383 16.4255 4.09297 17.8375 6.05551 18.6272C8.01806 19.417 10.1855 19.5409 12.2253 18.9799C14.2651 18.4189 16.0644 17.2041 17.347 15.5218C18.6297 13.8395 19.3249 11.7828 19.3259 9.66732C19.3252 9.01908 19.2604 8.37249 19.1326 7.73698C19.0974 7.5618 18.994 7.40778 18.8453 7.30876C18.6965 7.20974 18.5146 7.17382 18.3393 7.2089Z" fill="#00F4D7"/>
</svg>
