<svg width="104" height="104" viewBox="0 0 104 104" fill="none" xmlns="http://www.w3.org/2000/svg">
<g clip-path="url(#clip0)">
<path d="M94.3339 42.6422L102.853 41.1392C101.827 36.3225 100.135 31.7516 97.8757 27.5262L90.387 31.8531C92.1558 35.2146 93.4944 38.8353 94.3339 42.6422Z" fill="#65D03D"/>
<path d="M78.5831 86.243C75.5688 88.5913 72.2442 90.5564 68.6721 92.0518L71.6269 100.178C76.15 98.3253 80.3519 95.852 84.1345 92.8662L78.5831 86.243Z" fill="#65D03D"/>
<path d="M17.585 32.1919C17.5137 32.3152 17.4248 32.4217 17.3309 32.5207C15.2257 36.2588 13.7102 40.3676 12.9025 44.7255C12.9168 44.8815 12.9185 45.04 12.89 45.2019C12.8606 45.368 12.8036 45.5206 12.734 45.6657C12.4035 47.7289 12.2257 49.8416 12.2257 51.9962C12.2257 54.2465 12.4228 56.4497 12.7834 58.5993C12.8463 58.736 12.8983 58.8795 12.926 59.0346C12.9529 59.1864 12.9529 59.3357 12.942 59.4825C13.7798 63.8698 15.3398 68.0004 17.4928 71.7519C17.5632 71.8349 17.6295 71.923 17.6865 72.0203C17.7444 72.1209 17.7897 72.2249 17.8257 72.3306C20.1489 76.2264 23.1146 79.6936 26.5793 82.5837C26.5843 82.5879 26.5902 82.5904 26.5952 82.5946C26.6019 82.6005 26.6069 82.608 26.6137 82.6139C33.5061 88.3481 42.3569 91.8027 51.9995 91.8027C73.9308 91.8027 91.7733 73.9459 91.7733 51.9954C91.7733 30.0449 73.9308 12.1897 51.9995 12.1897C47.3154 12.1897 42.8207 13.01 38.644 14.5054C38.5635 14.5498 38.483 14.5934 38.3941 14.6261C38.2926 14.663 38.1903 14.6899 38.0879 14.7083C33.9188 16.2717 30.0767 18.511 26.7034 21.3014C26.6271 21.3987 26.5407 21.4909 26.4426 21.574C26.3579 21.6452 26.2681 21.7073 26.175 21.7602C22.8462 24.6117 19.9929 28.0001 17.7494 31.7944C17.71 31.9294 17.6588 32.0636 17.585 32.1919ZM39.2043 58.201H43.7383C43.8238 61.0207 44.5577 63.0638 45.9416 64.3285C47.0688 65.3366 48.6908 65.9439 50.8086 66.1485V52.4072L50.1426 52.2277C46.5949 51.3219 44.0117 50.0655 42.3938 48.4594C40.7634 46.8701 39.9474 44.7851 39.9474 42.2044C39.9474 38.9569 41.015 36.3762 43.1495 34.4623C45.0961 32.7363 47.6492 31.7793 50.8086 31.5906V28.6677H53.2936V31.6418C56.2819 31.864 58.7117 32.7438 60.5727 34.282C62.7584 36.0936 63.92 38.5803 64.0567 41.7423H59.625C59.4371 39.7252 58.6605 38.1702 57.2942 37.0765C56.2693 36.2395 54.9333 35.7262 53.2936 35.5384V48.2539L54.9845 48.6901C58.4038 49.5615 60.8973 50.8179 62.4682 52.4584C64.0181 54.0989 64.7948 56.2694 64.7948 58.97C64.7948 62.4054 63.6852 65.1395 61.4651 67.1734C59.4162 69.0362 56.6921 70.0451 53.2936 70.1986V75.3256H50.8086V70.1726C47.1711 69.916 44.3874 68.9246 42.4576 67.1986C40.2887 65.2159 39.2043 62.3106 39.2043 58.4819V58.201Z" fill="#65D03D"/>
<path d="M94.3692 61.1993C93.5439 65.0087 92.2162 68.6302 90.4608 71.9976L97.9488 76.3245C100.194 72.0941 101.876 67.5215 102.887 62.7031L94.3692 61.1993Z" fill="#65D03D"/>
<path d="M95.3596 51.9971C95.3596 53.9185 95.2212 55.8064 94.978 57.6625L103.494 59.1654C103.819 56.8204 103.999 54.4301 103.999 51.9971C103.999 49.5111 103.813 47.0688 103.474 44.6744L94.9579 46.1773C95.2145 48.082 95.3596 50.0228 95.3596 51.9971Z" fill="#65D03D"/>
<path d="M50.8086 35.4872V35.4612C48.9517 35.5979 47.4916 36.1364 46.4365 37.0765C45.2237 38.1534 44.6182 39.7344 44.6182 41.8194C44.6182 43.2209 45.139 44.4085 46.1807 45.3831C47.2181 46.34 48.7639 47.0747 50.8086 47.588V35.4872Z" fill="#65D03D"/>
<path d="M78.4489 17.6446L84.0012 11.0222C80.2052 8.04568 75.9899 5.5866 71.4558 3.74816L68.5002 11.8735C72.0832 13.3555 75.4229 15.3055 78.4489 17.6446Z" fill="#65D03D"/>
<path d="M25.5133 17.6731C28.546 15.3231 31.8941 13.3647 35.4871 11.8777L32.5315 3.75152C27.9874 5.59583 23.7637 8.06413 19.9611 11.0507L25.5133 17.6731Z" fill="#65D03D"/>
<path d="M53.7927 8.64619C57.7296 8.80722 61.5331 9.49328 65.1337 10.6415L68.0884 2.51611C63.5619 1.03831 58.7654 0.169418 53.7927 0V8.64619Z" fill="#65D03D"/>
<path d="M60.1492 59.7131C60.1492 58.0726 59.6586 56.7139 58.6681 55.637C57.6944 54.5778 56.2174 53.7911 54.2406 53.2786L53.2928 53.048V66.1997C55.393 66.0973 57.0284 65.5505 58.2068 64.5592C59.5051 63.4479 60.1492 61.8325 60.1492 59.7131Z" fill="#65D03D"/>
<path d="M38.8538 10.6448C42.4577 9.49412 46.2646 8.80722 50.2065 8.64619V0C45.2296 0.170257 40.4297 1.03999 35.899 2.5203L38.8538 10.6448Z" fill="#65D03D"/>
<path d="M15.36 28.8346C17.4316 25.5628 19.9209 22.5821 22.7649 19.9787L17.2111 13.3547C13.6038 16.6105 10.4595 20.3671 7.87378 24.5086L15.36 28.8346Z" fill="#65D03D"/>
<path d="M22.9351 84.1706C20.0802 81.5848 17.5783 78.6192 15.4908 75.3625L8.00452 79.6885C10.607 83.8149 13.7664 87.553 17.3854 90.7904L22.9351 84.1706Z" fill="#65D03D"/>
<path d="M88.6719 75.1084C86.6162 78.365 84.1446 81.3324 81.3248 83.929L86.8829 90.5581C90.4667 87.3081 93.5892 83.5608 96.1581 79.4344L88.6719 75.1084Z" fill="#65D03D"/>
<path d="M1.10962 41.3011L9.62832 42.804C10.4578 38.9703 11.7964 35.327 13.5669 31.942L6.07893 27.6151C3.81695 31.864 2.12445 36.4584 1.10962 41.3011Z" fill="#65D03D"/>
<path d="M81.2007 19.9469C84.0338 22.5351 86.5155 25.4991 88.5855 28.7499L96.0717 24.4247C93.4885 20.3033 90.3509 16.5652 86.7537 13.3245L81.2007 19.9469Z" fill="#65D03D"/>
<path d="M9.68362 61.43L1.16492 62.9329C2.20239 67.768 3.90748 72.3566 6.18791 76.5929L13.6758 72.266C11.8877 68.8927 10.5341 65.2553 9.68362 61.43Z" fill="#65D03D"/>
<path d="M65.3089 93.2931C61.7168 94.4556 57.9242 95.1634 53.9932 95.3421V103.988C58.9591 103.8 63.7456 102.911 68.2637 101.418L65.3089 93.2931Z" fill="#65D03D"/>
<path d="M25.6945 86.4627L20.1423 93.0851C23.9534 96.0516 28.1847 98.4973 32.7338 100.321L35.6885 92.1944C32.0922 90.7284 28.7357 88.7935 25.6945 86.4627Z" fill="#65D03D"/>
<path d="M50.4069 95.353C46.47 95.2096 42.6631 94.5487 39.0592 93.4189L36.1045 101.544C40.6343 103.004 45.4342 103.849 50.4069 104V95.353Z" fill="#65D03D"/>
<path d="M8.63948 51.9971C8.63948 50.0798 8.77786 48.1944 9.01941 46.3425L0.50406 44.8396C0.180321 47.1812 0 49.5673 0 51.9971C0 54.5107 0.188708 56.9806 0.535092 59.3995L9.05128 57.8965C8.78793 55.9658 8.63948 53.9991 8.63948 51.9971Z" fill="#65D03D"/>
</g>
<defs>
<clipPath id="clip0">
<rect width="103.999" height="104" fill="white"/>
</clipPath>
</defs>
</svg>
