<svg width="104" height="104" viewBox="0 0 104 104" fill="none" xmlns="http://www.w3.org/2000/svg">
<g clip-path="url(#clip0)">
<path d="M94.3337 42.6422L102.852 41.1392C101.827 36.3226 100.135 31.7516 97.8755 27.5262L90.3867 31.8531C92.1555 35.2146 93.4941 38.8353 94.3337 42.6422Z" fill="#00F4D7"/>
<path d="M78.5828 86.243C75.5685 88.5913 72.2439 90.5564 68.6719 92.0518L71.6266 100.178C76.1498 98.3253 80.3517 95.852 84.1342 92.8662L78.5828 86.243Z" fill="#00F4D7"/>
<path d="M17.5849 32.1919C17.5136 32.3152 17.4247 32.4217 17.3308 32.5207C15.2256 36.2588 13.7101 40.3676 12.9024 44.7255C12.9167 44.8815 12.9184 45.04 12.8898 45.2019C12.8605 45.3679 12.8035 45.5206 12.7338 45.6657C12.4034 47.7289 12.2256 49.8416 12.2256 51.9962C12.2256 54.2465 12.4227 56.4497 12.7833 58.5993C12.8462 58.736 12.8982 58.8795 12.9259 59.0346C12.9527 59.1864 12.9527 59.3357 12.9418 59.4825C13.7797 63.8697 15.3397 68.0003 17.4926 71.7519C17.5631 71.8349 17.6293 71.923 17.6864 72.0202C17.7443 72.1209 17.7895 72.2249 17.8256 72.3306C20.1488 76.2263 23.1145 79.6935 26.5791 82.5837C26.5842 82.5879 26.59 82.5904 26.5951 82.5946C26.6018 82.6005 26.6068 82.608 26.6135 82.6139C33.506 88.3481 42.3568 91.8027 51.9994 91.8027C73.9306 91.8027 91.7732 73.9459 91.7732 51.9954C91.7732 30.0448 73.9306 12.1897 51.9994 12.1897C47.3152 12.1897 42.8206 13.0099 38.6439 14.5054C38.5634 14.5498 38.4829 14.5934 38.394 14.6261C38.2925 14.663 38.1901 14.6899 38.0878 14.7083C33.9186 16.2717 30.0765 18.511 26.7033 21.3014C26.627 21.3987 26.5406 21.4909 26.4424 21.5739C26.3577 21.6452 26.268 21.7073 26.1749 21.7601C22.8461 24.6117 19.9928 28.0001 17.7493 31.7944C17.7099 31.9294 17.6587 32.0636 17.5849 32.1919ZM39.2041 58.2009H43.7382C43.8237 61.0207 44.5576 63.0637 45.9414 64.3285C47.0687 65.3366 48.6907 65.9438 50.8084 66.1485V52.4072L50.1425 52.2277C46.5948 51.3219 44.0116 50.0655 42.3937 48.4594C40.7633 46.8701 39.9472 44.7851 39.9472 42.2044C39.9472 38.9569 41.0149 36.3762 43.1494 34.4623C45.096 32.7362 47.649 31.7793 50.8084 31.5906V28.6677H53.2935V31.6417C56.2818 31.864 58.7115 32.7438 60.5726 34.282C62.7583 36.0936 63.9199 38.5803 64.0566 41.7422H59.6249C59.437 39.7252 58.6604 38.1702 57.2941 37.0765C56.2692 36.2395 54.9332 35.7262 53.2935 35.5383V48.2539L54.9843 48.69C58.4037 49.5615 60.8972 50.8178 62.4681 52.4583C64.018 54.0988 64.7946 56.2694 64.7946 58.97C64.7946 62.4054 63.685 65.1395 61.465 67.1734C59.416 69.0361 56.6919 70.0451 53.2935 70.1986V75.3256H50.8084V70.1726C47.171 69.9159 44.3873 68.9246 42.4575 67.1985C40.2886 65.2159 39.2041 62.3106 39.2041 58.4819V58.2009Z" fill="#00F4D7"/>
<path d="M94.3693 61.1993C93.544 65.0087 92.2163 68.6303 90.4609 71.9976L97.9489 76.3245C100.194 72.0941 101.877 67.5215 102.887 62.7031L94.3693 61.1993Z" fill="#00F4D7"/>
<path d="M95.3597 51.9971C95.3597 53.9186 95.2214 55.8065 94.9781 57.6625L103.494 59.1655C103.819 56.8205 103.999 54.4302 103.999 51.9971C103.999 49.5112 103.813 47.0689 103.474 44.6744L94.958 46.1773C95.2147 48.082 95.3597 50.0228 95.3597 51.9971Z" fill="#00F4D7"/>
<path d="M50.8086 35.4872V35.4612C48.9517 35.5979 47.4916 36.1363 46.4365 37.0765C45.2237 38.1534 44.6182 39.7344 44.6182 41.8194C44.6182 43.2209 45.139 44.4085 46.1807 45.383C47.2181 46.34 48.7639 47.0747 50.8086 47.588V35.4872Z" fill="#00F4D7"/>
<path d="M78.4487 17.6446L84.0009 11.0222C80.2049 8.04568 75.9896 5.58661 71.4556 3.74817L68.5 11.8735C72.0829 13.3555 75.4227 15.3055 78.4487 17.6446Z" fill="#00F4D7"/>
<path d="M25.5131 17.6732C28.5459 15.3231 31.894 13.3647 35.487 11.8777L32.5314 3.75153C27.9873 5.59583 23.7636 8.06414 19.9609 11.0508L25.5131 17.6732Z" fill="#00F4D7"/>
<path d="M53.793 8.64619C57.7298 8.80722 61.5334 9.49328 65.1339 10.6415L68.0887 2.51611C63.5622 1.03831 58.7656 0.169418 53.793 0V8.64619Z" fill="#00F4D7"/>
<path d="M60.1494 59.7131C60.1494 58.0726 59.6587 56.7139 58.6682 55.637C57.6945 54.5778 56.2175 53.7911 54.2407 53.2786L53.293 53.048V66.1997C55.3931 66.0973 57.0285 65.5505 58.2069 64.5592C59.5052 63.4479 60.1494 61.8325 60.1494 59.7131Z" fill="#00F4D7"/>
<path d="M38.8542 10.6448C42.4581 9.49412 46.2649 8.80722 50.2068 8.64619V0C45.23 0.170257 40.4301 1.03999 35.8994 2.5203L38.8542 10.6448Z" fill="#00F4D7"/>
<path d="M15.3603 28.8346C17.4319 25.5628 19.9212 22.5821 22.7652 19.9788L17.2113 13.3547C13.604 16.6105 10.4597 20.3671 7.87402 24.5086L15.3603 28.8346Z" fill="#00F4D7"/>
<path d="M22.9355 84.1705C20.0805 81.5848 17.5787 78.6192 15.4911 75.3625L8.00488 79.6885C10.6074 83.8149 13.7668 87.553 17.3858 90.7904L22.9355 84.1705Z" fill="#00F4D7"/>
<path d="M88.6722 75.1083C86.6166 78.365 84.1449 81.3324 81.3252 83.929L86.8833 90.5581C90.4671 87.3081 93.5896 83.5608 96.1585 79.4344L88.6722 75.1083Z" fill="#00F4D7"/>
<path d="M1.10938 41.3011L9.62808 42.804C10.4576 38.9703 11.7961 35.327 13.5666 31.942L6.07869 27.6151C3.81671 31.864 2.12421 36.4584 1.10938 41.3011Z" fill="#00F4D7"/>
<path d="M81.2012 19.9469C84.0343 22.5351 86.516 25.4991 88.586 28.7499L96.0722 24.4247C93.489 20.3033 90.3514 16.5652 86.7542 13.3245L81.2012 19.9469Z" fill="#00F4D7"/>
<path d="M9.68374 61.4299L1.16504 62.9329C2.20251 67.768 3.9076 72.3566 6.18803 76.5929L13.676 72.266C11.8879 68.8927 10.5342 65.2553 9.68374 61.4299Z" fill="#00F4D7"/>
<path d="M65.3089 93.2931C61.7168 94.4555 57.9242 95.1634 53.9932 95.342V103.988C58.9591 103.8 63.7456 102.911 68.2637 101.418L65.3089 93.2931Z" fill="#00F4D7"/>
<path d="M25.6948 86.4627L20.1426 93.0851C23.9536 96.0516 28.1849 98.4973 32.734 100.321L35.6888 92.1944C32.0924 90.7284 28.7359 88.7935 25.6948 86.4627Z" fill="#00F4D7"/>
<path d="M50.4069 95.353C46.47 95.2096 42.6631 94.5487 39.0592 93.4189L36.1045 101.544C40.6343 103.004 45.4342 103.849 50.4069 104V95.353Z" fill="#00F4D7"/>
<path d="M8.63948 51.9971C8.63948 50.0798 8.77786 48.1944 9.01941 46.3426L0.50406 44.8396C0.180321 47.1813 0 49.5674 0 51.9971C0 54.5107 0.188708 56.9807 0.535092 59.3995L9.05128 57.8965C8.78793 55.9658 8.63948 53.9991 8.63948 51.9971Z" fill="#00F4D7"/>
</g>
<defs>
<clipPath id="clip0">
<rect width="103.999" height="104" fill="white"/>
</clipPath>
</defs>
</svg>
