<svg width="20" height="20" viewBox="0 0 20 20" fill="none" xmlns="http://www.w3.org/2000/svg">
<path d="M10 0C8.02219 0 6.08879 0.58649 4.4443 1.6853C2.79981 2.78412 1.51809 4.3459 0.761209 6.17316C0.00433283 8.00043 -0.1937 10.0111 0.192152 11.9509C0.578004 13.8907 1.53041 15.6725 2.92894 17.0711C4.32746 18.4696 6.10929 19.422 8.0491 19.8078C9.98891 20.1937 11.9996 19.9957 13.8268 19.2388C15.6541 18.4819 17.2159 17.2002 18.3147 15.5557C19.4135 13.9112 20 11.9778 20 10C20 7.34783 18.9464 4.80429 17.0711 2.92893C15.1957 1.05357 12.6522 0 10 0ZM10 18.5714C8.30473 18.5714 6.64754 18.0687 5.23797 17.1269C3.82841 16.185 2.72979 14.8464 2.08104 13.2801C1.43229 11.7139 1.26254 9.99049 1.59327 8.3278C1.924 6.6651 2.74035 5.13782 3.93909 3.93908C5.13782 2.74035 6.66511 1.924 8.3278 1.59327C9.99049 1.26254 11.7139 1.43228 13.2801 2.08103C14.8464 2.72978 16.185 3.8284 17.1269 5.23797C18.0687 6.64753 18.5714 8.30473 18.5714 10C18.5714 12.2733 17.6684 14.4535 16.0609 16.0609C14.4535 17.6684 12.2733 18.5714 10 18.5714Z" fill="#DF362D"/>
<path d="M14.0786 5.92142C13.9448 5.78839 13.7638 5.71371 13.5751 5.71371C13.3864 5.71371 13.2053 5.78839 13.0715 5.92142L10.0001 8.99285L6.93577 5.92857C6.79913 5.81155 6.62336 5.7504 6.44359 5.75734C6.26382 5.76429 6.09329 5.83881 5.96608 5.96602C5.83887 6.09323 5.76435 6.26376 5.75741 6.44353C5.75046 6.6233 5.81161 6.79907 5.92863 6.93571L8.99291 9.99999L5.92863 13.0643C5.85386 13.1283 5.79313 13.2071 5.75025 13.2957C5.70738 13.3843 5.68329 13.4809 5.67949 13.5792C5.67569 13.6776 5.69226 13.7757 5.72817 13.8674C5.76408 13.959 5.81855 14.0423 5.88816 14.1119C5.95778 14.1815 6.04102 14.236 6.13268 14.2719C6.22434 14.3078 6.32244 14.3244 6.42081 14.3206C6.51918 14.3168 6.6157 14.2927 6.70432 14.2498C6.79294 14.2069 6.87174 14.1462 6.93577 14.0714L10.0001 11.0071L13.0643 14.0714C13.201 14.1884 13.3768 14.2496 13.5565 14.2426C13.7363 14.2357 13.9068 14.1612 14.034 14.034C14.1612 13.9068 14.2358 13.7362 14.2427 13.5565C14.2496 13.3767 14.1885 13.2009 14.0715 13.0643L11.0072 9.99999L14.0715 6.93571C14.1389 6.86978 14.1926 6.79115 14.2295 6.70437C14.2664 6.61758 14.2857 6.52435 14.2863 6.43005C14.287 6.33576 14.269 6.24227 14.2333 6.15497C14.1977 6.06767 14.1451 5.9883 14.0786 5.92142Z" fill="#DF362D"/>
</svg>
