<svg width="16" height="16" viewBox="0 0 16 16" fill="none" xmlns="http://www.w3.org/2000/svg">
  <path
    d="M8.78933 11.0039C8.26249 11.0039 7.73565 11.0039 7.20882 11.0039C6.83657 11.0039 6.4806 11.3495 6.49688 11.7553C6.51315 12.1632 6.81013 12.5066 7.20882 12.5066C7.73565 12.5066 8.26249 12.5066 8.78933 12.5066C9.16157 12.5066 9.51754 12.161 9.50127 11.7553C9.485 11.3495 9.19005 11.0039 8.78933 11.0039Z" />
  <path
    d="M7.30393 7.50085C7.60136 7.50085 7.89648 7.50085 8.19391 7.50085C7.92415 7.24918 7.65669 6.99966 7.38693 6.74799C7.38693 7.31156 7.38693 7.87514 7.38693 8.43871C7.38693 9.33785 7.38693 10.2348 7.38693 11.134C7.38693 11.3405 7.38693 11.547 7.38693 11.7535C7.38693 12.1471 7.75814 12.5236 8.19391 12.5064C8.63199 12.4891 9.00089 12.1751 9.00089 11.7535C9.00089 11.1899 9.00089 10.6263 9.00089 10.0628C9.00089 9.16362 9.00089 8.26663 9.00089 7.36749C9.00089 7.16099 9.00089 6.95449 9.00089 6.74799C9.00089 6.34144 8.63199 5.99512 8.19391 5.99512C7.89648 5.99512 7.60136 5.99512 7.30393 5.99512C6.88199 5.99512 6.4785 6.34144 6.49695 6.74799C6.51539 7.15669 6.85202 7.50085 7.30393 7.50085Z" />
  <path
    d="M7.45299 4.49198C7.45299 4.50083 7.45299 4.50746 7.45078 4.51631C7.45962 4.44776 7.46846 4.3792 7.47951 4.31065C7.47509 4.33498 7.47067 4.35709 7.45962 4.3792C7.48614 4.31729 7.51267 4.25537 7.53698 4.19345C7.53035 4.20672 7.52372 4.2222 7.51267 4.23325C7.55245 4.18018 7.59223 4.12932 7.63423 4.07625C7.61876 4.09615 7.60328 4.10942 7.5856 4.1249C7.63865 4.08509 7.68948 4.04529 7.74253 4.00327C7.72927 4.01212 7.71601 4.02096 7.70275 4.0276C7.76463 4.00106 7.82652 3.97452 7.88841 3.9502C7.86409 3.95904 7.8442 3.96568 7.81989 3.9701C7.88841 3.96126 7.95692 3.95241 8.02544 3.94135C8.00997 3.94356 7.99229 3.94356 7.97681 3.94135C8.04533 3.9502 8.11385 3.95904 8.18237 3.9701C8.15805 3.96568 8.13595 3.96126 8.11385 3.9502C8.17574 3.97673 8.23762 4.00327 8.29951 4.0276C8.28625 4.02096 8.27078 4.01433 8.25972 4.00327C8.31277 4.04308 8.36361 4.08288 8.41665 4.1249C8.39676 4.10942 8.3835 4.09394 8.36803 4.07625C8.40781 4.12932 8.44759 4.18018 8.48959 4.23325C8.48075 4.21999 8.47191 4.20672 8.46528 4.19345C8.4918 4.25537 8.51832 4.31729 8.54263 4.3792C8.53379 4.35488 8.52716 4.33498 8.52274 4.31065C8.53158 4.3792 8.54042 4.44776 8.55148 4.51631C8.54927 4.50083 8.54927 4.48314 8.55148 4.46766C8.54263 4.53621 8.53379 4.60476 8.52274 4.67332C8.52716 4.64899 8.53158 4.62688 8.54263 4.60476C8.51611 4.66668 8.48959 4.7286 8.46528 4.79052C8.47191 4.77725 8.47854 4.76177 8.48959 4.75071C8.44981 4.80379 8.41002 4.85465 8.36803 4.90772C8.3835 4.88782 8.39897 4.87455 8.41665 4.85907C8.36361 4.89888 8.31277 4.93868 8.25972 4.9807C8.27299 4.97185 8.28625 4.963 8.29951 4.95637C8.23762 4.98291 8.17574 5.00944 8.11385 5.03377C8.13816 5.02492 8.15805 5.01829 8.18237 5.01387C8.11385 5.02271 8.04533 5.03156 7.97681 5.04261C7.99229 5.0404 8.00997 5.0404 8.02544 5.04261C7.95692 5.03377 7.88841 5.02492 7.81989 5.01387C7.8442 5.01829 7.8663 5.02271 7.88841 5.03377C7.82652 5.00723 7.76463 4.9807 7.70275 4.95637C7.71601 4.963 7.73148 4.96964 7.74253 4.9807C7.68948 4.94089 7.63865 4.90109 7.5856 4.85907C7.60549 4.87455 7.61876 4.89003 7.63423 4.90772C7.59444 4.85465 7.55466 4.80379 7.51267 4.75071C7.52151 4.76398 7.53035 4.77725 7.53698 4.79052C7.51045 4.7286 7.48393 4.66668 7.45962 4.60476C7.46846 4.62909 7.47509 4.64899 7.47951 4.67332C7.47067 4.60476 7.46183 4.53621 7.45078 4.46766C7.45078 4.47429 7.45299 4.48314 7.45299 4.49198C7.46404 4.69764 7.53256 4.89224 7.68064 5.03819C7.81547 5.17309 8.03428 5.2726 8.22657 5.26596C8.4277 5.25712 8.63325 5.19078 8.7725 5.03819C8.90732 4.89224 9.0112 4.69543 9.00015 4.49198C8.98689 4.22441 8.89848 3.97673 8.70619 3.78435C8.52053 3.59859 8.26193 3.49023 7.99892 3.49023C7.44415 3.49023 7.01315 3.94799 6.99768 4.49198C6.98221 5.03377 7.45962 5.48489 7.98566 5.49373C8.24425 5.49816 8.51611 5.39201 8.69735 5.20847C8.89406 5.00944 8.98468 4.7684 8.99794 4.49198C9.00899 4.29959 8.90511 4.07846 8.77029 3.94578C8.63547 3.81088 8.41665 3.71137 8.22436 3.718C7.78894 3.73791 7.47509 4.05856 7.45299 4.49198Z" />
  <path
    d="M14.7367 7.99866C14.7367 8.3344 14.7132 8.66834 14.6699 9.00048C14.6771 8.94452 14.6843 8.88856 14.6933 8.8326C14.6049 9.47702 14.4316 10.1052 14.1789 10.7045C14.2005 10.6539 14.2222 10.6034 14.2421 10.5528C13.9966 11.1305 13.6789 11.6738 13.2962 12.1702C13.3287 12.1269 13.3612 12.0853 13.3955 12.042C13.0056 12.5474 12.5507 13.0005 12.0453 13.3922C12.0886 13.3597 12.1301 13.3272 12.1734 13.2929C11.6752 13.6756 11.1319 13.9933 10.5561 14.2388C10.6066 14.2171 10.6572 14.1955 10.7077 14.1756C10.1084 14.4283 9.48023 14.6016 8.83582 14.6901C8.89178 14.6828 8.94773 14.6756 9.00369 14.6666C8.33942 14.7551 7.66432 14.7551 7.00004 14.6666C7.056 14.6738 7.11196 14.681 7.16792 14.6901C6.5235 14.6016 5.89533 14.4283 5.29604 14.1756C5.34658 14.1973 5.39712 14.2189 5.44767 14.2388C4.87004 13.9933 4.32671 13.6756 3.83031 13.2929C3.87363 13.3254 3.91515 13.3579 3.95847 13.3922C3.45304 13.0023 2.99997 12.5474 2.60826 12.042C2.64075 12.0853 2.67325 12.1269 2.70754 12.1702C2.32486 11.672 2.00717 11.1287 1.76168 10.5528C1.78334 10.6034 1.805 10.6539 1.82485 10.7045C1.57214 10.1052 1.39885 9.47702 1.3104 8.8326C1.31762 8.88856 1.32484 8.94452 1.33387 9.00048C1.24542 8.33621 1.24542 7.66111 1.33387 6.99684C1.32665 7.0528 1.31943 7.10876 1.3104 7.16472C1.39885 6.5203 1.57214 5.89214 1.82485 5.29285C1.80319 5.3434 1.78153 5.39394 1.76168 5.44448C2.00717 4.86686 2.32486 4.32353 2.70754 3.82713C2.67505 3.87046 2.64256 3.91197 2.60826 3.95529C2.99816 3.44987 3.45304 2.9968 3.95847 2.6051C3.91515 2.63759 3.87363 2.67008 3.83031 2.70438C4.32851 2.3217 4.87184 2.00401 5.44767 1.75852C5.39712 1.78018 5.34658 1.80184 5.29604 1.8217C5.89533 1.56899 6.5235 1.3957 7.16792 1.30725C7.11196 1.31447 7.056 1.32169 7.00004 1.33072C7.66432 1.24227 8.33942 1.24227 9.00369 1.33072C8.94773 1.3235 8.89178 1.31628 8.83582 1.30725C9.48023 1.3957 10.1084 1.56899 10.7077 1.8217C10.6572 1.80004 10.6066 1.77838 10.5561 1.75852C11.1337 2.00401 11.677 2.3217 12.1734 2.70438C12.1301 2.67189 12.0886 2.6394 12.0453 2.6051C12.5507 2.995 13.0038 3.44987 13.3955 3.95529C13.363 3.91197 13.3305 3.87046 13.2962 3.82713C13.6789 4.32534 13.9966 4.86866 14.2421 5.44448C14.2204 5.39394 14.1987 5.3434 14.1789 5.29285C14.4316 5.89214 14.6049 6.5203 14.6933 7.16472C14.6861 7.10876 14.6789 7.0528 14.6699 6.99684C14.7132 7.32898 14.7348 7.66292 14.7367 7.99866C14.7367 8.32899 15.0273 8.64488 15.3684 8.63044C15.7096 8.616 16.0002 8.35245 16.0002 7.99866C15.9966 6.36507 15.4948 4.72787 14.5417 3.39753C14.0489 2.70979 13.4713 2.11773 12.8016 1.60509C12.1662 1.11952 11.4568 0.745873 10.7077 0.471502C9.15171 -0.0989015 7.39355 -0.149443 5.80146 0.30724C4.27436 0.744068 2.87181 1.65022 1.86096 2.87767C1.31762 3.53832 0.891623 4.25674 0.568513 5.04736C0.259843 5.80369 0.086554 6.60695 0.0233759 7.41923C-0.104785 9.05824 0.303165 10.7424 1.15878 12.1467C1.98009 13.4969 3.21297 14.6143 4.65523 15.2659C5.04152 15.441 5.43864 15.5926 5.84659 15.7081C6.27259 15.8273 6.70762 15.9013 7.14625 15.9518C7.97479 16.0475 8.81596 15.9969 9.63186 15.8327C11.2023 15.5168 12.6752 14.6901 13.78 13.5312C14.8829 12.3742 15.6482 10.8778 15.8919 9.2929C15.9569 8.8651 15.9984 8.43368 16.0002 8.00046C16.0002 7.67014 15.7096 7.35425 15.3684 7.36869C15.0255 7.38313 14.7367 7.64487 14.7367 7.99866Z" />
</svg>