<svg width="52" height="52" viewBox="0 0 52 52" fill="none" xmlns="http://www.w3.org/2000/svg">
<circle cx="26" cy="26" r="26" fill="#FFFFE9"/>
<path d="M37.6482 14.4669C37.6482 14.4669 39.1973 10.6208 38.997 9.73937C38.81 8.88468 38.7967 8.61759 37.3944 7.57594C36.8336 7.82967 35.832 8.19024 35.0173 8.02999C33.8154 7.80296 33.2011 7.38897 32.6269 6.8815C32.0526 6.37403 31.7455 5.62618 31.6921 5.18548C31.6787 5.07864 31.7989 4.99852 31.8924 5.06529C32.3865 5.42586 32.7871 6.08023 34.1894 6.54764C34.9906 6.81473 35.645 6.7346 36.0456 6.60106C34.2695 5.37244 31.6921 3.68978 30.1563 3.18231C28.1932 2.54129 27.3118 3.79661 27.3118 3.79661L25.4689 6.70789C25.4689 6.70789 28.5671 7.16195 31.7321 8.9381C34.8838 10.7009 37.6482 14.4669 37.6482 14.4669Z" fill="#3800D6"/>
<path d="M42.5892 18.8338C42.202 18.8872 41.6144 18.8872 40.8264 18.6869C37.7415 17.8188 35.8452 12.7308 30.5034 9.52568C21.9699 5.11869 17.3893 9.09833 17.3893 9.09833C16.8017 9.49897 17.4026 9.75271 17.4026 9.75271L20.2071 11.1683L21.5292 11.8627C21.5292 11.8627 20.6878 12.9444 18.9785 12.1165C18.4176 11.8761 17.2958 11.8093 16.4278 12.5839C15.4796 13.1047 15.8936 14.6137 15.1991 15.5753C14.5181 16.5368 13.1559 16.3765 13.009 17.7654C12.8888 19.181 14.0106 19.4481 14.0373 20.5031C14.064 21.5581 13.6767 22.159 13.5699 22.4395C13.5298 22.5597 13.5031 22.7066 13.5031 22.8535C13.5165 23.0538 13.61 23.2541 13.7435 23.4144C13.8503 23.5346 13.9438 23.6147 14.0507 23.6814C14.5047 23.9886 14.892 24.3892 15.1457 24.87C15.1858 24.9501 15.2259 25.0303 15.2793 25.1104C15.3193 25.1772 15.3594 25.2573 15.4128 25.3508C15.7066 25.8716 15.8268 26.4859 15.72 27.0868C15.6933 27.2471 15.7066 27.4341 15.76 27.6077C15.8669 27.9282 16.1473 28.1686 16.4812 28.262C16.9753 28.3822 17.4026 28.676 17.6964 29.09C17.7231 29.1167 17.7365 29.1568 17.7632 29.1835C18.1638 29.7444 18.0837 30.6258 18.244 31.2668C18.4042 31.9078 18.9384 32.1081 19.713 32.5488C20.4875 32.9895 20.6478 33.684 20.3273 34.0178C20.0068 34.3517 18.1104 33.5371 17.3492 34.4452C16.7883 34.966 17.0287 35.2999 16.7483 36.2881C16.4678 37.2897 15.6131 36.5552 15.1591 37.2496C14.705 37.9441 14.6383 38.6919 14.8653 40.1743C15.0923 41.6566 16.5346 43.6998 16.5346 43.6998C16.5346 43.6998 15.76 41.0022 17.4427 38.6919C18.8716 37.0092 19.9667 36.7822 21.5826 36.7555C23.2118 36.7154 25.6157 38.1844 26.1098 41.069C26.3635 42.9787 25.3219 44.0871 25.2417 44.194C25.0548 44.4076 23.519 46.1037 21.4758 44.9685C20.9149 44.5812 20.4208 44.1806 20.0869 43.406C19.8465 42.6983 19.7797 41.7501 20.1804 41.1091C20.5142 40.5749 21.0484 40.4146 21.2087 40.4013C21.4491 40.3746 21.9699 40.3879 22.3037 40.6417C22.6376 40.8954 22.9982 41.2693 22.9314 41.9103C22.8646 42.5514 22.1969 42.7383 21.9432 42.6849C21.7295 42.6448 21.8764 42.6716 21.9298 42.6849C21.5158 42.6582 21.3289 42.3377 21.2487 42.1107C21.2354 42.0572 21.1553 42.0706 21.1419 42.124C21.0217 43.0054 21.6894 43.5663 22.0901 43.6598C22.5308 43.7533 23.1851 43.7399 23.7193 43.1924C24.1867 42.725 24.4405 42.3243 24.4405 41.296C24.4405 40.4547 24.0932 39.8671 23.519 39.3596C22.7711 38.6652 21.7829 38.3981 21.1018 38.4515C20.4608 38.5049 19.339 38.772 18.6045 39.9339C17.9235 41.0022 17.6297 42.4712 18.2039 44.1138L18.2306 44.1673C19.5394 47.2254 22.5975 48 24.7076 48C25.1349 48 25.5222 47.9733 25.8427 47.9199C25.9095 47.9065 27.4185 47.6795 28.8875 46.7714C30.7037 45.5695 31.7854 43.8334 31.7854 41.1491C31.7854 37.5835 30.223 35.2064 27.0179 31.4938C26.4036 30.7326 23.9063 27.6477 23.4522 27.0468C21.222 24.1622 18.7247 20.7702 19.9667 18.1927C20.0068 18.1126 20.0468 18.0459 20.0869 17.9657C21.9432 14.5603 27.1781 15.4017 26.0296 15.6153C24.0398 15.9492 22.8513 16.8306 22.4907 17.2179C22.1301 17.6052 21.9298 17.939 21.6894 18.5667C21.2754 19.595 21.6093 21.1842 22.4907 22.573C26.3234 28.0083 31.9858 34.779 32.6802 36.4083C33.5749 38.4649 33.7085 40.0941 33.6951 41.0957C33.6818 42.0973 33.4414 43.6998 33.4414 43.6998C33.4414 43.6998 34.7635 42.6448 35.3912 41.3628C36.0188 40.0808 36.1257 39.4665 35.9387 38.9857C35.7384 38.5049 35.2443 38.4916 35.0439 37.7037C34.8436 36.9158 35.4045 36.2213 34.8169 34.966C34.5632 34.4185 33.2144 33.6172 32.5199 32.7358C31.8255 31.8544 30.5568 30.2786 29.6087 29.0099C27.8993 26.7396 27.3384 25.9651 26.3502 24.683C27.4185 25.0035 28.754 25.4442 31.8255 24.0153C34.67 25.471 36.6198 25.3908 37.3008 25.3508C37.9819 25.3107 38.6229 25.0035 39.1171 24.6163C39.4376 24.3625 39.6779 23.8551 39.8248 23.5212C39.8783 23.401 39.7581 23.2942 39.6379 23.3342C37.2474 24.3225 35.0439 23.5212 32.333 22.0121L31.8522 21.745L31.3714 21.9988C28.5269 23.5212 25.5355 22.3326 25.2684 22.2258C25.1616 22.1724 24.347 21.745 23.9864 21.0239C23.6258 20.3028 23.5457 19.5416 23.8128 18.9005C24.0265 18.3797 24.5339 18.0325 25.3619 17.8589C26.043 17.7788 26.9244 18.0325 27.6322 18.3129C27.7924 18.3797 27.9393 18.2195 27.8726 18.0726C27.7924 17.8589 27.739 17.6319 27.739 17.3915C27.739 16.9908 27.8726 16.6303 28.0862 16.3365L29.0344 16.7772C28.8742 16.9374 28.7807 17.1778 28.8074 17.4449C28.8474 17.7921 29.1412 18.0859 29.4885 18.126C29.9559 18.1927 30.3432 17.8455 30.3832 17.4048L31.278 17.8188C31.1177 18.4732 30.6102 18.9807 29.9559 19.1409C29.8223 19.1676 29.809 19.3412 29.9425 19.3813C31.1578 19.9555 34.7101 21.6115 34.7101 21.6115C34.7101 21.6115 36.7667 22.76 38.5695 22.533C40.3056 22.4395 41.0802 21.064 40.0519 21.1975C39.0236 21.3311 36.5931 20.2761 36.5931 20.2761L34.9638 19.5148L35.6449 18.4598C35.6449 18.4598 37.9686 19.7819 40.0252 20.236C41.3873 20.5298 42.3088 19.7552 42.7762 19.1943C42.9231 19.0474 42.7895 18.8071 42.5892 18.8338ZM23.5724 14.1998C22.7044 14.3066 21.3823 14.7072 20.6344 15.0678C20.354 15.2013 20.1136 15.3349 19.9133 15.4551C19.2589 15.8824 18.6713 16.5234 18.2039 17.4048C16.3743 20.9571 19.7263 25.3107 22.4239 28.8096C22.878 29.3972 23.292 29.9447 23.6659 30.4522C24.2401 31.2401 24.8678 32.0147 25.4821 32.7492C27.0579 34.6856 28.794 36.7422 29.5419 39.0258C29.7422 39.827 29.7689 40.5749 29.6754 41.1758C29.3549 43.0455 27.7257 43.6865 27.7257 43.6865C27.9661 42.9119 28.0996 41.9103 27.9527 40.7619V40.7351C27.4586 38.0509 25.2818 35.6738 25.2818 35.6738C24.761 34.9794 24.2001 34.2582 23.746 33.6706C19.1654 27.7813 18.7114 27.1136 17.6297 25.1504L17.6163 25.1237C17.5896 25.0703 17.5495 25.0035 17.5095 24.9368C16.8818 23.8818 15.1991 21.064 15.9336 18.1126C16.1073 17.4315 16.4144 16.8172 16.8551 16.2831C19.5394 12.7975 24.6808 13.9861 23.5724 14.1998Z" fill="#3800D6"/>
</svg>
