<svg width="52" height="52" viewBox="0 0 52 52" fill="none" xmlns="http://www.w3.org/2000/svg">
<path d="M42.6905 18.5995C41.7217 19.0309 40.7814 18.8008 40.0121 18.2831C38.9293 17.5354 37.932 16.6151 36.9632 15.6949C36.2794 15.0622 35.738 14.3432 35.0826 13.6818C33.9999 12.5889 32.8601 11.6112 31.6349 10.6909C30.4951 9.82812 29.2414 9.10916 27.9021 8.64902C26.5914 8.18888 25.2522 7.7575 23.8845 7.61371C23.0866 7.52744 22.2888 7.44116 21.5195 7.52744C20.5792 7.64247 19.6674 7.87254 18.7555 8.18888C18.1287 8.39019 17.5588 8.76405 16.9889 9.13792C16.6755 9.31047 16.704 9.59805 16.9889 9.79936C17.3023 10.0007 17.6158 10.202 17.9577 10.3458C18.5561 10.6334 19.126 10.9209 19.7528 11.2085C19.2399 11.8987 18.6701 12.3589 17.8152 12.3301C17.2169 12.3014 16.6185 12.2438 16.0486 12.1863C15.6497 12.1576 15.3078 12.3014 15.1083 12.6465C14.8234 13.1066 14.7664 13.5955 14.8519 14.0844C14.9943 14.8321 14.5099 15.7524 13.7691 16.04C13.1422 16.2988 12.9143 17.1616 13.0282 17.708C13.1422 18.1681 13.4272 18.4845 13.6266 18.8871C14.0825 19.8936 14.225 20.8714 13.4841 21.8492C13.3132 22.0793 13.1707 22.4531 13.1707 22.7407C13.1422 23.4309 13.6551 23.7185 14.1965 23.9486C14.8234 24.2074 15.3647 24.5525 15.5642 25.2715C15.6212 25.444 15.6212 25.6741 15.5642 25.8754C15.4787 26.3068 15.3363 26.7094 15.2223 27.1408C15.1653 27.3996 15.4502 27.8885 15.7067 28.0035C16.0771 28.1473 16.476 28.2911 16.8464 28.4637C17.7582 28.8663 18.1572 29.4415 17.9577 30.6206C17.9292 30.8506 17.9577 31.1382 18.0717 31.3683C18.2711 31.8572 18.727 32.0297 19.1545 32.2311C19.4964 32.4036 19.6958 32.7487 19.6673 33.2088C19.6389 33.5827 19.4679 33.8415 19.0405 33.899C18.6701 33.9278 18.2426 33.9278 17.8722 33.8415C16.9034 33.6402 16.59 33.784 16.1341 34.6755C15.9916 34.9631 15.9346 35.2795 15.7352 35.5095C15.3932 35.9121 14.9943 36.2573 14.5954 36.6024C14.168 37.005 13.997 37.6377 14.2535 38.1841C14.5669 38.8455 14.6524 39.507 14.3105 40.2259C14.225 40.4272 14.1965 40.7148 14.282 40.9161C14.4244 41.29 14.6239 41.6639 14.8803 42.009C15.2793 42.5554 15.7637 43.0155 16.362 43.3319C16.419 43.3606 16.5045 43.3606 16.59 43.3606C16.59 43.2743 16.6185 43.1881 16.59 43.1306C16.1056 42.239 15.9916 41.2612 16.0486 40.2835C16.0771 39.7658 16.1626 39.2194 16.3335 38.7305C16.59 38.0403 17.0459 37.4939 17.6158 37.0337C18.4421 36.3435 19.4109 36.0847 20.4652 36.0272C21.548 35.9697 22.4883 36.4586 23.2861 37.12C24.4828 38.1266 25.2522 39.4494 25.3947 41.0887C25.5086 42.2678 25.2522 43.3031 24.5113 44.2234C23.799 45.1437 22.2888 45.5463 20.9496 44.8848C19.6958 44.2809 18.6701 42.3541 19.2114 41.0312C19.4394 40.5135 19.9523 40.1972 20.4937 40.1684C21.377 40.1397 22.0324 40.9737 22.2318 41.6926C22.3458 42.0665 22.1178 42.4979 21.8329 42.5841C21.5765 42.6704 21.206 42.4691 21.0351 42.1528C20.9781 42.0377 20.8641 41.9227 20.7216 41.7501C20.6361 41.9514 20.5792 42.0377 20.5792 42.1528C20.4652 42.9292 21.548 43.8495 22.3173 43.5907C22.9442 43.3894 23.3716 42.9868 23.571 42.3541C23.742 41.8077 23.742 41.29 23.5425 40.7436C23.1721 39.737 22.6877 38.8168 21.6619 38.3566C21.1775 38.1266 20.6361 37.9828 20.0948 38.069C19.8098 38.0978 19.5249 38.1841 19.2684 38.2416C18.6986 38.3566 18.2996 38.7305 18.0147 39.2194C17.7867 39.5932 17.6158 39.9959 17.5018 40.4272C17.3878 40.8299 17.3308 41.29 17.4163 41.7214C17.5588 42.4403 17.7867 43.1593 18.0432 43.8495C18.4421 44.9423 19.1545 45.8339 20.0948 46.5241C20.2942 46.6679 20.4367 46.9267 20.6361 47.013C21.3485 47.3293 22.0609 47.7032 22.8302 47.8182C24.7963 48.1633 26.7054 47.9332 28.358 46.6966C28.7285 46.409 29.0419 46.0639 29.3838 45.7476C29.5833 45.5463 30.4951 44.511 30.894 43.4469C31.2929 42.3828 31.2359 41.5488 31.2644 40.8586C31.2644 40.6573 31.122 39.1331 30.894 38.6442C30.1817 36.9475 29.6688 36.3435 29.0419 35.2219C28.7854 34.7618 28.4435 34.3017 28.1301 33.8703C27.7597 33.3814 27.3607 32.9213 26.9903 32.4324C26.6484 31.9722 26.335 31.4833 25.993 30.9944C25.5371 30.3905 25.0527 29.7866 24.5968 29.1826C23.97 28.3774 23.3716 27.5434 22.7732 26.7094C22.5452 26.4218 22.2888 26.1342 22.0893 25.8179C21.9184 25.5591 21.7759 25.2715 21.6049 25.0126C21.3485 24.61 21.0066 24.2649 20.7786 23.8335C20.4367 23.2296 20.1802 22.5682 19.8383 21.993C19.5249 21.4466 19.4109 20.8714 19.3824 20.2387C19.3539 19.1171 19.7813 18.1393 20.4652 17.2478C21.206 16.3276 22.1463 16.04 23.2861 16.27C23.3716 16.2988 23.4571 16.3276 23.5425 16.3851C23.3716 16.5001 23.2006 16.5576 23.0581 16.6727C22.4028 17.2191 21.8329 17.7942 21.6049 18.657C21.3485 19.606 21.32 20.5263 21.8044 21.4178C22.1178 22.0218 22.4598 22.6257 22.8017 23.2009C23.3146 24.0349 23.8845 24.8401 24.4544 25.6453C24.8248 26.2205 25.2237 26.7669 25.6226 27.3133C26.107 27.9748 26.6484 28.6075 27.1328 29.2689C27.9876 30.4193 28.8139 31.5984 29.6403 32.7775C29.8967 33.1513 30.1817 33.4964 30.4096 33.8703C30.6376 34.2154 30.78 34.6468 31.008 34.9919C31.6064 35.8259 32.0053 36.7461 32.3757 37.6664C32.7461 38.5579 33.1165 39.4495 33.145 40.3985C33.202 41.4338 33.259 42.4691 32.7461 43.5332C32.9171 43.5332 33.0881 43.5619 33.1735 43.5044C33.5155 43.2743 33.8859 43.0155 34.1708 42.7279C34.9117 42.009 35.4816 41.2037 35.624 40.1397C35.681 39.737 35.681 39.3632 35.3106 39.0468C34.8832 38.673 34.7122 38.1553 34.7407 37.5801C34.7692 37.1775 34.7977 36.7461 34.8262 36.3435C34.8832 35.567 34.6267 35.0494 34.0284 34.8481C33.373 34.6468 33.0026 34.1579 32.6606 33.6402C31.8628 32.3461 31.008 31.0232 30.0962 29.7578C28.9849 28.2048 27.7882 26.6806 26.6484 25.1277C26.5629 25.0126 26.4774 24.8689 26.4204 24.7538C27.0473 24.7251 27.6457 24.6963 28.2441 24.6388C29.0704 24.5525 29.8682 24.3224 30.5806 23.9198C30.6945 23.8623 30.894 23.776 31.008 23.8048C31.5209 23.9486 32.0053 24.1211 32.4897 24.3512C33.8574 25.0126 35.2536 25.3865 36.7638 25.2715C37.7611 25.1852 38.5874 24.8113 39.2428 24.0636C39.4137 23.8623 39.4707 23.6035 39.2998 23.3734C39.1288 23.4597 38.9578 23.546 38.8154 23.6035C37.932 23.9773 37.0202 23.8911 36.1369 23.7185C34.5982 23.4309 33.145 22.9133 31.8058 22.0793C31.5494 21.9067 31.3499 21.9642 31.122 22.0793C30.8085 22.2518 30.4666 22.3956 30.1247 22.5107C28.9849 22.9133 27.8166 22.9995 26.6199 22.7982C25.993 22.712 25.4801 22.3669 25.0242 21.993C24.7108 21.7342 24.3689 21.4466 24.1409 21.1302C23.685 20.4976 23.685 19.7786 23.799 19.0309C23.8845 18.5132 24.2264 18.1393 24.7108 17.9093C25.2522 17.6505 25.8221 17.7367 26.3635 17.9093C26.7339 18.0243 27.1043 18.1969 27.4747 18.3694C27.5032 18.3982 27.5602 18.3982 27.5887 18.4269C27.3892 18.1393 27.2753 17.7655 27.2753 17.3916C27.2753 17.0465 27.3892 16.7014 27.5602 16.4138L28.5575 16.874C28.415 17.0178 28.3295 17.1903 28.3295 17.3916C28.3295 17.7942 28.6715 18.1393 29.0704 18.1393C29.4693 18.1393 29.7827 17.823 29.8112 17.4204L30.8085 17.8805C30.6091 18.5995 30.0107 19.1171 29.2414 19.2034C30.2386 19.6636 31.2074 20.1237 32.2047 20.5838C33.6009 21.1878 34.9402 21.9355 36.4503 22.3093C37.1912 22.4819 37.8751 22.5969 38.6159 22.3669C39.0718 22.2231 39.5847 22.108 39.8411 21.6479C39.8981 21.5329 39.9551 21.3316 39.8981 21.3028C39.8126 21.2165 39.6417 21.2165 39.4992 21.2165C39.1858 21.2165 38.8723 21.3028 38.5589 21.2165C37.4476 20.9864 36.3934 20.5551 35.3676 20.0662C34.9687 19.8936 34.5982 19.6636 34.1993 19.4622C34.4558 19.0884 34.6552 18.772 34.8832 18.4557C34.9402 18.4557 34.9687 18.4845 34.9972 18.4845C35.1111 18.542 35.1966 18.5707 35.3106 18.6282C36.7638 19.376 38.2455 20.0662 39.8981 20.21C41.1519 20.325 42.1777 19.9511 42.9185 18.9158C42.9755 18.8583 42.947 18.7433 42.9755 18.657C42.8615 18.6282 42.776 18.5707 42.6905 18.5995ZM19.2969 15.6374C18.2426 16.4426 17.5303 17.4779 17.3593 18.8008C17.2169 19.9224 17.3878 21.0152 17.8722 22.0218C18.3566 23.0283 18.841 24.0349 19.3824 24.9839C19.7243 25.6166 20.2087 26.1917 20.6077 26.7669C21.0351 27.3996 21.4625 28.0611 21.9184 28.6937C22.5168 29.5277 23.1436 30.3617 23.7705 31.167C24.5113 32.1735 25.2522 33.1513 25.993 34.1579C26.6769 35.1069 27.3607 36.0847 27.9876 37.0912C28.472 37.8677 28.8994 38.673 29.0704 39.5932C29.1559 40.0534 29.0989 40.5135 29.0419 40.9737C28.9849 41.6351 28.7285 42.2103 28.301 42.7279C27.8736 43.2456 27.8451 43.2743 27.3323 43.4181C27.3892 42.9292 27.4747 42.4979 27.4747 42.0377C27.5032 41.4913 27.5032 40.9449 27.4462 40.3985C27.3892 39.5932 26.9903 38.903 26.6199 38.2416C26.335 37.7239 26.0785 37.1775 25.7651 36.6886C25.4801 36.2285 25.1097 35.8259 24.7963 35.3657C23.7705 33.9853 22.7732 32.6049 21.7474 31.2533C21.3485 30.7068 20.8926 30.1892 20.4937 29.6428C20.0948 29.0964 19.7528 28.55 19.3824 28.0035C18.8695 27.2271 18.2996 26.5081 17.8152 25.7029C17.3593 24.8689 16.9604 24.0061 16.5615 23.1433C16.2481 22.4819 15.9346 21.7917 15.7352 21.0727C15.5927 20.44 15.5642 19.7211 15.5642 19.0596C15.5927 18.0818 15.9916 17.1903 16.5045 16.4138C17.3308 15.1772 18.784 14.5445 20.2657 15.0334C19.9523 15.206 19.5819 15.3785 19.2969 15.6374Z" fill="#3800D6"/>
<path d="M26.1358 6.49214C27.0476 6.63594 27.9594 6.80849 28.8427 7.18235C29.1562 7.32614 29.4981 7.49869 29.8115 7.64249C30.0965 7.78628 30.4099 7.87255 30.6378 8.04511C31.6636 8.79283 32.7179 9.51179 33.7152 10.317C34.3991 10.8634 35.0259 11.4674 35.6528 12.0713C36.1942 12.589 36.7071 13.1641 37.277 13.7393C37.3909 13.3367 37.5334 12.9628 37.6474 12.5602C37.8183 11.87 37.9323 11.1798 38.1318 10.4896C38.4452 9.42552 38.3312 8.85035 37.4479 8.16014C37.163 7.93007 36.878 7.7 36.5646 7.49869C36.7641 8.21766 36.8495 8.99414 36.1657 8.8791C34.9404 8.67779 30.3529 5.71566 30.3529 5.71566C30.3529 5.71566 35.2824 7.78628 35.0544 6.40587C33.8862 5.51435 32.6324 4.76663 31.3217 4.07642C30.7518 3.76008 30.125 3.53001 29.5266 3.24243C28.9852 2.9836 28.3868 2.92608 27.8454 3.09863C27.1616 3.3287 26.6202 3.8176 26.2783 4.47904C26.1928 4.6516 26.1073 4.79539 26.0218 4.96794C25.7369 5.45684 25.4804 5.91697 25.167 6.49214C25.5659 6.49214 25.8508 6.46338 26.1358 6.49214Z" fill="#3800D6"/>
</svg>
