<svg width="18" height="18" viewBox="0 0 18 18" fill="none" xmlns="http://www.w3.org/2000/svg">
<mask id="mask0" mask-type="alpha" maskUnits="userSpaceOnUse" x="0" y="0" width="18" height="18">
<path d="M18 0H0V18H18V0Z" fill="white"/>
</mask>
<g mask="url(#mask0)">
<path d="M17.6395 11.5408C16.6891 14.82 13.9626 17.2774 10.6027 17.8833V15.3219C11.21 15.0906 11.7566 14.7237 12.2007 14.2493C12.4475 13.9846 12.6585 13.6886 12.8282 13.3689C13.1511 12.7601 13.3183 12.0807 13.3147 11.3915C13.3147 9.12685 11.6801 8.22206 10.1479 7.55072L9.3719 7.20788C8.5425 6.83578 7.90771 6.50475 7.90771 5.93831C7.90771 5.15503 8.59115 4.73428 9.23578 4.73428C9.92175 4.73428 10.311 4.98741 10.7219 5.69981L11.0406 6.25191L13.0909 4.93594L12.8234 4.43981C12.3529 3.54299 11.5584 2.85911 10.6015 2.52731V0.178314C10.8009 0.212345 10.9981 0.25622 11.1975 0.307127C11.2169 0.311908 11.2388 0.31697 11.2608 0.321752C11.2831 0.326022 11.3051 0.331753 11.3266 0.338908C11.3332 0.33963 11.3398 0.341238 11.346 0.343689C11.3994 0.358314 11.4554 0.371814 11.5114 0.387564C16.283 1.77586 19.0263 6.76878 17.6395 11.5408Z" fill="#745DDF"/>
<path d="M10.7972 11.5155C10.7972 12.5468 9.86569 13.1842 9.0045 13.1842C7.97063 13.1842 7.37972 12.3303 7.26525 11.5374L7.16794 10.8492L4.68703 11.5473L4.79953 12.1019C5.0817 13.7643 6.33016 15.0972 7.97063 15.4873V17.966C7.53008 17.9145 7.0939 17.8307 6.66563 17.7154C6.60488 17.7007 6.54638 17.6839 6.48563 17.6667C2.64541 16.5476 0.00366495 13.0295 0 9.02953V0.382776C0.000155095 0.186659 0.159101 0.0275574 0.355219 0.0275574H7.97063V2.50256C7.07945 2.76059 6.32012 3.34855 5.84719 4.14675C5.54388 4.67759 5.38613 5.27912 5.38988 5.8905V5.93943C5.41406 7.95825 6.89794 8.80228 8.29884 9.43706L9 9.74221L9.0585 9.77034C10.1694 10.2774 10.7972 10.6107 10.7972 11.5155Z" fill="#2EB6EA"/>
<path d="M13.3145 11.3915C13.318 12.0807 13.1508 12.76 12.8279 13.3689C12.6582 13.6887 12.4472 13.9847 12.2004 14.2495C11.7561 14.7243 11.2094 15.0913 10.6018 15.3228V17.8959L9.88262 17.9595C9.88262 17.9595 8.33996 18.0056 7.97265 17.9595L7.96871 15.4881C6.32847 15.0974 5.08057 13.7641 4.79902 12.1016L4.68652 11.547L7.16743 10.8489L7.26474 11.5372C7.37893 12.33 7.97012 13.1839 9.00399 13.1839C9.8649 13.1839 10.7967 12.5466 10.7967 11.5152C10.7967 10.6104 10.1692 10.2777 9.05743 9.76893L8.99893 9.74081L8.29834 9.43678C6.89743 8.80199 5.41355 7.95796 5.38937 5.93915V5.89049C5.38562 5.27912 5.54337 4.67759 5.84668 4.14674C6.31961 3.34855 7.07895 2.76059 7.97012 2.50256V0.0250261C9.59293 0.0112448 9.71724 0.0208073 10.6018 0.17662V2.52787C11.5586 2.85967 12.3531 3.54355 12.8236 4.44037L13.0911 4.93649L11.0408 6.25246L10.7221 5.70037C10.311 4.98768 9.92199 4.73484 9.23602 4.73484C8.5914 4.73484 7.90796 5.15671 7.90796 5.93887C7.90796 6.50559 8.54274 6.83634 9.37215 7.20843L10.1481 7.55128C11.6801 8.22206 13.3145 9.12684 13.3145 11.3915Z" fill="white"/>
</g>
</svg>
