<svg width="32" height="32" viewBox="0 0 32 32" fill="none" xmlns="http://www.w3.org/2000/svg">
  <path
    d="M16 0C7.17608 0 0 7.17607 0 16C0 24.8239 7.17608 32 16 32C24.8239 32 32 24.8239 32 16C32 7.17607 24.8239 0 16 0ZM16 2.13333C23.671 2.13333 29.8667 8.32901 29.8667 16C29.8667 23.671 23.671 29.8667 16 29.8667C8.32902 29.8667 2.13333 23.671 2.13333 16C2.13333 8.32901 8.32902 2.13333 16 2.13333ZM15.9889 6.66667C15.8479 6.66812 15.7085 6.69752 15.5789 6.75317C15.4494 6.80882 15.3321 6.88961 15.2339 6.99088C15.1358 7.09214 15.0586 7.21186 15.0071 7.34312C14.9555 7.47437 14.9304 7.61455 14.9333 7.75556V14.9333H7.75556C7.71854 14.9314 7.68146 14.9314 7.64444 14.9333C7.50435 14.9406 7.36706 14.9754 7.24042 15.0357C7.11377 15.0961 7.00026 15.1808 6.90635 15.285C6.81244 15.3892 6.73997 15.5109 6.6931 15.6431C6.64622 15.7753 6.62585 15.9155 6.63315 16.0556C6.64044 16.1957 6.67527 16.3329 6.73562 16.4596C6.79598 16.5862 6.88069 16.6997 6.98492 16.7936C7.08915 16.8875 7.21085 16.9599 7.34308 17.0068C7.4753 17.0536 7.61546 17.074 7.75556 17.0667H14.9333V24.2444C14.9313 24.3858 14.9574 24.5261 15.0102 24.6573C15.0629 24.7885 15.1411 24.9078 15.2404 25.0085C15.3396 25.1092 15.4579 25.1891 15.5883 25.2437C15.7187 25.2982 15.8586 25.3263 16 25.3263C16.1414 25.3263 16.2813 25.2982 16.4117 25.2437C16.5421 25.1891 16.6604 25.1092 16.7596 25.0085C16.8589 24.9078 16.9371 24.7885 16.9898 24.6573C17.0426 24.5261 17.0687 24.3858 17.0667 24.2444V17.0667H24.2444C24.3858 17.0687 24.5261 17.0426 24.6573 16.9898C24.7885 16.9371 24.9078 16.8589 25.0085 16.7596C25.1092 16.6604 25.1891 16.5421 25.2437 16.4117C25.2982 16.2813 25.3263 16.1414 25.3263 16C25.3263 15.8586 25.2982 15.7187 25.2437 15.5883C25.1891 15.4579 25.1092 15.3396 25.0085 15.2404C24.9078 15.1411 24.7885 15.0629 24.6573 15.0102C24.5261 14.9574 24.3858 14.9313 24.2444 14.9333H17.0667V7.75556C17.0696 7.61268 17.0439 7.47067 16.9909 7.33795C16.9379 7.20523 16.8588 7.0845 16.7583 6.98294C16.6578 6.88137 16.5379 6.80104 16.4057 6.74671C16.2735 6.69238 16.1318 6.66516 15.9889 6.66667Z"
    fill="#06D7D7" />
</svg>