<svg width="24" height="24" viewBox="0 0 24 24" fill="none" xmlns="http://www.w3.org/2000/svg">
<path d="M4.37451 13.7498L4.95382 13.5015L12.0474 10.4158L19.7203 13.7498L16.8356 19.7084L9.78929 20.7015L4.49274 14.9793L4.37451 13.7498Z" fill="#133444"/>
<path d="M18.124 10.0847C16.859 8.55962 15.062 7.56652 13.0994 7.30642C13.0521 7.30642 13.0167 7.2946 12.9694 7.2946C12.3546 7.22366 11.7398 7.22366 11.125 7.2946C11.0777 7.2946 11.0423 7.30642 10.995 7.30642C9.03242 7.56652 7.23537 8.55962 5.97035 10.0847L5.65114 10.6168L5.11912 11.5035L4.72897 12.1537C4.72897 12.1774 4.71714 12.1892 4.70532 12.201V12.2128L5.55655 12.7212L10.995 15.937L12.0472 16.5517V8.86701L10.995 9.33992V8.19312L12.0472 7.72021L13.0994 8.19312L18.4433 10.6168L18.124 10.0847Z" fill="#C42370"/>
<path d="M19.9566 15.665C19.9447 18.1832 18.8098 20.5596 16.859 22.1557C16.1142 22.7586 15.2748 23.2315 14.3644 23.5389C13.6196 23.7872 12.8393 23.9172 12.059 23.9172C7.68463 23.9172 4.14966 20.0276 4.14966 15.665C4.14966 15.0148 4.23242 14.3764 4.38611 13.7498L12.059 18.2897L19.7319 13.7498C19.8738 14.3764 19.9566 15.0148 19.9566 15.665Z" fill="#1C4D6B"/>
<path d="M11.1252 7.28276L12.0473 7.70838L10.9951 8.18128V7.23547L11.1252 7.28276Z" fill="black"/>
<path d="M10.9951 9.33989L12.0473 8.85516V16.5399L10.9951 15.9251V9.33989Z" fill="black"/>
<path d="M12.0474 8.85516V16.5399L19.401 12.201L12.0474 8.85516Z" fill="#1D4259"/>
<path d="M12.0474 0V8.85517L19.401 12.201L12.0474 0Z" fill="#4B6B9A"/>
<path d="M12.0472 8.85514V16.5399L10.995 15.9251L4.70532 12.2009C4.70532 12.1773 4.71714 12.1655 4.72897 12.1537L5.65113 10.6285L10.995 8.2049V9.36351L12.0472 8.85514Z" fill="#343535"/>
<path d="M12.0473 8.85516V16.5399L10.9951 15.9251L4.70543 12.201H4.6936L4.70543 12.1892L10.9951 9.33989L12.0473 8.85516Z" fill="#3E5578"/>
<path d="M12.0473 0V8.85517L4.6936 12.201L12.0473 0Z" fill="#6DB2D8"/>
<path d="M9.06812 23.2906C9.17452 23.3379 9.29275 23.3852 9.39915 23.4325C9.29275 23.3852 9.18634 23.3379 9.06812 23.2906Z" fill="#335F8A"/>
<path d="M9.39893 23.4207C9.50533 23.468 9.62355 23.5035 9.74178 23.5389C9.62355 23.5035 9.51715 23.468 9.39893 23.4207Z" fill="#335F8A"/>
<path d="M10.0376 23.6335C10.1322 23.6571 10.2149 23.6808 10.2977 23.7044L10.0376 23.6335Z" fill="#335F8A"/>
<path d="M4.37439 13.7498L12.0473 18.2897C11.9409 18.9754 11.7635 19.6493 11.4916 20.2995C10.8768 21.7892 9.63547 23.3498 7.23547 22.1557C5.28474 20.5596 4.14976 18.1714 4.13794 15.6532C4.13794 15.0148 4.2207 14.3764 4.37439 13.7498Z" fill="#6DB2D8"/>
<path d="M16.8356 22.1675C16.7883 22.203 16.8356 22.1675 16.6819 22.2975L16.611 22.3448L16.5046 22.4158L16.3745 22.5103C16.5046 22.4158 16.2681 22.5813 16.2208 22.6167C16.1735 22.6404 16.1381 22.664 16.0908 22.6995L16.008 22.7586C15.9844 22.7704 15.9489 22.7941 15.9253 22.8177C15.9253 22.8177 15.8898 22.8532 15.878 22.8532C15.9253 22.8177 15.8189 22.8768 15.7716 22.9123C15.7124 22.936 15.6652 22.9596 15.6179 22.9951L15.4523 23.0778L15.3814 23.1133C15.3341 23.1369 15.3578 23.1133 15.3105 23.1488C15.2632 23.1842 15.2041 23.1961 15.145 23.2315C15.0858 23.267 15.145 23.2315 14.944 23.3261C15.145 23.2315 14.944 23.3261 14.8376 23.3734C14.944 23.3261 14.6484 23.4443 14.5184 23.4916C14.4711 23.5034 14.211 23.5862 14.1637 23.598C14.1164 23.6099 14.0573 23.6335 14.01 23.6453C13.9154 23.669 13.8326 23.6926 13.7499 23.7163C13.7144 23.7281 13.6789 23.7281 13.6553 23.7399L13.5962 23.7517L13.4543 23.7872C13.407 23.799 13.3716 23.799 13.3243 23.8108C13.277 23.8227 13.2415 23.8227 13.206 23.8345C13.1706 23.8463 13.1115 23.8463 13.076 23.8581C13.0523 23.8581 13.0287 23.8581 13.0169 23.8699L12.9223 23.8818H12.875C12.8395 23.8818 12.8041 23.8936 12.7686 23.8936C12.7331 23.8936 12.674 23.9054 12.6267 23.9054H11.4208C11.3735 23.9054 11.3262 23.8936 11.2789 23.8936C11.2435 23.8936 11.208 23.8936 11.1725 23.8818H11.1253C11.0898 23.8818 11.0543 23.8699 11.0307 23.8699C11.007 23.8699 10.9834 23.8699 10.9716 23.8581C10.9243 23.8581 10.8888 23.8463 10.8415 23.8345C10.806 23.8345 10.7587 23.8227 10.7233 23.8108C10.6878 23.799 10.6405 23.799 10.5932 23.7872L10.4514 23.7517L10.3922 23.7399C10.3568 23.7399 10.3213 23.7281 10.2977 23.7163C10.2031 23.6926 10.1203 23.669 10.0376 23.6453L9.88387 23.598C9.83658 23.5862 9.78929 23.5744 9.742 23.5507C9.62377 23.5153 9.51737 23.468 9.39914 23.4325C9.28092 23.397 9.17451 23.3379 9.06811 23.2906C9.02082 23.267 8.9617 23.2433 8.90259 23.2197C8.84348 23.1961 8.78436 23.1724 8.73707 23.1369C8.67796 23.1133 8.63067 23.0897 8.58338 23.0542C8.53609 23.0305 8.47698 22.9951 8.42968 22.9714C8.38239 22.9478 8.34693 22.9241 8.31146 22.9005C8.19323 22.8296 8.1223 22.7823 8.19323 22.8296L8.1223 22.7823L7.99225 22.6995L7.94496 22.6759L7.82673 22.5931C7.77944 22.5576 7.73215 22.534 7.68486 22.4985C7.63757 22.4631 7.57845 22.4276 7.53116 22.3921C7.48387 22.3566 7.43658 22.3094 7.40111 22.2857L7.35382 22.2502C7.30653 22.2266 7.27106 22.1911 7.2356 22.1557C9.6356 23.3498 10.8652 21.7655 11.4799 20.2877C11.74 19.6374 11.9292 18.9635 12.0356 18.2778C12.142 18.9754 12.3193 19.6611 12.5913 20.3113C13.2297 21.7773 14.4356 23.3498 16.8356 22.1675Z" fill="#529BBA"/>
<path d="M13.7971 23.7044C13.8917 23.6808 13.9745 23.6571 14.0572 23.6335L13.7971 23.7044Z" fill="#335F8A"/>
<path d="M14.3528 23.5389C14.471 23.5035 14.5774 23.468 14.6956 23.4207C14.5774 23.468 14.471 23.5035 14.3528 23.5389Z" fill="#335F8A"/>
<path d="M14.6719 23.4325C14.7783 23.3852 14.9201 23.3379 15.0265 23.2788C14.9083 23.3379 14.7783 23.3852 14.6719 23.4325Z" fill="#335F8A"/>
<path d="M19.9567 15.665C19.9449 18.1833 18.8099 20.5596 16.8592 22.1557C14.4592 23.3498 13.2178 21.7773 12.603 20.2995C12.3429 19.6493 12.1538 18.9754 12.0474 18.2897L19.7203 13.7498C19.874 14.3764 19.9567 15.0148 19.9567 15.665Z" fill="#4B6B9A"/>
</svg>
