<svg width="24" height="24" viewBox="0 0 42 42" fill="none" xmlns="http://www.w3.org/2000/svg">
  <circle cx="21" cy="21" r="21" fill="white" />
  <path
    d="M30.4081 11.6855C30.4081 11.6855 31.6594 8.57906 31.4976 7.86716C31.3465 7.17684 31.3358 6.96111 30.2032 6.11978C29.7502 6.32472 28.9412 6.61595 28.2832 6.48651C27.3125 6.30314 26.8163 5.96877 26.3525 5.55889C25.8887 5.14901 25.6406 4.54497 25.5974 4.18902C25.5866 4.10273 25.6837 4.03802 25.7592 4.09195C26.1583 4.38318 26.4819 4.91171 27.6145 5.28923C28.2617 5.50496 28.7902 5.44024 29.1138 5.33238C27.6792 4.34003 25.5974 2.98096 24.357 2.57108C22.7714 2.05333 22.0595 3.06725 22.0595 3.06725L20.571 5.41867C20.571 5.41867 23.0734 5.7854 25.6298 7.21998C28.1754 8.64378 30.4081 11.6855 30.4081 11.6855Z"
    fill="#070713" />
  <path
    d="M34.399 15.2121C34.0862 15.2552 33.6116 15.2552 32.9752 15.0934C30.4836 14.3923 28.9519 10.2827 24.6374 7.69401C17.7449 4.13453 14.0452 7.34885 14.0452 7.34885C13.5706 7.67244 14.056 7.87738 14.056 7.87738L16.3211 9.02073L17.389 9.58162C17.389 9.58162 16.7094 10.4553 15.3288 9.78656C14.8757 9.59241 13.9697 9.53848 13.2686 10.1641C12.5027 10.5848 12.8371 11.8036 12.2762 12.5802C11.7261 13.3568 10.6259 13.2274 10.5073 14.3492C10.4102 15.4925 11.3163 15.7083 11.3378 16.5604C11.3594 17.4125 11.0466 17.8979 10.9603 18.1244C10.9279 18.2215 10.9064 18.3401 10.9064 18.4588C10.9172 18.6206 10.9927 18.7824 11.1005 18.9118C11.1868 19.0089 11.2623 19.0736 11.3486 19.1275C11.7153 19.3756 12.0281 19.6992 12.2331 20.0875C12.2654 20.1522 12.2978 20.2169 12.341 20.2817C12.3733 20.3356 12.4057 20.4003 12.4488 20.4758C12.6861 20.8965 12.7832 21.3927 12.6969 21.878C12.6753 22.0075 12.6861 22.1585 12.7293 22.2987C12.8155 22.5576 13.0421 22.7517 13.3117 22.8272C13.7108 22.9243 14.056 23.1616 14.2933 23.496C14.3148 23.5176 14.3256 23.5499 14.3472 23.5715C14.6708 24.0245 14.6061 24.7364 14.7355 25.2542C14.865 25.7719 15.2964 25.9337 15.922 26.2896C16.5476 26.6456 16.6771 27.2065 16.4182 27.4761C16.1593 27.7458 14.6277 27.0878 14.0128 27.8213C13.5598 28.242 13.754 28.5116 13.5274 29.3098C13.3009 30.1188 12.6106 29.5255 12.2439 30.0864C11.8771 30.6473 11.8232 31.2514 12.0066 32.4486C12.1899 33.6459 13.3549 35.2962 13.3549 35.2962C13.3549 35.2962 12.7293 33.1174 14.0883 31.2514C15.2425 29.8923 16.127 29.7089 17.4321 29.6873C18.748 29.655 20.6896 30.8415 21.0887 33.1713C21.2936 34.7138 20.4523 35.609 20.3876 35.6953C20.2365 35.8679 18.9961 37.2378 17.3458 36.3209C16.8928 36.0081 16.4937 35.6845 16.224 35.0589C16.0299 34.4873 15.9759 33.7214 16.2995 33.2037C16.5692 32.7722 17.0006 32.6428 17.1301 32.632C17.3242 32.6104 17.7449 32.6212 18.0146 32.8262C18.2842 33.0311 18.5754 33.3331 18.5215 33.8509C18.4676 34.3686 17.9283 34.5196 17.7233 34.4765C17.5507 34.4441 17.6694 34.4657 17.7125 34.4765C17.3782 34.4549 17.2272 34.196 17.1624 34.0127C17.1517 33.9695 17.0869 33.9803 17.0761 34.0234C16.9791 34.7353 17.5184 35.1884 17.842 35.2639C18.1979 35.3394 18.7265 35.3286 19.1579 34.8863C19.5354 34.5088 19.7404 34.1852 19.7404 33.3547C19.7404 32.6752 19.4599 32.2006 18.9961 31.7907C18.3921 31.2298 17.5939 31.0141 17.0438 31.0572C16.526 31.1003 15.62 31.3161 15.0267 32.2545C14.4766 33.1174 14.2393 34.3039 14.7032 35.6306L14.7247 35.6738C15.7818 38.1438 18.2519 38.7694 19.9561 38.7694C20.3013 38.7694 20.6141 38.7479 20.8729 38.7047C20.9269 38.6939 22.1457 38.5106 23.3322 37.7771C24.7992 36.8063 25.6729 35.4041 25.6729 33.236C25.6729 30.3561 24.4109 28.4361 21.8221 25.4375C21.326 24.8227 19.3089 22.3311 18.9422 21.8457C17.1409 19.5158 15.1238 16.7761 16.127 14.6943C16.1593 14.6296 16.1917 14.5757 16.224 14.511C17.7233 11.7605 21.9516 12.44 21.0239 12.6126C19.4168 12.8822 18.4568 13.5941 18.1656 13.9069C17.8743 14.2197 17.7125 14.4894 17.5184 14.9964C17.184 15.8269 17.4537 17.1105 18.1656 18.2323C21.2612 22.6223 25.8346 28.091 26.3955 29.4069C27.1182 31.068 27.2261 32.3839 27.2153 33.1929C27.2045 34.0019 27.0104 35.2962 27.0104 35.2962C27.0104 35.2962 28.0782 34.4441 28.5852 33.4086C29.0921 32.3731 29.1784 31.877 29.0274 31.4887C28.8656 31.1003 28.4665 31.0896 28.3047 30.4532C28.1429 29.8168 28.5959 29.2559 28.1213 28.242C27.9164 27.7997 26.827 27.1525 26.2661 26.4407C25.7052 25.7288 24.6805 24.456 23.9147 23.4313C22.534 21.5976 22.081 20.972 21.2828 19.9365C22.1457 20.1954 23.2244 20.5513 25.7052 19.3972C28.0027 20.5729 29.5775 20.5082 30.1276 20.4758C30.6777 20.4435 31.1955 20.1954 31.5945 19.8826C31.8534 19.6776 32.0476 19.2677 32.1662 18.9981C32.2094 18.901 32.1123 18.8147 32.0152 18.8471C30.0845 19.6453 28.3047 18.9981 26.1151 17.7792L25.7268 17.5635L25.3385 17.7684C23.041 18.9981 20.6249 18.0381 20.4091 17.9518C20.3228 17.9087 19.6649 17.5635 19.3736 16.981C19.0824 16.3986 19.0177 15.7838 19.2334 15.266C19.406 14.8454 19.8159 14.5649 20.4846 14.4247C21.0347 14.36 21.7466 14.5649 22.3183 14.7914C22.4477 14.8453 22.5664 14.7159 22.5125 14.5973C22.4477 14.4247 22.4046 14.2413 22.4046 14.0472C22.4046 13.7236 22.5125 13.4323 22.685 13.195L23.4509 13.551C23.3214 13.6804 23.2459 13.8746 23.2675 14.0903C23.2999 14.3708 23.5372 14.6081 23.8176 14.6404C24.1951 14.6943 24.5079 14.4139 24.5403 14.0579L25.263 14.3923C25.1335 14.9209 24.7237 15.3307 24.1951 15.4602C24.0873 15.4817 24.0765 15.622 24.1843 15.6543C25.1659 16.1181 28.0351 17.4556 28.0351 17.4556C28.0351 17.4556 29.6962 18.3833 31.1523 18.1999C32.5545 18.1244 33.1801 17.0134 32.3496 17.1213C31.519 17.2291 29.5559 16.377 29.5559 16.377L28.24 15.7622L28.7901 14.9101C28.7901 14.9101 30.6669 15.9779 32.328 16.3447C33.4282 16.5819 34.1725 15.9563 34.55 15.5033C34.6686 15.3847 34.5608 15.1905 34.399 15.2121ZM19.0393 11.4692C18.3382 11.5555 17.2703 11.8791 16.6663 12.1703C16.4398 12.2782 16.2456 12.3861 16.0838 12.4831C15.5553 12.8283 15.0807 13.3461 14.7032 14.0579C13.2254 16.9271 15.9328 20.4435 18.1116 23.2695C18.4784 23.7441 18.8127 24.1863 19.1148 24.5962C19.5786 25.2326 20.0855 25.8582 20.5817 26.4514C21.8545 28.0155 23.2567 29.6766 23.8607 31.521C24.0225 32.1682 24.0441 32.7722 23.9686 33.2576C23.7097 34.7677 22.3938 35.2854 22.3938 35.2854C22.588 34.6598 22.6958 33.8509 22.5772 32.9232V32.9017C22.1781 30.7336 20.4199 28.8136 20.4199 28.8136C19.9992 28.2528 19.5462 27.6703 19.1795 27.1957C15.4798 22.4389 15.113 21.8996 14.2393 20.314L14.2286 20.2924C14.207 20.2493 14.1746 20.1954 14.1423 20.1414C13.6353 19.2893 12.2762 17.0134 12.8695 14.6296C13.0097 14.0795 13.2578 13.5833 13.6137 13.1519C15.7818 10.3367 19.9345 11.2966 19.0393 11.4692Z"
    fill="#070713" />
  <circle cx="17.5" cy="33.5" r="6.25" fill="#C4C4C4" stroke="white" stroke-width="1.5" />
</svg>