<svg width="18" height="18" viewBox="0 0 18 18" fill="none" xmlns="http://www.w3.org/2000/svg">
<path d="M9 18C13.9706 18 18 13.9706 18 9C18 4.02942 13.9706 0 9 0C4.02942 0 0 4.02942 0 9C0 13.9706 4.02942 18 9 18Z" fill="#6E97FF"/>
<path d="M10.74 11.1257C10.74 10.8329 10.7976 10.6061 10.9128 10.4453C11.028 10.2845 11.1912 10.2041 11.4024 10.2041C11.5584 10.2041 11.6844 10.2473 11.7804 10.3337C11.8764 10.4201 11.9388 10.5425 11.9676 10.7009C11.9916 10.5137 12.0516 10.3697 12.1476 10.2689C12.2436 10.1657 12.378 10.1141 12.5508 10.1141C12.7716 10.1141 12.9456 10.1981 13.0728 10.3661C13.1976 10.5341 13.26 10.7717 13.26 11.0789V12.0833H10.74V11.1257ZM11.7768 11.5433V11.1113C11.7768 10.9961 11.7492 10.9061 11.694 10.8413C11.6388 10.7765 11.5644 10.7441 11.4708 10.7441C11.3772 10.7441 11.3028 10.7765 11.2476 10.8413C11.1924 10.9061 11.1648 10.9961 11.1648 11.1113V11.5433H11.7768ZM12.8316 11.5433V11.0753C12.8316 10.9457 12.804 10.8461 12.7488 10.7765C12.6936 10.7045 12.6168 10.6685 12.5184 10.6685C12.4152 10.6685 12.336 10.7045 12.2808 10.7765C12.2232 10.8485 12.1944 10.9481 12.1944 11.0753V11.5433H12.8316ZM10.74 10.0685V8.07414H11.2044V8.80134H13.26V9.34134H11.2044V10.0685H10.74ZM12 8.05326C11.7432 8.05326 11.5188 8.00406 11.3268 7.90566C11.1324 7.80486 10.9824 7.66206 10.8768 7.47726C10.7712 7.29006 10.7184 7.07046 10.7184 6.81846C10.7184 6.62166 10.7568 6.44526 10.8336 6.28926C10.9104 6.13326 11.0184 6.00726 11.1576 5.91126C11.2968 5.81526 11.4576 5.75766 11.64 5.73846V6.27846C11.496 6.30966 11.3832 6.37566 11.3016 6.47646C11.2176 6.57486 11.1756 6.69846 11.1756 6.84726C11.1756 7.04886 11.2512 7.20846 11.4024 7.32606C11.5536 7.44366 11.7528 7.50246 12 7.50246C12.2448 7.50246 12.444 7.44366 12.5976 7.32606C12.7488 7.20846 12.8244 7.04886 12.8244 6.84726C12.8244 6.69846 12.7836 6.57486 12.702 6.47646C12.618 6.37566 12.504 6.30966 12.36 6.27846V5.73846C12.5424 5.75766 12.7032 5.81526 12.8424 5.91126C12.9816 6.00726 13.0896 6.13326 13.1664 6.28926C13.2432 6.44526 13.2816 6.62166 13.2816 6.81846C13.2816 7.07046 13.2288 7.29006 13.1232 7.47726C13.0176 7.66206 12.8688 7.80486 12.6768 7.90566C12.4824 8.00406 12.2568 8.05326 12 8.05326Z" fill="#1E1A31"/>
<path opacity="0.5" fill-rule="evenodd" clip-rule="evenodd" d="M4.88545 12.5117L4.13641 11.9773L8.84743 5.43167L9.59641 5.96603L4.88545 12.5117Z" fill="#1E1A31"/>
<path fill-rule="evenodd" clip-rule="evenodd" d="M7.31207 8.54094H7.56353C8.72141 8.54094 9.65999 9.47646 9.65999 10.6305C9.65999 11.7845 8.72141 12.72 7.56353 12.72H4.48055C4.22615 12.72 4.01999 12.5145 4.01999 12.2609C4.01999 12.0074 4.22621 11.8019 4.48055 11.8019H7.56353C8.21267 11.8019 8.73887 11.2775 8.73887 10.6305C8.73887 9.98352 8.21267 9.45906 7.56353 9.45906H6.11645C4.95857 9.45906 4.01999 8.52354 4.01999 7.3695C4.01999 6.21552 4.95857 5.28 6.11645 5.28H9.19943C9.45377 5.28 9.65999 5.4855 9.65999 5.739C9.65999 5.99256 9.45377 6.19806 9.19943 6.19806H6.11645C5.46725 6.19806 4.94105 6.72252 4.94105 7.3695C4.94105 8.01648 5.46725 8.54094 6.11645 8.54094H7.31207Z" fill="#1E1A31"/>
</svg>
