<svg width="24" height="24" viewBox="0 0 24 24" fill="none" xmlns="http://www.w3.org/2000/svg">
  <path
    d="M12 24C18.6274 24 24 18.6274 24 12C24 5.37256 18.6274 0 12 0C5.37256 0 0 5.37256 0 12C0 18.6274 5.37256 24 12 24Z"
    fill="#6E97FF" />
  <path
    d="M14.32 14.8343C14.32 14.4439 14.3968 14.1415 14.5504 13.9271C14.704 13.7127 14.9216 13.6055 15.2032 13.6055C15.4112 13.6055 15.5792 13.6631 15.7072 13.7783C15.8352 13.8935 15.9184 14.0567 15.9568 14.2679C15.9888 14.0183 16.0688 13.8263 16.1968 13.6919C16.3248 13.5543 16.504 13.4855 16.7344 13.4855C17.0288 13.4855 17.2608 13.5975 17.4304 13.8215C17.5968 14.0455 17.68 14.3623 17.68 14.7719V16.1111H14.32V14.8343ZM15.7024 15.3911V14.8151C15.7024 14.6615 15.6656 14.5415 15.592 14.4551C15.5184 14.3687 15.4192 14.3255 15.2944 14.3255C15.1696 14.3255 15.0704 14.3687 14.9968 14.4551C14.9232 14.5415 14.8864 14.6615 14.8864 14.8151V15.3911H15.7024ZM17.1088 15.3911V14.7671C17.1088 14.5943 17.072 14.4615 16.9984 14.3687C16.9248 14.2727 16.8224 14.2247 16.6912 14.2247C16.5536 14.2247 16.448 14.2727 16.3744 14.3687C16.2976 14.4647 16.2592 14.5975 16.2592 14.7671V15.3911H17.1088ZM14.32 13.4248V10.7656H14.9392V11.7352H17.68V12.4552H14.9392V13.4248H14.32ZM16 10.7378C15.6576 10.7378 15.3584 10.6722 15.1024 10.541C14.8432 10.4066 14.6432 10.2162 14.5024 9.96976C14.3616 9.72016 14.2912 9.42736 14.2912 9.09137C14.2912 8.82897 14.3424 8.59377 14.4448 8.38577C14.5472 8.17777 14.6912 8.00977 14.8768 7.88177C15.0624 7.75377 15.2768 7.67697 15.52 7.65137V8.37137C15.328 8.41297 15.1776 8.50097 15.0688 8.63537C14.9568 8.76657 14.9008 8.93137 14.9008 9.12977C14.9008 9.39856 15.0016 9.61136 15.2032 9.76816C15.4048 9.92496 15.6704 10.0034 16 10.0034C16.3264 10.0034 16.592 9.92496 16.7968 9.76816C16.9984 9.61136 17.0992 9.39856 17.0992 9.12977C17.0992 8.93137 17.0448 8.76657 16.936 8.63537C16.824 8.50097 16.672 8.41297 16.48 8.37137V7.65137C16.7232 7.67697 16.9376 7.75377 17.1232 7.88177C17.3088 8.00977 17.4528 8.17777 17.5552 8.38577C17.6576 8.59377 17.7088 8.82897 17.7088 9.09137C17.7088 9.42736 17.6384 9.72016 17.4976 9.96976C17.3568 10.2162 17.1584 10.4066 16.9024 10.541C16.6432 10.6722 16.3424 10.7378 16 10.7378Z"
    fill="#1E1A31" />
  <path opacity="0.5" fill-rule="evenodd" clip-rule="evenodd"
    d="M6.51392 16.6822L5.5152 15.9697L11.7966 7.24219L12.7952 7.95467L6.51392 16.6822Z" fill="#1E1A31" />
  <path fill-rule="evenodd" clip-rule="evenodd"
    d="M9.74944 11.388H10.0847C11.6286 11.388 12.88 12.6353 12.88 14.174C12.88 15.7127 11.6286 16.96 10.0847 16.96H5.97408C5.63488 16.96 5.36 16.686 5.36 16.348C5.36 16.01 5.63496 15.736 5.97408 15.736H10.0847C10.9502 15.736 11.6518 15.0367 11.6518 14.174C11.6518 13.3114 10.9502 12.6121 10.0847 12.6121H8.15528C6.61144 12.6121 5.36 11.3648 5.36 9.82604C5.36 8.2874 6.61144 7.04004 8.15528 7.04004H12.2659C12.605 7.04004 12.88 7.31404 12.88 7.65204C12.88 7.99012 12.605 8.26412 12.2659 8.26412H8.15528C7.28968 8.26412 6.58808 8.9634 6.58808 9.82604C6.58808 10.6887 7.28968 11.388 8.15528 11.388H9.74944Z"
    fill="#1E1A31" />
</svg>