<svg width="24" height="24" viewBox="0 0 24 24" fill="none" xmlns="http://www.w3.org/2000/svg">
<mask id="mask0" mask-type="alpha" maskUnits="userSpaceOnUse" x="0" y="0" width="24" height="24">
<path d="M12 24C18.6274 24 24 18.6274 24 12C24 5.37258 18.6274 0 12 0C5.37258 0 0 5.37258 0 12C0 18.6274 5.37258 24 12 24Z" fill="url(#paint0_linear)"/>
</mask>
<g mask="url(#mask0)">
<path d="M12 24C18.6274 24 24 18.6274 24 12C24 5.37258 18.6274 0 12 0C5.37258 0 0 5.37258 0 12C0 18.6274 5.37258 24 12 24Z" fill="#31D8A4"/>
<path d="M12.0001 22.4C17.7439 22.4 22.4001 17.7438 22.4001 12C22.4001 6.25624 17.7439 1.6 12.0001 1.6C6.25634 1.6 1.6001 6.25624 1.6001 12C1.6001 17.7438 6.25634 22.4 12.0001 22.4Z" fill="white"/>
<path d="M12 21.2C17.0811 21.2 21.2001 17.081 21.2001 12C21.2001 6.91898 17.0811 2.8 12 2.8C6.91903 2.8 2.80005 6.91898 2.80005 12C2.80005 17.081 6.91903 21.2 12 21.2Z" fill="#0E052F"/>
<path d="M12 21.2C17.0811 21.2 21.2001 17.081 21.2001 12C21.2001 6.919 17.0811 2.8 12 2.8C6.91905 2.8 2.80005 6.919 2.80005 12C2.80005 17.081 6.91905 21.2 12 21.2Z" fill="#627EEA"/>
<path d="M12.2864 5.1V10.2002L16.5972 12.1265L12.2864 5.1Z" fill="white" fill-opacity="0.602"/>
<path d="M12.2865 5.1L7.9751 12.1265L12.2865 10.2002V5.1Z" fill="white"/>
<path d="M12.2864 15.4316V18.8971L16.6 12.9292L12.2864 15.4316Z" fill="white" fill-opacity="0.602"/>
<path d="M12.2865 18.8971V15.431L7.9751 12.9292L12.2865 18.8971Z" fill="white"/>
<path d="M12.2864 14.6295L16.5972 12.1265L12.2864 10.2014V14.6295Z" fill="white" fill-opacity="0.2"/>
<path d="M7.9751 12.1265L12.2865 14.6295V10.2014L7.9751 12.1265Z" fill="white" fill-opacity="0.602"/>
</g>
<defs>
<linearGradient id="paint0_linear" x1="12" y1="0" x2="12" y2="35.0909" gradientUnits="userSpaceOnUse">
<stop stop-color="#08021E"/>
<stop offset="1" stop-color="#1F0777"/>
</linearGradient>
</defs>
</svg>
