<svg width="24" height="24" viewBox="0 0 24 24" fill="none" xmlns="http://www.w3.org/2000/svg">
<g clip-path="url(#clip0)">
<path d="M0.800049 0.799988H18.9566C21.742 0.799988 24 2.97562 24 5.6594V18.3406C24 21.0244 21.742 23.2 18.9566 23.2H5.84353C3.05809 23.2 0.800049 21.0244 0.800049 18.3406V0.799988ZM4.07312 3.62054V18.4212C4.07312 19.4947 4.97633 20.3649 6.09051 20.3649H18.7302C19.8444 20.3649 20.7476 19.4947 20.7476 18.4212V5.5643C20.7476 4.49079 19.8444 3.62054 18.7302 3.62054H4.07312ZM7.59915 3.62054H10.8507V10.8048V14.9258C10.8507 15.9993 9.94746 16.8696 8.83329 16.8696H4.07312V14.1375H7.59915V3.62054ZM7.59915 3.62054H10.8507H7.59915ZM4.07312 16.8696V14.1375V16.8696ZM17.2216 20.3649H13.97V13.1806V9.05963C13.97 7.98612 14.8732 7.11587 15.9874 7.11587H20.7476V9.84796H17.2216V20.3649ZM20.7476 7.11587V9.84796V7.11587ZM17.2216 20.3649H13.97H17.2216Z" fill="#3964DF"/>
</g>
<defs>
<clipPath id="clip0">
<rect width="24" height="24" fill="white"/>
</clipPath>
</defs>
</svg>
