<svg width="18" height="18" viewBox="0 0 18 18" fill="none" xmlns="http://www.w3.org/2000/svg">
<circle cx="9" cy="9" r="8" fill="white"/>
<path fill-rule="evenodd" clip-rule="evenodd" d="M8.99469 16.0269C12.8785 16.0269 16.0269 12.8785 16.0269 8.99469C16.0269 5.11096 12.8785 1.96247 8.99469 1.96247C5.11096 1.96247 1.96247 5.11096 1.96247 8.99469C1.96247 12.8785 5.11096 16.0269 8.99469 16.0269ZM8.99469 17.9895C13.9624 17.9895 17.9895 13.9624 17.9895 8.99469C17.9895 4.02707 13.9624 0 8.99469 0C4.02707 0 0 4.02707 0 8.99469C0 13.9624 4.02707 17.9895 8.99469 17.9895Z" fill="black"/>
<path d="M12.0677 8.41377H5.92182C5.85882 8.41377 5.80984 8.46275 5.80984 8.52575V9.5617C5.80984 9.6247 5.85882 9.67367 5.92182 9.67367H8.25273V12.8306C8.25273 12.8936 8.3018 12.9426 8.3648 12.9426H9.63873C9.70173 12.9426 9.75071 12.8936 9.75071 12.8306V9.67367H12.0816C12.1446 9.67367 12.1936 9.6247 12.1936 9.5617V8.52575C12.1797 8.46275 12.1307 8.41377 12.0677 8.41377ZM8.99471 6.94383C9.51974 6.94383 9.93971 6.51676 9.93971 5.99883C9.93971 5.4738 9.51273 5.05383 8.99471 5.05383C8.46977 5.05383 8.0498 5.48081 8.0498 5.99883C8.04929 6.12307 8.07338 6.24618 8.12068 6.36105C8.16798 6.47593 8.23756 6.58031 8.32541 6.66816C8.41325 6.75601 8.51762 6.8256 8.63249 6.87292C8.74737 6.92023 8.87047 6.94434 8.99471 6.94383Z" fill="black"/>
</svg>
