<svg width="18" height="18" viewBox="0 0 18 18" fill="none" xmlns="http://www.w3.org/2000/svg">
<path d="M9 18C13.9706 18 18 13.9706 18 9C18 4.02944 13.9706 0 9 0C4.02944 0 0 4.02944 0 9C0 13.9706 4.02944 18 9 18Z" fill="#26A17B"/>
<path fill-rule="evenodd" clip-rule="evenodd" d="M10.0811 9.77794V9.77681C10.0193 9.78131 9.70032 9.80044 8.98876 9.80044C8.42064 9.80044 8.0207 9.78356 7.88007 9.77681V9.7785C5.69307 9.68231 4.0607 9.3015 4.0607 8.84587C4.0607 8.39081 5.69307 8.01 7.88007 7.91212V9.39937C8.02295 9.4095 8.43245 9.43369 8.99832 9.43369C9.67726 9.43369 10.0176 9.40556 10.0811 9.39994V7.91325C12.2636 8.01056 13.8921 8.39137 13.8921 8.84587C13.8921 9.3015 12.2636 9.68119 10.0811 9.77794ZM10.0811 7.75856V6.42769H13.1265V4.39819H4.8347V6.42769H7.88007V7.758C5.40507 7.87162 3.54376 8.36212 3.54376 8.94937C3.54376 9.53662 5.40507 10.0266 7.88007 10.1407V14.4056H10.0811V10.1396C12.5522 10.026 14.409 9.53606 14.409 8.94937C14.409 8.36269 12.5522 7.87275 10.0811 7.75856Z" fill="white"/>
</svg>
