<svg width="24" height="24" viewBox="0 0 256.000000 256.000000" xmlns="http://www.w3.org/2000/svg">
  <g transform="translate(0.000000,256.000000) scale(0.100000,-0.100000)" fill="transparent" stroke="none">
    <path d="M0 1280 l0 -1280 1280 0 1280 0 0 1280 0 1280 -1280 0 -1280 0 0
-1280z m1854 968 l58 -283 -87 -80 -86 -80 1 -12 c0 -18 6 -17 104 23 49 19
89 34 91 32 1 -2 23 -97 47 -213 l45 -210 -58 -60 -59 -61 0 -12 c0 -15 2 -15
72 4 32 9 60 15 63 12 5 -5 75 -334 75 -354 l0 -14 -221 0 -220 0 5 18 c3 9 8
38 12 65 l6 47 -14 0 -14 0 -64 -65 -64 -65 -67 0 c-36 0 -119 3 -185 6 l-119
7 -68 62 -67 62 40 86 c22 48 40 92 40 97 l0 10 -12 0 c-6 0 -47 -23 -89 -51
l-78 -51 -18 14 c-39 28 -443 392 -443 399 0 7 1299 949 1310 949 3 0 32 -127
64 -282z m-1071 -1140 l332 -303 462 -5 463 -5 -604 -382 c-332 -211 -608
-383 -612 -383 l-9 0 -54 196 -53 196 46 47 46 47 0 12 0 12 -47 -6 c-27 -3
-54 -7 -60 -9 l-12 -4 -12 42 c-6 23 -26 96 -44 162 -18 66 -38 136 -43 155
l-9 36 68 59 69 60 0 13 0 12 -12 0 c-7 0 -42 -9 -78 -20 l-64 -20 -7 8 c-4 4
-28 84 -54 177 -25 94 -48 178 -51 188 l-5 17 6 0 c3 0 155 -136 338 -302z" />
  </g>
  <g transform="translate(0.000000,256.000000) scale(0.100000,-0.100000)" fill="#3b3b3b" stroke="none">
    <path d="M1210 2133 c-322 -233 -625 -452 -673 -487 l-88 -64 223 -198 c122
-110 232 -207 245 -217 l22 -18 73 49 c40 27 79 52 87 57 l14 8 -7 -11 c-11
-18 258 166 271 186 6 9 104 258 218 552 114 294 208 537 210 540 2 3 1 11 -3
16 l-7 10 -585 -423z" />
    <path d="M1160 1183 c-69 -47 -128 -91 -132 -97 l-7 -11 72 -67 c40 -37 77
-67 84 -68 l12 0 60 155 c34 85 61 159 61 165 l0 10 -12 0 c-7 -1 -69 -39
-138 -87z" />
    <path d="M1068 697 c-27 -68 -48 -129 -48 -135 l0 -12 11 0 c15 0 389 243 389
253 l0 7 -139 0 c-77 0 -145 2 -153 5 l-13 5 -47 -123z" />
    <path d="M1239 642 l-256 -167 -87 -222 -88 -222 4 -14 3 -15 629 399 c346
220 632 401 634 404 3 3 -127 5 -289 5 l-294 -1 -256 -167z" />
  </g>
  <g transform="translate(0.000000,256.000000) scale(0.100000,-0.100000)" fill="#666666" stroke="none">
    <path d="M1586 2003 c-115 -296 -211 -544 -213 -550 l-5 -13 11 0 12 0 162
151 c89 84 176 165 192 182 l30 30 -15 -7 c-8 -4 24 30 73 76 48 46 88 88 88
93 0 25 -116 575 -121 575 -4 0 -100 -242 -214 -537z" />
    <path d="M1889 1834 c-23 -19 -170 -157 -326 -305 l-283 -270 6 -10 6 -10 -57
-145 c-31 -80 -55 -147 -53 -149 2 -3 86 -8 187 -11 l182 -7 68 67 c37 36 69
64 72 62 3 -3 61 51 129 121 69 69 118 122 110 118 -8 -4 13 21 47 56 l63 64
-48 228 -47 227 -7 0 c-3 0 -25 -16 -49 -36z" />
    <path d="M414 1449 c3 -8 28 -97 56 -199 28 -102 55 -199 61 -216 l10 -32 62
20 c34 11 80 21 102 23 43 5 112 26 117 37 2 5 -251 240 -391 362 l-22 20 5
-15z" />
    <path d="M1856 1144 c-100 -103 -182 -193 -184 -200 l-3 -13 233 -3 c128 -2
234 -3 236 -2 1 0 -17 92 -40 202 l-41 202 -10 0 c-6 0 -92 -84 -191 -186z" />
    <path d="M1145 1290 l-6 -10 15 0 16 0 0 10 c0 6 -4 10 -9 10 -6 0 -13 -4 -16
-10z" />
    <path d="M655 1010 l-6 -10 15 0 16 0 0 10 c0 6 -4 10 -9 10 -6 0 -13 -4 -16
-10z" />
    <path d="M720 979 c-80 -23 -149 -44 -154 -49 l-8 -8 51 -189 c29 -103 54
-195 57 -204 l4 -15 83 3 c46 2 128 9 183 16 l99 13 -2 11 c-1 5 19 65 46 133
l48 123 -113 103 -112 104 -19 -1 c-10 0 -83 -18 -163 -40z" />
    <path d="M808 456 l-98 -12 -8 -9 -9 -10 58 -205 c31 -113 58 -207 59 -210 1
-5 162 398 174 438 l7 22 -43 -1 c-24 -1 -87 -7 -140 -13z" />
  </g>
  <g transform="translate(0.000000,256.000000) scale(0.100000,-0.100000)" fill="#d6024d" stroke="none">
    <path d="M1839 1829 l-96 -40 -190 -177 -191 -177 -125 -84 -125 -85 -45 -97
-45 -97 142 96 141 96 290 275 c361 341 351 331 345 330 -3 0 -48 -19 -101
-40z" />
    <path d="M1980 1309 l-64 -19 -112 -111 -112 -112 -7 -36 c-3 -20 -8 -49 -11
-66 l-6 -30 82 80 c81 79 306 316 299 314 -2 0 -33 -9 -69 -20z" />
    <path d="M763 1071 l-51 -16 -63 -55 c-34 -30 -70 -60 -78 -67 l-16 -12 110
30 c61 16 140 37 176 46 l65 16 -41 38 c-23 22 -44 39 -46 38 -2 -1 -27 -9
-56 -18z" />
    <path d="M1219 682 l-196 -128 -116 -13 -115 -13 -48 -50 -49 -50 30 6 c17 3
84 11 149 17 l119 12 265 174 265 173 -54 0 -54 0 -196 -128z" />
  </g>
</svg>