<?xml version="1.0" standalone="no"?>
<!DOCTYPE svg PUBLIC "-//W3C//DTD SVG 1.1//EN" "http://www.w3.org/Graphics/SVG/1.1/DTD/svg11.dtd" >
<svg xmlns="http://www.w3.org/2000/svg">
<metadata>
Created by FontPrep 20130207 at Sat Dec 24 19:29:02 2016
 By Alex
Copyright 2010 Monotype Imaging Inc. All rights reserved. Designed by Nick Job.
</metadata>
<defs>
<font id="5c45739fd497033955277a783379a6b5" horiz-adv-x='1024' >
  <font-face 
    font-family="Camphor-Regular"
    font-weight="400"
    font-stretch="normal"
    units-per-em="2048"
    panose-1="2 11 5 4 3 4 4 2 2 4"
    ascent="1638"
    descent="-410"
    x-height="1024"
    cap-height="1409"
    bbox="-436 -512 2386 1921"
    underline-thickness="102"
    underline-position="-256"
    unicode-range="U+0020-FB04"
  />
<missing-glyph horiz-adv-x="1024" 
d="M512 594l-332 -496h662zM569 682l332 -498v994zM123 186l14 21q24 34 123 186t193 289l-330 496v-992zM512 768l330 498h-662zM25 1362h972v-1362h-972v1362z" />
    <glyph glyph-name="IJ" unicode="IJ" horiz-adv-x="1519" 
d="M1323 369q0 -176 -114.5 -285t-290.5 -109q-125 0 -271 64v154q131 -76 246 -76t189.5 73.5t74.5 190.5v1028h166v-1040zM205 1409h166v-1409h-166v1409z" />
    <glyph glyph-name="ij" unicode="ij" horiz-adv-x="978" 
d="M477 -338q76 0 126 50t50 130v1182h162v-1198q0 -130 -86.5 -214.5t-222.5 -84.5q-90 0 -201 47v141q96 -53 172 -53zM633 1321q0 45 28.5 72.5t72.5 27.5t73 -27.5t29 -72.5t-29 -72.5t-73 -27.5t-72.5 27.5t-28.5 72.5zM143 1321q0 45 29 72.5t73 27.5t72.5 -27.5
t28.5 -72.5t-28.5 -72.5t-72.5 -27.5t-73 27.5t-29 72.5zM164 1024h162v-1024h-162v1024z" />
    <glyph glyph-name="napostrophe" unicode="&#x27;n" horiz-adv-x="1361" 
d="M156 1409h161l-178 -426h-139zM811 909q-152 0 -285 -145v-764h-161v1024h161v-113q150 137 316 137t266 -100t100 -258v-690h-164v668q0 106 -64.5 173.5t-168.5 67.5z" />
    <glyph glyph-name="uniFB00" unicode="ff" horiz-adv-x="1347" 
d="M1160 1497q83 0 188 -45v-141q-92 51 -170 51t-128.5 -49t-50.5 -131v-158h304v-129h-304v-895h-161v895h-437v-895h-161v895h-197v129h197v174q0 132 85.5 215.5t223.5 83.5q95 0 201 -45v-141q-92 51 -171 51t-128.5 -49t-49.5 -131v-158h437v174q0 132 85.5 215.5
t236.5 83.5z" />
    <glyph glyph-name="uniFB01" unicode="fi" horiz-adv-x="1163" 
d="M240 895h-197v129h197v111q0 160 105 261t253 101q147 0 285 -65v-150q-135 82 -245 82t-173.5 -66.5t-63.5 -171.5v-102h598v-1024h-161v895h-437v-895h-161v895z" />
    <glyph glyph-name="uniFB02" unicode="fl" horiz-adv-x="1163" 
d="M999 0h-161v1317q-104 47 -204 47t-166.5 -65.5t-66.5 -170.5v-104h304v-129h-304v-895h-161v895h-197v129h197v111q0 159 107.5 260.5t285.5 101.5t366 -98v-1399z" />
    <glyph glyph-name="uniFB03" unicode="ffi" horiz-adv-x="1759" 
d="M563 1497q82 0 187 -45v-141q-92 51 -171 51t-128.5 -49t-49.5 -131v-158h437v111q0 159 103.5 260.5t251.5 101.5t290 -65v-150q-139 82 -247 82t-172.5 -66.5t-64.5 -171.5v-102h596v-1024h-161v895h-435v-895h-161v895h-437v-895h-161v895h-197v129h197v174
q0 132 85.5 215.5t237.5 83.5z" />
    <glyph glyph-name="uniFB04" unicode="ffl" horiz-adv-x="1759" 
d="M1595 0h-161v1317q-100 47 -200 47t-167.5 -65.5t-67.5 -170.5v-104h304v-129h-304v-895h-161v895h-437v-895h-161v895h-197v129h197v174q0 132 85.5 215.5t223.5 83.5q95 0 201 -45v-141q-92 51 -171 51t-128.5 -49t-49.5 -131v-158h437v111q0 160 109 261t284.5 101
t363.5 -98v-1399z" />
    <glyph glyph-name="f_b.liga" unicode="fb" horiz-adv-x="1835" 
d="M1581 512q0 178 -89.5 288.5t-228.5 110.5q-140 0 -264 -123v-552q123 -123 263 -123t229.5 110.5t89.5 288.5zM1290 1049q200 0 329.5 -150.5t129.5 -386.5t-129.5 -386.5t-329.5 -150.5q-158 0 -291 117v-92h-161v1317q-106 47 -204 47t-165.5 -66.5t-67.5 -171.5v-102
h304v-129h-304v-895h-161v895h-197v129h197v111q0 159 107.5 260.5t285.5 101.5t366 -98v-465q133 115 291 115z" />
    <glyph glyph-name="f_f_b.liga" unicode="ffb" horiz-adv-x="2433" 
d="M2179 512q0 178 -89.5 288.5t-227.5 110.5q-139 0 -267 -123v-552q127 -123 266 -123t228.5 110.5t89.5 288.5zM1888 1049q201 0 329 -151t128 -386t-128 -386t-329 -151q-160 0 -293 117v-92h-161v1317q-104 47 -202 47t-165.5 -65.5t-67.5 -170.5v-104h304v-129h-304
v-895h-161v895h-437v-895h-161v895h-197v129h197v174q0 132 85.5 215.5t223.5 83.5q95 0 201 -45v-141q-92 51 -171 51t-128.5 -49t-49.5 -131v-158h437v111q0 160 109 261t284.5 101t363.5 -98v-465q133 115 293 115z" />
    <glyph glyph-name="f_h.liga" unicode="fh" horiz-adv-x="1835" 
d="M1679 690v-690h-161v668q0 106 -64.5 173.5t-169.5 67.5q-156 0 -285 -145v-764h-161v1317q-106 47 -204 47t-165.5 -65.5t-67.5 -170.5v-104h304v-129h-304v-895h-161v895h-197v129h197v111q0 159 107.5 260.5t285.5 101.5t366 -98v-488q149 137 315 137t265.5 -99
t99.5 -259z" />
    <glyph glyph-name="f_f_h.liga" unicode="ffh" horiz-adv-x="2433" 
d="M1880 909q-152 0 -285 -145v-764h-161v1317q-104 47 -202 47t-165.5 -65.5t-67.5 -170.5v-104h304v-129h-304v-895h-161v895h-437v-895h-161v895h-197v129h197v174q0 132 85.5 215.5t223.5 83.5q95 0 201 -45v-141q-92 51 -171 51t-128.5 -49t-49.5 -131v-158h437v111
q0 160 109 261t284.5 101t363.5 -98v-488q153 137 317 137t264.5 -100t100.5 -258v-690h-161v668q0 106 -65.5 173.5t-170.5 67.5z" />
    <glyph glyph-name="f_j.liga" unicode="fj" horiz-adv-x="1163" 
d="M838 -158v1053h-437v-895h-161v895h-197v129h197v111q0 160 105 261t253 101q147 0 285 -65v-150q-135 82 -245 82t-173.5 -66.5t-63.5 -171.5v-102h598v-1198q0 -131 -88 -215t-221 -84q-94 0 -201 47v141q91 -53 171 -53q79 0 128.5 50t49.5 130z" />
    <glyph glyph-name="f_f_j.liga" unicode="ffj" horiz-adv-x="1759" 
d="M1434 -158v1053h-435v-895h-161v895h-437v-895h-161v895h-197v129h197v174q0 132 85.5 215.5t223.5 83.5q95 0 201 -45v-141q-92 51 -171 51t-128.5 -49t-49.5 -131v-158h437v111q0 159 103.5 260.5t251.5 101.5t290 -65v-150q-139 82 -247 82t-172.5 -66.5t-64.5 -171.5
v-102h596v-1198q0 -130 -86.5 -214.5t-222.5 -84.5q-90 0 -201 47v141q100 -53 175 -53t124.5 50t49.5 130z" />
    <glyph glyph-name="f_k.liga" unicode="fk" horiz-adv-x="1660" 
d="M997 0h-159v1317q-106 47 -204 47t-165.5 -65.5t-67.5 -170.5v-104h304v-129h-304v-895h-161v895h-197v129h197v111q0 159 107.5 260.5t284.5 101.5t365 -98v-817l416 442h199l-473 -504l489 -520h-201l-430 459v-459z" />
    <glyph glyph-name="f_f_k.liga" unicode="ffk" horiz-adv-x="2258" 
d="M1593 0h-159v1317q-104 47 -202 47t-165.5 -65.5t-67.5 -170.5v-104h304v-129h-304v-895h-161v895h-437v-895h-161v895h-197v129h197v174q0 132 85.5 215.5t223.5 83.5q95 0 201 -45v-141q-92 51 -171 51t-128.5 -49t-49.5 -131v-158h437v111q0 160 109 261t283.5 101
t362.5 -98v-817l418 442h197l-471 -504l487 -520h-199l-432 459v-459z" />
    <glyph glyph-name="f_t.liga" unicode="ft" horiz-adv-x="1421" 
d="M838 1024v293q-106 47 -204 47t-165.5 -65.5t-67.5 -170.5v-104h437zM838 274v621h-437v-895h-161v895h-197v129h197v111q0 159 107.5 260.5t285.5 101.5t366 -98v-375h349v-129h-349v-604q0 -80 50.5 -130t123.5 -50t175 53v-141q-188 -81 -315 -30t-161 133.5
t-34 147.5z" />
    <glyph glyph-name="f_f_t.liga" unicode="fft" horiz-adv-x="2021" 
d="M1434 1024v293q-104 47 -202 47t-165.5 -65.5t-67.5 -170.5v-104h435zM1771 111q75 0 173 53v-141q-183 -81 -346.5 -16.5t-163.5 267.5v621h-435v-895h-161v895h-437v-895h-161v895h-197v129h197v174q0 132 85.5 215.5t223.5 83.5q95 0 201 -45v-141q-92 51 -171 51
t-128.5 -49t-49.5 -131v-158h437v111q0 160 109 261t284.5 101t363.5 -98v-375h349v-129h-349v-604q0 -80 50.5 -130t125.5 -50z" />
    <glyph glyph-name="f_thorn.liga" unicode="f&#xfe;" horiz-adv-x="1835" 
d="M1581 512q0 178 -89.5 288.5t-228.5 110.5q-140 0 -264 -123v-552q123 -123 263 -123t229.5 110.5t89.5 288.5zM1290 1049q200 0 329.5 -150.5t129.5 -386.5t-129.5 -386.5t-329.5 -150.5q-158 0 -291 117v-541h-161v1766q-106 47 -204 47t-165.5 -66.5t-67.5 -171.5
v-102h304v-129h-304v-895h-161v895h-197v129h197v111q0 159 107.5 260.5t285.5 101.5t366 -98v-465q133 115 291 115z" />
    <glyph glyph-name="f_f_thorn.liga" unicode="ff&#xfe;" horiz-adv-x="2433" 
d="M2179 512q0 178 -89.5 288.5t-227.5 110.5q-139 0 -267 -123v-552q127 -123 266 -123t228.5 110.5t89.5 288.5zM1888 1049q201 0 329 -151t128 -386t-128 -386t-329 -151q-160 0 -293 117v-541h-161v1766q-104 47 -202 47t-165.5 -65.5t-67.5 -170.5v-104h304v-129h-304
v-895h-161v895h-437v-895h-161v895h-197v129h197v174q0 132 85.5 215.5t223.5 83.5q95 0 201 -45v-141q-92 51 -171 51t-128.5 -49t-49.5 -131v-158h437v111q0 160 109 261t284.5 101t363.5 -98v-465q133 115 293 115z" />
    <glyph glyph-name=".notdef" horiz-adv-x="1024" 
d="M512 594l-332 -496h662zM569 682l332 -498v994zM123 186l14 21q24 34 123 186t193 289l-330 496v-992zM512 768l330 498h-662zM25 1362h972v-1362h-972v1362z" />
    <glyph glyph-name="glyph1" horiz-adv-x="512" 
 />
    <glyph glyph-name="glyph1" horiz-adv-x="512" 
 />
    <glyph glyph-name="glyph2" horiz-adv-x="512" 
 />
    <glyph glyph-name="space" unicode=" " horiz-adv-x="512" 
 />
    <glyph glyph-name="exclam" unicode="!" horiz-adv-x="546" 
d="M164 85q0 48 30.5 79t78.5 31t79 -31t31 -79t-30.5 -79t-78.5 -31t-79 31t-31 79zM193 1409h161v-1008h-161v1008z" />
    <glyph glyph-name="quotedbl" unicode="&#x22;" horiz-adv-x="858" 
d="M186 1409h142v-457h-142v457zM530 1409h142v-457h-142v457z" />
    <glyph glyph-name="numbersign" unicode="#" 
d="M385 532h340l43 345h-340zM20 532h222l43 345h-205v139h223l49 393h142l-50 -393h342l50 393h141l-49 -393h205v-139h-222l-43 -345h203v-139h-221l-49 -393h-142l50 393h-342l-50 -393h-141l49 393h-205v139z" />
    <glyph glyph-name="dollar" unicode="$" 
d="M541 176q124 0 204 63t80 153q0 91 -49 137t-121.5 77t-157.5 58.5t-158 68.5t-122 107t-49 154q0 154 92 248t246 118v305h141v-299q143 -6 287 -72v-161q-164 100 -304 100t-217 -58.5t-77 -156.5q0 -137 190.5 -203.5t328.5 -131.5t138 -277t-134 -279.5t-212 -79.5
v-303h-141v299q-167 9 -318 88v166q174 -121 353 -121z" />
    <glyph glyph-name="percent" unicode="%" horiz-adv-x="1730" 
d="M1325 1409h137l-1056 -1409h-138zM215 1058q0 -122 56.5 -197t148.5 -75t149.5 75t57.5 197t-57.5 196.5t-149.5 74.5t-148.5 -74.5t-56.5 -196.5zM658.5 1329q95.5 -105 95.5 -272t-95 -272t-240.5 -105t-238 106t-92.5 271t93 271t237.5 106t240 -105zM1104 353
q0 -122 56.5 -197.5t148.5 -75.5t149.5 75.5t57.5 197.5t-57.5 197t-149.5 75t-148.5 -75t-56.5 -197zM1548 623.5q94 -105.5 94 -271.5t-94.5 -271.5t-239.5 -105.5t-238 106t-93 271t92.5 271t238.5 106t240 -105.5z" />
    <glyph glyph-name="ampersand" unicode="&#x26;" horiz-adv-x="1316" 
d="M854 651h-219q-155 0 -254.5 -75.5t-99.5 -195.5q0 -121 92.5 -193t258.5 -72q97 0 222 59v477zM1290 651h-274v-565q-213 -111 -424 -111t-345 107.5t-134 277.5q0 129 74.5 227.5t203.5 139.5q-117 37 -182.5 127t-65.5 190q0 182 122.5 286t301.5 104q180 0 351 -86
v-156q-164 102 -306 102t-221.5 -68.5t-79.5 -181.5t93 -188.5t241 -75.5h645v-129z" />
    <glyph glyph-name="quotesingle" unicode="'" horiz-adv-x="512" 
d="M186 1409h142v-457h-142v457z" />
    <glyph glyph-name="parenleft" unicode="(" horiz-adv-x="657" 
d="M160 577q0 490 303 896h172q-313 -400 -313 -897t313 -895h-172q-303 406 -303 896z" />
    <glyph glyph-name="parenright" unicode=")" horiz-adv-x="657" 
d="M498 577.5q0 -492.5 -301 -896.5h-174q313 400 313 895q0 494 -313 897h174q301 -403 301 -895.5z" />
    <glyph glyph-name="asterisk" unicode="*" horiz-adv-x="913" 
d="M389 1409h133v-309l297 94l39 -125l-295 -96l185 -252l-109 -78l-182 252l-183 -252l-106 78l182 252l-295 96l39 125l295 -94v309z" />
    <glyph glyph-name="plus" unicode="+" 
d="M63 647h443v443h141v-443h443v-141h-443v-443h-141v443h-443v141z" />
    <glyph glyph-name="comma" unicode="," horiz-adv-x="512" 
d="M190 170h158l-178 -426h-137z" />
    <glyph glyph-name="hyphen" unicode="-" horiz-adv-x="641" 
d="M72 586h497v-129h-497v129z" />
    <glyph glyph-name="period" unicode="." horiz-adv-x="512" 
d="M147 85q0 48 31 79t78 31t78 -31t31 -79t-31 -79t-78 -31t-78 31t-31 79z" />
    <glyph glyph-name="slash" unicode="/" horiz-adv-x="768" 
d="M526 1473h166l-448 -1792h-166z" />
    <glyph glyph-name="zero" unicode="0" 
d="M330 278.5q94 -161.5 246 -161.5q153 0 247.5 162.5t94.5 424.5t-95 425t-247 163q-153 0 -246.5 -162t-93.5 -426t94 -425.5zM68 704.5q0 326.5 141 528t367 201.5q225 0 367 -201.5t142 -528t-141.5 -528t-367.5 -201.5q-225 0 -366.5 201.5t-141.5 528z" />
    <glyph glyph-name="one" unicode="1" 
d="M766 1409v-1409h-168v1229l-362 -211v153l413 238h117z" />
    <glyph glyph-name="two" unicode="2" 
d="M514 1290q-182 0 -356 -139v164q190 119 379 119t305 -112.5t116 -289.5q0 -249 -221 -491t-389 -400h631v-141h-854v115q527 481 595 649t68 242q0 129 -76.5 206.5t-197.5 77.5z" />
    <glyph glyph-name="three" unicode="3" 
d="M387 782h70q141 0 230 74t89 188t-79 182t-221 68t-306 -102v156q168 86 349 86t303 -104t122 -269q0 -117 -66.5 -207t-181.5 -127q129 -41 204 -139.5t75 -227.5q0 -169 -134.5 -277t-328.5 -108t-375 95v159q170 -115 327 -115t249 72t92 192t-95.5 195.5t-242.5 75.5
h-80v133z" />
    <glyph glyph-name="four" unicode="4" 
d="M700 520v643l-464 -643h464zM700 391h-637v109l664 909h135v-889h223v-129h-223v-391h-162v391z" />
    <glyph glyph-name="five" unicode="5" 
d="M462 729q-99 0 -251 -37v717h711v-141h-562v-426q101 18 188 18q86 0 170.5 -31.5t177.5 -120t93 -283.5q0 -196 -140 -323t-357 -127q-164 0 -324 80v166q154 -104 307 -104t248.5 86.5t95.5 219.5q0 132 -91 219t-266 87z" />
    <glyph glyph-name="six" unicode="6" 
d="M283 472q0 -158 84 -256.5t215 -98.5t217 90t86 229t-81.5 226.5t-225.5 87.5t-283 -140q-12 -62 -12 -138zM621 887q191 0 309.5 -122t118.5 -322t-132 -334t-338 -134t-334 143t-128 375t128 468.5t376 447.5h221q-382 -297 -506 -623q136 101 285 101z" />
    <glyph glyph-name="seven" unicode="7" 
d="M129 1268v141h870v-98l-555 -1311h-172l541 1268h-684z" />
    <glyph glyph-name="eight" unicode="8" 
d="M305 1040.5q0 -112.5 76 -185.5t196 -73t195.5 73t75.5 185.5t-76 185t-196 72.5t-195.5 -72.5t-75.5 -185zM276 381q0 -120 84 -195t216 -75q131 0 216 75t85 195t-83.5 194t-217.5 74t-217 -74t-83 -194zM143 1034q0 185 121 292.5t312 107.5t312.5 -107.5
t121.5 -273.5q0 -121 -64.5 -209t-175.5 -123q127 -35 198.5 -130t71.5 -203q0 -195 -130 -304t-334 -109q-205 0 -334 109.5t-129 282.5q0 129 71.5 224t198.5 130q-111 35 -175.5 123t-64.5 190z" />
    <glyph glyph-name="nine" unicode="9" 
d="M870 947q0 146 -81.5 245.5t-215.5 99.5q-133 0 -219 -90t-86 -229t82 -226.5t224 -87.5t286 140q10 83 10 148zM236 1300q132 134 338 134t334 -143t128 -375t-128 -468.5t-376 -447.5h-221q381 301 506 625q-133 -102 -285 -103q-191 0 -309.5 122t-118.5 322t132 334z
" />
    <glyph glyph-name="colon" unicode=":" horiz-adv-x="512" 
d="M147 85q0 48 31 79t78 31t78 -31t31 -79t-31 -79t-78 -31t-78 31t-31 79zM147 939q0 48 31 79t78 31t78 -31t31 -79t-31 -79t-78 -31t-78 31t-31 79z" />
    <glyph glyph-name="semicolon" unicode=";" horiz-adv-x="512" 
d="M147 939q0 48 31 79t78 31t78 -31t31 -79t-31 -79t-78 -31t-78 31t-31 79zM190 170h158l-178 -426h-137z" />
    <glyph glyph-name="less" unicode="&#x3c;" 
d="M63 518v117l1027 440v-151l-807 -346l807 -349v-151z" />
    <glyph glyph-name="equal" unicode="=" 
d="M63 854h1027v-141h-1027v141zM63 440h1027v-141h-1027v141z" />
    <glyph glyph-name="greater" unicode="&#x3e;" 
d="M1090 635v-117l-1027 -440v151l807 349l-807 346v151z" />
    <glyph glyph-name="question" unicode="?" horiz-adv-x="909" 
d="M315 451q0 162 122 293.5t151.5 196.5t29.5 126q0 100 -64.5 163.5t-168.5 63.5q-156 0 -309 -141v162q156 119 330 119t278 -98t104 -261.5t-126.5 -302t-158.5 -206.5t-32 -128v-37h-156v50zM285 85q0 48 30.5 79t77.5 31t78 -31t31 -79t-31 -79t-78 -31t-77.5 31
t-30.5 79z" />
    <glyph glyph-name="at" unicode="@" horiz-adv-x="2002" 
d="M737 512q0 -148 74 -241t195 -93q122 0 215 103v462q-92 103 -214 103t-196 -93t-74 -241zM973 981q133 0 248 -100v80h157v-627q0 -72 36 -113t90 -41q108 0 175.5 114.5t67.5 287.5q0 326 -202 523.5t-530 197.5q-327 0 -485.5 -164t-216 -309.5t-57.5 -403t222 -481.5
t560 -224q231 0 473 142v-144q-240 -129 -458 -129t-389.5 69t-295.5 191.5t-194 291.5t-70 371t68 371t190.5 290.5t292 190.5t365.5 69t356 -62.5t275.5 -173.5t181 -261.5t65.5 -300.5q0 -278 -113 -434.5t-298 -156.5q-76 0 -138.5 32t-97.5 91q-119 -123 -286 -123
t-279.5 130.5t-112.5 336t112 337.5t288 132z" />
    <glyph glyph-name="A" unicode="A" horiz-adv-x="1314" 
d="M403 532h508l-254 650zM588 1409h137l561 -1409h-168l-157 403h-607l-159 -403h-166z" />
    <glyph glyph-name="B" unicode="B" horiz-adv-x="1241" 
d="M205 1409h471q181 0 294 -103t113 -264q0 -113 -60 -198.5t-165 -122.5q127 -35 199.5 -127t72.5 -196q0 -187 -116 -292.5t-303 -105.5h-506v1409zM367 780h280q121 0 194.5 70t73.5 180.5t-73.5 179t-194.5 68.5h-280v-498zM367 131h313q131 0 207 71.5t76 188.5
t-76 188.5t-207 71.5h-313v-520z" />
    <glyph glyph-name="C" unicode="C" horiz-adv-x="1261" 
d="M104 704.5q0 321.5 189 525.5t481 204q194 0 387 -103v-162q-186 123 -368 123q-232 0 -374.5 -165.5t-142.5 -422t142.5 -422t374.5 -165.5q185 0 368 123v-162q-193 -103 -364 -103q-170 0 -293 54.5t-261.5 204t-138.5 471z" />
    <glyph glyph-name="D" unicode="D" horiz-adv-x="1433" 
d="M371 135h264q233 0 378.5 161.5t145.5 408t-145.5 408t-378.5 161.5h-264v-1139zM205 1409h440q150 0 277 -52t217 -145.5t141 -222.5t51 -284.5t-51 -284.5t-141 -222.5t-217 -145.5t-277 -52h-440v1409z" />
    <glyph glyph-name="E" unicode="E" horiz-adv-x="1132" 
d="M205 1409h805v-135h-639v-492h559v-133h-559v-514h655v-135h-821v1409z" />
    <glyph glyph-name="F" unicode="F" horiz-adv-x="1085" 
d="M205 1409h805v-135h-639v-520h559v-138h-559v-616h-166v1409z" />
    <glyph glyph-name="G" unicode="G" horiz-adv-x="1386" 
d="M1087 596h-337v129h495v-631q-227 -119 -459 -119q-296 0 -489 204t-193 525t191.5 525.5t488.5 204.5q207 0 410 -113v-164q-203 137 -391 137q-233 0 -381 -163.5t-148 -425.5q0 -261 145.5 -425.5t388.5 -164.5q126 0 279 67v414z" />
    <glyph glyph-name="H" unicode="H" horiz-adv-x="1513" 
d="M205 1409h166v-625h774v625h166v-1409h-166v649h-774v-649h-166v1409z" />
    <glyph glyph-name="I" unicode="I" horiz-adv-x="573" 
d="M205 1409h166v-1409h-166v1409z" />
    <glyph glyph-name="J" unicode="J" horiz-adv-x="946" 
d="M750 369q0 -174 -114 -284t-292 -110q-125 0 -270 64v154q132 -76 246 -76t189 73.5t75 190.5v1028h166v-1040z" />
    <glyph glyph-name="K" unicode="K" horiz-adv-x="1253" 
d="M205 1409h164v-639l630 639h207l-676 -692l697 -717h-215l-643 664v-664h-164v1409z" />
    <glyph glyph-name="L" unicode="L" horiz-adv-x="1026" 
d="M205 1409h166v-1274h610v-135h-776v1409z" />
    <glyph glyph-name="M" unicode="M" horiz-adv-x="1701" 
d="M205 1409h147l500 -709l500 709h147v-1409h-160v1137l-434 -619h-108l-432 619v-1137h-160v1409z" />
    <glyph glyph-name="N" unicode="N" horiz-adv-x="1513" 
d="M205 1409h147l799 -1137v1137h160v-1409h-148l-798 1137v-1137h-160v1409z" />
    <glyph glyph-name="O" unicode="O" horiz-adv-x="1513" 
d="M276 704.5q0 -129.5 35 -238t98.5 -186t152.5 -120.5t195.5 -43t195.5 43t152.5 120.5t98.5 186t35 238t-35 238t-98.5 186t-152.5 120.5t-195.5 43t-195.5 -43t-152.5 -120.5t-98.5 -186t-35 -238zM104 704.5q0 319.5 182 524.5t470 205q289 0 472 -204t183 -525.5
t-183 -525.5t-472 -204t-470.5 205t-181.5 524.5z" />
    <glyph glyph-name="P" unicode="P" horiz-adv-x="1198" 
d="M369 674h247q149 0 239.5 84.5t90.5 216.5t-90.5 216.5t-239.5 84.5h-247v-602zM205 1409h436q211 0 343 -122.5t132 -311.5t-132 -311.5t-343 -122.5h-272v-541h-164v1409z" />
    <glyph glyph-name="Q" unicode="Q" horiz-adv-x="1513" 
d="M276 704.5q0 -129.5 35 -238t98.5 -186t152.5 -120.5t195.5 -43t195.5 43t152.5 120.5t98.5 186t35 238t-35 238t-98.5 186t-152.5 120.5t-195.5 43t-195.5 -43t-152.5 -120.5t-98.5 -186t-35 -238zM104 704.5q0 319.5 182 524.5t470 205q289 0 472 -204t183 -525
q0 -205 -75.5 -365t-211.5 -252l279 -297h-201l-211 229q-113 -45 -245 -45t-252.5 53.5t-255 205t-134.5 471z" />
    <glyph glyph-name="R" unicode="R" horiz-adv-x="1241" 
d="M205 1409h428q207 0 338 -118.5t131 -307.5q0 -154 -86 -260.5t-236 -147.5l359 -575h-185l-344 557h-241v-557h-164v1409zM369 690h239q145 0 233.5 82.5t88.5 210.5t-88.5 210.5t-233.5 82.5h-239v-586z" />
    <glyph glyph-name="S" unicode="S" horiz-adv-x="1114" 
d="M844 358q0 103 -54.5 154t-135.5 86t-176 63.5t-176 74.5t-135 118t-54 176q0 193 132.5 298.5t323.5 105.5t375 -82v-166q-176 110 -332 110t-244.5 -67t-88.5 -167q0 -99 54 -149.5t135 -84t176 -63.5t176 -76t135.5 -118.5t54.5 -178.5q0 -196 -135 -306.5
t-337 -110.5q-201 0 -401 99v170q200 -131 383 -131q141 0 232.5 71t91.5 174z" />
    <glyph glyph-name="T" unicode="T" horiz-adv-x="1202" 
d="M518 1274h-459v135h1082v-135h-457v-1274h-166v1274z" />
    <glyph glyph-name="U" unicode="U" horiz-adv-x="1513" 
d="M1319 518q0 -234 -156.5 -388.5t-404.5 -154.5t-404.5 153t-156.5 390v891h165v-879q0 -177 110.5 -295t284.5 -118t285 117t111 296v879h166v-891z" />
    <glyph glyph-name="V" unicode="V" horiz-adv-x="1314" 
d="M725 0h-137l-559 1409h170l458 -1169l457 1169h172z" />
    <glyph glyph-name="W" unicode="W" horiz-adv-x="2107" 
d="M1587 0h-145l-389 1190l-385 -1190h-148l-481 1409h168l387 -1190l387 1190h145l387 -1190l388 1190h167z" />
    <glyph glyph-name="X" unicode="X" horiz-adv-x="1314" 
d="M557 717l-491 692h196l395 -573l398 573h194l-491 -692l508 -717h-199l-410 598l-407 -598h-201z" />
    <glyph glyph-name="Y" unicode="Y" horiz-adv-x="1218" 
d="M694 0h-168v612l-506 797h191l397 -645l400 645h192l-506 -797v-612z" />
    <glyph glyph-name="Z" unicode="Z" horiz-adv-x="1265" 
d="M129 1274v135h1014v-106l-846 -1168h860v-135h-1069v106l848 1168h-807z" />
    <glyph glyph-name="bracketleft" unicode="[" horiz-adv-x="657" 
d="M215 1473h383v-127h-223v-1539h223v-126h-383v1792z" />
    <glyph glyph-name="backslash" unicode="\" horiz-adv-x="768" 
d="M78 1473h166l448 -1792h-166z" />
    <glyph glyph-name="bracketright" unicode="]" horiz-adv-x="657" 
d="M442 -319h-383v126h224v1539h-224v127h383v-1792z" />
    <glyph glyph-name="asciicircum" unicode="^" 
d="M518 1409h117l440 -1024h-151l-346 807l-349 -807h-151z" />
    <glyph glyph-name="underscore" unicode="_" horiz-adv-x="1024" 
d="M0 -193h1024v-129h-1024v129z" />
    <glyph glyph-name="grave" unicode="`" horiz-adv-x="512" 
d="M-18 1473h170l208 -304h-139z" />
    <glyph glyph-name="a" unicode="a" horiz-adv-x="1044" 
d="M582 512q-147 0 -238.5 -62.5t-91.5 -152.5t55 -141.5t144 -51.5q144 0 282 140v260q-74 8 -151 8zM408 -25q-143 0 -231.5 82.5t-88.5 223.5t134.5 240.5t350.5 99.5q82 0 160 -7v88q0 96 -65.5 157t-169.5 61q-156 0 -322 -93v142q172 80 339 80t271.5 -97.5
t104.5 -249.5v-702h-158v106q-147 -131 -325 -131z" />
    <glyph glyph-name="b" unicode="b" horiz-adv-x="1161" 
d="M164 1473h162v-539q133 115 288 115q202 0 331.5 -149.5t129.5 -387.5t-129.5 -387.5t-331.5 -149.5q-156 0 -288 117v-92h-162v1473zM907 512q0 178 -89.5 288.5t-228.5 110.5q-140 0 -263 -123v-552q123 -123 263 -123t229 110.5t89 288.5z" />
    <glyph glyph-name="c" unicode="c" horiz-adv-x="972" 
d="M610 -25q-241 0 -381.5 150.5t-140.5 386.5t141 386.5t361 150.5q152 0 291 -72v-152q-129 88 -278 88t-249 -112.5t-100 -288.5t99.5 -288.5t249.5 -112.5q149 0 278 88v-152q-139 -72 -271 -72z" />
    <glyph glyph-name="d" unicode="d" horiz-adv-x="1161" 
d="M547 1049q155 0 289 -115v539h163v-1473h-163v92q-129 -117 -289 -117q-203 0 -331 151t-128 386t128 386t331 151zM254 512q0 -178 89.5 -288.5t230.5 -110.5q142 0 262 123v552q-119 123 -261 123t-231.5 -110.5t-89.5 -288.5z" />
    <glyph glyph-name="e" unicode="e" horiz-adv-x="1060" 
d="M551 920q-123 0 -206 -91.5t-93 -238.5h569q-2 147 -74.5 238.5t-195.5 91.5zM615 -25q-247 0 -387 153.5t-140 386.5q0 232 133 383t330 151q198 0 314 -139t116 -363v-27q0 -26 -2 -45h-727q4 -162 105 -266.5t249 -104.5q147 0 305 99v-148q-160 -80 -296 -80z" />
    <glyph glyph-name="f" unicode="f" horiz-adv-x="749" 
d="M563 1497q82 0 187 -45v-141q-92 51 -171 51t-128.5 -49t-49.5 -131v-158h304v-129h-304v-895h-161v895h-197v129h197v174q0 132 85.5 215.5t237.5 83.5z" />
    <glyph glyph-name="g" unicode="g" horiz-adv-x="1161" 
d="M254 512q0 -178 89.5 -288.5t230.5 -110.5q142 0 262 123v552q-119 123 -261 123t-231.5 -110.5t-89.5 -288.5zM547 1049q155 0 289 -115v90h163v-1040q0 -203 -133 -330t-342 -127q-168 0 -340 78v149q172 -96 320 -96q149 0 240.5 91.5t91.5 236.5v106
q-129 -117 -289 -117q-203 0 -331 151t-128 386t128 386t331 151z" />
    <glyph glyph-name="h" unicode="h" horiz-adv-x="1161" 
d="M610 909q-153 0 -284 -145v-764h-162v1473h162v-562q150 137 315 137t266 -100.5t101 -257.5v-690h-164v668q0 106 -64.5 173.5t-169.5 67.5z" />
    <glyph glyph-name="i" unicode="i" horiz-adv-x="489" 
d="M143 1321q0 45 29 72.5t73 27.5t72.5 -27.5t28.5 -72.5t-28.5 -72.5t-72.5 -27.5t-73 27.5t-29 72.5zM164 1024h162v-1024h-162v1024z" />
    <glyph glyph-name="j" unicode="j" horiz-adv-x="489" 
d="M-12 -338q76 0 126 50t50 130v1182h162v-1198q0 -130 -86.5 -214.5t-223.5 -84.5q-90 0 -200 47v141q96 -53 172 -53zM143 1321q0 45 29 72.5t73 27.5t72.5 -27.5t28.5 -72.5t-28.5 -72.5t-72.5 -27.5t-73 27.5t-29 72.5z" />
    <glyph glyph-name="k" unicode="k" horiz-adv-x="987" 
d="M164 1473h160v-891l415 442h199l-471 -504l487 -520h-204l-426 459v-459h-160v1473z" />
    <glyph glyph-name="l" unicode="l" horiz-adv-x="489" 
d="M164 1473h162v-1473h-162v1473z" />
    <glyph glyph-name="m" unicode="m" horiz-adv-x="1765" 
d="M598 909q-141 0 -272 -141v-768h-162v1024h162v-106q147 131 313 131q98 0 174 -41t117 -119q164 160 352 160q147 0 238.5 -95.5t91.5 -244.5v-709h-164v686q0 98 -57.5 160.5t-149.5 62.5q-141 0 -272 -141v-768h-162v686q0 98 -58.5 160.5t-150.5 62.5z" />
    <glyph glyph-name="n" unicode="n" horiz-adv-x="1161" 
d="M610 909q-153 0 -284 -145v-764h-162v1024h162v-113q150 137 315 137t266 -100.5t101 -257.5v-690h-164v668q0 106 -64.5 173.5t-169.5 67.5z" />
    <glyph glyph-name="o" unicode="o" horiz-adv-x="1161" 
d="M254 512q0 -88 24.5 -162t67.5 -127t103.5 -82.5t132 -29.5t131 29.5t102.5 82.5t67.5 127t24.5 162t-24.5 162t-67.5 127t-102.5 82.5t-131 29.5t-132 -29.5t-103.5 -82.5t-67.5 -127t-24.5 -162zM88 512q0 119 36 217t101.5 169t156.5 111t199.5 40t198.5 -40
t155.5 -111t102.5 -169t37 -217t-37 -217t-102.5 -169t-155.5 -111t-198.5 -40t-199.5 40t-156.5 111t-101.5 169t-36 217z" />
    <glyph glyph-name="p" unicode="p" horiz-adv-x="1161" 
d="M164 1024h162v-90q133 115 288 115q202 0 331.5 -149.5t129.5 -387.5t-129.5 -387.5t-331.5 -149.5q-156 0 -288 117v-541h-162v1473zM907 512q0 178 -89.5 288.5t-228.5 110.5q-140 0 -263 -123v-552q123 -123 263 -123t229 110.5t89 288.5z" />
    <glyph glyph-name="q" unicode="q" horiz-adv-x="1161" 
d="M547 1049q155 0 289 -115v90h163v-1473h-163v541q-129 -117 -289 -117q-203 0 -331 151t-128 386t128 386t331 151zM254 512q0 -178 89.5 -288.5t230.5 -110.5q142 0 262 123v552q-119 123 -261 123t-231.5 -110.5t-89.5 -288.5z" />
    <glyph glyph-name="r" unicode="r" horiz-adv-x="770" 
d="M600 903q-153 0 -274 -160v-743h-162v1024h162v-123q121 148 282 148q51 0 101 -15v-147q-55 16 -109 16z" />
    <glyph glyph-name="s" unicode="s" horiz-adv-x="864" 
d="M616 266q0 67 -38.5 101t-96 58t-125 45.5t-164 77.5t-96.5 196q0 139 100 222t247 83t284 -60v-151q-129 80 -241 80t-170 -44.5t-58 -108.5t39 -97t96.5 -55.5t221 -74.5t163.5 -259q0 -136 -103 -220t-257 -84q-153 0 -303 72v156q143 -96 286 -97q92 0 153.5 46.5
t61.5 113.5z" />
    <glyph glyph-name="t" unicode="t" horiz-adv-x="829" 
d="M574 111q74 0 176 53v-141q-188 -80 -315 -30t-161 133t-34 148v621h-197v129h197v289h161v-289h349v-129h-349v-604q0 -80 49.5 -130t123.5 -50z" />
    <glyph glyph-name="u" unicode="u" horiz-adv-x="1161" 
d="M553 115q150 0 283 145v764h163v-1024h-163v115q-150 -139 -314 -139t-265 100t-101 258v690h161v-668q0 -106 66 -173.5t170 -67.5z" />
    <glyph glyph-name="v" unicode="v" horiz-adv-x="1017" 
d="M575 0h-133l-407 1024h168l305 -801l309 801h166z" />
    <glyph glyph-name="w" unicode="w" horiz-adv-x="1593" 
d="M1202 0h-145l-260 815l-260 -815h-146l-348 1024h162l260 -815l260 815h145l258 -815l261 815h161z" />
    <glyph glyph-name="x" unicode="x" horiz-adv-x="1026" 
d="M416 520l-355 504h187l264 -389l268 389h185l-353 -504l367 -520h-191l-276 406l-272 -406h-191z" />
    <glyph glyph-name="y" unicode="y" horiz-adv-x="1017" 
d="M399 -449h-159l192 476l-397 997h168l305 -801l309 801h166z" />
    <glyph glyph-name="z" unicode="z" horiz-adv-x="976" 
d="M115 895v129h751v-96l-577 -797h588v-131h-793v98l580 797h-549z" />
    <glyph glyph-name="braceleft" unicode="{" horiz-adv-x="657" 
d="M598 1346h-20q-84 0 -136.5 -54.5t-52.5 -140.5v-320q0 -92 -46 -159.5t-128 -93.5q82 -29 128 -96.5t46 -159.5v-320q0 -86 52.5 -140.5t136.5 -54.5h20v-126h-43q-144 0 -235 89t-91 220v321q0 90 -46 146.5t-117 56.5h-23v125h23q72 0 117.5 56.5t45.5 146.5v321
q0 131 91.5 220.5t234.5 89.5h43v-127z" />
    <glyph glyph-name="bar" unicode="|" horiz-adv-x="512" 
d="M186 1538h142v-2050h-142v2050z" />
    <glyph glyph-name="braceright" unicode="}" horiz-adv-x="657" 
d="M59 -193h21q84 0 136 54.5t52 140.5v320q0 92 46 159.5t130 96.5q-84 27 -130 94t-46 159v320q0 86 -52 140.5t-136 54.5h-21v127h45q144 0 234 -88t90 -222v-321q0 -90 46 -146.5t118 -56.5h20v-125h-20q-72 0 -118 -56.5t-46 -146.5v-321q0 -134 -89.5 -221.5
t-234.5 -87.5h-45v126z" />
    <glyph glyph-name="asciitilde" unicode="~" 
d="M72 426q0 146 77.5 239t202.5 93q76 0 134.5 -35t108.5 -76t94.5 -75.5t104.5 -34.5t104 52t44 138h139q0 -146 -77.5 -239t-202.5 -93q-76 0 -134.5 35t-108.5 76t-95 75.5t-105 34.5t-103.5 -52t-43.5 -138h-139z" />
    <glyph glyph-name="uni00A0" unicode="&#xa0;" horiz-adv-x="512" 
 />
    <glyph glyph-name="exclamdown" unicode="&#xa1;" horiz-adv-x="546" 
d="M383 939q0 -48 -30.5 -79t-78.5 -31t-79 31t-31 79t30.5 79t78.5 31t79 -31t31 -79zM356 -385h-166v1010h166v-1010z" />
    <glyph glyph-name="cent" unicode="&#xa2;" 
d="M725 -129h-141v307q-180 28 -293 174t-113 352.5t110 349t296 177.5v307h141v-299q116 -7 246 -70v-151q-129 88 -277 88t-248 -113t-100 -288.5t100 -288.5t248 -113t277 88v-151q-121 -61 -246 -70v-299z" />
    <glyph glyph-name="sterling" unicode="&#xa3;" 
d="M135 651v131h187l108 367q37 131 132 208t215 77t224 -50v-149q-98 57 -185 57t-146.5 -50t-85.5 -136l-95 -324h320v-131h-358l-150 -516h748v-135h-928v90l164 561h-150z" />
    <glyph glyph-name="currency" unicode="&#xa4;" 
d="M374 503q79 -79 202.5 -79t202.5 79t79 202.5t-79 202.5t-203 79t-202.5 -78.5t-78.5 -202.5t79 -203zM164 704.5q0 140.5 72 241.5l-185 184l101 99l184 -185q102 74 240 74t241 -74l187 185l98 -99l-187 -184q74 -108 74 -244t-74 -239l187 -184l-98 -99l-187 185
q-100 -72 -241 -72t-242 72l-184 -185l-99 99l185 184q-72 101 -72 241.5z" />
    <glyph glyph-name="yen" unicode="&#xa5;" 
d="M494 307h-318v117h318v201h-318v116h277l-426 668h190l361 -582l358 582h190l-426 -668h277v-116h-318v-201h318v-117h-318v-307h-165v307z" />
    <glyph glyph-name="brokenbar" unicode="&#xa6;" horiz-adv-x="512" 
d="M186 385h142v-770h-142v770zM186 1409h142v-768h-142v768z" />
    <glyph glyph-name="section" unicode="&#xa7;" horiz-adv-x="1013" 
d="M377 813q-96 -83 -96 -190t88 -153t153.5 -68.5t126.5 -49.5q92 79 92 185q0 66 -32.5 106.5t-85 69t-116.5 50t-130 50.5zM780 279q97 -85 97 -228t-111.5 -237.5t-284.5 -94.5q-172 0 -340 78v164q160 -104 324 -104q111 0 178.5 54t67.5 131t-44 118t-108.5 69.5
t-141.5 55t-185.5 94t-108.5 239.5q0 146 123 269q-101 85 -101 224t111 231t274 92t314 -68v-158q-143 88 -271 88t-195 -52t-67 -126t44 -112.5t108.5 -67.5t250 -93t185.5 -302q0 -145 -119 -264z" />
    <glyph glyph-name="dieresis" unicode="&#xa8;" horiz-adv-x="512" 
d="M-49 1322q0 44 27.5 70.5t71.5 26.5t72 -26.5t28 -70.5t-28 -72.5t-72 -28.5t-71.5 28.5t-27.5 72.5zM365 1322q0 44 26.5 70.5t70.5 26.5t72.5 -26.5t28.5 -70.5t-28.5 -72.5t-72.5 -28.5t-70.5 28.5t-26.5 72.5z" />
    <glyph glyph-name="copyright" unicode="&#xa9;" horiz-adv-x="1730" 
d="M487 704.5q0 187.5 114 309t292 121.5q125 0 233 -60v-125q-112 74 -227 74t-193.5 -90t-78.5 -230t79 -228.5t195 -88.5t225 72v-125q-110 -60 -216 -60q-107 0 -181 32t-158 121.5t-84 277zM864 76q277 0 453 176t176 452t-176 452.5t-453 176.5t-451.5 -176.5
t-174.5 -452.5q0 -275 174.5 -451.5t451.5 -176.5zM129 704.5q0 161.5 54.5 297t151.5 233.5t232 152.5t297 54.5t297 -54.5t233.5 -152.5t153 -233.5t54.5 -297t-54.5 -297t-153 -233.5t-233.5 -152.5t-297 -54.5t-297 54.5t-232 152.5t-151.5 233.5t-54.5 297z" />
    <glyph glyph-name="ordfeminine" unicode="&#xaa;" horiz-adv-x="686" 
d="M356 1081q-63 0 -113 -35t-50 -85t30.5 -78.5t81.5 -28.5q82 0 154 78v145q-40 4 -103 4zM275 754q-101 0 -156.5 52t-55.5 142t84 152.5t222 62.5h33q34 0 57 -4v41q0 53 -38 88t-118 35t-184 -59v110q115 51 223 51t175 -62.5t67 -162.5v-432h-125v61q-83 -75 -184 -75
zM88 627h512v-101h-512v101z" />
    <glyph glyph-name="guillemotleft" unicode="&#xab;" horiz-adv-x="1220" 
d="M307 512l373 -424h-176l-404 424l404 426h176zM748 512l372 -424h-174l-405 424l405 426h174z" />
    <glyph glyph-name="logicalnot" unicode="&#xac;" 
d="M63 647h1027v-584h-142v443h-885v141z" />
    <glyph glyph-name="uni00AD" unicode="&#xad;" horiz-adv-x="641" 
d="M72 586h497v-129h-497v129z" />
    <glyph glyph-name="registered" unicode="&#xae;" horiz-adv-x="1024" 
d="M690 1083q0 -104 -98 -139l115 -190h-93l-106 178h-59v-178h-87v479h164q74 0 119 -42t45 -108zM449 999h65q41 0 65.5 23.5t24.5 59.5t-24.5 58.5t-65.5 22.5h-65v-164zM147 993q0 -80 27 -146.5t76 -115.5t115.5 -75.5t146.5 -26.5t146.5 26.5t115.5 75.5t76 115.5
t27 146.5t-27 146.5t-76 116t-115.5 76t-146.5 26.5t-146.5 -26.5t-115.5 -76t-76 -116t-27 -146.5zM72 993.5q0 96.5 32.5 177t91 139t139.5 91.5t177 33t177 -33t139.5 -91.5t91 -139t32.5 -177t-32.5 -177.5t-91 -139.5t-139.5 -91t-177 -32.5t-177 32.5t-139.5 91
t-91 139.5t-32.5 177.5z" />
    <glyph glyph-name="macron" unicode="&#xaf;" horiz-adv-x="512" 
d="M-53 1380h618v-116h-618v116z" />
    <glyph glyph-name="degree" unicode="&#xb0;" horiz-adv-x="720" 
d="M217 1180q0 -64 40.5 -104t104.5 -40t103 40t39 104t-39 104.5t-103 40.5t-104.5 -40.5t-40.5 -104.5zM109 1181q0 112 70.5 182.5t182.5 70.5t181 -71t69 -183t-69.5 -182t-181.5 -70t-182 70.5t-70 182.5z" />
    <glyph glyph-name="plusminus" unicode="&#xb1;" 
d="M63 141h1027v-141h-1027v141zM63 840h443v444h141v-444h443v-140h-443v-442h-141v442h-443v140z" />
    <glyph glyph-name="uni00B2" unicode="&#xb2;" horiz-adv-x="632" 
d="M292 1679q118 0 187.5 -67.5t69.5 -170.5t-76 -218t-250 -279h336v-110h-516v86q292 257 330.5 353.5t38.5 150.5t-41 97.5t-107 43.5q-107 0 -201 -80v127q111 67 229 67z" />
    <glyph glyph-name="uni00B3" unicode="&#xb3;" horiz-adv-x="624" 
d="M195 1309h41q74 0 120.5 37.5t46.5 95.5t-39.5 92.5t-120.5 34.5t-175 -58v119q100 49 212 49t184.5 -62.5t72.5 -145.5q0 -163 -138 -209q72 -23 114 -80.5t42 -130.5q0 -104 -80 -168t-199 -64t-227 51v123q101 -63 189 -63t136 37t48 98t-50 100t-128 39h-49v105z" />
    <glyph glyph-name="acute" unicode="&#xb4;" horiz-adv-x="512" 
d="M360 1473h170l-239 -304h-139z" />
    <glyph glyph-name="mu" unicode="&#xb5;" horiz-adv-x="1169" 
d="M561 115q150 0 283 145v764h164v-1024h-164v115q-141 -135 -303 -135q-125 0 -215 83v-512h-162v1473h162v-668q0 -106 65.5 -173.5t169.5 -67.5z" />
    <glyph glyph-name="paragraph" unicode="&#xb6;" horiz-adv-x="1173" 
d="M516 606q-188 0 -311 111.5t-123 289.5t122.5 290t311.5 112h455v-1665h-142v1524h-202v-662h-111z" />
    <glyph glyph-name="periodcentered" unicode="&#xb7;" horiz-adv-x="512" 
d="M147 513q0 48 31 79t78 31t78 -31t31 -79t-31 -79t-78 -31t-78 31t-31 79z" />
    <glyph glyph-name="cedilla" unicode="&#xb8;" horiz-adv-x="512" 
d="M451 -296q0 -73 -67 -125t-159 -52t-164 39v112q73 -45 133 -45t91.5 25.5t31.5 65.5t-34.5 66t-100.5 26h-14l45 184h117l-27 -117q70 -12 109 -59t39 -120z" />
    <glyph glyph-name="uni00B9" unicode="&#xb9;" horiz-adv-x="516" 
d="M387 1665v-831h-135v688l-209 -119v121l254 141h90z" />
    <glyph glyph-name="ordmasculine" unicode="&#xba;" horiz-adv-x="761" 
d="M197 1089q0 -101 51 -164t134 -63t134 62t51 164t-51 165.5t-134 63.5t-134 -63.5t-51 -164.5zM63 1089.5q0 73.5 24 135t66 106.5t100 69.5t128 24.5t128 -24.5t100 -69.5t65.5 -106.5t23.5 -135t-23.5 -136t-65.5 -106.5t-100 -68.5t-128 -24.5t-128 24.5t-100 68.5
t-66 106.5t-24 136zM88 627h588v-101h-588v101z" />
    <glyph glyph-name="guillemotright" unicode="&#xbb;" horiz-adv-x="1220" 
d="M913 512l-372 426h176l403 -426l-403 -424h-176zM473 512l-373 426h174l406 -426l-406 -424h-174z" />
    <glyph glyph-name="onequarter" unicode="&#xbc;" horiz-adv-x="1730" 
d="M1432 319v324l-236 -324h236zM1432 217h-367v82l387 532h107v-512h127v-102h-127v-217h-127v217zM1325 1409h137l-1056 -1409h-138zM481 1409v-831h-135v688l-209 -119v121l254 141h90z" />
    <glyph glyph-name="onehalf" unicode="&#xbd;" horiz-adv-x="1730" 
d="M1354 846q117 0 186.5 -67t69.5 -171t-76 -219t-250 -278h336v-111h-516v86q293 258 331 355t38 151t-41 96.5t-107 42.5q-109 0 -201 -80v127q113 68 230 68zM1325 1409h137l-1056 -1409h-138zM481 1409v-831h-135v688l-209 -119v121l254 141h90z" />
    <glyph glyph-name="threequarters" unicode="&#xbe;" horiz-adv-x="1730" 
d="M1432 319v324l-236 -324h236zM1432 217h-367v82l387 532h107v-512h127v-102h-127v-217h-127v217zM1325 1409h137l-1056 -1409h-138zM236 1053h40q74 0 121 37.5t47 95.5t-39.5 92.5t-120.5 34.5t-175 -58v119q99 49 211 49t185 -62.5t73 -145.5q0 -163 -138 -209
q72 -23 114 -80.5t42 -130.5q0 -104 -80 -168t-199 -64t-227 51v123q100 -63 188 -63t136.5 37t48.5 98t-50.5 100t-127.5 39h-49v105z" />
    <glyph glyph-name="questiondown" unicode="&#xbf;" horiz-adv-x="909" 
d="M594 573q0 -160 -122 -291.5t-151.5 -196.5t-29.5 -126q0 -100 64.5 -163.5t168.5 -63.5q156 0 310 141v-164q-158 -117 -331 -117t-277.5 98t-104.5 257t129 304t159.5 210t30.5 125v39h154v-52zM627 939q0 -48 -32 -79t-79 -31t-77.5 31t-30.5 79t30.5 79t77.5 31
t79 -31t32 -79z" />
    <glyph glyph-name="Agrave" unicode="&#xc0;" horiz-adv-x="1314" 
d="M403 532h508l-254 650zM588 1409h137l561 -1409h-168l-157 403h-607l-159 -403h-166zM383 1858h170l209 -304h-139z" />
    <glyph glyph-name="Aacute" unicode="&#xc1;" horiz-adv-x="1314" 
d="M403 532h508l-254 650zM588 1409h137l561 -1409h-168l-157 403h-607l-159 -403h-166zM762 1858h170l-240 -304h-139z" />
    <glyph glyph-name="Acircumflex" unicode="&#xc2;" horiz-adv-x="1314" 
d="M403 532h508l-254 650zM588 1409h137l561 -1409h-168l-157 403h-607l-159 -403h-166zM590 1858h137l209 -304h-133l-146 189l-143 -189h-135z" />
    <glyph glyph-name="Atilde" unicode="&#xc3;" horiz-adv-x="1314" 
d="M403 532h508l-254 650zM588 1409h137l561 -1409h-168l-157 403h-607l-159 -403h-166zM350 1612q0 92 50 151q104 122 269 1q31 -22 57 -40t56 -18t52 26q23 26 22 68h109q1 -94 -49 -152t-128 -59q-42 1 -76 19t-64 40t-56 40t-58 18q-30 0 -53 -26t-22 -68h-109z" />
    <glyph glyph-name="Adieresis" unicode="&#xc4;" horiz-adv-x="1314" 
d="M403 532h508l-254 650zM588 1409h137l561 -1409h-168l-157 403h-607l-159 -403h-166zM352 1707q0 44 28 71q28 26 72 26t72 -26t27 -71q0 -44 -28 -73q-27 -28 -71 -28t-72 28t-28 73zM766 1707q0 44 27 71q27 26 71 26t72 -26q29 -26 29 -71q0 -44 -29 -73
q-29 -28 -73 -28q-45 0 -71 28t-26 73z" />
    <glyph glyph-name="Aring" unicode="&#xc5;" horiz-adv-x="1314" 
d="M403 532h508l-254 650zM588 1409h137l561 -1409h-168l-157 403h-607l-159 -403h-166zM549 1706q0 -47 31 -78q32 -31 78 -31t77 31t31 78t-31 78t-78 31t-77 -31t-31 -78zM461 1705q0 87 55 142t142 55q88 0 142 -54q54 -56 54 -143t-54 -141t-142 -54t-142 54
q-55 54 -55 141z" />
    <glyph glyph-name="AE" unicode="&#xc6;" horiz-adv-x="1847" 
d="M1722 1409v-135h-639v-492h559v-133h-559v-514h656v-135h-821v395h-506l-248 -395h-178l891 1409h845zM918 524v682l-426 -682h426z" />
    <glyph glyph-name="Ccedilla" unicode="&#xc7;" horiz-adv-x="1261" 
d="M928 -296q0 -73 -68 -125t-160 -52t-161 39v112q72 -45 132 -45t92 25.5t32 65.5t-35 66t-101 26h-14l43 166q-261 28 -422.5 227.5t-161.5 507.5q0 309 189 513t481 204q194 0 387 -103v-162q-186 123 -368 123q-232 0 -374.5 -165.5t-142.5 -422t142.5 -422
t374.5 -165.5q185 0 368 123v-162q-174 -92 -360 -103l-21 -92q68 -12 108 -59t40 -120z" />
    <glyph glyph-name="Egrave" unicode="&#xc8;" horiz-adv-x="1132" 
d="M205 1409h805v-135h-639v-492h559v-133h-559v-514h655v-135h-821v1409zM322 1858h170l208 -304h-139z" />
    <glyph glyph-name="Eacute" unicode="&#xc9;" horiz-adv-x="1132" 
d="M205 1409h805v-135h-639v-492h559v-133h-559v-514h655v-135h-821v1409zM700 1858h170l-239 -304h-139z" />
    <glyph glyph-name="Ecircumflex" unicode="&#xca;" horiz-adv-x="1132" 
d="M205 1409h805v-135h-639v-492h559v-133h-559v-514h655v-135h-821v1409zM528 1858h138l208 -304h-133l-145 189l-143 -189h-136z" />
    <glyph glyph-name="Edieresis" unicode="&#xcb;" horiz-adv-x="1132" 
d="M205 1409h805v-135h-639v-492h559v-133h-559v-514h655v-135h-821v1409zM291 1707q0 44 27 71q28 26 72 26t72 -26t28 -71q0 -44 -28 -73q-28 -28 -72 -28t-72 28q-27 29 -27 73zM705 1707q0 44 26 71q27 26 71 26t72 -26t29 -71q0 -44 -29 -73q-28 -28 -72 -28t-71 28
q-26 29 -26 73z" />
    <glyph glyph-name="Igrave" unicode="&#xcc;" horiz-adv-x="573" 
d="M205 1409h166v-1409h-166v1409zM12 1858h170l209 -304h-139z" />
    <glyph glyph-name="Iacute" unicode="&#xcd;" horiz-adv-x="573" 
d="M205 1409h166v-1409h-166v1409zM391 1858h170l-239 -304h-140z" />
    <glyph glyph-name="Icircumflex" unicode="&#xce;" horiz-adv-x="573" 
d="M205 1409h166v-1409h-166v1409zM219 1858h137l209 -304h-133l-145 189l-144 -189h-135z" />
    <glyph glyph-name="Idieresis" unicode="&#xcf;" horiz-adv-x="573" 
d="M205 1409h166v-1409h-166v1409zM-18 1707q0 44 27 71q28 26 72 26t72 -26q27 -26 27 -71q0 -44 -28 -73q-28 -28 -71 -28q-44 0 -72 28q-27 29 -27 73zM395 1707q0 44 27 71q27 26 71 26q45 0 73 -26t28 -71q0 -44 -29 -73q-29 -28 -73 -28t-70 28q-27 28 -27 73z" />
    <glyph glyph-name="Eth" unicode="&#xd0;" horiz-adv-x="1466" 
d="M403 776h326v-119h-326v-522h265q231 0 376.5 161.5t145.5 408t-145.5 408t-376.5 161.5h-265v-498zM236 657h-181v119h181v633h442q302 0 494 -198t192 -506.5t-141.5 -454.5t-268.5 -198t-276 -52h-442v657z" />
    <glyph glyph-name="Ntilde" unicode="&#xd1;" horiz-adv-x="1513" 
d="M205 1409h147l799 -1137v1137h160v-1409h-148l-798 1137v-1137h-160v1409zM449 1612q0 92 50 151q103 122 268 1q31 -22 57 -40t56 -18t52 26q23 26 22 68h109q0 -94 -49 -152t-118 -58t-150 58q-30 22 -56 40t-58 18q-30 0 -52 -26t-23 -68h-108z" />
    <glyph glyph-name="Ograve" unicode="&#xd2;" horiz-adv-x="1513" 
d="M1106 281q133 165 133 425t-133 423t-348 163q-216 0 -349 -165t-133 -425t133 -422q133 -163 348 -163q214 0 349 164zM1228 1230q183 -204 183 -524t-182 -525q-182 -204 -472 -205q-289 -1 -471 204t-182 523t181 524q181 205 471 206q289 1 472 -203zM483 1858h170
l209 -304h-139z" />
    <glyph glyph-name="Oacute" unicode="&#xd3;" horiz-adv-x="1513" 
d="M1106 281q133 165 133 425t-133 423t-348 163q-216 0 -349 -165t-133 -425t133 -422q133 -163 348 -163q214 0 349 164zM1228 1230q183 -204 183 -524t-182 -525q-182 -204 -472 -205q-289 -1 -471 204t-182 523t181 524q181 205 471 206q289 1 472 -203zM862 1858h170
l-239 -304h-140z" />
    <glyph glyph-name="Ocircumflex" unicode="&#xd4;" horiz-adv-x="1513" 
d="M1106 281q133 165 133 425t-133 423t-348 163q-216 0 -349 -165t-133 -425t133 -422q133 -163 348 -163q214 0 349 164zM1228 1230q183 -204 183 -524t-182 -525q-182 -204 -472 -205q-289 -1 -471 204t-182 523t181 524q181 205 471 206q289 1 472 -203zM690 1858h137
l209 -304h-133l-145 189l-144 -189h-135z" />
    <glyph glyph-name="Otilde" unicode="&#xd5;" horiz-adv-x="1513" 
d="M1106 281q133 165 133 425t-133 423t-348 163q-216 0 -349 -165t-133 -425t133 -422q133 -163 348 -163q214 0 349 164zM1228 1230q183 -204 183 -524t-182 -525q-182 -204 -472 -205q-289 -1 -471 204t-182 523t181 524q181 205 471 206q289 1 472 -203zM451 1612
q0 92 50 151t120 59t148 -58q31 -22 57 -40t56 -18t52 26t22 68h109q0 -94 -49 -152t-119 -58t-148 58q-30 22 -57 40q-28 18 -58 18t-52 -26t-23 -68h-108z" />
    <glyph glyph-name="Odieresis" unicode="&#xd6;" horiz-adv-x="1513" 
d="M1106 281q133 165 133 425t-133 423t-348 163q-216 0 -349 -165t-133 -425t133 -422q133 -163 348 -163q214 0 349 164zM1228 1230q183 -204 183 -524t-182 -525q-182 -204 -472 -205q-289 -1 -471 204t-182 523t181 524q181 205 471 206q289 1 472 -203zM453 1707
q0 44 27 71q28 26 72 26t72 -26t28 -71q0 -44 -28 -73q-28 -28 -72 -28t-72 28q-27 29 -27 73zM866 1707q0 44 27 71q27 26 71 26t72 -26t29 -71q0 -44 -29 -73q-28 -28 -72 -28t-71 28t-27 73z" />
    <glyph glyph-name="multiply" unicode="&#xd7;" 
d="M119 219l358 359l-358 356l100 100l359 -358l356 358l100 -100l-358 -356l358 -359l-100 -100l-356 358l-359 -358z" />
    <glyph glyph-name="Oslash" unicode="&#xd8;" horiz-adv-x="1513" 
d="M1239 690q0 246 -115 412l-657 -877q121 -109 291 -108q214 0 347.5 163.5t133.5 409.5zM276 718q0 -248 115 -411l656 877q-121 109 -289 108q-215 0 -348.5 -163t-133.5 -411zM293 176q-189 206 -189 527t182 526t472 205q213 0 381 -127l78 102h137l-133 -176
q190 -207 190 -528q0 -322 -183 -526t-470 -204q-215 0 -383 127l-78 -102h-137z" />
    <glyph glyph-name="Ugrave" unicode="&#xd9;" horiz-adv-x="1513" 
d="M1319 518q0 -234 -157 -389q-157 -154 -404 -154q-248 0 -404 152q-157 152 -157 391v891h165v-879q0 -176 112 -296q112 -119 284 -118q173 1 284 118t111 296v879h166v-891zM483 1858h170l209 -304h-139z" />
    <glyph glyph-name="Uacute" unicode="&#xda;" horiz-adv-x="1513" 
d="M1319 518q0 -234 -157 -389q-157 -154 -404 -154q-248 0 -404 152q-157 152 -157 391v891h165v-879q0 -176 112 -296q112 -119 284 -118q173 1 284 118t111 296v879h166v-891zM862 1858h170l-239 -304h-140z" />
    <glyph glyph-name="Ucircumflex" unicode="&#xdb;" horiz-adv-x="1513" 
d="M1319 518q0 -234 -157 -389q-157 -154 -404 -154q-248 0 -404 152q-157 152 -157 391v891h165v-879q0 -176 112 -296q112 -119 284 -118q173 1 284 118t111 296v879h166v-891zM690 1858h137l209 -304h-133l-145 189l-144 -189h-135z" />
    <glyph glyph-name="Udieresis" unicode="&#xdc;" horiz-adv-x="1513" 
d="M1319 518q0 -234 -157 -389q-157 -154 -404 -154q-248 0 -404 152q-157 152 -157 391v891h165v-879q0 -176 112 -296q112 -119 284 -118q173 1 284 118t111 296v879h166v-891zM453 1707q0 44 27 71q28 26 72 26t72 -26t28 -71q0 -44 -28 -73q-28 -28 -72 -28t-72 28
q-27 29 -27 73zM866 1707q0 44 27 71q27 26 71 26t72 -26t29 -71q0 -44 -29 -73q-28 -28 -72 -28t-71 28t-27 73z" />
    <glyph glyph-name="Yacute" unicode="&#xdd;" horiz-adv-x="1218" 
d="M694 0h-168v612l-506 797h191l397 -645l400 645h192l-506 -797v-612zM713 1858h170l-240 -304h-139z" />
    <glyph glyph-name="Thorn" unicode="&#xde;" horiz-adv-x="1198" 
d="M369 422h254q143 0 233 82t90 213t-90 213t-233 82h-254v-590zM205 1409h164v-264h278q204 0 336.5 -119t132.5 -309t-132 -309t-337 -119h-278v-289h-164v1409z" />
    <glyph glyph-name="germandbls" unicode="&#xdf;" horiz-adv-x="1302" 
d="M1085 268q0 67 -35.5 102.5t-91 60t-118 46t-153.5 77t-91 206.5q0 76 26.5 127t59.5 95t59.5 88t26.5 117t-58.5 125t-156.5 52t-162.5 -65.5t-64.5 -170.5v-1128h-162v1135q0 161 110 261.5t280 100.5t274 -86.5t104 -224.5q0 -76 -27.5 -129t-59.5 -97.5t-59.5 -88.5
t-27.5 -103t36.5 -94t91 -59.5t118 -46t154.5 -78.5t91 -202t-103 -229t-258 -84q-154 0 -304 72v156q143 -96 284 -97q96 0 156.5 47.5t60.5 114.5z" />
    <glyph glyph-name="agrave" unicode="&#xe0;" horiz-adv-x="1044" 
d="M582 512q-147 0 -239 -62q-91 -63 -91 -153t55 -141t144 -52q144 0 282 140v260q-74 8 -151 8zM408 -25q-138 0 -231 82q-89 83 -89 211q0 155 134 254t351 99q82 0 160 -7v88q0 96 -65 157q-66 60 -170 61q-156 0 -322 -93v142q172 80 340 80t271 -98q104 -98 104 -249
v-702h-158v106q-147 -131 -325 -131zM246 1473h170l209 -304h-140z" />
    <glyph glyph-name="aacute" unicode="&#xe1;" horiz-adv-x="1044" 
d="M582 512q-147 0 -239 -62q-91 -63 -91 -153t55 -141t144 -52q144 0 282 140v260q-74 8 -151 8zM408 -25q-138 0 -231 82q-89 83 -89 211q0 155 134 254t351 99q82 0 160 -7v88q0 96 -65 157q-66 60 -170 61q-156 0 -322 -93v142q172 80 340 80t271 -98q104 -98 104 -249
v-702h-158v106q-147 -131 -325 -131zM625 1473h170l-240 -304h-139z" />
    <glyph glyph-name="acircumflex" unicode="&#xe2;" horiz-adv-x="1044" 
d="M582 512q-147 0 -239 -62q-91 -63 -91 -153t55 -141t144 -52q144 0 282 140v260q-74 8 -151 8zM408 -25q-138 0 -231 82q-89 83 -89 211q0 155 134 254t351 99q82 0 160 -7v88q0 96 -65 157q-66 60 -170 61q-156 0 -322 -93v142q172 80 340 80t271 -98q104 -98 104 -249
v-702h-158v106q-147 -131 -325 -131zM453 1473h137l209 -304h-133l-146 189l-143 -189h-135z" />
    <glyph glyph-name="atilde" unicode="&#xe3;" horiz-adv-x="1044" 
d="M582 512q-147 0 -239 -62q-91 -63 -91 -153t55 -141t144 -52q144 0 282 140v260q-74 8 -151 8zM408 -25q-138 0 -231 82q-89 83 -89 211q0 155 134 254t351 99q82 0 160 -7v88q0 96 -65 157q-66 60 -170 61q-156 0 -322 -93v142q172 80 340 80t271 -98q104 -98 104 -249
v-702h-158v106q-147 -131 -325 -131zM213 1227q0 92 50 151q50 60 120 60t148 -59q30 -22 57 -40q26 -18 56 -18t52 26t23 68h108q0 -94 -49 -152q-49 -59 -119 -59t-148 59q-31 22 -57 40t-57 18t-53 -26t-22 -68h-109z" />
    <glyph glyph-name="adieresis" unicode="&#xe4;" horiz-adv-x="1044" 
d="M582 512q-147 0 -239 -62q-91 -63 -91 -153t55 -141t144 -52q144 0 282 140v260q-74 8 -151 8zM408 -25q-138 0 -231 82q-89 83 -89 211q0 155 134 254t351 99q82 0 160 -7v88q0 96 -65 157q-66 60 -170 61q-156 0 -322 -93v142q172 80 340 80t271 -98q104 -98 104 -249
v-702h-158v106q-147 -131 -325 -131zM215 1322q0 44 28 71q27 27 71 27t72 -28q28 -26 28 -70t-28 -73t-72 -29t-72 30q-28 28 -27 72zM629 1322q0 44 26 71q27 27 71 27t73 -28q29 -26 29 -70t-30 -73q-28 -29 -72 -29t-71 29q-26 29 -26 73z" />
    <glyph glyph-name="aring" unicode="&#xe5;" horiz-adv-x="1044" 
d="M582 512q-147 0 -239 -62q-91 -63 -91 -153t55 -141t144 -52q144 0 282 140v260q-74 8 -151 8zM408 -25q-138 0 -231 82q-89 83 -89 211q0 155 134 254t351 99q82 0 160 -7v88q0 96 -65 157q-66 60 -170 61q-156 0 -322 -93v142q172 80 340 80t271 -98q104 -98 104 -249
v-702h-158v106q-147 -131 -325 -131zM412 1321q0 -47 30 -78t78 -31q47 0 78 31t31 78t-31 78t-78 31q-48 0 -78 -31t-30 -78zM324 1320q0 87 55 142q55 56 142 56t141 -56t55 -142q0 -87 -54 -141q-53 -55 -141 -55t-143 54t-55 142z" />
    <glyph glyph-name="ae" unicode="&#xe6;" horiz-adv-x="1701" 
d="M1196 920q-127 0 -211 -91.5t-94 -238.5h571q-6 228 -107.5 279t-158.5 51zM582 512q-147 0 -238.5 -63.5t-91.5 -155.5t58.5 -141.5t146.5 -49.5q177 0 317 170q-41 100 -41 224v8q-78 8 -151 8zM1250 -25q-272 0 -414 195q-187 -195 -406 -195q-156 0 -249 80.5
t-93 223.5t134.5 242.5t350.5 99.5q88 0 160 -7v88q0 96 -64.5 157t-166.5 61q-160 0 -326 -93v142q172 80 312 80q268 0 354 -181q136 181 360 181q188 0 304 -139t116 -363l-2 -72h-729q8 -168 108.5 -269.5t247.5 -101.5t305 99v-148q-160 -80 -302 -80z" />
    <glyph glyph-name="ccedilla" unicode="&#xe7;" horiz-adv-x="972" 
d="M760 -296q0 -73 -68 -125t-160 -52t-161 39v112q72 -45 132 -45t92 25.5t32 65.5t-35 66t-100 26h-15l41 166q-193 24 -311.5 168.5t-118.5 370.5q0 227 141 377.5t361 150.5q152 0 291 -72v-152q-129 88 -278 88t-249 -112.5t-100 -288.5t99.5 -288.5t249.5 -112.5
q149 0 278 88v-152q-117 -59 -248 -70l-23 -94q70 -12 110 -59t40 -120z" />
    <glyph glyph-name="egrave" unicode="&#xe8;" horiz-adv-x="1060" 
d="M821 590q-2 147 -75 238q-74 92 -196 92t-205 -92t-93 -238h569zM615 -25q-136 0 -228 40q-188 82 -262 285q-37 99 -37 218t36 215q75 200 248 277q87 39 186 39t176 -37q155 -75 217 -262q30 -92 30 -203v-35q0 -18 -2 -37h-727q4 -159 104 -265t249 -106q148 0 306 99
v-148q-160 -80 -296 -80zM281 1473h170l208 -304h-139z" />
    <glyph glyph-name="eacute" unicode="&#xe9;" horiz-adv-x="1060" 
d="M821 590q-2 147 -75 238q-74 92 -196 92t-205 -92t-93 -238h569zM615 -25q-136 0 -228 40q-188 82 -262 285q-37 99 -37 218t36 215q75 200 248 277q87 39 186 39t176 -37q155 -75 217 -262q30 -92 30 -203v-35q0 -18 -2 -37h-727q4 -159 104 -265t249 -106q148 0 306 99
v-148q-160 -80 -296 -80zM659 1473h170l-239 -304h-139z" />
    <glyph glyph-name="ecircumflex" unicode="&#xea;" horiz-adv-x="1060" 
d="M821 590q-2 147 -75 238q-74 92 -196 92t-205 -92t-93 -238h569zM615 -25q-136 0 -228 40q-188 82 -262 285q-37 99 -37 218t36 215q75 200 248 277q87 39 186 39t176 -37q155 -75 217 -262q30 -92 30 -203v-35q0 -18 -2 -37h-727q4 -159 104 -265t249 -106q148 0 306 99
v-148q-160 -80 -296 -80zM487 1473h138l209 -304h-134l-145 189l-143 -189h-136z" />
    <glyph glyph-name="edieresis" unicode="&#xeb;" horiz-adv-x="1060" 
d="M821 590q-2 147 -75 238q-74 92 -196 92t-205 -92t-93 -238h569zM615 -25q-136 0 -228 40q-188 82 -262 285q-37 99 -37 218t36 215q75 200 248 277q87 39 186 39t176 -37q155 -75 217 -262q30 -92 30 -203v-35q0 -18 -2 -37h-727q4 -159 104 -265t249 -106q148 0 306 99
v-148q-160 -80 -296 -80zM250 1322q0 44 28 71t72 27t71 -28q28 -26 28 -70t-28 -73t-72 -29q-43 0 -71 30q-28 28 -28 72zM664 1322q0 44 26 71q27 27 71 27t73 -28q28 -26 28 -70t-28 -73t-73 -29q-44 0 -71 29q-26 29 -26 73z" />
    <glyph glyph-name="igrave" unicode="&#xec;" horiz-adv-x="489" 
d="M164 1024h162v-1024h-162v1024zM-31 1473h170l209 -304h-139z" />
    <glyph glyph-name="iacute" unicode="&#xed;" horiz-adv-x="489" 
d="M164 1024h162v-1024h-162v1024zM348 1473h170l-239 -304h-140z" />
    <glyph glyph-name="icircumflex" unicode="&#xee;" horiz-adv-x="489" 
d="M164 1024h162v-1024h-162v1024zM176 1473h137l209 -304h-133l-145 189l-144 -189h-135z" />
    <glyph glyph-name="idieresis" unicode="&#xef;" horiz-adv-x="489" 
d="M164 1024h162v-1024h-162v1024zM-61 1322q0 44 27 71q28 27 72 27t72 -28q28 -26 28 -70t-28 -73t-72 -29t-72 29q-27 29 -27 73zM352 1322q0 44 27 71t71 27t72 -28q28 -26 29 -70q0 -44 -29 -73q-28 -29 -72 -29t-71 30q-27 28 -27 72z" />
    <glyph glyph-name="eth" unicode="&#xf0;" horiz-adv-x="1157" 
d="M345.5 223.5q91.5 -112.5 232.5 -112.5q142 0 233.5 116t91.5 275t-51 297q-131 114 -274 114t-233.5 -111.5t-90.5 -288.5t91.5 -289.5zM1069 541q0 -247 -139 -406.5t-355 -159.5t-351.5 151.5t-135.5 385.5t131 385.5t338 151.5q128 0 238 -70q-88 142 -220 272
l-270 -112v121l180 75q-88 76 -182 138h219q6 -4 101 -80l229 96v-121l-139 -61q356 -347 356 -766z" />
    <glyph glyph-name="ntilde" unicode="&#xf1;" horiz-adv-x="1161" 
d="M326 0h-162v1024h162v-113q150 137 316 137t266 -100q100 -101 100 -258v-690h-164v668q0 106 -65 174t-169 67q-151 0 -284 -145v-764zM276 1227q0 92 50 151q104 122 269 1q31 -22 57 -40t56 -18t52 26q23 26 22 68h109q0 -94 -49 -152q-49 -59 -118 -59t-150 59
q-30 22 -56 40t-58 18q-30 0 -52 -26t-23 -68h-109z" />
    <glyph glyph-name="ograve" unicode="&#xf2;" horiz-adv-x="1161" 
d="M254 513q0 -174 92 -290q92 -114 235 -113t236 115q92 114 91 288t-93 288t-234 113t-235 -113q-92 -114 -92 -288zM88 511q0 237 139 388q139 150 353 150q215 0 355 -150t140 -386q0 -235 -139 -387q-140 -151 -356 -151q-215 0 -353 149q-139 150 -139 387zM305 1473
h170l209 -304h-139z" />
    <glyph glyph-name="oacute" unicode="&#xf3;" horiz-adv-x="1161" 
d="M254 513q0 -174 92 -290q92 -114 235 -113t236 115q92 114 91 288t-93 288t-234 113t-235 -113q-92 -114 -92 -288zM88 511q0 237 139 388q139 150 353 150q215 0 355 -150t140 -386q0 -235 -139 -387q-140 -151 -356 -151q-215 0 -353 149q-139 150 -139 387zM684 1473
h170l-240 -304h-139z" />
    <glyph glyph-name="ocircumflex" unicode="&#xf4;" horiz-adv-x="1161" 
d="M254 513q0 -174 92 -290q92 -114 235 -113t236 115q92 114 91 288t-93 288t-234 113t-235 -113q-92 -114 -92 -288zM88 511q0 237 139 388q139 150 353 150q215 0 355 -150t140 -386q0 -235 -139 -387q-140 -151 -356 -151q-215 0 -353 149q-139 150 -139 387zM512 1473
h137l209 -304h-133l-145 189l-144 -189h-135z" />
    <glyph glyph-name="otilde" unicode="&#xf5;" horiz-adv-x="1161" 
d="M254 513q0 -174 92 -290q92 -114 235 -113t236 115q92 114 91 288t-93 288t-234 113t-235 -113q-92 -114 -92 -288zM88 511q0 237 139 388q139 150 353 150q215 0 355 -150t140 -386q0 -235 -139 -387q-140 -151 -356 -151q-215 0 -353 149q-139 150 -139 387zM272 1227
q0 92 50 151q104 122 269 1q31 -22 57 -40t56 -18t52 26q23 26 22 68h109q0 -94 -49 -152q-49 -59 -118 -59t-150 59q-30 22 -56 40t-58 18q-30 0 -53 -26t-22 -68h-109z" />
    <glyph glyph-name="odieresis" unicode="&#xf6;" horiz-adv-x="1161" 
d="M254 513q0 -174 92 -290q92 -114 235 -113t236 115q92 114 91 288t-93 288t-234 113t-235 -113q-92 -114 -92 -288zM88 511q0 237 139 388q139 150 353 150q215 0 355 -150t140 -386q0 -235 -139 -387q-140 -151 -356 -151q-215 0 -353 149q-139 150 -139 387zM274 1322
q0 44 28 71t72 27t72 -28q28 -26 27 -70q0 -44 -28 -73q-27 -29 -71 -29t-72 30q-28 28 -28 72zM688 1322q0 44 27 71t71 27t72 -28q29 -26 29 -70t-29 -73t-73 -29q-45 0 -71 30q-26 28 -26 72z" />
    <glyph glyph-name="divide" unicode="&#xf7;" 
d="M477 962q0 44 27.5 70.5t71.5 26.5t72 -26.5t28 -70.5t-27.5 -72t-71.5 -28t-72 28t-28 72zM63 647h1027v-141h-1027v141zM477 192q0 44 27.5 71.5t71.5 27.5t72 -27.5t28 -71.5t-27.5 -71t-71.5 -27t-72 27t-28 71z" />
    <glyph glyph-name="oslash" unicode="&#xf8;" horiz-adv-x="1161" 
d="M911 499q0 165 -73 279l-449 -600q80 -70 193 -69q146 0 237.5 112.5t91.5 277.5zM252 521q0 -169 74 -273l448 600q-84 68 -175 68q-164 -1 -255.5 -113.5t-91.5 -281.5zM231 123q-143 147 -143 387q0 239 138.5 389t355.5 150q158 0 278 -86l49 61h115l-92 -121
q143 -151 143 -389q0 -237 -139.5 -388t-353.5 -151q-164 0 -281 88l-47 -63h-115z" />
    <glyph glyph-name="ugrave" unicode="&#xf9;" horiz-adv-x="1161" 
d="M836 1024h163v-1024h-163v115q-150 -139 -314 -139t-266 100q-102 102 -100 258v690h161v-668q0 -106 66 -174t170 -67q148 0 283 145v764zM303 1473h170l209 -304h-139z" />
    <glyph glyph-name="uacute" unicode="&#xfa;" horiz-adv-x="1161" 
d="M836 1024h163v-1024h-163v115q-150 -139 -314 -139t-266 100q-102 102 -100 258v690h161v-668q0 -106 66 -174t170 -67q148 0 283 145v764zM682 1473h170l-240 -304h-139z" />
    <glyph glyph-name="ucircumflex" unicode="&#xfb;" horiz-adv-x="1161" 
d="M836 1024h163v-1024h-163v115q-150 -139 -314 -139t-266 100q-102 102 -100 258v690h161v-668q0 -106 66 -174t170 -67q148 0 283 145v764zM510 1473h137l209 -304h-133l-145 189l-144 -189h-135z" />
    <glyph glyph-name="udieresis" unicode="&#xfc;" horiz-adv-x="1161" 
d="M836 1024h163v-1024h-163v115q-150 -139 -314 -139t-266 100q-102 102 -100 258v690h161v-668q0 -106 66 -174t170 -67q148 0 283 145v764zM272 1322q0 44 28 71t72 27t72 -28q28 -26 27 -70q0 -44 -28 -73q-27 -29 -71 -29t-72 30q-28 28 -28 72zM686 1322q0 44 27 71
t71 27t72 -28q29 -26 29 -70t-29 -73t-73 -29q-45 0 -71 30q-26 28 -26 72z" />
    <glyph glyph-name="yacute" unicode="&#xfd;" horiz-adv-x="1017" 
d="M399 -449h-159l192 476l-397 997h168l305 -801l309 801h166zM612 1473h170l-239 -304h-140z" />
    <glyph glyph-name="thorn" unicode="&#xfe;" horiz-adv-x="1161" 
d="M164 1473h162v-539q133 115 288 115q202 0 331.5 -149.5t129.5 -387.5t-129.5 -387.5t-331.5 -149.5q-156 0 -288 117v-541h-162v1922zM907 512q0 178 -89.5 288.5t-228.5 110.5q-140 0 -263 -123v-552q123 -123 263 -123t229 110.5t89 288.5z" />
    <glyph glyph-name="ydieresis" unicode="&#xff;" horiz-adv-x="1017" 
d="M399 -449h-159l192 476l-397 997h168l305 -801l309 801h166zM203 1322q0 44 27 71q28 27 72 27t72 -28q28 -26 28 -70t-28 -73t-72 -29t-72 29q-27 29 -27 73zM616 1322q0 44 27 71t71 27t72 -28q28 -26 29 -70q0 -44 -29 -73q-28 -29 -72 -29t-71 30q-27 28 -27 72z" />
    <glyph glyph-name="Amacron" unicode="&#x100;" horiz-adv-x="1314" 
d="M403 532h508l-254 650zM588 1409h137l561 -1409h-168l-157 403h-607l-159 -403h-166zM348 1765h619v-116h-619v116z" />
    <glyph glyph-name="amacron" unicode="&#x101;" horiz-adv-x="1044" 
d="M582 512q-147 0 -239 -62q-91 -63 -91 -153t55 -141t144 -52q144 0 282 140v260q-74 8 -151 8zM408 -25q-138 0 -231 82q-89 83 -89 211q0 155 134 254t351 99q82 0 160 -7v88q0 96 -65 157q-66 60 -170 61q-156 0 -322 -93v142q172 80 340 80t271 -98q104 -98 104 -249
v-702h-158v106q-147 -131 -325 -131zM211 1380h618v-116h-618v116z" />
    <glyph glyph-name="Abreve" unicode="&#x102;" horiz-adv-x="1314" 
d="M403 532h508l-254 650zM588 1409h137l561 -1409h-168l-157 403h-607l-159 -403h-166zM492 1858q0 -78 47 -126t119 -48t118 48q47 48 47 126h113q0 -131 -79 -214t-200 -82q-122 1 -200 83t-78 213h113z" />
    <glyph glyph-name="abreve" unicode="&#x103;" horiz-adv-x="1044" 
d="M582 512q-147 0 -239 -62q-91 -63 -91 -153t55 -141t144 -52q144 0 282 140v260q-74 8 -151 8zM408 -25q-138 0 -231 82q-89 83 -89 211q0 155 134 254t351 99q82 0 160 -7v88q0 96 -65 157q-66 60 -170 61q-156 0 -322 -93v142q172 80 340 80t271 -98q104 -98 104 -249
v-702h-158v106q-147 -131 -325 -131zM354 1473q0 -78 47 -126q47 -49 119 -49t119 48t47 127h113q0 -131 -79 -214t-200 -82t-200 83q-78 82 -78 213h112z" />
    <glyph glyph-name="Aogonek" unicode="&#x104;" horiz-adv-x="1314" 
d="M403 532h508l-254 650zM1104 -224q0 -54 28.5 -82t73.5 -28t80 23v-111q-53 -27 -128 -27t-130 51.5t-55 133.5q0 147 188 264h-43l-157 403h-607l-159 -403h-166l559 1409h137l561 -1409q-88 -49 -135 -109.5t-47 -114.5z" />
    <glyph glyph-name="aogonek" unicode="&#x105;" horiz-adv-x="1044" 
d="M582 512q-147 0 -238.5 -62.5t-91.5 -152.5t55 -141.5t144 -51.5q144 0 282 140v260q-74 8 -151 8zM408 -25q-143 0 -231.5 82.5t-88.5 223.5t134.5 240.5t350.5 99.5q82 0 160 -7v88q0 96 -65.5 157t-169.5 61q-156 0 -322 -93v142q172 80 339 80t271.5 -97.5
t104.5 -249.5v-702h-2q-88 -49 -135 -109.5t-47 -114.5t28.5 -82t73.5 -28t80 23v-111q-53 -27 -128 -27t-130.5 51.5t-55.5 133.5q0 147 189 264h-31v106q-147 -131 -325 -131z" />
    <glyph glyph-name="Cacute" unicode="&#x106;" horiz-adv-x="1261" 
d="M104 705q0 319 188 524q188 203 482 205q194 0 387 -103v-162q-189 125 -368 123q-231 0 -374 -166t-143 -423q0 -256 143 -421t374 -165q185 0 368 123v-162q-193 -103 -364 -103q-170 1 -293 55q-252 112 -350 381q-50 134 -50 294zM838 1858h170l-240 -304h-139z" />
    <glyph glyph-name="cacute" unicode="&#x107;" horiz-adv-x="972" 
d="M610 -25q-132 0 -223 40q-190 83 -262 281q-37 99 -37 217q0 234 141 385t361 151q152 0 291 -72v-152q-132 90 -280 89t-247 -113q-100 -112 -100 -288q0 -175 100 -290q101 -114 250 -113q148 1 277 89v-152q-139 -72 -271 -72zM670 1473h170l-240 -304h-139z" />
    <glyph glyph-name="Ccircumflex" unicode="&#x108;" horiz-adv-x="1261" 
d="M104 705q0 319 188 524q188 203 482 205q194 0 387 -103v-162q-189 125 -368 123q-231 0 -374 -166t-143 -423q0 -256 143 -421t374 -165q185 0 368 123v-162q-193 -103 -364 -103q-170 1 -293 55q-252 112 -350 381q-50 134 -50 294zM666 1858h137l209 -304h-133
l-146 189l-143 -189h-135z" />
    <glyph glyph-name="ccircumflex" unicode="&#x109;" horiz-adv-x="972" 
d="M610 -25q-132 0 -223 40q-190 83 -262 281q-37 99 -37 217q0 234 141 385t361 151q152 0 291 -72v-152q-132 90 -280 89t-247 -113q-100 -112 -100 -288q0 -175 100 -290q101 -114 250 -113q148 1 277 89v-152q-139 -72 -271 -72zM498 1473h137l209 -304h-133l-146 189
l-143 -189h-135z" />
    <glyph glyph-name="Cdotaccent" unicode="&#x10a;" horiz-adv-x="1261" 
d="M104 705q0 319 188 524q188 203 482 205q194 0 387 -103v-162q-189 125 -368 123q-231 0 -374 -166t-143 -423q0 -256 143 -421t374 -165q185 0 368 123v-162q-193 -103 -364 -103q-170 1 -293 55q-252 112 -350 381q-50 134 -50 294zM633 1706q0 45 27 73q28 27 73 27
t73 -28t28 -72q0 -45 -28 -73q-28 -27 -73 -27t-73 27q-27 28 -27 73z" />
    <glyph glyph-name="cdotaccent" unicode="&#x10b;" horiz-adv-x="972" 
d="M610 -25q-132 0 -223 40q-190 83 -262 281q-37 99 -37 217q0 234 141 385t361 151q152 0 291 -72v-152q-132 90 -280 89t-247 -113q-100 -112 -100 -288q0 -175 100 -290q101 -114 250 -113q148 1 277 89v-152q-139 -72 -271 -72zM465 1321q0 45 28 73q29 28 73 28
t72 -28t28 -73t-28 -73t-73 -28t-73 28t-27 73z" />
    <glyph glyph-name="Ccaron" unicode="&#x10c;" horiz-adv-x="1261" 
d="M104 705q0 319 188 524q188 203 482 205q194 0 387 -103v-162q-189 125 -368 123q-231 0 -374 -166t-143 -423q0 -256 143 -421t374 -165q185 0 368 123v-162q-193 -103 -364 -103q-170 1 -293 55q-252 112 -350 381q-50 134 -50 294zM803 1554h-137l-211 304h135
l143 -187l146 187h133z" />
    <glyph glyph-name="ccaron" unicode="&#x10d;" horiz-adv-x="972" 
d="M610 -25q-132 0 -223 40q-190 83 -262 281q-37 99 -37 217q0 234 141 385t361 151q152 0 291 -72v-152q-132 90 -280 89t-247 -113q-100 -112 -100 -288q0 -175 100 -290q101 -114 250 -113q148 1 277 89v-152q-139 -72 -271 -72zM635 1169h-137l-211 304h135l143 -187
l146 187h133z" />
    <glyph glyph-name="Dcaron" unicode="&#x10e;" horiz-adv-x="1433" 
d="M371 135h264q233 0 378 160q146 160 146 408t-146 409q-146 162 -378 162h-264v-1139zM205 1409h440q150 0 277 -52q127 -51 217 -145q192 -199 192 -508q0 -308 -192 -506q-90 -94 -217 -146t-277 -52h-440v1409zM754 1554h-138l-210 304h135l143 -187l145 187h134z" />
    <glyph glyph-name="dcaron" unicode="&#x10f;" horiz-adv-x="1161" 
d="M1235 1473h145l-129 -304h-127zM547 1049q155 0 289 -115v539h163v-1473h-163v92q-129 -117 -289 -117q-203 0 -331 151t-128 386t128 386t331 151zM254 512q0 -178 89.5 -288.5t230.5 -110.5q142 0 262 123v552q-119 123 -261 123t-231.5 -110.5t-89.5 -288.5z" />
    <glyph glyph-name="Dcroat" unicode="&#x110;" horiz-adv-x="1466" 
d="M403 776h326v-119h-326v-522h265q231 0 376.5 161.5t145.5 408t-145.5 408t-376.5 161.5h-265v-498zM236 657h-181v119h181v633h442q302 0 494 -198t192 -506.5t-141.5 -454.5t-268.5 -198t-276 -52h-442v657z" />
    <glyph glyph-name="dcroat" unicode="&#x111;" horiz-adv-x="1161" 
d="M254 512q0 -178 89.5 -288.5t230.5 -110.5q142 0 262 123v552q-119 123 -261 123t-231.5 -110.5t-89.5 -288.5zM547 1049q155 0 289 -115v268h-312v117h312v154h163v-154h150v-117h-150v-1202h-163v92q-129 -117 -289 -117q-203 0 -331 151t-128 386t128 386t331 151z
" />
    <glyph glyph-name="Emacron" unicode="&#x112;" horiz-adv-x="1132" 
d="M205 1409h805v-135h-639v-492h559v-133h-559v-514h655v-135h-821v1409zM287 1765h618v-116h-618v116z" />
    <glyph glyph-name="emacron" unicode="&#x113;" horiz-adv-x="1060" 
d="M821 590q-2 147 -75 238q-74 92 -196 92t-205 -92t-93 -238h569zM615 -25q-136 0 -228 40q-188 82 -262 285q-37 99 -37 218t36 215q75 200 248 277q87 39 186 39t176 -37q155 -75 217 -262q30 -92 30 -203v-35q0 -18 -2 -37h-727q4 -159 104 -265t249 -106q148 0 306 99
v-148q-160 -80 -296 -80zM246 1380h618v-116h-618v116z" />
    <glyph glyph-name="Ebreve" unicode="&#x114;" horiz-adv-x="1132" 
d="M205 1409h805v-135h-639v-492h559v-133h-559v-514h655v-135h-821v1409zM430 1858q0 -78 47 -126t119 -48t119 48t47 126h112q0 -132 -78 -214q-78 -83 -201 -82q-122 1 -199 82t-79 214h113z" />
    <glyph glyph-name="ebreve" unicode="&#x115;" horiz-adv-x="1060" 
d="M821 590q-2 147 -75 238q-74 92 -196 92t-205 -92t-93 -238h569zM615 -25q-136 0 -228 40q-188 82 -262 285q-37 99 -37 218t36 215q75 200 248 277q87 39 186 39t176 -37q155 -75 217 -262q30 -92 30 -203v-35q0 -18 -2 -37h-727q4 -159 104 -265t249 -106q148 0 306 99
v-148q-160 -80 -296 -80zM389 1473q0 -78 47 -126q47 -49 119 -49t119 48t47 127h113q0 -131 -79 -214t-201 -82t-199 82t-79 214h113z" />
    <glyph glyph-name="Edotaccent" unicode="&#x116;" horiz-adv-x="1132" 
d="M205 1409h805v-135h-639v-492h559v-133h-559v-514h655v-135h-821v1409zM496 1706q0 45 27 73q28 27 73 27t73 -28q27 -28 27 -72q0 -45 -28 -73q-28 -27 -72 -27q-45 0 -73 27q-27 28 -27 73z" />
    <glyph glyph-name="edotaccent" unicode="&#x117;" horiz-adv-x="1060" 
d="M821 590q-2 147 -75 238q-74 92 -196 92t-205 -92t-93 -238h569zM615 -25q-136 0 -228 40q-188 82 -262 285q-37 99 -37 218t36 215q75 200 248 277q87 39 186 39t176 -37q155 -75 217 -262q30 -92 30 -203v-35q0 -18 -2 -37h-727q4 -159 104 -265t249 -106q148 0 306 99
v-148q-160 -80 -296 -80zM455 1321q0 45 27 73q28 28 73 28t73 -28t28 -73t-28 -73t-73 -28t-73 28q-27 28 -27 73z" />
    <glyph glyph-name="Eogonek" unicode="&#x118;" horiz-adv-x="1132" 
d="M205 1409h805v-135h-639v-492h559v-133h-559v-514h655v-135q-88 -49 -135 -109.5t-47 -114.5t28.5 -82t73.5 -28t80 23v-111q-53 -27 -128 -27t-130 51.5t-55 133.5q0 147 188 264h-696v1409z" />
    <glyph glyph-name="eogonek" unicode="&#x119;" horiz-adv-x="1060" 
d="M551 920q-123 0 -206 -91.5t-93 -238.5h569q-2 147 -74.5 238.5t-195.5 91.5zM590 -25q-221 0 -361.5 152t-140.5 385t133.5 385t330.5 152t313 -139t116 -363v-27q0 -26 -2 -45h-727q4 -162 105 -266.5t249 -104.5q147 0 305 99v-148q-180 -125 -180 -278
q0 -49 27.5 -80t72.5 -31t80 23v-111q-51 -27 -127 -27t-131 53.5t-55 139.5q0 137 123 246q-87 -15 -131 -15z" />
    <glyph glyph-name="Ecaron" unicode="&#x11a;" horiz-adv-x="1132" 
d="M205 1409h805v-135h-639v-492h559v-133h-559v-514h655v-135h-821v1409zM666 1554h-138l-211 304h136l143 -187l145 187h133z" />
    <glyph glyph-name="ecaron" unicode="&#x11b;" horiz-adv-x="1060" 
d="M821 590q-2 147 -75 238q-74 92 -196 92t-205 -92t-93 -238h569zM615 -25q-136 0 -228 40q-188 82 -262 285q-37 99 -37 218t36 215q75 200 248 277q87 39 186 39t176 -37q155 -75 217 -262q30 -92 30 -203v-35q0 -18 -2 -37h-727q4 -159 104 -265t249 -106q148 0 306 99
v-148q-160 -80 -296 -80zM625 1169h-138l-211 304h136l143 -187l145 187h134z" />
    <glyph glyph-name="Gcircumflex" unicode="&#x11c;" horiz-adv-x="1386" 
d="M1087 596h-337v129h495v-631q-227 -119 -459 -119q-296 0 -488 203t-193 524t190 526q191 204 489 206q207 0 410 -113v-164q-203 137 -391 137q-234 0 -381 -164q-148 -164 -148 -426q0 -261 146 -425t390 -164q128 0 277 67v414zM690 1858h137l209 -304h-133l-145 189
l-144 -189h-135z" />
    <glyph glyph-name="gcircumflex" unicode="&#x11d;" horiz-adv-x="1161" 
d="M836 788q-119 123 -261 123t-232 -111q-89 -111 -89 -287t90 -289t231 -112t261 124v552zM547 1049q155 0 289 -115v90h163v-1040q0 -204 -134 -331q-134 -126 -341 -126q-168 0 -340 78v149q172 -96 319 -96q148 0 240 92q93 92 93 236v106q-129 -117 -289 -117
q-203 0 -331 151t-128 386t128 386t331 151zM512 1473h137l209 -304h-133l-145 189l-144 -189h-135z" />
    <glyph glyph-name="Gbreve" unicode="&#x11e;" horiz-adv-x="1386" 
d="M1087 596h-337v129h495v-631q-227 -119 -459 -119q-296 0 -488 203t-193 524t190 526q191 204 489 206q207 0 410 -113v-164q-203 137 -391 137q-234 0 -381 -164q-148 -164 -148 -426q0 -261 146 -425t390 -164q128 0 277 67v414zM592 1858q0 -78 47 -126t119 -48
t119 48t47 126h112q0 -133 -79 -215t-200 -81q-122 1 -199 82t-79 214h113z" />
    <glyph glyph-name="gbreve" unicode="&#x11f;" horiz-adv-x="1161" 
d="M836 788q-119 123 -261 123t-232 -111q-89 -111 -89 -287t90 -289t231 -112t261 124v552zM547 1049q155 0 289 -115v90h163v-1040q0 -204 -134 -331q-134 -126 -341 -126q-168 0 -340 78v149q172 -96 319 -96q148 0 240 92q93 92 93 236v106q-129 -117 -289 -117
q-203 0 -331 151t-128 386t128 386t331 151zM414 1473q0 -78 47 -126q47 -49 119 -49t118 48t47 127h113q0 -133 -79 -215t-200 -81q-122 1 -199 82t-79 214h113z" />
    <glyph glyph-name="Gdotaccent" unicode="&#x120;" horiz-adv-x="1386" 
d="M1087 596h-337v129h495v-631q-227 -119 -459 -119q-296 0 -488 203t-193 524t190 526q191 204 489 206q207 0 410 -113v-164q-203 137 -391 137q-234 0 -381 -164q-148 -164 -148 -426q0 -261 146 -425t390 -164q128 0 277 67v414zM657 1706q0 45 28 73q28 27 73 27
q44 0 72 -28t28 -72q0 -45 -28 -73q-28 -27 -72 -27t-73 28q-28 28 -28 72z" />
    <glyph glyph-name="gdotaccent" unicode="&#x121;" horiz-adv-x="1161" 
d="M836 788q-119 123 -261 123t-232 -111q-89 -111 -89 -287t90 -289t231 -112t261 124v552zM547 1049q155 0 289 -115v90h163v-1040q0 -204 -134 -331q-134 -126 -341 -126q-168 0 -340 78v149q172 -96 319 -96q148 0 240 92q93 92 93 236v106q-129 -117 -289 -117
q-203 0 -331 151t-128 386t128 386t331 151zM479 1321q0 45 28 73t73 28q44 0 72 -28t28 -73t-28 -73t-72 -28t-73 28q-28 28 -28 73z" />
    <glyph glyph-name="uni0122" unicode="&#x122;" horiz-adv-x="1386" 
d="M1087 596h-337v129h495v-631q-227 -119 -459 -119q-296 0 -488 203t-193 524t190 526q191 204 489 206q207 0 410 -113v-164q-203 137 -391 137q-234 0 -381 -164q-148 -164 -148 -426q0 -261 146 -425t390 -164q128 0 277 67v414zM698 -143h148l-148 -353h-129z" />
    <glyph glyph-name="uni0123" unicode="&#x123;" horiz-adv-x="1161" 
d="M639 1169h-147l147 353h129zM254 512q0 -178 89.5 -288.5t230.5 -110.5q142 0 262 123v552q-119 123 -261 123t-231.5 -110.5t-89.5 -288.5zM547 1049q155 0 289 -115v90h163v-1040q0 -203 -133 -330t-342 -127q-168 0 -340 78v149q172 -96 320 -96q149 0 240.5 91.5
t91.5 236.5v106q-129 -117 -289 -117q-203 0 -331 151t-128 386t128 386t331 151z" />
    <glyph glyph-name="Hcircumflex" unicode="&#x124;" horiz-adv-x="1513" 
d="M205 1409h166v-625h774v625h166v-1409h-166v649h-774v-649h-166v1409zM690 1858h137l209 -304h-133l-145 189l-144 -189h-135z" />
    <glyph glyph-name="hcircumflex" unicode="&#x125;" horiz-adv-x="1161" 
d="M326 0h-162v1473h162v-562q150 137 316 137t266 -100q100 -101 100 -258v-690h-164v668q0 106 -65 174t-169 67q-151 0 -284 -145v-764zM176 1921h137l209 -303h-133l-145 188l-144 -188h-135z" />
    <glyph glyph-name="Hbar" unicode="&#x126;" horiz-adv-x="1513" 
d="M371 782h772v232h-772v-232zM205 1016h-176v119h176v274h166v-274h772v274h168v-274h176v-119h-176v-1016h-168v647h-772v-647h-166v1016z" />
    <glyph glyph-name="hbar" unicode="&#x127;" horiz-adv-x="1161" 
d="M610 909q-153 0 -284 -145v-764h-162v1202h-152v117h152v154h162v-154h313v-117h-313v-291q150 137 315 137t266 -100.5t101 -257.5v-690h-164v668q0 106 -64.5 173.5t-169.5 67.5z" />
    <glyph glyph-name="Itilde" unicode="&#x128;" horiz-adv-x="573" 
d="M205 1409h166v-1409h-166v1409zM-20 1612q0 92 50 151q103 122 268 1q30 -22 56 -40t57 -18t53 26t21 68h109q0 -94 -49 -152t-119 -58t-148 58q-30 22 -57 40t-57 18t-54 -26q-22 -26 -22 -68h-108z" />
    <glyph glyph-name="itilde" unicode="&#x129;" horiz-adv-x="489" 
d="M164 1024h162v-1024h-162v1024zM-63 1227q0 92 50 151q103 122 268 1q31 -22 57 -40t56 -18t52 26q23 26 22 68h109q0 -94 -49 -152q-49 -59 -118 -59t-150 59q-30 22 -56 40t-58 18q-30 0 -52 -26t-23 -68h-108z" />
    <glyph glyph-name="Imacron" unicode="&#x12a;" horiz-adv-x="573" 
d="M205 1409h166v-1409h-166v1409zM-23 1765h619v-116h-619v116z" />
    <glyph glyph-name="imacron" unicode="&#x12b;" horiz-adv-x="489" 
d="M164 1024h162v-1024h-162v1024zM-66 1380h619v-116h-619v116z" />
    <glyph glyph-name="Ibreve" unicode="&#x12c;" horiz-adv-x="573" 
d="M205 1409h166v-1409h-166v1409zM121 1858q0 -78 47 -126t119 -48t119 48t47 126h112q0 -133 -79 -215t-200 -81q-122 1 -199 82t-79 214h113z" />
    <glyph glyph-name="ibreve" unicode="&#x12d;" horiz-adv-x="489" 
d="M164 1024h162v-1024h-162v1024zM78 1473q0 -78 47 -126q47 -49 119 -49t118 48t48 127h112q0 -133 -79 -215t-200 -81q-122 1 -199 82t-79 214h113z" />
    <glyph glyph-name="Iogonek" unicode="&#x12e;" horiz-adv-x="573" 
d="M205 1409h166v-1409h-2q-88 -49 -135.5 -109.5t-47.5 -114.5t29 -82t74 -28t80 23v-111q-53 -27 -128 -27t-130.5 51.5t-55.5 133.5q0 147 189 264h-39v1409z" />
    <glyph glyph-name="iogonek" unicode="&#x12f;" horiz-adv-x="489" 
d="M143 1321q0 45 29 72.5t73 27.5t72.5 -27.5t28.5 -72.5t-28.5 -72.5t-72.5 -27.5t-73 27.5t-29 72.5zM164 1024h162v-1024q-88 -49 -135.5 -109.5t-47.5 -114.5t29 -82t74 -28t80 23v-111q-53 -27 -128 -27t-130.5 51.5t-55.5 133.5q0 147 189 264h-37v1024z" />
    <glyph glyph-name="Idotaccent" unicode="&#x130;" horiz-adv-x="573" 
d="M205 1409h166v-1409h-166v1409zM186 1706q0 45 28 73q28 27 73 27t73 -28t27 -72q0 -45 -28 -73q-29 -27 -73 -27t-72 28t-28 72z" />
    <glyph glyph-name="dotlessi" unicode="&#x131;" horiz-adv-x="489" 
d="M164 1024h162v-1024h-162v1024z" />
    <glyph glyph-name="Jcircumflex" unicode="&#x134;" horiz-adv-x="946" 
d="M750 369q0 -174 -114 -284t-292 -110q-125 0 -270 64v154q132 -76 246 -76q114 -1 189 73t75 191v1028h166v-1040zM598 1858h137l209 -304h-133l-145 189l-144 -189h-135z" />
    <glyph glyph-name="jcircumflex" unicode="&#x135;" horiz-adv-x="489" 
d="M176 1473h137l209 -304h-133l-145 189l-144 -189h-135zM-12 -338q76 0 126 50t50 130v1182h162v-1198q0 -130 -86.5 -214.5t-223.5 -84.5q-90 0 -200 47v141q96 -53 172 -53z" />
    <glyph glyph-name="uni0136" unicode="&#x136;" horiz-adv-x="1253" 
d="M205 1409h164v-639l630 639h207l-676 -692l697 -717h-215l-643 664v-664h-164v1409zM575 -143h148l-148 -353h-129z" />
    <glyph glyph-name="uni0137" unicode="&#x137;" horiz-adv-x="987" 
d="M164 1473h160v-891l415 442h199l-471 -504l487 -520h-204l-426 459v-459h-160v1473zM446 -143h148l-148 -353h-129z" />
    <glyph glyph-name="kgreenlandic" unicode="&#x138;" horiz-adv-x="987" 
d="M164 1024h160v-442l415 442h199l-471 -504l487 -520h-204l-426 459v-459h-160v1024z" />
    <glyph glyph-name="Lacute" unicode="&#x139;" horiz-adv-x="1026" 
d="M205 1409h166v-1274h610v-135h-776v1409zM391 1858h170l-239 -304h-140z" />
    <glyph glyph-name="lacute" unicode="&#x13a;" horiz-adv-x="489" 
d="M164 1473h162v-1473h-162v1473zM348 1921h170l-239 -303h-140z" />
    <glyph glyph-name="uni013B" unicode="&#x13b;" horiz-adv-x="1026" 
d="M205 1409h166v-1274h610v-135h-776v1409zM502 -143h147l-147 -353h-129z" />
    <glyph glyph-name="uni013C" unicode="&#x13c;" horiz-adv-x="489" 
d="M164 1473h162v-1473h-162v1473zM184 -143h148l-148 -353h-129z" />
    <glyph glyph-name="Lcaron" unicode="&#x13d;" horiz-adv-x="1026" 
d="M639 1473h145l-129 -304h-127zM205 1409h166v-1274h610v-135h-776v1409z" />
    <glyph glyph-name="lcaron" unicode="&#x13e;" horiz-adv-x="489" 
d="M563 1473h146l-129 -304h-127zM164 1473h162v-1473h-162v1473z" />
    <glyph glyph-name="Ldot" unicode="&#x13f;" horiz-adv-x="1026" 
d="M698 727q0 45 28 72.5t73 27.5t72.5 -27.5t27.5 -72.5t-27.5 -72.5t-72.5 -27.5t-73 27.5t-28 72.5zM205 1409h166v-1274h610v-135h-776v1409z" />
    <glyph glyph-name="ldot" unicode="&#x140;" horiz-adv-x="708" 
d="M498 717q0 45 27.5 72.5t72.5 27.5t72.5 -27.5t27.5 -72.5t-27.5 -73t-72.5 -28t-72.5 28t-27.5 73zM164 1473h162v-1473h-162v1473z" />
    <glyph glyph-name="Lslash" unicode="&#x141;" horiz-adv-x="1056" 
d="M236 1409h167v-637l299 152v-133l-299 -152v-504h611v-135h-778v557l-162 -82v133l162 80v721z" />
    <glyph glyph-name="lslash" unicode="&#x142;" horiz-adv-x="602" 
d="M219 1473h162v-621l192 94v-131l-192 -96v-719h-162v637l-190 -94v131l190 96v703z" />
    <glyph glyph-name="Nacute" unicode="&#x143;" horiz-adv-x="1513" 
d="M205 1409h147l799 -1137v1137h160v-1409h-148l-798 1137v-1137h-160v1409zM862 1858h170l-239 -304h-140z" />
    <glyph glyph-name="nacute" unicode="&#x144;" horiz-adv-x="1161" 
d="M326 0h-162v1024h162v-113q150 137 316 137t266 -100q100 -101 100 -258v-690h-164v668q0 106 -65 174t-169 67q-151 0 -284 -145v-764zM688 1473h170l-240 -304h-139z" />
    <glyph glyph-name="uni0145" unicode="&#x145;" horiz-adv-x="1513" 
d="M205 1409h147l799 -1137v1137h160v-1409h-148l-798 1137v-1137h-160v1409zM698 -143h148l-148 -353h-129z" />
    <glyph glyph-name="uni0146" unicode="&#x146;" horiz-adv-x="1161" 
d="M326 0h-162v1024h162v-113q150 137 316 137t266 -100q100 -101 100 -258v-690h-164v668q0 106 -65 174t-169 67q-151 0 -284 -145v-764zM524 -143h148l-148 -353h-129z" />
    <glyph glyph-name="Ncaron" unicode="&#x147;" horiz-adv-x="1513" 
d="M205 1409h147l799 -1137v1137h160v-1409h-148l-798 1137v-1137h-160v1409zM827 1554h-137l-211 304h135l144 -187l145 187h133z" />
    <glyph glyph-name="ncaron" unicode="&#x148;" horiz-adv-x="1161" 
d="M326 0h-162v1024h162v-113q150 137 316 137t266 -100q100 -101 100 -258v-690h-164v668q0 106 -65 174t-169 67q-151 0 -284 -145v-764zM653 1169h-137l-211 304h135l144 -187l145 187h133z" />
    <glyph glyph-name="Eng" unicode="&#x14a;" horiz-adv-x="1513" 
d="M883 -332q117 0 190.5 74t73.5 192v91l-782 1112v-1137h-160v1409h147l799 -1137v1137h160v-1487q0 -175 -113.5 -285t-292.5 -110q-129 0 -268 63v154q129 -76 246 -76z" />
    <glyph glyph-name="eng" unicode="&#x14b;" horiz-adv-x="1161" 
d="M610 909q-153 0 -284 -145v-764h-162v1024h162v-113q150 137 315 137t266 -100.5t101 -257.5v-864q0 -131 -88 -215t-224 -84q-92 0 -198 47v141q95 -53 172 -53q76 0 125 50t49 130v826q0 106 -64.5 173.5t-169.5 67.5z" />
    <glyph glyph-name="Omacron" unicode="&#x14c;" horiz-adv-x="1513" 
d="M1106 281q133 165 133 425t-133 423t-348 163q-216 0 -349 -165t-133 -425t133 -422q133 -163 348 -163q214 0 349 164zM1228 1230q183 -204 183 -524t-182 -525q-182 -204 -472 -205q-289 -1 -471 204t-182 523t181 524q181 205 471 206q289 1 472 -203zM446 1765h619
v-116h-619v116z" />
    <glyph glyph-name="omacron" unicode="&#x14d;" horiz-adv-x="1161" 
d="M254 513q0 -174 92 -290q92 -114 235 -113t236 115q92 114 91 288t-93 288t-234 113t-235 -113q-92 -114 -92 -288zM88 511q0 237 139 388q139 150 353 150q215 0 355 -150t140 -386q0 -235 -139 -387q-140 -151 -356 -151q-215 0 -353 149q-139 150 -139 387zM270 1380
h619v-116h-619v116z" />
    <glyph glyph-name="Obreve" unicode="&#x14e;" horiz-adv-x="1513" 
d="M1106 281q133 165 133 425t-133 423t-348 163q-216 0 -349 -165t-133 -425t133 -422q133 -163 348 -163q214 0 349 164zM1228 1230q183 -204 183 -524t-182 -525q-182 -204 -472 -205q-289 -1 -471 204t-182 523t181 524q181 205 471 206q289 1 472 -203zM592 1858
q0 -78 47 -126t119 -48t119 48t47 126h112q0 -133 -79 -215t-200 -81q-122 1 -199 82t-79 214h113z" />
    <glyph glyph-name="obreve" unicode="&#x14f;" horiz-adv-x="1161" 
d="M254 513q0 -174 92 -290q92 -114 235 -113t236 115q92 114 91 288t-93 288t-234 113t-235 -113q-92 -114 -92 -288zM88 511q0 237 139 388q139 150 353 150q215 0 355 -150t140 -386q0 -235 -139 -387q-140 -151 -356 -151q-215 0 -353 149q-139 150 -139 387zM414 1473
q0 -78 47 -126q47 -49 119 -49t118 48t47 127h113q0 -133 -79 -215t-200 -81q-122 1 -199 82t-79 214h113z" />
    <glyph glyph-name="Ohungarumlaut" unicode="&#x150;" horiz-adv-x="1513" 
d="M1106 281q133 165 133 425t-133 423t-348 163q-216 0 -349 -165t-133 -425t133 -422q133 -163 348 -163q214 0 349 164zM1228 1230q183 -204 183 -524t-182 -525q-182 -204 -472 -205q-289 -1 -471 204t-182 523t181 524q181 205 471 206q289 1 472 -203zM684 1858h170
l-238 -304h-139zM1038 1858h170l-237 -304h-142z" />
    <glyph glyph-name="ohungarumlaut" unicode="&#x151;" horiz-adv-x="1161" 
d="M254 513q0 -174 92 -290q92 -114 235 -113t236 115q92 114 91 288t-93 288t-234 113t-235 -113q-92 -114 -92 -288zM88 511q0 237 139 388q139 150 353 150q215 0 355 -150t140 -386q0 -235 -139 -387q-140 -151 -356 -151q-215 0 -353 149q-139 150 -139 387zM506 1473
h170l-238 -304h-139zM860 1473h170l-237 -304h-142z" />
    <glyph glyph-name="OE" unicode="&#x152;" horiz-adv-x="1953" 
d="M1024 1274h-225q-230 0 -376.5 -159.5t-146.5 -410t146.5 -410t376.5 -159.5h225v1139zM1831 1274h-641v-492h559v-133h-559v-514h655v-135h-1057q-300 0 -492 197.5t-192 507t192 507t492 197.5h1043v-135z" />
    <glyph glyph-name="oe" unicode="&#x153;" horiz-adv-x="1880" 
d="M1638 590q0 143 -75 236.5t-196 93.5t-204.5 -91.5t-95.5 -238.5h571zM254 512q0 -88 24.5 -162t67.5 -127t103.5 -82.5t132 -29.5t131 29.5t102.5 82.5t67.5 127t24.5 162t-24.5 162t-67.5 127t-102.5 82.5t-131 29.5t-132 -29.5t-103.5 -82.5t-67.5 -127t-24.5 -162z
M1420 -25q-152 0 -259.5 64.5t-169.5 175.5q-61 -111 -167.5 -175.5t-228.5 -64.5t-213 40t-156.5 111t-101.5 169t-36 276t138.5 328t355.5 150q135 0 240.5 -62.5t164.5 -173.5q59 111 161 173.5t214 62.5q206 0 322 -139t116 -363l-2 -72h-731q8 -164 108 -267.5
t249 -103.5t307 99v-148q-159 -80 -311 -80z" />
    <glyph glyph-name="Racute" unicode="&#x154;" horiz-adv-x="1241" 
d="M205 1409h428q204 0 337 -118q132 -119 132 -308q0 -154 -86 -260t-236 -148l359 -575h-185l-344 557h-241v-557h-164v1409zM369 690h239q140 0 233 82q89 83 89 210t-89 211q-89 83 -233 83h-239v-586zM725 1858h170l-240 -304h-139z" />
    <glyph glyph-name="racute" unicode="&#x155;" horiz-adv-x="770" 
d="M608 1049q51 0 101 -15v-147q-55 16 -118 16t-135 -41t-130 -119v-743h-162v1024h162v-123q121 148 282 148zM528 1473h170l-239 -304h-140z" />
    <glyph glyph-name="uni0156" unicode="&#x156;" horiz-adv-x="1241" 
d="M205 1409h428q204 0 337 -118q132 -119 132 -308q0 -154 -86 -260t-236 -148l359 -575h-185l-344 557h-241v-557h-164v1409zM369 690h239q140 0 233 82q89 83 89 210t-89 211q-89 83 -233 83h-239v-586zM561 -143h148l-148 -353h-129z" />
    <glyph glyph-name="uni0157" unicode="&#x157;" horiz-adv-x="770" 
d="M608 1049q51 0 101 -15v-147q-55 16 -118 16t-135 -41t-130 -119v-743h-162v1024h162v-123q121 148 282 148zM184 -143h148l-148 -353h-129z" />
    <glyph glyph-name="Rcaron" unicode="&#x158;" horiz-adv-x="1241" 
d="M205 1409h428q204 0 337 -118q132 -119 132 -308q0 -154 -86 -260t-236 -148l359 -575h-185l-344 557h-241v-557h-164v1409zM369 690h239q140 0 233 82q89 83 89 210t-89 211q-89 83 -233 83h-239v-586zM690 1554h-137l-211 304h135l144 -187l145 187h133z" />
    <glyph glyph-name="rcaron" unicode="&#x159;" horiz-adv-x="770" 
d="M608 1049q51 0 101 -15v-147q-55 16 -118 16t-135 -41t-130 -119v-743h-162v1024h162v-123q121 148 282 148zM494 1169h-138l-211 304h136l143 -187l145 187h133z" />
    <glyph glyph-name="Sacute" unicode="&#x15a;" horiz-adv-x="1114" 
d="M844 359q0 102 -54 153t-136 86t-176 64q-95 28 -176 74q-189 106 -189 294q0 282 278 375q86 29 191 29q178 0 362 -82v-166q-176 110 -332 110t-246 -68q-89 -68 -88 -166q1 -100 55 -150t135 -84t176 -64t176 -75q81 -46 135 -119q55 -73 55 -178t-35 -179
q-70 -147 -250 -208q-88 -30 -193 -30q-195 0 -395 99v170q203 -133 383 -131q141 0 232 72q92 72 92 174zM662 1858h169l-239 -304h-139z" />
    <glyph glyph-name="sacute" unicode="&#x15b;" horiz-adv-x="864" 
d="M616 266q0 67 -38 102q-59 52 -217 102q-265 84 -265 272q0 139 100 223t247 84t284 -60v-151q-129 80 -241 80t-170 -44t-58 -109q0 -64 49 -105t207 -92q264 -83 264 -278q0 -145 -102 -230q-104 -85 -258 -85q-153 0 -303 72v156q143 -96 286 -97q91 0 153 46t62 114z
M537 1473h170l-240 -304h-139z" />
    <glyph glyph-name="Scircumflex" unicode="&#x15c;" horiz-adv-x="1114" 
d="M844 359q0 102 -54 153t-136 86t-176 64q-95 28 -176 74q-189 106 -189 294q0 282 278 375q86 29 191 29q178 0 362 -82v-166q-176 110 -332 110t-246 -68q-89 -68 -88 -166q1 -100 55 -150t135 -84t176 -64t176 -75q81 -46 135 -119q55 -73 55 -178t-35 -179
q-70 -147 -250 -208q-88 -30 -193 -30q-195 0 -395 99v170q203 -133 383 -131q141 0 232 72q92 72 92 174zM489 1858h138l209 -304h-134l-145 189l-143 -189h-135z" />
    <glyph glyph-name="scircumflex" unicode="&#x15d;" horiz-adv-x="864" 
d="M616 266q0 67 -38 102q-59 52 -217 102q-265 84 -265 272q0 139 100 223t247 84t284 -60v-151q-129 80 -241 80t-170 -44t-58 -109q0 -64 49 -105t207 -92q264 -83 264 -278q0 -145 -102 -230q-104 -85 -258 -85q-153 0 -303 72v156q143 -96 286 -97q91 0 153 46t62 114z
M365 1473h137l209 -304h-133l-146 189l-143 -189h-135z" />
    <glyph glyph-name="Scedilla" unicode="&#x15e;" horiz-adv-x="1114" 
d="M844 358q0 103 -54.5 154t-135.5 86t-176 63.5t-176 74.5t-135 118t-54 176q0 193 132.5 298.5t323.5 105.5t375 -82v-166q-176 110 -332 110t-244.5 -67t-88.5 -167q0 -99 54 -149.5t135 -84t176 -63.5t176 -76t135.5 -118.5t54.5 -172.5q0 -176 -104.5 -284
t-278.5 -132l-23 -99q68 -12 108 -59t40 -120t-67 -125t-160 -52t-163 39v112q72 -45 132 -45t92 25.5t32 65.5t-34.5 66t-100.5 26h-14l39 159q-194 8 -371 99v170q200 -131 383 -131q141 0 232.5 71t91.5 174z" />
    <glyph glyph-name="scedilla" unicode="&#x15f;" horiz-adv-x="864" 
d="M616 266q0 67 -38.5 101t-96 58t-125 45.5t-164 77.5t-96.5 196q0 139 100 222t247 83t284 -60v-151q-129 80 -241 80t-170 -44.5t-58 -108.5t39 -97t96.5 -55.5t221 -74.5t163.5 -259q0 -115 -74.5 -193t-199.5 -100l-23 -103q70 -12 109 -59t39 -120t-65.5 -125
t-159.5 -52t-164 39v112q74 -45 132 -45t91 25.5t33 65.5t-35 66t-101 26h-14l41 159q-151 9 -272 72v156q143 -96 286 -97q92 0 153.5 46.5t61.5 113.5z" />
    <glyph glyph-name="Scaron" unicode="&#x160;" horiz-adv-x="1114" 
d="M844 359q0 102 -54 153t-136 86t-176 64q-95 28 -176 74q-189 106 -189 294q0 282 278 375q86 29 191 29q178 0 362 -82v-166q-176 110 -332 110t-246 -68q-89 -68 -88 -166q1 -100 55 -150t135 -84t176 -64t176 -75q81 -46 135 -119q55 -73 55 -178t-35 -179
q-70 -147 -250 -208q-88 -30 -193 -30q-195 0 -395 99v170q203 -133 383 -131q141 0 232 72q92 72 92 174zM627 1554h-138l-210 304h135l143 -187l145 187h134z" />
    <glyph glyph-name="scaron" unicode="&#x161;" horiz-adv-x="864" 
d="M616 266q0 67 -38 102q-59 52 -217 102q-265 84 -265 272q0 139 100 223t247 84t284 -60v-151q-129 80 -241 80t-170 -44t-58 -109q0 -64 49 -105t207 -92q264 -83 264 -278q0 -145 -102 -230q-104 -85 -258 -85q-153 0 -303 72v156q143 -96 286 -97q91 0 153 46t62 114z
M502 1169h-137l-211 304h135l143 -187l146 187h133z" />
    <glyph glyph-name="uni0162" unicode="&#x162;" horiz-adv-x="1202" 
d="M518 1274h-459v135h1082v-135h-457v-1274h-166v1274zM541 -143h147l-147 -353h-129z" />
    <glyph glyph-name="uni0163" unicode="&#x163;" horiz-adv-x="829" 
d="M401 291q-1 -80 49 -130t124 -50t176 53v-141q-266 -113 -424 37q-88 86 -86 214v621h-197v129h197v289h161v-289h349v-129h-349v-604zM418 -143h147l-147 -353h-129z" />
    <glyph glyph-name="Tcaron" unicode="&#x164;" horiz-adv-x="1202" 
d="M518 1274h-459v135h1082v-135h-457v-1274h-166v1274zM670 1554h-138l-210 304h135l143 -187l145 187h134z" />
    <glyph glyph-name="tcaron" unicode="&#x165;" horiz-adv-x="829" 
d="M651 1473h146l-129 -304h-127zM574 111q74 0 176 53v-141q-188 -80 -315 -30t-161 133t-34 148v621h-197v129h197v289h161v-289h349v-129h-349v-604q0 -80 49.5 -130t123.5 -50z" />
    <glyph glyph-name="Tbar" unicode="&#x166;" horiz-adv-x="1202" 
d="M518 627h-287v116h287v531h-459v135h1082v-135h-457v-531h285v-116h-285v-627h-166v627z" />
    <glyph glyph-name="tbar" unicode="&#x167;" horiz-adv-x="829" 
d="M574 111q74 0 176 53v-141q-188 -80 -315 -30t-161 133t-34 148v189h-181v117h181v315h-197v129h197v289h161v-289h349v-129h-349v-315h316v-117h-316v-172q0 -80 49.5 -130t123.5 -50z" />
    <glyph glyph-name="Utilde" unicode="&#x168;" horiz-adv-x="1513" 
d="M1319 518q0 -234 -157 -389q-157 -154 -404 -154q-248 0 -404 152q-157 152 -157 391v891h165v-879q0 -176 112 -296q112 -119 284 -118q173 1 284 118t111 296v879h166v-891zM451 1612q0 92 50 151t120 59t148 -58q31 -22 57 -40t56 -18t52 26t22 68h109q0 -94 -49 -152
t-119 -58t-148 58q-30 22 -57 40q-28 18 -58 18t-52 -26t-23 -68h-108z" />
    <glyph glyph-name="utilde" unicode="&#x169;" horiz-adv-x="1161" 
d="M836 1024h163v-1024h-163v115q-150 -139 -314 -139t-266 100q-102 102 -100 258v690h161v-668q0 -106 66 -174t170 -67q148 0 283 145v764zM270 1227q0 92 50 151q104 122 269 1q31 -22 57 -40t56 -18t52 26q23 26 22 68h109q0 -94 -49 -152q-49 -59 -118 -59t-150 59
q-30 22 -56 40t-58 18q-30 0 -53 -26t-22 -68h-109z" />
    <glyph glyph-name="Umacron" unicode="&#x16a;" horiz-adv-x="1513" 
d="M1319 518q0 -234 -157 -389q-157 -154 -404 -154q-248 0 -404 152q-157 152 -157 391v891h165v-879q0 -176 112 -296q112 -119 284 -118q173 1 284 118t111 296v879h166v-891zM449 1765h618v-116h-618v116z" />
    <glyph glyph-name="umacron" unicode="&#x16b;" horiz-adv-x="1161" 
d="M836 1024h163v-1024h-163v115q-150 -139 -314 -139t-266 100q-102 102 -100 258v690h161v-668q0 -106 66 -174t170 -67q148 0 283 145v764zM268 1380h619v-116h-619v116z" />
    <glyph glyph-name="Ubreve" unicode="&#x16c;" horiz-adv-x="1513" 
d="M1319 518q0 -234 -157 -389q-157 -154 -404 -154q-248 0 -404 152q-157 152 -157 391v891h165v-879q0 -176 112 -296q112 -119 284 -118q173 1 284 118t111 296v879h166v-891zM592 1858q0 -78 47 -126t119 -48t119 48t47 126h112q0 -133 -79 -215t-200 -81
q-122 1 -199 82t-79 214h113z" />
    <glyph glyph-name="ubreve" unicode="&#x16d;" horiz-adv-x="1161" 
d="M836 1024h163v-1024h-163v115q-150 -139 -314 -139t-266 100q-102 102 -100 258v690h161v-668q0 -106 66 -174t170 -67q148 0 283 145v764zM412 1473q0 -78 47 -126q47 -49 119 -49t118 48t47 127h113q0 -133 -79 -215t-200 -81q-122 1 -200 83t-78 213h113z" />
    <glyph glyph-name="Uring" unicode="&#x16e;" horiz-adv-x="1513" 
d="M1319 518q0 -234 -157 -389q-157 -154 -404 -154q-248 0 -404 152q-157 152 -157 391v891h165v-879q0 -176 112 -296q112 -119 284 -118q173 1 284 118t111 296v879h166v-891zM649 1706q0 -47 31 -78t78 -31t78 31t30 78q0 47 -30 78q-31 31 -78 31t-78 -31t-31 -78z
M561 1705q0 87 55 142q54 55 142 55t142 -54q54 -56 54 -143t-54 -141t-141 -54t-143 54t-55 141z" />
    <glyph glyph-name="uring" unicode="&#x16f;" horiz-adv-x="1161" 
d="M836 1024h163v-1024h-163v115q-150 -139 -314 -139t-266 100q-102 102 -100 258v690h161v-668q0 -106 66 -174t170 -67q148 0 283 145v764zM469 1321q0 -47 31 -78t78 -31q48 0 78 31t30 78t-31 78t-77 31t-78 -31q-31 -31 -31 -78zM381 1320q0 87 55 142q54 56 142 56
t142 -56t54 -142q0 -87 -54 -141q-54 -55 -141 -55t-143 54t-55 142z" />
    <glyph glyph-name="Uhungarumlaut" unicode="&#x170;" horiz-adv-x="1513" 
d="M1319 518q0 -234 -157 -389q-157 -154 -404 -154q-248 0 -404 152q-157 152 -157 391v891h165v-879q0 -176 112 -296q112 -119 284 -118q173 1 284 118t111 296v879h166v-891zM684 1858h170l-238 -304h-139zM1038 1858h170l-237 -304h-142z" />
    <glyph glyph-name="uhungarumlaut" unicode="&#x171;" horiz-adv-x="1161" 
d="M836 1024h163v-1024h-163v115q-150 -139 -314 -139t-266 100q-102 102 -100 258v690h161v-668q0 -106 66 -174t170 -67q148 0 283 145v764zM504 1473h170l-238 -304h-139zM858 1473h170l-237 -304h-142z" />
    <glyph glyph-name="Uogonek" unicode="&#x172;" horiz-adv-x="1513" 
d="M758 -25q-248 0 -404.5 153t-156.5 390v891h165v-879q0 -177 110.5 -295t284.5 -118t285 117t111 296v879h166v-891q0 -166 -76 -283.5t-199 -192.5q-231 -141 -231 -273q0 -47 26.5 -75t72.5 -28t81 23v-111q-53 -27 -127 -27t-130 51.5t-56 123.5t35 134t121 122
q-63 -7 -78 -7z" />
    <glyph glyph-name="uogonek" unicode="&#x173;" horiz-adv-x="1161" 
d="M553 115q150 0 283 145v764h163v-1024h-2q-88 -49 -135 -109.5t-47 -114.5t28.5 -82t73.5 -28t80 23v-111q-53 -27 -127 -27t-130 51.5t-56 133.5q0 147 188 264h-36v115q-150 -139 -314 -139t-265 100t-101 258v690h161v-668q0 -106 66 -173.5t170 -67.5z" />
    <glyph glyph-name="Wcircumflex" unicode="&#x174;" horiz-adv-x="2107" 
d="M1587 0h-145l-389 1190l-385 -1190h-148l-481 1409h168l387 -1190l387 1190h145l387 -1190l388 1190h167zM985 1858h137l209 -304h-133l-145 189l-144 -189h-135z" />
    <glyph glyph-name="wcircumflex" unicode="&#x175;" horiz-adv-x="1593" 
d="M1202 0h-145l-260 815l-260 -815h-146l-348 1024h162l260 -815l260 815h145l258 -815l261 815h161zM729 1473h137l209 -304h-133l-145 189l-144 -189h-135z" />
    <glyph glyph-name="Ycircumflex" unicode="&#x176;" horiz-adv-x="1218" 
d="M694 0h-168v612l-506 797h191l397 -645l400 645h192l-506 -797v-612zM541 1858h137l209 -304h-133l-146 189l-143 -189h-135z" />
    <glyph glyph-name="ycircumflex" unicode="&#x177;" horiz-adv-x="1017" 
d="M399 -449h-159l192 476l-397 997h168l305 -801l309 801h166zM440 1473h138l208 -304h-133l-145 189l-143 -189h-136z" />
    <glyph glyph-name="Ydieresis" unicode="&#x178;" horiz-adv-x="1218" 
d="M694 0h-168v612l-506 797h191l397 -645l400 645h192l-506 -797v-612zM303 1707q0 44 28 71q27 26 71 26t72 -26t28 -71q0 -44 -28 -73q-28 -28 -72 -28t-72 28t-27 73zM717 1707q0 44 26 71q27 26 71 26t73 -26t29 -71q0 -44 -30 -73q-28 -28 -72 -28t-71 28
q-26 29 -26 73z" />
    <glyph glyph-name="Zacute" unicode="&#x179;" horiz-adv-x="1265" 
d="M129 1274v135h1014v-106l-846 -1168h860v-135h-1069v106l848 1168h-807zM737 1858h170l-239 -304h-140z" />
    <glyph glyph-name="zacute" unicode="&#x17a;" horiz-adv-x="976" 
d="M115 895v129h751v-96l-577 -797h588v-131h-793v98l580 797h-549zM592 1473h170l-240 -304h-139z" />
    <glyph glyph-name="Zdotaccent" unicode="&#x17b;" horiz-adv-x="1265" 
d="M129 1274v135h1014v-106l-846 -1168h860v-135h-1069v106l848 1168h-807zM532 1706q0 45 28 73q28 27 73 27t73 -28t28 -72q0 -45 -28 -73q-28 -27 -73 -27t-73 28t-28 72z" />
    <glyph glyph-name="zdotaccent" unicode="&#x17c;" horiz-adv-x="976" 
d="M115 895v129h751v-96l-577 -797h588v-131h-793v98l580 797h-549zM387 1321q0 45 28 73q29 28 73 28t72 -28t28 -73t-28 -73t-73 -28t-73 28t-27 73z" />
    <glyph glyph-name="Zcaron" unicode="&#x17d;" horiz-adv-x="1265" 
d="M129 1274v135h1014v-106l-846 -1168h860v-135h-1069v106l848 1168h-807zM702 1554h-137l-211 304h135l144 -187l145 187h133z" />
    <glyph glyph-name="zcaron" unicode="&#x17e;" horiz-adv-x="976" 
d="M115 895v129h751v-96l-577 -797h588v-131h-793v98l580 797h-549zM557 1169h-137l-211 304h135l143 -187l146 187h133z" />
    <glyph glyph-name="florin" unicode="&#x192;" 
d="M307 -139q76 0 123 47t47 123v733h-221v129h221v248q0 129 86 211t221 82q88 0 168 -33v-150q-62 41 -138 41q-75 0 -123 -47t-48 -123v-229h279v-129h-279v-752q0 -129 -86 -211t-221 -82q-80 0 -168 33v150q63 -41 139 -41z" />
    <glyph glyph-name="uni0218" unicode="&#x218;" horiz-adv-x="1114" 
d="M844 359q0 102 -54 153t-136 86t-176 64q-95 28 -176 74q-189 106 -189 294q0 282 278 375q86 29 191 29q178 0 362 -82v-166q-176 110 -332 110t-246 -68q-89 -68 -88 -166q1 -100 55 -150t135 -84t176 -64t176 -75q81 -46 135 -119q55 -73 55 -178t-35 -179
q-70 -147 -250 -208q-88 -30 -193 -30q-195 0 -395 99v170q203 -133 383 -131q141 0 232 72q92 72 92 174zM498 -143h147l-147 -353h-129z" />
    <glyph glyph-name="uni0219" unicode="&#x219;" horiz-adv-x="864" 
d="M616 266q0 67 -38 102q-59 52 -217 102q-265 84 -265 272q0 139 100 223t247 84t284 -60v-151q-129 80 -241 80t-170 -44t-58 -109q0 -64 49 -105t207 -92q264 -83 264 -278q0 -145 -102 -230q-104 -85 -258 -85q-153 0 -303 72v156q143 -96 286 -97q91 0 153 46t62 114z
M373 -143h147l-147 -353h-129z" />
    <glyph glyph-name="uni021A" unicode="&#x21a;" horiz-adv-x="1202" 
d="M518 1274h-459v135h1082v-135h-457v-1274h-166v1274zM541 -143h147l-147 -353h-129z" />
    <glyph glyph-name="uni021B" unicode="&#x21b;" horiz-adv-x="829" 
d="M401 291q-1 -80 49 -130t124 -50t176 53v-141q-266 -113 -424 37q-88 86 -86 214v621h-197v129h197v289h161v-289h349v-129h-349v-604zM418 -143h147l-147 -353h-129z" />
    <glyph glyph-name="uni0237" unicode="&#x237;" horiz-adv-x="489" 
d="M-12 -338q76 0 126 50t50 130v1182h162v-1198q0 -130 -86.5 -214.5t-223.5 -84.5q-90 0 -200 47v141q96 -53 172 -53z" />
    <glyph glyph-name="circumflex" unicode="&#x2c6;" horiz-adv-x="512" 
d="M188 1473h138l209 -304h-134l-145 189l-143 -189h-136z" />
    <glyph glyph-name="caron" unicode="&#x2c7;" horiz-adv-x="512" 
d="M326 1169h-138l-211 304h136l143 -187l145 187h134z" />
    <glyph glyph-name="uni02C9" unicode="&#x2c9;" horiz-adv-x="512" 
d="M-53 1380h618v-116h-618v116z" />
    <glyph glyph-name="breve" unicode="&#x2d8;" horiz-adv-x="512" 
d="M90 1473q0 -78 47 -126.5t119 -48.5t119 48.5t47 126.5h113q0 -132 -78 -213.5t-201 -81.5t-201 81.5t-78 213.5h113z" />
    <glyph glyph-name="dotaccent" unicode="&#x2d9;" horiz-adv-x="512" 
d="M156 1321q0 45 27.5 72.5t72.5 27.5t72.5 -27.5t27.5 -72.5t-27.5 -72.5t-72.5 -27.5t-72.5 27.5t-27.5 72.5z" />
    <glyph glyph-name="ring" unicode="&#x2da;" horiz-adv-x="512" 
d="M147 1321q0 -47 31 -78t78 -31t78 31t31 78t-31 78t-78 31t-78 -31t-31 -78zM59 1320q0 87 55.5 142.5t142.5 55.5t141.5 -55.5t54.5 -142.5t-54.5 -141.5t-141.5 -54.5t-142.5 54.5t-55.5 141.5z" />
    <glyph glyph-name="ogonek" unicode="&#x2db;" horiz-adv-x="512" 
d="M154 -224q0 -54 28.5 -82t73.5 -28t80 23v-111q-53 -27 -128 -27t-130 51.5t-55 133.5q0 147 188 264h125q-88 -49 -135 -109.5t-47 -114.5z" />
    <glyph glyph-name="tilde" unicode="&#x2dc;" horiz-adv-x="512" 
d="M-51 1227q0 92 50 151.5t119 59.5t124 -40t81.5 -58.5t56.5 -18.5t52.5 25.5t22.5 68.5h108q0 -94 -49 -152.5t-118 -58.5t-124 40t-81.5 58.5t-57.5 18.5t-53.5 -25.5t-22.5 -68.5h-108z" />
    <glyph glyph-name="hungarumlaut" unicode="&#x2dd;" horiz-adv-x="512" 
d="M182 1473h170l-237 -304h-140zM537 1473h170l-238 -304h-141z" />
    <glyph glyph-name="uni0394" unicode="&#x394;" horiz-adv-x="1314" 
d="M252 133h813l-408 1036zM1249 0h-1186v92l525 1317h137l524 -1317v-92z" />
    <glyph glyph-name="uni03A9" unicode="&#x3a9;" horiz-adv-x="1579" 
d="M88 133h383q-162 135 -249 302t-87 331t48 282.5t135.5 204.5t207 133.5t336 47.5t399.5 -181t183 -465q0 -186 -87 -353t-251 -302h385v-133h-584v109q176 141 269.5 309t93.5 346q0 232 -135 380t-346.5 148t-346.5 -148t-135 -380q0 -178 93.5 -346t271.5 -309v-109
h-584v133z" />
    <glyph glyph-name="uni03BC" unicode="&#x3bc;" horiz-adv-x="1169" 
d="M561 115q150 0 283 145v764h164v-1024h-164v115q-141 -135 -303 -135q-125 0 -215 83v-512h-162v1473h162v-668q0 -106 65.5 -173.5t169.5 -67.5z" />
    <glyph glyph-name="pi" unicode="&#x3c0;" horiz-adv-x="1210" 
d="M225 895h-196v129h1153v-129h-197v-895h-162v895h-436v-895h-162v895z" />
    <glyph glyph-name="Wgrave" unicode="&#x1e80;" horiz-adv-x="2107" 
d="M1587 0h-145l-389 1190l-385 -1190h-148l-481 1409h168l387 -1190l387 1190h145l387 -1190l388 1190h167zM778 1858h170l209 -304h-139z" />
    <glyph glyph-name="wgrave" unicode="&#x1e81;" horiz-adv-x="1593" 
d="M1202 0h-145l-260 815l-260 -815h-146l-348 1024h162l260 -815l260 815h145l258 -815l261 815h161zM522 1473h170l209 -304h-139z" />
    <glyph glyph-name="Wacute" unicode="&#x1e82;" horiz-adv-x="2107" 
d="M1587 0h-145l-389 1190l-385 -1190h-148l-481 1409h168l387 -1190l387 1190h145l387 -1190l388 1190h167zM1157 1858h170l-240 -304h-139z" />
    <glyph glyph-name="wacute" unicode="&#x1e83;" horiz-adv-x="1593" 
d="M1202 0h-145l-260 815l-260 -815h-146l-348 1024h162l260 -815l260 815h145l258 -815l261 815h161zM901 1473h170l-240 -304h-139z" />
    <glyph glyph-name="Wdieresis" unicode="&#x1e84;" horiz-adv-x="2107" 
d="M1587 0h-145l-389 1190l-385 -1190h-148l-481 1409h168l387 -1190l387 1190h145l387 -1190l388 1190h167zM748 1707q0 44 27 71q28 26 72 26t72 -26q27 -26 27 -71q0 -44 -28 -73q-28 -28 -71 -28q-44 0 -72 28q-27 29 -27 73zM1161 1707q0 44 27 71q27 26 71 26
q45 0 73 -26t28 -71q0 -44 -29 -73q-29 -28 -73 -28t-70 28q-27 28 -27 73z" />
    <glyph glyph-name="wdieresis" unicode="&#x1e85;" horiz-adv-x="1593" 
d="M1202 0h-145l-260 815l-260 -815h-146l-348 1024h162l260 -815l260 815h145l258 -815l261 815h161zM492 1322q0 44 27 71q28 27 72 27t72 -28q27 -26 27 -70t-28 -73t-71 -29q-44 0 -72 29q-27 29 -27 73zM905 1322q0 44 27 71t71 27q45 0 73 -28q28 -26 28 -70t-29 -73
t-73 -29t-70 30q-27 28 -27 72z" />
    <glyph glyph-name="uni1E9E" unicode="&#x1e9e;" horiz-adv-x="1513" 
d="M205 1409h1126v-106l-323 -465q172 -16 287.5 -133.5t115.5 -298.5t-133.5 -306t-341.5 -125q-160 0 -320 84v166q158 -109 302 -109t233.5 85.5t89.5 217.5q0 133 -100.5 216.5t-266.5 83.5h-61v104l313 451h-757v-1274h-164v1409z" />
    <glyph glyph-name="Ygrave" unicode="&#x1ef2;" horiz-adv-x="1218" 
d="M694 0h-168v612l-506 797h191l397 -645l400 645h192l-506 -797v-612zM334 1858h170l209 -304h-140z" />
    <glyph glyph-name="ygrave" unicode="&#x1ef3;" horiz-adv-x="1017" 
d="M399 -449h-159l192 476l-397 997h168l305 -801l309 801h166zM233 1473h170l209 -304h-139z" />
    <glyph glyph-name="figuredash" unicode="&#x2012;" 
d="M88 760h977v-109h-977v109z" />
    <glyph glyph-name="endash" unicode="&#x2013;" horiz-adv-x="1024" 
d="M72 586h880v-129h-880v129z" />
    <glyph glyph-name="emdash" unicode="&#x2014;" horiz-adv-x="2048" 
d="M72 586h1904v-129h-1904v129z" />
    <glyph glyph-name="quoteleft" unicode="&#x2018;" horiz-adv-x="512" 
d="M258 983h-160l178 426h140z" />
    <glyph glyph-name="quoteright" unicode="&#x2019;" horiz-adv-x="512" 
d="M254 1409h162l-178 -426h-140z" />
    <glyph glyph-name="quotesinglbase" unicode="&#x201a;" horiz-adv-x="512" 
d="M190 170h158l-178 -426h-137z" />
    <glyph glyph-name="quotedblleft" unicode="&#x201c;" horiz-adv-x="858" 
d="M258 983h-160l178 426h140zM604 983h-162l181 426h137z" />
    <glyph glyph-name="quotedblright" unicode="&#x201d;" horiz-adv-x="858" 
d="M600 1409h160l-178 -426h-140zM254 1409h162l-178 -426h-140z" />
    <glyph glyph-name="quotedblbase" unicode="&#x201e;" horiz-adv-x="858" 
d="M190 170h158l-178 -426h-137zM535 170h159l-178 -426h-137z" />
    <glyph glyph-name="dagger" unicode="&#x2020;" horiz-adv-x="913" 
d="M385 938h-330v141h330v330h141v-330h332v-141h-332v-938h-141v938z" />
    <glyph glyph-name="daggerdbl" unicode="&#x2021;" horiz-adv-x="913" 
d="M385 332h-330v139h330v467h-330v141h330v330h141v-330h332v-141h-332v-467h332v-139h-332v-332h-141v332z" />
    <glyph glyph-name="bullet" unicode="&#x2022;" horiz-adv-x="1024" 
d="M223 704.5q0 59.5 22.5 112.5t62.5 92t92.5 61.5t111.5 22.5t112.5 -22.5t92.5 -61.5t61.5 -92t22.5 -112.5t-22.5 -112.5t-61.5 -92t-92.5 -61.5t-112.5 -22.5t-111.5 22.5t-92.5 61.5t-62.5 92t-22.5 112.5z" />
    <glyph glyph-name="ellipsis" unicode="&#x2026;" horiz-adv-x="2050" 
d="M1599 85q0 48 31 79t78 31t78 -31t31 -79t-31 -79t-78 -31t-78 31t-31 79zM233 85q0 48 31 79t78 31t78 -31t31 -79t-31 -79t-78 -31t-78 31t-31 79zM915 85q0 48 31 79t78 31t79 -31t32 -79t-32 -79t-79 -31t-78 31t-31 79z" />
    <glyph glyph-name="perthousand" unicode="&#x2030;" horiz-adv-x="2473" 
d="M1325 1409h137l-1056 -1409h-138zM215 1058q0 -122 56.5 -197t148.5 -75t149.5 75t57.5 197t-57.5 196.5t-149.5 74.5t-148.5 -74.5t-56.5 -196.5zM658.5 1329q95.5 -105 95.5 -272t-95 -272t-240.5 -105t-238 106t-92.5 271t93 271t237.5 106t240 -105zM1104 353
q0 -122 56.5 -197.5t148.5 -75.5t149.5 75.5t57.5 197.5t-57.5 197t-149.5 75t-148.5 -75t-56.5 -197zM1548 623.5q94 -105.5 94 -271.5t-94.5 -271.5t-239.5 -105.5t-238 106t-93 271t92.5 271t238.5 106t240 -105.5zM1849 353q0 -122 56.5 -197.5t148.5 -75.5t148.5 75.5
t56.5 197.5t-56.5 197t-148.5 75t-148.5 -75t-56.5 -197zM2295 622q91 -107 91 -270q0 -164 -91.5 -270.5t-238.5 -106.5t-240.5 106.5t-93.5 270.5t93 270.5t241 106.5t239 -107z" />
    <glyph glyph-name="guilsinglleft" unicode="&#x2039;" horiz-adv-x="778" 
d="M307 512l373 -424h-176l-404 424l404 426h176z" />
    <glyph glyph-name="guilsinglright" unicode="&#x203a;" horiz-adv-x="778" 
d="M473 512l-373 426h174l406 -426l-406 -424h-174z" />
    <glyph glyph-name="fraction" unicode="&#x2044;" horiz-adv-x="319" 
d="M621 1409h137l-1057 -1409h-137z" />
    <glyph glyph-name="uni2070" unicode="&#x2070;" horiz-adv-x="761" 
d="M207 1249.5q0 -145.5 48 -232.5t127 -87t126 87t47 232.5t-47 232.5t-126 87t-127 -87t-48 -232.5zM603.5 1560q86.5 -119 86.5 -311t-87 -311t-222.5 -119t-221 119.5t-85.5 310.5t85 310.5t221.5 119.5t223 -119z" />
    <glyph glyph-name="uni2074" unicode="&#x2074;" horiz-adv-x="704" 
d="M406 1153v324l-236 -324h236zM406 1051h-367v82l387 532h106v-512h127v-102h-127v-217h-126v217z" />
    <glyph glyph-name="uni2075" unicode="&#x2075;" horiz-adv-x="634" 
d="M252 1247q-82 0 -158 -22v440h432v-111h-315v-215q41 8 88 9q121 0 195.5 -70t74.5 -188t-85.5 -194.5t-199.5 -76.5t-214 47v125q92 -61 177 -61t135 45t50 115t-49 113.5t-131 43.5z" />
    <glyph glyph-name="uni2076" unicode="&#x2076;" horiz-adv-x="700" 
d="M199 1116q0 -82 42.5 -134t110.5 -52t113 47t45 118.5t-42 117t-116 45.5t-147 -72q-6 -35 -6 -70zM400 1366q100 0 170.5 -73.5t70.5 -194.5t-81.5 -200t-209.5 -79t-205 86.5t-77 224.5q0 284 288 535h170q-224 -182 -293 -350q67 51 167 51z" />
    <glyph glyph-name="uni2077" unicode="&#x2077;" horiz-adv-x="573" 
d="M12 1554v111h535v-76l-320 -755h-135l303 720h-383z" />
    <glyph glyph-name="uni2078" unicode="&#x2078;" horiz-adv-x="704" 
d="M211 1441.5q0 -59.5 39 -96t102.5 -36.5t102.5 36.5t39 96t-39 96.5t-102.5 37t-102.5 -37t-39 -96.5zM199 1065q0 -61 42 -101t111.5 -40t112.5 40t43 101t-43 100t-112.5 39t-111.5 -39t-42 -100zM88 1452q0 100 72.5 163.5t191.5 63.5t192.5 -63.5t73.5 -163.5
q0 -68 -35.5 -118t-97.5 -72q72 -23 112 -78.5t40 -128.5q0 -104 -78 -170t-207 -66t-205.5 65.5t-76.5 155.5q0 173 149 222q-59 23 -95 72.5t-36 117.5z" />
    <glyph glyph-name="uni2079" unicode="&#x2079;" horiz-adv-x="700" 
d="M504 1382q0 82 -43 134.5t-112 52.5t-112.5 -47t-43.5 -119t41.5 -117t116.5 -45t147 72q6 33 6 69zM300 1133q-98 0 -168.5 72.5t-70.5 194.5t82 200.5t208 78.5t204 -86t78 -224t-74 -275.5t-215 -259.5h-170q217 168 295 350q-71 -51 -169 -51z" />
    <glyph glyph-name="uni207A" unicode="&#x207a;" horiz-adv-x="704" 
d="M49 1307h246v245h115v-245h245v-115h-245v-246h-115v246h-246v115z" />
    <glyph glyph-name="uni207B" unicode="&#x207b;" horiz-adv-x="704" 
d="M49 1307h606v-115h-606v115z" />
    <glyph glyph-name="uni207C" unicode="&#x207c;" horiz-adv-x="704" 
d="M49 1430h606v-113h-606v113zM49 1182h606v-113h-606v113z" />
    <glyph glyph-name="uni207D" unicode="&#x207d;" horiz-adv-x="421" 
d="M229 1250q0 -294 185 -531h-138q-176 244 -176 530.5t176 530.5h138q-185 -236 -185 -530z" />
    <glyph glyph-name="uni207E" unicode="&#x207e;" horiz-adv-x="421" 
d="M195 1250q0 293 -187 530h137q177 -238 177 -530q0 -291 -177 -531h-137q187 238 187 531z" />
    <glyph glyph-name="uni207F" unicode="&#x207f;" horiz-adv-x="761" 
d="M109 1217h129v-64q92 80 193 80t163.5 -63.5t62.5 -163.5v-428h-129v407q0 59 -35.5 97t-93.5 38q-86 0 -161 -80v-462h-129v639z" />
    <glyph glyph-name="uni2080" unicode="&#x2080;" horiz-adv-x="761" 
d="M207 159.5q0 -145.5 48 -232.5t127 -87t126 87t47 232.5t-47 232.5t-126 87t-127 -87t-48 -232.5zM603 471.5q87 -118.5 87 -311.5q0 -192 -86.5 -311t-223 -119t-221.5 120t-85 310q0 191 85.5 310.5t221 119.5t222.5 -118.5z" />
    <glyph glyph-name="uni2081" unicode="&#x2081;" horiz-adv-x="516" 
d="M387 575v-831h-135v688l-209 -119v121l254 141h90z" />
    <glyph glyph-name="uni2082" unicode="&#x2082;" horiz-adv-x="632" 
d="M293 590q117 0 186.5 -67t69.5 -171t-76 -219t-250 -278h336v-111h-516v86q293 258 331 355t38 151t-41 96.5t-107 42.5q-107 0 -201 -80v127q113 68 230 68z" />
    <glyph glyph-name="uni2083" unicode="&#x2083;" horiz-adv-x="624" 
d="M195 219h41q74 0 120.5 38t46.5 95t-39.5 92t-120.5 35t-175 -57v119q100 49 212 49t184.5 -62.5t72.5 -145.5q0 -162 -138 -210q72 -23 114 -80t42 -131q0 -104 -80 -167.5t-199 -63.5t-227 51v123q101 -64 189 -64t136 37t48 98t-50 100.5t-128 39.5h-49v104z" />
    <glyph glyph-name="uni2084" unicode="&#x2084;" horiz-adv-x="704" 
d="M406 63v324l-236 -324h236zM406 -39h-367v82l387 532h106v-512h127v-102h-127v-217h-126v217z" />
    <glyph glyph-name="uni2085" unicode="&#x2085;" horiz-adv-x="634" 
d="M253 158q-81 0 -159 -23v440h432v-110h-315v-215q41 8 88 8q121 0 195.5 -69.5t74.5 -188.5t-85.5 -194.5t-199.5 -75.5t-214 47v125q92 -62 177 -62t135 45t50 115t-49 114t-130 44z" />
    <glyph glyph-name="uni2086" unicode="&#x2086;" horiz-adv-x="700" 
d="M199 27q0 -82 42.5 -134.5t110.5 -52.5t113 47t45 119t-42 117t-116 45t-147 -72q-6 -35 -6 -69zM400 276q100 0 170.5 -73.5t70.5 -194.5t-82 -199.5t-209 -78.5q-128 0 -205 86.5t-77 224.5q0 137 73.5 274.5t214.5 259.5h170q-224 -182 -293 -350q67 51 167 51z" />
    <glyph glyph-name="uni2087" unicode="&#x2087;" horiz-adv-x="573" 
d="M12 465v110h535v-75l-320 -756h-135l303 721h-383z" />
    <glyph glyph-name="uni2088" unicode="&#x2088;" horiz-adv-x="704" 
d="M211 352.5q0 -59.5 39 -96.5t102.5 -37t102.5 37t39 96.5t-39 96t-102.5 36.5t-102.5 -36.5t-39 -96zM199 -24.5q0 -61.5 42 -101.5t111.5 -40t112.5 40t43 101.5t-43 100.5t-112.5 39t-111.5 -39t-42 -100.5zM485 172q152 -49 152 -222q0 -89 -78 -154.5t-207 -65.5
t-205.5 65.5t-76.5 154.5q0 174 149 222q-59 23 -95 72.5t-36 117.5q0 100 72.5 164t191.5 64t192.5 -63.5t73.5 -164.5q0 -68 -35.5 -117.5t-97.5 -72.5z" />
    <glyph glyph-name="uni2089" unicode="&#x2089;" horiz-adv-x="700" 
d="M504 293q0 82 -43 134t-112 52t-112.5 -47t-43.5 -118.5t41.5 -116.5t116.5 -45t147 71q6 33 6 70zM300 43q-98 0 -168.5 72.5t-70.5 194.5t81.5 201t208.5 79t204.5 -86t77.5 -224q0 -284 -289 -536h-170q217 168 295 350q-71 -51 -169 -51z" />
    <glyph glyph-name="uni208A" unicode="&#x208a;" horiz-adv-x="704" 
d="M49 217h246v246h115v-246h245v-115h-245v-245h-115v245h-246v115z" />
    <glyph glyph-name="uni208B" unicode="&#x208b;" horiz-adv-x="704" 
d="M49 217h606v-115h-606v115z" />
    <glyph glyph-name="uni208C" unicode="&#x208c;" horiz-adv-x="704" 
d="M49 340h606v-113h-606v113zM49 92h606v-112h-606v112z" />
    <glyph glyph-name="uni208D" unicode="&#x208d;" horiz-adv-x="421" 
d="M229 161q0 -294 185 -532h-138q-176 244 -176 530.5t176 530.5h138q-185 -235 -185 -529z" />
    <glyph glyph-name="uni208E" unicode="&#x208e;" horiz-adv-x="421" 
d="M195 160q0 293 -187 530h137q177 -238 177 -530q0 -291 -177 -531h-137q187 238 187 531z" />
    <glyph glyph-name="Euro" unicode="&#x20ac;" 
d="M780 115q147 0 285 92v-154q-147 -78 -277 -78q-236 0 -390.5 141.5t-202.5 375.5h-166v116h147q-4 50 -4 62l2 131h-145v117h166q50 235 203.5 375.5t367.5 140.5q152 0 299 -78v-154q-137 92 -285 92t-257 -101t-152 -275h458v-117h-485q-4 -50 -4 -96.5t4 -96.5h485
v-116h-458q43 -174 152.5 -275.5t256.5 -101.5z" />
    <glyph glyph-name="uni2113" unicode="&#x2113;" horiz-adv-x="792" 
d="M586 1174q0 86 -35 138t-94.5 52t-95 -52t-35.5 -145v-479q260 193 260 486zM499 111q75 0 175 53v-141q-187 -79 -314 -31t-161.5 131.5t-34.5 148.5v902q0 142 77.5 232.5t198.5 90.5t196 -87.5t75 -225.5q0 -188 -98.5 -356.5t-286.5 -299.5v-237q0 -80 49 -130
t124 -50z" />
    <glyph glyph-name="uni2116" unicode="&#x2116;" horiz-adv-x="2277" 
d="M1710 1089q0 -101 51 -164t134 -63t134.5 62t51.5 164t-51.5 165.5t-134.5 63.5t-134 -63.5t-51 -164.5zM1577 1089.5q0 73.5 23.5 135t65.5 106.5t100.5 69.5t128 24.5t128 -24.5t100.5 -69.5t65.5 -106.5t23.5 -135t-23.5 -136t-65.5 -106.5t-100.5 -68.5t-128 -24.5
t-128 24.5t-100.5 68.5t-65.5 106.5t-23.5 136zM1602 627h587v-101h-587v101zM205 1409h147l799 -1137v1137h160v-1409h-148l-798 1137v-1137h-160v1409z" />
    <glyph glyph-name="uni2117" unicode="&#x2117;" horiz-adv-x="1730" 
d="M766 702h129q76 0 123 43t47 113t-47 113t-123 43h-129v-312zM635 1120h278q127 0 207 -72.5t80 -189.5t-80 -190.5t-207 -73.5h-147v-305h-131v831zM864 76q277 0 453 176t176 452t-176 452.5t-453 176.5t-451.5 -176.5t-174.5 -452.5q0 -275 174.5 -451.5t451.5 -176.5
zM129 704.5q0 161.5 54.5 297t151.5 233.5t232 152.5t297 54.5t297 -54.5t233.5 -152.5t153 -233.5t54.5 -297t-54.5 -297t-153 -233.5t-233.5 -152.5t-297 -54.5t-297 54.5t-232 152.5t-151.5 233.5t-54.5 297z" />
    <glyph glyph-name="uni2120" unicode="&#x2120;" horiz-adv-x="1734" 
d="M817 1409h117l280 -391l277 391h119v-831h-129v616l-228 -322h-79l-228 322v-616h-129v831zM489 796q0 54 -30.5 80.5t-76.5 45t-177 60.5t-131 206q0 104 80.5 169.5t198.5 65.5t231 -45v-127q-102 63 -194 63t-136.5 -34.5t-44.5 -84.5t30.5 -76.5t76.5 -45
t176.5 -58.5t130.5 -210q0 -108 -82 -175t-208 -67t-243 55v127q117 -76 229 -75q76 0 123 36t47 90z" />
    <glyph glyph-name="trademark" unicode="&#x2122;" horiz-adv-x="1785" 
d="M870 1409h117l279 -391l278 391h117v-831h-127v616l-227 -322h-82l-228 322v-616h-127v831zM305 1300h-260v109h655v-109h-260v-722h-135v722z" />
    <glyph glyph-name="Omega" unicode="&#x2126;" horiz-adv-x="1579" 
d="M88 133h383q-162 135 -249 302t-87 331t48 282.5t135.5 204.5t207 133.5t336 47.5t399.5 -181t183 -465q0 -186 -87 -353t-251 -302h385v-133h-584v109q176 141 269.5 309t93.5 346q0 232 -135 380t-346.5 148t-346.5 -148t-135 -380q0 -178 93.5 -346t271.5 -309v-109
h-584v133z" />
    <glyph glyph-name="estimated" unicode="&#x212e;" horiz-adv-x="1921" 
d="M449 737h1024v391q-92 111 -224.5 176.5t-286.5 65.5t-287.5 -65.5t-225.5 -176.5v-391zM160 704.5q0 151.5 62.5 284.5t172 231.5t255 156t311 57.5t311 -57.5t255 -156t172 -231.5t62.5 -284v-33h-1312v-391q92 -111 225 -175.5t290 -64.5t289.5 65.5t225.5 182.5h139
q-111 -143 -282 -228.5t-356 -85.5t-330.5 57.5t-255 157t-172 231.5t-62.5 283.5z" />
    <glyph glyph-name="onethird" unicode="&#x2153;" horiz-adv-x="1730" 
d="M1260 475h40q74 0 121 38t47 95t-39.5 92t-120.5 35t-175 -57v119q99 49 211 49t185 -62.5t73 -145.5q0 -162 -138 -210q72 -23 114 -80t42 -131q0 -104 -80 -167.5t-199 -63.5t-227 51v123q100 -64 188 -64t136.5 37t48.5 98t-50.5 100.5t-127.5 39.5h-49v104z
M1325 1409h137l-1056 -1409h-138zM481 1409v-831h-135v688l-209 -119v121l254 141h90z" />
    <glyph glyph-name="twothirds" unicode="&#x2154;" horiz-adv-x="1730" 
d="M1260 475h40q74 0 121 38t47 95t-39.5 92t-120.5 35t-175 -57v119q99 49 211 49t185 -62.5t73 -145.5q0 -162 -138 -210q72 -23 114 -80t42 -131q0 -104 -80 -167.5t-199 -63.5t-227 51v123q100 -64 188 -64t136.5 37t48.5 98t-50.5 100.5t-127.5 39.5h-49v104z
M1325 1409h137l-1056 -1409h-138zM329 1423q118 0 187.5 -67.5t69.5 -170.5t-76 -218t-250 -279h336v-110h-516v86q292 257 330.5 353.5t38.5 150.5t-41 97.5t-107 43.5q-109 0 -201 -80v127q111 67 229 67z" />
    <glyph glyph-name="uni2155" unicode="&#x2155;" horiz-adv-x="1730" 
d="M1314 414q-81 0 -159 -23v440h432v-110h-315v-215q41 8 88 8q121 0 195.5 -69.5t74.5 -188.5t-85.5 -194.5t-199.5 -75.5t-215 47v125q92 -62 178 -62t135.5 45t49.5 115t-49 114t-130 44zM1325 1409h137l-1056 -1409h-138zM481 1409v-831h-135v688l-209 -119v121
l254 141h90z" />
    <glyph glyph-name="uni2156" unicode="&#x2156;" horiz-adv-x="1730" 
d="M1314 414q-81 0 -159 -23v440h432v-110h-315v-215q41 8 88 8q121 0 195.5 -69.5t74.5 -188.5t-85.5 -194.5t-199.5 -75.5t-215 47v125q92 -62 178 -62t135.5 45t49.5 115t-49 114t-130 44zM1325 1409h137l-1056 -1409h-138zM329 1423q118 0 187.5 -67.5t69.5 -170.5
t-76 -218t-250 -279h336v-110h-516v86q292 257 330.5 353.5t38.5 150.5t-41 97.5t-107 43.5q-109 0 -201 -80v127q111 67 229 67z" />
    <glyph glyph-name="uni2157" unicode="&#x2157;" horiz-adv-x="1730" 
d="M1314 414q-81 0 -159 -23v440h432v-110h-315v-215q41 8 88 8q121 0 195.5 -69.5t74.5 -188.5t-85.5 -194.5t-199.5 -75.5t-215 47v125q92 -62 178 -62t135.5 45t49.5 115t-49 114t-130 44zM1325 1409h137l-1056 -1409h-138zM236 1053h40q74 0 121 37.5t47 95.5
t-39.5 92.5t-120.5 34.5t-175 -58v119q99 49 211 49t185 -62.5t73 -145.5q0 -163 -138 -209q72 -23 114 -80.5t42 -130.5q0 -104 -80 -168t-199 -64t-227 51v123q100 -63 188 -63t136.5 37t48.5 98t-50.5 100t-127.5 39h-49v105z" />
    <glyph glyph-name="uni2158" unicode="&#x2158;" horiz-adv-x="1730" 
d="M1314 414q-81 0 -159 -23v440h432v-110h-315v-215q41 8 88 8q121 0 195.5 -69.5t74.5 -188.5t-85.5 -194.5t-199.5 -75.5t-215 47v125q92 -62 178 -62t135.5 45t49.5 115t-49 114t-130 44zM1325 1409h137l-1056 -1409h-138zM406 897v324l-236 -324h236zM406 795h-367v82
l387 532h106v-512h127v-102h-127v-217h-126v217z" />
    <glyph glyph-name="uni2159" unicode="&#x2159;" horiz-adv-x="1730" 
d="M1225 283q0 -82 42.5 -134.5t110.5 -52.5t113 47t45 119t-42 117t-116 45t-147 -72q-6 -35 -6 -69zM1426 532q100 0 170.5 -73.5t70.5 -194.5t-82 -199.5t-209 -78.5q-128 0 -205 86.5t-77 224.5q0 137 73.5 274.5t214.5 259.5h170q-225 -183 -292 -350q66 51 166 51z
M1325 1409h137l-1056 -1409h-138zM481 1409v-831h-135v688l-209 -119v121l254 141h90z" />
    <glyph glyph-name="uni215A" unicode="&#x215a;" horiz-adv-x="1730" 
d="M1225 283q0 -82 42.5 -134.5t110.5 -52.5t113 47t45 119t-42 117t-116 45t-147 -72q-6 -35 -6 -69zM1426 532q100 0 170.5 -73.5t70.5 -194.5t-82 -199.5t-209 -78.5q-128 0 -205 86.5t-77 224.5q0 137 73.5 274.5t214.5 259.5h170q-225 -183 -292 -350q66 51 166 51z
M1325 1409h137l-1056 -1409h-138zM287 991q-82 0 -158 -22v440h432v-111h-315v-215q41 8 88 9q121 0 195.5 -70t74.5 -188t-85.5 -194.5t-199.5 -76.5t-215 47v125q92 -61 178 -61t135.5 45t49.5 115t-49 113.5t-131 43.5z" />
    <glyph glyph-name="oneeighth" unicode="&#x215b;" horiz-adv-x="1730" 
d="M1235 608.5q0 -59.5 39 -96.5t102.5 -37t102.5 37t39 96.5t-39 96t-102.5 36.5t-102.5 -36.5t-39 -96zM1223 231.5q0 -61.5 42 -101.5t111.5 -40t112.5 40t43 101.5t-43 100.5t-112.5 39t-111.5 -39t-42 -100.5zM1509 428q152 -49 152 -222q0 -89 -78 -154.5t-207 -65.5
t-205.5 65.5t-76.5 154.5q0 174 149 222q-59 23 -95 72.5t-36 117.5q0 100 72.5 164t191.5 64t192.5 -63.5t73.5 -164.5q0 -68 -35.5 -117.5t-97.5 -72.5zM1325 1409h137l-1056 -1409h-138zM481 1409v-831h-135v688l-209 -119v121l254 141h90z" />
    <glyph glyph-name="threeeighths" unicode="&#x215c;" horiz-adv-x="1730" 
d="M1235 608.5q0 -59.5 39 -96.5t102.5 -37t102.5 37t39 96.5t-39 96t-102.5 36.5t-102.5 -36.5t-39 -96zM1223 231.5q0 -61.5 42 -101.5t111.5 -40t112.5 40t43 101.5t-43 100.5t-112.5 39t-111.5 -39t-42 -100.5zM1509 428q152 -49 152 -222q0 -89 -78 -154.5t-207 -65.5
t-205.5 65.5t-76.5 154.5q0 174 149 222q-59 23 -95 72.5t-36 117.5q0 100 72.5 164t191.5 64t192.5 -63.5t73.5 -164.5q0 -68 -35.5 -117.5t-97.5 -72.5zM1325 1409h137l-1056 -1409h-138zM229 1053h41q74 0 121 37.5t47 95.5t-40 92.5t-120 34.5t-176 -58v119
q100 49 212 49t184.5 -62.5t72.5 -145.5q0 -163 -137 -209q72 -23 114 -80.5t42 -130.5q0 -104 -80 -168t-199 -64t-227 51v123q100 -63 188 -63t136.5 37t48.5 98t-50.5 100t-127.5 39h-50v105z" />
    <glyph glyph-name="fiveeighths" unicode="&#x215d;" horiz-adv-x="1730" 
d="M1235 608.5q0 -59.5 39 -96.5t102.5 -37t102.5 37t39 96.5t-39 96t-102.5 36.5t-102.5 -36.5t-39 -96zM1223 231.5q0 -61.5 42 -101.5t111.5 -40t112.5 40t43 101.5t-43 100.5t-112.5 39t-111.5 -39t-42 -100.5zM1509 428q152 -49 152 -222q0 -89 -78 -154.5t-207 -65.5
t-205.5 65.5t-76.5 154.5q0 174 149 222q-59 23 -95 72.5t-36 117.5q0 100 72.5 164t191.5 64t192.5 -63.5t73.5 -164.5q0 -68 -35.5 -117.5t-97.5 -72.5zM1325 1409h137l-1056 -1409h-138zM287 991q-82 0 -158 -22v440h432v-111h-315v-215q41 8 88 9q121 0 195.5 -70
t74.5 -188t-85.5 -194.5t-199.5 -76.5t-215 47v125q92 -61 178 -61t135.5 45t49.5 115t-49 113.5t-131 43.5z" />
    <glyph glyph-name="seveneighths" unicode="&#x215e;" horiz-adv-x="1730" 
d="M1235 608.5q0 -59.5 39 -96.5t102.5 -37t102.5 37t39 96.5t-39 96t-102.5 36.5t-102.5 -36.5t-39 -96zM1223 231.5q0 -61.5 42 -101.5t111.5 -40t112.5 40t43 101.5t-43 100.5t-112.5 39t-111.5 -39t-42 -100.5zM1509 428q152 -49 152 -222q0 -89 -78 -154.5t-207 -65.5
t-205.5 65.5t-76.5 154.5q0 174 149 222q-59 23 -95 72.5t-36 117.5q0 100 72.5 164t191.5 64t192.5 -63.5t73.5 -164.5q0 -68 -35.5 -117.5t-97.5 -72.5zM1325 1409h137l-1056 -1409h-138zM80 1298v111h534v-76l-319 -755h-135l303 720h-383z" />
    <glyph glyph-name="uni215F" unicode="&#x215f;" horiz-adv-x="1024" 
d="M1325 1409h137l-1056 -1409h-138zM471 1409v-831h-135v688l-209 -119v121l254 141h90z" />
    <glyph glyph-name="arrowleft" unicode="&#x2190;" horiz-adv-x="2048" 
d="M1919 655v-155h-1491l500 -500h-221l-578 578l578 577h221l-500 -500h1491z" />
    <glyph glyph-name="arrowup" unicode="&#x2191;" horiz-adv-x="2048" 
d="M1102 -317h-156v1491l-500 -500v221l578 578l578 -578v-221l-500 500v-1491z" />
    <glyph glyph-name="arrowright" unicode="&#x2192;" horiz-adv-x="2048" 
d="M129 500v155h1491l-500 500h221l578 -577l-578 -578h-221l500 500h-1491z" />
    <glyph glyph-name="arrowdown" unicode="&#x2193;" horiz-adv-x="2048" 
d="M946 1473h156v-1491l500 499v-221l-578 -577l-578 577v221l500 -499v1491z" />
    <glyph glyph-name="uni2196" unicode="&#x2196;" horiz-adv-x="2048" 
d="M391 1210h817l156 -155h-707l1055 -1055l-110 -111l-1055 1055v-706l-156 155v817z" />
    <glyph glyph-name="uni2197" unicode="&#x2197;" horiz-adv-x="2048" 
d="M1657 1210v-817l-156 -155v706l-1055 -1055l-110 111l1055 1055h-707l156 155h817z" />
    <glyph glyph-name="uni2198" unicode="&#x2198;" horiz-adv-x="2048" 
d="M1657 -55h-817l-156 155h707l-1055 1055l110 111l1055 -1055v707l156 -156v-817z" />
    <glyph glyph-name="uni2199" unicode="&#x2199;" horiz-adv-x="2048" 
d="M391 -55v817l156 156v-707l1055 1055l110 -111l-1055 -1055h707l-156 -155h-817z" />
    <glyph glyph-name="partialdiff" unicode="&#x2202;" horiz-adv-x="1161" 
d="M337 224.5q83 -113.5 227 -113.5t236.5 141.5t92.5 376.5q0 29 -2 58.5t-4 60.5q-68 80 -148.5 122.5t-156.5 42.5t-135.5 -29.5t-126 -110t-66.5 -258t83 -291zM502 1497q262 0 409.5 -211t147.5 -556q0 -346 -140 -550.5t-355 -204.5t-345.5 154.5t-130.5 388.5
t131 382.5t340 148.5q78 0 162 -33t151 -105q-25 211 -123 332t-245 121t-293 -100v153q148 80 291 80z" />
    <glyph glyph-name="Delta" unicode="&#x2206;" horiz-adv-x="1314" 
d="M252 133h813l-408 1036zM1249 0h-1186v92l525 1317h137l524 -1317v-92z" />
    <glyph glyph-name="product" unicode="&#x220f;" horiz-adv-x="1562" 
d="M205 1473h1155v-1922h-168v1788h-821v-1788h-166v1922z" />
    <glyph glyph-name="summation" unicode="&#x2211;" horiz-adv-x="1361" 
d="M172 1473h1061v-134h-850l580 -766v-98l-613 -790h916v-134h-1127v107l674 866l-641 844v105z" />
    <glyph glyph-name="minus" unicode="&#x2212;" 
d="M63 647h1027v-141h-1027v141z" />
    <glyph glyph-name="uni2215" unicode="&#x2215;" horiz-adv-x="319" 
d="M621 1409h137l-1057 -1409h-137z" />
    <glyph glyph-name="uni2219" unicode="&#x2219;" horiz-adv-x="512" 
d="M147 513q0 48 31 79t78 31t78 -31t31 -79t-31 -79t-78 -31t-78 31t-31 79z" />
    <glyph glyph-name="radical" unicode="&#x221a;" horiz-adv-x="1409" 
d="M823 -449h-143l-238 715l-329 -110v143l417 139l215 -643l420 1678h140z" />
    <glyph glyph-name="infinity" unicode="&#x221e;" horiz-adv-x="1626" 
d="M1391 577q0 116 -58.5 187.5t-152.5 71.5q-124 0 -209 -131l-84 -127l84 -129q86 -132 209 -132q94 0 152.5 72t58.5 188zM236 577q0 -116 59 -188t154 -72q121 0 206 132l86 129l-86 127q-85 131 -206 131q-94 0 -153.5 -71.5t-59.5 -187.5zM187 861.5
q99 107.5 253 107.5q192 0 322 -193l51 -80l53 80q59 92 142.5 142.5t169.5 50.5q162 0 262 -109t100 -282t-99.5 -283.5t-254.5 -110.5q-94 0 -177 50.5t-143 142.5l-53 80l-51 -80q-128 -193 -322 -193q-155 0 -253.5 109t-98.5 285t99 283.5z" />
    <glyph glyph-name="integral" unicode="&#x222b;" horiz-adv-x="1024" 
d="M383 -338q74 0 119 61.5t45 153.5t-17.5 192.5t-44 207t-102.5 371.5t-76 482q0 164 87 265.5t224 101.5q61 0 123 -20v-138q-51 23 -111 23t-106.5 -61.5t-46.5 -153.5t17.5 -191.5t44 -206t102.5 -371.5t76 -482q0 -162 -88 -265.5t-218 -103.5q-62 0 -126 20v142
q53 -27 98 -27z" />
    <glyph glyph-name="approxequal" unicode="&#x2248;" 
d="M332 762q-138 0 -269 -105v156q119 90 256 90q137 1 272 -61q136 -62 230 -62q135 0 269 105v-156q-114 -88 -252 -88q-137 0 -233 43q-97 43 -154.5 60.5t-118.5 17.5zM334 514q111 0 252 -62t235 -61q132 0 269 107v-158q-125 -90 -255 -90t-228 44q-99 44 -156.5 61.5
t-118.5 17.5q-135 0 -269 -105v156q117 90 271 90z" />
    <glyph glyph-name="notequal" unicode="&#x2260;" 
d="M63 299v141h367l137 273h-504v141h574l149 299h156l-149 -299h297v-141h-367l-137 -273h504v-141h-574l-149 -299h-156l149 299h-297z" />
    <glyph glyph-name="lessequal" unicode="&#x2264;" 
d="M63 713v114l1027 443v-154l-807 -346l807 -346v-154zM63 141h1027v-141h-1027v141z" />
    <glyph glyph-name="greaterequal" unicode="&#x2265;" 
d="M1090 827v-114l-1027 -443v154l807 346l-807 346v154zM63 141h1027v-141h-1027v141z" />
    <glyph glyph-name="lozenge" unicode="&#x25ca;" 
d="M264 705l314 -529l311 529l-311 530zM104 705l412 704h121l412 -704l-412 -705h-121z" />
    <glyph glyph-name="uniF8FF" unicode="&#xf8ff;" horiz-adv-x="1024" 
d="M512 594l-332 -496h662zM569 682l332 -498v994zM123 186l14 21q24 34 123 186t193 289l-330 496v-992zM512 768l330 498h-662zM25 1362h972v-1362h-972v1362z" />
    <glyph glyph-name="glyph336" horiz-adv-x="512" 
d="M197 -143h147l-147 -353h-129z" />
    <glyph glyph-name="zero.dnom" horiz-adv-x="761" 
d="M207 415.5q0 -145.5 48 -232.5t127 -87t126 87t47 232.5t-47 232.5t-126 87t-127 -87t-48 -232.5zM603 727.5q87 -118.5 87 -311.5q0 -192 -86.5 -311t-223 -119t-221.5 120t-85 310q0 191 85.5 310.5t221 119.5t222.5 -118.5z" />
    <glyph glyph-name="one.dnom" horiz-adv-x="516" 
d="M387 831v-831h-135v688l-209 -119v121l254 141h90z" />
    <glyph glyph-name="two.dnom" horiz-adv-x="632" 
d="M293 846q117 0 186.5 -67t69.5 -171t-76 -219t-250 -278h336v-111h-516v86q293 258 331 355t38 151t-41 96.5t-107 42.5q-107 0 -201 -80v127q113 68 230 68z" />
    <glyph glyph-name="three.dnom" horiz-adv-x="624" 
d="M195 475h41q74 0 120.5 38t46.5 95t-39.5 92t-120.5 35t-175 -57v119q100 49 212 49t184.5 -62.5t72.5 -145.5q0 -162 -138 -210q72 -23 114 -80t42 -131q0 -104 -80 -167.5t-199 -63.5t-227 51v123q101 -64 189 -64t136 37t48 98t-50 100.5t-128 39.5h-49v104z" />
    <glyph glyph-name="four.dnom" horiz-adv-x="704" 
d="M406 319v324l-236 -324h236zM406 217h-367v82l387 532h106v-512h127v-102h-127v-217h-126v217z" />
    <glyph glyph-name="five.dnom" horiz-adv-x="634" 
d="M253 414q-81 0 -159 -23v440h432v-110h-315v-215q41 8 88 8q121 0 195.5 -69.5t74.5 -188.5t-85.5 -194.5t-199.5 -75.5t-214 47v125q92 -62 177 -62t135 45t50 115t-49 114t-130 44z" />
    <glyph glyph-name="six.dnom" horiz-adv-x="700" 
d="M199 283q0 -82 42.5 -134.5t110.5 -52.5t113 47t45 119t-42 117t-116 45t-147 -72q-6 -35 -6 -69zM400 532q100 0 170.5 -73.5t70.5 -194.5t-82 -199.5t-209 -78.5q-128 0 -205 86.5t-77 224.5q0 137 73.5 274.5t214.5 259.5h170q-224 -182 -293 -350q67 51 167 51z" />
    <glyph glyph-name="seven.dnom" horiz-adv-x="573" 
d="M12 721v110h535v-75l-320 -756h-135l303 721h-383z" />
    <glyph glyph-name="eight.dnom" horiz-adv-x="704" 
d="M211 608.5q0 -59.5 39 -96.5t102.5 -37t102.5 37t39 96.5t-39 96t-102.5 36.5t-102.5 -36.5t-39 -96zM199 231.5q0 -61.5 42 -101.5t111.5 -40t112.5 40t43 101.5t-43 100.5t-112.5 39t-111.5 -39t-42 -100.5zM485 428q152 -49 152 -222q0 -89 -78 -154.5t-207 -65.5
t-205.5 65.5t-76.5 154.5q0 174 149 222q-59 23 -95 72.5t-36 117.5q0 100 72.5 164t191.5 64t192.5 -63.5t73.5 -164.5q0 -68 -35.5 -117.5t-97.5 -72.5z" />
    <glyph glyph-name="nine.dnom" horiz-adv-x="700" 
d="M504 549q0 82 -43 134t-112 52t-112.5 -47t-43.5 -118.5t41.5 -116.5t116.5 -45t147 71q6 33 6 70zM300 299q-98 0 -168.5 72.5t-70.5 194.5t81.5 201t208.5 79t204.5 -86t77.5 -224q0 -284 -289 -536h-170q217 168 295 350q-71 -51 -169 -51z" />
    <glyph glyph-name="zero.numr" horiz-adv-x="761" 
d="M207 993.5q0 -145.5 48 -232.5t127 -87t126 87t47 232.5t-47 232.5t-126 87t-127 -87t-48 -232.5zM603.5 1304q86.5 -119 86.5 -311t-87 -311t-222.5 -119t-221 119.5t-85.5 310.5t85 310.5t221.5 119.5t223 -119z" />
    <glyph glyph-name="one.numr" horiz-adv-x="516" 
d="M387 1409v-831h-135v688l-209 -119v121l254 141h90z" />
    <glyph glyph-name="two.numr" horiz-adv-x="632" 
d="M292 1423q118 0 187.5 -67.5t69.5 -170.5t-76 -218t-250 -279h336v-110h-516v86q292 257 330.5 353.5t38.5 150.5t-41 97.5t-107 43.5q-107 0 -201 -80v127q111 67 229 67z" />
    <glyph glyph-name="three.numr" horiz-adv-x="624" 
d="M195 1053h41q74 0 120.5 37.5t46.5 95.5t-39.5 92.5t-120.5 34.5t-175 -58v119q100 49 212 49t184.5 -62.5t72.5 -145.5q0 -163 -138 -209q72 -23 114 -80.5t42 -130.5q0 -104 -80 -168t-199 -64t-227 51v123q101 -63 189 -63t136 37t48 98t-50 100t-128 39h-49v105z" />
    <glyph glyph-name="four.numr" horiz-adv-x="704" 
d="M406 897v324l-236 -324h236zM406 795h-367v82l387 532h106v-512h127v-102h-127v-217h-126v217z" />
    <glyph glyph-name="five.numr" horiz-adv-x="634" 
d="M252 991q-82 0 -158 -22v440h432v-111h-315v-215q41 8 88 9q121 0 195.5 -70t74.5 -188t-85.5 -194.5t-199.5 -76.5t-214 47v125q92 -61 177 -61t135 45t50 115t-49 113.5t-131 43.5z" />
    <glyph glyph-name="six.numr" horiz-adv-x="700" 
d="M199 860q0 -82 42.5 -134t110.5 -52t113 47t45 118.5t-42 117t-116 45.5t-147 -72q-6 -35 -6 -70zM400 1110q100 0 170.5 -73.5t70.5 -194.5t-81.5 -200t-209.5 -79t-205 86.5t-77 224.5q0 284 288 535h170q-224 -182 -293 -350q67 51 167 51z" />
    <glyph glyph-name="seven.numr" horiz-adv-x="573" 
d="M12 1298v111h535v-76l-320 -755h-135l303 720h-383z" />
    <glyph glyph-name="eight.numr" horiz-adv-x="704" 
d="M211 1185.5q0 -59.5 39 -96t102.5 -36.5t102.5 36.5t39 96t-39 96.5t-102.5 37t-102.5 -37t-39 -96.5zM199 809q0 -61 42 -101t111.5 -40t112.5 40t43 101t-43 100t-112.5 39t-111.5 -39t-42 -100zM88 1196q0 100 72.5 163.5t191.5 63.5t192.5 -63.5t73.5 -163.5
q0 -68 -35.5 -118t-97.5 -72q72 -23 112 -78.5t40 -128.5q0 -104 -78 -170t-207 -66t-205.5 65.5t-76.5 155.5q0 173 149 222q-59 23 -95 72.5t-36 117.5z" />
    <glyph glyph-name="nine.numr" horiz-adv-x="700" 
d="M504 1126q0 82 -43 134.5t-112 52.5t-112.5 -47t-43.5 -119t41.5 -117t116.5 -45t147 72q6 33 6 69zM300 877q-98 0 -168.5 72.5t-70.5 194.5t82 200.5t208 78.5t204 -86t78 -224t-74 -275.5t-215 -259.5h-170q217 168 295 350q-71 -51 -169 -51z" />
    <glyph glyph-name="glyph411" horiz-adv-x="512" 
d="M360 1858h170l-239 -304h-139z" />
    <glyph glyph-name="glyph412" horiz-adv-x="512" 
d="M90 1858q0 -78 47 -126.5t119 -48.5t119 48.5t47 126.5h113q0 -132 -78 -213.5t-201 -81.5t-201 81.5t-78 213.5h113z" />
    <glyph glyph-name="glyph413" horiz-adv-x="512" 
d="M313 1473h146l-129 -304h-127z" />
    <glyph glyph-name="glyph414" horiz-adv-x="512" 
d="M326 1554h-138l-211 304h136l143 -187l145 187h134z" />
    <glyph glyph-name="glyph415" horiz-adv-x="512" 
d="M188 1858h138l209 -304h-134l-145 189l-143 -189h-136z" />
    <glyph glyph-name="glyph416" horiz-adv-x="512" 
d="M315 1169h-147l147 353h129z" />
    <glyph glyph-name="glyph417" horiz-adv-x="512" 
d="M-49 1707q0 44 27.5 70.5t71.5 26.5t72 -26.5t28 -70.5t-28 -72.5t-72 -28.5t-71.5 28.5t-27.5 72.5zM365 1707q0 44 26.5 70.5t70.5 26.5t72.5 -26.5t28.5 -70.5t-28.5 -72.5t-72.5 -28.5t-70.5 28.5t-26.5 72.5z" />
    <glyph glyph-name="glyph418" horiz-adv-x="512" 
d="M156 1706q0 45 27.5 72.5t72.5 27.5t72.5 -27.5t27.5 -72.5t-27.5 -72.5t-72.5 -27.5t-72.5 27.5t-27.5 72.5z" />
    <glyph glyph-name="glyph419" horiz-adv-x="512" 
d="M-18 1858h170l208 -304h-139z" />
    <glyph glyph-name="glyph420" horiz-adv-x="512" 
d="M182 1858h170l-237 -304h-140zM537 1858h170l-238 -304h-141z" />
    <glyph glyph-name="glyph421" horiz-adv-x="512" 
d="M-53 1765h618v-116h-618v116z" />
    <glyph glyph-name="glyph422" horiz-adv-x="512" 
d="M147 1706q0 -47 31 -78t78 -31t78 31t31 78t-31 78t-78 31t-78 -31t-31 -78zM59 1705q0 87 55.5 142.5t142.5 55.5t141.5 -55.5t54.5 -142.5t-54.5 -141.5t-141.5 -54.5t-142.5 54.5t-55.5 141.5z" />
    <glyph glyph-name="glyph423" horiz-adv-x="512" 
d="M-51 1612q0 92 50 151.5t119 59.5t124 -40t81.5 -58.5t56.5 -18.5t52.5 25.5t22.5 68.5h108q0 -94 -49 -152.5t-118 -58.5t-124 40t-81.5 58.5t-57.5 18.5t-53.5 -25.5t-22.5 -68.5h-108z" />
    <glyph glyph-name="zero.pnum" horiz-adv-x="1241" 
d="M375.5 278.5q94.5 -161.5 246.5 -161.5q153 0 247 162.5t94 424.5t-94.5 425t-247.5 163t-246.5 -162t-93.5 -426t94.5 -425.5zM113 704.5q0 327.5 142.5 528.5t366.5 201t366 -201.5t142 -528t-141.5 -528t-366.5 -201.5q-224 0 -366.5 201t-142.5 528.5z" />
    <glyph glyph-name="one.pnum" horiz-adv-x="802" 
d="M590 1409v-1409h-168v1229l-363 -211v153l414 238h117z" />
    <glyph glyph-name="two.pnum" horiz-adv-x="1021" 
d="M449 1290q-183 0 -357 -139v164q190 119 380 119t305.5 -113.5t115.5 -288.5q0 -247 -221 -490t-389 -401h630v-141h-854v115q367 335 515.5 539t148.5 343q0 138 -77 215.5t-197 77.5z" />
    <glyph glyph-name="three.pnum" horiz-adv-x="1005" 
d="M313 782h70q141 0 230 74t89 188t-79 182t-221 68t-306 -102v156q168 86 349 86t303 -104t122 -269q0 -117 -66.5 -207t-180.5 -127q129 -41 203.5 -139.5t74.5 -227.5q0 -168 -134 -276.5t-328 -108.5q-195 0 -376 95v159q170 -115 327 -115t249 72t92 192t-95.5 195.5
t-242.5 75.5h-80v133z" />
    <glyph glyph-name="four.pnum" horiz-adv-x="1136" 
d="M692 520v643l-465 -643h465zM692 391h-637v109l664 909h135v-889h223v-129h-223v-391h-162v391z" />
    <glyph glyph-name="five.pnum" horiz-adv-x="1021" 
d="M145 1409h711v-141h-561v-426q101 18 188 18q86 0 170 -31.5t177.5 -120.5t93.5 -284t-140 -322t-358 -127q-164 0 -324 80v166q154 -104 307 -104t249 87t96 220q0 132 -92 218.5t-265 86.5q-99 0 -252 -37v717z" />
    <glyph glyph-name="six.pnum" horiz-adv-x="1126" 
d="M268 470q0 -155 84 -254t215 -99t217 90t86 229q0 138 -80.5 226t-225.5 88q-144 0 -283 -140q-13 -67 -13 -140zM606 887q192 0 310 -121.5t118 -322.5t-131.5 -334.5t-337.5 -133.5t-334.5 143.5t-128.5 374.5q0 232 128 468.5t376 447.5h221q-380 -295 -505 -623
q136 101 284 101z" />
    <glyph glyph-name="seven.pnum" horiz-adv-x="913" 
d="M8 1268v141h871v-98l-555 -1311h-172l540 1268h-684z" />
    <glyph glyph-name="eight.pnum" horiz-adv-x="1136" 
d="M297 1040.5q0 -112.5 75.5 -185.5t195.5 -73t196 73t76 185.5t-76 185t-196 72.5t-195.5 -72.5t-75.5 -185zM268 381q0 -120 84.5 -195t215.5 -75t215.5 75t84.5 195t-83.5 194t-216.5 74t-216.5 -74t-83.5 -194zM135 1034q0 184 120.5 292t312.5 108t312.5 -107
t120.5 -274q0 -121 -64.5 -209t-174.5 -123q127 -35 198.5 -130t71.5 -203q0 -195 -130 -304t-334 -109q-205 0 -334.5 109.5t-129.5 282.5q0 129 72 224t199 130q-111 35 -175.5 123t-64.5 190z" />
    <glyph glyph-name="nine.pnum" horiz-adv-x="1126" 
d="M856 947q0 146 -82.5 245.5t-215.5 99.5t-218.5 -90t-85.5 -229t82 -226.5t224 -87.5t286 140q10 83 10 148zM222 1300q132 134 338 134t334 -144t128 -375t-128 -467.5t-376 -447.5h-221q381 301 506 625q-133 -102 -285 -103q-192 0 -310 122t-118 322t132 334z" />
    <glyph glyph-name="zero.c2sc" 
d="M250 545q0 -96 24.5 -176t67.5 -137.5t103.5 -89t132 -31.5t132 31.5t103.5 89t66.5 137.5t23.5 176t-23.5 176t-66.5 136t-103.5 88t-132 32t-132 -32t-103.5 -88t-67.5 -136t-24.5 -176zM84 545q0 125 37 229.5t102.5 180t155.5 117.5t198.5 42t198.5 -42t155.5 -117.5
t101.5 -180t36 -229.5t-36 -229.5t-101.5 -180.5t-155.5 -118t-198.5 -42t-198.5 42t-155.5 118t-102.5 180.5t-37 229.5z" />
    <glyph glyph-name="one.c2sc" 
d="M741 1090v-1090h-161v918l-289 -170v149l336 193h114z" />
    <glyph glyph-name="two.c2sc" 
d="M735 750q0 104 -57 164.5t-148 60.5q-147 0 -297 -121v156q164 104 320 104t253 -93t97 -235q0 -252 -471 -651h486v-135h-717v111q534 430 534 639z" />
    <glyph glyph-name="three.c2sc" 
d="M780 157q0 106 -83 172t-216 66h-73v129h61q125 0 204 64t79 166t-68 162.5t-194 60.5t-279 -94v151q148 80 318 80t279.5 -94.5t109.5 -245.5q0 -104 -58.5 -186t-163.5 -117q117 -37 184.5 -125t67.5 -186q0 -178 -121.5 -275.5t-298.5 -97.5q-176 0 -348 86v158
q156 -109 298 -109q141 0 221.5 64.5t80.5 170.5z" />
    <glyph glyph-name="four.c2sc" 
d="M678 285v569l-410 -569h410zM678 160h-574v106l598 824h134v-805h202v-125h-202v-353h-158v353z" />
    <glyph glyph-name="five.c2sc" 
d="M485 -80q135 0 218 78t83 197t-80.5 193.5t-208.5 74.5t-253 -31v658h647v-138h-504v-372q80 12 163 12q178 0 290 -110t112 -288t-127.5 -294.5t-324.5 -116.5q-150 0 -297 76v157q147 -96 282 -96z" />
    <glyph glyph-name="six.c2sc" 
d="M313 418q0 -124 73.5 -214.5t189.5 -90.5t192 79.5t76 203.5q0 125 -71.5 202.5t-198.5 77.5t-250 -123q-11 -79 -11 -135zM618 811q176 0 283 -112.5t107 -295.5t-122.5 -305.5t-311.5 -122.5t-306.5 134.5t-117.5 343.5t116.5 423t339.5 406h215q-335 -260 -461 -561
q119 90 258 90z" />
    <glyph glyph-name="seven.c2sc" 
d="M162 952v138h801v-97l-498 -1186h-172l487 1145h-618z" />
    <glyph glyph-name="eight.c2sc" 
d="M336 945q0 -99 67 -164.5t173 -65.5t173.5 65.5t67.5 164.5t-67.5 164t-172.5 65t-173 -65t-68 -164zM578 106q115 0 189.5 68.5t74.5 171.5q0 104 -74 172t-190.5 68t-191.5 -68t-75 -172t76.5 -172t190.5 -68zM180 940q0 92 29 156.5t81 110.5t125.5 72t205 26
t242 -97.5t110.5 -251.5q0 -109 -57.5 -188.5t-155.5 -110.5q113 -31 177 -118t64 -185q0 -180 -119.5 -279.5t-305.5 -99.5t-305 99.5t-119 259.5q0 117 64.5 205t176.5 118q-98 31 -155.5 111t-57.5 172z" />
    <glyph glyph-name="nine.c2sc" 
d="M840 672q0 125 -74 214t-189 89t-191.5 -81t-76.5 -204t71.5 -199.5t198.5 -76.5t250 123q11 80 11 135zM535 279q-175 0 -282.5 111.5t-107.5 295.5t122 306t311 122t307.5 -134.5t118.5 -343.5q0 -210 -117 -423t-340 -406h-215q335 260 461 562q-119 -90 -258 -90z
" />
    <glyph glyph-name="dollar.c2sc" 
d="M797 264q0 80 -44 121t-109.5 68.5t-143.5 52t-143.5 62.5t-109.5 98t-44 170t84 195t219 108v286h141v-278q131 -10 256 -66v-155q-145 90 -273 90t-196.5 -51.5t-68.5 -128.5t44 -115.5t109.5 -65t252.5 -85.5t187 -291q0 -128 -85 -217t-226 -113v-285h-141v279
q-147 10 -287 82v157q158 -109 322 -108q109 0 182.5 55t73.5 135z" />
    <glyph glyph-name="cent.c2sc" 
d="M719 -223h-139v289q-167 28 -269 160t-102 319.5t102.5 318t268.5 158.5v291h139v-283q117 -10 221 -63v-148q-116 78 -251 78t-223.5 -97t-88.5 -253t89.5 -256.5t222.5 -100.5q132 0 251 80v-147q-115 -59 -221 -66v-280z" />
    <glyph glyph-name="Euro.c2sc" 
d="M762 111q125 0 260 86v-150q-136 -72 -252 -72q-215 0 -355 127.5t-190 341.5h-149v115h131q-4 40 -4 81t4 83h-131v115h149q50 214 189 340.5t338 126.5q138 0 270 -70v-152q-127 86 -256 86t-226.5 -89t-138.5 -242h412v-115h-442q-2 -20 -2 -25v-62q0 -56 2 -77h442
v-115h-412q41 -154 138.5 -243.5t222.5 -89.5z" />
    <glyph glyph-name="sterling.c2sc" 
d="M796 1167q-77 0 -130.5 -46t-75.5 -126l-82 -278h285v-129h-322l-133 -457h672v-131h-850v90l145 498h-131v129h170l94 321q35 123 122.5 195t197.5 72t207 -43v-148q-92 53 -169 53z" />
    <glyph glyph-name="yen.c2sc" 
d="M496 279h-289v116h289v168h-289v117h248l-383 602h186l320 -520l317 520h186l-383 -602h248v-117h-289v-168h289v-116h-289v-279h-161v279z" />
    <glyph glyph-name="zero.c2sc.pnum" horiz-adv-x="1177" 
d="M262 545q0 -96 24.5 -176t67.5 -137.5t103.5 -89t132.5 -31.5t132 31.5t103 89t66.5 137.5t23.5 176t-23.5 176t-66.5 136t-103 88t-132 32t-132.5 -32t-103.5 -88t-67.5 -136t-24.5 -176zM96 545q0 125 37 229.5t102.5 180t155.5 117.5t198.5 42t199 -42t156 -117.5
t101 -180t35.5 -229.5t-35.5 -229.5t-101 -180.5t-156 -118t-199 -42t-198.5 42t-155.5 118t-102.5 180.5t-37 229.5z" />
    <glyph glyph-name="one.c2sc.pnum" horiz-adv-x="673" 
d="M502 1090v-1090h-162v918l-289 -170v149l336 193h115z" />
    <glyph glyph-name="two.c2sc.pnum" horiz-adv-x="872" 
d="M596 750q0 104 -57.5 164.5t-147.5 60.5q-147 0 -297 -121v156q164 104 320 104t253 -93t97 -235q0 -252 -471 -651h485v-135h-717v111q535 431 535 639z" />
    <glyph glyph-name="three.c2sc.pnum" horiz-adv-x="905" 
d="M353 -78q141 0 221.5 64.5t80.5 170.5t-83 172t-216 66h-73v129h61q125 0 204 64t79 166t-67.5 162.5t-194.5 60.5t-279 -94v151q148 80 318 80t279.5 -94.5t109.5 -245.5q0 -104 -58.5 -186t-163.5 -117q117 -37 184.5 -125t67.5 -186q0 -178 -121.5 -275.5
t-298.5 -97.5q-176 0 -348 86v158q157 -109 298 -109z" />
    <glyph glyph-name="four.c2sc.pnum" horiz-adv-x="1040" 
d="M623 285v569l-410 -569h410zM623 160h-574v106l598 824h133v-805h203v-125h-203v-353h-157v353z" />
    <glyph glyph-name="five.c2sc.pnum" horiz-adv-x="897" 
d="M358 -80q135 0 218 78t83 197t-80.5 193.5t-208.5 74.5t-253 -31v658h647v-138h-504v-372q80 12 163 12q178 0 290 -110t112 -288t-127.5 -294.5t-324.5 -116.5q-150 0 -297 76v157q147 -96 282 -96z" />
    <glyph glyph-name="six.c2sc.pnum" horiz-adv-x="1042" 
d="M258 421q0 -127 73.5 -217.5t189.5 -90.5t191.5 79t75.5 204q0 126 -71 203t-198 77q-128 0 -251 -123q-10 -73 -10 -132zM563 811q176 0 282.5 -112t106.5 -296t-122 -306t-312 -122t-307 135.5t-117 343.5t117 422t340 406h215q-335 -260 -461 -561q119 90 258 90z" />
    <glyph glyph-name="seven.c2sc.pnum" horiz-adv-x="833" 
d="M2 952v138h801v-97l-498 -1186h-172l488 1145h-619z" />
    <glyph glyph-name="eight.c2sc.pnum" horiz-adv-x="1040" 
d="M281 945q0 -99 67.5 -164.5t172.5 -65.5t173 65.5t68 164.5t-67 164t-173 65t-173.5 -65t-67.5 -164zM786 346q0 104 -73.5 172t-190 68t-191.5 -68t-75 -172t76.5 -172t190.5 -68t188.5 68t74.5 172zM125 940q0 92 28.5 156.5t81 110.5t126 72t205 26t242 -97.5
t110.5 -251.5q0 -109 -57.5 -188.5t-155.5 -110.5q113 -31 177 -118t64 -185q0 -180 -119.5 -279.5t-305.5 -99.5t-305.5 100t-119.5 259q0 117 64.5 205t177.5 118q-98 31 -155.5 111t-57.5 172z" />
    <glyph glyph-name="nine.c2sc.pnum" horiz-adv-x="1042" 
d="M784 668q0 128 -73.5 217.5t-187.5 89.5q-115 0 -192 -81t-77 -203t71 -199.5t198 -77.5q128 0 251 123q10 72 10 131zM948 636q0 -210 -116.5 -423t-339.5 -406h-216q338 262 461 562q-119 -90 -275 -90t-264 111t-108 295t121 306.5t311 122.5t308 -134t118 -344z" />
    <glyph glyph-name="plus.numr" horiz-adv-x="704" 
d="M49 1051h246v245h115v-245h245v-115h-245v-246h-115v246h-246v115z" />
    <glyph glyph-name="minus.numr" horiz-adv-x="704" 
d="M49 1051h606v-115h-606v115z" />
    <glyph glyph-name="equal.numr" horiz-adv-x="704" 
d="M49 1174h606v-113h-606v113zM49 926h606v-113h-606v113z" />
    <glyph glyph-name="parenleft.numr" horiz-adv-x="421" 
d="M229 994q0 -294 185 -531h-138q-176 244 -176 530.5t176 530.5h138q-185 -236 -185 -530z" />
    <glyph glyph-name="parenright.numr" horiz-adv-x="421" 
d="M195 994q0 293 -187 530h137q177 -238 177 -530q0 -291 -177 -531h-137q187 238 187 531z" />
    <glyph glyph-name="plus.dnom" horiz-adv-x="704" 
d="M49 473h246v246h115v-246h245v-115h-245v-245h-115v245h-246v115z" />
    <glyph glyph-name="minus.dnom" horiz-adv-x="704" 
d="M49 473h606v-115h-606v115z" />
    <glyph glyph-name="equal.dnom" horiz-adv-x="704" 
d="M49 596h606v-113h-606v113zM49 348h606v-112h-606v112z" />
    <glyph glyph-name="parenleft.dnom" horiz-adv-x="421" 
d="M229 417q0 -294 185 -532h-138q-176 244 -176 530.5t176 530.5h138q-185 -235 -185 -529z" />
    <glyph glyph-name="parenright.dnom" horiz-adv-x="421" 
d="M195 416q0 293 -187 530h137q177 -238 177 -530q0 -291 -177 -531h-137q187 238 187 531z" />
    <glyph glyph-name="period.superior" horiz-adv-x="327" 
d="M82 901q0 35 23.5 58.5t58.5 23.5t58.5 -23.5t23.5 -58.5t-23.5 -58.5t-58.5 -23.5t-58.5 23.5t-23.5 58.5z" />
    <glyph glyph-name="comma.superior" horiz-adv-x="327" 
d="M109 958h127l-117 -278h-109z" />
    <glyph glyph-name="period.sinf" horiz-adv-x="327" 
d="M82 -188.5q0 34.5 23.5 58.5t58.5 24t58.5 -24t23.5 -58.5t-23.5 -58t-58.5 -23.5t-58.5 23.5t-23.5 58z" />
    <glyph glyph-name="comma.sinf" horiz-adv-x="327" 
d="M109 -131h127l-117 -279h-109z" />
    <glyph glyph-name="period.numr" horiz-adv-x="327" 
d="M82 645q0 35 23.5 58.5t58.5 23.5t58.5 -23.5t23.5 -58.5t-23.5 -58.5t-58.5 -23.5t-58.5 23.5t-23.5 58.5z" />
    <glyph glyph-name="comma.numr" horiz-adv-x="327" 
d="M109 702h127l-117 -278h-109z" />
    <glyph glyph-name="period.dnom" horiz-adv-x="327" 
d="M82 67.5q0 34.5 23.5 58.5t58.5 24t58.5 -24t23.5 -58.5t-23.5 -58t-58.5 -23.5t-58.5 23.5t-23.5 58z" />
    <glyph glyph-name="comma.dnom" horiz-adv-x="327" 
d="M109 125h127l-117 -279h-109z" />
    <glyph glyph-name="glyph530" 
d="M553 526q117 0 186.5 -67.5t69.5 -170.5t-76 -218t-250 -279h336v-110h-516v86q292 257 330.5 354t38.5 151t-41 97t-107 43q-108 0 -200 -80v127q112 67 229 67zM88 760h977v-109h-977v109zM688 1729v-832h-135v688l-209 -119v121l254 142h90z" />
    <glyph glyph-name="glyph531" 
d="M459 156h41q74 0 121 37t47 95t-40 93t-121 35t-175 -58v119q100 49 212 49t184.5 -62.5t72.5 -145.5q0 -163 -137 -209q72 -23 113.5 -80.5t41.5 -130.5q0 -104 -80 -168t-199 -64t-227 51v123q101 -63 189 -63t136 36.5t48 98.5t-50 100.5t-128 38.5h-49v105zM88 760
h977v-109h-977v109zM688 1729v-832h-135v688l-209 -119v121l254 142h90z" />
    <glyph glyph-name="glyph532" 
d="M459 156h41q74 0 121 37t47 95t-40 93t-121 35t-175 -58v119q100 49 212 49t184.5 -62.5t72.5 -145.5q0 -163 -137 -209q72 -23 113.5 -80.5t41.5 -130.5q0 -104 -80 -168t-199 -64t-227 51v123q101 -63 189 -63t136 36.5t48 98.5t-50 100.5t-128 38.5h-49v105zM88 760
h977v-109h-977v109zM554 1743q116 0 185.5 -67.5t69.5 -171.5t-76 -218.5t-250 -277.5h336v-111h-516v86q293 258 331 354.5t38 150.5t-41 97t-107 43q-108 0 -200 -80v127q114 68 230 68z" />
    <glyph glyph-name="glyph533" 
d="M631 0v324l-236 -324h236zM631 -102h-367v82l387 532h107v-512h127v-102h-127v-217h-127v217zM88 760h977v-109h-977v109zM688 1729v-832h-135v688l-209 -119v121l254 142h90z" />
    <glyph glyph-name="glyph534" 
d="M631 0v324l-236 -324h236zM631 -102h-367v82l387 532h107v-512h127v-102h-127v-217h-127v217zM88 760h977v-109h-977v109zM459 1372h41q74 0 121 38t47 95t-40 92t-121 35t-175 -57v119q100 49 212 49t184.5 -62.5t72.5 -145.5q0 -162 -137 -210q72 -23 113.5 -80
t41.5 -131q0 -104 -80 -167.5t-199 -63.5t-227 51v123q101 -63 189 -63t136 36.5t48 97.5t-50 100.5t-128 39.5h-49v104z" />
    <glyph glyph-name="glyph535" 
d="M512 94q-82 0 -158 -22v440h432v-111h-315v-215q41 8 88 9q121 0 195.5 -70t74.5 -187t-84.5 -194.5t-199.5 -77.5t-215 47v125q92 -61 177 -61t135 45t50 115t-49 113.5t-131 43.5zM88 760h977v-109h-977v109zM688 1729v-832h-135v688l-209 -119v121l254 142h90z" />
    <glyph glyph-name="glyph536" 
d="M512 94q-82 0 -158 -22v440h432v-111h-315v-215q41 8 88 9q121 0 195.5 -70t74.5 -187t-84.5 -194.5t-199.5 -77.5t-215 47v125q92 -61 177 -61t135 45t50 115t-49 113.5t-131 43.5zM88 760h977v-109h-977v109zM554 1743q116 0 185.5 -67.5t69.5 -171.5t-76 -218.5
t-250 -277.5h336v-111h-516v86q293 258 331 354.5t38 150.5t-41 97t-107 43q-108 0 -200 -80v127q114 68 230 68z" />
    <glyph glyph-name="glyph537" 
d="M512 94q-82 0 -158 -22v440h432v-111h-315v-215q41 8 88 9q121 0 195.5 -70t74.5 -187t-84.5 -194.5t-199.5 -77.5t-215 47v125q92 -61 177 -61t135 45t50 115t-49 113.5t-131 43.5zM88 760h977v-109h-977v109zM455 1372h41q74 0 121 38t47 95t-40 92t-121 35t-175 -57
v119q100 49 212 49t184.5 -62.5t72.5 -145.5q0 -162 -138 -210q72 -23 114 -80t42 -131q0 -104 -80 -167.5t-199 -63.5t-227 51v123q101 -63 189 -63t136 36.5t48 97.5t-50 100.5t-128 39.5h-49v104z" />
    <glyph glyph-name="glyph538" 
d="M512 94q-82 0 -158 -22v440h432v-111h-315v-215q41 8 88 9q121 0 195.5 -70t74.5 -187t-84.5 -194.5t-199.5 -77.5t-215 47v125q92 -61 177 -61t135 45t50 115t-49 113.5t-131 43.5zM88 760h977v-109h-977v109zM631 1217v323l-236 -323h236zM631 1114h-367v82l387 533
h107v-512h127v-103h-127v-217h-127v217z" />
    <glyph glyph-name="glyph539" 
d="M424 -37q0 -82 43 -134t111 -52t112.5 47t44.5 118.5t-42.5 116.5t-116.5 45t-146 -71q-6 -35 -6 -70zM625 213q100 0 170.5 -73.5t70.5 -194.5t-81.5 -200t-208.5 -79t-205 86t-78 224q0 285 289 536h170q-224 -182 -293 -350q66 51 166 51zM88 760h977v-109h-977v109z
M688 1729v-832h-135v688l-209 -119v121l254 142h90z" />
    <glyph glyph-name="glyph540" 
d="M424 -37q0 -82 43 -134t111 -52t112.5 47t44.5 118.5t-42.5 116.5t-116.5 45t-146 -71q-6 -35 -6 -70zM625 213q100 0 170.5 -73.5t70.5 -194.5t-81.5 -200t-208.5 -79t-205 86t-78 224q0 285 289 536h170q-224 -182 -293 -350q66 51 166 51zM88 760h977v-109h-977v109z
M513 1311q-81 0 -159 -23v441h432v-111h-315v-215q41 8 88 8q121 0 195.5 -69.5t74.5 -187.5t-85 -194.5t-199 -76.5q-115 0 -215 47v125q92 -61 177 -61t135 44.5t50 114.5t-49 114t-130 44z" />
    <glyph glyph-name="glyph541" 
d="M434 288.5q0 -59.5 39 -96t102.5 -36.5t102.5 36.5t39 96t-39 96.5t-102.5 37t-102.5 -37t-39 -96.5zM422 -88.5q0 -61.5 42 -101t111.5 -39.5t112.5 39.5t43 101t-43 100.5t-112.5 39t-111.5 -39t-42 -100.5zM311 299q0 100 73 163.5t191.5 63.5t192.5 -63.5t74 -163.5
q0 -68 -36 -118t-97 -72q72 -23 111.5 -78.5t39.5 -128.5q0 -104 -77.5 -170t-207 -66t-206 65t-76.5 155q0 173 149 223q-59 23 -95 72.5t-36 117.5zM88 760h977v-109h-977v109zM688 1729v-832h-135v688l-209 -119v121l254 142h90z" />
    <glyph glyph-name="glyph542" 
d="M434 288.5q0 -59.5 39 -96t102.5 -36.5t102.5 36.5t39 96t-39 96.5t-102.5 37t-102.5 -37t-39 -96.5zM422 -88.5q0 -61.5 42 -101t111.5 -39.5t112.5 39.5t43 101t-43 100.5t-112.5 39t-111.5 -39t-42 -100.5zM311 299q0 100 73 163.5t191.5 63.5t192.5 -63.5t74 -163.5
q0 -68 -36 -118t-97 -72q72 -23 111.5 -78.5t39.5 -128.5q0 -104 -77.5 -170t-207 -66t-206 65t-76.5 155q0 173 149 223q-59 23 -95 72.5t-36 117.5zM88 760h977v-109h-977v109zM455 1372h41q74 0 121 38t47 95t-40 92t-121 35t-175 -57v119q100 49 212 49t184.5 -62.5
t72.5 -145.5q0 -162 -138 -210q72 -23 114 -80t42 -131q0 -104 -80 -167.5t-199 -63.5t-227 51v123q101 -63 189 -63t136 36.5t48 97.5t-50 100.5t-128 39.5h-49v104z" />
    <glyph glyph-name="glyph543" 
d="M434 288.5q0 -59.5 39 -96t102.5 -36.5t102.5 36.5t39 96t-39 96.5t-102.5 37t-102.5 -37t-39 -96.5zM422 -88.5q0 -61.5 42 -101t111.5 -39.5t112.5 39.5t43 101t-43 100.5t-112.5 39t-111.5 -39t-42 -100.5zM311 299q0 100 73 163.5t191.5 63.5t192.5 -63.5t74 -163.5
q0 -68 -36 -118t-97 -72q72 -23 111.5 -78.5t39.5 -128.5q0 -104 -77.5 -170t-207 -66t-206 65t-76.5 155q0 173 149 223q-59 23 -95 72.5t-36 117.5zM88 760h977v-109h-977v109zM513 1311q-81 0 -159 -23v441h432v-111h-315v-215q41 8 88 8q121 0 195.5 -69.5t74.5 -187.5
t-85 -194.5t-199 -76.5q-115 0 -215 47v125q92 -61 177 -61t135 44.5t50 114.5t-49 114t-130 44z" />
    <glyph glyph-name="glyph544" 
d="M434 288.5q0 -59.5 39 -96t102.5 -36.5t102.5 36.5t39 96t-39 96.5t-102.5 37t-102.5 -37t-39 -96.5zM422 -88.5q0 -61.5 42 -101t111.5 -39.5t112.5 39.5t43 101t-43 100.5t-112.5 39t-111.5 -39t-42 -100.5zM311 299q0 100 73 163.5t191.5 63.5t192.5 -63.5t74 -163.5
q0 -68 -36 -118t-97 -72q72 -23 111.5 -78.5t39.5 -128.5q0 -104 -77.5 -170t-207 -66t-206 65t-76.5 155q0 173 149 223q-59 23 -95 72.5t-36 117.5zM88 760h977v-109h-977v109zM301 1618v111h535v-76l-320 -756h-135l303 721h-383z" />
    <glyph glyph-name="glyph545" 
d="M88 760h977v-109h-977v109zM688 1729v-832h-135v688l-209 -119v121l254 142h90z" />
    <glyph glyph-name="A.salt" horiz-adv-x="815" 
d="M274 893h267l-133 344zM350 1409h115l330 -831h-133l-82 215h-344l-82 -215h-134z" />
    <glyph glyph-name="B.salt" horiz-adv-x="772" 
d="M125 1409h301q109 0 176.5 -60.5t67.5 -142.5q0 -153 -125 -200q72 -23 112.5 -78.5t40.5 -139.5t-69.5 -147t-182.5 -63h-321v831zM254 1051h147q61 0 100.5 34.5t39.5 92t-39 92.5t-101 35h-147v-254zM254 682h166q68 0 106.5 37t38.5 96t-39 96t-106 37h-166v-266z
" />
    <glyph glyph-name="C.salt" horiz-adv-x="776" 
d="M489 563q-106 0 -179.5 32t-128 89t-84 136t-29.5 221t114 262t291 120q117 0 236 -59v-125q-113 72 -227 72t-194.5 -89.5t-80.5 -227.5t80.5 -229t194.5 -91t227 71v-122q-114 -60 -220 -60z" />
    <glyph glyph-name="D.salt" horiz-adv-x="884" 
d="M260 686h143q121 0 199 86t78 221.5t-78 221t-199 85.5h-143v-614zM125 1409h285q180 0 293.5 -117.5t113.5 -298t-113.5 -298t-293.5 -117.5h-285v831z" />
    <glyph glyph-name="E.salt" horiz-adv-x="700" 
d="M125 1409h493v-109h-358v-247h311v-105h-311v-262h369v-108h-504v831z" />
    <glyph glyph-name="F.salt" horiz-adv-x="673" 
d="M125 1409h493v-109h-358v-270h311v-108h-311v-344h-135v831z" />
    <glyph glyph-name="G.salt" horiz-adv-x="858" 
d="M510 563q-119 0 -194.5 32t-131 89t-86 136t-30.5 220t115 262t298 121q129 0 250 -65v-127q-119 82 -239 82t-203.5 -88t-83.5 -230t81 -231.5t206 -89.5q74 0 147 31v210h-186v103h311v-387q-135 -68 -254 -68z" />
    <glyph glyph-name="H.salt" horiz-adv-x="933" 
d="M125 1409h135v-354h414v354h135v-831h-135v366h-414v-366h-135v831z" />
    <glyph glyph-name="I.salt" horiz-adv-x="385" 
d="M125 1409h135v-831h-135v831z" />
    <glyph glyph-name="J.salt" horiz-adv-x="591" 
d="M473 805q0 -106 -70.5 -174t-164.5 -68t-183 37v115q77 -41 139 -41t103 41t41 104v590h135v-604z" />
    <glyph glyph-name="K.salt" horiz-adv-x="788" 
d="M125 1409h131v-358l340 358h162l-383 -410l395 -421h-164l-350 372v-372h-131v831z" />
    <glyph glyph-name="L.salt" horiz-adv-x="638" 
d="M125 1409h135v-723h344v-108h-479v831z" />
    <glyph glyph-name="M.salt" horiz-adv-x="1040" 
d="M125 1409h119l276 -391l279 391h116v-831h-127v616l-227 -322h-80l-229 322v-616h-127v831z" />
    <glyph glyph-name="N.salt" horiz-adv-x="933" 
d="M125 1409h119l436 -618v618h129v-831h-117l-440 616v-616h-127v831z" />
    <glyph glyph-name="O.salt" horiz-adv-x="933" 
d="M655.5 763q73.5 89 73.5 231t-74 229.5t-189 87.5t-187 -88.5t-72 -228.5t71.5 -230t187.5 -90t189.5 89zM753 1304q113 -119 113 -311t-113.5 -311t-288 -119t-285.5 120t-111 310t110.5 310t286 120t288.5 -119z" />
    <glyph glyph-name="P.salt" horiz-adv-x="749" 
d="M256 989h131q74 0 122 43t48 114t-48 114t-122 43h-131v-314zM125 1409h281q123 0 203.5 -74.5t80.5 -189.5t-81 -188.5t-203 -73.5h-150v-305h-131v831z" />
    <glyph glyph-name="Q.salt" horiz-adv-x="931" 
d="M655.5 763q73.5 89 73.5 231t-74 229.5t-189 87.5t-187 -88.5t-72 -228.5t71.5 -230t187.5 -90t189.5 89zM68 992q0 95 29.5 175t81.5 136.5t126 88t204.5 31.5t243.5 -119t113 -311q0 -119 -45 -211t-123 -149l166 -180h-155l-117 131q-55 -20 -134 -20t-153 31.5
t-126 87.5t-81.5 135t-29.5 174z" />
    <glyph glyph-name="R.salt" horiz-adv-x="772" 
d="M125 1409h276q120 0 200.5 -71t80.5 -172t-47 -165.5t-129 -91.5l203 -331h-146l-188 315h-119v-315h-131v831zM256 997h125q72 0 119 43t47 110t-47 110t-119 43h-125v-306z" />
    <glyph glyph-name="S.salt" horiz-adv-x="692" 
d="M489 796q0 54 -30.5 80.5t-76.5 45t-177 60.5t-131 206q0 104 80.5 169.5t198.5 65.5t231 -45v-127q-102 63 -194 63t-136.5 -34.5t-44.5 -84.5t30.5 -76.5t76.5 -45t176.5 -58.5t130.5 -210q0 -108 -82 -175t-208 -67t-243 55v127q117 -76 229 -75q76 0 123 36t47 90z
" />
    <glyph glyph-name="T.salt" horiz-adv-x="745" 
d="M305 1300h-260v109h655v-109h-260v-722h-135v722z" />
    <glyph glyph-name="U.salt" horiz-adv-x="933" 
d="M813 885q0 -141 -96.5 -231.5t-249.5 -90.5t-249.5 90.5t-96.5 231.5v524h133v-512q0 -98 59.5 -160.5t153.5 -62.5t152.5 62.5t58.5 160.5v512h135v-524z" />
    <glyph glyph-name="V.salt" horiz-adv-x="815" 
d="M465 578h-115l-330 831h140l248 -647l247 647h140z" />
    <glyph glyph-name="W.salt" horiz-adv-x="1284" 
d="M971 578h-119l-209 661l-211 -661h-121l-282 831h135l209 -661l209 661h118l211 -661l209 661h135z" />
    <glyph glyph-name="X.salt" horiz-adv-x="821" 
d="M330 999l-287 410h156l213 -313l211 313h155l-289 -410l297 -421h-157l-217 327l-219 -327h-158z" />
    <glyph glyph-name="Y.salt" horiz-adv-x="763" 
d="M449 578h-134v352l-299 479h152l213 -354l213 354h154l-299 -479v-352z" />
    <glyph glyph-name="Z.salt" horiz-adv-x="782" 
d="M86 1300v109h614v-82l-469 -641h478v-108h-648v79l469 643h-444z" />
    <glyph glyph-name="ordfeminine.aalt" horiz-adv-x="878" 
d="M55 434h768v-100h-768v100zM307 893h264l-131 344zM383 1409h115l327 -831h-131l-82 215h-346l-80 -215h-133z" />
    <glyph glyph-name="ordmasculine.aalt" horiz-adv-x="933" 
d="M88 434h758v-100h-758v100zM655.5 763q73.5 89 73.5 231t-74 229.5t-189 87.5t-187 -88.5t-72 -228.5t71.5 -230t187.5 -90t189.5 89zM753 1304q113 -119 113 -311t-113.5 -311t-288 -119t-285.5 120t-111 310t110.5 310t286 120t288.5 -119z" />
    <glyph glyph-name="glyph574" horiz-adv-x="1024" 
d="M690 1083q0 -104 -98 -139l115 -190h-93l-106 178h-59v-178h-87v479h164q74 0 119 -42t45 -108zM449 999h65q41 0 65.5 23.5t24.5 59.5t-24.5 58.5t-65.5 22.5h-65v-164zM147 993q0 -80 27 -146.5t76 -115.5t115.5 -75.5t146.5 -26.5t146.5 26.5t115.5 75.5t76 115.5
t27 146.5t-27 146.5t-76 116t-115.5 76t-146.5 26.5t-146.5 -26.5t-115.5 -76t-76 -116t-27 -146.5zM72 993.5q0 96.5 32.5 177t91 139t139.5 91.5t177 33t177 -33t139.5 -91.5t91 -139t32.5 -177t-32.5 -177.5t-91 -139.5t-139.5 -91t-177 -32.5t-177 32.5t-139.5 91
t-91 139.5t-32.5 177.5z" />
    <glyph glyph-name="a.superior" horiz-adv-x="686" 
d="M356 889q-63 0 -113 -35t-50 -85t30.5 -78.5t81.5 -28.5q80 0 154 77v146q-40 4 -103 4zM307 1133q-78 0 -188 -60v109q115 51 223 51t175 -63.5t67 -163.5v-428h-125v59q-89 -76 -187 -76t-153.5 52.5t-55.5 142.5t84 152.5t222 62.5h33q34 0 57 -4v45q0 53 -37 87
t-115 34z" />
    <glyph glyph-name="b.superior" horiz-adv-x="761" 
d="M389 670q78 0 128 63.5t50 163.5t-50 162.5t-129 62.5t-150 -67v-316q73 -69 151 -69zM109 1497h129v-332q84 68 160 68t129 -24.5t90.5 -69.5t59 -106.5t21.5 -171t-79.5 -205t-206.5 -95.5q-90 0 -174 68v-51h-129v919z" />
    <glyph glyph-name="c.superior" horiz-adv-x="638" 
d="M63 897q0 146 89 241t233 95q90 0 186 -45v-119q-85 55 -171 55t-144.5 -63.5t-58.5 -163.5t58.5 -163.5t144.5 -63.5t171 55v-119q-96 -45 -177 -45t-140 24.5t-125 95t-66 216.5z" />
    <glyph glyph-name="d.superior" horiz-adv-x="761" 
d="M373 670q76 0 151 69v316q-72 67 -150 67t-127.5 -62.5t-49.5 -162.5t50 -163.5t126 -63.5zM653 578h-129v51q-80 -68 -158 -68t-131 24.5t-91 69.5t-59.5 106.5t-21.5 171.5t80 205t207 95q94 0 174 -68v332h129v-919z" />
    <glyph glyph-name="e.superior" horiz-adv-x="696" 
d="M359 1133q-69 0 -115.5 -50.5t-53.5 -132.5h324q-4 80 -45 131.5t-110 51.5zM403.5 662q88.5 0 190.5 63v-113q-113 -51 -197 -51t-143 25.5t-101 70.5t-66 107.5t-24 172t86 203t214 93.5t202 -89t74 -229l-2 -51h-447q8 -92 66.5 -147t147 -55z" />
    <glyph glyph-name="f.superior" horiz-adv-x="497" 
d="M154 1112h-115v105h115v102q0 86 57 140t131 54t143 -28v-111q-53 31 -99 31t-74.5 -28.5t-28.5 -73.5v-86h178v-105h-178v-534h-129v534z" />
    <glyph glyph-name="g.superior" horiz-adv-x="761" 
d="M373 670q76 0 151 69v316q-72 67 -150 67t-127.5 -62.5t-49.5 -162.5t50 -163.5t126 -63.5zM321 385q95 0 149 51t54 137v56q-80 -68 -158 -68t-131 24.5t-91 69.5t-59.5 106.5t-21.5 171.5t80 205t207 95q94 0 174 -68v52h129v-642q0 -130 -87.5 -212t-210.5 -82
q-124 0 -230 49v116q101 -61 196 -61z" />
    <glyph glyph-name="h.superior" horiz-adv-x="761" 
d="M109 1497h129v-344q92 80 193 80t163.5 -63.5t62.5 -163.5v-428h-129v407q0 59 -35.5 97t-93.5 38q-86 0 -161 -80v-462h-129v919z" />
    <glyph glyph-name="i.superior" horiz-adv-x="346" 
d="M96 1399q0 35 21.5 55.5t55.5 20.5t55.5 -20.5t21.5 -55.5t-21.5 -56.5t-55.5 -21.5t-55.5 21.5t-21.5 56.5zM109 1217h129v-639h-129v639z" />
    <glyph glyph-name="j.superior" horiz-adv-x="346" 
d="M238 475q0 -86 -57 -140t-131 -54t-144 28v111q51 -31 98 -31t76 28.5t29 74.5v725h129v-742zM96 1399q0 35 21.5 55.5t55.5 20.5t55.5 -20.5t21.5 -55.5t-21.5 -56.5t-55.5 -21.5t-55.5 21.5t-21.5 56.5z" />
    <glyph glyph-name="k.superior" horiz-adv-x="659" 
d="M109 1497h127v-543l235 263h152l-279 -316l289 -323h-154l-243 272v-272h-127v919z" />
    <glyph glyph-name="l.superior" horiz-adv-x="346" 
d="M109 1497h129v-919h-129v919z" />
    <glyph glyph-name="m.superior" horiz-adv-x="1136" 
d="M435 1233q116 0 173 -100q100 100 204 100t163 -62.5t59 -160.5v-432h-129v415q0 55 -31.5 91t-96.5 36t-142 -78v-464h-129v415q0 55 -32 91t-96 36t-140 -78v-464h-129v639h129v-62q81 78 197 78z" />
    <glyph glyph-name="o.superior" horiz-adv-x="761" 
d="M197 897q0 -100 51 -163.5t134 -63.5t134 63.5t51 163.5t-51 163.5t-134 63.5t-134 -63.5t-51 -163.5zM63 897q0 74 24 135.5t66 106.5t100 69.5t128 24.5t128 -24.5t100 -69.5t65.5 -106.5t23.5 -135.5t-23.5 -135.5t-65.5 -106.5t-100 -69.5t-128 -24.5t-128 24.5
t-100 69.5t-66 106.5t-24 135.5z" />
    <glyph glyph-name="p.superior" horiz-adv-x="761" 
d="M389 670q78 0 128 63.5t50 163.5t-50 162.5t-129 62.5t-150 -67v-316q73 -69 151 -69zM109 1217h129v-52q84 68 160 68t129 -24.5t90.5 -69.5t59 -106.5t21.5 -171t-79.5 -205t-206.5 -95.5q-90 0 -174 68v-332h-129v920z" />
    <glyph glyph-name="q.superior" horiz-adv-x="761" 
d="M373 670q76 0 151 69v316q-72 67 -150 67t-127.5 -62.5t-49.5 -162.5t50 -163.5t126 -63.5zM653 297h-129v332q-80 -68 -158 -68t-131 24.5t-91 69.5t-59.5 106.5t-21.5 171.5t80 205t207 95q94 0 174 -68v52h129v-920z" />
    <glyph glyph-name="r.superior" horiz-adv-x="512" 
d="M399 1118q-91 0 -161 -92v-448h-129v639h129v-72q72 88 168 88q27 0 59 -8v-117q-37 10 -66 10z" />
    <glyph glyph-name="s.superior" horiz-adv-x="573" 
d="M242 666q136 0 137 88q0 33 -22.5 51t-57.5 32.5t-132 45t-97 155.5q0 90 63.5 142.5t158.5 52.5t185 -39v-115q-85 49 -151 49t-97.5 -23.5t-31.5 -57.5t23.5 -52t57 -30.5t132 -43.5t98.5 -159q0 -92 -66 -146.5t-166 -54.5t-196 45v117q90 -57 162 -57z" />
    <glyph glyph-name="t.superior" horiz-adv-x="548" 
d="M356 561q-88 0 -145 54.5t-57 140.5v356h-115v105h115v180h129v-180h202v-105h-202v-340q0 -45 28.5 -73.5t74.5 -28.5t99 28v-110q-79 -27 -129 -27z" />
    <glyph glyph-name="u.superior" horiz-adv-x="761" 
d="M653 578h-129v63q-90 -80 -192 -80t-165 63.5t-63 163.5v429h127v-408q0 -59 37 -97t110 -38t146 80v463h129v-639z" />
    <glyph glyph-name="v.superior" horiz-adv-x="671" 
d="M391 578h-108l-254 639h133l174 -465l176 465h131z" />
    <glyph glyph-name="w.superior" horiz-adv-x="1032" 
d="M780 578h-116l-148 477l-147 -477h-117l-219 639h129l149 -478l148 478h114l148 -478l149 478h129z" />
    <glyph glyph-name="x.superior" horiz-adv-x="681" 
d="M262 901l-217 316h145l150 -222l149 222h148l-219 -316l227 -323h-149l-156 231l-154 -231h-149z" />
    <glyph glyph-name="y.superior" horiz-adv-x="671" 
d="M281 297h-127l120 299l-245 621h133l174 -465l176 465h131z" />
    <glyph glyph-name="z.superior" horiz-adv-x="643" 
d="M80 1112v105h483v-76l-336 -461h342v-102h-506v75l336 459h-319z" />
    <glyph glyph-name="glyph601" horiz-adv-x="761" 
d="M373 670q76 0 151 69v316q-72 67 -150 67t-127.5 -62.5t-49.5 -162.5t50 -163.5t126 -63.5zM653 578h-129v51q-80 -68 -158 -68t-131 24.5t-91 69.5t-59.5 106.5t-21.5 171.5t80 205t207 95q94 0 174 -68v52h129v-639z" />
    <glyph glyph-name="glyph602" horiz-adv-x="421" 
d="M274 561q-65 0 -115 49t-50 127v760h129v-745q0 -37 22 -59.5t60 -22.5t79 20v-108q-60 -21 -125 -21z" />
    <glyph glyph-name="glyph603" horiz-adv-x="761" 
d="M321 385q95 0 149 51t54 137v68q-90 -80 -192 -80t-165 63.5t-63 163.5v429h127v-408q0 -59 37 -97t110 -38t146 80v463h129v-642q0 -130 -87.5 -212t-210.5 -82q-124 0 -230 49v116q101 -61 196 -61z" />
    <glyph glyph-name="glyph604" horiz-adv-x="761" 
d="M88 627h588v-101h-588v101zM373 862q76 0 151 70v315q-72 68 -150 68t-127.5 -62.5t-49.5 -163t50 -164t126 -63.5zM653 768h-129v53q-78 -68 -174 -67q-126 0 -206.5 93.5t-80.5 240.5t80 242t207 95q94 0 174 -67v51h129v-641z" />
    <glyph glyph-name="A.c2sc" horiz-adv-x="1064" 
d="M352 412h365l-185 467zM465 1090h137l432 -1090h-160l-114 289h-455l-112 -289h-160z" />
    <glyph glyph-name="B.c2sc" horiz-adv-x="1013" 
d="M172 1090h385q137 0 228.5 -80.5t91.5 -206.5q0 -86 -45.5 -151.5t-122.5 -94.5q94 -29 149 -99.5t55 -149.5q0 -144 -93 -226t-236 -82h-412v1090zM328 612h198q86 0 139.5 49.5t53.5 127t-53.5 128t-139.5 50.5h-198v-355zM328 123h225q92 0 145.5 51t53.5 134
t-53.5 133.5t-145.5 50.5h-225v-369z" />
    <glyph glyph-name="C.c2sc" horiz-adv-x="1021" 
d="M243 954q147 160 380 160q155 0 303 -80v-149q-141 92 -295 92t-261.5 -121t-107.5 -310t106 -312t277 -123q135 0 281 94v-152q-152 -78 -286 -78t-230.5 42t-205 160.5t-108.5 367.5t147 409z" />
    <glyph glyph-name="D.c2sc" horiz-adv-x="1161" 
d="M334 131h188q169 0 274 115t105 299t-106.5 298.5t-272.5 114.5h-188v-827zM172 1090h360q237 0 386 -154.5t149 -391.5t-149.5 -390.5t-385.5 -153.5h-360v1090z" />
    <glyph glyph-name="E.c2sc" horiz-adv-x="925" 
d="M172 1090h637v-129h-477v-347h418v-125h-418v-360h489v-129h-649v1090z" />
    <glyph glyph-name="F.c2sc" horiz-adv-x="884" 
d="M172 1090h637v-129h-477v-371h418v-127h-418v-463h-160v1090z" />
    <glyph glyph-name="G.c2sc" horiz-adv-x="1122" 
d="M656 -25q-142 0 -240.5 42t-170 118t-110.5 180.5t-39 292t148.5 347t388.5 159.5q166 0 325 -88v-156q-156 109 -317 109q-160 0 -270.5 -120t-110.5 -312t106 -315t279 -123q94 0 201 45v295h-250v124h401v-507q-199 -91 -341 -91z" />
    <glyph glyph-name="H.c2sc" horiz-adv-x="1226" 
d="M172 1090h162v-474h559v474h162v-1090h-162v487h-559v-487h-162v1090z" />
    <glyph glyph-name="I.c2sc" horiz-adv-x="505" 
d="M172 1090h162v-1090h-162v1090z" />
    <glyph glyph-name="J.c2sc" horiz-adv-x="780" 
d="M262 111q82 0 137.5 55t55.5 141v783h161v-799q0 -138 -92.5 -227t-252.5 -89q-91 0 -193 52v141q102 -57 184 -57z" />
    <glyph glyph-name="K.c2sc" horiz-adv-x="1028" 
d="M172 1090h160v-478l454 478h197l-506 -537l520 -553h-200l-465 492v-492h-160v1090z" />
    <glyph glyph-name="L.c2sc" horiz-adv-x="845" 
d="M172 1090h162v-959h454v-131h-616v1090z" />
    <glyph glyph-name="M.c2sc" horiz-adv-x="1366" 
d="M172 1090h143l367 -519l369 519h145v-1090h-154v827l-309 -438h-98l-309 438v-827h-154v1090z" />
    <glyph glyph-name="N.c2sc" horiz-adv-x="1226" 
d="M172 1090h143l586 -828v828h154v-1090h-144l-585 827v-827h-154v1090z" />
    <glyph glyph-name="O.c2sc" horiz-adv-x="1226" 
d="M360.5 232.5q98.5 -121.5 253 -121.5t253 122.5t98.5 312.5t-99.5 310.5t-252 120.5t-252 -119.5t-99.5 -311.5t98.5 -313.5zM96 545q0 125 38 229.5t106.5 180t163 117.5t209 42t210 -42t164 -117.5t106 -180t37.5 -229.5t-37.5 -229.5t-106 -180.5t-164 -118t-210 -42
t-209 42t-163 118t-106.5 180.5t-38 229.5z" />
    <glyph glyph-name="P.c2sc" horiz-adv-x="980" 
d="M330 532h178q104 0 167.5 60t63.5 156t-63.5 155.5t-167.5 59.5h-178v-431zM172 1090h356q164 0 269.5 -95t105.5 -247t-104.5 -246t-270.5 -94h-198v-408h-158v1090z" />
    <glyph glyph-name="Q.c2sc" horiz-adv-x="1226" 
d="M360.5 232.5q98.5 -121.5 252.5 -121.5t252 122.5t98 312.5t-99.5 310.5t-250.5 120.5t-251 -119.5t-100 -311.5t98.5 -313.5zM96 545q0 125 38 229.5t106.5 180t163 117.5t266.5 42t316 -159t144 -410q0 -156 -58 -281t-163 -196l217 -236h-190l-158 174
q-78 -31 -180 -31t-195.5 42t-162 118t-106.5 180.5t-38 229.5z" />
    <glyph glyph-name="R.c2sc" horiz-adv-x="1013" 
d="M172 1090h350q162 0 264.5 -93t102.5 -227q0 -256 -236 -330l269 -440h-174l-252 420h-166v-420h-158v1090zM330 545h172q98 0 161.5 58.5t63.5 151.5t-63.5 150.5t-161.5 57.5h-172v-418z" />
    <glyph glyph-name="S.c2sc" horiz-adv-x="909" 
d="M407 106q119 0 181.5 53t62.5 125t-41 109t-101 63.5t-131 49t-172.5 81t-101.5 206.5q0 147 104 234t257 87t297 -65v-152q-137 84 -255 84t-179.5 -48.5t-61.5 -116.5t41 -104t101.5 -61.5t232.5 -80.5t172 -273q0 -141 -106 -231.5t-263 -90.5t-317 78v158
q161 -105 280 -105z" />
    <glyph glyph-name="T.c2sc" horiz-adv-x="976" 
d="M408 958h-345v132h850v-132h-344v-958h-161v958z" />
    <glyph glyph-name="U.c2sc" horiz-adv-x="1226" 
d="M1063 397q0 -185 -126 -303.5t-323.5 -118.5t-323.5 118t-126 304v693h162v-680q0 -128 80 -213.5t206.5 -85.5t207.5 85t81 214v680h162v-693z" />
    <glyph glyph-name="V.c2sc" horiz-adv-x="1064" 
d="M602 0h-137l-432 1090h166l333 -863l334 863h168z" />
    <glyph glyph-name="W.c2sc" horiz-adv-x="1675" 
d="M1266 0h-146l-280 881l-285 -881h-143l-373 1090h164l280 -883l283 883h143l285 -883l281 883h161z" />
    <glyph glyph-name="X.c2sc" horiz-adv-x="1073" 
d="M440 553l-389 537h187l299 -422l299 422h186l-389 -537l403 -553h-190l-309 438l-310 -438h-190z" />
    <glyph glyph-name="Y.c2sc" horiz-adv-x="999" 
d="M582 0h-162v469l-391 621h184l289 -474l284 474h187l-391 -621v-469z" />
    <glyph glyph-name="Z.c2sc" horiz-adv-x="1026" 
d="M119 958v132h796v-99l-628 -860h639v-131h-840v98l629 860h-596z" />
    <glyph glyph-name="Agrave.aalt" horiz-adv-x="1064" 
d="M352 412h365l-185 467zM465 1090h137l432 -1090h-160l-114 289h-455l-112 -289h-160zM258 1536h170l209 -303h-139z" />
    <glyph glyph-name="Aacute.aalt" horiz-adv-x="1064" 
d="M352 412h365l-185 467zM465 1090h137l432 -1090h-160l-114 289h-455l-112 -289h-160zM637 1536h170l-240 -303h-139z" />
    <glyph glyph-name="Acircumflex.aalt" horiz-adv-x="1064" 
d="M352 412h365l-185 467zM465 1090h137l432 -1090h-160l-114 289h-455l-112 -289h-160zM465 1536h137l209 -303h-133l-146 188l-143 -188h-135z" />
    <glyph glyph-name="Atilde.aalt" horiz-adv-x="1064" 
d="M352 412h365l-185 467zM465 1090h137l432 -1090h-160l-114 289h-455l-112 -289h-160zM225 1290q0 92 50 152t120 59q70 0 149 -58q30 -22 56 -40q26 -19 56 -19t53 26t22 69h109q0 -95 -49 -153t-119 -58t-149 58q-31 22 -57 40t-56 18t-54 -26q-23 -26 -22 -68h-109z
" />
    <glyph glyph-name="Adieresis.aalt" horiz-adv-x="1064" 
d="M352 412h365l-185 467zM465 1090h137l432 -1090h-160l-114 289h-455l-112 -289h-160zM327 1483q43 0 71 -27t28 -71q0 -45 -28 -73t-72 -28t-71 28q-28 28 -28 73q0 44 28 71t72 27zM840 1385q0 -45 -29 -73t-73 -28t-70 28t-27 73q0 44 27 71q26 27 70 27t73 -27t29 -71
z" />
    <glyph glyph-name="Aring.aalt" horiz-adv-x="1064" 
d="M352 412h365l-185 467zM465 1090h137l432 -1090h-160l-114 289h-455l-112 -289h-160zM424 1384q0 -48 31 -78t77 -30t78 31q31 31 31 77t-31 78q-31 31 -78 31q-48 0 -78 -31t-30 -78zM336 1383q0 87 55 143t142 55q87 0 141 -55q54 -54 55 -142q0 -88 -54 -142
q-53 -54 -141 -54t-143 54t-55 141z" />
    <glyph glyph-name="Amacron.aalt" horiz-adv-x="1064" 
d="M352 412h365l-185 467zM465 1090h137l432 -1090h-160l-114 289h-455l-112 -289h-160zM223 1444h619v-117h-619v117z" />
    <glyph glyph-name="Abreve.aalt" horiz-adv-x="1064" 
d="M352 412h365l-185 467zM465 1090h137l432 -1090h-160l-114 289h-455l-112 -289h-160zM367 1536q0 -78 47 -126q46 -48 118 -48t119 48t47 126h113q0 -133 -78 -214t-199 -81q-122 0 -202 82q-78 82 -78 213h113z" />
    <glyph glyph-name="Aogonek.aalt" horiz-adv-x="1064" 
d="M352 412h365l-185 467zM852 -224q0 -54 28.5 -82t73.5 -28t80 23v-111q-54 -27 -128 -27t-129.5 51.5t-55.5 133.5q0 147 188 264h-35l-114 289h-455l-112 -289h-160l432 1090h137l432 -1090q-88 -49 -135 -109.5t-47 -114.5z" />
    <glyph glyph-name="AE.aalt" horiz-adv-x="1478" 
d="M1364 1090v-129h-477v-347h416v-125h-416v-360h489v-129h-651v281h-379l-172 -281h-170l682 1090h678zM725 403v496l-303 -496h303z" />
    <glyph glyph-name="Cacute.aalt" horiz-adv-x="1021" 
d="M96 545q0 248 148 409q148 160 379 160q159 0 303 -80v-149q-141 92 -296 92t-262 -122q-106 -122 -106 -309t107 -312t276 -123q135 0 281 94v-152q-148 -76 -284 -77t-232 41q-195 85 -275 298q-39 105 -39 230zM700 1536h170l-239 -303h-139z" />
    <glyph glyph-name="Ccircumflex.aalt" horiz-adv-x="1021" 
d="M96 545q0 248 148 409q148 160 379 160q159 0 303 -80v-149q-141 92 -296 92t-262 -122q-106 -122 -106 -309t107 -312t276 -123q135 0 281 94v-152q-148 -76 -284 -77t-232 41q-195 85 -275 298q-39 105 -39 230zM528 1536h138l208 -303h-133l-145 188l-143 -188h-136z
" />
    <glyph glyph-name="Ccaron.aalt" horiz-adv-x="1021" 
d="M96 545q0 248 148 409q148 160 379 160q159 0 303 -80v-149q-141 92 -296 92t-262 -122q-106 -122 -106 -309t107 -312t276 -123q135 0 281 94v-152q-148 -76 -284 -77t-232 41q-195 85 -275 298q-39 105 -39 230zM666 1233h-138l-211 303h136l143 -186l145 186h133z" />
    <glyph glyph-name="Cdotaccent.aalt" horiz-adv-x="1021" 
d="M96 545q0 248 148 409q148 160 379 160q159 0 303 -80v-149q-141 92 -296 92t-262 -122q-106 -122 -106 -309t107 -312t276 -123q135 0 281 94v-152q-148 -76 -284 -77t-232 41q-195 85 -275 298q-39 105 -39 230zM496 1384q0 45 27 73q28 28 73 28t73 -28q27 -28 27 -73
q0 -44 -28 -72t-72 -28t-72 28t-28 72z" />
    <glyph glyph-name="Ccedilla.aalt" horiz-adv-x="1021" 
d="M642 1114q136 0 284 -80v-149q-141 92 -295 92t-261.5 -121t-107.5 -310t106 -312t277 -123q135 0 281 94v-152q-119 -65 -260 -73l-23 -97q70 -12 109 -59t39 -120t-67 -125t-159 -52t-164 39v112q73 -45 133 -45t91.5 25.5t31.5 65.5t-34.5 66t-100.5 26h-12l41 166
q-202 24 -328.5 177.5t-126.5 394.5t147 400.5t399 159.5z" />
    <glyph glyph-name="Dcaron.aalt" horiz-adv-x="1161" 
d="M334 131h188q169 0 274 115t105 298t-107 300q-107 116 -272 114h-188v-827zM172 1090h360q237 0 386 -154t149 -391t-150 -391t-385 -154h-360v1090zM627 1233h-138l-210 303h135l143 -186l145 186h134z" />
    <glyph glyph-name="Dcroat.aalt" horiz-adv-x="1185" 
d="M354 608h256v-112h-256v-367h195q167 0 273 115.5t106 298.5t-106 300.5t-273 117.5h-195v-353zM197 496h-156v112h156v482h360q235 0 385 -154t150 -392t-150 -391t-385 -153h-360v496z" />
    <glyph glyph-name="Egrave.aalt" horiz-adv-x="925" 
d="M172 1090h637v-129h-477v-347h418v-125h-418v-360h489v-129h-649v1090zM209 1536h170l209 -303h-139z" />
    <glyph glyph-name="Eacute.aalt" horiz-adv-x="925" 
d="M172 1090h637v-129h-477v-347h418v-125h-418v-360h489v-129h-649v1090zM588 1536h170l-240 -303h-139z" />
    <glyph glyph-name="Ecircumflex.aalt" horiz-adv-x="925" 
d="M172 1090h637v-129h-477v-347h418v-125h-418v-360h489v-129h-649v1090zM416 1536h137l209 -303h-133l-146 188l-143 -188h-135z" />
    <glyph glyph-name="Ecaron.aalt" horiz-adv-x="925" 
d="M172 1090h637v-129h-477v-347h418v-125h-418v-360h489v-129h-649v1090zM553 1233h-137l-211 303h135l143 -186l146 186h133z" />
    <glyph glyph-name="Edieresis.aalt" horiz-adv-x="925" 
d="M172 1090h637v-129h-477v-347h418v-125h-418v-360h489v-129h-649v1090zM377 1385q0 -45 -28 -73t-72 -28q-43 0 -71 28t-28 73q0 44 28 71t72 27t71 -27q28 -27 28 -71zM791 1385q0 -45 -29 -73t-73 -28q-45 0 -71 28t-26 73q0 44 26 71q27 27 71 27t73 -27t29 -71z" />
    <glyph glyph-name="Emacron.aalt" horiz-adv-x="925" 
d="M172 1090h637v-129h-477v-347h418v-125h-418v-360h489v-129h-649v1090zM174 1444h619v-117h-619v117z" />
    <glyph glyph-name="Ebreve.aalt" horiz-adv-x="925" 
d="M172 1090h637v-129h-477v-347h418v-125h-418v-360h489v-129h-649v1090zM317 1536q-1 -78 47 -126t120 -48t118 48q47 48 47 126h113q0 -131 -78 -213t-199 -82q-122 0 -202 82q-78 82 -78 213h112z" />
    <glyph glyph-name="Edotaccent.aalt" horiz-adv-x="925" 
d="M172 1090h637v-129h-477v-347h418v-125h-418v-360h489v-129h-649v1090zM383 1384q0 45 28 73q29 28 73 28t72 -28t28 -73q0 -44 -28 -72t-73 -28t-73 28t-27 72z" />
    <glyph glyph-name="Eogonek.aalt" horiz-adv-x="925" 
d="M172 1090h637v-129h-477v-347h418v-125h-418v-360h489v-129q-88 -49 -135 -109.5t-47 -114.5t28.5 -82t73.5 -28t80 23v-111q-53 -27 -127 -27t-130 51.5t-56 133.5q0 147 188 264h-524v1090z" />
    <glyph glyph-name="Gcircumflex.aalt" horiz-adv-x="1122" 
d="M656 -25q-258 0 -409 159t-151 410t149 410q149 160 388 160q166 0 325 -88v-156q-156 109 -317 109t-271 -121t-110 -311t107 -315t278 -123q94 0 201 45v295h-250v124h401v-507q-199 -91 -341 -91zM545 1536h137l209 -303h-133l-146 188l-143 -188h-135z" />
    <glyph glyph-name="Gbreve.aalt" horiz-adv-x="1122" 
d="M656 -25q-258 0 -409 159t-151 410t149 410q149 160 388 160q166 0 325 -88v-156q-156 109 -317 109t-271 -121t-110 -311t107 -315t278 -123q94 0 201 45v295h-250v124h401v-507q-199 -91 -341 -91zM446 1536q0 -78 48 -126t118 -48q72 0 119 48t47 126h113
q0 -131 -78 -213t-199 -82q-122 0 -202 82q-78 82 -78 213h112z" />
    <glyph glyph-name="Gdotaccent.aalt" horiz-adv-x="1122" 
d="M656 -25q-258 0 -409 159t-151 410t149 410q149 160 388 160q166 0 325 -88v-156q-156 109 -317 109t-271 -121t-110 -311t107 -315t278 -123q94 0 201 45v295h-250v124h401v-507q-199 -91 -341 -91zM512 1384q0 45 28 73t72 28t73 -28q28 -28 28 -73q0 -44 -28 -72
t-73 -28q-44 0 -72 28t-28 72z" />
    <glyph glyph-name="uni0122.aalt" horiz-adv-x="1122" 
d="M656 -25q-258 0 -409 159t-151 410t149 410q149 160 388 160q166 0 325 -88v-156q-156 109 -317 109t-271 -121t-110 -311t107 -315t278 -123q94 0 201 45v295h-250v124h401v-507q-199 -91 -341 -91zM553 -143h147l-147 -353h-129z" />
    <glyph glyph-name="Hcircumflex.aalt" horiz-adv-x="1226" 
d="M172 1090h162v-474h559v474h162v-1090h-162v487h-559v-487h-162v1090zM545 1536h137l209 -303h-133l-146 188l-143 -188h-135z" />
    <glyph glyph-name="Hbar.aalt" horiz-adv-x="1226" 
d="M334 614h559v166h-559v-166zM172 780h-143v109h143v201h162v-201h559v201h162v-201h143v-109h-143v-780h-162v489h-559v-489h-162v780z" />
    <glyph glyph-name="Igrave.aalt" horiz-adv-x="505" 
d="M172 1090h162v-1090h-162v1090zM-23 1536h170l209 -303h-139z" />
    <glyph glyph-name="Iacute.aalt" horiz-adv-x="505" 
d="M172 1090h162v-1090h-162v1090zM356 1536h170l-239 -303h-140z" />
    <glyph glyph-name="Icircumflex.aalt" horiz-adv-x="505" 
d="M172 1090h162v-1090h-162v1090zM184 1536h138l208 -303h-133l-145 188l-143 -188h-136z" />
    <glyph glyph-name="Itilde.aalt" horiz-adv-x="505" 
d="M172 1090h162v-1090h-162v1090zM-55 1290q0 92 50 152t121 59q71 0 147 -58q31 -22 57 -40q26 -19 56 -19t52 26t23 69h108q0 -95 -49 -153t-120 -58t-147 58q-30 22 -57 40q-28 18 -58 18t-52 -26t-23 -68h-108z" />
    <glyph glyph-name="Idieresis.aalt" horiz-adv-x="505" 
d="M172 1090h162v-1090h-162v1090zM46 1284q-44 0 -72 28t-27 73q0 44 27 71q28 27 72 27t72 -27t28 -71q0 -45 -28 -73t-72 -28zM458 1483q44 0 72 -27t29 -71q0 -45 -29 -73q-28 -28 -72 -28t-71 28t-27 73q0 44 27 71t71 27z" />
    <glyph glyph-name="Imacron.aalt" horiz-adv-x="505" 
d="M172 1090h162v-1090h-162v1090zM-57 1444h618v-117h-618v117z" />
    <glyph glyph-name="Ibreve.aalt" horiz-adv-x="505" 
d="M172 1090h162v-1090h-162v1090zM86 1536q0 -78 47 -126t119 -48t119 48t47 126h112q0 -132 -77 -213q-77 -82 -200 -82q-122 0 -200 81t-80 214h113z" />
    <glyph glyph-name="Idotaccent.aalt" horiz-adv-x="505" 
d="M152 1384.5q0 45.5 27.5 73t72.5 27.5t72.5 -27.5t27.5 -73t-27.5 -73t-72.5 -27.5t-72.5 27.5t-27.5 73zM172 1090h162v-1090h-162v1090z" />
    <glyph glyph-name="Iogonek.aalt" horiz-adv-x="505" 
d="M172 1090h162v-1090q-88 -49 -135 -109.5t-47 -114.5t28.5 -82t73.5 -28t80 23v-111q-53 -27 -128 -27t-130.5 51.5t-55.5 133.5q0 147 189 264h-37v1090z" />
    <glyph glyph-name="IJ.aalt" horiz-adv-x="1286" 
d="M172 1090h162v-1090h-162v1090zM768 111q82 0 137.5 55t55.5 141v783h161v-799q0 -138 -92.5 -227t-252.5 -89q-91 0 -193 52v141q102 -57 184 -57z" />
    <glyph glyph-name="Jcircumflex.aalt" horiz-adv-x="780" 
d="M262 111q82 0 137 55t56 141v783h161v-799q0 -136 -92 -226t-252 -90q-91 0 -194 52v141q102 -57 184 -57zM469 1536h137l209 -303h-133l-145 188l-144 -188h-135z" />
    <glyph glyph-name="uni0136.aalt" horiz-adv-x="1028" 
d="M172 1090h160v-478l454 478h197l-506 -537l520 -553h-200l-465 492v-492h-160v1090zM463 -143h147l-147 -353h-129z" />
    <glyph glyph-name="Lacute.aalt" horiz-adv-x="845" 
d="M172 1090h162v-959h454v-131h-616v1090zM356 1536h170l-239 -303h-140z" />
    <glyph glyph-name="Lcaron.aalt" horiz-adv-x="845" 
d="M563 1153h146l-129 -303h-127zM172 1090h162v-959h454v-131h-616v1090z" />
    <glyph glyph-name="Ldot.aalt" horiz-adv-x="845" 
d="M575 563q0 45 28 73t73 28t72.5 -28t27.5 -73t-27.5 -72.5t-72.5 -27.5t-73 27.5t-28 72.5zM172 1090h162v-959h454v-131h-616v1090z" />
    <glyph glyph-name="uni013B.aalt" horiz-adv-x="845" 
d="M172 1090h162v-959h454v-131h-616v1090zM401 -143h148l-148 -353h-129z" />
    <glyph glyph-name="Lslash.aalt" horiz-adv-x="868" 
d="M197 1090h161v-469l254 127v-134l-254 -127v-356h455v-131h-616v406l-129 -64v131l129 64v553z" />
    <glyph glyph-name="Nacute.aalt" horiz-adv-x="1226" 
d="M172 1090h143l586 -828v828h154v-1090h-144l-585 827v-827h-154v1090zM717 1536h170l-240 -303h-139z" />
    <glyph glyph-name="Ncaron.aalt" horiz-adv-x="1226" 
d="M172 1090h143l586 -828v828h154v-1090h-144l-585 827v-827h-154v1090zM682 1233h-137l-211 303h135l143 -186l146 186h133z" />
    <glyph glyph-name="Ntilde.aalt" horiz-adv-x="1226" 
d="M172 1090h143l586 -828v828h154v-1090h-144l-585 827v-827h-154v1090zM305 1290q0 92 50 152t120 59q70 0 149 -58q30 -22 56 -40q65 -44 108 7q23 26 23 69h109q0 -95 -50 -153t-118 -58q-69 0 -149 58q-31 22 -57 40t-56 18t-54 -26q-23 -26 -22 -68h-109z" />
    <glyph glyph-name="uni0145.aalt" horiz-adv-x="1226" 
d="M172 1090h143l586 -828v828h154v-1090h-144l-585 827v-827h-154v1090zM553 -143h147l-147 -353h-129z" />
    <glyph glyph-name="glyph684" horiz-adv-x="1609" 
d="M254 1409h162l-178 -426h-140zM557 1090h143l586 -828v828h154v-1090h-144l-585 827v-827h-154v1090z" />
    <glyph glyph-name="Ograve.aalt" horiz-adv-x="1226" 
d="M965 545q0 191 -99 311q-99 121 -252 121q-152 0 -252 -120t-100 -310t98 -315q100 -123 255 -122t253 123q97 121 97 312zM96 545q0 125 38 229q77 211 269 298q94 42 209 42q229 0 374 -160q146 -160 145 -411q-1 -250 -146 -409t-373 -159t-372 160t-144 410z
M338 1536h170l209 -303h-139z" />
    <glyph glyph-name="Oacute.aalt" horiz-adv-x="1226" 
d="M965 545q0 191 -99 311q-99 121 -252 121q-152 0 -252 -120t-100 -310t98 -315q100 -123 255 -122t253 123q97 121 97 312zM96 545q0 125 38 229q77 211 269 298q94 42 209 42q229 0 374 -160q146 -160 145 -411q-1 -250 -146 -409t-373 -159t-372 160t-144 410z
M717 1536h170l-240 -303h-139z" />
    <glyph glyph-name="Ocircumflex.aalt" horiz-adv-x="1226" 
d="M965 545q0 191 -99 311q-99 121 -252 121q-152 0 -252 -120t-100 -310t98 -315q100 -123 255 -122t253 123q97 121 97 312zM96 545q0 125 38 229q77 211 269 298q94 42 209 42q229 0 374 -160q146 -160 145 -411q-1 -250 -146 -409t-373 -159t-372 160t-144 410z
M545 1536h137l209 -303h-133l-146 188l-143 -188h-135z" />
    <glyph glyph-name="Otilde.aalt" horiz-adv-x="1226" 
d="M965 545q0 191 -99 311q-99 121 -252 121q-152 0 -252 -120t-100 -310t98 -315q100 -123 255 -122t253 123q97 121 97 312zM96 545q0 125 38 229q77 211 269 298q94 42 209 42q229 0 374 -160q146 -160 145 -411q-1 -250 -146 -409t-373 -159t-372 160t-144 410z
M305 1290q0 92 50 152t120 59q70 0 149 -58q30 -22 56 -40q65 -44 108 7q23 26 23 69h109q0 -95 -50 -153t-118 -58q-69 0 -149 58q-31 22 -57 40t-56 18t-54 -26q-23 -26 -22 -68h-109z" />
    <glyph glyph-name="Odieresis.aalt" horiz-adv-x="1226" 
d="M965 545q0 191 -99 311q-99 121 -252 121q-152 0 -252 -120t-100 -310t98 -315q100 -123 255 -122t253 123q97 121 97 312zM96 545q0 125 38 229q77 211 269 298q94 42 209 42q229 0 374 -160q146 -160 145 -411q-1 -250 -146 -409t-373 -159t-372 160t-144 410z
M407 1483q43 0 71 -27t28 -71q0 -45 -28 -73t-72 -28t-71 28q-28 28 -28 73q0 44 28 71t72 27zM920 1385q0 -45 -29 -73t-73 -28t-70 28t-27 73q0 44 27 71q26 27 70 27t73 -27t29 -71z" />
    <glyph glyph-name="Omacron.aalt" horiz-adv-x="1226" 
d="M965 545q0 191 -99 311q-99 121 -252 121q-152 0 -252 -120t-100 -310t98 -315q100 -123 255 -122t253 123q97 121 97 312zM96 545q0 125 38 229q77 211 269 298q94 42 209 42q229 0 374 -160q146 -160 145 -411q-1 -250 -146 -409t-373 -159t-372 160t-144 410z
M303 1444h619v-117h-619v117z" />
    <glyph glyph-name="Obreve.aalt" horiz-adv-x="1226" 
d="M965 545q0 191 -99 311q-99 121 -252 121q-152 0 -252 -120t-100 -310t98 -315q100 -123 255 -122t253 123q97 121 97 312zM96 545q0 125 38 229q77 211 269 298q94 42 209 42q229 0 374 -160q146 -160 145 -411q-1 -250 -146 -409t-373 -159t-372 160t-144 410z
M446 1536q0 -78 48 -126t118 -48q72 0 119 48t47 126h113q0 -131 -78 -213t-199 -82q-122 0 -202 82q-78 82 -78 213h112z" />
    <glyph glyph-name="Ohungarumlaut.aalt" horiz-adv-x="1226" 
d="M965 545q0 191 -99 311q-99 121 -252 121q-152 0 -252 -120t-100 -310t98 -315q100 -123 255 -122t253 123q97 121 97 312zM96 545q0 125 38 229q77 211 269 298q94 42 209 42q229 0 374 -160q146 -160 145 -411q-1 -250 -146 -409t-373 -159t-372 160t-144 410z
M541 1536h170l-238 -303h-139zM895 1536h170l-238 -303h-141z" />
    <glyph glyph-name="Oslash.aalt" horiz-adv-x="1226" 
d="M967 537q0 184 -80 294l-486 -645q90 -78 211 -77q158 0 256.5 122t98.5 306zM823 903q-86 76 -225 76t-239.5 -121t-100.5 -304t82 -296zM246 131q-150 158 -150 411t144.5 412.5t371.5 159.5q172 0 299 -94l54 70h114l-98 -132q149 -157 149 -411q0 -253 -144 -412.5
t-374 -159.5q-174 0 -297 95l-53 -70h-115z" />
    <glyph glyph-name="OE.aalt" horiz-adv-x="1550" 
d="M797 958h-160q-164 0 -270.5 -114.5t-106.5 -298.5t106 -300t271 -116h160v829zM1436 961h-480v-347h418v-125h-418v-360h492v-129h-819q-236 0 -384.5 152.5t-148.5 391.5t148 392.5t385 153.5h807v-129z" />
    <glyph glyph-name="Racute.aalt" horiz-adv-x="1013" 
d="M172 1090h350q165 0 266 -94t101 -226q0 -255 -236 -330l269 -440h-174l-252 420h-166v-420h-158v1090zM330 545h172q98 0 162 58q63 57 63 151t-63 151t-162 58h-172v-418zM612 1536h170l-239 -303h-140z" />
    <glyph glyph-name="Rcaron.aalt" horiz-adv-x="1013" 
d="M172 1090h350q165 0 266 -94t101 -226q0 -255 -236 -330l269 -440h-174l-252 420h-166v-420h-158v1090zM330 545h172q98 0 162 58q63 57 63 151t-63 151t-162 58h-172v-418zM578 1233h-138l-211 303h136l143 -186l145 186h133z" />
    <glyph glyph-name="uni0156.aalt" horiz-adv-x="1013" 
d="M172 1090h350q165 0 266 -94t101 -226q0 -255 -236 -330l269 -440h-174l-252 420h-166v-420h-158v1090zM330 545h172q98 0 162 58q63 57 63 151t-63 151t-162 58h-172v-418zM449 -143h147l-147 -353h-130z" />
    <glyph glyph-name="Sacute.aalt" horiz-adv-x="909" 
d="M407 106q119 0 181 52t63 126q0 72 -41 109q-69 63 -231 114q-275 87 -275 285q0 148 105 236t257 87t296 -66v-152q-137 84 -255 84t-179 -48q-62 -49 -62 -117t41 -104q67 -58 231 -110q275 -86 275 -292q0 -151 -105 -244q-106 -91 -263 -91t-318 78v158
q161 -105 280 -105zM559 1536h170l-240 -303h-139z" />
    <glyph glyph-name="Scircumflex.aalt" horiz-adv-x="909" 
d="M407 106q119 0 181 52t63 126q0 72 -41 109q-69 63 -231 114q-275 87 -275 285q0 148 105 236t257 87t296 -66v-152q-137 84 -255 84t-179 -48q-62 -49 -62 -117t41 -104q67 -58 231 -110q275 -86 275 -292q0 -151 -105 -244q-106 -91 -263 -91t-318 78v158
q161 -105 280 -105zM387 1536h137l209 -303h-133l-145 188l-144 -188h-135z" />
    <glyph glyph-name="Scaron.aalt" horiz-adv-x="909" 
d="M524 1233h-137l-211 303h135l144 -186l145 186h133zM407 106q119 0 181.5 53t62.5 125t-41 109t-101 63.5t-131 49t-172.5 81t-101.5 206.5q0 147 104 234t257 87t297 -65v-152q-137 84 -255 84t-179.5 -48.5t-61.5 -116.5t41 -104t101.5 -61.5t232.5 -80.5t172 -273
q0 -141 -106 -231.5t-263 -90.5t-317 78v158q161 -105 280 -105z" />
    <glyph glyph-name="Scedilla.aalt" horiz-adv-x="909" 
d="M407 106q119 0 181.5 53t62.5 125t-41 109t-101 63.5t-131 49t-172.5 81t-101.5 206.5q0 147 104 234t257 87t297 -65v-152q-137 84 -255 84t-179.5 -48.5t-61.5 -116.5t41 -104t101.5 -61.5t232.5 -80.5t172 -273q0 -121 -79 -205t-210 -106l-22 -103q70 -12 108.5 -59
t38.5 -120t-66.5 -125t-158.5 -52t-164 39v112q74 -45 133 -45t91 25.5t32 65.5t-35 66t-100 26h-14l41 161q-141 6 -281 76v158q161 -105 280 -105z" />
    <glyph glyph-name="uni0218.aalt" horiz-adv-x="909" 
d="M407 106q119 0 181 52t63 126q0 72 -41 109q-69 63 -231 114q-275 87 -275 285q0 148 105 236t257 87t296 -66v-152q-137 84 -255 84t-179 -48q-62 -49 -62 -117t41 -104q67 -58 231 -110q275 -86 275 -292q0 -151 -105 -244q-106 -91 -263 -91t-318 78v158
q161 -105 280 -105zM395 -143h148l-148 -353h-129z" />
    <glyph glyph-name="glyph703" horiz-adv-x="1226" 
d="M734 109q107 0 171 60.5t64 156.5t-75 155.5t-196 59.5h-49v98l223 322h-542v-961h-158v1090h895v-97l-238 -344q133 -16 217 -105.5t84 -229.5t-106 -239.5t-270 -99.5q-121 0 -246 60v149q119 -75 226 -75z" />
    <glyph glyph-name="Tcaron.aalt" horiz-adv-x="976" 
d="M408 958h-345v132h850v-132h-344v-958h-161v958zM557 1233h-137l-211 303h135l143 -186l146 186h133z" />
    <glyph glyph-name="Tbar.aalt" horiz-adv-x="976" 
d="M408 467h-224v119h224v372h-345v132h850v-132h-344v-372h226v-119h-226v-467h-161v467z" />
    <glyph glyph-name="Ugrave.aalt" horiz-adv-x="1226" 
d="M1063 397q0 -186 -126 -304q-125 -118 -323 -118q-197 0 -324 118q-126 118 -126 304v693h162v-680q0 -129 82 -215t206 -85q125 1 207 87t80 213v680h162v-693zM338 1536h170l209 -303h-139z" />
    <glyph glyph-name="Uacute.aalt" horiz-adv-x="1226" 
d="M1063 397q0 -186 -126 -304q-125 -118 -323 -118q-197 0 -324 118q-126 118 -126 304v693h162v-680q0 -129 82 -215t206 -85q125 1 207 87t80 213v680h162v-693zM717 1536h170l-240 -303h-139z" />
    <glyph glyph-name="Ucircumflex.aalt" horiz-adv-x="1226" 
d="M1063 397q0 -186 -126 -304q-125 -118 -323 -118q-197 0 -324 118q-126 118 -126 304v693h162v-680q0 -129 82 -215t206 -85q125 1 207 87t80 213v680h162v-693zM545 1536h137l209 -303h-133l-146 188l-143 -188h-135z" />
    <glyph glyph-name="Utilde.aalt" horiz-adv-x="1226" 
d="M1063 397q0 -186 -126 -304q-125 -118 -323 -118q-197 0 -324 118q-126 118 -126 304v693h162v-680q0 -129 82 -215t206 -85q125 1 207 87t80 213v680h162v-693zM305 1290q0 92 50 152t120 59q70 0 149 -58q30 -22 56 -40q65 -44 108 7q23 26 23 69h109q0 -95 -50 -153
t-118 -58q-69 0 -149 58q-31 22 -57 40t-56 18t-54 -26q-23 -26 -22 -68h-109z" />
    <glyph glyph-name="Udieresis.aalt" horiz-adv-x="1226" 
d="M1063 397q0 -186 -126 -304q-125 -118 -323 -118q-197 0 -324 118q-126 118 -126 304v693h162v-680q0 -129 82 -215t206 -85q125 1 207 87t80 213v680h162v-693zM407 1483q43 0 71 -27t28 -71q0 -45 -28 -73t-72 -28t-71 28q-28 28 -28 73q0 44 28 71t72 27zM920 1385
q0 -45 -29 -73t-73 -28t-70 28t-27 73q0 44 27 71q26 27 70 27t73 -27t29 -71z" />
    <glyph glyph-name="Uring.aalt" horiz-adv-x="1226" 
d="M1063 397q0 -186 -126 -304q-125 -118 -323 -118q-197 0 -324 118q-126 118 -126 304v693h162v-680q0 -129 82 -215t206 -85q125 1 207 87t80 213v680h162v-693zM504 1384q0 -48 31 -78t77 -30t78 31q31 31 31 77t-31 78q-31 31 -78 31q-48 0 -78 -31t-30 -78zM416 1383
q0 87 55 143t142 55q87 0 141 -55q54 -54 55 -142q0 -88 -54 -142q-53 -54 -141 -54t-143 54t-55 141z" />
    <glyph glyph-name="Umacron.aalt" horiz-adv-x="1226" 
d="M1063 397q0 -186 -126 -304q-125 -118 -323 -118q-197 0 -324 118q-126 118 -126 304v693h162v-680q0 -129 82 -215t206 -85q125 1 207 87t80 213v680h162v-693zM303 1444h619v-117h-619v117z" />
    <glyph glyph-name="Ubreve.aalt" horiz-adv-x="1226" 
d="M1063 397q0 -186 -126 -304q-125 -118 -323 -118q-197 0 -324 118q-126 118 -126 304v693h162v-680q0 -129 82 -215t206 -85q125 1 207 87t80 213v680h162v-693zM446 1536q0 -78 48 -126t118 -48q72 0 119 48t47 126h113q0 -131 -78 -213t-199 -82q-122 0 -202 82
q-78 82 -78 213h112z" />
    <glyph glyph-name="Uhungarumlaut.aalt" horiz-adv-x="1226" 
d="M1063 397q0 -186 -126 -304q-125 -118 -323 -118q-197 0 -324 118q-126 118 -126 304v693h162v-680q0 -129 82 -215t206 -85q125 1 207 87t80 213v680h162v-693zM539 1536h170l-238 -303h-139zM893 1536h170l-238 -303h-141z" />
    <glyph glyph-name="Uogonek.aalt" horiz-adv-x="1226" 
d="M612 -25q-195 0 -321.5 117t-126.5 307v691h162v-680q0 -128 79 -212.5t206 -84.5t208.5 80t81.5 217v680h162v-691q0 -123 -55.5 -216t-150.5 -147t-145 -123t-50 -129t28.5 -89t73.5 -29t80 23v-111q-52 -27 -128 -27q-75 0 -130.5 51.5t-55.5 125.5q0 141 136 252
q-30 -5 -54 -5z" />
    <glyph glyph-name="Wgrave.aalt" horiz-adv-x="1675" 
d="M1266 0h-146l-280 881l-285 -881h-143l-373 1090h164l280 -883l283 883h143l285 -883l281 883h161zM565 1536h170l209 -303h-139z" />
    <glyph glyph-name="Wacute.aalt" horiz-adv-x="1675" 
d="M1266 0h-146l-280 881l-285 -881h-143l-373 1090h164l280 -883l283 883h143l285 -883l281 883h161zM944 1536h170l-240 -303h-139z" />
    <glyph glyph-name="Wcircumflex.aalt" horiz-adv-x="1675" 
d="M1266 0h-146l-280 881l-285 -881h-143l-373 1090h164l280 -883l283 883h143l285 -883l281 883h161zM772 1536h137l209 -303h-133l-145 188l-144 -188h-135z" />
    <glyph glyph-name="Wdieresis.aalt" horiz-adv-x="1675" 
d="M1266 0h-146l-280 881l-285 -881h-143l-373 1090h164l280 -883l283 883h143l285 -883l281 883h161zM634 1284q-44 0 -72 28t-27 73q0 44 27 71q28 27 72 27t72 -27t28 -71q0 -45 -28 -73t-72 -28zM1046 1483q44 0 72 -27t29 -71q0 -45 -29 -73q-28 -28 -72 -28t-71 28
t-27 73q0 44 27 71t71 27z" />
    <glyph glyph-name="Ygrave.aalt" horiz-adv-x="999" 
d="M582 0h-162v469l-391 621h184l289 -474l284 474h187l-391 -621v-469zM225 1536h170l209 -303h-139z" />
    <glyph glyph-name="Yacute.aalt" horiz-adv-x="999" 
d="M582 0h-162v469l-391 621h184l289 -474l284 474h187l-391 -621v-469zM604 1536h170l-239 -303h-140z" />
    <glyph glyph-name="Ycircumflex.aalt" horiz-adv-x="999" 
d="M582 0h-162v469l-391 621h184l289 -474l284 474h187l-391 -621v-469zM432 1536h137l209 -303h-133l-145 188l-144 -188h-135z" />
    <glyph glyph-name="Ydieresis.aalt" horiz-adv-x="999" 
d="M582 0h-162v469l-391 621h184l289 -474l284 474h187l-391 -621v-469zM294 1284q-44 0 -72 28t-27 73q0 44 27 71q28 27 72 27t72 -27t28 -71q0 -45 -28 -73t-72 -28zM706 1483q44 0 72 -27t29 -71q0 -45 -29 -73q-28 -28 -72 -28t-71 28t-27 73q0 44 27 71t71 27z" />
    <glyph glyph-name="Zacute.aalt" horiz-adv-x="1026" 
d="M119 958v132h796v-99l-628 -860h639v-131h-840v98l629 860h-596zM616 1536h170l-239 -303h-139z" />
    <glyph glyph-name="Zcaron.aalt" horiz-adv-x="1026" 
d="M582 1233h-138l-211 303h136l143 -186l145 186h134zM119 958v132h796v-99l-628 -860h639v-131h-840v98l629 860h-596z" />
    <glyph glyph-name="Zdotaccent.aalt" horiz-adv-x="1026" 
d="M119 958v132h796v-99l-628 -860h639v-131h-840v98l629 860h-596zM412 1384q0 45 27 73q28 28 73 28t73 -28q27 -28 27 -73q0 -44 -28 -72t-72 -28t-72 28t-28 72z" />
    <glyph glyph-name="Eng.aalt" horiz-adv-x="1226" 
d="M702 -338q84 0 140.5 55.5t56.5 141.5v159l-573 809v-827h-154v1090h141l588 -828v828h154v-1248q0 -136 -91.5 -225.5t-254.5 -89.5q-92 0 -193 51v141q102 -57 186 -57z" />
    <glyph glyph-name="Eth.aalt" horiz-adv-x="1185" 
d="M354 608h256v-112h-256v-367h195q167 0 273 115.5t106 298.5t-106 300.5t-273 117.5h-195v-353zM197 496h-156v112h156v482h360q235 0 385 -154t150 -392t-150 -391t-385 -153h-360v496z" />
    <glyph glyph-name="Thorn.aalt" horiz-adv-x="985" 
d="M330 338h178q104 0 167.5 59.5t63.5 155.5t-63.5 155.5t-167.5 59.5h-178v-430zM172 1090h158v-197h198q166 0 270.5 -94.5t104.5 -245.5t-104.5 -245.5t-270.5 -94.5h-198v-213h-158v1090z" />
    <glyph glyph-name="quoteleft.aalt" horiz-adv-x="512" 
d="M258 664h-160l178 426h140z" />
    <glyph glyph-name="quoteright.aalt" horiz-adv-x="512" 
d="M254 1090h162l-178 -426h-140z" />
    <glyph glyph-name="quotedblleft.aalt" horiz-adv-x="858" 
d="M258 664h-160l178 426h140zM604 664h-162l181 426h137z" />
    <glyph glyph-name="quotedblright.aalt" horiz-adv-x="858" 
d="M600 1090h160l-178 -426h-140zM254 1090h162l-178 -426h-140z" />
    <glyph glyph-name="exclam.aalt" horiz-adv-x="499" 
d="M152 76q0 43 26.5 71.5t70.5 28.5t72.5 -28.5t28.5 -71.5t-28.5 -72t-72.5 -29t-70.5 29t-26.5 72zM172 1090h158v-764h-158v764z" />
    <glyph glyph-name="exclamdown.c2sc" horiz-adv-x="456" 
d="M328 1014q0 -43 -27 -72t-72 -29t-72.5 29t-27.5 72t27.5 71.5t72.5 28.5t72 -28.5t27 -71.5zM307 0h-157v764h157v-764z" />
    <glyph glyph-name="question.aalt" horiz-adv-x="749" 
d="M227 76q0 43 28 71.5t72 28.5t71.5 -28.5t27.5 -71.5t-27.5 -72t-71.5 -29t-72 29t-28 72zM339 1114q136 0 219 -78t83 -205t-96.5 -234.5t-120 -155.5t-23.5 -91v-24h-151v34q0 82 34.5 140.5t78 106.5t78 96.5t34.5 116.5t-46 111.5t-120 43.5q-122 0 -233 -105v154
q127 90 263 90z" />
    <glyph glyph-name="questiondown.c2sc" horiz-adv-x="749" 
d="M520 1014q0 -43 -27.5 -72t-70.5 -29t-71.5 29t-28.5 72t28.5 71.5t71.5 28.5t70.5 -28.5t27.5 -71.5zM109 252q0 86 36.5 149.5t81.5 116.5t82 104.5t37 114.5v27h152v-35q0 -84 -35 -141.5t-77 -105.5t-77 -97t-35 -116t45.5 -110.5t118.5 -43.5q119 0 236 104v-153
q-129 -91 -266 -91t-218 78t-81 199z" />
    <glyph glyph-name="slash.c2sc" horiz-adv-x="641" 
d="M414 1237h159l-346 -1384h-159z" />
    <glyph glyph-name="backslash.c2sc" horiz-adv-x="641" 
d="M68 1237h159l346 -1384h-159z" />
    <glyph glyph-name="parenleft.c2sc" horiz-adv-x="557" 
d="M135 543q0 382 234 694h163q-239 -305 -239 -691.5t239 -692.5h-163q-234 308 -234 690z" />
    <glyph glyph-name="parenright.c2sc" horiz-adv-x="557" 
d="M422 542q0 -386 -232 -689h-167q241 303 241 691t-241 693h167q232 -309 232 -695z" />
    <glyph glyph-name="bracketleft.c2sc" horiz-adv-x="557" 
d="M172 1237h322v-123h-166v-1139h166v-122h-322v1384z" />
    <glyph glyph-name="bracketright.c2sc" horiz-adv-x="557" 
d="M385 -147h-322v122h166v1139h-166v123h322v-1384z" />
    <glyph glyph-name="glyph744" horiz-adv-x="557" 
d="M494 1114h-17q-59 0 -97 -40t-38 -101v-230q0 -72 -37 -124t-102 -74q66 -23 102.5 -75t36.5 -124v-231q0 -61 38 -100.5t97 -39.5h17v-122h-43q-117 0 -191 69.5t-74 179.5v234q0 66 -32.5 105.5t-85.5 39.5h-17v125h17q53 0 85.5 41t32.5 107v233q0 111 74 180.5
t191 69.5h43v-123z" />
    <glyph glyph-name="glyph745" horiz-adv-x="557" 
d="M63 -25h17q59 0 97 40t38 102v229q0 72 37 124t102 75q-66 23 -102.5 75t-36.5 123v232q0 61 -38 100t-97 39h-17v123h46q117 0 189.5 -69.5t72.5 -180.5v-233q0 -66 33.5 -107t87.5 -41h14v-125h-14q-53 0 -87 -40t-34 -105v-234q0 -111 -73 -180t-189 -69h-46v122z" />
    <glyph glyph-name="ampersand.aalt" horiz-adv-x="1069" 
d="M264 297q0 -84 64 -137.5t160 -53.5t180 44v342h-154q-113 0 -181.5 -55.5t-68.5 -139.5zM504 981q-107 0 -161 -48t-54 -129t64.5 -136.5t170.5 -55.5h506v-120h-205v-426q-170 -90 -340 -90t-277.5 84t-107.5 221q0 98 55.5 173.5t151.5 108.5q-86 29 -133 99t-47 146
q0 143 94.5 224.5t236.5 81.5t275 -67v-146q-122 80 -229 80z" />
    <glyph glyph-name="at.c2sc" horiz-adv-x="1593" 
d="M610 544.5q0 -104.5 51.5 -169t137.5 -64.5t147 68v332q-63 67 -148 67t-136.5 -64.5t-51.5 -169zM946 891h148v-465q0 -51 27.5 -81t68.5 -30q76 0 122 80t46 206q0 243 -151.5 394.5t-399.5 151.5t-408.5 -168t-160.5 -433t165 -435t424 -170q182 0 365 106v-127
q-180 -96 -352 -96q-335 0 -539.5 205.5t-204.5 515.5q0 158 53.5 291t202 281.5t453.5 148.5t498.5 -181.5t193.5 -461.5q0 -190 -93.5 -314.5t-232.5 -124.5q-138 0 -192 90q-90 -90 -219 -90t-215 100.5t-86 261t86.5 260t234.5 99.5q84 0 166 -71v57z" />
    <glyph glyph-name="zero.salt" horiz-adv-x="1009" 
d="M329.5 233q65.5 -120 174.5 -120q108 0 176 118.5t68 364.5t-94.5 312.5t-148.5 66.5t-98.5 -31t-93.5 -118t-49 -280t65.5 -313zM793 958q112 -156 112 -413q0 -256 -112 -413t-289 -157t-288.5 158t-111.5 412t112 411.5t288.5 157.5t288.5 -156z" />
    <glyph glyph-name="one.salt" horiz-adv-x="677" 
d="M502 1090v-1090h-162v915l-277 -155v147l326 183h113z" />
    <glyph glyph-name="two.salt" horiz-adv-x="837" 
d="M92 1024q155 90 302 90t237 -90t90 -231q0 -197 -160 -372t-280 -286h452v-135h-670v104q384 344 438 475.5t54 184.5q0 96 -55.5 153.5t-143.5 57.5q-133 0 -264 -107v156z" />
    <glyph glyph-name="three.salt" horiz-adv-x="825" 
d="M565 297q0 84 -65.5 138t-173.5 54h-64v125h55q100 0 162 54.5t62 135.5t-54.5 129t-160.5 48t-230 -80v146q126 67 271 67t239 -81.5t94 -211.5q0 -90 -46 -159.5t-132 -98.5q96 -33 151.5 -108.5t55.5 -158.5q0 -148 -104 -234.5t-260 -86.5t-295 70v148
q135 -84 252 -84q116 0 179.5 52t63.5 136z" />
    <glyph glyph-name="four.salt" horiz-adv-x="929" 
d="M545 414v456l-332 -456h332zM545 287h-486v102l506 701h129v-676h172v-127h-172v-287h-149v287z" />
    <glyph glyph-name="five.salt" horiz-adv-x="837" 
d="M686 956h-414v-297q61 12 119 13q160 0 256 -92.5t96 -248.5t-110.5 -256t-282.5 -100q-129 0 -252 64v156q119 -82 234 -82t181.5 61.5t66.5 159.5t-66 157.5t-170 59.5t-215 -29v568h557v-134z" />
    <glyph glyph-name="six.salt" horiz-adv-x="921" 
d="M256 365q0 -113 55.5 -183.5t149.5 -70.5t154.5 65.5t60.5 163.5t-56 159.5t-158 61.5t-200 -94q-6 -34 -6 -102zM487 694q166 0 257.5 -98t91.5 -254t-107.5 -261.5t-269.5 -105.5t-262.5 115t-100.5 294t97.5 361.5t281.5 344.5h209q-285 -223 -385 -465q97 69 188 69z
" />
    <glyph glyph-name="seven.salt" horiz-adv-x="757" 
d="M18 954v136h693v-95l-420 -995h-164l408 954h-517z" />
    <glyph glyph-name="eight.salt" horiz-adv-x="929" 
d="M272 801q0 -82 53.5 -134.5t139.5 -52.5t139 52.5t53 134.5t-53 133t-139 51t-139.5 -51t-53.5 -133zM252 297q0 -86 59.5 -140.5t153.5 -54.5t153.5 54.5t59.5 140.5t-59.5 139t-153.5 53t-153.5 -53t-59.5 -139zM121 797q0 78 25.5 133t70.5 96t108.5 64.5t177 23.5
t210 -87.5t96.5 -217.5q0 -90 -48 -156.5t-130 -95.5q94 -29 148.5 -100.5t54.5 -154.5t-27 -140.5t-76 -98t-116.5 -64.5t-188 -24t-225.5 87t-105 225q0 98 54.5 169.5t148.5 100.5q-82 29 -130 95.5t-48 144.5z" />
    <glyph glyph-name="nine.salt" horiz-adv-x="921" 
d="M666 725q0 111 -55.5 181.5t-149.5 70.5t-154.5 -64.5t-60.5 -163t55 -161t157 -62.5t199 97q9 52 9 102zM86 749q0 155 107 260t268 105t262.5 -113.5t101.5 -293.5t-97 -362.5t-284 -344.5h-206q287 227 383 463q-100 -70 -188 -70q-165 0 -256 100.5t-91 255.5z" />
    <glyph glyph-name="dollar.salt" horiz-adv-x="897" 
d="M420 160q86 0 143.5 42t57.5 106t-37 97t-92.5 55.5t-212 72t-156.5 243.5q0 106 69.5 179t184.5 94v233h141v-227q105 -8 215 -54v-147q-129 76 -233 76t-159.5 -40t-55.5 -102t36.5 -92t92 -52.5t211 -70.5t155.5 -249q0 -111 -71.5 -187t-190.5 -98v-232h-141v228
q-121 6 -236 63v154q133 -92 279 -92z" />
    <glyph glyph-name="cent.salt" horiz-adv-x="897" 
d="M295 546q0 -126 70.5 -206t182.5 -80t212 68v-142q-88 -47 -180 -53v-229h-142v235q-139 27 -222 136.5t-83 269.5t83 268.5t222 134.5v238h142v-230q96 -8 180 -53v-141q-100 68 -212 68t-182.5 -79t-70.5 -205z" />
    <glyph glyph-name="Euro.salt" horiz-adv-x="897" 
d="M653 717v-101h-360q-2 -18 -2 -22v-55q0 -50 2 -66h360v-100h-336q33 -123 113 -196t190.5 -73t210.5 70v-139q-113 -59 -237 -60q-170 0 -288 109t-159 289h-127v100h111q-4 32 -4 69.5t4 73.5h-111v101h127q41 180 159 288.5t288 108.5q125 0 237 -59v-140
q-99 68 -210 68t-191 -71.5t-113 -194.5h336z" />
    <glyph glyph-name="sterling.salt" horiz-adv-x="897" 
d="M102 494v116h142l78 271q33 111 110.5 172t172.5 61t175 -37v-139q-72 41 -136 41t-108 -37t-63 -102l-67 -230h241v-116h-274l-105 -365h553v-129h-729v88l117 406h-107z" />
    <glyph glyph-name="yen.salt" horiz-adv-x="897" 
d="M369 223h-242v101h242v149h-242v100h205l-324 517h185l256 -426l256 426h184l-326 -517h207v-100h-242v-149h242v-101h-242v-223h-159v223z" />
    <glyph glyph-name="hyphen.aalt" horiz-adv-x="641" 
d="M72 778h497v-129h-497v129z" />
    <glyph glyph-name="uni00AD.aalt" horiz-adv-x="641" 
d="M72 778h497v-129h-497v129z" />
    <glyph glyph-name="endash.aalt" horiz-adv-x="1024" 
d="M72 778h880v-129h-880v129z" />
    <glyph glyph-name="emdash.aalt" horiz-adv-x="2048" 
d="M72 778h1904v-129h-1904v129z" />
    <glyph glyph-name="periodcentered.aalt" horiz-adv-x="512" 
d="M147 706q0 48 31 78.5t78 30.5t78 -30.5t31 -78.5t-31 -79t-78 -31t-78 31t-31 79z" />
    <glyph glyph-name="slash.case" horiz-adv-x="768" 
d="M526 1602h166l-448 -1792h-166z" />
    <glyph glyph-name="backslash.case" horiz-adv-x="768" 
d="M78 1602h166l448 -1792h-166z" />
    <glyph glyph-name="parenleft.case" horiz-adv-x="657" 
d="M160 706q0 490 303 896h172q-313 -400 -313 -897t313 -895h-172q-303 406 -303 896z" />
    <glyph glyph-name="parenright.case" horiz-adv-x="657" 
d="M498 706.5q0 -492.5 -301 -896.5h-174q313 400 313 895q0 494 -313 897h174q301 -403 301 -895.5z" />
    <glyph glyph-name="bracketleft.case" horiz-adv-x="657" 
d="M215 1602h383v-127h-223v-1538h223v-127h-383v1792z" />
    <glyph glyph-name="bracketright.case" horiz-adv-x="657" 
d="M442 -190h-383v127h224v1538h-224v127h383v-1792z" />
    <glyph glyph-name="braceleft.aalt" horiz-adv-x="657" 
d="M598 1475h-20q-84 0 -136.5 -54.5t-52.5 -140.5v-319q0 -92 -46 -160t-128 -94q82 -29 128 -96.5t46 -159.5v-320q0 -86 52.5 -140t136.5 -54h20v-127h-43q-144 0 -235 89t-91 220v321q0 90 -46 146.5t-117 56.5h-23v125h23q72 0 117.5 56.5t45.5 146.5v321
q0 133 92 221.5t234 88.5h43v-127z" />
    <glyph glyph-name="braceright.aalt" horiz-adv-x="657" 
d="M59 -63h21q84 0 136 54t52 140v320q0 92 46 159.5t130 96.5q-84 27 -130 94t-46 160v319q0 86 -52 140.5t-136 54.5h-21v127h45q143 0 233.5 -87t90.5 -223v-321q0 -90 46 -146.5t118 -56.5h20v-125h-20q-72 0 -118 -56.5t-46 -146.5v-321q0 -134 -89.5 -221.5
t-234.5 -87.5h-45v127z" />
    <glyph glyph-name="guilsinglleft.aalt" horiz-adv-x="778" 
d="M307 705l373 -424h-176l-404 424l404 425h176z" />
    <glyph glyph-name="guilsinglright.aalt" horiz-adv-x="778" 
d="M473 705l-373 425h174l406 -425l-406 -424h-174z" />
    <glyph glyph-name="guillemotleft.aalt" horiz-adv-x="1220" 
d="M307 705l373 -424h-176l-404 424l404 425h176zM748 705l372 -424h-174l-405 424l405 425h174z" />
    <glyph glyph-name="guillemotright.aalt" horiz-adv-x="1220" 
d="M913 705l-372 425h176l403 -425l-403 -424h-176zM473 705l-373 425h174l406 -425l-406 -424h-174z" />
    <glyph glyph-name="exclamdown.case" horiz-adv-x="546" 
d="M383 1324q0 -48 -30.5 -79t-78.5 -31t-79 31t-31 79t30.5 79t78.5 31t79 -31t31 -79zM356 0h-166v1010h166v-1010z" />
    <glyph glyph-name="questiondown.case" horiz-adv-x="909" 
d="M594 958q0 -160 -122 -291.5t-151.5 -196t-29.5 -126.5q0 -100 64.5 -163.5t168.5 -63.5q156 0 310 141v-164q-158 -117 -331 -117t-277.5 98t-104.5 257t129 304t159.5 210t30.5 125v39h154v-52zM627 1324q0 -48 -32 -79t-79 -31t-77.5 31t-30.5 79t30.5 79t77.5 31
t79 -31t32 -79z" />
    </font>
</defs>
</svg>
