<svg width="1920" height="574" viewBox="0 0 1920 574" fill="none" xmlns="http://www.w3.org/2000/svg">
<mask id="mask0_179_440" style="mask-type:luminance" maskUnits="userSpaceOnUse" x="0" y="0" width="1920" height="574">
<path fill-rule="evenodd" clip-rule="evenodd" d="M0 0H1920V574H0V0Z" fill="white"/>
</mask>
<g mask="url(#mask0_179_440)">
<path fill-rule="evenodd" clip-rule="evenodd" d="M1920.41 57.2275C1706.37 103.716 1466.63 212.054 1185.94 367.312C770.177 597.281 362.27 468.23 0.412109 341.171V574.091H1920.41V57.2275Z" fill="url(#paint0_linear_179_440)"/>
<path fill-rule="evenodd" clip-rule="evenodd" d="M1920.41 0.760559C1687.06 70.8914 1429.16 192.482 1135.74 354.784C745.135 570.836 360.038 535.285 0.412109 436.857V574.091H1920.41V0.760559Z" fill="#181818"/>
<path fill-rule="evenodd" clip-rule="evenodd" d="M1920.41 0.760559C1687.06 70.8914 1429.16 192.482 1135.74 354.784C745.135 570.836 360.038 535.285 0.412109 436.857V574.091H1920.41V0.760559Z" fill="#272727"/>
<path fill-rule="evenodd" clip-rule="evenodd" d="M2006.23 535.014C1942.21 514.885 1876.11 501.919 1809.9 494.318C1743.05 486.642 1675.66 484.914 1608.7 489.12C1541.44 493.346 1474.59 503.568 1409.15 519.786C1341.45 536.564 1276.23 561.575 1209.71 582.471C1143.66 603.217 1075.11 619.984 1005.41 616.376C996.727 615.927 988.059 615.153 979.415 614.135C978.924 614.077 979.078 616.322 979.783 616.412C1049.12 625.347 1118.49 611.788 1184.79 592.307C1251.74 572.634 1316.93 546.996 1384.25 528.616C1448.71 511.018 1514.68 499.309 1581.19 493.479C1648.02 487.621 1715.4 487.707 1782.38 493.736C1849.62 499.787 1916.45 511.851 1981.92 529.783C1990.05 532.008 1998.18 534.171 2006.29 536.467C2006.76 536.599 2006.64 535.143 2006.23 535.014V535.014Z" fill="url(#paint1_linear_179_440)"/>
<path fill-rule="evenodd" clip-rule="evenodd" d="M1172.93 587.538C1240.33 569.06 1305.69 543.552 1373.11 525.114C1437.96 507.376 1504.25 495.186 1571.1 488.561C1637.96 481.936 1705.4 480.871 1772.57 485.377C1840.53 489.934 1907.41 501.2 1974.16 515.805C1982.47 517.625 1990.74 519.73 1998.99 521.85C1999.42 521.959 1999.31 520.669 1998.94 520.571C1933.66 503.166 1867.38 491.419 1800.44 485.348C1733.35 479.264 1665.89 478.761 1598.89 483.83C1531.58 488.922 1464.72 499.631 1399.19 515.945C1331.66 532.756 1266.43 557.362 1199.82 577.425C1134.26 597.171 1065.99 612.366 997.102 606.148C988.463 605.369 979.839 604.253 971.253 602.923C970.875 602.865 970.996 604.628 971.448 604.71C1038.93 617.037 1107.77 605.403 1172.93 587.538V587.538Z" fill="url(#paint2_linear_179_440)"/>
<path fill-rule="evenodd" clip-rule="evenodd" d="M2003.23 462.711C1968.65 451.468 1932.94 443.76 1897.36 437.395C1862.18 431.101 1826.73 426.645 1791.19 424.032C1755.19 421.386 1719.1 420.63 1683.08 421.77C1647.24 422.903 1611.47 425.912 1575.96 430.798C1543.15 435.313 1510.23 441.048 1478.05 449.171C1484.23 446.424 1490.43 443.701 1496.64 441.009C1528.27 433.489 1560.24 427.448 1592.43 423.025C1625.13 418.533 1658.05 415.684 1691.05 414.474C1724.2 413.26 1757.43 413.698 1790.59 415.788C1823.86 417.886 1857.05 421.643 1890.03 427.067C1922.89 432.473 1955.47 439.651 1987.8 448.02C1991.81 449.057 1995.81 450.111 1999.82 451.151C2000.29 451.272 2000.16 449.85 1999.76 449.726C1967.75 439.936 1934.99 432.739 1902.19 426.919C1869.48 421.117 1836.54 416.948 1803.51 414.419C1770.37 411.882 1737.14 410.996 1703.97 411.765C1670.65 412.537 1637.38 414.979 1604.33 419.094C1572.11 423.104 1540.08 428.674 1508.42 435.941C1511.58 434.594 1514.74 433.25 1517.91 431.919C1522.93 429.808 1527.95 427.728 1532.99 425.666L1540.55 422.595C1543.08 421.584 1545.61 420.615 1548.14 419.624C1549.41 419.136 1550.66 418.624 1551.94 418.157L1555.76 416.757C1556.51 416.484 1557.27 416.208 1558.02 415.93C1570.09 414.617 1579.48 413.236 1592.51 411.71C1607.41 409.965 1622.34 408.454 1637.29 407.177C1667.49 404.597 1697.77 402.974 1728.08 402.311C1757.51 401.666 1786.89 402.261 1816.25 405.224C1845.43 408.169 1874.44 413.003 1903.28 418.72C1931.94 424.402 1960.39 431.167 1988.88 437.808C1992.48 438.648 1996.09 439.491 1999.69 440.333C2000.19 440.45 2000.06 438.957 1999.63 438.85C1971.05 431.84 1942.43 425.035 1913.67 418.987C1885.21 413.002 1856.58 407.91 1827.77 404.52C1798.41 401.065 1769 399.749 1739.52 400.122C1709.26 400.506 1679.01 401.917 1648.85 404.247C1619.47 406.518 1594.71 409.065 1565.79 413.193L1571.12 411.368L1578.87 408.882C1580.6 408.344 1582.33 407.815 1584.06 407.292C1597.36 405.49 1620 401.741 1632.88 400.119C1646.18 398.444 1659.53 397.111 1672.9 396.061C1699.52 393.969 1726.24 392.93 1752.96 392.603C1779.38 392.278 1805.87 392.365 1832.26 394.57C1858.25 396.74 1884.06 401.063 1909.64 406.5C1934.92 411.872 1959.88 418.747 1985.05 424.625C1988.24 425.368 1991.43 426.115 1994.61 426.86C1994.93 426.934 1994.84 426.007 1994.57 425.93C1969.4 418.568 1944 412.056 1918.47 406.372C1893.35 400.782 1868.03 396.149 1842.51 393.457C1816.13 390.671 1789.63 390.223 1763.17 390.379C1736.31 390.537 1709.46 391.242 1682.67 393.095C1656.05 394.937 1629.49 397.844 1603.18 402.271C1602.43 402.396 1601.18 402.594 1599.65 402.837C1603.15 401.89 1606.66 400.974 1610.18 400.095C1620.71 397.507 1631.31 395.233 1641.97 393.249C1644.63 392.773 1647.29 392.252 1649.97 391.816L1657.99 390.497L1666.03 389.312C1668.71 388.91 1671.4 388.596 1674.08 388.234C1684.84 386.869 1695.63 385.792 1706.44 384.996C1749.7 381.819 1793.31 383.16 1836.53 388.364C1847.34 389.664 1858.12 391.212 1868.87 393.015C1879.62 394.811 1890.34 396.844 1901.02 399.139C1911.69 401.424 1922.32 403.974 1932.89 406.795C1938.17 408.208 1943.44 409.697 1948.68 411.267C1953.93 412.846 1959.16 414.487 1964.32 416.322L1964.45 415.937C1959.27 414.064 1954.05 412.391 1948.81 410.777C1943.57 409.171 1938.31 407.649 1933.03 406.202C1922.46 403.312 1911.84 400.693 1901.16 398.338C1890.49 395.974 1879.77 393.871 1869.01 392.007C1858.26 390.135 1847.47 388.516 1836.65 387.146C1793.39 381.663 1749.69 380.042 1706.28 382.957C1695.43 383.703 1684.6 384.733 1673.81 386.052C1671.11 386.402 1668.41 386.705 1665.72 387.095L1657.65 388.247L1649.59 389.533C1646.9 389.959 1644.23 390.469 1641.55 390.932C1630.85 392.875 1620.2 395.106 1609.62 397.657C1599.04 400.242 1588.54 403.136 1578.12 406.334L1570.33 408.794L1562.58 411.407C1559.99 412.255 1557.44 413.22 1554.87 414.136L1551.02 415.524C1549.74 415.987 1548.47 416.496 1547.2 416.98C1544.65 417.964 1542.1 418.928 1539.56 419.929L1531.97 422.969C1526.92 425.011 1521.87 427.07 1516.84 429.161C1496.7 437.513 1476.7 446.228 1456.79 455.128C1416.96 472.92 1377.45 491.455 1337.72 509.391C1317.87 518.397 1297.95 527.231 1277.92 535.759C1257.91 544.313 1237.75 552.525 1217.39 560.098C1197.04 567.723 1176.47 574.7 1155.62 580.67C1134.78 586.649 1113.65 591.565 1092.25 594.869C1070.86 598.135 1049.19 599.76 1027.52 598.814C1016.68 598.36 1005.86 597.257 995.133 595.406C989.77 594.481 984.432 593.366 979.132 592.062C973.829 590.768 968.564 589.28 963.353 587.59L963.239 587.979C983.967 595.334 1005.69 599.301 1027.45 600.674C1049.25 602.007 1071.1 600.731 1092.67 597.711C1103.45 596.212 1114.18 594.267 1124.82 591.968C1135.47 589.672 1146.05 587.052 1156.55 584.15C1173.5 579.454 1190.26 574.053 1206.86 568.202C1251.57 553.576 1296.36 539.164 1341.54 526.163C1395.39 510.669 1449.96 497.406 1505.18 488.083C1557.25 479.287 1609.93 474.212 1662.75 472.836C1715.83 471.453 1769.05 473.812 1821.94 479.877C1875.29 485.997 1928.2 496.089 1980.47 509.353C1986.89 510.981 1993.3 512.646 1999.73 514.281C2000.16 514.391 2000.04 513.085 1999.67 512.972C1948.69 497.458 1896.05 487.375 1843.56 480.341C1790.78 473.266 1737.6 469.895 1684.5 470.256C1631.14 470.619 1577.86 474.751 1525.13 482.677C1470.07 490.955 1415.9 503.747 1362.21 518.598C1321.85 529.76 1281.85 542.193 1241.98 555.07C1254.55 550.121 1267.04 544.972 1279.48 539.694C1289.48 535.43 1299.43 531.066 1309.36 526.639C1348.25 514.361 1387.27 501.728 1426.83 492.447C1473.58 481.479 1522.11 475.549 1569.72 469.417C1616.19 463.429 1663.03 460.372 1709.95 460.788C1755.8 461.195 1801.67 464.787 1847.15 471.531C1892.25 478.218 1936.96 488.02 1980.95 500.755C1986.45 502.347 1991.93 503.989 1997.4 505.672C1998 505.856 1997.86 503.952 1997.32 503.783C1953.32 490.106 1908.54 479.516 1863.31 472.059C1818.48 464.67 1773.25 460.326 1727.98 459.096C1681.42 457.829 1634.88 459.947 1588.65 465.104C1540.68 470.454 1491.87 475.792 1444.92 487.114C1421.29 492.811 1397.57 498.236 1374.1 504.553C1356.36 509.325 1338.85 515.513 1321.3 521.278C1327.3 518.569 1333.3 515.845 1339.29 513.108C1346.55 509.772 1353.8 506.413 1361.05 503.047C1394.18 492.324 1427.98 484.406 1461.98 476.385C1505.34 466.155 1549.36 458.835 1593.68 454.43C1637.81 450.043 1682.24 448.559 1726.62 449.926C1771.55 451.309 1816.45 455.661 1860.94 462.959C1904.96 470.18 1948.34 480.64 1991.22 493.61C1996.57 495.228 2001.91 496.896 2007.23 498.603C2007.79 498.782 2007.67 496.969 2007.15 496.801C1964.42 482.802 1920.73 472.075 1876.73 463.994C1833.04 455.97 1788.93 450.862 1744.72 448.647C1699.95 446.406 1655.1 447.149 1610.5 450.84C1566.11 454.514 1521.98 461.105 1478.46 470.607C1442.43 478.471 1406.62 486.783 1371.59 498.147C1380.61 493.945 1389.62 489.734 1398.64 485.531C1401.15 484.359 1403.67 483.19 1406.18 482.021C1423.09 478.099 1439.87 473.549 1456.82 469.776C1476.35 465.43 1496.51 463.003 1516.23 459.707C1555.32 453.173 1594.75 448.701 1634.33 446.289C1674.08 443.867 1713.99 443.524 1753.83 445.261C1793.48 446.99 1833.09 450.611 1872.44 456.434C1912.31 462.334 1951.93 470.366 1991.09 480.45C1995.9 481.687 2000.73 482.789 2005.55 483.955C2005.82 484.021 2005.75 483.21 2005.52 483.141C1967.12 471.452 1927.5 463.577 1888.1 457.131C1848.77 450.695 1809.15 446.164 1769.45 443.881C1729.62 441.591 1689.71 441.381 1649.92 443.251C1609.95 445.13 1570.09 449.108 1530.56 455.186C1492.09 461.097 1453.37 467.558 1415.72 477.584C1423.2 474.112 1430.69 470.655 1438.18 467.212C1452.48 462.627 1467.39 459.71 1482.06 456.996C1500.85 453.517 1519.77 450.621 1538.7 447.963C1576.17 442.701 1613.85 438.807 1651.64 436.559C1689.55 434.303 1727.58 433.688 1765.58 435.047C1803.57 436.408 1841.55 439.74 1879.25 445.375C1916.65 450.962 1953.6 459.059 1990.24 468.927C1994.81 470.157 1999.37 471.431 2003.93 472.739C2004.33 472.854 2004.23 471.6 2003.87 471.489C1967.42 459.975 1930.15 451.527 1892.63 445.336C1855.44 439.199 1817.95 435.328 1780.41 433.431C1742.44 431.513 1704.41 431.599 1666.49 433.408C1628.49 435.221 1590.6 438.736 1552.9 443.667C1534.16 446.116 1515.47 448.916 1496.84 452.033C1481.06 454.673 1465.26 457.549 1449.83 461.879C1452.57 460.632 1455.3 459.379 1458.04 458.139C1461.12 456.749 1464.19 455.364 1467.27 453.981C1481.44 450.881 1495.52 447.358 1509.72 444.423C1527.28 440.796 1544.93 437.64 1562.65 434.952C1598.08 429.577 1633.8 426.083 1669.62 424.464C1705.45 422.845 1741.38 423.103 1777.23 425.233C1813.2 427.371 1849.1 431.395 1884.75 437.308C1920.26 443.201 1955.49 451.057 1990.36 460.47C1994.65 461.626 1998.97 462.631 2003.27 463.729C2003.61 463.816 2003.52 462.804 2003.23 462.711V462.711Z" fill="url(#paint3_linear_179_440)"/>
</g>
<defs>
<linearGradient id="paint0_linear_179_440" x1="0.411935" y1="315.66" x2="1920.41" y2="315.66" gradientUnits="userSpaceOnUse">
<stop stop-color="#474799"/>
<stop offset="1" stop-color="#47998F"/>
</linearGradient>
<linearGradient id="paint1_linear_179_440" x1="979.129" y1="553.043" x2="2006.59" y2="553.043" gradientUnits="userSpaceOnUse">
<stop stop-color="#CEAA7B"/>
<stop offset="0.5" stop-color="#FCF5DD"/>
<stop offset="1" stop-color="#BE893D"/>
</linearGradient>
<linearGradient id="paint2_linear_179_440" x1="971.028" y1="545.088" x2="1999.27" y2="545.088" gradientUnits="userSpaceOnUse">
<stop stop-color="#CEAA7B"/>
<stop offset="0.5" stop-color="#FCF5DD"/>
<stop offset="1" stop-color="#BE893D"/>
</linearGradient>
<linearGradient id="paint3_linear_179_440" x1="963.239" y1="491.349" x2="2007.6" y2="491.349" gradientUnits="userSpaceOnUse">
<stop stop-color="#CEAA7B"/>
<stop offset="0.5" stop-color="#FCF5DD"/>
<stop offset="1" stop-color="#BE893D"/>
</linearGradient>
</defs>
</svg>
