<svg width="1920" height="552" viewBox="0 0 1920 552" fill="none" xmlns="http://www.w3.org/2000/svg">
<mask id="mask0_179_439" style="mask-type:luminance" maskUnits="userSpaceOnUse" x="0" y="0" width="1920" height="552">
<path fill-rule="evenodd" clip-rule="evenodd" d="M0 0H1920V552H0V0Z" fill="white"/>
</mask>
<g mask="url(#mask0_179_439)">
<path fill-rule="evenodd" clip-rule="evenodd" d="M1920.19 63.0754C1706.15 107.06 1466.4 209.562 1185.71 356.455C769.95 574.035 362.043 451.937 0.185059 331.723V552.095H1920.19V63.0754Z" fill="url(#paint0_linear_179_439)"/>
<path fill-rule="evenodd" clip-rule="evenodd" d="M1920.19 18.0955C1920.19 18.0955 1641.62 98.1135 1326.8 261.884C1011.98 425.656 719.393 603.764 0.185059 416.836V552.096H1920.19V18.0955Z" fill="url(#paint1_linear_179_439)"/>
<path fill-rule="evenodd" clip-rule="evenodd" d="M1969.95 510.373C1906.39 490.93 1840.61 478.258 1774.62 470.666C1707.99 462.999 1640.7 460.96 1573.73 464.545C1506.44 468.145 1439.46 477.426 1373.76 492.393C1305.79 507.878 1240.15 531.173 1173.28 550.564C1106.89 569.816 1038.07 585.284 968.508 581.452C959.846 580.975 951.202 580.19 942.587 579.175C942.097 579.117 942.206 581.244 942.908 581.334C1012 590.208 1081.57 577.782 1148.19 559.729C1215.47 541.499 1281.09 517.61 1348.72 500.606C1413.46 484.326 1479.6 473.632 1546.16 468.508C1613.03 463.359 1680.35 463.842 1747.14 469.95C1814.19 476.082 1880.72 487.903 1945.77 505.275C1953.84 507.43 1961.93 509.526 1969.98 511.749C1970.45 511.877 1970.36 510.498 1969.95 510.373V510.373Z" fill="url(#paint2_linear_179_439)"/>
<path fill-rule="evenodd" clip-rule="evenodd" d="M1136.43 555.144C1204.14 538.047 1269.94 514.283 1337.65 497.225C1402.8 480.815 1469.26 469.667 1536.18 463.792C1603.1 457.917 1670.49 457.31 1737.51 461.977C1805.31 466.698 1871.9 477.765 1938.29 491.993C1946.56 493.766 1954.78 495.809 1962.98 497.865C1963.41 497.971 1963.32 496.749 1962.95 496.654C1898.09 479.783 1832.1 468.264 1765.35 462.116C1698.45 455.955 1631.07 455.077 1564.03 459.477C1496.68 463.898 1429.68 473.64 1363.89 488.698C1296.09 504.214 1230.44 527.126 1163.5 545.728C1097.61 564.035 1029.11 578.017 960.415 571.719C951.799 570.929 943.206 569.821 934.655 568.511C934.278 568.453 934.365 570.123 934.814 570.204C1001.99 582.279 1070.98 571.673 1136.43 555.144Z" fill="url(#paint3_linear_179_439)"/>
<path fill-rule="evenodd" clip-rule="evenodd" d="M1968.38 441.889C1934.06 431.035 1898.55 423.525 1863.12 417.284C1828.1 411.115 1792.78 406.684 1757.32 403.998C1721.41 401.278 1685.37 400.347 1649.37 401.211C1613.54 402.071 1577.74 404.707 1542.17 409.122C1509.3 413.202 1476.3 418.436 1443.99 425.936C1450.23 423.372 1456.47 420.831 1462.73 418.317C1494.47 411.386 1526.53 405.856 1558.78 401.86C1591.53 397.801 1624.48 395.299 1657.47 394.35C1690.61 393.397 1723.8 394.011 1756.89 396.188C1790.08 398.373 1823.17 402.129 1856 407.461C1888.72 412.776 1921.13 419.768 1953.26 427.885C1957.24 428.892 1961.22 429.913 1965.21 430.922C1965.67 431.04 1965.57 429.692 1965.17 429.573C1933.39 420.11 1900.8 413.1 1868.15 407.394C1835.6 401.704 1802.77 397.559 1769.82 394.968C1736.77 392.368 1703.59 391.332 1670.43 391.862C1637.13 392.394 1603.85 394.508 1570.74 398.207C1538.48 401.813 1506.36 406.897 1474.59 413.59C1477.78 412.332 1480.96 411.079 1484.15 409.837C1489.21 407.868 1494.27 405.928 1499.35 404.005L1506.96 401.143C1509.5 400.201 1512.05 399.299 1514.6 398.374C1515.87 397.921 1517.14 397.442 1518.42 397.009L1522.27 395.706C1523.03 395.452 1523.79 395.194 1524.54 394.936C1536.63 393.764 1546.04 392.513 1559.09 391.145C1574.01 389.582 1588.95 388.24 1603.91 387.119C1634.13 384.857 1664.41 383.5 1694.71 383.052C1724.12 382.617 1753.46 383.355 1782.73 386.337C1811.83 389.3 1840.71 394.05 1869.41 399.636C1897.93 405.187 1926.22 411.763 1954.54 418.221C1958.13 419.039 1961.71 419.858 1965.3 420.677C1965.79 420.791 1965.69 419.375 1965.26 419.273C1936.85 412.464 1908.4 405.849 1879.78 399.95C1851.47 394.114 1822.97 389.121 1794.25 385.739C1764.99 382.293 1735.64 380.87 1706.18 381.049C1675.93 381.232 1645.69 382.388 1615.52 384.414C1586.12 386.389 1561.34 388.654 1532.36 392.391L1537.72 390.694L1545.51 388.386C1547.25 387.886 1548.99 387.396 1550.73 386.912C1564.05 385.284 1586.74 381.869 1599.64 380.41C1612.97 378.903 1626.32 377.72 1639.7 376.805C1666.34 374.983 1693.05 374.159 1719.75 374.008C1746.15 373.858 1772.61 374.099 1798.94 376.344C1824.85 378.553 1850.55 382.801 1876.01 388.102C1901.16 393.34 1925.95 400 1950.98 405.714C1954.15 406.438 1957.32 407.163 1960.49 407.889C1960.8 407.961 1960.73 407.082 1960.47 407.007C1935.47 399.886 1910.22 393.569 1884.82 388.034C1859.84 382.591 1834.64 378.053 1809.2 375.351C1782.9 372.556 1756.43 371.973 1730 371.963C1703.16 371.953 1676.32 372.46 1649.52 374.055C1622.89 375.641 1596.3 378.235 1569.93 382.269C1569.18 382.383 1567.93 382.565 1566.39 382.786C1569.91 381.91 1573.43 381.063 1576.97 380.252C1587.54 377.864 1598.17 375.774 1608.86 373.957C1611.53 373.524 1614.2 373.047 1616.88 372.649L1624.92 371.448L1632.97 370.373C1635.66 370.009 1638.35 369.728 1641.04 369.401C1651.81 368.172 1662.61 367.216 1673.43 366.528C1716.71 363.777 1760.25 365.307 1803.32 370.493C1814.09 371.788 1824.84 373.319 1835.54 375.09C1846.25 376.854 1856.92 378.843 1867.53 381.08C1878.15 383.308 1888.72 385.786 1899.22 388.52C1904.47 389.89 1909.7 391.33 1914.91 392.85C1920.12 394.376 1925.31 395.961 1930.44 397.729L1930.57 397.365C1925.44 395.561 1920.25 393.945 1915.05 392.386C1909.85 390.834 1904.62 389.361 1899.37 387.959C1888.88 385.16 1878.31 382.616 1867.7 380.323C1857.08 378.02 1846.41 375.965 1835.7 374.136C1824.99 372.298 1814.25 370.702 1803.47 369.34C1760.36 363.89 1716.74 362.094 1673.31 364.595C1662.46 365.238 1651.62 366.149 1640.81 367.333C1638.11 367.649 1635.41 367.919 1632.71 368.273L1624.62 369.315L1616.55 370.485C1613.85 370.872 1611.18 371.339 1608.49 371.762C1597.76 373.537 1587.07 375.587 1576.45 377.939C1565.83 380.324 1555.28 383.001 1544.82 385.968L1536.98 388.252L1529.19 390.68C1526.58 391.468 1524.01 392.366 1521.43 393.218L1517.56 394.51C1516.27 394.94 1514.99 395.415 1513.71 395.865C1511.15 396.782 1508.58 397.679 1506.02 398.613L1498.38 401.446C1493.29 403.349 1488.21 405.27 1483.14 407.219C1462.86 415.008 1442.71 423.141 1422.64 431.451C1382.49 448.062 1342.66 465.378 1302.61 482.126C1282.6 490.535 1262.53 498.781 1242.35 506.736C1222.18 514.718 1201.89 522.375 1181.39 529.424C1160.91 536.524 1140.22 543.008 1119.28 548.536C1098.34 554.074 1077.13 558.604 1055.69 561.604C1034.26 564.57 1012.57 565.978 990.942 564.955C980.13 564.461 969.34 563.352 958.66 561.534C953.321 560.626 948.01 559.539 942.741 558.272C937.469 557.016 932.239 555.574 927.066 553.943L926.945 554.311C947.506 561.399 969.124 565.285 990.844 566.716C1012.59 568.107 1034.45 567.03 1056.05 564.299C1066.86 562.943 1077.61 561.166 1088.29 559.052C1098.97 556.942 1109.59 554.522 1120.14 551.838C1137.17 547.492 1154.02 542.477 1170.72 537.036C1215.67 523.453 1260.7 510.072 1306.09 498.03C1360.2 483.679 1414.98 471.445 1470.32 462.944C1522.52 454.927 1575.25 450.435 1628.04 449.447C1681.1 448.454 1734.22 451.004 1786.93 457.064C1840.12 463.177 1892.77 473.049 1944.72 485.92C1951.11 487.501 1957.48 489.114 1963.86 490.701C1964.3 490.809 1964.2 489.571 1963.83 489.462C1913.21 474.467 1860.82 464.606 1808.53 457.632C1755.94 450.618 1702.88 447.107 1649.82 447.133C1596.51 447.16 1543.19 450.755 1490.37 457.945C1435.19 465.456 1380.82 477.247 1326.89 490.989C1286.35 501.319 1246.14 512.854 1206.06 524.81C1218.71 520.199 1231.3 515.397 1243.83 510.473C1253.9 506.495 1263.93 502.422 1273.94 498.289C1313.03 486.894 1352.27 475.163 1391.97 466.611C1438.89 456.504 1487.49 451.178 1535.17 445.655C1581.72 440.262 1628.57 437.646 1675.44 438.32C1721.23 438.979 1766.98 442.653 1812.29 449.311C1857.21 455.911 1901.68 465.459 1945.37 477.782C1950.83 479.322 1956.28 480.91 1961.71 482.536C1962.31 482.714 1962.21 480.91 1961.67 480.747C1917.99 467.533 1873.46 457.238 1828.42 449.907C1783.78 442.643 1738.68 438.26 1693.48 436.824C1646.99 435.348 1600.45 437.076 1554.17 441.683C1506.15 446.464 1457.27 451.228 1410.15 461.668C1386.43 466.922 1362.63 471.919 1339.05 477.76C1321.23 482.173 1303.62 487.929 1285.98 493.283C1292.02 490.754 1298.06 488.21 1304.1 485.654C1311.42 482.539 1318.73 479.401 1326.04 476.256C1359.35 466.3 1393.27 459.003 1427.4 451.611C1470.92 442.182 1515.04 435.513 1559.4 431.605C1603.58 427.715 1647.99 426.574 1692.3 428.133C1737.16 429.71 1781.93 434.1 1826.23 441.276C1870.06 448.376 1913.2 458.539 1955.78 471.078C1961.09 472.642 1966.39 474.252 1971.68 475.9C1972.23 476.074 1972.14 474.356 1971.63 474.193C1929.22 460.682 1885.78 450.264 1841.99 442.35C1798.5 434.491 1754.54 429.391 1710.41 427.03C1665.73 424.64 1620.91 425.077 1576.28 428.306C1531.87 431.521 1487.65 437.499 1443.98 446.238C1407.83 453.47 1371.89 461.127 1336.67 471.679C1345.76 467.754 1354.85 463.82 1363.94 459.893C1366.48 458.799 1369.01 457.708 1371.54 456.615C1388.52 453.002 1405.37 448.794 1422.38 445.322C1441.98 441.323 1462.16 439.145 1481.93 436.14C1521.11 430.187 1560.59 426.187 1600.17 424.139C1639.94 422.082 1679.81 421.995 1719.58 423.878C1759.15 425.752 1798.66 429.417 1837.85 435.166C1877.56 440.99 1916.99 448.833 1955.91 458.615C1960.69 459.815 1965.49 460.887 1970.29 462.019C1970.56 462.083 1970.49 461.316 1970.27 461.249C1932.14 449.951 1892.71 442.258 1853.48 435.919C1814.31 429.59 1774.82 425.063 1735.22 422.665C1695.47 420.259 1655.6 419.822 1615.81 421.355C1575.84 422.896 1535.95 426.425 1496.33 431.944C1457.79 437.314 1418.98 443.201 1381.17 452.47C1388.71 449.227 1396.25 445.998 1403.8 442.783C1418.19 438.526 1433.14 435.853 1447.84 433.37C1466.69 430.188 1485.65 427.558 1504.61 425.155C1542.15 420.395 1579.87 416.932 1617.66 415.028C1655.58 413.119 1693.58 412.761 1731.52 414.276C1769.45 415.791 1807.32 419.172 1844.87 424.732C1882.13 430.247 1918.88 438.135 1955.29 447.697C1959.83 448.89 1964.36 450.123 1968.89 451.388C1969.28 451.499 1969.2 450.312 1968.85 450.204C1932.66 439.085 1895.6 430.863 1858.24 424.777C1821.21 418.744 1783.84 414.854 1746.37 412.834C1708.47 410.792 1670.48 410.646 1632.56 412.133C1594.56 413.623 1556.64 416.727 1518.88 421.17C1500.11 423.378 1481.39 425.917 1462.71 428.758C1446.89 431.164 1431.05 433.793 1415.55 437.802C1418.31 436.637 1421.07 435.468 1423.83 434.309C1426.93 433.01 1430.03 431.717 1433.13 430.427C1447.35 427.576 1461.48 424.324 1475.73 421.629C1493.34 418.299 1511.03 415.416 1528.79 412.976C1564.3 408.097 1600.05 405.002 1635.87 403.682C1671.69 402.363 1707.58 402.821 1743.35 405.052C1779.25 407.291 1815.03 411.315 1850.52 417.127C1885.89 422.919 1920.92 430.568 1955.58 439.69C1959.84 440.811 1964.13 441.788 1968.41 442.853C1968.75 442.937 1968.67 441.979 1968.38 441.889V441.889Z" fill="url(#paint4_linear_179_439)"/>
</g>
<defs>
<linearGradient id="paint0_linear_179_439" x1="0.185495" y1="307.585" x2="1920.19" y2="307.585" gradientUnits="userSpaceOnUse">
<stop stop-color="#78C4BB"/>
<stop offset="0.33" stop-color="#47998F"/>
<stop offset="0.382239" stop-color="#478791"/>
<stop offset="0.500203" stop-color="#476495"/>
<stop offset="0.597022" stop-color="#474E98"/>
<stop offset="0.66" stop-color="#474799"/>
<stop offset="0.735598" stop-color="#424293"/>
<stop offset="1" stop-color="#363682"/>
</linearGradient>
<linearGradient id="paint1_linear_179_439" x1="960.185" y1="552.095" x2="960.185" y2="18.0951" gradientUnits="userSpaceOnUse">
<stop stop-color="#474799"/>
<stop offset="1" stop-color="#47998F"/>
</linearGradient>
<linearGradient id="paint2_linear_179_439" x1="942.286" y1="523.541" x2="1970.3" y2="523.541" gradientUnits="userSpaceOnUse">
<stop stop-color="#CEAA7B"/>
<stop offset="0.5" stop-color="#FCF5DD"/>
<stop offset="1" stop-color="#BE893D"/>
</linearGradient>
<linearGradient id="paint3_linear_179_439" x1="934.418" y1="516.055" x2="1963.27" y2="516.055" gradientUnits="userSpaceOnUse">
<stop stop-color="#CEAA7B"/>
<stop offset="0.5" stop-color="#FCF5DD"/>
<stop offset="1" stop-color="#BE893D"/>
</linearGradient>
<linearGradient id="paint4_linear_179_439" x1="926.945" y1="465.392" x2="1972.06" y2="465.392" gradientUnits="userSpaceOnUse">
<stop stop-color="#CEAA7B"/>
<stop offset="0.5" stop-color="#FCF5DD"/>
<stop offset="1" stop-color="#BE893D"/>
</linearGradient>
</defs>
</svg>
