<?xml version="1.0" standalone="no"?>
<!DOCTYPE svg PUBLIC "-//W3C//DTD SVG 20010904//EN"
 "http://www.w3.org/TR/2001/REC-SVG-20010904/DTD/svg10.dtd">
<svg version="1.0" xmlns="http://www.w3.org/2000/svg"
 width="700.000000pt" height="700.000000pt" viewBox="0 0 700.000000 700.000000"
 preserveAspectRatio="xMidYMid meet">
<metadata>
Created by potrace 1.11, written by Peter Selinger 2001-2013
</metadata>
<g transform="translate(0.000000,700.000000) scale(0.100000,-0.100000)"
fill="#000000" stroke="none">
<path d="M3007 6952 c-59 -65 -69 -399 -22 -679 5 -26 4 -43 -2 -43 -14 0
-322 186 -456 275 -62 40 -152 110 -201 153 -171 153 -252 159 -231 17 15 -96
127 -403 204 -562 l38 -77 -51 -61 c-55 -64 -112 -153 -144 -225 -54 -119
-107 -336 -117 -478 -11 -142 -14 -164 -27 -182 -115 -157 -209 -305 -317
-500 -38 -67 -345 -684 -384 -770 -8 -19 -39 -84 -67 -145 -29 -60 -65 -137
-80 -170 -15 -33 -47 -100 -70 -150 -23 -49 -70 -151 -105 -225 -132 -284
-197 -419 -360 -755 -386 -792 -472 -1022 -477 -1285 -1 -51 8 -148 17 -180 1
-3 5 -22 9 -43 5 -20 12 -40 17 -43 5 -3 9 -12 9 -21 0 -8 18 -53 40 -100 154
-328 461 -582 801 -662 193 -45 427 -29 603 42 223 90 392 229 562 465 230
317 284 384 423 521 131 127 254 222 447 344 35 21 57 26 145 31 133 8 187 15
274 32 39 7 81 15 95 18 157 27 408 129 540 219 244 168 395 425 403 690 2 77
9 75 55 -15 33 -66 102 -227 102 -240 0 -3 5 -19 12 -35 6 -15 12 -30 13 -33
0 -3 12 -39 25 -80 13 -41 32 -102 42 -135 18 -58 124 -474 133 -525 3 -14 7
-34 9 -45 2 -11 16 -76 30 -145 24 -118 28 -141 41 -215 3 -16 11 -55 17 -85
6 -30 12 -64 14 -75 8 -58 15 -103 20 -125 3 -14 8 -36 10 -50 12 -72 14 -88
18 -120 3 -19 7 -51 10 -70 11 -77 25 -275 26 -372 l0 -38 950 0 950 0 -2
2917 -3 2918 -65 43 c-355 235 -863 449 -1330 560 -157 38 -179 42 -345 71
-96 17 -153 25 -325 46 -158 19 -541 25 -720 12 -194 -14 -369 -42 -516 -83
l-91 -26 -91 66 c-50 36 -96 66 -101 66 -5 0 -11 3 -13 8 -1 4 -28 24 -58 44
-91 62 -126 99 -178 189 -79 138 -115 165 -155 121z"/>
</g>
</svg>
