<?xml version="1.0" standalone="no"?>
<!DOCTYPE svg PUBLIC "-//W3C//DTD SVG 20010904//EN"
 "http://www.w3.org/TR/2001/REC-SVG-20010904/DTD/svg10.dtd">
<svg version="1.0" xmlns="http://www.w3.org/2000/svg"
 width="700.000000pt" height="700.000000pt" viewBox="0 0 700.000000 700.000000"
 preserveAspectRatio="xMidYMid meet">
<metadata>
Created by potrace 1.14, written by Peter Selinger 2001-2017
</metadata>
<g transform="translate(0.000000,700.000000) scale(0.100000,-0.100000)"
fill="#000000" stroke="none">
<path d="M3377 6954 c-1 -1 -47 -4 -102 -8 -190 -12 -368 -40 -580 -91 -362
-87 -693 -230 -1049 -450 -97 -60 -351 -253 -420 -319 -12 -12 -53 -51 -92
-87 -192 -182 -349 -369 -503 -601 -50 -75 -91 -140 -91 -143 0 -3 -12 -24
-26 -47 -38 -60 -146 -279 -187 -378 -119 -291 -202 -596 -233 -855 -4 -27 -8
-52 -10 -55 -17 -31 -26 -582 -11 -735 58 -604 251 -1141 588 -1640 168 -248
423 -529 649 -715 30 -25 57 -47 60 -51 14 -16 269 -193 342 -237 290 -174
587 -304 878 -383 213 -58 418 -95 645 -116 99 -9 493 -9 595 1 101 10 305 39
360 52 14 3 36 8 50 10 128 23 387 101 560 169 332 131 707 358 984 597 101
87 309 298 392 398 284 341 496 722 633 1137 36 108 58 184 66 223 2 8 10 42
18 75 23 89 50 242 63 350 3 33 8 69 10 79 21 117 21 623 -1 734 -2 10 -6 43
-10 73 -8 70 -13 103 -25 164 -5 28 -12 65 -15 83 -9 58 -72 294 -103 387 -92
280 -231 568 -390 810 -57 87 -167 240 -182 255 -3 3 -25 30 -50 60 -149 182
-362 389 -557 538 -349 267 -737 464 -1153 583 -58 17 -112 32 -121 34 -177
38 -218 47 -239 50 -259 39 -357 47 -578 49 -89 1 -164 1 -165 0z"/>
</g>
</svg>
