<?xml version="1.0" standalone="no"?>
<!DOCTYPE svg PUBLIC "-//W3C//DTD SVG 20010904//EN"
 "http://www.w3.org/TR/2001/REC-SVG-20010904/DTD/svg10.dtd">
<svg version="1.0" xmlns="http://www.w3.org/2000/svg"
 width="883.000000pt" height="883.000000pt" viewBox="0 0 883.000000 883.000000"
 preserveAspectRatio="xMidYMid meet">
<metadata>
Created by potrace 1.11, written by Peter Selinger 2001-2013
</metadata>
<g transform="translate(0.000000,883.000000) scale(0.100000,-0.100000)"
fill="#000000" stroke="none">
<path d="M4511 8814 c-71 -19 -142 -59 -189 -104 -28 -28 -374 -560 -390 -600
-1 -4 26 -13 60 -19 453 -88 1015 -312 1328 -529 83 -58 267 -202 334 -260 85
-76 347 -342 415 -422 35 -41 67 -77 71 -80 5 -4 146 -181 168 -210 7 -9 23
28 78 180 31 85 60 164 64 175 35 81 115 375 126 460 9 71 8 90 -12 170 -29
119 -76 182 -223 299 l-72 57 -67 -25 c-183 -68 -309 -84 -435 -56 -320 72
-534 249 -611 505 -11 36 -11 47 -1 62 12 16 14 16 41 -2 15 -10 46 -36 68
-58 100 -97 223 -171 371 -223 70 -24 95 -27 200 -27 199 -1 200 -3 -47 160
-197 130 -380 246 -467 296 -196 112 -356 189 -476 229 -108 37 -246 46 -334
22z"/>
<path d="M3268 7955 c-2 -1 -31 -5 -65 -8 -215 -21 -473 -92 -648 -180 -86
-43 -205 -121 -239 -156 -26 -27 -28 -35 -20 -59 8 -23 56 -51 339 -195 182
-92 371 -188 422 -214 104 -53 107 -61 27 -108 -118 -69 -252 -71 -404 -5
-131 57 -259 58 -395 2 -45 -18 -160 -95 -189 -126 -35 -39 -64 -123 -91 -261
-49 -257 -91 -320 -284 -429 -189 -107 -233 -164 -238 -310 -3 -103 17 -160
105 -290 94 -138 108 -193 87 -346 -9 -63 -27 -123 -65 -210 -57 -134 -34
-204 100 -306 91 -69 137 -123 205 -241 90 -154 99 -186 100 -353 1 -82 7
-157 13 -172 24 -57 79 -97 177 -128 54 -18 103 -49 156 -102 77 -77 104 -148
125 -321 20 -173 43 -231 111 -283 37 -29 181 -114 192 -114 3 0 26 -16 51
-36 90 -72 127 -160 95 -228 -22 -46 -42 -51 -158 -40 -51 5 -141 8 -202 8
-132 0 -176 -16 -248 -90 -49 -50 -69 -98 -81 -194 -15 -114 -38 -198 -64
-228 -26 -29 -77 -48 -137 -51 -73 -3 -114 -28 -153 -92 -53 -87 -67 -147 -66
-289 0 -69 3 -145 6 -170 4 -25 10 -65 13 -90 15 -101 105 -323 197 -485 37
-65 119 -195 123 -195 4 0 2 10 -14 95 -6 28 -8 127 -6 220 3 141 7 186 28
265 55 210 129 342 267 480 124 124 148 142 255 195 145 71 252 91 475 89 108
-1 136 -5 205 -28 320 -109 558 -366 652 -706 114 -411 -100 -825 -483 -933
-50 -15 -188 -16 -248 -3 -43 10 -165 69 -206 100 -168 127 -250 280 -255 476
-4 178 57 296 185 360 62 31 166 31 238 0 64 -28 143 -110 160 -167 26 -86 3
-180 -54 -220 -97 -68 -217 -40 -259 60 -12 28 -13 29 -23 11 -25 -47 8 -160
67 -226 49 -56 106 -79 193 -79 120 0 207 47 298 163 97 121 112 369 33 526
-14 28 -30 52 -35 52 -4 0 -8 6 -8 14 0 14 -105 116 -150 144 -14 9 -27 19
-30 23 -12 14 -140 70 -195 84 -164 43 -339 14 -485 -80 -115 -74 -200 -180
-258 -320 -52 -127 -65 -191 -67 -345 -1 -103 1 -133 20 -220 58 -279 302
-577 590 -723 107 -54 280 -113 385 -131 19 -3 46 -8 59 -11 99 -19 351 -25
466 -11 33 4 103 18 155 32 552 144 907 481 1009 956 66 310 42 658 -70 993
-26 77 -143 328 -181 390 -104 164 -220 334 -285 415 -6 8 -33 42 -59 75 -26
33 -91 112 -143 175 -53 63 -105 126 -116 139 -11 14 -27 32 -35 41 -12 13
-97 117 -190 233 -8 11 -20 24 -25 31 -6 6 -91 112 -190 236 -99 124 -182 227
-185 230 -6 6 -39 49 -189 245 -67 88 -128 167 -135 176 -30 37 -176 251 -244
359 -124 196 -239 446 -271 593 -19 84 -22 103 -26 183 -8 150 22 269 104 408
40 70 155 200 216 246 26 19 155 100 160 100 3 0 28 11 57 23 79 36 106 45
193 66 140 35 206 43 356 43 92 0 136 -5 164 -16 44 -19 43 -23 -5 -31 -76
-13 -199 -45 -270 -70 -73 -27 -235 -101 -255 -117 -5 -5 -32 -22 -58 -40
-108 -69 -192 -178 -253 -328 -38 -94 -39 -97 -38 -225 0 -110 4 -145 27 -229
61 -221 144 -352 647 -1021 228 -304 816 -1072 830 -1085 3 -3 79 -104 170
-225 91 -121 168 -222 171 -225 14 -13 229 -321 229 -329 0 -5 4 -11 8 -13 15
-5 99 -160 130 -238 29 -72 94 -268 106 -320 16 -63 37 -168 41 -201 3 -19 9
-64 14 -100 8 -59 7 -386 -2 -454 -6 -40 -19 -154 -22 -185 -2 -14 -6 -43 -10
-65 l-8 -40 24 20 c100 82 238 238 305 343 53 82 145 282 158 344 3 13 9 39
14 58 14 55 5 138 -19 178 -11 20 -40 53 -64 74 -56 49 -85 97 -100 162 -12
57 -12 67 0 181 14 134 9 203 -20 290 -33 97 -74 142 -285 315 -73 59 -153
142 -228 235 -93 115 -91 112 -132 165 -19 25 -40 52 -47 60 -127 158 -326
418 -484 630 -136 182 -116 156 -318 424 -100 132 -179 241 -177 244 3 2 26
-3 53 -11 26 -9 66 -18 88 -22 22 -4 51 -10 65 -13 61 -13 267 -4 365 16 91
20 230 60 280 81 11 5 62 27 114 48 l95 40 55 -27 c145 -70 246 -109 394 -154
106 -32 183 -50 272 -62 22 -3 58 -9 81 -13 46 -9 305 -6 347 3 15 4 53 16 85
28 145 54 244 136 300 251 51 105 41 126 -45 92 -261 -101 -579 -87 -904 40
-106 42 -371 170 -497 241 l-83 46 -102 -51 c-205 -102 -369 -142 -592 -144
-161 -2 -240 5 -368 34 -203 45 -295 89 -398 193 -97 96 -143 213 -143 366 0
93 3 111 26 160 15 30 33 62 40 71 32 38 112 89 175 110 123 41 228 34 423
-28 142 -45 137 -44 150 -27 9 10 8 30 -5 81 -10 41 -15 87 -12 118 6 62 43
161 62 169 13 5 185 -68 185 -78 0 -3 -9 -20 -20 -40 -55 -92 17 -218 128
-222 75 -3 129 34 153 104 6 18 16 31 23 29 103 -44 156 -72 156 -86 -1 -29
-37 -95 -78 -141 -35 -40 -150 -110 -181 -110 -5 0 -11 -7 -15 -15 -6 -17 11
-27 239 -132 83 -39 184 -86 225 -105 705 -332 752 -352 930 -390 112 -24 312
-28 405 -8 158 33 302 140 289 214 -4 29 -23 36 -106 36 -172 0 -454 85 -753
225 -55 26 -128 60 -163 76 l-62 29 26 42 c15 24 44 71 66 104 l39 62 47 -26
c246 -133 623 -285 782 -316 14 -3 36 -8 50 -11 87 -20 232 1 325 47 124 63
246 203 193 223 -7 3 -71 7 -143 9 -71 2 -143 7 -160 10 -200 43 -358 140
-565 346 -85 85 -171 182 -441 495 -150 175 -177 203 -359 385 -144 145 -213
209 -309 286 -13 10 -29 24 -35 30 -7 6 -59 46 -116 87 -58 42 -109 80 -115
85 -118 93 -475 260 -754 352 -181 60 -317 95 -446 115 -11 2 -49 8 -85 14
-116 18 -182 23 -352 26 -92 1 -169 1 -170 0z m178 -1260 c65 -8 134 -32 134
-46 0 -12 -1 -12 -120 -34 -299 -56 -594 -184 -741 -322 -311 -294 -397 -685
-249 -1133 108 -326 299 -652 671 -1145 408 -541 618 -816 659 -866 71 -85 72
-86 197 -239 65 -80 150 -185 188 -235 38 -49 72 -92 76 -95 12 -10 182 -257
234 -341 126 -203 213 -397 244 -543 26 -122 25 -310 -1 -407 -34 -129 -99
-236 -201 -329 -35 -33 -157 -113 -163 -107 -1 1 6 38 17 82 47 196 44 450 -8
614 -14 47 -27 88 -28 91 -14 66 -110 267 -191 402 -57 94 -195 290 -228 324
-6 6 -45 54 -86 108 -75 98 -191 248 -213 276 -292 370 -832 1082 -942 1240
-109 157 -285 438 -285 455 0 2 -17 32 -37 67 -74 125 -85 145 -153 283 -38
78 -72 154 -76 170 -4 17 -10 35 -14 40 -21 27 -83 265 -96 370 -10 75 -11
291 -2 370 16 134 102 355 172 438 11 14 32 41 46 59 31 40 191 198 201 198 4
0 14 6 21 13 14 14 164 107 173 107 2 0 28 11 57 24 207 96 507 141 744 111z"/>
</g>
</svg>
