<?xml version="1.0" standalone="no"?>
<!DOCTYPE svg PUBLIC "-//W3C//DTD SVG 1.1//EN" "http://www.w3.org/Graphics/SVG/1.1/DTD/svg11.dtd" >
<svg xmlns="http://www.w3.org/2000/svg" xmlns:xlink="http://www.w3.org/1999/xlink" version="1.1">
<metadata>
Created by FontForge 20170924 at Tue Aug 25 11:23:20 2015
 By www-data
Copyright (c) 2013 Schick Toikka. All rights reserved. Noe Display is a trademark of Schick Toikka. Unauthorised copying or modification of any of its data is illegal.
</metadata>
<defs>
<font id="NoeDisplay-BoldItalic" horiz-adv-x="312" >
  <font-face 
    font-family="Noe Display Bold"
    font-weight="700"
    font-style="italic"
    font-stretch="normal"
    units-per-em="1000"
    panose-1="2 10 8 0 9 4 0 0 0 2"
    ascent="750"
    descent="-250"
    x-height="503"
    cap-height="703"
    bbox="-296 -260 1199 993"
    underline-thickness="19"
    underline-position="-118"
    slope="-12"
    unicode-range="U+0020-FB02"
  />
<missing-glyph horiz-adv-x="600" 
d="M557 -250h-488v1001h488v-1001zM323 251l215 -462v927zM302 252l-214 464v-925zM313 230l-214 -461h427zM525 732h-425l212 -458z" />
    <glyph glyph-name="fi" unicode="fi" horiz-adv-x="592" 
d="M39 68l51 304q12 65 20 95h-65v20h70q30 106 90 166t168 60q33 0 84.5 -8.5t79.5 -19.5l-67 -150h-2l-85 144q-10 16 -24 16q-37 0 -59.5 -49t-41.5 -159h135q1 0 40 3l136 13l-88 -345q-11 -48 -11 -60q0 -24 21 -24q19 0 37 22q28 36 43 85h2q-13 -79 -60.5 -134
t-109.5 -55q-42 0 -62.5 25.5t-20.5 63.5q0 35 10 75l75 289q3 13 0.5 17.5t-12.5 4.5h-139l-53 -304q-14 -79 -36 -145t-55.5 -126t-84.5 -94t-113 -34q-60 0 -101 25l70 160h2l54 -151q5 -12 13 -12q13 0 23 16q14 20 27 67t19 80.5t20 118.5z" />
    <glyph glyph-name="fl" unicode="fl" horiz-adv-x="585" 
d="M39 68l55 321q4 26 16 78h-65v20h70q30 105 86.5 165.5t152.5 60.5q47 0 94 -29l158 44l-129 -571q-8 -33 -8 -55q0 -28 22 -28q21 0 38 22q26 32 42 85h2q-15 -89 -68 -142q-49 -47 -102 -47q-42 0 -64 26t-22 66q0 30 10 74l112 491q2 12 0.5 15t-8.5 9q-28 22 -61 22
q-44 0 -68.5 -48.5t-44.5 -159.5h107v-20h-110l-53 -304q-14 -79 -36 -145t-55.5 -126t-84.5 -94t-113 -34q-60 0 -101 25l70 160h2l54 -151q5 -12 13 -12q13 0 25 20q4 7 8 16t7.5 17.5t7.5 22t6.5 23t6 27t5.5 27t6 30.5t5.5 31t5.5 34t6 34z" />
    <glyph glyph-name="f_b" unicode="fb" horiz-adv-x="826" 
d="M809 349q0 -143 -82.5 -250t-184.5 -107q-62 0 -91 43l-150 -43l138 657q2 12 0.5 15t-8.5 9q-28 22 -61 22q-44 0 -68.5 -48.5t-44.5 -159.5h107v-20h-110l-53 -304q-14 -79 -36 -145t-55.5 -126t-84.5 -94t-113 -34q-60 0 -101 25l70 160h2l54 -151q5 -12 13 -12
q14 0 27 24q25 47 62 258l55 321q4 26 16 78h-65v20h70q30 105 86.5 165.5t152.5 60.5q47 0 94 -29l158 44l-88 -403h2q28 77 71 127t99 50q52 0 85.5 -37t33.5 -116zM549 359q-41 -76 -92 -316q11 -11 32 -11q68 0 115 116q21 52 33 113.5t12 96.5q0 64 -32 64
q-33 0 -68 -63z" />
    <glyph glyph-name="f_h" unicode="fh" horiz-adv-x="858" 
d="M448 0h-148l141 649q2 12 0.5 15t-9.5 9q-28 22 -61 22q-45 0 -69.5 -48.5t-44.5 -159.5h107v-20h-110l-53 -304q-14 -79 -36 -145t-55.5 -126t-84.5 -94t-113 -34q-60 0 -101 25l70 160h2l54 -151q5 -12 13 -12q12 0 29 33q28 56 60 249l55 321q4 26 16 78h-65v20h70
q30 105 86.5 165.5t153.5 60.5q49 0 94 -29l159 44l-92 -430h2q39 96 95.5 150.5t116.5 54.5q41 0 65.5 -25.5t24.5 -65.5q0 -41 -24 -115l-40 -130q-14 -42 -14 -69q0 -24 20 -24t38 22q21 25 42 85h2q-14 -87 -62 -138t-110 -51q-42 0 -65.5 24t-23.5 61t24 111l46 141
q15 43 15 68q0 24 -22 24q-46 0 -91 -75q-44 -73 -107 -346z" />
    <glyph glyph-name="f_j" unicode="fj" horiz-adv-x="578" 
d="M398 467h-144l-53 -304q-14 -79 -36 -145t-55.5 -126t-84.5 -94t-113 -34q-60 0 -101 25l70 160h2l54 -151q4 -12 13 -12t15 9.5t17 35.5q29 70 57 237l53 311q11 61 18 88h-65v20h70q30 106 90 166t168 60q33 0 84.5 -8.5t79.5 -19.5l-67 -150h-2l-85 144q-10 16 -24 16
q-37 0 -59.5 -49t-41.5 -159h135q14 0 40 2l143 14l-80 -352q-14 -63 -29.5 -113t-41.5 -103.5t-57 -89t-77.5 -58.5t-101.5 -23q-57 0 -98 25l80 159h2l38 -151q2 -11 13 -11q12 0 32 31q42 66 78 246l76 380q5 24 -12 24z" />
    <glyph glyph-name="f_k" unicode="fk" horiz-adv-x="823" 
d="M645 -8q-41 0 -63 23t-30 75l-20 122q-4 25 -10 41t-14 15l-58 -268h-148l138 649q3 15 -8 24q-30 22 -62 22q-44 0 -68.5 -48.5t-44.5 -159.5h107v-20h-110l-53 -304q-14 -79 -36 -145t-55.5 -126t-84.5 -94t-113 -34q-60 0 -101 25l70 160h2l54 -151q5 -12 13 -12
q13 0 27 25q27 49 62 257l55 321q4 26 16 78h-65v20h70q30 105 86.5 165.5t152.5 60.5q47 0 94 -29l158 44l-97 -452l150 105q19 13 19 21q0 5 -12 24l-37 59v2h249v-2l-143 -77q-34 -19 -47 -28l-38 -28l42 -203q9 -43 17 -59t24 -16q21 0 39 24q22 28 39 83h2
q-14 -87 -61.5 -138t-106.5 -51z" />
    <glyph glyph-name="g_f" unicode="gf" horiz-adv-x="803" 
d="M186 -236q-107 0 -172 32.5t-65 86.5q0 80 138 109q-76 25 -76 83q0 40 37.5 70t106.5 38q-109 31 -109 135q0 83 66.5 133.5t161.5 50.5q75 0 133 -34q13 -9 22 0l133 133h2l-33 -165h-91q32 -32 32 -83q0 -85 -68 -133t-162 -48q-38 0 -76 8q-27 -9 -27 -31
q0 -27 46 -36l128 -25q67 -14 101.5 -50t34.5 -85q0 -95 -99 -150q31 -21 65 -21q27 0 43 15.5t31 50.5q24 58 53 220l56 322q11 63 15 78h-61v19h66q30 106 87.5 166t156.5 60q69 0 119 -22l-71 -156h-2l-52 147q-4 13 -16 13q-29 0 -44.5 -47.5t-34.5 -160.5h107v-19h-111
l-53 -305q-70 -399 -280 -399q-52 0 -92 30q-64 -30 -146 -30zM242 -46q-127 29 -147 35q-50 -38 -50 -97q0 -47 44.5 -78.5t103.5 -31.5q58 0 94.5 27t36.5 71q0 56 -82 74zM287 485q-42 0 -70 -73t-28 -145q0 -78 38 -78q43 0 72 71.5t29 144.5q0 80 -41 80z" />
    <glyph glyph-name="q_f" unicode="qf" horiz-adv-x="829" 
d="M137 -8q-52 0 -84.5 42.5t-32.5 112.5q0 143 78 249.5t178 106.5q67 0 101 -46l149 46h2l-144 -670q-3 -13 -2.5 -18.5t8.5 -12.5q24 -20 51 -20q26 0 42.5 15.5t30.5 50.5q25 64 53 220l56 322q9 53 16 78h-65v19h69q30 106 87.5 166t156.5 60q69 0 119 -22l-70 -156h-2
l-53 147q-4 13 -16 13q-29 0 -44 -46t-35 -162h107v-19h-111l-52 -305q-68 -398 -280 -398q-19 0 -45 7h-267v2l82 48q10 5 13 10t6 19l70 324h-2q-65 -183 -170 -183zM282 147q38 78 89 301q-12 15 -35 15q-58 0 -101 -85q-28 -53 -42.5 -122.5t-14.5 -120.5q0 -62 34 -62
t70 74z" />
    <glyph glyph-name="g_j" unicode="gj" horiz-adv-x="788" 
d="M401 -236q-46 0 -82 24q-60 -24 -133 -24q-107 0 -172 32.5t-65 86.5q0 80 138 109q-76 25 -76 83q0 40 37.5 70t106.5 38q-109 31 -109 135q0 83 66.5 133.5t161.5 50.5q75 0 133 -34q13 -9 22 0l133 133h2l-33 -165h-91q32 -32 32 -83q0 -85 -68 -133t-162 -48
q-38 0 -76 8q-27 -9 -27 -31q0 -27 46 -36l128 -25q67 -14 101.5 -50t34.5 -85q0 -103 -109 -156q30 -15 57 -15q36 0 59 26q46 51 87 255l74 365q5 19 -11 28l-58 29v2l238 16l-81 -352q-17 -73 -34.5 -128.5t-43.5 -106t-57 -82.5t-74 -51t-95 -19zM123 -18l-28 7
q-50 -38 -50 -97q0 -47 44.5 -78.5t103.5 -31.5q58 0 94.5 27t36.5 71q0 56 -82 74q-6 2 -35 8.5t-55 12.5t-29 7zM287 485q-42 0 -70 -73t-28 -145q0 -78 38 -78q43 0 72 71.5t29 144.5q0 80 -41 80zM733 551q-32 0 -54.5 18t-22.5 50q0 36 26 59t63 23q33 0 54.5 -18.5
t21.5 -50.5q0 -36 -25.5 -58.5t-62.5 -22.5z" />
    <glyph glyph-name=".notdef" horiz-adv-x="600" 
d="M557 -250h-488v1001h488v-1001zM323 251l215 -462v927zM302 252l-214 464v-925zM313 230l-214 -461h427zM525 732h-425l212 -458z" />
    <glyph glyph-name=".null" horiz-adv-x="0" 
 />
    <glyph glyph-name="nonmarkingreturn" horiz-adv-x="333" 
 />
    <glyph glyph-name="space" unicode=" " horiz-adv-x="192" 
 />
    <glyph glyph-name="exclam" unicode="!" horiz-adv-x="310" 
d="M367 703l-215 -484h-2l-19 484h236zM127 147q33 0 54.5 -19t21.5 -51q0 -36 -25.5 -60.5t-61.5 -24.5q-31 0 -52 20t-21 50q0 36 24.5 60.5t59.5 24.5z" />
    <glyph glyph-name="quotedbl" unicode="&#x22;" horiz-adv-x="363" 
d="M220 605l-84 -146h-2l-20 157q-1 8 -1 17q0 34 17.5 57t50.5 23q26 0 41 -15t15 -38q0 -26 -17 -55zM395 605l-85 -146h-2l-20 157q-1 7 -1 17q0 34 17.5 57t50.5 23q26 0 41.5 -15t15.5 -38q0 -26 -17 -55z" />
    <glyph glyph-name="numbersign" unicode="#" horiz-adv-x="588" 
d="M511 215h-134l-54 -189l-18 6l52 183h-156l-54 -189l-18 6l52 183h-126v19h131l58 203h-126v19h132l56 197l20 -6l-55 -191h155l56 197l20 -6l-55 -191h126v-19h-132l-58 -203h128v-19zM265 437l-58 -203h155l58 203h-155z" />
    <glyph glyph-name="dollar" unicode="$" horiz-adv-x="555" 
d="M519 215q0 -92 -78 -156t-199 -68l-18 -95l-18 1l18 93q-139 2 -225 29l66 237h2l75 -226q3 -9 7 -12t14 -5q28 -4 46 -4q12 0 19 1l49 252l-66 49q-116 85 -116 190q0 94 72 152.5t183 59.5h15l15 78l19 -1l-15 -78q100 -3 184 -26l-48 -224h-2l-92 215q-5 12 -18 15
q-18 3 -28 3l-48 -248l58 -42q65 -47 97 -89t32 -101zM244 587q0 -64 71 -127l46 235q-50 -1 -83.5 -29t-33.5 -79zM356 134q0 59 -63 114l-46 -235q48 10 78.5 41t30.5 80z" />
    <glyph glyph-name="percent" unicode="%" horiz-adv-x="682" 
d="M289 698q-34 0 -58 -81.5t-24 -138.5q0 -49 29 -49q34 0 58 83t24 138q0 48 -29 48zM293 713q52 0 84 -32t32 -79q0 -84 -47.5 -136t-129.5 -52q-52 0 -84 32t-32 80q0 84 48 135.5t129 51.5zM488 275q-34 0 -58 -81.5t-24 -138.5q0 -49 29 -49q34 0 58 83t24 138
q0 48 -29 48zM492 290q52 0 84 -32t32 -79q0 -84 -47.5 -136t-129.5 -52q-51 0 -83.5 32.5t-32.5 79.5q0 84 48 135.5t129 51.5zM693 701l-645 -711l-14 14l644 710z" />
    <glyph glyph-name="ampersand" unicode="&#x26;" horiz-adv-x="706" 
d="M621 232q0 -102 -82.5 -172t-210.5 -70q-133 0 -213 61t-80 157q0 93 64 154t162 76v2q-69 8 -99 39.5t-30 73.5q0 70 63 114.5t168 44.5q88 0 153 -25l-77 -147h-2l-50 142q-3 8 -6 10t-14 2q-46 0 -78 -40.5t-32 -100.5q0 -74 50 -109v-2q-67 -21 -106 -65.5
t-39 -104.5q0 -72 52 -118.5t142 -46.5q97 0 155 45.5t58 110.5q0 43 -21.5 69.5t-61.5 26.5q-33 0 -54.5 -18t-21.5 -44q0 -20 15.5 -33t41.5 -11l1 -2q-32 -32 -81 -32q-41 0 -69.5 24.5t-28.5 64.5q0 32 23 57.5t72 53.5l205 117q31 17 31 44q0 15 -14 25t-36 8l-1 2
q39 28 85 28q41 0 66.5 -21t25.5 -62q0 -58 -80 -100l-164 -86v-2q52 -3 85.5 -43t33.5 -97z" />
    <glyph glyph-name="quotesingle" unicode="'" horiz-adv-x="188" 
d="M237 660q0 -26 -17 -55l-84 -146h-2l-20 157q-1 7 -1 17q0 34 17.5 57t50.5 23q26 0 41 -15t15 -38z" />
    <glyph glyph-name="parenleft" unicode="(" horiz-adv-x="340" 
d="M270 666q66 51 158 71l1 -2q-61 -42 -111 -109q-73 -96 -113.5 -238t-40.5 -268q0 -185 84 -272l-2 -2q-192 95 -192 333q0 154 56 280.5t160 206.5z" />
    <glyph glyph-name="parenright" unicode=")" horiz-adv-x="340" 
d="M303 404q0 -155 -56.5 -281.5t-159.5 -205.5q-68 -51 -158 -71l-1 2q70 49 130 142q63 96 99 227t36 246q0 187 -84 272l2 2q192 -95 192 -333z" />
    <glyph glyph-name="asterisk" unicode="*" horiz-adv-x="424" 
d="M328 703l-64 -171l144 112l40 -124l-182 8l149 -102l-105 -76l-48 175l-51 -174l-105 76l152 100l-180 -6l40 124l141 -113l-61 171h130z" />
    <glyph glyph-name="plus" unicode="+" horiz-adv-x="540" 
d="M71 314v19h209v211h20v-211h210v-19h-210v-210h-20v210h-209z" />
    <glyph glyph-name="comma" unicode="," horiz-adv-x="243" 
d="M55 9q-21 5 -34.5 21.5t-13.5 40.5q0 34 24 57.5t58 23.5q33 0 53 -22t20 -55q0 -57 -40 -104.5t-96 -75.5q-34 -18 -56 -22v1q31 16 48 36q38 39 48 83q3 13 -11 16z" />
    <glyph glyph-name="hyphen" unicode="-" horiz-adv-x="351" 
d="M48 237v20h260v-20h-260z" />
    <glyph glyph-name="period" unicode="." horiz-adv-x="243" 
d="M91 147q32 0 53.5 -19t21.5 -51q0 -36 -25 -60.5t-61 -24.5q-31 0 -52.5 20t-21.5 50q0 36 25 60.5t60 24.5z" />
    <glyph glyph-name="slash" unicode="/" horiz-adv-x="380" 
d="M443 729l-472 -882l-16 11l471 880z" />
    <glyph glyph-name="zero" unicode="0" horiz-adv-x="655" 
d="M279 8q52 0 101.5 93.5t77 218t27.5 228.5q0 147 -69 147q-53 0 -102 -93.5t-76.5 -218t-27.5 -228.5q0 -147 69 -147zM282 -10q-112 0 -175 72t-63 193q0 196 104.5 327t264.5 131q112 0 175 -72t63 -193q0 -196 -104.5 -327t-264.5 -131z" />
    <glyph glyph-name="one" unicode="1" horiz-adv-x="385" 
d="M252 91q-3 -16 5 -24l66 -65v-2h-340v2l93 65q14 9 16 24l95 464q3 16 -7 20l-85 34v2l284 110h2z" />
    <glyph glyph-name="two" unicode="2" horiz-adv-x="544" 
d="M329 713q223 0 223 -168q0 -62 -34 -120.5t-98 -110.5t-135 -95t-164 -88h249q21 0 28.5 2.5t20.5 14.5l80 72h2l-79 -220h-452v2q217 208 269 268q148 168 148 305q0 54 -18 86.5t-55 32.5q-12 0 -18 -1q-18 -2 -26 -16l-123 -196h-2l-44 179q122 53 228 53z" />
    <glyph glyph-name="three" unicode="3" horiz-adv-x="543" 
d="M503 212q0 -95 -82.5 -158.5t-221.5 -63.5q-124 0 -214 39l106 202h2l45 -199q3 -12 7.5 -15.5t16.5 -5.5q6 -1 17 -1q59 0 102.5 59t43.5 149q0 56 -26 95t-81 47v2q81 14 126.5 72.5t45.5 137.5q0 56 -20 89t-57 33q-11 0 -19 -1q-11 -2 -14.5 -4t-9.5 -11l-123 -196
h-2l-44 180q127 51 228 51q109 0 165.5 -47t56.5 -119t-58 -120.5t-139 -58.5v-2q71 -10 110 -52.5t39 -101.5z" />
    <glyph glyph-name="four" unicode="4" horiz-adv-x="591" 
d="M393 90q-2 -14 7 -23l58 -65v-2h-327v2l85 64q15 11 17 24l18 89h-265v1l393 523h141l-105 -504h19q16 0 28 14l139 177h2l-56 -211h-136zM24 199h231l86 420z" />
    <glyph glyph-name="five" unicode="5" horiz-adv-x="536" 
d="M507 244q0 -115 -84 -184.5t-229 -69.5q-112 0 -210 38l109 202h2l43 -196q3 -14 7.5 -17.5t18.5 -5.5q7 -1 17 -1q58 0 102.5 64.5t44.5 148.5q0 71 -30.5 109t-85.5 38q-59 0 -119 -32l-2 1l85 366q3 -1 93 -4.5t108 -3.5h57q87 0 125 32l28 24h2l-29 -98
q-17 -57 -50 -76t-103 -21h-23h-29h-24l-168 8l-45 -198q80 65 195 65q82 0 138 -51.5t56 -137.5z" />
    <glyph glyph-name="six" unicode="6" horiz-adv-x="594" 
d="M287 -9q-108 0 -175.5 71t-67.5 200q0 116 44 217.5t132 167.5t203 66q105 0 197 -34l-90 -190h-2l-68 188q-5 11 -9.5 14t-17.5 3h-12q-59 0 -107.5 -87t-77.5 -217q58 47 137 47q81 0 137 -50t56 -140q0 -110 -77 -183t-202 -73zM307 400q-42 0 -74 -24
q-25 -119 -25 -217q0 -148 76 -148q56 0 88 63.5t32 152.5q0 173 -97 173z" />
    <glyph glyph-name="seven" unicode="7" horiz-adv-x="509" 
d="M503 589q-17 -19 -31 -48q-92 -181 -228 -541h-207v2q108 162 228.5 321.5t201.5 244.5v2h-307q-20 0 -33 -13l-68 -65h-1l64 211h478v-2z" />
    <glyph glyph-name="eight" unicode="8" horiz-adv-x="559" 
d="M531 207q0 -100 -83.5 -158.5t-201.5 -58.5q-98 0 -163 44t-65 123q0 75 54.5 120t135.5 56l-24 21q-78 68 -78 153q0 98 77 152t182 54q82 0 139.5 -42.5t57.5 -111.5q0 -65 -47 -105.5t-120 -54.5l29 -24q53 -43 80 -80.5t27 -87.5zM312 245l-97 82q-86 -63 -86 -163
q0 -67 34 -111.5t92 -44.5q49 0 82.5 34t33.5 91q0 63 -59 112zM255 594q0 -79 70 -137l62 -51q68 56 68 152q0 63 -27.5 100t-78.5 37q-43 0 -68.5 -28.5t-25.5 -72.5z" />
    <glyph glyph-name="nine" unicode="9" horiz-adv-x="601" 
d="M352 713q110 0 177.5 -71t67.5 -200q0 -116 -44 -217.5t-132 -167.5t-203 -66q-105 0 -197 34l90 190h2l68 -188q4 -11 8.5 -14t16.5 -3h14q58 0 106.5 87t78.5 217q-58 -47 -134 -47q-84 0 -140 50.5t-56 140.5q0 109 76.5 182t200.5 73zM334 304q42 0 74 24
q25 117 25 217q0 149 -78 149q-55 0 -86.5 -64t-31.5 -152q0 -174 97 -174z" />
    <glyph glyph-name="colon" unicode=":" horiz-adv-x="243" 
d="M91 147q32 0 53.5 -19t21.5 -51q0 -36 -25 -60.5t-61 -24.5q-31 0 -52.5 20t-21.5 50q0 36 25 60.5t60 24.5zM158 477q32 0 54 -19t22 -50q0 -36 -25.5 -61t-61.5 -25q-31 0 -52.5 20t-21.5 50q0 36 25 60.5t60 24.5z" />
    <glyph glyph-name="semicolon" unicode=";" horiz-adv-x="243" 
d="M89 152q33 0 53 -22t20 -55q0 -57 -40 -104t-96 -76q-30 -16 -56 -22v1q31 16 48 36q39 44 48 83q3 13 -11 16q-21 5 -34.5 21.5t-13.5 40.5q0 34 24 57.5t58 23.5zM157 477q32 0 54 -19t22 -50q0 -36 -25.5 -61t-61.5 -25q-31 0 -52.5 20t-21.5 50q0 36 25 60.5t60 24.5
z" />
    <glyph glyph-name="less" unicode="&#x3c;" horiz-adv-x="540" 
d="M70 324l390 179l7 -19l-353 -161l353 -161l-7 -19l-390 179v2z" />
    <glyph glyph-name="equal" unicode="=" horiz-adv-x="540" 
d="M70 404v19h440v-19h-440zM70 225v19h440v-19h-440z" />
    <glyph glyph-name="greater" unicode="&#x3e;" horiz-adv-x="540" 
d="M509 322l-390 -179l-7 19l353 161l-353 161l7 19l390 -179v-2z" />
    <glyph glyph-name="question" unicode="?" horiz-adv-x="459" 
d="M223 231q-30 1 -53.5 26t-23.5 56q0 33 22 62.5t53 52t62.5 46.5t53.5 56.5t22 70.5q0 39 -17 66t-53 27q-10 0 -17 -1q-20 -3 -29 -16l-124 -196h-2l-43 179q117 53 231 53q99 0 156 -39t57 -111q0 -41 -17.5 -75t-49 -59t-62 -43t-68 -38.5t-56.5 -34.5
q-31 -23 -38 -43q-7 -19 -3 -37zM174 147q32 0 53.5 -19t21.5 -51q0 -36 -25 -60.5t-61 -24.5q-31 0 -52.5 20t-21.5 50q0 36 25 60.5t60 24.5z" />
    <glyph glyph-name="at" unicode="@" horiz-adv-x="1004" 
d="M958 323q0 -135 -76.5 -233t-190.5 -98q-67 0 -110 35t-43 100q0 17 3 35l-3 1q-28 -80 -69.5 -125.5t-94.5 -45.5q-49 0 -83.5 40t-34.5 114q0 139 78.5 248t181.5 109q69 0 100 -45l156 46l2 -2l-80 -322q-13 -49 -13 -86q0 -72 56 -72q69 0 135 88.5t66 214.5
q0 156 -108.5 257t-281.5 101q-199 0 -337 -140.5t-138 -350.5q0 -126 60.5 -218.5t155 -136.5t206.5 -44q127 0 252 76l9 -16q-123 -79 -263 -79q-85 0 -162 26t-140 75.5t-100.5 131.5t-37.5 185q0 219 144.5 364.5t352.5 145.5q183 0 295.5 -108t112.5 -271zM537 191
q6 11 36 119t37 138q-10 14 -34 14q-59 0 -101 -82q-26 -51 -43 -120.5t-17 -129.5q0 -57 34 -57q21 0 46 34t42 84z" />
    <glyph glyph-name="A" unicode="A" horiz-adv-x="632" 
d="M382 96l-16 149h-219l-42 -80q-6 -13 -6 -17.5t7 -17.5l63 -128v-2h-237v2l123 128q20 21 31 42l226 426q7 14 7.5 19.5t-6.5 15.5l-44 68v2h216l66 -593q2 -16 12 -41l27 -67v-2h-278v2l62 67q9 9 8 27zM329 588l-171 -323h206z" />
    <glyph glyph-name="B" unicode="B" horiz-adv-x="655" 
d="M111 703h346q97 0 152.5 -37t55.5 -105q0 -83 -62 -132.5t-170 -57.5v-2q88 -5 135.5 -45.5t47.5 -112.5q0 -96 -78.5 -153.5t-208.5 -57.5h-362v2l79 63q13 10 16 27l107 519q2 11 1.5 16t-7.5 12l-52 62v2zM336 356h-52l-64 -313q-3 -15 1 -19t21 -4h28q76 0 123 60.5
t47 155.5q0 120 -104 120zM347 661l-59 -285h51q68 0 110.5 59t42.5 141q0 49 -23 78t-65 29h-32q-12 0 -17 -4.5t-8 -17.5z" />
    <glyph glyph-name="C" unicode="C" horiz-adv-x="614" 
d="M308 -10q-129 0 -200.5 75.5t-71.5 200.5q0 190 114.5 318.5t295.5 128.5q117 0 213 -21l-51 -246h-2l-101 232q-7 17 -26 17h-17q-96 0 -169.5 -146.5t-73.5 -352.5q0 -85 26.5 -136.5t79.5 -51.5h15q19 0 32 14l196 237h2l-50 -249q-101 -20 -212 -20z" />
    <glyph glyph-name="D" unicode="D" horiz-adv-x="710" 
d="M110 703h318q128 0 205 -73.5t77 -196.5q0 -187 -123.5 -310t-316.5 -123h-303v2l79 63q13 12 16 27l106 519q3 17 -4 27l-54 63v2zM373 683q-14 0 -18.5 -3.5t-7.5 -17.5l-127 -619q-3 -17 -0.5 -20t20.5 -3h17q87 0 150 75.5t95 197.5q28 107 28 222q0 76 -36 122
t-94 46h-27z" />
    <glyph glyph-name="E" unicode="E" horiz-adv-x="594" 
d="M238 20h107q15 0 22 2.5t17 15.5l162 208h2l-48 -246h-533v2l78 62q14 11 17 28l106 519q3 17 -4 27l-54 63v2h523l-50 -242h-2l-84 203q-6 13 -10.5 16t-17.5 3h-94q-16 0 -20.5 -3.5t-7.5 -18.5l-62 -299h65q17 1 35 17l109 101h2l-52 -255h-2l-67 101q-7 11 -12 13.5
t-17 2.5h-65l-61 -299q-3 -16 0 -19.5t18 -3.5z" />
    <glyph glyph-name="F" unicode="F" horiz-adv-x="569" 
d="M347 661l-62 -299h66q17 1 35 17l108 101h2l-52 -255h-2l-67 101q-7 11 -12 13.5t-17 2.5h-65l-50 -247q-4 -18 6 -26l84 -67v-2h-354v2l79 62q13 11 16 28l107 519q3 16 -5 27l-53 63v2h522l-49 -242h-2l-84 203q-6 13 -10.5 16t-17.5 3h-94q-17 0 -21.5 -3.5
t-7.5 -18.5z" />
    <glyph glyph-name="G" unicode="G" horiz-adv-x="674" 
d="M295 -10q-117 0 -188 76.5t-71 201.5q0 193 116.5 319t306.5 126q124 0 222 -23l-50 -245h-2l-106 232q-5 11 -8.5 14t-14.5 3h-23q-74 0 -133.5 -66.5t-92 -180t-32.5 -250.5q0 -183 108 -183q33 0 62 13l39 190q3 19 -3 29l-43 63v2h299v-2l-69 -63q-12 -13 -15 -29
l-47 -227l-136 26q-64 -26 -119 -26z" />
    <glyph glyph-name="H" unicode="H" horiz-adv-x="752" 
d="M737 611l-107 -519q-3 -17 5 -27l53 -63v-2h-321v2l79 63q12 9 16 27l53 258h-232l-53 -258q-3 -17 4 -27l53 -63v-2h-320v2l79 63q12 9 16 27l106 519q3 17 -4 27l-54 63v2h321v-2l-79 -63q-11 -9 -15 -27l-50 -241h232l50 241q3 16 -5 27l-54 63v2h321v-2l-79 -63
q-11 -8 -15 -27z" />
    <glyph glyph-name="I" unicode="I" horiz-adv-x="352" 
d="M230 92q-3 -17 4 -27l53 -63v-2h-320v2l79 63q12 9 16 27l106 519q3 17 -4 27l-54 63v2h321v-2l-79 -63q-11 -9 -15 -27z" />
    <glyph glyph-name="J" unicode="J" horiz-adv-x="327" 
d="M327 611l-107 -516q-60 -294 -365 -306v2q148 69 189 264l114 556q4 18 -4 27l-54 63v2h321v-2l-79 -63q-11 -9 -15 -27z" />
    <glyph glyph-name="K" unicode="K" horiz-adv-x="687" 
d="M337 611l-107 -519q-3 -17 4 -27l53 -63v-2h-320v2l79 63q12 9 16 27l106 519q3 17 -4 27l-54 63l1 2h320v-2l-79 -63q-11 -9 -15 -27zM570 95q10 -23 22 -37l47 -56v-2h-212l-137 343l252 224q12 12 13 18.5t-6 18.5l-53 97v2h309v-2l-186 -104q-36 -20 -59 -40
l-132 -115z" />
    <glyph glyph-name="L" unicode="L" horiz-adv-x="569" 
d="M337 611l-116 -568q-3 -16 -0.5 -19.5t18.5 -3.5h85q14 0 20.5 3t16.5 15l180 222h2l-53 -260h-523v2l78 64q14 10 17 26l106 519q3 17 -4 27l-54 63v2h321v-2l-79 -63q-11 -9 -15 -27z" />
    <glyph glyph-name="M" unicode="M" horiz-adv-x="875" 
d="M751 89q-3 -14 5 -24l53 -63v-2h-320v2l79 63q12 9 15 24l83 402l15 63l-342 -562h-2l-128 513q-7 23 -11 48l-79 -385q-3 -16 6 -33l74 -133v-2h-248v2l128 133q16 17 19 33l82 396q4 17 -3 29l-60 108v2h213l123 -487l296 487h204v-2l-81 -73q-12 -10 -15 -25z" />
    <glyph glyph-name="N" unicode="N" horiz-adv-x="686" 
d="M648 535l-110 -535h-103l-236 533l-75 -365q-3 -16 6 -32l74 -134v-2h-249v2l128 134q16 16 19 32l78 378q4 22 -2 32l-75 123v2h205l241 -548l78 380q3 15 -6 32l-75 134v2h250v-2l-129 -134q-16 -17 -19 -32z" />
    <glyph glyph-name="O" unicode="O" horiz-adv-x="709" 
d="M420 713q141 0 215 -77t74 -206q0 -187 -109 -313.5t-274 -126.5q-141 0 -215 77t-74 206q0 187 109 313.5t274 126.5zM312 9q47 0 89.5 57t69.5 139.5t43 168.5t16 150q0 90 -24 130t-72 40q-47 0 -89.5 -57t-69.5 -139.5t-43 -168.5t-16 -150q0 -90 24 -130t72 -40z
" />
    <glyph glyph-name="P" unicode="P" horiz-adv-x="645" 
d="M110 703h334q100 0 163.5 -44t63.5 -134q0 -125 -96 -194.5t-249 -69.5h-62l-32 -159q-3 -18 7 -28l77 -72v-2h-349v2l79 63q12 9 16 27l106 519q4 19 -4 28l-54 62v2zM347 661l-79 -380h43q83 0 134 84.5t51 188.5q0 60 -23.5 94.5t-65.5 34.5h-33q-14 0 -19 -4.5
t-8 -17.5z" />
    <glyph glyph-name="Q" unicode="Q" horiz-adv-x="709" 
d="M420 713q141 0 215.5 -77t74.5 -206q0 -187 -109.5 -313.5t-274.5 -126.5q-63 0 -119 18l-50 -38l209 -60q77 -21 129 -21t106 26l48 23l2 -1l-61 -81q-70 -92 -171 -92q-52 0 -137 27l-185 58q-42 14 -72 14q-24 0 -33 -1l-1 2l197 151q-75 32 -113 99t-38 159
q0 187 109 313.5t274 126.5zM312 9q47 0 89.5 57t69.5 139.5t43 168.5t16 150q0 90 -24 130t-72 40q-47 0 -89.5 -57t-69.5 -139.5t-43 -168.5t-16 -150q0 -90 24 -130t72 -40z" />
    <glyph glyph-name="R" unicode="R" horiz-adv-x="666" 
d="M327 331h-52l-48 -236q-5 -22 3 -31l50 -62v-2h-313v2l78 64q3 2 5 4.5t3 5.5t1.5 5t1.5 7t2 9l106 511q4 20 -4 31l-50 62v2h370q83 0 136 -39.5t53 -111.5q0 -94 -70.5 -151.5t-185.5 -60.5v-2l109 -36l43 -218q3 -17 22 -40l34 -42v-2h-214l-61 319q-3 12 -19 12z
M343 660l-64 -310h66q62 0 105.5 64.5t43.5 151.5q0 118 -83 118h-38q-17 0 -22 -4.5t-8 -19.5z" />
    <glyph glyph-name="S" unicode="S" horiz-adv-x="550" 
d="M518 215q0 -94 -81.5 -159t-205.5 -66q-143 0 -233 29l66 237h2l75 -226q3 -9 7 -12t14 -5q28 -4 46 -4q61 0 104 33t43 92q0 42 -26.5 76t-81.5 74l-37 27q-116 85 -116 190q0 94 72 152.5t183 59.5q120 0 218 -27l-48 -224h-2l-92 215q-5 12 -18 15q-19 3 -43 3
q-52 0 -86.5 -28t-34.5 -80q0 -79 111 -157l35 -25q65 -46 97 -88.5t32 -101.5z" />
    <glyph glyph-name="T" unicode="T" horiz-adv-x="617" 
d="M363 100q-4 -19 5 -30l59 -68v-2h-337v2l87 68q13 9 17 30l120 583h-54q-13 0 -19 -2.5t-15 -15.5l-168 -232h-2l56 270h581l-55 -270h-2l-74 232q-4 12 -8.5 15t-16.5 3h-54z" />
    <glyph glyph-name="U" unicode="U" horiz-adv-x="657" 
d="M574 256q-27 -132 -93.5 -199t-195.5 -67q-105 0 -160.5 47t-55.5 136q0 30 8 70l76 367q3 17 -5 28l-50 63v2h317v-2l-78 -63q-12 -10 -16 -28l-74 -360q-10 -49 -10 -88q0 -135 120 -135q72 0 122.5 57t73.5 170l56 270q5 21 3 33t-14 32l-64 112v2h240v-2l-110 -115
q-18 -19 -23.5 -29.5t-10.5 -32.5z" />
    <glyph glyph-name="V" unicode="V" horiz-adv-x="602" 
d="M305 0h-118l-69 593q-3 24 -11 41l-28 67v2h278v-2l-62 -67q-9 -9 -8 -27l55 -491l218 420q8 16 -1 36l-63 129v2h236v-2l-120 -127q-24 -27 -32 -43z" />
    <glyph glyph-name="W" unicode="W" horiz-adv-x="970" 
d="M980 574q-24 -26 -33 -43l-273 -531h-120l-42 401l-209 -401h-121l-64 593q-3 24 -11 41l-28 67v2h278v-2l-61 -67q-10 -11 -9 -26l52 -496l170 324l-16 157q-3 20 -9 38l-25 70v2h272v-2l-62 -67q-10 -10 -9 -26l50 -494l218 422q8 16 -1 36l-63 129v2h236v-2z" />
    <glyph glyph-name="X" unicode="X" horiz-adv-x="675" 
d="M539 538l-112 -117l136 -311q9 -19 22 -36l51 -72v-2h-313v2l60 61q11 11 5 26l-83 190l-124 -130q-11 -11 -12.5 -16.5t2.5 -14.5l49 -116v-2h-276v2l163 110q40 27 64 53l126 132l-129 296q-9 19 -22 36l-51 72v2h313v-2l-59 -61q-12 -12 -6 -26l76 -175l110 115
q11 11 13 16.5t-2 14.5l-51 116v2h277v-2l-162 -110q-43 -29 -65 -53z" />
    <glyph glyph-name="Y" unicode="Y" horiz-adv-x="621" 
d="M583 543l-166 -238q-10 -13 -15 -38l-35 -171q-3 -17 5 -26l60 -68v-2h-337v2l87 68q13 11 16 26l31 154q4 14 0 25l-101 316q-7 23 -18 43l-36 67v2h312v-2l-74 -69q-11 -10 -8 -24l89 -306l170 247q8 11 8.5 16.5t-4.5 14.5l-61 121v2h250v-2l-138 -121
q-24 -21 -35 -37z" />
    <glyph glyph-name="Z" unicode="Z" horiz-adv-x="614" 
d="M527 0h-564v2l533 681h-179q-21 0 -31 -12l-191 -236h-3l56 268h553l-1 -2l-532 -681h189q20 0 30 12l192 235h2z" />
    <glyph glyph-name="bracketleft" unicode="[" horiz-adv-x="364" 
d="M264 641l-143 -697q-2 -9 -0.5 -11.5t8.5 -5.5l144 -53v-2l-269 -12l176 865l264 -12v-2l-165 -53q-9 -3 -11.5 -5.5t-3.5 -11.5z" />
    <glyph glyph-name="backslash" unicode="\" horiz-adv-x="380" 
d="M242 -152l-117 886l19 4l117 -886z" />
    <glyph glyph-name="bracketright" unicode="]" horiz-adv-x="364" 
d="M118 -56l143 697q2 9 0.5 11.5t-9.5 5.5l-144 53v2l269 12l-176 -865l-264 12v2l166 53q9 3 11.5 5.5t3.5 11.5z" />
    <glyph glyph-name="asciicircum" unicode="^" horiz-adv-x="540" 
d="M290 713l179 -390l-18 -9l-162 354l-162 -354l-18 9l179 390h2z" />
    <glyph glyph-name="underscore" unicode="_" horiz-adv-x="500" 
d="M445 -91h-490v19h490v-19z" />
    <glyph glyph-name="grave" unicode="`" horiz-adv-x="351" 
d="M39 703h163l110 -165l-1 -1l-272 164v2z" />
    <glyph glyph-name="a" unicode="a" horiz-adv-x="559" 
d="M535 502q-54 -230 -84 -341q-10 -36 -10 -59q0 -29 20 -29q21 0 42 29q25 36 40 80l2 -1q-16 -84 -61 -136.5t-107 -52.5q-38 0 -60.5 23t-23.5 65q0 34 15 94h-2q-61 -182 -169 -182q-49 0 -83 41t-34 117q0 90 35 171.5t95 131.5t127 50q64 0 101 -46l156 46zM371 448
q-11 15 -34 15q-54 0 -97 -78q-27 -48 -44 -118t-17 -132t33 -62q35 0 67 69q44 92 92 306z" />
    <glyph glyph-name="b" unicode="b" horiz-adv-x="523" 
d="M304 728l-89 -403h2q28 77 71 127t98 50q53 0 86.5 -37t33.5 -116q0 -143 -82.5 -250t-184.5 -107q-62 0 -91 43l-149 -43h-1l137 656q2 14 0.5 18t-10.5 8l-59 27v2zM246 359q-40 -71 -92 -316q10 -11 32 -11q68 0 115 116q21 52 33 113.5t12 96.5q0 64 -32 64
q-33 0 -68 -63z" />
    <glyph glyph-name="c" unicode="c" horiz-adv-x="436" 
d="M198 -8q-82 0 -131.5 52t-49.5 140q0 127 84.5 223t213.5 96q72 0 138 -23l-80 -196h-1l-52 187q-2 9 -4.5 11t-8.5 2q-30 0 -60 -46.5t-47.5 -110t-17.5 -115.5q0 -62 25 -93t62 -31q80 0 137 109h2q-27 -104 -82 -154.5t-128 -50.5z" />
    <glyph glyph-name="d" unicode="d" horiz-adv-x="553" 
d="M136 -8q-47 0 -81.5 42.5t-34.5 121.5q0 88 35 168.5t95 129.5t127 49q68 0 88 -48l41 193q3 8 2 13.5t-3 7.5t-8 5l-60 27v2l238 25l-126 -572q-7 -30 -7 -52q0 -31 21 -31q20 0 41.5 29t37.5 80l2 -1q-19 -103 -74 -152q-42 -37 -91 -37q-39 0 -62.5 23t-23.5 65
q0 38 15 94h-2q-62 -182 -170 -182zM284 153q36 81 79 292q-17 14 -38 14q-45 0 -83 -65q-28 -49 -46 -123.5t-18 -129.5q0 -68 33 -68q39 0 73 80z" />
    <glyph glyph-name="e" unicode="e" horiz-adv-x="467" 
d="M204 -8q-84 0 -135.5 54t-51.5 147q0 123 86.5 216.5t211.5 93.5q67 0 108 -29t41 -79q0 -71 -79 -117.5t-203 -47.5q-1 -8 -1 -23q0 -123 99 -123q47 0 88 31t66 91l2 -1q-23 -109 -87 -161t-145 -52zM313 484q-40 0 -80.5 -77.5t-49.5 -164.5q77 8 118 60t41 124
q0 58 -29 58z" />
    <glyph glyph-name="f" unicode="f" horiz-adv-x="300" 
d="M201 163q-14 -79 -36 -145t-55.5 -126t-84.5 -94t-113 -34q-60 0 -101 25l70 160h2l54 -151q4 -12 13 -12q13 0 24 18q28 41 60 236q1 6 1.5 9.5t1.5 9t2 9.5l55 322q4 26 16 78h-65v19h70q29 106 86 166t158 60q68 0 118 -22l-70 -156h-2l-52 147q-4 9 -6.5 11t-10.5 2
q-29 0 -44.5 -47.5t-34.5 -160.5h108v-19h-111z" />
    <glyph glyph-name="g" unicode="g" horiz-adv-x="503" 
d="M531 436h-91q32 -32 32 -83q0 -85 -68 -133t-162 -48q-38 0 -76 8q-27 -9 -27 -31q0 -27 46 -36l128 -25q67 -13 101.5 -49.5t34.5 -85.5q0 -87 -78 -138t-185 -51t-172 32.5t-65 86.5q0 80 138 109q-76 25 -76 83q0 40 37.5 70t106.5 38q-109 31 -109 135
q0 83 66.5 133.5t161.5 50.5q75 0 133 -34q13 -9 22 0l133 133h2zM119 -17q-1 0 -12 3t-12 3q-50 -38 -50 -97q0 -47 44.5 -78.5t103.5 -31.5q58 0 94.5 27t36.5 71q0 56 -82 74zM287 485q-42 0 -70 -73t-28 -145q0 -78 38 -78q43 0 72 71.5t29 144.5q0 80 -41 80z" />
    <glyph glyph-name="h" unicode="h" horiz-adv-x="555" 
d="M517 412q0 -41 -24 -115l-40 -130q-15 -51 -15 -69q0 -24 21 -24q20 0 38 22q22 27 41 85h2q-13 -86 -61 -137.5t-110 -51.5q-42 0 -66 24t-24 61t24 111l46 141q16 46 16 68q0 24 -22 24q-46 0 -91 -75q-44 -73 -107 -346h-148l143 648q2 14 0.5 18t-10.5 8l-59 27v2
l238 25l-97 -430h2q40 96 96 150.5t116 54.5q41 0 66 -25.5t25 -65.5z" />
    <glyph glyph-name="i" unicode="i" horiz-adv-x="299" 
d="M113 -8q-42 0 -63 25.5t-21 63.5q0 31 11 75l69 271q6 20 -8 28l-61 30v2l240 16l-87 -345q-11 -41 -11 -60q0 -24 20 -24t38 22q27 34 42 85h2q-12 -78 -60.5 -133.5t-110.5 -55.5zM236 701q32 0 53.5 -19t21.5 -50q0 -36 -25 -58.5t-63 -22.5q-32 0 -54.5 18t-22.5 50
q0 36 26.5 59t63.5 23z" />
    <glyph glyph-name="j" unicode="j" horiz-adv-x="279" 
d="M196 151q-14 -63 -30 -113t-43 -103.5t-59.5 -89t-80.5 -58.5t-106 -23t-99 25l70 159h2l54 -151q4 -11 13 -11q12 0 29 19q45 53 87 258l75 365q4 20 -12 28l-58 29v2l239 16zM146 619q0 36 26.5 59t63.5 23q32 0 53.5 -19t21.5 -50q0 -36 -25 -58.5t-63 -22.5
q-32 0 -54.5 18t-22.5 50z" />
    <glyph glyph-name="k" unicode="k" horiz-adv-x="521" 
d="M343 -8q-41 0 -63 23t-30 75l-20 122q-4 25 -10 41t-14 15l-58 -268h-149l137 648q2 14 0.5 18t-10.5 8l-59 27v2l238 25l-98 -452l150 105q19 13 19 21q0 5 -12 24l-37 59v2h249v-2l-143 -77q-34 -19 -47 -28l-38 -28l42 -203q9 -43 17 -59t24 -16q21 0 39 24
q22 28 39 83h2q-14 -87 -61.5 -138t-106.5 -51z" />
    <glyph glyph-name="l" unicode="l" horiz-adv-x="285" 
d="M102 -8q-41 0 -63.5 26t-22.5 66q0 26 11 74l111 490q3 8 2 13.5t-3 7.5t-8 5l-60 27v2l238 25l-130 -571q-8 -33 -8 -55q0 -28 22 -28q20 0 37 22q28 36 43 85h2q-16 -94 -76 -149q-47 -40 -95 -40z" />
    <glyph glyph-name="m" unicode="m" horiz-adv-x="852" 
d="M750 167q-14 -47 -14 -69q0 -24 20 -24q22 0 38 22q26 34 42 85h2q-13 -86 -61.5 -137.5t-109.5 -51.5q-42 0 -66 24t-24 61q0 41 24 111l46 141q16 46 16 69t-22 23q-31 0 -65 -39q-36 -44 -62 -117.5t-71 -264.5h-149l77 342q10 43 10 56q0 23 -19 23q-30 0 -65 -43
q-34 -43 -62 -120t-69 -258h-149l94 424q4 17 2.5 22t-12.5 10l-59 29v2l239 16l-44 -201h2q35 86 91.5 143.5t108.5 57.5q40 0 67.5 -26t27.5 -76q0 -26 -19 -96h2q35 89 92.5 143.5t117.5 54.5q41 0 64.5 -25.5t23.5 -65.5q0 -39 -24 -115z" />
    <glyph glyph-name="n" unicode="n" horiz-adv-x="578" 
d="M477 167q-14 -42 -14 -69q0 -24 20 -24t38 22q21 25 42 85h2q-14 -87 -62 -138t-110 -51q-42 0 -65.5 24t-23.5 61t24 111l46 141q15 43 15 69q0 23 -23 23q-38 0 -78 -56q-32 -44 -58 -121t-64 -244h-149l94 424q4 17 2.5 21.5t-12.5 10.5l-59 29v2l239 16l-44 -201h2
q36 90 94 145.5t120 55.5q41 0 64.5 -25.5t23.5 -65.5q0 -31 -24 -115z" />
    <glyph glyph-name="o" unicode="o" horiz-adv-x="525" 
d="M217 -9q-39 0 -72.5 10.5t-63 33t-46.5 63t-17 95.5q0 129 84 219.5t206 90.5q38 0 72 -10.5t63.5 -33t46.5 -63t17 -95.5q0 -130 -85 -220t-205 -90zM213 9q35 0 67.5 64.5t51 156t18.5 174.5q0 81 -38 81q-52 0 -94.5 -132t-42.5 -263q0 -81 38 -81z" />
    <glyph glyph-name="p" unicode="p" horiz-adv-x="546" 
d="M264 -8q-60 0 -91 38l-44 -189q-2 -10 -0.5 -14.5t11.5 -8.5l94 -44v-2h-320v2l49 39q15 11 18 28l130 586q2 10 2 14.5t-2 8t-9 6.5l-60 29v2l239 16l-44 -195h2q72 195 175 195q51 0 83.5 -36t32.5 -110q0 -147 -82.5 -256t-183.5 -109zM273 352q-40 -71 -97 -310
q15 -9 34 -9q53 0 100 86q61 112 61 248q0 55 -30 55q-28 0 -68 -70z" />
    <glyph glyph-name="q" unicode="q" horiz-adv-x="529" 
d="M276 503q68 0 103 -46l148 46h1l-142 -662q-4 -17 7 -26l50 -41v-2h-305v2l82 48q10 5 13 10t6 19l70 324h-2q-65 -183 -170 -183q-52 0 -84.5 42.5t-32.5 112.5q0 143 78 249.5t178 106.5zM282 147q39 82 89 301q-12 15 -35 15q-58 0 -101 -85q-28 -53 -42.5 -122.5
t-14.5 -120.5q0 -62 34 -62q35 0 70 74z" />
    <glyph glyph-name="r" unicode="r" horiz-adv-x="414" 
d="M168 0h-148l89 424q4 17 2.5 22t-13.5 11l-57 28v2l239 16l-42 -197h1q35 97 74.5 147t91.5 50q32 0 51 -15l-77 -217h-2l-53 121q-4 9 -9 9q-6 0 -15 -10q-18 -22 -36 -57q-41 -84 -96 -334z" />
    <glyph glyph-name="s" unicode="s" horiz-adv-x="406" 
d="M270 298q51 -41 73 -71t22 -70q0 -65 -54 -115t-153 -50q-91 0 -163 33l57 172h2l74 -175q5 -11 18 -13q6 -1 14 -1q38 0 60 21t22 54q0 5 -1 10t-2.5 9t-5 9.5t-6 9t-8.5 9.5l-9.5 9.5t-12 11t-13.5 11.5t-16.5 13.5t-17.5 14.5q-49 42 -70.5 77.5t-21.5 77.5
q0 65 49.5 111.5t137.5 46.5q71 0 154 -23l-56 -169h-2l-74 166q-4 9 -13 9h-6q-33 0 -52.5 -19t-19.5 -51q0 -25 21.5 -51t72.5 -67z" />
    <glyph glyph-name="t" unicode="t" horiz-adv-x="311" 
d="M192 157q-9 -45 -9 -58q0 -25 21 -25q18 0 36 20q28 33 44 87h2q-15 -95 -73 -148q-44 -41 -97 -41q-42 0 -63.5 26t-21.5 61q0 26 11 77l71 311h-70v20h63q18 0 28 10l171 188h2l-43 -198h100v-20h-105z" />
    <glyph glyph-name="u" unicode="u" horiz-adv-x="583" 
d="M476 155q-8 -35 -8 -56q0 -26 21 -26q18 0 39 24q26 32 42 84h2q-19 -100 -74 -150q-41 -39 -94 -39q-42 0 -64.5 23t-22.5 64q0 40 20 114h-2q-34 -89 -92.5 -145t-114.5 -56q-42 0 -66 25t-24 66q0 31 24 115l40 130q14 42 14 68q0 25 -20 25q-19 0 -38 -22
q-19 -23 -42 -79h-2q20 84 66 133.5t106 49.5q42 0 65.5 -24t23.5 -61q0 -42 -24 -112l-46 -140q-15 -43 -15 -69q0 -24 24 -24q30 0 72 57q30 41 53.5 110.5t69.5 244.5l151 15z" />
    <glyph glyph-name="v" unicode="v" horiz-adv-x="467" 
d="M242 286l-31 -105q-12 -38 -12 -64q0 -53 44 -53q53 0 93.5 74t40.5 159q0 72 -32 126q-10 19 -24 34v2l157 44q-3 -79 -29.5 -168t-68.5 -165.5t-103 -127t-126 -50.5q-52 0 -78 30t-26 75q0 38 19 107l31 121q14 56 14 70q0 25 -21 25q-19 0 -37.5 -20.5t-45.5 -66.5
h-2q60 170 172 170q88 0 88 -97q0 -43 -23 -120z" />
    <glyph glyph-name="w" unicode="w" horiz-adv-x="723" 
d="M469 182q-10 -46 -10 -63q0 -55 44 -55q49 0 89.5 71.5t40.5 160.5q0 64 -25 119q-13 28 -23 42v2l150 44q-7 -117 -51.5 -234.5t-116.5 -197t-148 -79.5q-42 0 -67 27t-25 79q0 25 6 55h-2q-23 -70 -69 -115.5t-110 -45.5q-52 0 -78.5 29.5t-26.5 74.5q0 35 18 107
l32 122q14 48 14 70q0 25 -21 25q-33 0 -83 -87h-2q60 170 172 170q88 0 88 -97q0 -41 -23 -120l-32 -107q-13 -41 -13 -68q0 -47 37 -47q53 0 91 115q37 113 53 304l151 20q-4 -36 -8.5 -69.5t-12 -70t-12 -57.5t-14.5 -64.5t-13 -59.5z" />
    <glyph glyph-name="x" unicode="x" horiz-adv-x="499" 
d="M349 141q12 -63 44 -63q45 0 78 98h2q-16 -85 -64.5 -134.5t-104.5 -49.5q-80 0 -101 102l-13 64q-11 -24 -24 -49q-34 -65 -61.5 -91t-63.5 -26q-40 0 -65 29l74 179h2l31 -71q10 -23 32 -23q15 0 30.5 13t22.5 23.5t19 30.5l-34 181q-12 63 -45 63q-45 0 -77 -96h-2
q16 84 64.5 133t104.5 49q81 0 101 -102l13 -67q5 10 13 26.5t11 22.5q34 66 62 93t64 27q40 0 65 -29l-73 -179h-2l-36 77q-8 17 -29 17q-28 0 -72 -70z" />
    <glyph glyph-name="y" unicode="y" horiz-adv-x="488" 
d="M260 378q17 -63 27.5 -160t7.5 -193l2 -1q33 49 62 127q29 81 29 158q0 92 -49 148v2l157 44q-12 -143 -70.5 -283t-144.5 -244q-76 -93 -171.5 -152.5t-160.5 -59.5q-21 0 -32 6l56 167h2l105 -96q9 -9 19 -3q24 14 52 38q10 9 10 26v14q0 126 -18.5 253t-41.5 197
q-11 35 -29 35q-29 0 -61 -86h-2q11 79 51 133.5t96 54.5q24 0 41.5 -9.5t29 -30t18.5 -38t15 -47.5z" />
    <glyph glyph-name="z" unicode="z" horiz-adv-x="404" 
d="M337 47q-42 -59 -104 -59q-24 0 -111 26q-62 18 -75 18q-47 0 -62 -44h-2q2 22 7 39q12 43 52 80l237 226q-29 3 -72 17q-76 24 -104 24q-25 0 -45 -17t-35 -63h-2q39 215 154 215q26 0 116 -30q53 -17 71 -17q52 0 70 52h2q-6 -66 -64 -121l-242 -231q30 -2 92 -20
t86 -18q57 0 88 87h2q-15 -99 -59 -164z" />
    <glyph glyph-name="braceleft" unicode="{" horiz-adv-x="353" 
d="M45 291v2q37 5 63.5 26t30.5 50l24 181q6 51 27.5 87.5t52.5 55t63.5 26.5t69.5 8q27 0 62 -7v-2q-68 2 -109 -43t-48 -99l-23 -173q-6 -43 -39 -72.5t-84 -37.5v-2q46 -10 67 -40.5t10 -71.5l-47 -171q-15 -56 6.5 -99t91.5 -42v-2q-37 -7 -64 -7q-74 0 -119 48.5
t-23 127.5l50 178q9 30 -9 52t-53 27z" />
    <glyph glyph-name="bar" unicode="|" horiz-adv-x="220" 
d="M17 -250l-18 4l202 996l19 -4z" />
    <glyph glyph-name="braceright" unicode="}" horiz-adv-x="353" 
d="M325 294v-2q-37 -5 -64 -26t-31 -50l-23 -181q-7 -51 -28 -87t-52.5 -55t-64 -27t-69.5 -8q-28 0 -61 7v2q69 -1 109 43.5t47 98.5l23 174q5 43 38.5 72.5t84.5 36.5v2q-47 10 -68 40.5t-9 72.5l47 171q15 55 -7 98.5t-91 41.5v2q37 7 64 7q75 0 120 -48.5t22 -127.5
l-50 -178q-8 -30 10 -52t53 -27z" />
    <glyph glyph-name="asciitilde" unicode="~" horiz-adv-x="503" 
d="M380 276q-46 0 -116.5 33t-110.5 33q-60 0 -96 -58l-16 10q40 67 112 67q46 0 116.5 -33t110.5 -33q61 0 97 59l16 -11q-40 -67 -113 -67z" />
    <glyph glyph-name="uni00A0" unicode="&#xa0;" horiz-adv-x="192" 
 />
    <glyph glyph-name="exclamdown" unicode="&#xa1;" horiz-adv-x="283" 
d="M150 275l20 -484h-237l215 484h2zM173 347q-33 0 -54.5 19t-21.5 51q0 36 25.5 60.5t61.5 24.5q31 0 52 -20t21 -50q0 -36 -24.5 -60.5t-59.5 -24.5z" />
    <glyph glyph-name="cent" unicode="&#xa2;" horiz-adv-x="451" 
d="M196 -8q-80 0 -129.5 52t-49.5 140q0 123 79.5 217.5t203.5 100.5l20 103l18 -3l-20 -99q70 -1 135 -23l-80 -196h-2l-51 187q-3 10 -6 11l-76 -388q15 -6 31 -6q80 0 137 109h2q-25 -95 -74.5 -145.5t-114.5 -57.5l-20 -102l-18 3l19 97h-4zM182 212q0 -78 40 -108
l74 378q-42 -12 -78 -102.5t-36 -167.5z" />
    <glyph glyph-name="sterling" unicode="&#xa3;" horiz-adv-x="588" 
d="M62 296v19h87q-3 10 -13.5 36t-15.5 41t-10 39t-5 45q0 108 78.5 172.5t209.5 64.5q106 0 206 -21l-51 -232h-2l-93 217q-6 15 -27 15h-13q-49 0 -81 -36.5t-43.5 -83t-11.5 -97.5q0 -23 4 -66t4 -64q0 -10 -2 -30h172v-19h-174q-9 -59 -42 -101t-91 -56v-2h254
q31 0 41 3.5t28 19.5l75 67h2l-79 -227h-493v2l112 110q75 73 75 138q0 14 -8 46h-93z" />
    <glyph glyph-name="currency" unicode="&#xa4;" horiz-adv-x="735" 
d="M114 64l-14 14l112 112q-62 64 -62 162q0 97 62 162l-112 113l13 14l113 -113q66 57 161 57t161 -58l113 113l14 -13l-113 -113q63 -65 63 -162t-62 -162l111 -112l-13 -14l-113 113q-65 -57 -161 -57t-161 56zM170 352q0 -96 62.5 -154.5t154.5 -58.5t154.5 58.5
t62.5 154.5q0 95 -62.5 154.5t-154.5 59.5t-154.5 -59.5t-62.5 -154.5z" />
    <glyph glyph-name="yen" unicode="&#xa5;" horiz-adv-x="617" 
d="M539 259h-144l-16 -80h140v-19h-144l-13 -64q-3 -17 5 -26l60 -68v-2h-337v2l87 68q13 11 16 26l13 64h-151v19h155l16 80h-151v19h148l-100 313q-7 23 -18 43l-36 67v2h312v-2l-74 -69q-11 -10 -8 -24l89 -306l170 247q8 11 8.5 16.5t-4.5 14.5l-61 121v2h250v-2
l-138 -121q-24 -21 -35 -37l-166 -238q-9 -15 -13 -27h140v-19z" />
    <glyph glyph-name="brokenbar" unicode="&#xa6;" horiz-adv-x="220" 
d="M17 -250l-18 4l89 435l19 -4zM133 320l-19 4l87 426l19 -4z" />
    <glyph glyph-name="section" unicode="&#xa7;" horiz-adv-x="541" 
d="M184 -186q-100 0 -167 19l88 189h2l50 -174q3 -11 7.5 -14.5t17.5 -3.5h12q40 0 70.5 26t30.5 65q0 28 -23 53t-74 59l-36 25q-65 45 -90.5 79t-25.5 78q0 66 52 114.5t121 61.5q-73 55 -73 135q0 83 66.5 135t158.5 52q102 0 167 -19l-88 -188h-2l-50 174q-3 11 -7.5 14
t-16.5 3h-12q-40 0 -71 -26t-31 -64q0 -28 23 -53.5t72 -58.5l37 -25q63 -41 89.5 -77.5t26.5 -76.5q0 -71 -51.5 -119t-121.5 -60q73 -58 73 -135q0 -83 -66 -135.5t-158 -52.5zM314 320q-7 6 -44 32.5t-43 31.5q-25 -11 -42.5 -33.5t-17.5 -52.5q0 -21 17.5 -41t55.5 -49
q6 -4 26.5 -19.5t38 -28.5t21.5 -17q25 11 43 34t18 53q0 37 -73 90z" />
    <glyph glyph-name="dieresis" unicode="&#xa8;" horiz-adv-x="439" 
d="M127 689q29 0 47 -16t18 -44q0 -31 -22 -51t-54 -20q-28 0 -47 16t-19 43q0 32 23 52t54 20zM324 689q29 0 47 -16t18 -44q0 -32 -21.5 -51.5t-53.5 -19.5q-28 0 -47 16t-19 43q0 32 22.5 52t53.5 20z" />
    <glyph glyph-name="copyright" unicode="&#xa9;" horiz-adv-x="813" 
d="M426 713q157 0 258 -100.5t101 -260.5q0 -155 -99.5 -258.5t-259.5 -103.5q-162 0 -260.5 103.5t-98.5 258.5q0 153 104.5 257t254.5 104zM426 694q-142 0 -240 -98t-98 -244q0 -147 92.5 -245t245.5 -98q151 0 244.5 98t93.5 245q0 152 -95 247t-243 95zM365 351
q0 -92 21.5 -141.5t63.5 -49.5h7q12 0 19 10l89 128h2v-144q-55 -11 -126 -11q-101 0 -153 55.5t-52 152.5q0 95 54 152t148 57q76 0 129 -12v-139h-2l-89 125q-8 9 -17 9h-9q-41 0 -63 -51.5t-22 -140.5z" />
    <glyph glyph-name="ordfeminine" unicode="&#xaa;" horiz-adv-x="389" 
d="M135 366q-33 0 -56.5 28t-23.5 79q0 94 52.5 167.5t122.5 73.5q48 0 69 -31l105 31l1 -1q-21 -90 -57 -227q-8 -32 -8 -44q0 -21 16 -21q22 0 54 68l2 -1q-14 -50 -36 -79q-33 -43 -78 -43q-25 0 -40.5 16t-16.5 43q0 23 9 54l-2 1q-43 -114 -113 -114zM186 421
q14 0 31.5 22.5t27.5 55.5l49 176q-9 11 -23 11q-37 0 -67 -52q-41 -75 -41 -172q0 -41 23 -41z" />
    <glyph glyph-name="guillemotleft" unicode="&#xab;" horiz-adv-x="466" 
d="M29 252l271 230l1 -1l-142 -234l46 -225l-2 -1l-174 229v2zM216 252l271 230l1 -1l-142 -234l47 -225l-2 -1l-175 229v2z" />
    <glyph glyph-name="logicalnot" unicode="&#xac;" horiz-adv-x="540" 
d="M501 109h-20v206h-441v19h461v-225z" />
    <glyph glyph-name="uni00AD" unicode="&#xad;" horiz-adv-x="351" 
d="M46 237v20h260v-20h-260z" />
    <glyph glyph-name="registered" unicode="&#xae;" horiz-adv-x="813" 
d="M426 713q157 0 258 -100.5t101 -260.5q0 -155 -99.5 -258.5t-259.5 -103.5q-162 0 -260.5 103.5t-98.5 258.5q0 153 104.5 257t254.5 104zM426 694q-142 0 -240 -98t-98 -244q0 -147 92.5 -245t245.5 -98q151 0 244.5 98t93.5 245q0 152 -95 247t-243 95zM249 166v2
l36 33q5 4 5 15v282q0 10 -5 15l-36 33v2h220q55 0 91 -23.5t36 -73.5q0 -43 -32 -69.5t-89 -31.5v-2l73 -19l51 -117q3 -9 16 -20l27 -24v-2h-141l-65 171q-4 7 -12 7h-28v-128q0 -10 5 -15l36 -33v-2h-188zM396 519v-159h30q57 0 57 83q0 88 -53 88h-21q-9 0 -11 -2.5
t-2 -9.5z" />
    <glyph glyph-name="macron" unicode="&#xaf;" horiz-adv-x="385" 
d="M331 592h-280v20h280v-20z" />
    <glyph glyph-name="degree" unicode="&#xb0;" horiz-adv-x="324" 
d="M69 589q0 54 37 88t90 34t90 -34t37 -88q0 -53 -37 -86t-90 -33t-90 33t-37 86zM90 589q0 -43 31.5 -71.5t74.5 -28.5q44 0 75.5 28.5t31.5 71.5q0 45 -31.5 74t-75.5 29q-43 0 -74.5 -29.5t-31.5 -73.5z" />
    <glyph glyph-name="plusminus" unicode="&#xb1;" horiz-adv-x="540" 
d="M70 365v19h210v160h20v-160h211v-19h-211v-161h-20v161h-210zM511 105h-441v19h441v-19z" />
    <glyph glyph-name="twosuperior" unicode="&#xb2;" 
d="M250 713q52 0 81.5 -19t29.5 -52q0 -50 -57.5 -88t-144.5 -63v-2h107q24 0 36 9l39 28h2l-40 -107h-250v2q33 25 101 83q35 29 54.5 47.5t38 49.5t18.5 60q0 37 -34 37h-5q-9 0 -14 -8l-66 -97h-2l-28 95q62 25 134 25z" />
    <glyph glyph-name="threesuperior" unicode="&#xb3;" 
d="M340 510q0 -48 -49 -72t-118 -24q-67 0 -116 20l75 98h2l16 -94q2 -8 11 -8h8q31 0 53.5 24.5t22.5 60.5q0 49 -63 55v2q36 3 59.5 27t23.5 62q0 18 -9.5 27.5t-23.5 9.5h-7q-8 0 -14 -8l-64 -93h-2l-29 91q66 25 128 25q55 0 85.5 -18t30.5 -48q0 -32 -27 -50.5
t-74 -22.5v-2q37 -2 59 -19t22 -43z" />
    <glyph glyph-name="acute" unicode="&#xb4;" horiz-adv-x="351" 
d="M50 537l-1 1l109 165h164v-2z" />
    <glyph glyph-name="mu" unicode="&#xb5;" horiz-adv-x="598" 
d="M407 -8q-39 0 -61 23t-22 67q0 48 20 111h-2q-30 -73 -71.5 -120.5t-84.5 -64.5q-5 -2 -15 -4l-39 -163q-2 -10 -0.5 -14.5t11.5 -8.5l94 -44v-2h-320v2l49 39q13 10 18 28l125 487q13 52 13 68q0 25 -19 25t-39 -23q-15 -18 -41 -78h-2q20 84 65.5 133.5t104.5 49.5
q43 0 66.5 -24t23.5 -61q0 -39 -23 -112l-44 -140q-16 -52 -16 -69q0 -24 22 -24q37 0 84 73q31 49 58 143q40 136 52 196l152 15l-83 -344q-8 -34 -8 -55q0 -28 22 -28t43.5 30t35.5 78h2q-13 -82 -56 -132q-46 -57 -115 -57z" />
    <glyph glyph-name="paragraph" unicode="&#xb6;" horiz-adv-x="608" 
d="M360 -250l-21 1l48 249h-60q-110 0 -180.5 64.5t-70.5 190.5q0 67 15.5 131t47.5 121.5t77.5 101t109.5 69t138 25.5h159v-19h-81l-130 -665h77v-19h-80zM328 19h63l130 665h-64z" />
    <glyph glyph-name="periodcentered" unicode="&#xb7;" horiz-adv-x="242" 
d="M154 498q32 0 53.5 -19t21.5 -51q0 -36 -25 -60.5t-61 -24.5q-31 0 -52.5 20t-21.5 50q0 36 25 60.5t60 24.5z" />
    <glyph glyph-name="cedilla" unicode="&#xb8;" horiz-adv-x="362" 
d="M298 -124q0 -49 -40 -80.5t-97 -31.5q-51 0 -82.5 26t-25.5 69h2q3 -29 25 -43t48 -14q31 0 53.5 19.5t22.5 49.5q0 20 -15.5 31.5t-39.5 11.5q-23 0 -39 -7l-1 2l92 88h2l-19 -57q16 3 30 3q38 0 61 -19t23 -48z" />
    <glyph glyph-name="onesuperior" unicode="&#xb9;" horiz-adv-x="266" 
d="M294 421v-2h-236v2l69 30q8 3 9 10l38 183q2 8 -4 9l-65 18v2l181 45l-53 -257q-1 -7 4 -10z" />
    <glyph glyph-name="ordmasculine" unicode="&#xba;" horiz-adv-x="381" 
d="M193 366q-57 0 -95.5 32.5t-38.5 103.5q0 88 57 149.5t140 61.5q56 0 94.5 -32t38.5 -104q0 -90 -57 -150.5t-139 -60.5zM191 380q36 -1 64.5 88t28.5 178q0 54 -26 54q-36 0 -64.5 -89t-28.5 -178q0 -53 26 -53z" />
    <glyph glyph-name="guillemotright" unicode="&#xbb;" horiz-adv-x="466" 
d="M254 250l-271 -229l-2 1l143 233l-47 226l2 1l175 -230v-2zM440 250l-271 -229l-2 1l143 233l-47 226l2 1l175 -230v-2z" />
    <glyph glyph-name="onequarter" unicode="&#xbc;" horiz-adv-x="520" 
d="M83 342v19h399v-19h-399zM363 71h-66l-7 -34q-1 -7 4 -10l33 -25v-2h-179v2l47 25q6 3 7 11l7 33h-141v2l206 216h67l-41 -203h10q10 0 17 8l62 81h2zM100 86h112l31 148zM398 421v-2h-236v2l69 30q8 3 9 10l38 183q1 7 -4 9l-65 18v2l181 45l-53 -257q-1 -7 4 -10z" />
    <glyph glyph-name="onehalf" unicode="&#xbd;" horiz-adv-x="520" 
d="M390 718l-53 -257q-1 -7 4 -10l57 -30v-2h-236v2l69 30q8 3 9 10l38 183q1 7 -4 9l-65 18v2zM482 361v-19h-399v19h399zM268 294q52 0 81.5 -19t29.5 -52q0 -50 -57.5 -88t-144.5 -63v-2h107q24 0 36 9l39 28h2l-40 -107h-250v2q33 25 101 83q35 29 54.5 47.5t38 49.5
t18.5 60q0 37 -34 37h-5q-9 0 -14 -8l-66 -97h-2l-28 95q62 25 134 25z" />
    <glyph glyph-name="threequarters" unicode="&#xbe;" horiz-adv-x="520" 
d="M363 71h-66l-7 -34q-1 -7 4 -10l33 -25v-2h-179v2l47 25q6 3 7 11l7 33h-141v2l206 216h67l-41 -203h10q10 0 17 8l62 81h2zM444 510q0 -48 -49 -72t-118 -24q-67 0 -116 20l75 98h2l16 -94q2 -8 11 -8h8q31 0 53.5 24.5t22.5 60.5q0 49 -63 55v2q36 3 59.5 27t23.5 62
q0 18 -9.5 27.5t-23.5 9.5h-7q-8 0 -14 -8l-64 -93h-2l-29 91q66 25 128 25q55 0 85.5 -18t30.5 -48q0 -32 -27 -50.5t-74 -22.5v-2q37 -2 59 -19t22 -43zM100 86h112l31 148zM475 342h-412v19h412v-19z" />
    <glyph glyph-name="questiondown" unicode="&#xbf;" horiz-adv-x="441" 
d="M242 262q30 -1 53.5 -26t23.5 -56q0 -33 -22 -62.5t-53.5 -52t-62.5 -46.5t-53 -56.5t-22 -70.5q0 -39 17 -66t53 -27q10 0 17 1q20 3 29 16l124 196h2l43 -179q-117 -53 -231 -53q-99 0 -156 39t-57 111q0 41 17.5 75t48.5 59t61.5 43t68.5 38.5t57 34.5q31 23 38 43
q7 19 3 37zM291 346q-32 0 -53.5 19t-21.5 51q0 36 25 60.5t61 24.5q31 0 52.5 -20t21.5 -50q0 -36 -25 -60.5t-60 -24.5z" />
    <glyph glyph-name="Agrave" unicode="&#xc0;" horiz-adv-x="632" 
d="M382 96l-16 149h-219l-42 -80q-6 -13 -6 -17.5t7 -17.5l63 -128v-2h-237v2l123 128q20 21 31 42l226 426q7 14 7.5 19.5t-6.5 15.5l-44 68v2h216l66 -593q2 -16 12 -41l27 -67v-2h-278v2l62 67q9 9 8 27zM329 588l-171 -323h206zM205 911h163l110 -165l-1 -1l-272 164v2z
" />
    <glyph glyph-name="Aacute" unicode="&#xc1;" horiz-adv-x="632" 
d="M382 96l-16 149h-219l-42 -80q-6 -13 -6 -17.5t7 -17.5l63 -128v-2h-237v2l123 128q20 21 31 42l226 426q7 14 7.5 19.5t-6.5 15.5l-44 68v2h216l66 -593q2 -16 12 -41l27 -67v-2h-278v2l62 67q9 9 8 27zM329 588l-171 -323h206zM306 745l-1 1l109 165h164v-2z" />
    <glyph glyph-name="Acircumflex" unicode="&#xc2;" horiz-adv-x="632" 
d="M382 96l-16 149h-219l-42 -80q-6 -13 -6 -17.5t7 -17.5l63 -128v-2h-237v2l123 128q20 21 31 42l226 426q7 14 7.5 19.5t-6.5 15.5l-44 68v2h216l66 -593q2 -16 12 -41l27 -67v-2h-278v2l62 67q9 9 8 27zM329 588l-171 -323h206zM419 919l128 -175l-2 -1l-145 70
l-180 -70l-1 2l198 174h2z" />
    <glyph glyph-name="Atilde" unicode="&#xc3;" horiz-adv-x="632" 
d="M382 96l-16 149h-219l-42 -80q-6 -13 -6 -17.5t7 -17.5l63 -128v-2h-237v2l123 128q20 21 31 42l226 426q7 14 7.5 19.5t-6.5 15.5l-44 68v2h216l66 -593q2 -16 12 -41l27 -67v-2h-278v2l62 67q9 9 8 27zM329 588l-171 -323h206zM561 896h2q-9 -56 -39.5 -91t-71.5 -35
q-26 0 -67.5 24.5t-63.5 24.5q-48 0 -74 -49h-2q8 56 38.5 91t71.5 35q27 0 68 -24.5t63 -24.5q49 0 75 49z" />
    <glyph glyph-name="Adieresis" unicode="&#xc4;" horiz-adv-x="632" 
d="M382 96l-16 149h-219l-42 -80q-6 -13 -6 -17.5t7 -17.5l63 -128v-2h-237v2l123 128q20 21 31 42l226 426q7 14 7.5 19.5t-6.5 15.5l-44 68v2h216l66 -593q2 -16 12 -41l27 -67v-2h-278v2l62 67q9 9 8 27zM329 588l-171 -323h206zM309 897q29 0 47 -16t18 -44
q0 -31 -22 -51t-54 -20q-28 0 -47 16t-19 43q0 32 23 52t54 20zM506 897q29 0 47 -16t18 -44q0 -32 -21.5 -51.5t-53.5 -19.5q-28 0 -47 16t-19 43q0 32 22.5 52t53.5 20z" />
    <glyph glyph-name="Aring" unicode="&#xc5;" horiz-adv-x="632" 
d="M382 96l-16 149h-219l-42 -80q-6 -13 -6 -17.5t7 -17.5l63 -128v-2h-237v2l123 128q20 21 31 42l226 426q7 14 7.5 19.5t-6.5 15.5l-44 68v2h216l66 -593q2 -16 12 -41l27 -67v-2h-278v2l62 67q9 9 8 27zM329 588l-171 -323h206zM394 747q-34 0 -57.5 22.5t-23.5 57.5
q0 44 30.5 75t76.5 31q34 0 57.5 -22t23.5 -57q0 -44 -30.5 -75.5t-76.5 -31.5zM418 913q-34 0 -58.5 -25t-24.5 -60q0 -27 17 -44t44 -17q34 0 58.5 25t24.5 61q0 27 -17 43.5t-44 16.5z" />
    <glyph glyph-name="AE" unicode="&#xc6;" horiz-adv-x="927" 
d="M553 40q-3 -14 -0.5 -17t13.5 -3h115q21 0 33 14l164 212h4l-49 -246h-533v2l80 63q11 9 14 24l32 156h-231l-63 -77q-13 -16 -14.5 -23.5t3.5 -21.5l44 -121v-2h-246v2l139 119q42 37 49 46l355 433q9 11 9.5 16t-4.5 12l-54 73v2h553l-50 -242h-2l-85 206q-6 16 -25 16
h-103q-11 0 -14 -3t-6 -17l-62 -301h67q15 1 29 14l113 104h2l-53 -255h-2l-69 104q-9 13 -24 13h-67zM501 611q0 2 0.5 4.5t0.5 3.5l-292 -355h220z" />
    <glyph glyph-name="Ccedilla" unicode="&#xc7;" horiz-adv-x="614" 
d="M403 -124q0 -49 -40 -80.5t-97 -31.5q-51 0 -82.5 26t-25.5 69h2q3 -29 25 -43t48 -14q31 0 53.5 19.5t22.5 49.5q0 20 -15.5 31.5t-39.5 11.5q-23 0 -39 -7l-1 2l84 81q-124 3 -193 78t-69 198q0 190 114.5 318.5t295.5 128.5q117 0 213 -21l-51 -246h-2l-101 232
q-7 17 -26 17h-17q-96 0 -169.5 -146.5t-73.5 -352.5q0 -85 26.5 -136.5t79.5 -51.5h15q19 0 32 14l196 237h2l-50 -249q-101 -20 -212 -20h-3l-16 -50q17 3 30 3q38 0 61 -19t23 -48z" />
    <glyph glyph-name="Egrave" unicode="&#xc8;" horiz-adv-x="594" 
d="M238 20h107q15 0 22 2.5t17 15.5l162 208h2l-48 -246h-533v2l78 62q14 11 17 28l106 519q3 17 -4 27l-54 63v2h523l-50 -242h-2l-84 203q-6 13 -10.5 16t-17.5 3h-94q-16 0 -20.5 -3.5t-7.5 -18.5l-62 -299h65q17 1 35 17l109 101h2l-52 -255h-2l-67 101q-7 11 -12 13.5
t-17 2.5h-65l-61 -299q-3 -16 0 -19.5t18 -3.5zM234 911h163l110 -165l-1 -1l-272 164v2z" />
    <glyph glyph-name="Eacute" unicode="&#xc9;" horiz-adv-x="594" 
d="M335 745l-1 1l109 165h164v-2zM238 20h107q15 0 22 2.5t17 15.5l162 208h2l-48 -246h-533v2l78 62q14 11 17 28l106 519q3 17 -4 27l-54 63v2h523l-50 -242h-2l-84 203q-6 13 -10.5 16t-17.5 3h-94q-16 0 -20.5 -3.5t-7.5 -18.5l-62 -299h65q17 1 35 17l109 101h2
l-52 -255h-2l-67 101q-7 11 -12 13.5t-17 2.5h-65l-61 -299q-3 -16 0 -19.5t18 -3.5z" />
    <glyph glyph-name="Ecircumflex" unicode="&#xca;" horiz-adv-x="594" 
d="M448 919l128 -175l-2 -1l-145 70l-180 -70l-1 2l198 174h2zM238 20h107q15 0 22 2.5t17 15.5l162 208h2l-48 -246h-533v2l78 62q14 11 17 28l106 519q3 17 -4 27l-54 63v2h523l-50 -242h-2l-84 203q-6 13 -10.5 16t-17.5 3h-94q-16 0 -20.5 -3.5t-7.5 -18.5l-62 -299h65
q17 1 35 17l109 101h2l-52 -255h-2l-67 101q-7 11 -12 13.5t-17 2.5h-65l-61 -299q-3 -16 0 -19.5t18 -3.5z" />
    <glyph glyph-name="Edieresis" unicode="&#xcb;" horiz-adv-x="594" 
d="M338 897q29 0 47 -16t18 -44q0 -31 -22 -51t-54 -20q-28 0 -47 16t-19 43q0 32 23 52t54 20zM535 897q29 0 47 -16t18 -44q0 -32 -21.5 -51.5t-53.5 -19.5q-28 0 -47 16t-19 43q0 32 22.5 52t53.5 20zM238 20h107q15 0 22 2.5t17 15.5l162 208h2l-48 -246h-533v2l78 62
q14 11 17 28l106 519q3 17 -4 27l-54 63v2h523l-50 -242h-2l-84 203q-6 13 -10.5 16t-17.5 3h-94q-16 0 -20.5 -3.5t-7.5 -18.5l-62 -299h65q17 1 35 17l109 101h2l-52 -255h-2l-67 101q-7 11 -12 13.5t-17 2.5h-65l-61 -299q-3 -16 0 -19.5t18 -3.5z" />
    <glyph glyph-name="Igrave" unicode="&#xcc;" horiz-adv-x="352" 
d="M230 92q-3 -17 4 -27l53 -63v-2h-320v2l79 63q12 9 16 27l106 519q3 17 -4 27l-54 63v2h321v-2l-79 -63q-11 -9 -15 -27zM103 911h163l110 -165l-1 -1l-272 164v2z" />
    <glyph glyph-name="Iacute" unicode="&#xcd;" horiz-adv-x="352" 
d="M230 92q-3 -17 4 -27l53 -63v-2h-320v2l79 63q12 9 16 27l106 519q3 17 -4 27l-54 63v2h321v-2l-79 -63q-11 -9 -15 -27zM204 745l-1 1l109 165h164v-2z" />
    <glyph glyph-name="Icircumflex" unicode="&#xce;" horiz-adv-x="352" 
d="M230 92q-3 -17 4 -27l53 -63v-2h-320v2l79 63q12 9 16 27l106 519q3 17 -4 27l-54 63v2h321v-2l-79 -63q-11 -9 -15 -27zM317 919l128 -175l-2 -1l-145 70l-180 -70l-1 2l198 174h2z" />
    <glyph glyph-name="Idieresis" unicode="&#xcf;" horiz-adv-x="352" 
d="M230 92q-3 -17 4 -27l53 -63v-2h-320v2l79 63q12 9 16 27l106 519q3 17 -4 27l-54 63v2h321v-2l-79 -63q-11 -9 -15 -27zM207 897q29 0 47 -16t18 -44q0 -31 -22 -51t-54 -20q-28 0 -47 16t-19 43q0 32 23 52t54 20zM404 897q29 0 47 -16t18 -44q0 -32 -21.5 -51.5
t-53.5 -19.5q-28 0 -47 16t-19 43q0 32 22.5 52t53.5 20z" />
    <glyph glyph-name="Eth" unicode="&#xd0;" horiz-adv-x="713" 
d="M35 350v19h88l51 248q3 17 -5 26l-56 58v2h311q139 0 214 -72.5t75 -192.5q0 -183 -117.5 -310.5t-295.5 -127.5h-328v2l76 57q14 11 17 27l54 264h-84zM381 683q-13 0 -16.5 -3t-6.5 -18l-61 -293h109v-19h-113l-63 -307q-3 -15 0 -19t19 -4h16q51 0 94.5 30t74 81
t51 110.5t32.5 126.5q14 75 14 142q0 173 -122 173h-28z" />
    <glyph glyph-name="Ntilde" unicode="&#xd1;" horiz-adv-x="686" 
d="M648 535l-110 -535h-103l-236 533l-75 -365q-3 -16 6 -32l74 -134v-2h-249v2l128 134q16 16 19 32l78 378q4 22 -2 32l-75 123v2h205l241 -548l78 380q3 15 -6 32l-75 134v2h250v-2l-129 -134q-16 -17 -19 -32zM616 896h2q-9 -56 -39.5 -91t-71.5 -35q-26 0 -67.5 24.5
t-63.5 24.5q-48 0 -74 -49h-2q8 56 38.5 91t71.5 35q27 0 68 -24.5t63 -24.5q49 0 75 49z" />
    <glyph glyph-name="Ograve" unicode="&#xd2;" horiz-adv-x="709" 
d="M420 713q141 0 215 -77t74 -206q0 -187 -109 -313.5t-274 -126.5q-141 0 -215 77t-74 206q0 187 109 313.5t274 126.5zM312 9q47 0 89.5 57t69.5 139.5t43 168.5t16 150q0 90 -24 130t-72 40q-47 0 -89.5 -57t-69.5 -139.5t-43 -168.5t-16 -150q0 -90 24 -130t72 -40z
M272 911h163l110 -165l-1 -1l-272 164v2z" />
    <glyph glyph-name="Oacute" unicode="&#xd3;" horiz-adv-x="709" 
d="M373 745l-1 1l109 165h164v-2zM420 713q141 0 215 -77t74 -206q0 -187 -109 -313.5t-274 -126.5q-141 0 -215 77t-74 206q0 187 109 313.5t274 126.5zM312 9q47 0 89.5 57t69.5 139.5t43 168.5t16 150q0 90 -24 130t-72 40q-47 0 -89.5 -57t-69.5 -139.5t-43 -168.5
t-16 -150q0 -90 24 -130t72 -40z" />
    <glyph glyph-name="Ocircumflex" unicode="&#xd4;" horiz-adv-x="709" 
d="M486 919l128 -175l-2 -1l-145 70l-180 -70l-1 2l198 174h2zM420 713q141 0 215 -77t74 -206q0 -187 -109 -313.5t-274 -126.5q-141 0 -215 77t-74 206q0 187 109 313.5t274 126.5zM312 9q47 0 89.5 57t69.5 139.5t43 168.5t16 150q0 90 -24 130t-72 40q-47 0 -89.5 -57
t-69.5 -139.5t-43 -168.5t-16 -150q0 -90 24 -130t72 -40z" />
    <glyph glyph-name="Otilde" unicode="&#xd5;" horiz-adv-x="709" 
d="M420 713q141 0 215 -77t74 -206q0 -187 -109 -313.5t-274 -126.5q-141 0 -215 77t-74 206q0 187 109 313.5t274 126.5zM312 9q47 0 89.5 57t69.5 139.5t43 168.5t16 150q0 90 -24 130t-72 40q-47 0 -89.5 -57t-69.5 -139.5t-43 -168.5t-16 -150q0 -90 24 -130t72 -40z
M628 896h2q-9 -56 -39.5 -91t-71.5 -35q-26 0 -67.5 24.5t-63.5 24.5q-48 0 -74 -49h-2q8 56 38.5 91t71.5 35q27 0 68 -24.5t63 -24.5q49 0 75 49z" />
    <glyph glyph-name="Odieresis" unicode="&#xd6;" horiz-adv-x="709" 
d="M376 897q29 0 47 -16t18 -44q0 -31 -22 -51t-54 -20q-28 0 -47 16t-19 43q0 32 23 52t54 20zM573 897q29 0 47 -16t18 -44q0 -32 -21.5 -51.5t-53.5 -19.5q-28 0 -47 16t-19 43q0 32 22.5 52t53.5 20zM420 713q141 0 215 -77t74 -206q0 -187 -109 -313.5t-274 -126.5
q-141 0 -215 77t-74 206q0 187 109 313.5t274 126.5zM312 9q47 0 89.5 57t69.5 139.5t43 168.5t16 150q0 90 -24 130t-72 40q-47 0 -89.5 -57t-69.5 -139.5t-43 -168.5t-16 -150q0 -90 24 -130t72 -40z" />
    <glyph glyph-name="multiply" unicode="&#xd7;" horiz-adv-x="540" 
d="M142 161l-14 14l148 148l-149 149l14 14l149 -149l149 149l14 -14l-149 -149l148 -148l-14 -14l-148 148z" />
    <glyph glyph-name="Oslash" unicode="&#xd8;" horiz-adv-x="709" 
d="M420 713q43 0 88 -10l34 76l18 -7l-33 -74q90 -26 136 -96.5t46 -171.5q0 -187 -109 -313.5t-274 -126.5q-55 0 -105 13l-38 -85l-19 7l37 85q-81 29 -122.5 98t-41.5 165q0 187 109 313.5t274 126.5zM312 9q47 0 89.5 57t69.5 139.5t43 168.5t16 150q0 87 -23 128
l-267 -604q24 -39 72 -39zM216 179q0 -69 13 -107l265 598q-23 24 -60 24q-47 0 -89.5 -57t-69.5 -139.5t-43 -168.5t-16 -150z" />
    <glyph glyph-name="Ugrave" unicode="&#xd9;" horiz-adv-x="657" 
d="M574 256q-27 -132 -93.5 -199t-195.5 -67q-105 0 -160.5 47t-55.5 136q0 30 8 70l76 367q3 17 -5 28l-50 63v2h317v-2l-78 -63q-12 -10 -16 -28l-74 -360q-10 -49 -10 -88q0 -135 120 -135q72 0 122.5 57t73.5 170l56 270q5 21 3 33t-14 32l-64 112v2h240v-2l-110 -115
q-18 -19 -23.5 -29.5t-10.5 -32.5zM300 911h163l110 -165l-1 -1l-272 164v2z" />
    <glyph glyph-name="Uacute" unicode="&#xda;" horiz-adv-x="657" 
d="M401 745l-1 1l109 165h164v-2zM574 256q-27 -132 -93.5 -199t-195.5 -67q-105 0 -160.5 47t-55.5 136q0 30 8 70l76 367q3 17 -5 28l-50 63v2h317v-2l-78 -63q-12 -10 -16 -28l-74 -360q-10 -49 -10 -88q0 -135 120 -135q72 0 122.5 57t73.5 170l56 270q5 21 3 33t-14 32
l-64 112v2h240v-2l-110 -115q-18 -19 -23.5 -29.5t-10.5 -32.5z" />
    <glyph glyph-name="Ucircumflex" unicode="&#xdb;" horiz-adv-x="657" 
d="M514 919l128 -175l-2 -1l-145 70l-180 -70l-1 2l198 174h2zM574 256q-27 -132 -93.5 -199t-195.5 -67q-105 0 -160.5 47t-55.5 136q0 30 8 70l76 367q3 17 -5 28l-50 63v2h317v-2l-78 -63q-12 -10 -16 -28l-74 -360q-10 -49 -10 -88q0 -135 120 -135q72 0 122.5 57
t73.5 170l56 270q5 21 3 33t-14 32l-64 112v2h240v-2l-110 -115q-18 -19 -23.5 -29.5t-10.5 -32.5z" />
    <glyph glyph-name="Udieresis" unicode="&#xdc;" horiz-adv-x="657" 
d="M404 897q29 0 47 -16t18 -44q0 -31 -22 -51t-54 -20q-28 0 -47 16t-19 43q0 32 23 52t54 20zM601 897q29 0 47 -16t18 -44q0 -32 -21.5 -51.5t-53.5 -19.5q-28 0 -47 16t-19 43q0 32 22.5 52t53.5 20zM574 256q-27 -132 -93.5 -199t-195.5 -67q-105 0 -160.5 47
t-55.5 136q0 30 8 70l76 367q3 17 -5 28l-50 63v2h317v-2l-78 -63q-12 -10 -16 -28l-74 -360q-10 -49 -10 -88q0 -135 120 -135q72 0 122.5 57t73.5 170l56 270q5 21 3 33t-14 32l-64 112v2h240v-2l-110 -115q-18 -19 -23.5 -29.5t-10.5 -32.5z" />
    <glyph glyph-name="Yacute" unicode="&#xdd;" horiz-adv-x="621" 
d="M583 543l-166 -238q-10 -13 -15 -38l-35 -171q-3 -17 5 -26l60 -68v-2h-337v2l87 68q13 11 16 26l31 154q4 14 0 25l-101 316q-7 23 -18 43l-36 67v2h312v-2l-74 -69q-11 -10 -8 -24l89 -306l170 247q8 11 8.5 16.5t-4.5 14.5l-61 121v2h250v-2l-138 -121
q-24 -21 -35 -37zM374 745l-1 1l109 165h164v-2z" />
    <glyph glyph-name="Thorn" unicode="&#xde;" horiz-adv-x="644" 
d="M287 0h-320v2l79 63q12 9 16 27l106 519q3 17 -4 27l-54 63v2h321v-2l-79 -63q-11 -9 -15 -27l-8 -39h88q100 0 163.5 -43.5t63.5 -134.5q0 -124 -96 -193.5t-248 -69.5h-62l-8 -39q-3 -17 4 -27l53 -63v-2zM242 151h36q58 0 103 42t66.5 103t21.5 127q0 61 -26 95
t-75 34h-43z" />
    <glyph glyph-name="germandbls" unicode="&#xdf;" horiz-adv-x="596" 
d="M269 539l-80 -415q-27 -140 -77 -230q-72 -130 -204 -130q-54 0 -98 25l71 159h2l53 -148q5 -14 15 -14q7 0 13 4.5t11.5 15.5t10 22.5t9.5 31t9 35.5t9 42.5t8 44.5t8.5 48.5t8.5 49.5l68 369q2 14 4 19h-65v19h69q32 121 98.5 173.5t177.5 52.5q86 0 133 -29t47 -73
q0 -59 -81 -107l-65 -38q-42 -24 -42 -58q0 -15 11.5 -32t21 -26t32.5 -28l47 -39q40 -33 57.5 -62t17.5 -70q0 -69 -59 -114t-154 -45q-91 0 -166 33l86 147h2l44 -151q3 -8 13 -10q8 -1 27 -1q36 0 59.5 19t23.5 50t-58 85q-5 4 -7 6l-39 37q-36 34 -54 59.5t-18 56.5
q0 58 68 107l59 41q76 53 76 145q0 36 -20 57.5t-57 21.5q-96 0 -126 -156z" />
    <glyph glyph-name="agrave" unicode="&#xe0;" horiz-adv-x="559" 
d="M535 502q-54 -230 -84 -341q-10 -36 -10 -59q0 -29 20 -29q21 0 42 29q25 36 40 80l2 -1q-16 -84 -61 -136.5t-107 -52.5q-38 0 -60.5 23t-23.5 65q0 34 15 94h-2q-61 -182 -169 -182q-49 0 -83 41t-34 117q0 90 35 171.5t95 131.5t127 50q64 0 101 -46l156 46zM371 448
q-11 15 -34 15q-54 0 -97 -78q-27 -48 -44 -118t-17 -132t33 -62q35 0 67 69q44 92 92 306zM170 703h163l110 -165l-1 -1l-272 164v2z" />
    <glyph glyph-name="aacute" unicode="&#xe1;" horiz-adv-x="559" 
d="M535 502q-54 -230 -84 -341q-10 -36 -10 -59q0 -29 20 -29q21 0 42 29q25 36 40 80l2 -1q-16 -84 -61 -136.5t-107 -52.5q-38 0 -60.5 23t-23.5 65q0 34 15 94h-2q-61 -182 -169 -182q-49 0 -83 41t-34 117q0 90 35 171.5t95 131.5t127 50q64 0 101 -46l156 46zM371 448
q-11 15 -34 15q-54 0 -97 -78q-27 -48 -44 -118t-17 -132t33 -62q35 0 67 69q44 92 92 306zM271 537l-1 1l109 165h164v-2z" />
    <glyph glyph-name="acircumflex" unicode="&#xe2;" horiz-adv-x="559" 
d="M535 502q-54 -230 -84 -341q-10 -36 -10 -59q0 -29 20 -29q21 0 42 29q25 36 40 80l2 -1q-16 -84 -61 -136.5t-107 -52.5q-38 0 -60.5 23t-23.5 65q0 34 15 94h-2q-61 -182 -169 -182q-49 0 -83 41t-34 117q0 90 35 171.5t95 131.5t127 50q64 0 101 -46l156 46zM371 448
q-11 15 -34 15q-54 0 -97 -78q-27 -48 -44 -118t-17 -132t33 -62q35 0 67 69q44 92 92 306zM384 711l128 -175l-2 -1l-145 70l-180 -70l-1 2l198 174h2z" />
    <glyph glyph-name="atilde" unicode="&#xe3;" horiz-adv-x="559" 
d="M535 502q-54 -230 -84 -341q-10 -36 -10 -59q0 -29 20 -29q21 0 42 29q25 36 40 80l2 -1q-16 -84 -61 -136.5t-107 -52.5q-38 0 -60.5 23t-23.5 65q0 34 15 94h-2q-61 -182 -169 -182q-49 0 -83 41t-34 117q0 90 35 171.5t95 131.5t127 50q64 0 101 -46l156 46zM371 448
q-11 15 -34 15q-54 0 -97 -78q-27 -48 -44 -118t-17 -132t33 -62q35 0 67 69q44 92 92 306zM526 688h2q-9 -56 -39.5 -91t-71.5 -35q-26 0 -67.5 24.5t-63.5 24.5q-48 0 -74 -49h-2q8 56 38.5 91t71.5 35q27 0 68 -24.5t63 -24.5q49 0 75 49z" />
    <glyph glyph-name="adieresis" unicode="&#xe4;" horiz-adv-x="559" 
d="M535 502q-54 -230 -84 -341q-10 -36 -10 -59q0 -29 20 -29q21 0 42 29q25 36 40 80l2 -1q-16 -84 -61 -136.5t-107 -52.5q-38 0 -60.5 23t-23.5 65q0 34 15 94h-2q-61 -182 -169 -182q-49 0 -83 41t-34 117q0 90 35 171.5t95 131.5t127 50q64 0 101 -46l156 46zM371 448
q-11 15 -34 15q-54 0 -97 -78q-27 -48 -44 -118t-17 -132t33 -62q35 0 67 69q44 92 92 306zM274 689q29 0 47 -16t18 -44q0 -31 -22 -51t-54 -20q-28 0 -47 16t-19 43q0 32 23 52t54 20zM471 689q29 0 47 -16t18 -44q0 -32 -21.5 -51.5t-53.5 -19.5q-28 0 -47 16t-19 43
q0 32 22.5 52t53.5 20z" />
    <glyph glyph-name="aring" unicode="&#xe5;" horiz-adv-x="559" 
d="M535 502q-54 -230 -84 -341q-10 -36 -10 -59q0 -29 20 -29q21 0 42 29q25 36 40 80l2 -1q-16 -84 -61 -136.5t-107 -52.5q-38 0 -60.5 23t-23.5 65q0 34 15 94h-2q-61 -182 -169 -182q-49 0 -83 41t-34 117q0 90 35 171.5t95 131.5t127 50q64 0 101 -46l156 46zM371 448
q-11 15 -34 15q-54 0 -97 -78q-27 -48 -44 -118t-17 -132t33 -62q35 0 67 69q44 92 92 306zM359 539q-34 0 -57.5 22.5t-23.5 57.5q0 44 30.5 75t76.5 31q34 0 57.5 -22t23.5 -57q0 -44 -30.5 -75.5t-76.5 -31.5zM383 705q-34 0 -58.5 -25t-24.5 -60q0 -27 17 -44t44 -17
q34 0 58.5 25t24.5 61q0 27 -17 43.5t-44 16.5z" />
    <glyph glyph-name="ae" unicode="&#xe6;" horiz-adv-x="751" 
d="M489 -8q-78 0 -128.5 46.5t-58.5 126.5l-3 -11q-56 -162 -162 -162q-49 0 -83 41t-34 117q0 138 77.5 245.5t180.5 107.5q93 0 126 -77q84 77 196 77q66 0 107.5 -29t41.5 -79q0 -71 -79 -117.5t-203 -47.5q-1 -8 -1 -23q0 -123 98 -123q103 0 155 122l2 -1
q-22 -109 -87 -161t-145 -52zM213 73q21 0 45.5 33t42.5 83v4q0 130 93 223q-21 46 -62 46q-50 0 -92 -77q-27 -48 -44 -118.5t-17 -132.5q0 -61 34 -61zM597 484q-39 0 -79.5 -77.5t-49.5 -164.5q77 8 117.5 59.5t40.5 124.5q0 58 -29 58z" />
    <glyph glyph-name="ccedilla" unicode="&#xe7;" horiz-adv-x="436" 
d="M295 -124q0 -49 -40 -80.5t-97 -31.5q-51 0 -82.5 26t-25.5 69h2q3 -29 25 -43t48 -14q31 0 53.5 19.5t22.5 49.5q0 20 -15.5 31.5t-39.5 11.5q-23 0 -39 -7l-1 2l87 83q-80 2 -128 54t-48 138q0 127 84.5 223t213.5 96q72 0 138 -23l-80 -196h-1l-52 187q-2 9 -4.5 11
t-8.5 2q-30 0 -60 -46.5t-47.5 -110t-17.5 -115.5q0 -62 25 -93t62 -31q80 0 137 109h2q-27 -104 -82 -154.5t-128 -50.5l-17 -52q17 3 30 3q38 0 61 -19t23 -48z" />
    <glyph glyph-name="egrave" unicode="&#xe8;" horiz-adv-x="467" 
d="M204 -8q-84 0 -135.5 54t-51.5 147q0 123 86.5 216.5t211.5 93.5q67 0 108 -29t41 -79q0 -71 -79 -117.5t-203 -47.5q-1 -8 -1 -23q0 -123 99 -123q47 0 88 31t66 91l2 -1q-23 -109 -87 -161t-145 -52zM313 484q-40 0 -80.5 -77.5t-49.5 -164.5q77 8 118 60t41 124
q0 58 -29 58zM145 703h163l110 -165l-1 -1l-272 164v2z" />
    <glyph glyph-name="eacute" unicode="&#xe9;" horiz-adv-x="467" 
d="M246 537l-1 1l109 165h164v-2zM204 -8q-84 0 -135.5 54t-51.5 147q0 123 86.5 216.5t211.5 93.5q67 0 108 -29t41 -79q0 -71 -79 -117.5t-203 -47.5q-1 -8 -1 -23q0 -123 99 -123q47 0 88 31t66 91l2 -1q-23 -109 -87 -161t-145 -52zM313 484q-40 0 -80.5 -77.5
t-49.5 -164.5q77 8 118 60t41 124q0 58 -29 58z" />
    <glyph glyph-name="ecircumflex" unicode="&#xea;" horiz-adv-x="467" 
d="M359 711l128 -175l-2 -1l-145 70l-180 -70l-1 2l198 174h2zM204 -8q-84 0 -135.5 54t-51.5 147q0 123 86.5 216.5t211.5 93.5q67 0 108 -29t41 -79q0 -71 -79 -117.5t-203 -47.5q-1 -8 -1 -23q0 -123 99 -123q47 0 88 31t66 91l2 -1q-23 -109 -87 -161t-145 -52zM313 484
q-40 0 -80.5 -77.5t-49.5 -164.5q77 8 118 60t41 124q0 58 -29 58z" />
    <glyph glyph-name="edieresis" unicode="&#xeb;" horiz-adv-x="467" 
d="M249 689q29 0 47 -16t18 -44q0 -31 -22 -51t-54 -20q-28 0 -47 16t-19 43q0 32 23 52t54 20zM446 689q29 0 47 -16t18 -44q0 -32 -21.5 -51.5t-53.5 -19.5q-28 0 -47 16t-19 43q0 32 22.5 52t53.5 20zM204 -8q-84 0 -135.5 54t-51.5 147q0 123 86.5 216.5t211.5 93.5
q67 0 108 -29t41 -79q0 -71 -79 -117.5t-203 -47.5q-1 -8 -1 -23q0 -123 99 -123q47 0 88 31t66 91l2 -1q-23 -109 -87 -161t-145 -52zM313 484q-40 0 -80.5 -77.5t-49.5 -164.5q77 8 118 60t41 124q0 58 -29 58z" />
    <glyph glyph-name="igrave" unicode="&#xec;" horiz-adv-x="298" 
d="M113 -8q-42 0 -63 25.5t-21 63.5q0 31 11 75l69 271q6 21 -8 28l-61 30v2l240 16l-87 -345q-11 -41 -11 -60q0 -24 20 -24t38 22q27 34 42 85h2q-12 -78 -60.5 -133.5t-110.5 -55.5zM13 703h163l110 -165l-1 -1l-272 164v2z" />
    <glyph glyph-name="iacute" unicode="&#xed;" horiz-adv-x="298" 
d="M113 537l-1 1l109 165h164v-2zM113 -8q-42 0 -63 25.5t-21 63.5q0 31 11 75l69 271q6 21 -8 28l-61 30v2l240 16l-87 -345q-11 -41 -11 -60q0 -24 20 -24t38 22q27 34 42 85h2q-12 -78 -60.5 -133.5t-110.5 -55.5z" />
    <glyph glyph-name="icircumflex" unicode="&#xee;" horiz-adv-x="296" 
d="M218 711l128 -175l-2 -1l-145 70l-180 -70l-1 2l198 174h2zM108 -8q-42 0 -63 25.5t-21 63.5q0 31 11 75l69 271q6 21 -8 28l-61 30v2l240 16l-87 -345q-11 -41 -11 -60q0 -24 20 -24t38 22q27 34 42 85h2q-12 -78 -60.5 -133.5t-110.5 -55.5z" />
    <glyph glyph-name="idieresis" unicode="&#xef;" horiz-adv-x="296" 
d="M113 689q29 0 47 -16t18 -44q0 -31 -22 -51t-54 -20q-28 0 -47 16t-19 43q0 32 23 52t54 20zM310 689q29 0 47 -16t18 -44q0 -32 -21.5 -51.5t-53.5 -19.5q-28 0 -47 16t-19 43q0 32 22.5 52t53.5 20zM109 -8q-42 0 -63 25.5t-21 63.5q0 31 11 75l69 271q6 21 -8 28
l-61 30v2l240 16l-87 -345q-11 -41 -11 -60q0 -24 20 -24t38 22q27 34 42 85h2q-12 -78 -60.5 -133.5t-110.5 -55.5z" />
    <glyph glyph-name="eth" unicode="&#xf0;" horiz-adv-x="540" 
d="M186 533l-8 17l145 68q-36 70 -121 92v2q3 0 27 -2q106 -9 174 -55l131 61l6 -17l-121 -57q103 -83 103 -261q0 -106 -34 -193t-105 -142t-169 -55q-92 0 -144 55t-52 148q0 120 72.5 210.5t162.5 90.5q74 0 104 -56q-2 102 -26 162zM215 10q34 0 67.5 73t53.5 169.5
t21 174.5q-15 18 -42 18q-33 0 -60.5 -35t-44.5 -88.5t-26.5 -111t-9.5 -107.5q0 -93 41 -93z" />
    <glyph glyph-name="ntilde" unicode="&#xf1;" horiz-adv-x="578" 
d="M477 167q-14 -42 -14 -69q0 -24 20 -24t38 22q21 25 42 85h2q-14 -87 -62 -138t-110 -51q-42 0 -65.5 24t-23.5 61t24 111l46 141q15 43 15 69q0 23 -23 23q-38 0 -78 -56q-32 -44 -58 -121t-64 -244h-149l94 424q4 17 2.5 21.5t-12.5 10.5l-59 29v2l239 16l-44 -201h2
q36 90 94 145.5t120 55.5q41 0 64.5 -25.5t23.5 -65.5q0 -31 -24 -115zM526 688h2q-9 -56 -39.5 -91t-71.5 -35q-26 0 -67.5 24.5t-63.5 24.5q-48 0 -74 -49h-2q8 56 38.5 91t71.5 35q27 0 68 -24.5t63 -24.5q49 0 75 49z" />
    <glyph glyph-name="ograve" unicode="&#xf2;" horiz-adv-x="525" 
d="M217 -9q-39 0 -72.5 10.5t-63 33t-46.5 63t-17 95.5q0 129 84 219.5t206 90.5q38 0 72 -10.5t63.5 -33t46.5 -63t17 -95.5q0 -130 -85 -220t-205 -90zM213 9q35 0 67.5 64.5t51 156t18.5 174.5q0 81 -38 81q-52 0 -94.5 -132t-42.5 -263q0 -81 38 -81zM143 703h163
l110 -165l-1 -1l-272 164v2z" />
    <glyph glyph-name="oacute" unicode="&#xf3;" horiz-adv-x="525" 
d="M244 537l-1 1l109 165h164v-2zM217 -9q-39 0 -72.5 10.5t-63 33t-46.5 63t-17 95.5q0 129 84 219.5t206 90.5q38 0 72 -10.5t63.5 -33t46.5 -63t17 -95.5q0 -130 -85 -220t-205 -90zM213 9q35 0 67.5 64.5t51 156t18.5 174.5q0 81 -38 81q-52 0 -94.5 -132t-42.5 -263
q0 -81 38 -81z" />
    <glyph glyph-name="ocircumflex" unicode="&#xf4;" horiz-adv-x="525" 
d="M357 711l128 -175l-2 -1l-145 70l-180 -70l-1 2l198 174h2zM217 -9q-39 0 -72.5 10.5t-63 33t-46.5 63t-17 95.5q0 129 84 219.5t206 90.5q38 0 72 -10.5t63.5 -33t46.5 -63t17 -95.5q0 -130 -85 -220t-205 -90zM213 9q35 0 67.5 64.5t51 156t18.5 174.5q0 81 -38 81
q-52 0 -94.5 -132t-42.5 -263q0 -81 38 -81z" />
    <glyph glyph-name="otilde" unicode="&#xf5;" horiz-adv-x="525" 
d="M217 -9q-39 0 -72.5 10.5t-63 33t-46.5 63t-17 95.5q0 129 84 219.5t206 90.5q38 0 72 -10.5t63.5 -33t46.5 -63t17 -95.5q0 -130 -85 -220t-205 -90zM213 9q35 0 67.5 64.5t51 156t18.5 174.5q0 81 -38 81q-52 0 -94.5 -132t-42.5 -263q0 -81 38 -81zM498 688h2
q-9 -56 -39.5 -91t-71.5 -35q-26 0 -67.5 24.5t-63.5 24.5q-48 0 -74 -49h-2q8 56 38.5 91t71.5 35q27 0 68 -24.5t63 -24.5q49 0 75 49z" />
    <glyph glyph-name="odieresis" unicode="&#xf6;" horiz-adv-x="525" 
d="M247 689q29 0 47 -16t18 -44q0 -31 -22 -51t-54 -20q-28 0 -47 16t-19 43q0 32 23 52t54 20zM444 689q29 0 47 -16t18 -44q0 -32 -21.5 -51.5t-53.5 -19.5q-28 0 -47 16t-19 43q0 32 22.5 52t53.5 20zM217 -9q-39 0 -72.5 10.5t-63 33t-46.5 63t-17 95.5q0 129 84 219.5
t206 90.5q38 0 72 -10.5t63.5 -33t46.5 -63t17 -95.5q0 -130 -85 -220t-205 -90zM213 9q35 0 67.5 64.5t51 156t18.5 174.5q0 81 -38 81q-52 0 -94.5 -132t-42.5 -263q0 -81 38 -81z" />
    <glyph glyph-name="divide" unicode="&#xf7;" horiz-adv-x="540" 
d="M50 311v19h440v-19h-440zM276 551q32 0 52 -17.5t20 -47.5q0 -35 -24 -56.5t-60 -21.5q-31 0 -52 17.5t-21 47.5q0 35 25 56.5t60 21.5zM276 231q32 0 52 -17.5t20 -47.5q0 -35 -24 -56.5t-60 -21.5q-31 0 -52 17.5t-21 47.5q0 35 25 56.5t60 21.5z" />
    <glyph glyph-name="oslash" unicode="&#xf8;" horiz-adv-x="525" 
d="M217 -9q-32 0 -59 7l-34 -79l-19 7l34 77q-121 40 -121 190q0 129 84 219.5t206 90.5q22 0 49 -5l34 76l18 -7l-32 -73q130 -39 130 -193q0 -130 -85 -220t-205 -90zM213 9q35 0 67.5 64.5t51 156t18.5 174.5q0 17 -1 26l-170 -386q9 -35 34 -35zM175 90v-6l166 378
q-8 23 -29 23q-52 0 -94.5 -132t-42.5 -263z" />
    <glyph glyph-name="ugrave" unicode="&#xf9;" horiz-adv-x="583" 
d="M476 155q-8 -35 -8 -56q0 -26 21 -26q18 0 39 24q26 32 42 84h2q-19 -100 -74 -150q-41 -39 -94 -39q-42 0 -64.5 23t-22.5 64q0 40 20 114h-2q-34 -89 -92.5 -145t-114.5 -56q-42 0 -66 25t-24 66q0 31 24 115l40 130q14 42 14 68q0 25 -20 25q-19 0 -38 -22
q-19 -23 -42 -79h-2q20 84 66 133.5t106 49.5q42 0 65.5 -24t23.5 -61q0 -42 -24 -112l-46 -140q-15 -43 -15 -69q0 -24 24 -24q30 0 72 57q30 41 53.5 110.5t69.5 244.5l151 15zM165 703h163l110 -165l-1 -1l-272 164v2z" />
    <glyph glyph-name="uacute" unicode="&#xfa;" horiz-adv-x="583" 
d="M266 537l-1 1l109 165h164v-2zM476 155q-8 -35 -8 -56q0 -26 21 -26q18 0 39 24q26 32 42 84h2q-19 -100 -74 -150q-41 -39 -94 -39q-42 0 -64.5 23t-22.5 64q0 40 20 114h-2q-34 -89 -92.5 -145t-114.5 -56q-42 0 -66 25t-24 66q0 31 24 115l40 130q14 42 14 68
q0 25 -20 25q-19 0 -38 -22q-19 -23 -42 -79h-2q20 84 66 133.5t106 49.5q42 0 65.5 -24t23.5 -61q0 -42 -24 -112l-46 -140q-15 -43 -15 -69q0 -24 24 -24q30 0 72 57q30 41 53.5 110.5t69.5 244.5l151 15z" />
    <glyph glyph-name="ucircumflex" unicode="&#xfb;" horiz-adv-x="583" 
d="M379 711l128 -175l-2 -1l-145 70l-180 -70l-1 2l198 174h2zM476 155q-8 -35 -8 -56q0 -26 21 -26q18 0 39 24q26 32 42 84h2q-19 -100 -74 -150q-41 -39 -94 -39q-42 0 -64.5 23t-22.5 64q0 40 20 114h-2q-34 -89 -92.5 -145t-114.5 -56q-42 0 -66 25t-24 66q0 31 24 115
l40 130q14 42 14 68q0 25 -20 25q-19 0 -38 -22q-19 -23 -42 -79h-2q20 84 66 133.5t106 49.5q42 0 65.5 -24t23.5 -61q0 -42 -24 -112l-46 -140q-15 -43 -15 -69q0 -24 24 -24q30 0 72 57q30 41 53.5 110.5t69.5 244.5l151 15z" />
    <glyph glyph-name="udieresis" unicode="&#xfc;" horiz-adv-x="583" 
d="M269 689q29 0 47 -16t18 -44q0 -31 -22 -51t-54 -20q-28 0 -47 16t-19 43q0 32 23 52t54 20zM466 689q29 0 47 -16t18 -44q0 -32 -21.5 -51.5t-53.5 -19.5q-28 0 -47 16t-19 43q0 32 22.5 52t53.5 20zM476 155q-8 -35 -8 -56q0 -26 21 -26q18 0 39 24q26 32 42 84h2
q-19 -100 -74 -150q-41 -39 -94 -39q-42 0 -64.5 23t-22.5 64q0 40 20 114h-2q-34 -89 -92.5 -145t-114.5 -56q-42 0 -66 25t-24 66q0 31 24 115l40 130q14 42 14 68q0 25 -20 25q-19 0 -38 -22q-19 -23 -42 -79h-2q20 84 66 133.5t106 49.5q42 0 65.5 -24t23.5 -61
q0 -42 -24 -112l-46 -140q-15 -43 -15 -69q0 -24 24 -24q30 0 72 57q30 41 53.5 110.5t69.5 244.5l151 15z" />
    <glyph glyph-name="yacute" unicode="&#xfd;" horiz-adv-x="485" 
d="M260 378q17 -63 27.5 -160t7.5 -193l2 -1q33 49 62 127q29 81 29 158q0 92 -49 148v2l157 44q-12 -143 -70.5 -283t-144.5 -244q-76 -93 -171.5 -152.5t-160.5 -59.5q-21 0 -32 6l56 167h2l105 -96q9 -9 19 -3q24 14 52 38q10 9 10 26v14q0 126 -18.5 253t-41.5 197
q-11 35 -29 35q-29 0 -61 -86h-2q11 79 51 133.5t96 54.5q24 0 41.5 -9.5t29 -30t18.5 -38t15 -47.5zM222 537l-1 1l109 165h164v-2z" />
    <glyph glyph-name="thorn" unicode="&#xfe;" horiz-adv-x="525" 
d="M307 728l-89 -403h2q28 78 71.5 128t99.5 50q51 0 84.5 -38t33.5 -111q0 -145 -82.5 -253.5t-183.5 -108.5q-61 0 -91 37l-39 -188q-3 -10 -1 -14.5t11 -8.5l93 -44v-2h-318v2l49 39q15 11 18 28l172 803q4 15 2.5 20.5t-12.5 10.5l-58 26v2zM243 348q-35 -67 -87 -308
q14 -10 34 -10q53 0 99 84q60 113 60 251q0 57 -31 57q-39 0 -75 -74z" />
    <glyph glyph-name="ydieresis" unicode="&#xff;" horiz-adv-x="485" 
d="M260 378q17 -63 27.5 -160t7.5 -193l2 -1q33 49 62 127q29 81 29 158q0 92 -49 148v2l157 44q-12 -143 -70.5 -283t-144.5 -244q-76 -93 -171.5 -152.5t-160.5 -59.5q-21 0 -32 6l56 167h2l105 -96q9 -9 19 -3q24 14 52 38q10 9 10 26v14q0 126 -18.5 253t-41.5 197
q-11 35 -29 35q-29 0 -61 -86h-2q11 79 51 133.5t96 54.5q24 0 41.5 -9.5t29 -30t18.5 -38t15 -47.5zM225 689q29 0 47 -16t18 -44q0 -31 -22 -51t-54 -20q-28 0 -47 16t-19 43q0 32 23 52t54 20zM422 689q29 0 47 -16t18 -44q0 -32 -21.5 -51.5t-53.5 -19.5q-28 0 -47 16
t-19 43q0 32 22.5 52t53.5 20z" />
    <glyph glyph-name="Amacron" unicode="&#x100;" horiz-adv-x="632" 
d="M382 96l-16 149h-219l-42 -80q-6 -13 -6 -17.5t7 -17.5l63 -128v-2h-237v2l123 128q20 21 31 42l226 426q7 14 7.5 19.5t-6.5 15.5l-44 68v2h216l66 -593q2 -16 12 -41l27 -67v-2h-278v2l62 67q9 9 8 27zM329 588l-171 -323h206zM538 800h-280v20h280v-20z" />
    <glyph glyph-name="amacron" unicode="&#x101;" horiz-adv-x="559" 
d="M535 502q-54 -230 -84 -341q-10 -36 -10 -59q0 -29 20 -29q21 0 42 29q25 36 40 80l2 -1q-16 -84 -61 -136.5t-107 -52.5q-38 0 -60.5 23t-23.5 65q0 34 15 94h-2q-61 -182 -169 -182q-49 0 -83 41t-34 117q0 90 35 171.5t95 131.5t127 50q64 0 101 -46l156 46zM371 448
q-11 15 -34 15q-54 0 -97 -78q-27 -48 -44 -118t-17 -132t33 -62q35 0 67 69q44 92 92 306zM503 592h-280v20h280v-20z" />
    <glyph glyph-name="Abreve" unicode="&#x102;" horiz-adv-x="632" 
d="M382 96l-16 149h-219l-42 -80q-6 -13 -6 -17.5t7 -17.5l63 -128v-2h-237v2l123 128q20 21 31 42l226 426q7 14 7.5 19.5t-6.5 15.5l-44 68v2h216l66 -593q2 -16 12 -41l27 -67v-2h-278v2l62 67q9 9 8 27zM329 588l-171 -323h206zM398 825q55 0 93.5 24.5t50.5 70.5h2
q-1 -86 -45.5 -129t-106.5 -43q-49 0 -83 26t-34 76q0 33 15 70h2q-7 -46 22 -70.5t84 -24.5z" />
    <glyph glyph-name="abreve" unicode="&#x103;" horiz-adv-x="559" 
d="M535 502q-54 -230 -84 -341q-10 -36 -10 -59q0 -29 20 -29q21 0 42 29q25 36 40 80l2 -1q-16 -84 -61 -136.5t-107 -52.5q-38 0 -60.5 23t-23.5 65q0 34 15 94h-2q-61 -182 -169 -182q-49 0 -83 41t-34 117q0 90 35 171.5t95 131.5t127 50q64 0 101 -46l156 46zM371 448
q-11 15 -34 15q-54 0 -97 -78q-27 -48 -44 -118t-17 -132t33 -62q35 0 67 69q44 92 92 306zM363 617q55 0 93.5 24.5t50.5 70.5h2q-1 -86 -45.5 -129t-106.5 -43q-49 0 -83 26t-34 76q0 33 15 70h2q-7 -46 22 -70.5t84 -24.5z" />
    <glyph glyph-name="Aogonek" unicode="&#x104;" horiz-adv-x="632" 
d="M382 96l-16 149h-219l-42 -80q-6 -13 -6 -17.5t7 -17.5l63 -128v-2h-237v2l123 128q20 21 31 42l226 426q7 14 7.5 19.5t-6.5 15.5l-44 68v2h216l66 -593q2 -16 12 -41l27 -67v-2h-264q-38 -12 -64 -47.5t-26 -76.5q0 -27 16 -41.5t43 -14.5q49 0 90 45l1 -1
q-53 -100 -148 -100q-39 0 -64.5 21t-25.5 59q0 59 50.5 102.5t115.5 57.5l60 65q9 9 8 27zM329 588l-171 -323h206z" />
    <glyph glyph-name="aogonek" unicode="&#x105;" horiz-adv-x="559" 
d="M321 -236q-39 0 -64.5 21t-25.5 59q0 55 45 92.5t107 55.5h-6q-38 0 -60.5 23t-23.5 65q0 34 15 94h-2q-61 -182 -169 -182q-49 0 -83 41t-34 117q0 90 35 171.5t95 131.5t127 50q64 0 101 -46l156 46l1 -1q-11 -47 -30 -123.5t-35.5 -143t-18.5 -74.5q-10 -36 -10 -59
q0 -29 20 -29q21 0 42 29q25 36 40 80l2 -1q-15 -74 -51.5 -124t-87.5 -61q-39 -17 -63.5 -49t-24.5 -71q0 -27 16.5 -41.5t43.5 -14.5q49 0 88 45l2 -1q-53 -100 -147 -100zM371 448q-11 15 -34 15q-54 0 -97 -78q-27 -48 -44 -118t-17 -132t33 -62q35 0 67 69
q44 92 92 306z" />
    <glyph glyph-name="Cacute" unicode="&#x106;" horiz-adv-x="614" 
d="M378 745l-1 1l109 165h164v-2zM308 -10q-129 0 -200.5 75.5t-71.5 200.5q0 190 114.5 318.5t295.5 128.5q117 0 213 -21l-51 -246h-2l-101 232q-7 17 -26 17h-17q-96 0 -169.5 -146.5t-73.5 -352.5q0 -85 26.5 -136.5t79.5 -51.5h15q19 0 32 14l196 237h2l-50 -249
q-101 -20 -212 -20z" />
    <glyph glyph-name="cacute" unicode="&#x107;" horiz-adv-x="436" 
d="M241 537l-1 1l109 165h164v-2zM198 -8q-82 0 -131.5 52t-49.5 140q0 127 84.5 223t213.5 96q72 0 138 -23l-80 -196h-1l-52 187q-2 9 -4.5 11t-8.5 2q-30 0 -60 -46.5t-47.5 -110t-17.5 -115.5q0 -62 25 -93t62 -31q80 0 137 109h2q-27 -104 -82 -154.5t-128 -50.5z" />
    <glyph glyph-name="Ccircumflex" unicode="&#x108;" horiz-adv-x="614" 
d="M491 919l128 -175l-2 -1l-145 70l-180 -70l-1 2l198 174h2zM308 -10q-129 0 -200.5 75.5t-71.5 200.5q0 190 114.5 318.5t295.5 128.5q117 0 213 -21l-51 -246h-2l-101 232q-7 17 -26 17h-17q-96 0 -169.5 -146.5t-73.5 -352.5q0 -85 26.5 -136.5t79.5 -51.5h15
q19 0 32 14l196 237h2l-50 -249q-101 -20 -212 -20z" />
    <glyph glyph-name="ccircumflex" unicode="&#x109;" horiz-adv-x="436" 
d="M354 711l128 -175l-2 -1l-145 70l-180 -70l-1 2l198 174h2zM198 -8q-82 0 -131.5 52t-49.5 140q0 127 84.5 223t213.5 96q72 0 138 -23l-80 -196h-1l-52 187q-2 9 -4.5 11t-8.5 2q-30 0 -60 -46.5t-47.5 -110t-17.5 -115.5q0 -62 25 -93t62 -31q80 0 137 109h2
q-27 -104 -82 -154.5t-128 -50.5z" />
    <glyph glyph-name="Cdotaccent" unicode="&#x10a;" horiz-adv-x="614" 
d="M308 -10q-129 0 -200.5 75.5t-71.5 200.5q0 190 114.5 318.5t295.5 128.5q117 0 213 -21l-51 -246h-2l-101 232q-7 17 -26 17h-17q-96 0 -169.5 -146.5t-73.5 -352.5q0 -85 26.5 -136.5t79.5 -51.5h15q19 0 32 14l196 237h2l-50 -249q-101 -20 -212 -20zM484 905
q32 0 52 -17.5t20 -47.5q0 -35 -24 -56.5t-60 -21.5q-31 0 -52 17.5t-21 47.5q0 35 25 56.5t60 21.5z" />
    <glyph glyph-name="cdotaccent" unicode="&#x10b;" horiz-adv-x="436" 
d="M198 -8q-82 0 -131.5 52t-49.5 140q0 127 84.5 223t213.5 96q72 0 138 -23l-80 -196h-1l-52 187q-2 9 -4.5 11t-8.5 2q-30 0 -60 -46.5t-47.5 -110t-17.5 -115.5q0 -62 25 -93t62 -31q80 0 137 109h2q-27 -104 -82 -154.5t-128 -50.5zM346 697q32 0 52 -17.5t20 -47.5
q0 -35 -24 -56.5t-60 -21.5q-31 0 -52 17.5t-21 47.5q0 35 25 56.5t60 21.5z" />
    <glyph glyph-name="Ccaron" unicode="&#x10c;" horiz-adv-x="614" 
d="M459 740h-2l-127 174l1 2l146 -67l179 67l1 -2zM308 -10q-129 0 -200.5 75.5t-71.5 200.5q0 190 114.5 318.5t295.5 128.5q117 0 213 -21l-51 -246h-2l-101 232q-7 17 -26 17h-17q-96 0 -169.5 -146.5t-73.5 -352.5q0 -85 26.5 -136.5t79.5 -51.5h15q19 0 32 14l196 237
h2l-50 -249q-101 -20 -212 -20z" />
    <glyph glyph-name="ccaron" unicode="&#x10d;" horiz-adv-x="436" 
d="M321 532h-2l-127 174l1 2l146 -67l179 67l1 -2zM198 -8q-82 0 -131.5 52t-49.5 140q0 127 84.5 223t213.5 96q72 0 138 -23l-80 -196h-1l-52 187q-2 9 -4.5 11t-8.5 2q-30 0 -60 -46.5t-47.5 -110t-17.5 -115.5q0 -62 25 -93t62 -31q80 0 137 109h2q-27 -104 -82 -154.5
t-128 -50.5z" />
    <glyph glyph-name="Dcaron" unicode="&#x10e;" horiz-adv-x="706" 
d="M411 740h-2l-127 174l1 2l146 -67l179 67l1 -2zM105 703h318q128 0 205 -73.5t77 -196.5q0 -187 -123.5 -310t-316.5 -123h-303v2l79 63q13 12 16 27l106 519q3 17 -4 27l-54 63v2zM368 683q-14 0 -18.5 -3.5t-7.5 -17.5l-127 -619q-3 -17 -0.5 -20t20.5 -3h17
q87 0 150 75.5t95 197.5q28 107 28 222q0 76 -36 122t-94 46h-27z" />
    <glyph glyph-name="dcaron" unicode="&#x10f;" horiz-adv-x="551" 
d="M633 703l-43 -195h2l160 193v2h-119zM136 -8q-47 0 -81.5 42.5t-34.5 121.5q0 88 35 168.5t95 129.5t127 49q68 0 88 -48l41 193q3 8 2 13.5t-3 7.5t-8 5l-60 27v2l238 25l-126 -572q-7 -30 -7 -52q0 -31 21 -31q20 0 41.5 29t37.5 80l2 -1q-19 -103 -74 -152
q-42 -37 -91 -37q-39 0 -62.5 23t-23.5 65q0 38 15 94h-2q-62 -182 -170 -182zM284 153q36 81 79 292q-17 14 -38 14q-45 0 -83 -65q-28 -49 -46 -123.5t-18 -129.5q0 -68 33 -68q39 0 73 80z" />
    <glyph glyph-name="Dcroat" unicode="&#x110;" horiz-adv-x="715" 
d="M35 350v19h88l51 248q3 17 -5 26l-56 58v2h311q139 0 214 -72.5t75 -192.5q0 -183 -117.5 -310.5t-295.5 -127.5h-328v2l76 57q14 11 17 27l54 264h-84zM381 683q-13 0 -16.5 -3t-6.5 -18l-61 -293h109v-19h-113l-63 -307q-3 -15 0 -19t19 -4h16q51 0 94.5 30t74 81
t51 110.5t32.5 126.5q14 75 14 142q0 173 -122 173h-28z" />
    <glyph glyph-name="dcroat" unicode="&#x111;" horiz-adv-x="552" 
d="M611 567h-72l-90 -411q-7 -30 -7 -52q0 -31 21 -31q20 0 41.5 29t37.5 80l2 -1q-19 -103 -74 -152q-42 -37 -91 -37q-39 0 -62.5 23t-23.5 65q0 38 15 94h-2q-62 -182 -170 -182q-47 0 -81.5 42.5t-34.5 121.5q0 88 35 168.5t95 129.5t127 49q68 0 88 -48l24 112h-117v19
h121l13 62q3 8 2 13.5t-3 7.5t-8 5l-60 27v2l238 25l-32 -142h68v-19zM284 153q36 81 79 292q-17 14 -38 14q-45 0 -83 -65q-28 -49 -46 -123.5t-18 -129.5q0 -68 33 -68q39 0 73 80z" />
    <glyph glyph-name="Emacron" unicode="&#x112;" horiz-adv-x="594" 
d="M238 20h107q15 0 22 2.5t17 15.5l162 208h2l-48 -246h-533v2l78 62q14 11 17 28l106 519q3 17 -4 27l-54 63v2h523l-50 -242h-2l-84 203q-6 13 -10.5 16t-17.5 3h-94q-16 0 -20.5 -3.5t-7.5 -18.5l-62 -299h65q17 1 35 17l109 101h2l-52 -255h-2l-67 101q-7 11 -12 13.5
t-17 2.5h-65l-61 -299q-3 -16 0 -19.5t18 -3.5zM566 800h-280v20h280v-20z" />
    <glyph glyph-name="emacron" unicode="&#x113;" horiz-adv-x="467" 
d="M204 -8q-84 0 -135.5 54t-51.5 147q0 123 86.5 216.5t211.5 93.5q67 0 108 -29t41 -79q0 -71 -79 -117.5t-203 -47.5q-1 -8 -1 -23q0 -123 99 -123q47 0 88 31t66 91l2 -1q-23 -109 -87 -161t-145 -52zM313 484q-40 0 -80.5 -77.5t-49.5 -164.5q77 8 118 60t41 124
q0 58 -29 58zM477 592h-280v20h280v-20z" />
    <glyph glyph-name="Ebreve" unicode="&#x114;" horiz-adv-x="594" 
d="M238 20h107q15 0 22 2.5t17 15.5l162 208h2l-48 -246h-533v2l78 62q14 11 17 28l106 519q3 17 -4 27l-54 63v2h523l-50 -242h-2l-84 203q-6 13 -10.5 16t-17.5 3h-94q-16 0 -20.5 -3.5t-7.5 -18.5l-62 -299h65q17 1 35 17l109 101h2l-52 -255h-2l-67 101q-7 11 -12 13.5
t-17 2.5h-65l-61 -299q-3 -16 0 -19.5t18 -3.5zM427 825q55 0 93.5 24.5t50.5 70.5h2q-1 -86 -45.5 -129t-106.5 -43q-49 0 -83 26t-34 76q0 33 15 70h2q-7 -46 22 -70.5t84 -24.5z" />
    <glyph glyph-name="ebreve" unicode="&#x115;" horiz-adv-x="467" 
d="M204 -8q-84 0 -135.5 54t-51.5 147q0 123 86.5 216.5t211.5 93.5q67 0 108 -29t41 -79q0 -71 -79 -117.5t-203 -47.5q-1 -8 -1 -23q0 -123 99 -123q47 0 88 31t66 91l2 -1q-23 -109 -87 -161t-145 -52zM313 484q-40 0 -80.5 -77.5t-49.5 -164.5q77 8 118 60t41 124
q0 58 -29 58zM338 617q55 0 93.5 24.5t50.5 70.5h2q-1 -86 -45.5 -129t-106.5 -43q-49 0 -83 26t-34 76q0 33 15 70h2q-7 -46 22 -70.5t84 -24.5z" />
    <glyph glyph-name="Edotaccent" unicode="&#x116;" horiz-adv-x="594" 
d="M238 20h107q15 0 22 2.5t17 15.5l162 208h2l-48 -246h-533v2l78 62q14 11 17 28l106 519q3 17 -4 27l-54 63v2h523l-50 -242h-2l-84 203q-6 13 -10.5 16t-17.5 3h-94q-16 0 -20.5 -3.5t-7.5 -18.5l-62 -299h65q17 1 35 17l109 101h2l-52 -255h-2l-67 101q-7 11 -12 13.5
t-17 2.5h-65l-61 -299q-3 -16 0 -19.5t18 -3.5zM440 905q32 0 52 -17.5t20 -47.5q0 -35 -24 -56.5t-60 -21.5q-31 0 -52 17.5t-21 47.5q0 35 25 56.5t60 21.5z" />
    <glyph glyph-name="edotaccent" unicode="&#x117;" horiz-adv-x="467" 
d="M204 -8q-84 0 -135.5 54t-51.5 147q0 123 86.5 216.5t211.5 93.5q67 0 108 -29t41 -79q0 -71 -79 -117.5t-203 -47.5q-1 -8 -1 -23q0 -123 99 -123q47 0 88 31t66 91l2 -1q-23 -109 -87 -161t-145 -52zM313 484q-40 0 -80.5 -77.5t-49.5 -164.5q77 8 118 60t41 124
q0 58 -29 58zM351 697q32 0 52 -17.5t20 -47.5q0 -35 -24 -56.5t-60 -21.5q-31 0 -52 17.5t-21 47.5q0 35 25 56.5t60 21.5z" />
    <glyph glyph-name="Eogonek" unicode="&#x118;" horiz-adv-x="594" 
d="M238 20h107q15 0 22 2.5t17 15.5l162 208h2l-48 -246h-91q-41 -15 -67.5 -49t-26.5 -75q0 -27 16 -41.5t43 -14.5q51 0 90 45l1 -1q-53 -100 -147 -100q-40 0 -65 21t-25 59q0 58 50.5 99t115.5 57h-427v2l78 62q14 11 17 28l106 519q3 17 -4 27l-54 63v2h523l-50 -242
h-2l-84 203q-6 13 -10.5 16t-17.5 3h-94q-16 0 -20.5 -3.5t-7.5 -18.5l-62 -299h65q17 1 35 17l109 101h2l-52 -255h-2l-67 101q-7 11 -12 13.5t-17 2.5h-65l-61 -299q-3 -16 0 -19.5t18 -3.5z" />
    <glyph glyph-name="eogonek" unicode="&#x119;" horiz-adv-x="467" 
d="M160 -236q-40 0 -65 21t-25 59q0 54 44 92.5t106 56.5q-6 -1 -16 -1q-84 0 -135.5 54t-51.5 147q0 123 86.5 216.5t211.5 93.5q67 0 108 -29t41 -79q0 -71 -79 -117.5t-203 -47.5q-1 -8 -1 -23q0 -123 99 -123q47 0 88 30.5t66 90.5h2q-20 -97 -73.5 -148.5t-124.5 -61.5
q-36 -18 -58.5 -49.5t-22.5 -69.5q0 -27 16 -41.5t43 -14.5q50 0 89 45l2 -1q-53 -100 -147 -100zM313 484q-40 0 -80.5 -77.5t-49.5 -164.5q77 8 118 60t41 124q0 58 -29 58z" />
    <glyph glyph-name="Ecaron" unicode="&#x11a;" horiz-adv-x="594" 
d="M415 740h-2l-127 174l1 2l146 -67l179 67l1 -2zM238 20h107q15 0 22 2.5t17 15.5l162 208h2l-48 -246h-533v2l78 62q14 11 17 28l106 519q3 17 -4 27l-54 63v2h523l-50 -242h-2l-84 203q-6 13 -10.5 16t-17.5 3h-94q-16 0 -20.5 -3.5t-7.5 -18.5l-62 -299h65q17 1 35 17
l109 101h2l-52 -255h-2l-67 101q-7 11 -12 13.5t-17 2.5h-65l-61 -299q-3 -16 0 -19.5t18 -3.5z" />
    <glyph glyph-name="ecaron" unicode="&#x11b;" horiz-adv-x="467" 
d="M326 532h-2l-127 174l1 2l146 -67l179 67l1 -2zM204 -8q-84 0 -135.5 54t-51.5 147q0 123 86.5 216.5t211.5 93.5q67 0 108 -29t41 -79q0 -71 -79 -117.5t-203 -47.5q-1 -8 -1 -23q0 -123 99 -123q47 0 88 31t66 91l2 -1q-23 -109 -87 -161t-145 -52zM313 484
q-40 0 -80.5 -77.5t-49.5 -164.5q77 8 118 60t41 124q0 58 -29 58z" />
    <glyph glyph-name="Gcircumflex" unicode="&#x11c;" horiz-adv-x="671" 
d="M491 919l128 -175l-2 -1l-145 70l-180 -70l-1 2l198 174h2zM295 -10q-117 0 -188 76.5t-71 201.5q0 193 116.5 319t306.5 126q124 0 222 -23l-50 -245h-2l-106 232q-5 11 -8.5 14t-14.5 3h-23q-74 0 -133.5 -66.5t-92 -180t-32.5 -250.5q0 -183 108 -183q33 0 62 13
l39 190q3 19 -3 29l-43 63v2h299v-2l-69 -63q-12 -13 -15 -29l-47 -227l-136 26q-64 -26 -119 -26z" />
    <glyph glyph-name="gcircumflex" unicode="&#x11d;" horiz-adv-x="503" 
d="M336 711l128 -175l-2 -1l-145 70l-180 -70l-1 2l198 174h2zM531 436h-91q32 -32 32 -83q0 -85 -68 -133t-162 -48q-38 0 -76 8q-27 -9 -27 -31q0 -27 46 -36l128 -25q67 -13 101.5 -49.5t34.5 -85.5q0 -87 -78 -138t-185 -51t-172 32.5t-65 86.5q0 80 138 109
q-76 25 -76 83q0 40 37.5 70t106.5 38q-109 31 -109 135q0 83 66.5 133.5t161.5 50.5q75 0 133 -34q13 -9 22 0l133 133h2zM119 -17q-1 0 -12 3t-12 3q-50 -38 -50 -97q0 -47 44.5 -78.5t103.5 -31.5q58 0 94.5 27t36.5 71q0 56 -82 74zM287 485q-42 0 -70 -73t-28 -145
q0 -78 38 -78q43 0 72 71.5t29 144.5q0 80 -41 80z" />
    <glyph glyph-name="Gbreve" unicode="&#x11e;" horiz-adv-x="671" 
d="M295 -10q-117 0 -188 76.5t-71 201.5q0 193 116.5 319t306.5 126q124 0 222 -23l-50 -245h-2l-106 232q-5 11 -8.5 14t-14.5 3h-23q-74 0 -133.5 -66.5t-92 -180t-32.5 -250.5q0 -183 108 -183q33 0 62 13l39 190q3 19 -3 29l-43 63v2h299v-2l-69 -63q-12 -13 -15 -29
l-47 -227l-136 26q-64 -26 -119 -26zM470 825q55 0 93.5 24.5t50.5 70.5h2q-1 -86 -45.5 -129t-106.5 -43q-49 0 -83 26t-34 76q0 33 15 70h2q-7 -46 22 -70.5t84 -24.5z" />
    <glyph glyph-name="gbreve" unicode="&#x11f;" horiz-adv-x="503" 
d="M531 436h-91q32 -32 32 -83q0 -85 -68 -133t-162 -48q-38 0 -76 8q-27 -9 -27 -31q0 -27 46 -36l128 -25q67 -13 101.5 -49.5t34.5 -85.5q0 -87 -78 -138t-185 -51t-172 32.5t-65 86.5q0 80 138 109q-76 25 -76 83q0 40 37.5 70t106.5 38q-109 31 -109 135
q0 83 66.5 133.5t161.5 50.5q75 0 133 -34q13 -9 22 0l133 133h2zM119 -17q-1 0 -12 3t-12 3q-50 -38 -50 -97q0 -47 44.5 -78.5t103.5 -31.5q58 0 94.5 27t36.5 71q0 56 -82 74zM287 485q-42 0 -70 -73t-28 -145q0 -78 38 -78q43 0 72 71.5t29 144.5q0 80 -41 80zM315 617
q55 0 93.5 24.5t50.5 70.5h2q-1 -86 -45.5 -129t-106.5 -43q-49 0 -83 26t-34 76q0 33 15 70h2q-7 -46 22 -70.5t84 -24.5z" />
    <glyph glyph-name="Gdotaccent" unicode="&#x120;" horiz-adv-x="671" 
d="M295 -10q-117 0 -188 76.5t-71 201.5q0 193 116.5 319t306.5 126q124 0 222 -23l-50 -245h-2l-106 232q-5 11 -8.5 14t-14.5 3h-23q-74 0 -133.5 -66.5t-92 -180t-32.5 -250.5q0 -183 108 -183q33 0 62 13l39 190q3 19 -3 29l-43 63v2h299v-2l-69 -63q-12 -13 -15 -29
l-47 -227l-136 26q-64 -26 -119 -26zM483 905q32 0 52 -17.5t20 -47.5q0 -35 -24 -56.5t-60 -21.5q-31 0 -52 17.5t-21 47.5q0 35 25 56.5t60 21.5z" />
    <glyph glyph-name="gdotaccent" unicode="&#x121;" horiz-adv-x="503" 
d="M531 436h-91q32 -32 32 -83q0 -85 -68 -133t-162 -48q-38 0 -76 8q-27 -9 -27 -31q0 -27 46 -36l128 -25q67 -13 101.5 -49.5t34.5 -85.5q0 -87 -78 -138t-185 -51t-172 32.5t-65 86.5q0 80 138 109q-76 25 -76 83q0 40 37.5 70t106.5 38q-109 31 -109 135
q0 83 66.5 133.5t161.5 50.5q75 0 133 -34q13 -9 22 0l133 133h2zM119 -17q-1 0 -12 3t-12 3q-50 -38 -50 -97q0 -47 44.5 -78.5t103.5 -31.5q58 0 94.5 27t36.5 71q0 56 -82 74zM287 485q-42 0 -70 -73t-28 -145q0 -78 38 -78q43 0 72 71.5t29 144.5q0 80 -41 80zM328 697
q32 0 52 -17.5t20 -47.5q0 -35 -24 -56.5t-60 -21.5q-31 0 -52 17.5t-21 47.5q0 35 25 56.5t60 21.5z" />
    <glyph glyph-name="Gcommaaccent" unicode="&#x122;" horiz-adv-x="671" 
d="M275 -160q-17 0 -30 13t-13 37q0 30 21 51t51 21q27 0 44 -16.5t17 -44.5q0 -44 -32 -84t-80 -62q-27 -13 -44 -15v2q28 13 46 35q19 23 26 53q3 10 -6 10zM295 -10q-117 0 -188 76.5t-71 201.5q0 193 116.5 319t306.5 126q124 0 222 -23l-50 -245h-2l-106 232
q-5 11 -8.5 14t-14.5 3h-23q-74 0 -133.5 -66.5t-92 -180t-32.5 -250.5q0 -183 108 -183q33 0 62 13l39 190q3 19 -3 29l-43 63v2h299v-2l-69 -63q-12 -13 -15 -29l-47 -227l-136 26q-64 -26 -119 -26z" />
    <glyph glyph-name="gcommaaccent" unicode="&#x123;" horiz-adv-x="503" 
d="M531 436h-91q32 -32 32 -83q0 -85 -68 -133t-162 -48q-38 0 -76 8q-27 -9 -27 -31q0 -27 46 -36l128 -25q67 -13 101.5 -49.5t34.5 -85.5q0 -87 -78 -138t-185 -51t-172 32.5t-65 86.5q0 80 138 109q-76 25 -76 83q0 40 37.5 70t106.5 38q-109 31 -109 135
q0 83 66.5 133.5t161.5 50.5q75 0 133 -34q13 -9 22 0l133 133h2zM119 -17q-1 0 -12 3t-12 3q-50 -38 -50 -97q0 -47 44.5 -78.5t103.5 -31.5q58 0 94.5 27t36.5 71q0 56 -82 74zM287 485q-42 0 -70 -73t-28 -145q0 -78 38 -78q43 0 72 71.5t29 144.5q0 80 -41 80zM339 689
q-2 -10 6 -11q43 -6 43 -49q0 -30 -21.5 -51t-51.5 -21q-27 0 -43.5 16.5t-16.5 44.5q0 42 29.5 79t75.5 62q30 16 51 20v-2q-33 -18 -49 -39q-18 -23 -23 -49z" />
    <glyph glyph-name="Hcircumflex" unicode="&#x124;" horiz-adv-x="752" 
d="M516 919l128 -175l-2 -1l-145 70l-180 -70l-1 2l198 174h2zM737 611l-107 -519q-3 -17 5 -27l53 -63v-2h-321v2l79 63q12 9 16 27l53 258h-232l-53 -258q-3 -17 4 -27l53 -63v-2h-320v2l79 63q12 9 16 27l106 519q3 17 -4 27l-54 63v2h321v-2l-79 -63q-11 -9 -15 -27
l-50 -241h232l50 241q3 16 -5 27l-54 63v2h321v-2l-79 -63q-11 -8 -15 -27z" />
    <glyph glyph-name="hcircumflex" unicode="&#x125;" horiz-adv-x="558" 
d="M262 919l128 -175l-2 -1l-145 70l-180 -70l-1 2l198 174h2zM519 412q0 -41 -24 -115l-40 -130q-15 -51 -15 -69q0 -24 21 -24q20 0 38 22q22 27 41 85h2q-13 -86 -61 -137.5t-110 -51.5q-42 0 -66 24t-24 61t24 111l46 141q16 46 16 68q0 24 -22 24q-46 0 -91 -75
q-44 -73 -107 -346h-148l143 648q2 14 0.5 18t-10.5 8l-59 27v2l238 25l-97 -430h2q40 96 96 150.5t116 54.5q41 0 66 -25.5t25 -65.5z" />
    <glyph glyph-name="Hbar" unicode="&#x126;" horiz-adv-x="760" 
d="M641 89q-4 -20 4 -30l53 -57v-2h-321v2l74 59q12 9 15 29l39 192h-229l-40 -193q-4 -20 4 -30l53 -57v-2h-322v2l74 59q12 9 15 29l76 370h-76v19h80l28 135q4 20 -4 30l-53 57v2h322v-2l-75 -59q-9 -7 -14 -29l-28 -134h230l28 135q4 20 -4 30l-53 57v2h321v-2l-74 -59
q-10 -8 -15 -29l-28 -134h73v-19h-77zM312 460l-32 -158h229l33 158h-230z" />
    <glyph glyph-name="hbar" unicode="&#x127;" horiz-adv-x="558" 
d="M372 -8q-42 0 -66 24t-24 61t24 111l46 141q16 46 16 68q0 24 -22 24q-46 0 -91 -75q-44 -73 -107 -346h-148l125 567h-67v19h71l14 62q2 14 0.5 18t-10.5 8l-59 27v2l238 25l-32 -142h126v-19h-131l-60 -269h2q40 96 96 150.5t116 54.5q41 0 66 -25.5t25 -65.5
q0 -41 -24 -115l-40 -130q-15 -51 -15 -69q0 -24 21 -24q20 0 38 22q22 27 41 85h2q-13 -86 -61 -137.5t-110 -51.5z" />
    <glyph glyph-name="Itilde" unicode="&#x128;" horiz-adv-x="352" 
d="M230 92q-3 -17 4 -27l53 -63v-2h-320v2l79 63q12 9 16 27l106 519q3 17 -4 27l-54 63v2h321v-2l-79 -63q-11 -9 -15 -27zM459 896h2q-9 -56 -39.5 -91t-71.5 -35q-26 0 -67.5 24.5t-63.5 24.5q-48 0 -74 -49h-2q8 56 38.5 91t71.5 35q27 0 68 -24.5t63 -24.5q49 0 75 49z
" />
    <glyph glyph-name="itilde" unicode="&#x129;" horiz-adv-x="298" 
d="M109 -8q-42 0 -63 25.5t-21 63.5q0 31 11 75l69 271q6 21 -8 28l-61 30v2l240 16l-87 -345q-11 -41 -11 -60q0 -24 20 -24t38 22q27 34 42 85h2q-12 -78 -60.5 -133.5t-110.5 -55.5zM364 688h2q-9 -56 -39.5 -91t-71.5 -35q-26 0 -67.5 24.5t-63.5 24.5q-48 0 -74 -49h-2
q8 56 38.5 91t71.5 35q27 0 68 -24.5t63 -24.5q49 0 75 49z" />
    <glyph glyph-name="Imacron" unicode="&#x12a;" horiz-adv-x="352" 
d="M230 92q-3 -17 4 -27l53 -63v-2h-320v2l79 63q12 9 16 27l106 519q3 17 -4 27l-54 63v2h321v-2l-79 -63q-11 -9 -15 -27zM435 800h-280v20h280v-20z" />
    <glyph glyph-name="imacron" unicode="&#x12b;" horiz-adv-x="298" 
d="M113 -8q-42 0 -63 25.5t-21 63.5q0 31 11 75l69 271q6 21 -8 28l-61 30v2l240 16l-87 -345q-11 -41 -11 -60q0 -24 20 -24t38 22q27 34 42 85h2q-12 -78 -60.5 -133.5t-110.5 -55.5zM344 592h-280v20h280v-20z" />
    <glyph glyph-name="Ibreve" unicode="&#x12c;" horiz-adv-x="352" 
d="M230 92q-3 -17 4 -27l53 -63v-2h-320v2l79 63q12 9 16 27l106 519q3 17 -4 27l-54 63v2h321v-2l-79 -63q-11 -9 -15 -27zM296 825q55 0 93.5 24.5t50.5 70.5h2q-1 -86 -45.5 -129t-106.5 -43q-49 0 -83 26t-34 76q0 33 15 70h2q-7 -46 22 -70.5t84 -24.5z" />
    <glyph glyph-name="ibreve" unicode="&#x12d;" horiz-adv-x="298" 
d="M113 -8q-42 0 -63 25.5t-21 63.5q0 31 11 75l69 271q6 21 -8 28l-61 30v2l240 16l-87 -345q-11 -41 -11 -60q0 -24 20 -24t38 22q27 34 42 85h2q-12 -78 -60.5 -133.5t-110.5 -55.5zM205 617q55 0 93.5 24.5t50.5 70.5h2q-1 -86 -45.5 -129t-106.5 -43q-49 0 -83 26
t-34 76q0 33 15 70h2q-7 -46 22 -70.5t84 -24.5z" />
    <glyph glyph-name="Iogonek" unicode="&#x12e;" horiz-adv-x="352" 
d="M230 92q-3 -17 4 -27l53 -63v-2h-121q-40 -16 -67 -49.5t-27 -74.5q0 -27 16.5 -41.5t43.5 -14.5q49 0 88 45l2 -1q-53 -100 -147 -100q-39 0 -64.5 21t-25.5 59q0 58 50.5 99t116.5 57h-185v2l79 63q12 9 16 27l106 519q3 17 -4 27l-54 63v2h321v-2l-79 -63
q-11 -9 -15 -27z" />
    <glyph glyph-name="iogonek" unicode="&#x12f;" horiz-adv-x="298" 
d="M55 -236q-40 0 -65 21t-25 59q0 54 43.5 92t104.5 56q-42 1 -62.5 26t-20.5 63q0 31 11 75l69 271q6 20 -8 28l-61 30v2l240 16l-87 -345q-11 -41 -11 -60q0 -24 20 -24t38 22q27 34 42 85h2q-12 -73 -55 -127t-100 -61q-35 -18 -56.5 -49t-21.5 -68q0 -27 16 -41.5
t43 -14.5q51 0 90 45l1 -1q-53 -100 -147 -100zM237 701q32 0 53.5 -19t21.5 -50q0 -36 -25 -58.5t-63 -22.5q-32 0 -54.5 18t-22.5 50q0 36 26.5 59t63.5 23z" />
    <glyph glyph-name="Idotaccent" unicode="&#x130;" horiz-adv-x="352" 
d="M230 92q-3 -17 4 -27l53 -63v-2h-320v2l79 63q12 9 16 27l106 519q3 17 -4 27l-54 63v2h321v-2l-79 -63q-11 -9 -15 -27zM309 905q32 0 52 -17.5t20 -47.5q0 -35 -24 -56.5t-60 -21.5q-31 0 -52 17.5t-21 47.5q0 35 25 56.5t60 21.5z" />
    <glyph glyph-name="dotlessi" unicode="&#x131;" horiz-adv-x="298" 
d="M113 -8q-42 0 -63 25.5t-21 63.5q0 31 11 75l69 271q6 21 -8 28l-61 30v2l240 16l-87 -345q-11 -41 -11 -60q0 -24 20 -24t38 22q27 34 42 85h2q-12 -78 -60.5 -133.5t-110.5 -55.5z" />
    <glyph glyph-name="IJ" unicode="&#x132;" horiz-adv-x="679" 
d="M230 92q-3 -17 4 -27l53 -63v-2h-320v2l79 63q12 9 16 27l106 519q3 17 -4 27l-54 63v2h321v-2l-79 -63q-11 -9 -15 -27zM678 611l-107 -516q-60 -294 -365 -306v2q148 69 189 264l114 556q4 18 -4 27l-54 63v2h321v-2l-79 -63q-11 -9 -15 -27z" />
    <glyph glyph-name="ij" unicode="&#x133;" horiz-adv-x="577" 
d="M113 -8q-42 0 -63 25.5t-21 63.5q0 31 11 75l69 271q6 20 -8 28l-61 30v2l240 16l-87 -345q-11 -41 -11 -60q0 -24 20 -24t38 22q27 34 42 85h2q-12 -78 -60.5 -133.5t-110.5 -55.5zM236 701q32 0 53.5 -19t21.5 -50q0 -36 -25 -58.5t-63 -22.5q-32 0 -54.5 18t-22.5 50
q0 36 26.5 59t63.5 23zM493 151q-14 -63 -30 -113t-43 -103.5t-59.5 -89t-80.5 -58.5t-106 -23t-99 25l70 159h2l54 -151q4 -11 13 -11q12 0 29 19q45 53 87 258l75 365q4 20 -12 28l-58 29v2l239 16zM443 619q0 36 26.5 59t63.5 23q32 0 53.5 -19t21.5 -50q0 -36 -25 -58.5
t-63 -22.5q-32 0 -54.5 18t-22.5 50z" />
    <glyph glyph-name="Jcircumflex" unicode="&#x134;" horiz-adv-x="327" 
d="M301 919l128 -175l-2 -1l-145 70l-180 -70l-1 2l198 174h2zM327 611l-107 -516q-60 -294 -365 -306v2q148 69 189 264l114 556q4 18 -4 27l-54 63v2h321v-2l-79 -63q-11 -9 -15 -27z" />
    <glyph glyph-name="jcircumflex" unicode="&#x135;" horiz-adv-x="279" 
d="M-123 -236q-58 0 -99 25l70 159h2l54 -151q4 -11 13 -11t17 6q50 38 99 271l75 365q4 20 -12 28l-58 29v2l239 16l-81 -352q-14 -63 -30 -113t-43 -103.5t-59.5 -89t-80.5 -58.5t-106 -23zM229 711l128 -175l-2 -1l-145 70l-180 -70l-1 2l198 174h2z" />
    <glyph glyph-name="Kcommaaccent" unicode="&#x136;" horiz-adv-x="687" 
d="M283 -160q-17 0 -30 13t-13 37q0 30 21 51t51 21q27 0 44 -16.5t17 -44.5q0 -44 -32 -84t-80 -62q-27 -13 -44 -15v2q28 13 46 35q19 23 26 53q3 10 -6 10zM337 611l-107 -519q-3 -17 4 -27l53 -63v-2h-320v2l79 63q12 9 16 27l106 519q3 17 -4 27l-54 63l1 2h320v-2
l-79 -63q-11 -9 -15 -27zM570 95q10 -23 22 -37l47 -56v-2h-212l-137 343l252 224q12 12 13 18.5t-6 18.5l-53 97v2h309v-2l-186 -104q-36 -20 -59 -40l-132 -115z" />
    <glyph glyph-name="kcommaaccent" unicode="&#x137;" horiz-adv-x="523" 
d="M172 -160q-17 0 -30 13t-13 37q0 30 21 51t51 21q27 0 44 -16.5t17 -44.5q0 -44 -32 -84t-80 -62q-27 -13 -44 -15v2q28 13 46 35q19 23 26 53q2 10 -6 10zM345 -8q-41 0 -63 23t-30 75l-20 122q-4 25 -10 41t-14 15l-58 -268h-149l137 648q2 14 0.5 18t-10.5 8l-59 27v2
l238 25l-98 -452l150 105q19 13 19 21q0 5 -12 24l-37 59v2h249v-2l-143 -77q-34 -19 -47 -28l-38 -28l42 -203q9 -43 17 -59t24 -16q21 0 39 24q22 28 39 83h2q-14 -87 -61.5 -138t-106.5 -51z" />
    <glyph glyph-name="kgreenlandic" unicode="&#x138;" horiz-adv-x="533" 
d="M354 -8q-40 0 -61.5 23t-30.5 75l-23 128q-9 53 -22 50l-58 -268h-148l89 425q4 16 2.5 21.5t-12.5 10.5l-60 28v2l239 16l-50 -227l150 105q18 12 18 21q0 8 -11 25l-38 59v2h249v-2l-143 -78q-40 -23 -47 -28l-38 -28l42 -203q9 -42 17.5 -58.5t23.5 -16.5q22 0 43 31
q22 33 35 76h2q-14 -87 -61.5 -138t-106.5 -51z" />
    <glyph glyph-name="Lacute" unicode="&#x139;" horiz-adv-x="569" 
d="M200 745l-1 1l109 165h164v-2zM337 611l-116 -568q-3 -16 -0.5 -19.5t18.5 -3.5h85q14 0 20.5 3t16.5 15l180 222h2l-53 -260h-523v2l78 64q14 10 17 26l106 519q3 17 -4 27l-54 63v2h321v-2l-79 -63q-11 -9 -15 -27z" />
    <glyph glyph-name="lacute" unicode="&#x13a;" horiz-adv-x="285" 
d="M145 745l-1 1l109 165h164v-2zM102 -8q-41 0 -63.5 26t-22.5 66q0 26 11 74l111 490q3 8 2 13.5t-3 7.5t-8 5l-60 27v2l238 25l-130 -571q-8 -33 -8 -55q0 -28 22 -28q20 0 37 22q28 36 43 85h2q-16 -94 -76 -149q-47 -40 -95 -40z" />
    <glyph glyph-name="Lcommaaccent" unicode="&#x13b;" horiz-adv-x="569" 
d="M222 -160q-17 0 -30 13t-13 37q0 30 21 51t51 21q27 0 44 -16.5t17 -44.5q0 -44 -32 -84t-80 -62q-27 -13 -44 -15v2q28 13 46 35q19 23 26 53q2 10 -6 10zM337 611l-116 -568q-3 -16 -0.5 -19.5t18.5 -3.5h85q14 0 20.5 3t16.5 15l180 222h2l-53 -260h-523v2l78 64
q14 10 17 26l106 519q3 17 -4 27l-54 63v2h321v-2l-79 -63q-11 -9 -15 -27z" />
    <glyph glyph-name="lcommaaccent" unicode="&#x13c;" horiz-adv-x="285" 
d="M56 -160q-17 0 -30 13t-13 37q0 30 21 51t51 21q27 0 44 -16.5t17 -44.5q0 -44 -32 -84t-80 -62q-27 -13 -44 -15v2q28 13 46 35q19 23 26 53q2 10 -6 10zM102 -8q-41 0 -63.5 26t-22.5 66q0 26 11 74l111 490q3 8 2 13.5t-3 7.5t-8 5l-60 27v2l238 25l-130 -571
q-8 -33 -8 -55q0 -28 22 -28q20 0 37 22q28 36 43 85h2q-16 -94 -76 -149q-47 -40 -95 -40z" />
    <glyph glyph-name="Lcaron" unicode="&#x13d;" horiz-adv-x="569" 
d="M464 508l43 195h119v-2l-160 -193h-2zM337 611l-116 -568q-3 -16 -0.5 -19.5t18.5 -3.5h85q14 0 20.5 3t16.5 15l180 222h2l-53 -260h-523v2l78 64q14 10 17 26l106 519q3 17 -4 27l-54 63v2h321v-2l-79 -63q-11 -9 -15 -27z" />
    <glyph glyph-name="lcaron" unicode="&#x13e;" horiz-adv-x="291" 
d="M345 703l-43 -195h2l160 193v2h-119zM102 -8q-41 0 -63.5 26t-22.5 66q0 26 11 74l111 490q3 8 2 13.5t-3 7.5t-8 5l-60 27v2l238 25l-130 -571q-8 -33 -8 -55q0 -28 22 -28q20 0 37 22q28 36 43 85h2q-16 -94 -76 -149q-47 -40 -95 -40z" />
    <glyph glyph-name="Ldot" unicode="&#x13f;" horiz-adv-x="569" 
d="M337 611l-116 -568q-3 -16 -0.5 -19.5t18.5 -3.5h85q14 0 20.5 3t16.5 15l180 222h2l-53 -260h-523v2l78 64q14 10 17 26l106 519q3 17 -4 27l-54 63v2h321v-2l-79 -63q-11 -9 -15 -27zM473 468q32 0 52 -17.5t20 -47.5q0 -35 -24 -56.5t-60 -21.5q-31 0 -52 17.5
t-21 47.5q0 35 25 56.5t60 21.5z" />
    <glyph glyph-name="ldot" unicode="&#x140;" horiz-adv-x="402" 
d="M102 -8q-41 0 -63.5 26t-22.5 66q0 26 11 74l111 490q3 8 2 13.5t-3 7.5t-8 5l-60 27v2l238 25l-130 -571q-8 -33 -8 -55q0 -28 22 -28q20 0 37 22q28 36 43 85h2q-16 -94 -76 -149q-47 -40 -95 -40zM356 456q32 0 52 -17.5t20 -47.5q0 -35 -24 -56.5t-60 -21.5
q-31 0 -52 17.5t-21 47.5q0 35 25 56.5t60 21.5z" />
    <glyph glyph-name="Lslash" unicode="&#x141;" horiz-adv-x="567" 
d="M239 20h85q14 0 20.5 3t16.5 15l180 222h2l-53 -260h-523v2l78 64q14 12 17 26l40 195l-77 -31l-6 18l87 35l62 302q3 17 -4 27l-54 63v2h321v-2l-79 -63q-11 -9 -15 -27l-46 -226l113 46l6 -18l-124 -51l-65 -319q-3 -16 -0.5 -19.5t18.5 -3.5z" />
    <glyph glyph-name="lslash" unicode="&#x142;" horiz-adv-x="323" 
d="M334 728l-80 -350l91 37l6 -17l-102 -42l-45 -199q-8 -33 -8 -55q0 -28 22 -28q20 0 37 22q28 36 43 85h2q-16 -94 -76 -149q-47 -40 -95 -40q-41 0 -63.5 26t-22.5 66q0 26 11 74l29 130l-79 -32l-7 18l91 37l77 337q3 8 2 13.5t-3 7.5t-8 5l-60 27v2z" />
    <glyph glyph-name="Nacute" unicode="&#x143;" horiz-adv-x="686" 
d="M361 745l-1 1l109 165h164v-2zM648 535l-110 -535h-103l-236 533l-75 -365q-3 -16 6 -32l74 -134v-2h-249v2l128 134q16 16 19 32l78 378q4 22 -2 32l-75 123v2h205l241 -548l78 380q3 15 -6 32l-75 134v2h250v-2l-129 -134q-16 -17 -19 -32z" />
    <glyph glyph-name="nacute" unicode="&#x144;" horiz-adv-x="578" 
d="M271 537l-1 1l109 165h164v-2zM477 167q-14 -42 -14 -69q0 -24 20 -24t38 22q21 25 42 85h2q-14 -87 -62 -138t-110 -51q-42 0 -65.5 24t-23.5 61t24 111l46 141q15 43 15 69q0 23 -23 23q-38 0 -78 -56q-32 -44 -58 -121t-64 -244h-149l94 424q4 17 2.5 21.5t-12.5 10.5
l-59 29v2l239 16l-44 -201h2q36 90 94 145.5t120 55.5q41 0 64.5 -25.5t23.5 -65.5q0 -31 -24 -115z" />
    <glyph glyph-name="Ncommaaccent" unicode="&#x145;" horiz-adv-x="686" 
d="M254 -160q-17 0 -30 13t-13 37q0 30 21 51t51 21q27 0 44 -16.5t17 -44.5q0 -44 -32 -84t-80 -62q-27 -13 -44 -15v2q28 13 46 35q19 23 26 53q2 10 -6 10zM648 535l-110 -535h-103l-236 533l-75 -365q-3 -16 6 -32l74 -134v-2h-249v2l128 134q16 16 19 32l78 378
q4 22 -2 32l-75 123v2h205l241 -548l78 380q3 15 -6 32l-75 134v2h250v-2l-129 -134q-16 -17 -19 -32z" />
    <glyph glyph-name="ncommaaccent" unicode="&#x146;" horiz-adv-x="578" 
d="M203 -160q-17 0 -30 13t-13 37q0 30 21 51t51 21q27 0 44 -16.5t17 -44.5q0 -44 -32 -84t-80 -62q-27 -13 -44 -15v2q28 13 46 35q19 23 26 53q3 10 -6 10zM477 167q-14 -42 -14 -69q0 -24 20 -24t38 22q21 25 42 85h2q-14 -87 -62 -138t-110 -51q-42 0 -65.5 24
t-23.5 61t24 111l46 141q15 43 15 69q0 23 -23 23q-38 0 -78 -56q-32 -44 -58 -121t-64 -244h-149l94 424q4 17 2.5 21.5t-12.5 10.5l-59 29v2l239 16l-44 -201h2q36 90 94 145.5t120 55.5q41 0 64.5 -25.5t23.5 -65.5q0 -31 -24 -115z" />
    <glyph glyph-name="Ncaron" unicode="&#x147;" horiz-adv-x="686" 
d="M442 740h-2l-127 174l1 2l146 -67l179 67l1 -2zM648 535l-110 -535h-103l-236 533l-75 -365q-3 -16 6 -32l74 -134v-2h-249v2l128 134q16 16 19 32l78 378q4 22 -2 32l-75 123v2h205l241 -548l78 380q3 15 -6 32l-75 134v2h250v-2l-129 -134q-16 -17 -19 -32z" />
    <glyph glyph-name="ncaron" unicode="&#x148;" horiz-adv-x="578" 
d="M352 532h-2l-127 174l1 2l146 -67l179 67l1 -2zM477 167q-14 -42 -14 -69q0 -24 20 -24t38 22q21 25 42 85h2q-14 -87 -62 -138t-110 -51q-42 0 -65.5 24t-23.5 61t24 111l46 141q15 43 15 69q0 23 -23 23q-38 0 -78 -56q-32 -44 -58 -121t-64 -244h-149l94 424
q4 17 2.5 21.5t-12.5 10.5l-59 29v2l239 16l-44 -201h2q36 90 94 145.5t120 55.5q41 0 64.5 -25.5t23.5 -65.5q0 -31 -24 -115z" />
    <glyph glyph-name="napostrophe" unicode="&#x149;" horiz-adv-x="643" 
d="M76 591q-17 0 -30 13t-13 37q0 30 21 51t51 21q27 0 44 -16.5t17 -44.5q0 -44 -32 -84t-80 -62q-27 -13 -44 -15v2q28 13 46 35q19 23 26 53q2 10 -6 10zM542 167q-14 -42 -14 -69q0 -24 20 -24t38 22q21 25 42 85h2q-14 -87 -62 -138t-110 -51q-42 0 -65.5 24t-23.5 61
t24 111l46 141q15 43 15 69q0 23 -23 23q-38 0 -78 -56q-32 -44 -58 -121t-64 -244h-149l94 424q4 17 2.5 21.5t-12.5 10.5l-59 29v2l239 16l-44 -201h2q36 90 94 145.5t120 55.5q41 0 64.5 -25.5t23.5 -65.5q0 -31 -24 -115z" />
    <glyph glyph-name="Eng" unicode="&#x14a;" horiz-adv-x="723" 
d="M697 502l-80 -402q-61 -310 -367 -310l-1 2q151 59 190 253l87 437q6 28 6 52q0 95 -93 95q-32 0 -68 -16.5t-57 -37.5l-99 -483q-3 -17 4 -27l53 -63v-2h-320v2l79 63q11 8 15 27l107 519q3 17 -4 27l-54 63v2h245l-23 -114q32 51 94.5 86.5t122.5 35.5q78 0 123.5 -40
t45.5 -115q0 -26 -6 -54z" />
    <glyph glyph-name="eng" unicode="&#x14b;" horiz-adv-x="568" 
d="M523 297l-53 -215q-35 -141 -118.5 -211.5t-234.5 -76.5v2q144 56 194 264l60 247q18 74 18 91q0 23 -23 23q-36 0 -78 -56q-26 -36 -44.5 -85.5t-44.5 -146.5q-6 -20 -33 -133h-149l94 424q4 17 2.5 22t-12.5 10l-59 29v2l239 16l-44 -201h2q36 90 94 145.5t120 55.5
q41 0 64.5 -25.5t23.5 -65.5q0 -45 -18 -115z" />
    <glyph glyph-name="Omacron" unicode="&#x14c;" horiz-adv-x="709" 
d="M605 800h-280v20h280v-20zM420 713q141 0 215 -77t74 -206q0 -187 -109 -313.5t-274 -126.5q-141 0 -215 77t-74 206q0 187 109 313.5t274 126.5zM312 9q47 0 89.5 57t69.5 139.5t43 168.5t16 150q0 90 -24 130t-72 40q-47 0 -89.5 -57t-69.5 -139.5t-43 -168.5t-16 -150
q0 -90 24 -130t72 -40z" />
    <glyph glyph-name="omacron" unicode="&#x14d;" horiz-adv-x="525" 
d="M475 592h-280v20h280v-20zM217 -9q-39 0 -72.5 10.5t-63 33t-46.5 63t-17 95.5q0 129 84 219.5t206 90.5q38 0 72 -10.5t63.5 -33t46.5 -63t17 -95.5q0 -130 -85 -220t-205 -90zM213 9q35 0 67.5 64.5t51 156t18.5 174.5q0 81 -38 81q-52 0 -94.5 -132t-42.5 -263
q0 -81 38 -81z" />
    <glyph glyph-name="Obreve" unicode="&#x14e;" horiz-adv-x="709" 
d="M420 713q141 0 215 -77t74 -206q0 -187 -109 -313.5t-274 -126.5q-141 0 -215 77t-74 206q0 187 109 313.5t274 126.5zM312 9q47 0 89.5 57t69.5 139.5t43 168.5t16 150q0 90 -24 130t-72 40q-47 0 -89.5 -57t-69.5 -139.5t-43 -168.5t-16 -150q0 -90 24 -130t72 -40z
M465 825q55 0 93.5 24.5t50.5 70.5h2q-1 -86 -45.5 -129t-106.5 -43q-49 0 -83 26t-34 76q0 33 15 70h2q-7 -46 22 -70.5t84 -24.5z" />
    <glyph glyph-name="obreve" unicode="&#x14f;" horiz-adv-x="525" 
d="M217 -9q-39 0 -72.5 10.5t-63 33t-46.5 63t-17 95.5q0 129 84 219.5t206 90.5q38 0 72 -10.5t63.5 -33t46.5 -63t17 -95.5q0 -130 -85 -220t-205 -90zM213 9q35 0 67.5 64.5t51 156t18.5 174.5q0 81 -38 81q-52 0 -94.5 -132t-42.5 -263q0 -81 38 -81zM336 617
q55 0 93.5 24.5t50.5 70.5h2q-1 -86 -45.5 -129t-106.5 -43q-49 0 -83 26t-34 76q0 33 15 70h2q-7 -46 22 -70.5t84 -24.5z" />
    <glyph glyph-name="Ohungarumlaut" unicode="&#x150;" horiz-adv-x="709" 
d="M432 911h129v-2l-219 -170h-2zM599 911h129v-2l-219 -170h-2zM420 713q141 0 215 -77t74 -206q0 -187 -109 -313.5t-274 -126.5q-141 0 -215 77t-74 206q0 187 109 313.5t274 126.5zM312 9q47 0 89.5 57t69.5 139.5t43 168.5t16 150q0 90 -24 130t-72 40q-47 0 -89.5 -57
t-69.5 -139.5t-43 -168.5t-16 -150q0 -90 24 -130t72 -40z" />
    <glyph glyph-name="ohungarumlaut" unicode="&#x151;" horiz-adv-x="525" 
d="M302 703h129v-2l-219 -170h-2zM469 703h129v-2l-219 -170h-2zM217 -9q-39 0 -72.5 10.5t-63 33t-46.5 63t-17 95.5q0 129 84 219.5t206 90.5q38 0 72 -10.5t63.5 -33t46.5 -63t17 -95.5q0 -130 -85 -220t-205 -90zM213 9q35 0 67.5 64.5t51 156t18.5 174.5q0 81 -38 81
q-52 0 -94.5 -132t-42.5 -263q0 -81 38 -81z" />
    <glyph glyph-name="OE" unicode="&#x152;" horiz-adv-x="972" 
d="M725 661l-61 -299h65q18 1 35 17l108 101h2l-52 -255h-2l-67 101q-7 11 -11.5 13.5t-16.5 2.5h-65l-61 -299q-3 -16 -0.5 -19.5t18.5 -3.5h107q14 0 21 3t17 15l162 208h3l-49 -246h-448q-43 -10 -99 -10q-143 0 -218.5 77t-75.5 203q0 187 112 315t282 128q58 0 136 -10
h444l-49 -242h-2l-84 203q-6 13 -10.5 16t-17.5 3h-94q-17 0 -21.5 -3.5t-7.5 -18.5zM528 666q-29 28 -79 28q-52 0 -97.5 -58.5t-72.5 -143t-42 -168t-15 -143.5q0 -172 98 -173q59 0 94 43q16 20 23 54l100 490q11 51 -9 71z" />
    <glyph glyph-name="oe" unicode="&#x153;" horiz-adv-x="780" 
d="M517 -8q-86 0 -133 66q-73 -67 -166 -67q-83 0 -140.5 48t-57.5 154q0 129 84 219.5t206 90.5q98 0 144 -69q68 69 174 69q67 0 108.5 -29t41.5 -79q0 -71 -79 -117.5t-203 -47.5q-1 -7 -1 -23q0 -123 98 -123q101 0 155 122l2 -1q-22 -109 -87 -161t-146 -52zM215 9
q34 0 66.5 64.5t51 156t18.5 174.5q0 81 -38 81q-52 0 -94 -131.5t-42 -263.5q0 -81 38 -81zM626 484q-40 0 -80.5 -78t-48.5 -163q77 7 117.5 58.5t40.5 124.5q0 58 -29 58z" />
    <glyph glyph-name="Racute" unicode="&#x154;" horiz-adv-x="666" 
d="M340 745l-1 1l109 165h164v-2zM327 331h-52l-48 -236q-5 -22 3 -31l50 -62v-2h-313v2l78 64q3 2 5 4.5t3 5.5t1.5 5t1.5 7t2 9l106 511q4 20 -4 31l-50 62v2h370q83 0 136 -39.5t53 -111.5q0 -94 -70.5 -151.5t-185.5 -60.5v-2l109 -36l43 -218q3 -17 22 -40l34 -42v-2
h-214l-61 319q-3 12 -19 12zM343 660l-64 -310h66q62 0 105.5 64.5t43.5 151.5q0 118 -83 118h-38q-17 0 -22 -4.5t-8 -19.5z" />
    <glyph glyph-name="racute" unicode="&#x155;" horiz-adv-x="416" 
d="M209 537l-1 1l109 165h164v-2zM168 0h-148l89 424q4 17 2.5 22t-13.5 11l-57 28v2l239 16l-42 -197h1q35 97 74.5 147t91.5 50q32 0 51 -15l-77 -217h-2l-53 121q-4 9 -9 9q-6 0 -15 -10q-18 -22 -36 -57q-41 -84 -96 -334z" />
    <glyph glyph-name="Rcommaaccent" unicode="&#x156;" horiz-adv-x="666" 
d="M286 -160q-17 0 -30 13t-13 37q0 30 21 51t51 21q27 0 44 -16.5t17 -44.5q0 -44 -32 -84t-80 -62q-27 -13 -44 -15v2q28 13 46 35q19 23 26 53q2 10 -6 10zM327 331h-52l-48 -236q-5 -22 3 -31l50 -62v-2h-313v2l78 64q3 2 5 4.5t3 5.5t1.5 5t1.5 7t2 9l106 511
q4 20 -4 31l-50 62v2h370q83 0 136 -39.5t53 -111.5q0 -94 -70.5 -151.5t-185.5 -60.5v-2l109 -36l43 -218q3 -17 22 -40l34 -42v-2h-214l-61 319q-3 12 -19 12zM343 660l-64 -310h66q62 0 105.5 64.5t43.5 151.5q0 118 -83 118h-38q-17 0 -22 -4.5t-8 -19.5z" />
    <glyph glyph-name="rcommaaccent" unicode="&#x157;" horiz-adv-x="416" 
d="M52 -160q-17 0 -30 13t-13 37q0 30 21 51t51 21q27 0 44 -16.5t17 -44.5q0 -44 -32 -84t-80 -62q-27 -13 -44 -15v2q28 13 46 35q19 23 26 53q2 10 -6 10zM168 0h-148l89 424q4 17 2.5 22t-13.5 11l-57 28v2l239 16l-42 -197h1q35 97 74.5 147t91.5 50q32 0 51 -15
l-77 -217h-2l-53 121q-4 9 -9 9q-6 0 -15 -10q-18 -22 -36 -57q-41 -84 -96 -334z" />
    <glyph glyph-name="Rcaron" unicode="&#x158;" horiz-adv-x="666" 
d="M421 740h-2l-127 174l1 2l146 -67l179 67l1 -2zM327 331h-52l-48 -236q-5 -22 3 -31l50 -62v-2h-313v2l78 64q3 2 5 4.5t3 5.5t1.5 5t1.5 7t2 9l106 511q4 20 -4 31l-50 62v2h370q83 0 136 -39.5t53 -111.5q0 -94 -70.5 -151.5t-185.5 -60.5v-2l109 -36l43 -218
q3 -17 22 -40l34 -42v-2h-214l-61 319q-3 12 -19 12zM343 660l-64 -310h66q62 0 105.5 64.5t43.5 151.5q0 118 -83 118h-38q-17 0 -22 -4.5t-8 -19.5z" />
    <glyph glyph-name="rcaron" unicode="&#x159;" horiz-adv-x="416" 
d="M290 532h-2l-127 174l1 2l146 -67l179 67l1 -2zM168 0h-148l89 424q4 17 2.5 22t-13.5 11l-57 28v2l239 16l-42 -197h1q35 97 74.5 147t91.5 50q32 0 51 -15l-77 -217h-2l-53 121q-4 9 -9 9q-6 0 -15 -10q-18 -22 -36 -57q-41 -84 -96 -334z" />
    <glyph glyph-name="Sacute" unicode="&#x15a;" horiz-adv-x="550" 
d="M293 745l-1 1l109 165h164v-2zM518 215q0 -94 -81.5 -159t-205.5 -66q-143 0 -233 29l66 237h2l75 -226q3 -9 7 -12t14 -5q28 -4 46 -4q61 0 104 33t43 92q0 42 -26.5 76t-81.5 74l-37 27q-116 85 -116 190q0 94 72 152.5t183 59.5q120 0 218 -27l-48 -224h-2l-92 215
q-5 12 -18 15q-19 3 -43 3q-52 0 -86.5 -28t-34.5 -80q0 -79 111 -157l35 -25q65 -46 97 -88.5t32 -101.5z" />
    <glyph glyph-name="sacute" unicode="&#x15b;" horiz-adv-x="406" 
d="M174 537l-1 1l109 165h164v-2zM270 298q51 -41 73 -71t22 -70q0 -65 -54 -115t-153 -50q-91 0 -163 33l57 172h2l74 -175q5 -11 18 -13q6 -1 14 -1q38 0 60 21t22 54q0 5 -1 10t-2.5 9t-5 9.5t-6 9t-8.5 9.5l-9.5 9.5t-12 11t-13.5 11.5t-16.5 13.5t-17.5 14.5
q-49 42 -70.5 77.5t-21.5 77.5q0 65 49.5 111.5t137.5 46.5q71 0 154 -23l-56 -169h-2l-74 166q-4 9 -13 9h-6q-33 0 -52.5 -19t-19.5 -51q0 -25 21.5 -51t72.5 -67z" />
    <glyph glyph-name="Scircumflex" unicode="&#x15c;" horiz-adv-x="550" 
d="M406 919l128 -175l-2 -1l-145 70l-180 -70l-1 2l198 174h2zM518 215q0 -94 -81.5 -159t-205.5 -66q-143 0 -233 29l66 237h2l75 -226q3 -9 7 -12t14 -5q28 -4 46 -4q61 0 104 33t43 92q0 42 -26.5 76t-81.5 74l-37 27q-116 85 -116 190q0 94 72 152.5t183 59.5
q120 0 218 -27l-48 -224h-2l-92 215q-5 12 -18 15q-19 3 -43 3q-52 0 -86.5 -28t-34.5 -80q0 -79 111 -157l35 -25q65 -46 97 -88.5t32 -101.5z" />
    <glyph glyph-name="scircumflex" unicode="&#x15d;" horiz-adv-x="406" 
d="M287 711l128 -175l-2 -1l-145 70l-180 -70l-1 2l198 174h2zM270 298q51 -41 73 -71t22 -70q0 -65 -54 -115t-153 -50q-91 0 -163 33l57 172h2l74 -175q5 -11 18 -13q6 -1 14 -1q38 0 60 21t22 54q0 5 -1 10t-2.5 9t-5 9.5t-6 9t-8.5 9.5l-9.5 9.5t-12 11t-13.5 11.5
t-16.5 13.5t-17.5 14.5q-49 42 -70.5 77.5t-21.5 77.5q0 65 49.5 111.5t137.5 46.5q71 0 154 -23l-56 -169h-2l-74 166q-4 9 -13 9h-6q-33 0 -52.5 -19t-19.5 -51q0 -25 21.5 -51t72.5 -67z" />
    <glyph glyph-name="Scedilla" unicode="&#x15e;" horiz-adv-x="550" 
d="M334 -124q0 -49 -40 -80.5t-97 -31.5q-51 0 -82.5 26t-25.5 69h2q3 -29 25 -43t48 -14q31 0 53.5 19.5t22.5 49.5q0 20 -15.5 31.5t-39.5 11.5q-23 0 -39 -7l-1 2l84 81q-143 0 -231 29l66 237h2l75 -226q3 -9 7 -12t14 -5q28 -4 46 -4q61 0 104 33t43 92q0 42 -26.5 76
t-81.5 74l-37 27q-116 85 -116 190q0 94 72 152.5t183 59.5q120 0 218 -27l-48 -224h-2l-92 215q-5 12 -18 15q-19 3 -43 3q-52 0 -86.5 -28t-34.5 -80q0 -79 111 -157l35 -25q65 -46 97 -88.5t32 -101.5q0 -93 -80 -158t-202 -67l-16 -50q16 3 30 3q38 0 61 -19t23 -48z
" />
    <glyph glyph-name="scedilla" unicode="&#x15f;" horiz-adv-x="406" 
d="M259 -124q0 -49 -40 -80.5t-97 -31.5q-51 0 -82.5 26t-25.5 69h2q3 -29 25 -43t48 -14q31 0 53.5 19.5t22.5 49.5q0 20 -15.5 31.5t-39.5 11.5q-23 0 -39 -7l-1 2l87 83q-91 0 -162 33l57 172h2l74 -175q5 -11 18 -13q6 -1 14 -1q38 0 60 21t22 54q0 5 -1 10t-2.5 9
t-5 9.5t-6 9t-8.5 9.5l-9.5 9.5t-12 11t-13.5 11.5t-16.5 13.5t-17.5 14.5q-49 42 -70.5 77.5t-21.5 77.5q0 65 49.5 111.5t137.5 46.5q71 0 154 -23l-56 -169h-2l-74 166q-4 9 -13 9h-6q-33 0 -52.5 -19t-19.5 -51q0 -25 21.5 -51t72.5 -67t73 -71t22 -70q0 -64 -53 -114
t-150 -51l-17 -52q17 3 30 3q38 0 61 -19t23 -48z" />
    <glyph glyph-name="Scaron" unicode="&#x160;" horiz-adv-x="550" 
d="M374 740h-2l-127 174l1 2l146 -67l179 67l1 -2zM518 215q0 -94 -81.5 -159t-205.5 -66q-143 0 -233 29l66 237h2l75 -226q3 -9 7 -12t14 -5q28 -4 46 -4q61 0 104 33t43 92q0 42 -26.5 76t-81.5 74l-37 27q-116 85 -116 190q0 94 72 152.5t183 59.5q120 0 218 -27
l-48 -224h-2l-92 215q-5 12 -18 15q-19 3 -43 3q-52 0 -86.5 -28t-34.5 -80q0 -79 111 -157l35 -25q65 -46 97 -88.5t32 -101.5z" />
    <glyph glyph-name="scaron" unicode="&#x161;" horiz-adv-x="406" 
d="M255 532h-2l-127 174l1 2l146 -67l179 67l1 -2zM270 298q51 -41 73 -71t22 -70q0 -65 -54 -115t-153 -50q-91 0 -163 33l57 172h2l74 -175q5 -11 18 -13q6 -1 14 -1q38 0 60 21t22 54q0 5 -1 10t-2.5 9t-5 9.5t-6 9t-8.5 9.5l-9.5 9.5t-12 11t-13.5 11.5t-16.5 13.5
t-17.5 14.5q-49 42 -70.5 77.5t-21.5 77.5q0 65 49.5 111.5t137.5 46.5q71 0 154 -23l-56 -169h-2l-74 166q-4 9 -13 9h-6q-33 0 -52.5 -19t-19.5 -51q0 -25 21.5 -51t72.5 -67z" />
    <glyph glyph-name="Tcommaaccent" unicode="&#x162;" horiz-adv-x="617" 
d="M213 -160q-17 0 -30 13t-13 37q0 30 21 51t51 21q27 0 44 -16.5t17 -44.5q0 -44 -32 -84t-80 -62q-27 -13 -44 -15v2q28 13 46 35q19 23 26 53q3 10 -6 10zM363 100q-4 -19 5 -30l59 -68v-2h-337v2l87 68q13 9 17 30l120 583h-54q-13 0 -19 -2.5t-15 -15.5l-168 -232h-2
l56 270h581l-55 -270h-2l-74 232q-4 12 -8.5 15t-16.5 3h-54z" />
    <glyph glyph-name="tcommaaccent" unicode="&#x163;" horiz-adv-x="311" 
d="M69 -160q-17 0 -30 13t-13 37q0 30 21 51t51 21q27 0 44 -16.5t17 -44.5q0 -44 -32 -84t-80 -62q-27 -13 -44 -15v2q28 13 46 35q19 23 26 53q3 10 -6 10zM192 157q-9 -45 -9 -58q0 -25 21 -25q18 0 36 20q28 33 44 87h2q-15 -95 -73 -148q-44 -41 -97 -41
q-42 0 -63.5 26t-21.5 61q0 26 11 77l71 311h-70v20h63q18 0 28 10l171 188h2l-43 -198h100v-20h-105z" />
    <glyph glyph-name="Tcaron" unicode="&#x164;" horiz-adv-x="617" 
d="M412 740h-2l-127 174l1 2l146 -67l179 67l1 -2zM363 100q-4 -19 5 -30l59 -68v-2h-337v2l87 68q13 9 17 30l120 583h-54q-13 0 -19 -2.5t-15 -15.5l-168 -232h-2l56 270h581l-55 -270h-2l-74 232q-4 12 -8.5 15t-16.5 3h-54z" />
    <glyph glyph-name="tcaron" unicode="&#x165;" horiz-adv-x="311" 
d="M341 508l43 195h119v-2l-160 -193h-2zM192 157q-9 -45 -9 -58q0 -25 21 -25q18 0 36 20q28 33 44 87h2q-15 -95 -73 -148q-44 -41 -97 -41q-42 0 -63.5 26t-21.5 61q0 26 11 77l71 311h-70v20h63q18 0 28 10l171 188h2l-43 -198h100v-20h-105z" />
    <glyph glyph-name="Tbar" unicode="&#x166;" horiz-adv-x="617" 
d="M540 352v-19h-129l-48 -233q-4 -19 5 -30l59 -68v-2h-337v2l87 68q13 9 17 30l48 233h-123v19h127l68 331h-54q-13 0 -19 -2.5t-15 -15.5l-168 -232h-2l56 270h581l-55 -270h-2l-74 232q-4 12 -8.5 15t-16.5 3h-54l-68 -331h125z" />
    <glyph glyph-name="tbar" unicode="&#x167;" horiz-adv-x="326" 
d="M312 685h2l-43 -198h100v-20h-105l-26 -117h98v-19h-102l-37 -174q-9 -45 -9 -58q0 -25 21 -25q18 0 36 20q28 33 44 87h2q-15 -95 -73 -148q-44 -41 -97 -41q-42 0 -63.5 26t-21.5 61q0 26 11 77l40 175h-71v19h75l27 117h-70v20h63q18 0 28 10z" />
    <glyph glyph-name="Utilde" unicode="&#x168;" horiz-adv-x="657" 
d="M574 256q-27 -132 -93.5 -199t-195.5 -67q-105 0 -160.5 47t-55.5 136q0 30 8 70l76 367q3 17 -5 28l-50 63v2h317v-2l-78 -63q-12 -10 -16 -28l-74 -360q-10 -49 -10 -88q0 -135 120 -135q72 0 122.5 57t73.5 170l56 270q5 21 3 33t-14 32l-64 112v2h240v-2l-110 -115
q-18 -19 -23.5 -29.5t-10.5 -32.5zM656 896h2q-9 -56 -39.5 -91t-71.5 -35q-26 0 -67.5 24.5t-63.5 24.5q-48 0 -74 -49h-2q8 56 38.5 91t71.5 35q27 0 68 -24.5t63 -24.5q49 0 75 49z" />
    <glyph glyph-name="utilde" unicode="&#x169;" horiz-adv-x="583" 
d="M476 155q-8 -35 -8 -56q0 -26 21 -26q18 0 39 24q26 32 42 84h2q-19 -100 -74 -150q-41 -39 -94 -39q-42 0 -64.5 23t-22.5 64q0 40 20 114h-2q-34 -89 -92.5 -145t-114.5 -56q-42 0 -66 25t-24 66q0 31 24 115l40 130q14 42 14 68q0 25 -20 25q-19 0 -38 -22
q-19 -23 -42 -79h-2q20 84 66 133.5t106 49.5q42 0 65.5 -24t23.5 -61q0 -42 -24 -112l-46 -140q-15 -43 -15 -69q0 -24 24 -24q30 0 72 57q30 41 53.5 110.5t69.5 244.5l151 15zM520 688h2q-9 -56 -39.5 -91t-71.5 -35q-26 0 -67.5 24.5t-63.5 24.5q-48 0 -74 -49h-2
q8 56 38.5 91t71.5 35q27 0 68 -24.5t63 -24.5q49 0 75 49z" />
    <glyph glyph-name="Umacron" unicode="&#x16a;" horiz-adv-x="657" 
d="M574 256q-27 -132 -93.5 -199t-195.5 -67q-105 0 -160.5 47t-55.5 136q0 30 8 70l76 367q3 17 -5 28l-50 63v2h317v-2l-78 -63q-12 -10 -16 -28l-74 -360q-10 -49 -10 -88q0 -135 120 -135q72 0 122.5 57t73.5 170l56 270q5 21 3 33t-14 32l-64 112v2h240v-2l-110 -115
q-18 -19 -23.5 -29.5t-10.5 -32.5zM633 800h-280v20h280v-20z" />
    <glyph glyph-name="umacron" unicode="&#x16b;" horiz-adv-x="583" 
d="M476 155q-8 -35 -8 -56q0 -26 21 -26q18 0 39 24q26 32 42 84h2q-19 -100 -74 -150q-41 -39 -94 -39q-42 0 -64.5 23t-22.5 64q0 40 20 114h-2q-34 -89 -92.5 -145t-114.5 -56q-42 0 -66 25t-24 66q0 31 24 115l40 130q14 42 14 68q0 25 -20 25q-19 0 -38 -22
q-19 -23 -42 -79h-2q20 84 66 133.5t106 49.5q42 0 65.5 -24t23.5 -61q0 -42 -24 -112l-46 -140q-15 -43 -15 -69q0 -24 24 -24q30 0 72 57q30 41 53.5 110.5t69.5 244.5l151 15zM497 592h-280v20h280v-20z" />
    <glyph glyph-name="Ubreve" unicode="&#x16c;" horiz-adv-x="657" 
d="M574 256q-27 -132 -93.5 -199t-195.5 -67q-105 0 -160.5 47t-55.5 136q0 30 8 70l76 367q3 17 -5 28l-50 63v2h317v-2l-78 -63q-12 -10 -16 -28l-74 -360q-10 -49 -10 -88q0 -135 120 -135q72 0 122.5 57t73.5 170l56 270q5 21 3 33t-14 32l-64 112v2h240v-2l-110 -115
q-18 -19 -23.5 -29.5t-10.5 -32.5zM493 825q55 0 93.5 24.5t50.5 70.5h2q-1 -86 -45.5 -129t-106.5 -43q-49 0 -83 26t-34 76q0 33 15 70h2q-7 -46 22 -70.5t84 -24.5z" />
    <glyph glyph-name="ubreve" unicode="&#x16d;" horiz-adv-x="583" 
d="M476 155q-8 -35 -8 -56q0 -26 21 -26q18 0 39 24q26 32 42 84h2q-19 -100 -74 -150q-41 -39 -94 -39q-42 0 -64.5 23t-22.5 64q0 40 20 114h-2q-34 -89 -92.5 -145t-114.5 -56q-42 0 -66 25t-24 66q0 31 24 115l40 130q14 42 14 68q0 25 -20 25q-19 0 -38 -22
q-19 -23 -42 -79h-2q20 84 66 133.5t106 49.5q42 0 65.5 -24t23.5 -61q0 -42 -24 -112l-46 -140q-15 -43 -15 -69q0 -24 24 -24q30 0 72 57q30 41 53.5 110.5t69.5 244.5l151 15zM358 617q55 0 93.5 24.5t50.5 70.5h2q-1 -86 -45.5 -129t-106.5 -43q-49 0 -83 26t-34 76
q0 33 15 70h2q-7 -46 22 -70.5t84 -24.5z" />
    <glyph glyph-name="Uring" unicode="&#x16e;" horiz-adv-x="657" 
d="M489 747q-34 0 -57.5 22.5t-23.5 57.5q0 44 30.5 75t76.5 31q34 0 57.5 -22t23.5 -57q0 -44 -30.5 -75.5t-76.5 -31.5zM513 913q-34 0 -58.5 -25t-24.5 -60q0 -27 17 -44t44 -17q34 0 58.5 25t24.5 61q0 27 -17 43.5t-44 16.5zM574 256q-27 -132 -93.5 -199t-195.5 -67
q-105 0 -160.5 47t-55.5 136q0 30 8 70l76 367q3 17 -5 28l-50 63v2h317v-2l-78 -63q-12 -10 -16 -28l-74 -360q-10 -49 -10 -88q0 -135 120 -135q72 0 122.5 57t73.5 170l56 270q5 21 3 33t-14 32l-64 112v2h240v-2l-110 -115q-18 -19 -23.5 -29.5t-10.5 -32.5z" />
    <glyph glyph-name="uring" unicode="&#x16f;" horiz-adv-x="583" 
d="M353 539q-34 0 -57.5 22.5t-23.5 57.5q0 44 30.5 75t76.5 31q34 0 57.5 -22t23.5 -57q0 -44 -30.5 -75.5t-76.5 -31.5zM377 705q-34 0 -58.5 -25t-24.5 -60q0 -27 17 -44t44 -17q34 0 58.5 25t24.5 61q0 27 -17 43.5t-44 16.5zM476 155q-8 -35 -8 -56q0 -26 21 -26
q18 0 39 24q26 32 42 84h2q-19 -100 -74 -150q-41 -39 -94 -39q-42 0 -64.5 23t-22.5 64q0 40 20 114h-2q-34 -89 -92.5 -145t-114.5 -56q-42 0 -66 25t-24 66q0 31 24 115l40 130q14 42 14 68q0 25 -20 25q-19 0 -38 -22q-19 -23 -42 -79h-2q20 84 66 133.5t106 49.5
q42 0 65.5 -24t23.5 -61q0 -42 -24 -112l-46 -140q-15 -43 -15 -69q0 -24 24 -24q30 0 72 57q30 41 53.5 110.5t69.5 244.5l151 15z" />
    <glyph glyph-name="Uhungarumlaut" unicode="&#x170;" horiz-adv-x="657" 
d="M574 256q-27 -132 -93.5 -199t-195.5 -67q-105 0 -160.5 47t-55.5 136q0 30 8 70l76 367q3 17 -5 28l-50 63v2h317v-2l-78 -63q-12 -10 -16 -28l-74 -360q-10 -49 -10 -88q0 -135 120 -135q72 0 122.5 57t73.5 170l56 270q5 21 3 33t-14 32l-64 112v2h240v-2l-110 -115
q-18 -19 -23.5 -29.5t-10.5 -32.5zM460 911h129v-2l-219 -170h-2zM627 911h129v-2l-219 -170h-2z" />
    <glyph glyph-name="uhungarumlaut" unicode="&#x171;" horiz-adv-x="583" 
d="M476 155q-8 -35 -8 -56q0 -26 21 -26q18 0 39 24q26 32 42 84h2q-19 -100 -74 -150q-41 -39 -94 -39q-42 0 -64.5 23t-22.5 64q0 40 20 114h-2q-34 -89 -92.5 -145t-114.5 -56q-42 0 -66 25t-24 66q0 31 24 115l40 130q14 42 14 68q0 25 -20 25q-19 0 -38 -22
q-19 -23 -42 -79h-2q20 84 66 133.5t106 49.5q42 0 65.5 -24t23.5 -61q0 -42 -24 -112l-46 -140q-15 -43 -15 -69q0 -24 24 -24q30 0 72 57q30 41 53.5 110.5t69.5 244.5l151 15zM324 703h129v-2l-219 -170h-2zM491 703h129v-2l-219 -170h-2z" />
    <glyph glyph-name="Uogonek" unicode="&#x172;" horiz-adv-x="657" 
d="M249 -236q-39 0 -64.5 21t-25.5 59q0 54 42.5 91t104.5 56q-7 -1 -21 -1q-105 0 -160.5 47t-55.5 136q0 30 8 70l76 367q3 17 -5 28l-51 63v2h318v-2l-78 -63q-13 -11 -16 -28l-74 -360q-10 -49 -10 -88q0 -135 120 -135q72 0 122.5 57t73.5 170l56 270q5 21 3 33t-14 32
l-64 112v2h240v-2l-110 -115q-18 -19 -23.5 -29.5t-10.5 -32.5l-56 -268q-25 -121 -82 -187t-164 -77q-37 -17 -59.5 -47.5t-22.5 -68.5q0 -27 16.5 -41.5t43.5 -14.5q49 0 88 45l2 -1q-53 -100 -147 -100z" />
    <glyph glyph-name="uogonek" unicode="&#x173;" horiz-adv-x="583" 
d="M352 -236q-39 0 -64.5 21t-25.5 59q0 54 44 92t105 56h-7q-42 0 -64.5 23t-22.5 64q0 40 20 114h-2q-34 -89 -92.5 -145t-114.5 -56q-42 0 -66 25t-24 66q0 31 24 115l40 130q14 42 14 68q0 25 -20 25q-19 0 -38 -22q-19 -23 -42 -79h-2q20 84 66 133.5t106 49.5
q42 0 65.5 -24t23.5 -61q0 -42 -24 -112l-46 -140q-15 -43 -15 -69q0 -24 24 -24q30 0 72 57q30 41 53.5 110.5t69.5 244.5l151 15l-84 -345q-8 -35 -8 -56q0 -26 21 -26q18 0 39 24q26 32 42 84h2q-18 -96 -74 -150q-30 -28 -67 -36q-36 -17 -59 -49t-23 -70
q0 -27 16.5 -41.5t43.5 -14.5q50 0 89 45l2 -1q-55 -100 -148 -100z" />
    <glyph glyph-name="Wcircumflex" unicode="&#x174;" horiz-adv-x="970" 
d="M639 919l128 -175l-2 -1l-145 70l-180 -70l-1 2l198 174h2zM980 574q-24 -26 -33 -43l-273 -531h-120l-42 401l-209 -401h-121l-64 593q-3 24 -11 41l-28 67v2h278v-2l-61 -67q-10 -11 -9 -26l52 -496l170 324l-16 157q-3 20 -9 38l-25 70v2h272v-2l-62 -67
q-10 -10 -9 -26l50 -494l218 422q8 16 -1 36l-63 129v2h236v-2z" />
    <glyph glyph-name="wcircumflex" unicode="&#x175;" horiz-adv-x="723" 
d="M489 711l128 -175l-2 -1l-145 70l-180 -70l-1 2l198 174h2zM469 182q-10 -46 -10 -63q0 -55 44 -55q49 0 89.5 71.5t40.5 160.5q0 64 -25 119q-13 28 -23 42v2l150 44q-7 -117 -51.5 -234.5t-116.5 -197t-148 -79.5q-42 0 -67 27t-25 79q0 25 6 55h-2q-23 -70 -69 -115.5
t-110 -45.5q-52 0 -78.5 29.5t-26.5 74.5q0 35 18 107l32 122q14 48 14 70q0 25 -21 25q-33 0 -83 -87h-2q60 170 172 170q88 0 88 -97q0 -41 -23 -120l-32 -107q-13 -41 -13 -68q0 -47 37 -47q53 0 91 115q37 113 53 304l151 20q-4 -36 -8.5 -69.5t-12 -70t-12 -57.5
t-14.5 -64.5t-13 -59.5z" />
    <glyph glyph-name="Ycircumflex" unicode="&#x176;" horiz-adv-x="621" 
d="M583 543l-166 -238q-10 -13 -15 -38l-35 -171q-3 -17 5 -26l60 -68v-2h-337v2l87 68q13 11 16 26l31 154q4 14 0 25l-101 316q-7 23 -18 43l-36 67v2h312v-2l-74 -69q-11 -10 -8 -24l89 -306l170 247q8 11 8.5 16.5t-4.5 14.5l-61 121v2h250v-2l-138 -121
q-24 -21 -35 -37zM487 919l128 -175l-2 -1l-145 70l-180 -70l-1 2l198 174h2z" />
    <glyph glyph-name="ycircumflex" unicode="&#x177;" horiz-adv-x="485" 
d="M260 378q17 -63 27.5 -160t7.5 -193l2 -1q33 49 62 127q29 81 29 158q0 92 -49 148v2l157 44q-12 -143 -70.5 -283t-144.5 -244q-76 -93 -171.5 -152.5t-160.5 -59.5q-21 0 -32 6l56 167h2l105 -96q9 -9 19 -3q24 14 52 38q10 9 10 26v14q0 126 -18.5 253t-41.5 197
q-11 35 -29 35q-29 0 -61 -86h-2q11 79 51 133.5t96 54.5q24 0 41.5 -9.5t29 -30t18.5 -38t15 -47.5zM335 711l128 -175l-2 -1l-145 70l-180 -70l-1 2l198 174h2z" />
    <glyph glyph-name="Ydieresis" unicode="&#x178;" horiz-adv-x="621" 
d="M583 543l-166 -238q-10 -13 -15 -38l-35 -171q-3 -17 5 -26l60 -68v-2h-337v2l87 68q13 11 16 26l31 154q4 14 0 25l-101 316q-7 23 -18 43l-36 67v2h312v-2l-74 -69q-11 -10 -8 -24l89 -306l170 247q8 11 8.5 16.5t-4.5 14.5l-61 121v2h250v-2l-138 -121
q-24 -21 -35 -37zM377 897q29 0 47 -16t18 -44q0 -31 -22 -51t-54 -20q-28 0 -47 16t-19 43q0 32 23 52t54 20zM574 897q29 0 47 -16t18 -44q0 -32 -21.5 -51.5t-53.5 -19.5q-28 0 -47 16t-19 43q0 32 22.5 52t53.5 20z" />
    <glyph glyph-name="Zacute" unicode="&#x179;" horiz-adv-x="614" 
d="M338 745l-1 1l109 165h164v-2zM527 0h-564v2l533 681h-179q-21 0 -31 -12l-191 -236h-3l56 268h553l-1 -2l-532 -681h189q20 0 30 12l192 235h2z" />
    <glyph glyph-name="zacute" unicode="&#x17a;" horiz-adv-x="404" 
d="M194 537l-1 1l109 165h164v-2zM337 47q-42 -59 -104 -59q-24 0 -111 26q-62 18 -75 18q-47 0 -62 -44h-2q2 22 7 39q12 43 52 80l237 226q-29 3 -72 17q-76 24 -104 24q-25 0 -45 -17t-35 -63h-2q39 215 154 215q26 0 116 -30q53 -17 71 -17q52 0 70 52h2
q-6 -66 -64 -121l-242 -231q30 -2 92 -20t86 -18q57 0 88 87h2q-15 -99 -59 -164z" />
    <glyph glyph-name="Zdotaccent" unicode="&#x17b;" horiz-adv-x="614" 
d="M527 0h-564v2l533 681h-179q-21 0 -31 -12l-191 -236h-3l56 268h553l-1 -2l-532 -681h189q20 0 30 12l192 235h2zM443 905q32 0 52 -17.5t20 -47.5q0 -35 -24 -56.5t-60 -21.5q-31 0 -52 17.5t-21 47.5q0 35 25 56.5t60 21.5z" />
    <glyph glyph-name="zdotaccent" unicode="&#x17c;" horiz-adv-x="404" 
d="M337 47q-42 -59 -104 -59q-24 0 -111 26q-62 18 -75 18q-47 0 -62 -44h-2q2 22 7 39q12 43 52 80l237 226q-29 3 -72 17q-76 24 -104 24q-25 0 -45 -17t-35 -63h-2q39 215 154 215q26 0 116 -30q53 -17 71 -17q52 0 70 52h2q-6 -66 -64 -121l-242 -231q30 -2 92 -20
t86 -18q57 0 88 87h2q-15 -99 -59 -164zM299 697q32 0 52 -17.5t20 -47.5q0 -35 -24 -56.5t-60 -21.5q-31 0 -52 17.5t-21 47.5q0 35 25 56.5t60 21.5z" />
    <glyph glyph-name="Zcaron" unicode="&#x17d;" horiz-adv-x="614" 
d="M419 740h-2l-127 174l1 2l146 -67l179 67l1 -2zM527 0h-564v2l533 681h-179q-21 0 -31 -12l-191 -236h-3l56 268h553l-1 -2l-532 -681h189q20 0 30 12l192 235h2z" />
    <glyph glyph-name="zcaron" unicode="&#x17e;" horiz-adv-x="404" 
d="M275 532h-2l-127 174l1 2l146 -67l179 67l1 -2zM337 47q-42 -59 -104 -59q-24 0 -111 26q-62 18 -75 18q-47 0 -62 -44h-2q2 22 7 39q12 43 52 80l237 226q-29 3 -72 17q-76 24 -104 24q-25 0 -45 -17t-35 -63h-2q39 215 154 215q26 0 116 -30q53 -17 71 -17q52 0 70 52
h2q-6 -66 -64 -121l-242 -231q30 -2 92 -20t86 -18q57 0 88 87h2q-15 -99 -59 -164z" />
    <glyph glyph-name="florin" unicode="&#x192;" horiz-adv-x="442" 
d="M104 68l38 220h-101v20h105l14 82q10 55 21.5 98.5t32.5 87.5t48.5 72.5t68.5 46.5t93 18q69 0 119 -22l-70 -156h-2l-52 147q-3 9 -6 11t-11 2q-34 0 -55 -83q-9 -36 -27 -143l-28 -161h111v-20h-115l-21 -125q-13 -78 -35 -144.5t-56 -126t-85 -94t-114 -34.5
q-58 0 -101 25l70 160h2l55 -151q5 -12 12 -12q12 0 21 11q7 8 13 20t11 30t9.5 33.5t9 41.5t8 44t9 50.5t8.5 51.5z" />
    <glyph glyph-name="uni01B5" unicode="&#x1b5;" horiz-adv-x="623" 
d="M562 341h-144l-250 -321h189q20 0 30 12l192 235h2l-54 -267h-564v2l265 339h-139v19h154l253 323h-179q-21 0 -31 -12l-191 -236h-3l56 268h553v-2l-268 -341h129v-19z" />
    <glyph glyph-name="uni01B6" unicode="&#x1b6;" horiz-adv-x="403" 
d="M338 47q-42 -59 -104 -59q-24 0 -111 26q-62 18 -75 18q-47 0 -62 -44h-2q2 22 7 39q11 39 52 80l143 137h-139v18h158l75 71q-29 3 -72 17q-76 24 -104 24q-25 0 -45 -17t-35 -63h-2q39 215 154 215q26 0 116 -30q53 -17 71 -17q52 0 70 52h2q-6 -66 -64 -121l-137 -131
h130v-18h-149l-86 -82q30 -2 92 -20t86 -18q26 0 47.5 18.5t40.5 69.5h2q-15 -101 -59 -165z" />
    <glyph glyph-name="Aringacute" unicode="&#x1fa;" horiz-adv-x="636" 
d="M398 993h145v-2l-159 -95q-43 -25 -55 -41q28 26 70 26q41 0 68.5 -19.5t27.5 -52.5q0 -32 -27.5 -51.5t-67.5 -19.5q-37 0 -66 20.5t-29 50.5q0 19 14 43zM325 809q0 -23 22.5 -37.5t52.5 -14.5q32 0 53 14t21 38q0 25 -21 39t-54 14q-31 0 -52.5 -14t-21.5 -39zM382 96
l-16 149h-219l-42 -80q-6 -13 -6 -17.5t7 -17.5l63 -128v-2h-237v2l123 128q20 21 31 42l226 426q7 14 7.5 19.5t-6.5 15.5l-44 68v2h216l66 -593q2 -16 12 -41l27 -67v-2h-278v2l62 67q9 9 8 27zM329 588l-171 -323h206z" />
    <glyph glyph-name="aringacute" unicode="&#x1fb;" horiz-adv-x="559" 
d="M361 780h145v-2l-159 -94q-41 -24 -55 -41q29 25 70 25t68.5 -19.5t27.5 -52.5q0 -31 -27.5 -50.5t-67.5 -19.5q-37 0 -66 20t-29 50q0 20 14 44zM288 597q0 -24 22.5 -38t52.5 -14q32 0 53 14t21 38q0 25 -21 38.5t-54 13.5q-31 0 -52.5 -14t-21.5 -38zM451 161
q-10 -36 -10 -59q0 -29 20 -29q21 0 42 29q25 36 40 80l2 -1q-16 -84 -61 -136.5t-107 -52.5q-38 0 -60.5 23t-23.5 65q0 34 15 94h-2q-61 -182 -169 -182q-49 0 -83 41t-34 117q0 90 35 171.5t95 131.5t127 50q64 0 101 -46l156 46l1 -1q-11 -47 -30 -123.5t-35.5 -143
t-18.5 -74.5zM371 448q-11 15 -34 15q-54 0 -97 -78q-27 -48 -44 -118t-17 -132t33 -62q35 0 67 69q44 92 92 306z" />
    <glyph glyph-name="AEacute" unicode="&#x1fc;" horiz-adv-x="927" 
d="M617 746l-1 1l109 165h164v-2zM553 40q-3 -14 -0.5 -17t13.5 -3h115q21 0 33 14l164 212h4l-49 -246h-533v2l80 63q11 9 14 24l32 156h-231l-63 -77q-13 -16 -14.5 -23.5t3.5 -21.5l44 -121v-2h-246v2l139 119q42 37 49 46l355 433q9 11 9.5 16t-4.5 12l-54 73v2h553
l-50 -242h-2l-85 206q-6 16 -25 16h-103q-11 0 -14 -3t-6 -17l-62 -301h67q15 1 29 14l113 104h2l-53 -255h-2l-69 104q-9 13 -24 13h-67zM501 611q0 2 0.5 4.5t0.5 3.5l-292 -355h220z" />
    <glyph glyph-name="aeacute" unicode="&#x1fd;" horiz-adv-x="751" 
d="M377 537l-1 1l109 165h164v-2zM489 -8q-78 0 -128.5 46.5t-58.5 126.5l-3 -11q-56 -162 -162 -162q-49 0 -83 41t-34 117q0 138 77.5 245.5t180.5 107.5q93 0 126 -77q84 77 196 77q66 0 107.5 -29t41.5 -79q0 -71 -79 -117.5t-203 -47.5q-1 -8 -1 -23q0 -123 98 -123
q103 0 155 122l2 -1q-22 -109 -87 -161t-145 -52zM213 73q21 0 45.5 33t42.5 83v4q0 130 93 223q-21 46 -62 46q-50 0 -92 -77q-27 -48 -44 -118.5t-17 -132.5q0 -61 34 -61zM597 484q-39 0 -79.5 -77.5t-49.5 -164.5q77 8 117.5 59.5t40.5 124.5q0 58 -29 58z" />
    <glyph glyph-name="Oslashacute" unicode="&#x1fe;" horiz-adv-x="709" 
d="M420 713q43 0 88 -10l34 76l18 -7l-33 -74q90 -26 136 -96.5t46 -171.5q0 -187 -109 -313.5t-274 -126.5q-55 0 -105 13l-38 -85l-19 7l37 85q-81 29 -122.5 98t-41.5 165q0 187 109 313.5t274 126.5zM312 9q47 0 89.5 57t69.5 139.5t43 168.5t16 150q0 87 -23 128
l-267 -604q24 -39 72 -39zM216 179q0 -69 13 -107l265 598q-23 24 -60 24q-47 0 -89.5 -57t-69.5 -139.5t-43 -168.5t-16 -150zM486 911h164v-2l-272 -164l-1 1z" />
    <glyph glyph-name="oslashacute" unicode="&#x1ff;" horiz-adv-x="525" 
d="M217 -9q-32 0 -59 7l-34 -79l-19 7l34 77q-121 40 -121 190q0 129 84 219.5t206 90.5q22 0 49 -5l34 76l18 -7l-32 -73q130 -39 130 -193q0 -130 -85 -220t-205 -90zM213 9q35 0 67.5 64.5t51 156t18.5 174.5q0 17 -1 26l-170 -386q9 -35 34 -35zM175 90v-6l166 378
q-8 23 -29 23q-52 0 -94.5 -132t-42.5 -263zM367 703h164v-2l-272 -164l-1 1z" />
    <glyph glyph-name="Scommaaccent" unicode="&#x218;" horiz-adv-x="550" 
d="M190 -160q-17 0 -30 13t-13 37q0 30 21 51t51 21q27 0 44 -16.5t17 -44.5q0 -44 -32 -84t-80 -62q-27 -13 -44 -15v2q28 13 46 35q19 23 26 53q2 10 -6 10zM518 215q0 -94 -81.5 -159t-205.5 -66q-143 0 -233 29l66 237h2l75 -226q3 -9 7 -12t14 -5q28 -4 46 -4
q61 0 104 33t43 92q0 42 -26.5 76t-81.5 74l-37 27q-116 85 -116 190q0 94 72 152.5t183 59.5q120 0 218 -27l-48 -224h-2l-92 215q-5 12 -18 15q-19 3 -43 3q-52 0 -86.5 -28t-34.5 -80q0 -79 111 -157l35 -25q65 -46 97 -88.5t32 -101.5z" />
    <glyph glyph-name="scommaaccent" unicode="&#x219;" horiz-adv-x="406" 
d="M115 -160q-17 0 -30 13t-13 37q0 30 21 51t51 21q27 0 44 -16.5t17 -44.5q0 -44 -32 -84t-80 -62q-27 -13 -44 -15v2q28 13 46 35q19 23 26 53q3 10 -6 10zM270 298q51 -41 73 -71t22 -70q0 -65 -54 -115t-153 -50q-91 0 -163 33l57 172h2l74 -175q5 -11 18 -13
q6 -1 14 -1q38 0 60 21t22 54q0 5 -1 10t-2.5 9t-5 9.5t-6 9t-8.5 9.5l-9.5 9.5t-12 11t-13.5 11.5t-16.5 13.5t-17.5 14.5q-49 42 -70.5 77.5t-21.5 77.5q0 65 49.5 111.5t137.5 46.5q71 0 154 -23l-56 -169h-2l-74 166q-4 9 -13 9h-6q-33 0 -52.5 -19t-19.5 -51
q0 -25 21.5 -51t72.5 -67z" />
    <glyph glyph-name="uni021A" unicode="&#x21a;" horiz-adv-x="617" 
d="M213 -160q-17 0 -30 13t-13 37q0 30 21 51t51 21q27 0 44 -16.5t17 -44.5q0 -44 -32 -84t-80 -62q-27 -13 -44 -15v2q28 13 46 35q19 23 26 53q3 10 -6 10zM363 100q-4 -19 5 -30l59 -68v-2h-337v2l87 68q13 9 17 30l120 583h-54q-13 0 -19 -2.5t-15 -15.5l-168 -232h-2
l56 270h581l-55 -270h-2l-74 232q-4 12 -8.5 15t-16.5 3h-54z" />
    <glyph glyph-name="uni021B" unicode="&#x21b;" horiz-adv-x="311" 
d="M69 -160q-17 0 -30 13t-13 37q0 30 21 51t51 21q27 0 44 -16.5t17 -44.5q0 -44 -32 -84t-80 -62q-27 -13 -44 -15v2q28 13 46 35q19 23 26 53q3 10 -6 10zM192 157q-9 -45 -9 -58q0 -25 21 -25q18 0 36 20q28 33 44 87h2q-15 -95 -73 -148q-44 -41 -97 -41
q-42 0 -63.5 26t-21.5 61q0 26 11 77l71 311h-70v20h63q18 0 28 10l171 188h2l-43 -198h100v-20h-105z" />
    <glyph glyph-name="dotlessj" unicode="&#x237;" horiz-adv-x="279" 
d="M-123 -236q-58 0 -99 25l70 159h2l54 -151q4 -11 13 -11t17 6q50 38 99 271l75 365q4 20 -12 28l-58 29v2l239 16l-81 -352q-14 -63 -30 -113t-43 -103.5t-59.5 -89t-80.5 -58.5t-106 -23z" />
    <glyph glyph-name="circumflex" unicode="&#x2c6;" horiz-adv-x="428" 
d="M250 711l128 -175l-2 -1l-145 70l-180 -70l-1 2l198 174h2z" />
    <glyph glyph-name="caron" unicode="&#x2c7;" horiz-adv-x="428" 
d="M179 532h-2l-127 174l1 2l146 -67l179 67l1 -2z" />
    <glyph glyph-name="uni02C9" unicode="&#x2c9;" horiz-adv-x="385" 
d="M391 592h-281v20h281v-20z" />
    <glyph glyph-name="breve" unicode="&#x2d8;" horiz-adv-x="369" 
d="M173 617q55 0 93.5 24.5t50.5 70.5h2q-1 -86 -45.5 -129t-106.5 -43q-49 0 -83 26t-34 76q0 33 15 70h2q-7 -46 22 -70.5t84 -24.5z" />
    <glyph glyph-name="dotaccent" unicode="&#x2d9;" horiz-adv-x="257" 
d="M135 697q32 0 52 -17.5t20 -47.5q0 -35 -24 -56.5t-60 -21.5q-31 0 -52 17.5t-21 47.5q0 35 25 56.5t60 21.5z" />
    <glyph glyph-name="ring" unicode="&#x2da;" horiz-adv-x="290" 
d="M132 539q-34 0 -57.5 22.5t-23.5 57.5q0 44 30.5 75t76.5 31q34 0 57.5 -22t23.5 -57q0 -44 -30.5 -75.5t-76.5 -31.5zM156 705q-34 0 -58.5 -25t-24.5 -60q0 -27 17 -44t44 -17q34 0 58.5 25t24.5 61q0 27 -17 43.5t-44 16.5z" />
    <glyph glyph-name="ogonek" unicode="&#x2db;" horiz-adv-x="337" 
d="M137 -124q0 -27 16.5 -41.5t43.5 -14.5q50 0 89 45l1 -1q-53 -100 -147 -100q-39 0 -64.5 21t-25.5 59q0 61 56 103t125 55v-2q-40 -16 -67 -49.5t-27 -74.5z" />
    <glyph glyph-name="tilde" unicode="&#x2dc;" horiz-adv-x="418" 
d="M366 688h2q-9 -56 -39.5 -91t-71.5 -35q-26 0 -67.5 24.5t-63.5 24.5q-48 0 -74 -49h-2q8 56 38.5 91t71.5 35q27 0 68 -24.5t63 -24.5q49 0 75 49z" />
    <glyph glyph-name="hungarumlaut" unicode="&#x2dd;" horiz-adv-x="488" 
d="M142 703h129v-2l-219 -170h-2zM309 703h129v-2l-219 -170h-2z" />
    <glyph glyph-name="uni0394" unicode="&#x394;" horiz-adv-x="582" 
d="M526 0h-567v2l316 596q7 14 7.5 19.5t-6.5 15.5l-44 68v2h216zM292 588l-300 -568h362z" />
    <glyph glyph-name="uni03A9" unicode="&#x3a9;" horiz-adv-x="765" 
d="M667 0h-303l21 102q41 8 76 60t56 121.5t33 139.5t12 122q0 150 -96 150q-52 0 -100.5 -67t-77 -169.5t-28.5 -205.5q0 -124 65 -150l-21 -103h-302l27 233h2l95 -196q10 -18 37 -18h125l14 70q-109 15 -168.5 86t-59.5 171q0 155 111 261t275 106q128 0 207 -75.5
t79 -192.5q0 -142 -93 -240.5t-251 -117.5l-14 -68h126q26 0 44 18l173 196h2z" />
    <glyph glyph-name="uni03BC" unicode="&#x3bc;" horiz-adv-x="598" 
d="M475 101q0 -28 22 -28t43.5 30t35.5 78h2q-13 -82 -56 -132q-48 -57 -115 -57q-39 0 -61 23t-22 67q0 48 20 111h-2q-29 -73 -71.5 -120.5t-85.5 -63.5l-14 -5l-38 -163q-2 -10 -0.5 -14.5t10.5 -8.5l95 -44v-2h-321v2l50 39q13 10 18 28l124 487q13 52 13 68
q0 25 -19 25q-20 0 -40 -23q-12 -15 -40 -78h-2q20 84 65.5 133.5t104.5 49.5q43 0 66.5 -24t23.5 -61q0 -39 -23 -112l-44 -140q-16 -52 -16 -69q0 -24 22 -24q40 0 84 73q29 42 58 143q40 136 52 196l151 15l1 -1l-83 -343q-8 -34 -8 -55z" />
    <glyph glyph-name="pi" unicode="&#x3c0;" horiz-adv-x="633" 
d="M588 418l-69 -346q-4 -15 4 -24l40 -46v-2h-280v2l58 46q11 8 15 24l80 403h-149l-81 -403q-3 -14 5 -24l40 -46v-2h-279v2l57 46q10 8 14 24l69 346q3 14 -4 25l-39 50v2h592v-2l-59 -50q-10 -9 -14 -25z" />
    <glyph glyph-name="Wgrave" unicode="&#x1e80;" horiz-adv-x="970" 
d="M980 574q-24 -26 -33 -43l-273 -531h-120l-42 401l-209 -401h-121l-64 593q-3 24 -11 41l-28 67v2h278v-2l-61 -67q-10 -11 -9 -26l52 -496l170 324l-16 157q-3 20 -9 38l-25 70v2h272v-2l-62 -67q-10 -10 -9 -26l50 -494l218 422q8 16 -1 36l-63 129v2h236v-2zM425 911
h163l110 -165l-1 -1l-272 164v2z" />
    <glyph glyph-name="wgrave" unicode="&#x1e81;" horiz-adv-x="723" 
d="M469 182q-10 -46 -10 -63q0 -55 44 -55q49 0 89.5 71.5t40.5 160.5q0 64 -25 119q-13 28 -23 42v2l150 44q-7 -117 -51.5 -234.5t-116.5 -197t-148 -79.5q-42 0 -67 27t-25 79q0 25 6 55h-2q-23 -70 -69 -115.5t-110 -45.5q-52 0 -78.5 29.5t-26.5 74.5q0 35 18 107
l32 122q14 48 14 70q0 25 -21 25q-33 0 -83 -87h-2q60 170 172 170q88 0 88 -97q0 -41 -23 -120l-32 -107q-13 -41 -13 -68q0 -47 37 -47q53 0 91 115q37 113 53 304l151 20q-4 -36 -8.5 -69.5t-12 -70t-12 -57.5t-14.5 -64.5t-13 -59.5zM275 703h163l110 -165l-1 -1
l-272 164v2z" />
    <glyph glyph-name="Wacute" unicode="&#x1e82;" horiz-adv-x="970" 
d="M526 745l-1 1l109 165h164v-2zM980 574q-24 -26 -33 -43l-273 -531h-120l-42 401l-209 -401h-121l-64 593q-3 24 -11 41l-28 67v2h278v-2l-61 -67q-10 -11 -9 -26l52 -496l170 324l-16 157q-3 20 -9 38l-25 70v2h272v-2l-62 -67q-10 -10 -9 -26l50 -494l218 422
q8 16 -1 36l-63 129v2h236v-2z" />
    <glyph glyph-name="wacute" unicode="&#x1e83;" horiz-adv-x="723" 
d="M376 537l-1 1l109 165h164v-2zM469 182q-10 -46 -10 -63q0 -55 44 -55q49 0 89.5 71.5t40.5 160.5q0 64 -25 119q-13 28 -23 42v2l150 44q-7 -117 -51.5 -234.5t-116.5 -197t-148 -79.5q-42 0 -67 27t-25 79q0 25 6 55h-2q-23 -70 -69 -115.5t-110 -45.5
q-52 0 -78.5 29.5t-26.5 74.5q0 35 18 107l32 122q14 48 14 70q0 25 -21 25q-33 0 -83 -87h-2q60 170 172 170q88 0 88 -97q0 -41 -23 -120l-32 -107q-13 -41 -13 -68q0 -47 37 -47q53 0 91 115q37 113 53 304l151 20q-4 -36 -8.5 -69.5t-12 -70t-12 -57.5t-14.5 -64.5
t-13 -59.5z" />
    <glyph glyph-name="Wdieresis" unicode="&#x1e84;" horiz-adv-x="970" 
d="M529 897q29 0 47 -16t18 -44q0 -31 -22 -51t-54 -20q-28 0 -47 16t-19 43q0 32 23 52t54 20zM726 897q29 0 47 -16t18 -44q0 -32 -21.5 -51.5t-53.5 -19.5q-28 0 -47 16t-19 43q0 32 22.5 52t53.5 20zM980 574q-24 -26 -33 -43l-273 -531h-120l-42 401l-209 -401h-121
l-64 593q-3 24 -11 41l-28 67v2h278v-2l-61 -67q-10 -11 -9 -26l52 -496l170 324l-16 157q-3 20 -9 38l-25 70v2h272v-2l-62 -67q-10 -10 -9 -26l50 -494l218 422q8 16 -1 36l-63 129v2h236v-2z" />
    <glyph glyph-name="wdieresis" unicode="&#x1e85;" horiz-adv-x="723" 
d="M379 689q29 0 47 -16t18 -44q0 -31 -22 -51t-54 -20q-28 0 -47 16t-19 43q0 32 23 52t54 20zM576 689q29 0 47 -16t18 -44q0 -32 -21.5 -51.5t-53.5 -19.5q-28 0 -47 16t-19 43q0 32 22.5 52t53.5 20zM469 182q-10 -46 -10 -63q0 -55 44 -55q49 0 89.5 71.5t40.5 160.5
q0 64 -25 119q-13 28 -23 42v2l150 44q-7 -117 -51.5 -234.5t-116.5 -197t-148 -79.5q-42 0 -67 27t-25 79q0 25 6 55h-2q-23 -70 -69 -115.5t-110 -45.5q-52 0 -78.5 29.5t-26.5 74.5q0 35 18 107l32 122q14 48 14 70q0 25 -21 25q-33 0 -83 -87h-2q60 170 172 170
q88 0 88 -97q0 -41 -23 -120l-32 -107q-13 -41 -13 -68q0 -47 37 -47q53 0 91 115q37 113 53 304l151 20q-4 -36 -8.5 -69.5t-12 -70t-12 -57.5t-14.5 -64.5t-13 -59.5z" />
    <glyph glyph-name="uni1E8A" unicode="&#x1e8a;" horiz-adv-x="675" 
d="M539 538l-112 -117l136 -311q9 -19 22 -36l51 -72v-2h-313v2l60 61q11 11 5 26l-83 190l-124 -130q-11 -11 -12.5 -16.5t2.5 -14.5l49 -116v-2h-276v2l163 110q40 27 64 53l126 132l-129 296q-9 19 -22 36l-51 72v2h313v-2l-59 -61q-12 -12 -6 -26l76 -175l110 115
q11 11 13 16.5t-2 14.5l-51 116v2h277v-2l-162 -110q-43 -29 -65 -53zM467 905q32 0 52 -17.5t20 -47.5q0 -35 -24 -56.5t-60 -21.5q-31 0 -52 17.5t-21 47.5q0 35 25 56.5t60 21.5z" />
    <glyph glyph-name="uni1E8B" unicode="&#x1e8b;" horiz-adv-x="500" 
d="M349 141q12 -63 44 -63q45 0 78 98h2q-16 -85 -64.5 -134.5t-104.5 -49.5q-80 0 -101 102l-13 64q-11 -24 -24 -49q-34 -65 -61.5 -91t-63.5 -26q-40 0 -65 29l74 179h2l31 -71q10 -23 32 -23q15 0 30.5 13t22.5 23.5t19 30.5l-34 181q-12 63 -45 63q-45 0 -77 -96h-2
q16 84 64.5 133t104.5 49q81 0 101 -102l13 -67q5 10 13 26.5t11 22.5q34 66 62 93t64 27q40 0 65 -29l-73 -179h-2l-36 77q-8 17 -29 17q-28 0 -72 -70zM343 697q32 0 52 -17.5t20 -47.5q0 -35 -24 -56.5t-60 -21.5q-31 0 -52 17.5t-21 47.5q0 35 25 56.5t60 21.5z" />
    <glyph glyph-name="Ygrave" unicode="&#x1ef2;" horiz-adv-x="621" 
d="M583 543l-166 -238q-10 -13 -15 -38l-35 -171q-3 -17 5 -26l60 -68v-2h-337v2l87 68q13 11 16 26l31 154q4 14 0 25l-101 316q-7 23 -18 43l-36 67v2h312v-2l-74 -69q-11 -10 -8 -24l89 -306l170 247q8 11 8.5 16.5t-4.5 14.5l-61 121v2h250v-2l-138 -121
q-24 -21 -35 -37zM273 911h163l110 -165l-1 -1l-272 164v2z" />
    <glyph glyph-name="ygrave" unicode="&#x1ef3;" horiz-adv-x="485" 
d="M260 378q17 -63 27.5 -160t7.5 -193l2 -1q33 49 62 127q29 81 29 158q0 92 -49 148v2l157 44q-12 -143 -70.5 -283t-144.5 -244q-76 -93 -171.5 -152.5t-160.5 -59.5q-21 0 -32 6l56 167h2l105 -96q9 -9 19 -3q24 14 52 38q10 9 10 26v14q0 126 -18.5 253t-41.5 197
q-11 35 -29 35q-29 0 -61 -86h-2q11 79 51 133.5t96 54.5q24 0 41.5 -9.5t29 -30t18.5 -38t15 -47.5zM121 703h163l110 -165l-1 -1l-272 164v2z" />
    <glyph glyph-name="endash" unicode="&#x2013;" horiz-adv-x="500" 
d="M5 237v19h490v-19h-490z" />
    <glyph glyph-name="emdash" unicode="&#x2014;" horiz-adv-x="1000" 
d="M5 237v19h990v-19h-990z" />
    <glyph glyph-name="quoteleft" unicode="&#x2018;" horiz-adv-x="209" 
d="M189 597q20 -4 33 -20.5t13 -38.5q0 -31 -22 -52.5t-54 -21.5q-31 0 -50 20t-19 52q0 52 37.5 95t89.5 70q28 15 50 19v-2q-30 -16 -46 -32q-35 -37 -42 -74q-3 -12 10 -15z" />
    <glyph glyph-name="quoteright" unicode="&#x2019;" horiz-adv-x="208" 
d="M252 641q0 -95 -123 -163q-28 -16 -53 -22v2q24 12 46 34q32 33 41 73q3 13 -10 15q-19 4 -32 20.5t-13 38.5q0 31 22 52.5t53 21.5t50 -20t19 -52z" />
    <glyph glyph-name="quotesinglbase" unicode="&#x201a;" horiz-adv-x="208" 
d="M49 -9q3 13 -10 15q-19 5 -32 21t-13 38q0 32 22 53t53 21t50 -20t19 -52q0 -52 -37 -95t-88 -69q-33 -16 -51 -20v2q27 14 46 33q32 33 41 73z" />
    <glyph glyph-name="quotedblleft" unicode="&#x201c;" horiz-adv-x="394" 
d="M420 537q0 -32 -22 -53t-53 -21t-50.5 20t-19.5 52q0 52 37 95t88 69q33 16 52 20v-2q-30 -16 -47 -34q-34 -38 -41 -72q-2 -12 11 -15q19 -4 32 -20.5t13 -38.5zM234 537q0 -32 -22 -53t-53 -21t-50 20t-19 52q0 51 36 93t86 69q35 18 54 22v-2q-30 -15 -47 -35
q-31 -35 -40 -71q-3 -13 10 -15q20 -4 32.5 -20.5t12.5 -38.5z" />
    <glyph glyph-name="quotedblright" unicode="&#x201d;" horiz-adv-x="394" 
d="M163 565q3 13 -10 15q-19 4 -32 20.5t-13 38.5q0 31 22 52.5t53 21.5t50 -20t19 -52q0 -51 -36 -93.5t-87 -69.5q-28 -16 -53 -22v2q27 14 46 34q32 33 41 73zM349 565q3 13 -10 15q-20 4 -33 20.5t-13 38.5q0 31 22 52.5t54 21.5q31 0 50 -20t19 -52q0 -52 -36.5 -95
t-87.5 -69q-31 -15 -53 -21v2q27 14 47 34q32 33 41 73z" />
    <glyph glyph-name="quotedblbase" unicode="&#x201e;" horiz-adv-x="395" 
d="M49 -9q3 13 -10 15q-19 5 -32 21t-13 38q0 32 22 53t53 21t50 -20t19 -52q0 -51 -35.5 -93.5t-85.5 -68.5q-31 -16 -55 -22v2q29 15 48 37q30 32 39 69zM236 -9q2 12 -11 15q-19 5 -32 21t-13 38q0 32 22 53t53 21t50.5 -20t19.5 -52q0 -50 -35.5 -91t-86.5 -70
q-31 -17 -55 -23v2q34 20 47 35q35 39 41 71z" />
    <glyph glyph-name="dagger" unicode="&#x2020;" horiz-adv-x="429" 
d="M111 514v19h153l35 173l19 -3l-34 -170h148v-19h-152l-77 -384l-19 3l76 381h-149z" />
    <glyph glyph-name="daggerdbl" unicode="&#x2021;" horiz-adv-x="429" 
d="M389 301h-152l-34 -171l-19 3l33 168h-149v19h153l39 194h-149v19h153l35 173l19 -3l-34 -170h148v-19h-152l-39 -194h148v-19z" />
    <glyph glyph-name="bullet" unicode="&#x2022;" horiz-adv-x="344" 
d="M189 255q-44 0 -74 27.5t-30 71.5q0 46 33 78t79 32q44 0 74 -29t30 -72q0 -48 -32.5 -78t-79.5 -30z" />
    <glyph glyph-name="ellipsis" unicode="&#x2026;" horiz-adv-x="726" 
d="M82 -8q-31 0 -52 19t-21 49q0 37 25.5 62t60.5 25q32 0 53.5 -18.5t21.5 -49.5q0 -37 -26 -62t-62 -25zM320 -8q-31 0 -52 19t-21 49q0 38 25 62.5t61 24.5q32 0 53.5 -18.5t21.5 -49.5q0 -37 -26 -62t-62 -25zM558 -8q-31 0 -52 19t-21 49q0 37 25.5 62t60.5 25
q32 0 53.5 -18.5t21.5 -49.5q0 -37 -25.5 -62t-62.5 -25z" />
    <glyph glyph-name="perthousand" unicode="&#x2030;" horiz-adv-x="981" 
d="M289 698q-34 0 -58 -81.5t-24 -138.5q0 -49 29 -49q34 0 58 83t24 138q0 48 -29 48zM293 713q52 0 84 -32t32 -79q0 -84 -47.5 -136t-129.5 -52q-52 0 -84 32t-32 80q0 84 48 135.5t129 51.5zM488 275q-34 0 -58 -81.5t-24 -138.5q0 -49 29 -49q34 0 58 83t24 138
q0 48 -29 48zM492 290q52 0 84 -32t32 -79q0 -84 -47.5 -136t-129.5 -52q-51 0 -83.5 32.5t-32.5 79.5q0 84 48 135.5t129 51.5zM823 275q-34 0 -58 -81.5t-24 -138.5q0 -49 29 -49q34 0 58 83t24 138q0 48 -29 48zM827 290q52 0 84 -32t32 -79q0 -84 -47.5 -136t-129.5 -52
q-52 0 -84 32.5t-32 79.5q0 84 48 135.5t129 51.5zM693 701l-645 -711l-14 14l644 710z" />
    <glyph glyph-name="guilsinglleft" unicode="&#x2039;" horiz-adv-x="279" 
d="M29 252l272 230l1 -1l-142 -234l46 -225l-2 -1l-175 229v2z" />
    <glyph glyph-name="guilsinglright" unicode="&#x203a;" horiz-adv-x="279" 
d="M254 250l-271 -229l-2 1l143 233l-47 226l2 1l175 -230v-2z" />
    <glyph glyph-name="fraction" unicode="&#x2044;" horiz-adv-x="48" 
d="M363 701l-645 -711l-14 14l644 710z" />
    <glyph glyph-name="Euro" unicode="&#x20ac;" horiz-adv-x="670" 
d="M468 285h-189q-4 -39 -4 -89q0 -85 26.5 -136.5t79.5 -51.5h15q19 0 32 14l196 237h2l-50 -249q-101 -20 -212 -20q-129 0 -200.5 75.5t-71.5 200.5v19h-90v20h91q3 49 15 94h-83v20h89q41 132 144 213t244 81q117 0 213 -21l-51 -246h-2l-101 232q-7 17 -26 17h-17
q-67 0 -126 -76t-91 -200h190v-20h-194q-12 -51 -16 -94h187v-20z" />
    <glyph glyph-name="trademark" unicode="&#x2122;" horiz-adv-x="918" 
d="M525 452q0 -19 12 -34l45 -53v-2h-131v2l45 53q10 13 10 34v193q0 10 -6 16l-34 40v2h124l92 -201l82 201h121v-2l-33 -34q-4 -4 -4 -13v-247q0 -8 5 -13l32 -29v-2h-169v2l33 30q4 4 4 12v193q0 20 1 30l-109 -271h-1l-119 263v-170zM322 412q0 -10 5 -15l33 -32v-2
h-172v2l34 32q5 5 5 15v273h-24q-11 0 -17 -10l-64 -103h-2l8 131h292l8 -131h-2l-65 105q-5 8 -16 8h-23v-273z" />
    <glyph glyph-name="Omega" unicode="&#x2126;" horiz-adv-x="765" 
d="M746 445q0 -142 -93 -240.5t-251 -117.5l-14 -68h126q28 0 44 18l173 196h2l-66 -233h-303l21 102q41 8 76 60t56 121.5t33 139.5t12 122q0 150 -96 150q-52 0 -100.5 -67t-77 -169.5t-28.5 -205.5q0 -124 65 -150l-21 -103h-302l27 233h2l95 -196q8 -18 37 -18h125
l14 70q-109 15 -168.5 86t-59.5 171q0 155 111 261t275 106q128 0 207 -75.5t79 -192.5z" />
    <glyph glyph-name="estimated" unicode="&#x212e;" horiz-adv-x="664" 
d="M609 237h-508q3 -102 72.5 -165t170.5 -63q81 0 144 43t87 116l21 -7q-26 -79 -94.5 -125t-157.5 -46q-112 0 -188 70.5t-76 185.5q0 116 76 186.5t188 70.5q113 0 189 -70.5t76 -186.5v-9zM344 483q-100 0 -169.5 -62.5t-73.5 -164.5h487q-4 101 -74 164t-170 63z" />
    <glyph glyph-name="uni2153" unicode="&#x2153;" horiz-adv-x="520" 
d="M482 361v-19h-399v19h399zM390 718l-53 -257q-1 -7 4 -10l57 -30v-2h-236v2l69 30q8 3 9 10l38 183q2 8 -4 9l-65 18v2zM360 91q0 -48 -49 -72t-118 -24q-67 0 -116 20l75 98h2l16 -94q2 -8 11 -8h8q31 0 53.5 24.5t22.5 60.5q0 49 -63 55v2q36 3 59.5 27t23.5 62
q0 18 -9.5 27.5t-23.5 9.5h-7q-8 0 -14 -8l-64 -93h-2l-29 91q66 25 128 25q55 0 85.5 -18t30.5 -48q0 -32 -27 -50.5t-74 -22.5v-2q37 -2 59 -19t22 -43z" />
    <glyph glyph-name="uni2154" unicode="&#x2154;" horiz-adv-x="520" 
d="M487 361v-19h-399v19h399zM385 228q0 -32 -27 -50.5t-74 -22.5v-2q37 -2 59 -19t22 -43q0 -48 -49 -72t-118 -24q-67 0 -116 20l75 98h2l16 -94q2 -8 11 -8h8q31 0 53.5 24.5t22.5 60.5q0 49 -63 55v2q36 3 59.5 27t23.5 62q0 18 -9.5 27.5t-23.5 9.5h-7q-8 0 -14 -8
l-64 -93h-2l-29 91q66 25 128 25q55 0 85.5 -18t30.5 -48zM358 713q52 0 81.5 -19t29.5 -52q0 -50 -57.5 -88t-144.5 -63v-2h107q24 0 36 9l39 28h2l-40 -107h-250v2q33 25 101 83q35 29 54.5 47.5t38 49.5t18.5 60q0 37 -34 37h-5q-9 0 -14 -8l-66 -97h-2l-28 95
q63 25 134 25z" />
    <glyph glyph-name="uni2155" unicode="&#x2155;" horiz-adv-x="520" 
d="M85 361h399v-19h-399v19zM392 718l-53 -257q-1 -7 4 -10l57 -30v-2h-236v2l69 30q8 3 9 10l38 183q2 8 -4 9l-65 18v2zM172 224l-20 -70q50 30 104 30q47 0 74.5 -24t27.5 -60q0 -50 -45.5 -78t-119.5 -28q-67 0 -115 20l75 96h2l17 -92q1 -8 11 -8h9q30 0 49.5 24
t19.5 59q0 27 -18 42.5t-52 15.5q-24 0 -56 -18l-2 1l40 154q60 -5 101 -5q27 0 61 2q27 2 43 15l10 9h2q-9 -31 -14 -45q-9 -24 -18.5 -32.5t-29.5 -10.5q-17 -2 -74 -2q-53 0 -82 5z" />
    <glyph glyph-name="uni2156" unicode="&#x2156;" horiz-adv-x="520" 
d="M483 342h-399v19h399v-19zM375 264q-9 -24 -18.5 -32.5t-29.5 -10.5q-17 -2 -74 -2q-53 0 -82 5l-20 -70q50 30 104 30q47 0 74.5 -24t27.5 -60q0 -50 -45.5 -78t-119.5 -28q-67 0 -115 20l75 96h2l17 -92q1 -8 11 -8h9q30 0 49.5 24t19.5 59q0 27 -18 42.5t-52 15.5
q-24 0 -56 -18l-2 1l40 154q60 -5 101 -5q27 0 61 2q27 2 43 15l10 9h2q-9 -31 -14 -45zM354 713q52 0 81.5 -19t29.5 -52q0 -50 -57.5 -88t-144.5 -63v-2h107q24 0 36 9l39 28h2l-40 -107h-250v2q33 25 101 83q35 29 54.5 47.5t38 49.5t18.5 60q0 37 -34 37h-5q-9 0 -14 -8
l-66 -97h-2l-28 95q62 25 134 25z" />
    <glyph glyph-name="uni2157" unicode="&#x2157;" horiz-adv-x="520" 
d="M490 361v-19h-399v19h399zM382 264q-9 -24 -18.5 -32.5t-29.5 -10.5q-17 -2 -74 -2q-53 0 -82 5l-20 -70q50 30 104 30q47 0 74.5 -24t27.5 -60q0 -50 -45.5 -78t-119.5 -28q-67 0 -115 20l75 96h2l17 -92q1 -8 11 -8h9q30 0 49.5 24t19.5 59q0 27 -18 42.5t-52 15.5
q-24 0 -56 -18l-2 1l40 154q60 -5 101 -5q27 0 61 2q27 2 43 15l10 9h2q-9 -31 -14 -45zM452 510q0 -48 -49 -72t-118 -24q-67 0 -116 20l75 98h2l16 -94q2 -8 11 -8h8q31 0 53.5 24.5t22.5 60.5q0 49 -63 55v2q36 3 59.5 27t23.5 62q0 18 -9.5 27.5t-23.5 9.5h-7
q-8 0 -14 -8l-64 -93h-2l-29 91q66 25 128 25q55 0 85.5 -18t30.5 -48q0 -32 -27 -50.5t-74 -22.5v-2q37 -2 59 -19t22 -43z" />
    <glyph glyph-name="uni2158" unicode="&#x2158;" horiz-adv-x="520" 
d="M482 342h-399v19h399v-19zM446 490h-66l-7 -34q-1 -7 4 -10l33 -25v-2h-179v2l47 25q6 4 7 11l7 33h-141v2l206 216h67l-41 -203h10q10 0 17 8l62 81h2zM183 505h112l31 148zM356 100q0 -50 -45.5 -78t-119.5 -28q-67 0 -115 20l75 96h2l17 -92q1 -8 11 -8h9
q30 0 49.5 24t19.5 59q0 27 -18 42.5t-52 15.5q-24 0 -56 -18l-2 1l40 154q60 -5 101 -5q27 0 61 2q27 2 43 15l10 9h2q-9 -31 -14 -45q-9 -24 -18.5 -32.5t-29.5 -10.5q-17 -2 -74 -2q-53 0 -82 5l-20 -70q50 30 104 30q47 0 74.5 -24t27.5 -60z" />
    <glyph glyph-name="uni2159" unicode="&#x2159;" horiz-adv-x="520" 
d="M87 342v19h399v-19h-399zM213 673l181 45l-53 -257q-1 -7 4 -10l57 -30v-2h-236v2l69 30q8 3 9 10l38 183q2 8 -4 9l-65 18v2zM221 -5q-59 0 -92 31t-33 79q0 83 51.5 136t135.5 53q67 0 115 -15l-61 -83h-2l-34 76q-3 7 -12 7h-7q-56 0 -82 -125q38 28 83 28
q36 0 62 -20.5t26 -52.5q0 -48 -39 -81t-111 -33zM238 158q-20 0 -40 -15q-9 -48 -9 -84q0 -27 7.5 -37.5t24.5 -10.5q24 0 42 30t18 65q0 52 -43 52z" />
    <glyph glyph-name="uni215A" unicode="&#x215a;" horiz-adv-x="520" 
d="M486 361v-19h-399v19h399zM461 684q-9 -24 -18.5 -32.5t-29.5 -10.5q-17 -2 -74 -2q-53 0 -82 5l-20 -70q50 30 104 30q47 0 74.5 -24t27.5 -60q0 -50 -45.5 -78t-119.5 -28q-67 0 -115 20l74 96h2l18 -92q1 -8 11 -8h9q30 0 49.5 24t19.5 59q0 27 -18 42.5t-52 15.5
q-24 0 -56 -18l-2 1l40 154q60 -5 101 -5q27 0 61 2q27 2 43 15l10 9h2q-9 -31 -14 -45zM221 -5q-59 0 -92 31t-33 79q0 83 51.5 136t135.5 53q67 0 115 -15l-61 -83h-2l-34 76q-3 7 -12 7h-7q-56 0 -82 -125q38 28 83 28q36 0 62 -20.5t26 -52.5q0 -48 -39 -81t-111 -33z
M238 158q-20 0 -40 -15q-9 -48 -9 -84q0 -27 7.5 -37.5t24.5 -10.5q24 0 42 30t18 65q0 52 -43 52z" />
    <glyph glyph-name="uni215B" unicode="&#x215b;" horiz-adv-x="520" 
d="M483 342h-399v19h399v-19zM212 -5q-50 0 -83 19t-33 47q0 27 25 43.5t65 19.5q-52 25 -52 72q0 45 38.5 71.5t97.5 26.5q41 0 72.5 -17t31.5 -44q0 -55 -83 -59l16 -7q56 -25 56 -71q0 -48 -45 -74.5t-106 -26.5zM237 99l-44 21q-33 -21 -33 -56q0 -24 17 -39t43 -15
q23 0 42 12t19 34q0 23 -44 43zM209 236q0 -24 41 -43l34 -16q27 29 27 58q0 20 -13 32t-33 12q-24 0 -40 -12t-16 -31zM391 718l-53 -257q-1 -7 4 -10l57 -30v-2h-236v2l69 30q8 3 9 10l38 183q2 8 -4 9l-65 18v2z" />
    <glyph glyph-name="uni215C" unicode="&#x215c;" horiz-adv-x="520" 
d="M482 361v-19h-399v19h399zM211 -5q-50 0 -83 19t-33 47q0 27 25 43.5t65 19.5q-52 25 -52 72q0 45 38.5 71.5t97.5 26.5q41 0 72.5 -17t31.5 -44q0 -55 -83 -59l16 -7q56 -25 56 -71q0 -48 -45 -74.5t-106 -26.5zM236 99l-44 21q-33 -21 -33 -56q0 -24 17 -39t43 -15
q23 0 42 12t19 34q0 23 -44 43zM208 236q0 -24 41 -43l34 -16q27 29 27 58q0 20 -13 32t-33 12q-24 0 -40 -12t-16 -31zM444 510q0 -48 -49 -72t-118 -24q-67 0 -116 20l75 98h2l16 -94q2 -8 11 -8h8q31 0 53.5 24.5t22.5 60.5q0 49 -63 55v2q36 3 59.5 27t23.5 62
q0 18 -9.5 27.5t-23.5 9.5h-7q-8 0 -14 -8l-64 -93h-2l-29 91q66 25 128 25q55 0 85.5 -18t30.5 -48q0 -32 -27 -50.5t-74 -22.5v-2q37 -2 59 -19t22 -43z" />
    <glyph glyph-name="uni215D" unicode="&#x215d;" horiz-adv-x="520" 
d="M83 361v-19h399v19h-399zM211 -5q-50 0 -83 19t-33 47q0 27 25 43.5t65 19.5q-52 25 -52 72q0 45 38.5 71.5t97.5 26.5q41 0 72.5 -17t31.5 -44q0 -55 -83 -59l16 -7q56 -25 56 -71q0 -48 -45 -74.5t-106 -26.5zM236 99l-44 21q-33 -21 -33 -56q0 -24 17 -39t43 -15
q23 0 42 12t19 34q0 23 -44 43zM208 236q0 -24 41 -43l34 -16q27 29 27 58q0 20 -13 32t-33 12q-24 0 -40 -12t-16 -31zM457 684q-9 -24 -18.5 -32.5t-29.5 -10.5q-17 -2 -74 -2q-53 0 -82 5l-20 -70q50 30 104 30q47 0 74.5 -24t27.5 -60q0 -50 -45.5 -78t-119.5 -28
q-67 0 -115 20l75 96h2l17 -92q1 -8 11 -8h9q30 0 49.5 24t19.5 59q0 27 -18 42.5t-52 15.5q-24 0 -56 -18l-2 1l40 154q60 -5 101 -5q27 0 61 2q27 2 43 15l10 9h2q-9 -31 -14 -45z" />
    <glyph glyph-name="uni215E" unicode="&#x215e;" horiz-adv-x="520" 
d="M211 -5q-50 0 -83 19t-33 47q0 27 25 43.5t65 19.5q-52 25 -52 72q0 45 38.5 71.5t97.5 26.5q41 0 72.5 -17t31.5 -44q0 -55 -83 -59l16 -7q56 -25 56 -71q0 -48 -45 -74.5t-106 -26.5zM331 419h-124v2q80 98 216 221v2h-146q-25 0 -36 -10l-29 -24h-2l34 98h260v-2
l-49 -49q-15 -17 -16 -19q-42 -63 -108 -219zM236 99l-44 21q-33 -21 -33 -56q0 -24 17 -39t43 -15q23 0 42 12t19 34q0 23 -44 43zM83 342v19h399v-19h-399zM208 236q0 -24 41 -43l34 -16q27 29 27 58q0 20 -13 32t-33 12q-24 0 -40 -12t-16 -31z" />
    <glyph glyph-name="uni2190" unicode="&#x2190;" horiz-adv-x="706" 
d="M651 239h-556l226 -226l-15 -15l-251 251l251 251l16 -14l-227 -226h556v-21z" />
    <glyph glyph-name="uni2191" unicode="&#x2191;" horiz-adv-x="612" 
d="M316 -49h-21v556l-226 -227l-14 16l251 251l251 -251l-15 -15l-226 226v-556z" />
    <glyph glyph-name="uni2192" unicode="&#x2192;" horiz-adv-x="706" 
d="M55 260h556l-227 226l16 14l251 -251l-251 -251l-15 15l226 226h-556v21z" />
    <glyph glyph-name="uni2193" unicode="&#x2193;" horiz-adv-x="612" 
d="M295 530h21v-556l226 226l15 -15l-251 -251l-251 251l14 16l226 -227v556z" />
    <glyph glyph-name="uni2196" unicode="&#x2196;" horiz-adv-x="539" 
d="M471 31l-393 393v-319h-21v355h355v-21h-319l393 -394z" />
    <glyph glyph-name="uni2197" unicode="&#x2197;" horiz-adv-x="539" 
d="M482 105h-21v318l-393 -392l-15 14l394 394h-320v21h355v-355z" />
    <glyph glyph-name="uni2198" unicode="&#x2198;" horiz-adv-x="539" 
d="M54 446l15 14l393 -393v319h21v-355h-355v21h319z" />
    <glyph glyph-name="uni2199" unicode="&#x2199;" horiz-adv-x="539" 
d="M411 52v-21h-355v355h21v-320l393 394l15 -14l-392 -394h318z" />
    <glyph glyph-name="partialdiff" unicode="&#x2202;" horiz-adv-x="540" 
d="M214 -9q-92 0 -144 55t-52 148q0 120 72.5 210.5t162.5 90.5q74 0 104 -56q-2 117 -37 184t-119 88v2q8 0 30 -2q151 -14 221 -101.5t70 -228.5q0 -106 -34 -193t-105 -142t-169 -55zM215 10q34 0 67.5 73t53.5 169.5t21 174.5q-15 18 -42 18q-33 0 -60.5 -35
t-44.5 -88.5t-26.5 -111t-9.5 -107.5q0 -93 41 -93z" />
    <glyph glyph-name="Delta" unicode="&#x2206;" horiz-adv-x="582" 
d="M448 703l78 -703h-567v2l316 596q7 14 7.5 19.5t-6.5 15.5l-44 68v2h216zM292 588l-300 -568h362z" />
    <glyph glyph-name="product" unicode="&#x220f;" horiz-adv-x="752" 
d="M737 611l-107 -519q-3 -17 5 -27l53 -63v-2h-321v2l79 63q13 12 16 27l121 591h-231l-122 -591q-3 -17 4 -27l53 -63v-2h-320v2l79 63q13 12 16 27l106 519q3 17 -4 27l-54 63v2h721v-2l-79 -63q-11 -8 -15 -27z" />
    <glyph glyph-name="summation" unicode="&#x2211;" horiz-adv-x="584" 
d="M433 360l-444 -340h351q15 0 22 3t17 16l161 203h2l-48 -242h-555v2l340 266l-141 355q-7 19 -21 33l-44 44v3h551l-45 -239h-2l-88 200q-6 13 -11 16t-18 3h-157z" />
    <glyph glyph-name="minus" unicode="&#x2212;" horiz-adv-x="540" 
d="M70 314v19h440v-19h-440z" />
    <glyph glyph-name="uni2215" unicode="&#x2215;" horiz-adv-x="48" 
d="M363 701l-645 -711l-14 14l644 710z" />
    <glyph glyph-name="uni2219" unicode="&#x2219;" horiz-adv-x="242" 
d="M154 498q32 0 53.5 -19t21.5 -51q0 -36 -25 -60.5t-61 -24.5q-31 0 -52.5 20t-21.5 50q0 36 25 60.5t60 24.5z" />
    <glyph glyph-name="radical" unicode="&#x221a;" horiz-adv-x="540" 
d="M523 750l-263 -750h-2l-158 445l18 5l141 -393l245 698z" />
    <glyph glyph-name="infinity" unicode="&#x221e;" horiz-adv-x="768" 
d="M73 325q0 55 37.5 98t94.5 43q23 0 44 -6t43.5 -22.5t34.5 -26.5t39.5 -37.5t37.5 -36.5q8 8 37 36.5t40 38t34 26t43.5 22.5t44.5 6q57 0 94.5 -43t37.5 -98t-37.5 -98t-94.5 -43q-24 0 -44.5 6t-43 22.5t-35 27t-39.5 37t-37 36.5q-10 -9 -37.5 -36.5t-39.5 -37.5
t-34.5 -26.5t-43.5 -22.5t-44 -6q-57 0 -94.5 43t-37.5 98zM93 325q0 -48 31 -85t81 -37q21 0 40 5.5t40 20.5t32.5 25t37.5 36t36 35q-8 7 -36 35.5t-38 36.5t-32 24t-40.5 21t-39.5 5q-50 0 -81 -37t-31 -85zM603 203q50 0 81 37t31 85t-31 85t-81 37q-22 0 -40.5 -5.5
t-39 -20.5t-32.5 -25t-37.5 -35.5t-36.5 -35.5q11 -10 36.5 -35.5t37.5 -35.5t32.5 -25t39 -20.5t40.5 -5.5z" />
    <glyph glyph-name="integral" unicode="&#x222b;" horiz-adv-x="442" 
d="M104 68l56 322q10 55 21.5 98.5t32.5 87.5t48.5 72.5t68.5 46.5t93 18q69 0 119 -22l-70 -156h-2l-52 147q-3 9 -6 11t-11 2q-34 0 -55 -83q-9 -36 -27 -143l-53 -306q-11 -62 -26.5 -116t-40 -107.5t-55.5 -91t-74 -61t-94 -23.5q-58 0 -101 25l70 160h2l55 -151
q5 -12 12 -12q12 0 20 11q5 7 10 15.5t9.5 21t8 23t7.5 29t6.5 30.5t7 35t6.5 36t7 40t7 41z" />
    <glyph glyph-name="approxequal" unicode="&#x2248;" horiz-adv-x="540" 
d="M403 369q-46 0 -116.5 33t-110.5 33q-61 0 -97 -59l-16 11q40 67 113 67q46 0 116.5 -33t110.5 -33q60 0 96 58l17 -10q-40 -67 -113 -67zM403 191q-46 0 -116.5 33t-110.5 33q-61 0 -97 -59l-16 11q40 67 113 67q46 0 116.5 -33t110.5 -33q60 0 96 58l17 -10
q-40 -67 -113 -67z" />
    <glyph glyph-name="notequal" unicode="&#x2260;" horiz-adv-x="540" 
d="M70 404v19h264l56 101l17 -10l-51 -91h154v-19h-164l-89 -160h253v-19h-264l-59 -107l-17 10l54 97h-154v19h164l89 160h-253z" />
    <glyph glyph-name="lessequal" unicode="&#x2264;" horiz-adv-x="540" 
d="M91 374l389 129l6 -19l-339 -111l339 -111l-6 -19l-389 129v2zM70 102v19h440v-19h-440z" />
    <glyph glyph-name="greaterequal" unicode="&#x2265;" horiz-adv-x="540" 
d="M100 503l389 -129v-2l-389 -129l-6 19l339 111l-339 111zM510 121v-19h-440v19h440z" />
    <glyph glyph-name="lozenge" unicode="&#x25ca;" horiz-adv-x="540" 
d="M510 324l-219 -405h-2l-219 405l219 405h2zM290 688l-197 -364l197 -364l197 364z" />
    <glyph glyph-name="commaaccent" unicode="&#xf6c3;" horiz-adv-x="257" 
d="M116 -160q-17 0 -30 13t-13 37q0 30 21 51t51 21q27 0 44 -16.5t17 -44.5q0 -44 -32 -84t-80 -62q-27 -13 -44 -15v2q28 13 46 35q19 23 26 53q2 10 -6 10z" />
    <glyph glyph-name="apple" unicode="&#xf8ff;" horiz-adv-x="1254" 
d="M666 341q-11 0 -41 1.5t-39 1.5q-53 0 -83 -24.5t-53 -75.5q-26 -57 -63.5 -88.5t-101.5 -31.5q-13 0 -42.5 2t-40.5 2q-57 0 -92.5 -30.5t-35.5 -75.5q0 -16 1 -22h-19q-1 7 -1 22q0 54 41.5 89.5t106.5 35.5q12 0 42.5 -2t40.5 -2q102 0 147 109q46 111 153 111
q11 0 41 -1.5t39 -1.5q52 0 83 25t54 76q26 56 63 87t101 31q13 0 42.5 -2t40.5 -2q56 0 93 31.5t37 74.5q0 16 -1 22h19q1 -7 1 -22q0 -53 -42.5 -89t-107.5 -36q-12 0 -42.5 2t-40.5 2q-55 0 -89 -27t-57 -80q-47 -112 -154 -112z" />
    <glyph glyph-name="Iacute_Jacute" horiz-adv-x="704" 
d="M234 92q-3 -17 4 -27l53 -63v-2h-320v2l79 63q12 9 16 27l106 519q3 17 -4 27l-54 63v2h321v-2l-79 -63q-11 -9 -15 -27zM236 747l-1 1l109 165h164v-2zM591 747l-1 1l109 165h164v-2zM695 611l-107 -516q-60 -294 -365 -306v2q148 69 189 264l114 556q4 18 -4 27l-54 63
v2h321v-2l-79 -63q-11 -9 -15 -27z" />
    <glyph glyph-name="Jacute" horiz-adv-x="327" 
d="M232 752l-1 1l109 165h164v-2zM327 611l-107 -516q-60 -294 -365 -306v2q148 69 189 264l114 556q4 18 -4 27l-54 63v2h321v-2l-79 -63q-11 -9 -15 -27z" />
    <glyph glyph-name="caronslovak" horiz-adv-x="262" 
d="M50 508l43 195h119v-2l-160 -193h-2z" />
    <glyph glyph-name="commatop" horiz-adv-x="257" 
d="M134 689q-2 -10 6 -11q43 -6 43 -49q0 -30 -21.5 -51t-51.5 -21q-26 0 -43 16.5t-17 44.5q0 42 29.5 79t75.5 62q30 16 51 20v-2q-33 -18 -49 -39q-18 -23 -23 -49z" />
    <glyph glyph-name="jacute" horiz-adv-x="279" 
d="M-123 -236q-58 0 -99 25l70 159h2l54 -151q4 -11 13 -11t17 6q50 38 99 271l75 365q4 20 -12 28l-58 29v2l239 16l-81 -352q-14 -63 -30 -113t-43 -103.5t-59.5 -89t-80.5 -58.5t-106 -23zM119 537l-1 1l109 165h164v-2z" />
    <glyph glyph-name="smiley" horiz-adv-x="794" 
d="M392 -4q-155 0 -249 89t-94 229q0 163 115.5 278t276.5 115q149 0 244.5 -88.5t95.5 -230.5q0 -164 -111.5 -278t-277.5 -114zM392 15q157 0 263 108t106 264q0 134 -89 217.5t-230 83.5q-152 0 -262.5 -108t-110.5 -264q0 -133 88 -217t235 -84zM398 83
q-100 0 -165.5 54t-66.5 135h-2q-33 0 -35 36l2 1q11 -16 33 -16q41 0 59 30h2q-6 -40 -40 -49q2 -76 60.5 -124t154.5 -48q88 0 147.5 47t74.5 124q-31 4 -31 32q0 7 3 18h2q3 -30 45 -30q23 0 39 16l2 -1q-14 -32 -40 -36q-16 -85 -83.5 -137t-160.5 -52zM489 456
q15 73 31.5 116.5t27.5 43.5q10 0 10 -31q0 -42 -18 -129q-32 -154 -58 -154q-9 0 -9 32q0 43 16 122zM326 456q15 74 31.5 117t28.5 43q9 0 9 -31q0 -42 -18 -129q-14 -70 -30.5 -112t-26.5 -42t-10 33q0 44 16 121z" />
    <glyph glyph-name="backslash.case" horiz-adv-x="380" 
d="M253 -95l-117 886l19 4l117 -886z" />
    <glyph glyph-name="bar.case" horiz-adv-x="220" 
d="M28 -198l-18 4l202 996l19 -4z" />
    <glyph glyph-name="braceleft.case" horiz-adv-x="353" 
d="M55 343v2q37 5 63.5 26t30.5 50l24 181q6 51 27.5 87.5t52.5 55t63.5 26.5t69.5 8q27 0 62 -7v-2q-68 2 -109 -43t-48 -99l-23 -173q-6 -43 -39 -72.5t-84 -37.5v-2q46 -10 67 -40.5t10 -71.5l-47 -171q-15 -56 6.5 -99t91.5 -42v-2q-37 -7 -64 -7q-74 0 -119 48.5
t-23 127.5l50 178q9 30 -9 52t-53 27z" />
    <glyph glyph-name="braceright.case" horiz-adv-x="353" 
d="M335 345v-2q-37 -5 -63.5 -25.5t-30.5 -49.5l-24 -181q-8 -67 -43.5 -108.5t-77 -55t-92.5 -13.5q-27 0 -62 7v2q68 -1 109 43.5t48 98.5l22 174q5 43 39 72t85 36v2q-47 10 -68 41t-10 73l48 171q15 55 -6.5 98.5t-91.5 41.5v2q37 7 64 7q74 0 119 -48.5t23 -127.5
l-50 -178q-9 -30 9 -52.5t53 -27.5z" />
    <glyph glyph-name="bracketleft.case" horiz-adv-x="364" 
d="M275 693l-143 -697q-2 -9 -0.5 -11.5t8.5 -5.5l144 -53v-2l-269 -12l176 865l264 -12v-2l-165 -53q-9 -3 -11.5 -5.5t-3.5 -11.5z" />
    <glyph glyph-name="bracketright.case" horiz-adv-x="364" 
d="M129 -4l143 697q2 9 0.5 11.5t-9.5 5.5l-144 53v2l269 12l-176 -865l-264 12v2l166 53q9 3 11.5 5.5t3.5 11.5z" />
    <glyph glyph-name="emdash.case" horiz-adv-x="1000" 
d="M25 332v19h990v-19h-990z" />
    <glyph glyph-name="endash.case" horiz-adv-x="500" 
d="M25 332v19h490v-19h-490z" />
    <glyph glyph-name="exclamdown.case" horiz-adv-x="306" 
d="M206 484l19 -484h-235l214 484h2zM229 556q-33 0 -54.5 19t-21.5 51q0 36 25.5 60.5t61.5 24.5q31 0 52 -20t21 -50q0 -36 -24.5 -60.5t-59.5 -24.5z" />
    <glyph glyph-name="guillemotleft.case" horiz-adv-x="462" 
d="M48 339l271 229l2 -1l-143 -233l47 -226l-2 -1l-175 230v2zM235 339l271 229l2 -1l-142 -233l46 -226l-2 -1l-175 230v2z" />
    <glyph glyph-name="guillemotright.case" horiz-adv-x="466" 
d="M272 337l-271 -230l-2 1l142 234l-46 225l2 1l175 -229v-2zM458 337l-271 -230l-2 1l142 234l-46 225l2 1l175 -229v-2z" />
    <glyph glyph-name="guilsinglleft.case" horiz-adv-x="279" 
d="M48 339l271 229l2 -1l-143 -233l47 -226l-2 -1l-175 230v2z" />
    <glyph glyph-name="guilsinglright.case" horiz-adv-x="279" 
d="M272 337l-271 -230l-2 1l142 234l-46 225l2 1l175 -229v-2z" />
    <glyph glyph-name="hyphen.case" horiz-adv-x="351" 
d="M66 332v20h260v-20h-260z" />
    <glyph glyph-name="parenleft.case" horiz-adv-x="340" 
d="M280 717q66 51 158 71l1 -2q-61 -42 -111 -109q-73 -96 -113.5 -238t-40.5 -268q0 -185 84 -272l-2 -2q-192 95 -192 333q0 154 56 280.5t160 206.5z" />
    <glyph glyph-name="parenright.case" horiz-adv-x="340" 
d="M314 462q0 -155 -56 -281.5t-159 -205.5q-65 -50 -159 -71l-1 2q70 49 131 141q63 96 99 227.5t36 246.5q0 185 -84 272l2 2q191 -95 191 -333z" />
    <glyph glyph-name="questiondown.case" horiz-adv-x="491" 
d="M231 -10q-99 0 -156 39t-57 111q0 41 17.5 75t48.5 59t61.5 43t68.5 38.5t57 34.5q31 23 38 43q7 19 3 37l1 2q30 -1 53.5 -26t23.5 -56q0 -33 -22 -62.5t-53 -52t-62.5 -46.5t-53.5 -56.5t-22 -70.5q0 -39 17 -66t53 -27q10 0 17 1q20 3 29 16l124 196h2l43 -179
q-117 -53 -231 -53zM362 556q-32 0 -53.5 19t-21.5 51q0 36 25 60.5t61 24.5q31 0 52.5 -20t21.5 -50q0 -36 -25 -60.5t-60 -24.5z" />
    <glyph glyph-name="slash.case" horiz-adv-x="380" 
d="M453 787l-472 -882l-16 11l471 880z" />
    <glyph glyph-name="braceleft.salt" horiz-adv-x="245" 
d="M139 238q0 -24 -16 -58l-76 -155q-24 -50 -24 -83q0 -64 83 -64q20 0 53 7v-19q-33 -7 -55 -7q-101 0 -101 80q0 42 26 92l73 149q17 34 17 54q0 49 -78 49l3 19q57 1 80.5 23.5t23.5 63.5q0 8 -1 16l-15 149q-2 18 -2 34q0 66 40 102t105 36q21 0 51 -7l-6 -18
q-26 6 -51 6q-52 0 -85.5 -30.5t-33.5 -86.5q0 -8 2 -30l15 -155q1 -10 1 -17q0 -39 -21 -64.5t-55 -30.5v-2q47 -10 47 -53z" />
    <glyph glyph-name="braceright.salt" horiz-adv-x="245" 
d="M131 -3q0 -66 -40 -102t-105 -36q-21 0 -51 7l6 18q26 -6 51 -6q52 0 85.5 30.5t33.5 86.5q0 8 -2 30l-15 155q-1 10 -1 17q0 39 21 64t55 30v2q-47 10 -47 54q0 24 16 58l76 155q24 50 24 83q0 64 -83 64q-20 0 -53 -7v19q33 7 55 7q101 0 101 -80q0 -38 -26 -92
l-73 -149q-17 -34 -17 -54q0 -49 78 -49l-3 -19q-57 -1 -80.5 -23.5t-23.5 -63.5q0 -8 1 -16l15 -149q2 -18 2 -34z" />
    <glyph glyph-name="bracketleft.salt" horiz-adv-x="257" 
d="M166 -118v-19h-165l175 859h163v-19h-146l-168 -821h141z" />
    <glyph glyph-name="bracketright.salt" horiz-adv-x="257" 
d="M104 703v19h166l-175 -859h-162v19h146l167 821h-142z" />
    <glyph glyph-name="guillemotleft.salt" horiz-adv-x="424" 
d="M30 253l241 230l13 -15l-229 -218l140 -217l-15 -11zM190 253l241 230l13 -15l-229 -218l140 -217l-15 -11z" />
    <glyph glyph-name="guillemotright.salt" horiz-adv-x="424" 
d="M396 251l-241 -230l-13 15l229 218l-140 217l15 11zM236 251l-241 -230l-13 15l229 218l-140 217l15 11z" />
    <glyph glyph-name="guilsinglleft.salt" horiz-adv-x="264" 
d="M30 254l241 230l13 -15l-229 -218l140 -216l-15 -12z" />
    <glyph glyph-name="guilsinglright.salt" horiz-adv-x="264" 
d="M236 250l-241 -230l-13 15l229 218l-140 216l15 12z" />
    <glyph glyph-name="parenleft.salt" horiz-adv-x="278" 
d="M64 320q22 127 97.5 244.5t183.5 169.5l6 -16q-105 -55 -176 -166.5t-92 -235.5q-8 -47 -8 -108q0 -96 30.5 -187.5t94.5 -157.5l-13 -15q-66 68 -99 164t-33 200q0 56 9 108z" />
    <glyph glyph-name="parenright.salt" horiz-adv-x="278" 
d="M234 263q-22 -127 -97.5 -244.5t-183.5 -169.5l-6 16q105 55 176 166.5t92 235.5q8 47 8 108q0 96 -30.5 187.5t-94.5 157.5l13 15q66 -68 99 -164t33 -200q0 -55 -9 -108z" />
    <glyph glyph-name="braceleft.salt.case" horiz-adv-x="245" 
d="M146 290q0 -24 -16 -58l-76 -155q-24 -50 -24 -83q0 -31 22 -47.5t61 -16.5q20 0 53 7v-19q-33 -7 -55 -7q-101 0 -101 80q0 38 26 92l73 149q17 34 17 54q0 49 -78 49l3 20q57 1 80.5 23.5t23.5 62.5q0 8 -1 16l-15 149q-2 18 -2 34q0 66 40 102t105 36q21 0 51 -7
l-6 -18q-20 6 -51 6q-52 0 -85.5 -30.5t-33.5 -86.5q0 -8 2 -30l15 -155q1 -10 1 -17q0 -39 -21 -64.5t-55 -30.5v-2q47 -10 47 -53z" />
    <glyph glyph-name="braceright.salt.case" horiz-adv-x="245" 
d="M227 355l-3 -20q-57 -1 -80.5 -23.5t-23.5 -62.5q0 -8 1 -16l15 -149q2 -18 2 -34q0 -66 -40 -102t-105 -36q-21 0 -51 7l6 18q26 -6 51 -6q52 0 85.5 30.5t33.5 86.5q0 8 -2 30l-15 155q-1 10 -1 17q0 39 21 64t55 30v2q-47 10 -47 54q0 24 16 58l76 155q24 50 24 83
q0 31 -22 47.5t-61 16.5q-20 0 -53 -7v19q33 7 55 7q101 0 101 -80q0 -38 -26 -92l-73 -149q-17 -34 -17 -54q0 -49 78 -49z" />
    <glyph glyph-name="bracketleft.salt.case" horiz-adv-x="257" 
d="M174 -68v-19h-165l175 859h163v-19h-146l-168 -821h141z" />
    <glyph glyph-name="bracketright.salt.case" horiz-adv-x="257" 
d="M115 753v19h165l-175 -859h-163v19h146l168 821h-141z" />
    <glyph glyph-name="guillemotleft.salt.case" horiz-adv-x="424" 
d="M47 343l242 230l13 -15l-229 -218l140 -217l-16 -11zM207 343l242 230l13 -15l-229 -218l140 -217l-16 -11z" />
    <glyph glyph-name="guillemotright.salt.case" horiz-adv-x="424" 
d="M415 341l-242 -230l-13 15l229 218l-140 217l16 11zM255 341l-242 -230l-13 15l229 218l-140 217l16 11z" />
    <glyph glyph-name="guilsinglleft.salt.case" horiz-adv-x="264" 
d="M47 343l242 230l13 -15l-229 -218l140 -217l-16 -11z" />
    <glyph glyph-name="guilsinglright.salt.case" horiz-adv-x="264" 
d="M255 341l-242 -230l-13 15l229 218l-140 217l16 11z" />
    <glyph glyph-name="parenleft.salt.case" horiz-adv-x="278" 
d="M72 371q22 127 97.5 244.5t183.5 169.5l6 -17q-105 -55 -176 -166t-92 -235q-8 -47 -8 -108q0 -96 30 -188.5t94 -157.5l-12 -14q-66 68 -99 164t-33 200q0 55 9 108z" />
    <glyph glyph-name="parenright.salt.case" horiz-adv-x="278" 
d="M241 315q-22 -127 -97.5 -244.5t-183.5 -169.5l-6 17q105 55 176 166t92 235q8 47 8 108q0 96 -30 188.5t-94 157.5l12 14q66 -68 99 -164t33 -200q0 -55 -9 -108z" />
    <glyph glyph-name="eight.subs" 
d="M108 -5q-50 0 -83 19t-33 47q0 27 25 43.5t65 19.5q-52 25 -52 72q0 45 38.5 71.5t97.5 26.5q41 0 72.5 -17t31.5 -44q0 -55 -83 -59l16 -7q56 -25 56 -71q0 -48 -45 -74.5t-106 -26.5zM133 99l-44 21q-33 -21 -33 -56q0 -24 17 -39t43 -15q23 0 42 12t19 34q0 23 -44 43
zM105 236q0 -24 41 -43l34 -16q27 29 27 58q0 20 -13 32t-33 12q-24 0 -40 -12t-16 -31z" />
    <glyph glyph-name="five.subs" 
d="M88 -6q-67 0 -115 20l75 96h2l17 -92q1 -8 11 -8h9q30 0 49.5 24t19.5 59q0 27 -18 42.5t-52 15.5q-24 0 -56 -18l-2 1l40 154q60 -5 101 -5q10 0 61 3q29 2 43 14l10 9h2q-9 -31 -14 -45q-9 -24 -18.5 -32.5t-29.5 -10.5q-17 -2 -74 -2q-53 0 -82 5l-20 -70
q50 30 104 30q47 0 74.5 -24t27.5 -60q0 -50 -45.5 -78t-119.5 -28z" />
    <glyph glyph-name="four.subs" 
d="M260 71h-66l-7 -34q-1 -6 4 -10l33 -25v-2h-179v2l47 25q6 3 7 11l7 33h-141v2l206 216h67l-41 -203h10q10 0 17 8l62 81h2zM-3 86h112l31 148z" />
    <glyph glyph-name="nine.subs" 
d="M106 11q54 0 82 124q-39 -28 -83 -28q-36 0 -61.5 21t-25.5 53q0 47 39 80t111 33q58 0 91 -31t33 -79q0 -82 -51.5 -135.5t-135.5 -53.5q-67 0 -115 15l60 84h2l35 -77q4 -6 12 -6h7zM167 279q-24 0 -42 -30.5t-18 -64.5q0 -52 43 -52q20 0 40 14q9 48 9 84
q0 27 -7.5 38t-24.5 11z" />
    <glyph glyph-name="one.subs" horiz-adv-x="266" 
d="M210 2v-2h-236v2l69 30q8 3 9 10l38 183q2 8 -4 9l-65 18v2l181 45l-53 -257q-1 -7 4 -10z" />
    <glyph glyph-name="parenleft.subs" horiz-adv-x="209" 
d="M92 68q0 -83 45 -134l-1 -2q-133 45 -133 164q0 23 5 51q30 156 209 196v-2q-93 -63 -117 -198q-8 -42 -8 -75z" />
    <glyph glyph-name="parenright.subs" horiz-adv-x="208" 
d="M91 207q0 85 -44 134l1 2q133 -45 133 -164q0 -23 -5 -51q-30 -156 -209 -196v2q93 63 117 198q7 36 7 75z" />
    <glyph glyph-name="seven.subs" 
d="M142 0h-124v2q80 98 216 221v2h-146q-25 0 -36 -10l-29 -24h-2l34 98h260v-2l-49 -49q-15 -18 -16 -19q-42 -63 -108 -219z" />
    <glyph glyph-name="six.subs" 
d="M117 -5q-59 0 -92 31t-33 79q0 83 51.5 136t135.5 53q67 0 115 -15l-61 -83h-2l-34 76q-3 7 -12 7h-7q-56 0 -82 -125q38 28 83 28q36 0 62 -20.5t26 -52.5q0 -48 -39 -81t-111 -33zM134 158q-20 0 -40 -15q-9 -48 -9 -84q0 -27 7.5 -37.5t24.5 -10.5q24 0 42 30t18 65
q0 52 -43 52z" />
    <glyph glyph-name="three.subs" 
d="M257 91q0 -48 -49 -72t-118 -24q-67 0 -116 20l75 98h2l16 -94q2 -8 11 -8h8q31 0 53.5 24.5t22.5 60.5q0 49 -63 55v2q36 3 59.5 27t23.5 62q0 18 -9.5 27.5t-23.5 9.5h-7q-8 0 -14 -8l-64 -93h-2l-29 91q66 25 128 25q55 0 85.5 -18t30.5 -48q0 -32 -27 -50.5
t-74 -22.5v-2q37 -2 59 -19t22 -43z" />
    <glyph glyph-name="two.subs" 
d="M165 294q52 0 81.5 -19t29.5 -52q0 -50 -57.5 -88t-144.5 -63v-2h107q24 0 36 9l39 28h2l-40 -107h-250v2q33 25 101 83q35 29 54.5 47.5t38 49.5t18.5 60q0 37 -34 37h-5q-9 0 -14 -8l-66 -97h-2l-28 95q62 25 134 25z" />
    <glyph glyph-name="zero.subs" 
d="M163 276q-34 0 -58 -81.5t-24 -138.5q0 -49 29 -49q34 0 58 83t24 138q0 48 -29 48zM167 291q52 0 84 -32t32 -79q0 -84 -47.5 -136t-129.5 -52q-52 0 -84 32t-32 80q0 84 48 135.5t129 51.5z" />
    <glyph glyph-name="eight.sups" 
d="M193 414q-50 0 -83 19t-33 47q0 27 25 43.5t65 19.5q-52 25 -52 72q0 45 38.5 71.5t97.5 26.5q41 0 72.5 -17t31.5 -44q0 -55 -83 -59l16 -7q56 -25 56 -71q0 -48 -45 -74.5t-106 -26.5zM218 518l-44 21q-33 -21 -33 -56q0 -24 17 -39t43 -15q23 0 42 12t19 34
q0 23 -44 43zM190 655q0 -24 41 -43l34 -16q27 29 27 58q0 20 -13 32t-33 12q-24 0 -40 -12t-16 -31z" />
    <glyph glyph-name="five.sups" 
d="M170 414q-67 0 -115 20l75 96h2l17 -92q1 -8 11 -8h9q30 0 49.5 24t19.5 59q0 27 -18 42.5t-52 15.5q-24 0 -56 -18l-2 1l40 154q60 -5 101 -5q10 0 61 3q29 2 43 14l10 9h2q-9 -31 -14 -45q-9 -24 -18.5 -32.5t-29.5 -10.5q-17 -2 -74 -2q-53 0 -82 5l-20 -70
q50 30 104 30q47 0 74.5 -24t27.5 -60q0 -50 -45.5 -78t-119.5 -28z" />
    <glyph glyph-name="four.sups" 
d="M342 490h-66l-7 -34q-1 -6 4 -10l33 -25v-2h-179v2l47 25q6 3 7 11l7 33h-141v2l206 216h67l-41 -203h10q10 0 17 8l62 81h2zM79 505h112l31 148z" />
    <glyph glyph-name="nine.sups" 
d="M182 430q54 0 82 124q-39 -28 -83 -28q-36 0 -61.5 21t-25.5 53q0 47 39 80t111 33q58 0 91 -31t33 -79q0 -82 -51.5 -135.5t-135.5 -53.5q-67 0 -115 15l60 84h2l35 -77q4 -6 12 -6h7zM243 698q-24 0 -42 -30.5t-18 -64.5q0 -52 43 -52q20 0 40 14q9 48 9 84
q0 27 -7.5 38t-24.5 11z" />
    <glyph glyph-name="one.sups" horiz-adv-x="266" 
d="M294 421v-2h-236v2l69 30q8 3 9 10l38 183q2 8 -4 9l-65 18v2l181 45l-53 -257q-1 -7 4 -10z" />
    <glyph glyph-name="parenleft.sups" horiz-adv-x="207" 
d="M173 491q0 -83 45 -134l-1 -2q-133 45 -133 164q0 23 5 51q30 156 209 196v-2q-50 -34 -77 -81t-40 -117q-8 -42 -8 -75z" />
    <glyph glyph-name="parenright.sups" horiz-adv-x="207" 
d="M172 630q0 84 -44 134l1 2q133 -45 133 -164q0 -23 -5 -51q-30 -156 -209 -196v2q93 63 117 198q7 36 7 75z" />
    <glyph glyph-name="seven.sups" 
d="M227 419h-124v2q80 98 216 221v2h-146q-25 0 -36 -10l-29 -24h-2l34 98h260v-2l-49 -49q-15 -17 -16 -19q-42 -63 -108 -219z" />
    <glyph glyph-name="six.sups" 
d="M200 414q-59 0 -92 31t-33 79q0 83 51.5 136t135.5 53q67 0 115 -15l-61 -83h-2l-34 76q-3 7 -12 7h-7q-56 0 -82 -125q38 28 83 28q36 0 62 -20.5t26 -52.5q0 -48 -39 -81t-111 -33zM217 577q-20 0 -40 -15q-9 -48 -9 -84q0 -27 7.5 -37.5t24.5 -10.5q24 0 42 30t18 65
q0 52 -43 52z" />
    <glyph glyph-name="three.sups" 
d="M340 510q0 -48 -49 -72t-118 -24q-67 0 -116 20l75 98h2l16 -94q2 -8 11 -8h8q31 0 53.5 24.5t22.5 60.5q0 49 -63 55v2q36 3 59.5 27t23.5 62q0 18 -9.5 27.5t-23.5 9.5h-7q-8 0 -14 -8l-64 -93h-2l-29 91q66 25 128 25q55 0 85.5 -18t30.5 -48q0 -32 -27 -50.5
t-74 -22.5v-2q37 -2 59 -19t22 -43z" />
    <glyph glyph-name="two.sups" 
d="M249 713q52 0 81.5 -19t29.5 -52q0 -50 -57.5 -88t-144.5 -63v-2h107q24 0 36 9l39 28h2l-40 -107h-250v2q33 25 101 83q35 29 54.5 47.5t38 49.5t18.5 60q0 37 -34 37h-5q-9 0 -14 -8l-66 -97h-2l-28 95q63 25 134 25z" />
    <glyph glyph-name="zero.sups" 
d="M248 698q-34 0 -58 -81.5t-24 -138.5q0 -49 29 -49q34 0 58 83t24 138q0 48 -29 48zM252 713q52 0 84 -32t32 -79q0 -84 -47.5 -136t-129.5 -52q-51 0 -83.5 32t-32.5 80q0 84 48 135.5t129 51.5z" />
    <glyph glyph-name="i.trk" horiz-adv-x="299" 
d="M126 -8q-42 0 -63 25.5t-21 63.5q0 31 11 75l69 271q6 21 -8 28l-61 30v2l240 16l-87 -345q-11 -41 -11 -60q0 -24 20 -24t38 22q27 34 42 85h2q-12 -78 -60.5 -133.5t-110.5 -55.5zM249 701q32 0 53.5 -19t21.5 -50q0 -36 -25 -58.5t-63 -22.5q-32 0 -54.5 18t-22.5 50
q0 36 26.5 59t63.5 23z" />
    </font>
</defs>
</svg>
