<svg width="24" height="24" viewBox="0 0 24 24" fill="none" xmlns="http://www.w3.org/2000/svg">
<path d="M12 24C18.6275 24 24 18.6275 24 12C24 5.37259 18.6275 0 12 0C5.37259 0 0 5.37259 0 12C0 18.6275 5.37259 24 12 24Z" fill="#22996E"/>
<path d="M12.0001 17.3463H5.43281C4.54334 17.3463 4.00568 16.3629 4.48578 15.6141L8.22217 9.78669C8.49798 9.35649 8.97386 9.09631 9.48492 9.09631H14.5153C15.0264 9.09631 15.5023 9.35649 15.778 9.78669L19.5144 15.6141C19.9945 16.3629 19.4569 17.3463 18.5675 17.3463H12.0001Z" fill="white"/>
<path d="M12.6711 3.94136L14.2404 6.33921C14.5668 6.83804 14.2089 7.49992 13.6128 7.49992H10.4157C9.81378 7.49992 9.45708 6.82664 9.79514 6.32864L11.4231 3.93079C11.7237 3.48797 12.3781 3.49352 12.6711 3.94136Z" fill="white"/>
</svg>
