<svg width="24" height="24" viewBox="0 0 24 24" fill="none" xmlns="http://www.w3.org/2000/svg">
<path d="M12 22.5C17.5228 22.5 22 18.0228 22 12.5C22 6.97715 17.5228 2.5 12 2.5C6.47715 2.5 2 6.97715 2 12.5C2 18.0228 6.47715 22.5 12 22.5Z" fill="white"/>
<path d="M10.3286 1.11338C4.93793 2.06963 1.01919 6.64463 1.00044 12.0259C0.991062 13.3758 1.13169 14.3414 1.49731 15.504C2.53793 18.7946 5.14419 21.4946 8.39731 22.6665C9.97231 23.229 12.2973 23.454 13.9192 23.1914C18.9067 22.3853 22.6941 18.4477 23.3223 13.4134C23.4536 12.3728 23.4441 11.6884 23.2755 10.5821C22.8817 7.97588 21.7848 5.87588 19.8441 4.029C18.3911 2.65088 16.8723 1.81651 14.8099 1.29151C13.6567 0.991508 11.5098 0.907133 10.3286 1.11338ZM7.61919 5.76339C7.98481 6.129 8.43481 6.55088 8.63168 6.71026L8.98793 7.00088L9.44731 6.74776C10.9661 5.92276 13.4504 5.94151 14.9504 6.78526L15.4567 7.07588L16.4036 6.08214C16.9192 5.53839 17.3692 5.09776 17.4067 5.09776C17.4348 5.10714 17.866 5.48214 18.3536 5.94151L19.2441 6.77588L18.2223 7.79776L17.2099 8.829L17.5004 9.41963C17.9036 10.254 18.0817 11.0134 18.0817 11.9415C18.0911 13.0103 17.9317 13.7602 17.5192 14.6134L17.1723 15.3258L18.2317 16.329L19.3004 17.3321L18.4941 18.204C18.0441 18.6728 17.6317 19.0665 17.566 19.0665C17.5004 19.0665 17.3036 18.9165 17.1255 18.729C16.9567 18.5414 16.4785 18.1009 16.0848 17.7446L15.3629 17.0884L14.8099 17.3696C13.9941 17.7821 13.1879 17.9602 12.1661 17.9602C11.1161 17.9602 10.3004 17.7728 9.47544 17.3414L8.89419 17.0321L7.84419 18.0914L6.79419 19.1509L5.94107 18.354C5.47231 17.9134 5.06919 17.5102 5.05044 17.454C5.03169 17.3977 5.49107 16.8821 6.07231 16.3009L7.12231 15.2509L6.83168 14.6696C6.40044 13.8258 6.23169 13.0665 6.23169 12.0353C6.23169 10.9946 6.41919 10.179 6.85981 9.34463L7.16919 8.77276L6.19419 7.86338C5.66919 7.36651 5.22856 6.90714 5.22856 6.85088C5.22856 6.74776 6.81293 5.09776 6.91607 5.09776C6.94419 5.09776 7.26293 5.39776 7.61919 5.76339Z" fill="black"/>
<path d="M11.1816 8.79397C10.1129 9.15021 9.40976 9.75958 8.94102 10.7346C8.67852 11.2877 8.65039 11.4283 8.65039 12.2346C8.65039 13.0408 8.67852 13.1815 8.95039 13.7533C9.31602 14.5221 9.94415 15.1689 10.6473 15.497C11.116 15.7221 11.2942 15.7502 12.166 15.7502C13.066 15.7502 13.1973 15.7221 13.7129 15.4784C14.4253 15.1221 15.0253 14.5033 15.3911 13.7346C15.6535 13.1908 15.6816 13.0315 15.6816 12.2346C15.6816 11.419 15.6535 11.2877 15.3816 10.7346C14.7535 9.45958 13.6941 8.75646 12.3066 8.70021C11.8566 8.68146 11.4066 8.71897 11.1816 8.79397Z" fill="black"/>
</svg>
