<svg width="24" height="24" viewBox="0 0 24 24" fill="none" xmlns="http://www.w3.org/2000/svg">
<mask id="mask0" mask-type="alpha" maskUnits="userSpaceOnUse" x="0" y="0" width="24" height="24">
<path d="M24 0H0V24H24V0Z" fill="white"/>
</mask>
<g mask="url(#mask0)">
<path d="M23.5193 15.3877C22.2521 19.7599 18.6168 23.0365 14.1369 23.8443V20.4291C14.9467 20.1207 15.6755 19.6315 16.2676 18.999C16.5967 18.6461 16.878 18.2514 17.1043 17.8251C17.5348 17.0134 17.7577 16.1075 17.7529 15.1886C17.7529 12.1691 15.5735 10.9627 13.5305 10.0675L12.4959 9.61042C11.39 9.11429 10.5436 8.67292 10.5436 7.91767C10.5436 6.87329 11.4549 6.31229 12.3144 6.31229C13.229 6.31229 13.748 6.6498 14.2959 7.59966L14.7208 8.3358L17.4545 6.58117L17.0979 5.91966C16.4705 4.7239 15.4112 3.81207 14.1353 3.36967V0.237671C14.4012 0.283046 14.6641 0.341546 14.93 0.409422C14.9559 0.415796 14.9851 0.422546 15.0144 0.428922C15.0441 0.434615 15.0735 0.442256 15.1021 0.451796C15.1109 0.452759 15.1197 0.454903 15.128 0.458171C15.1992 0.477671 15.2739 0.495671 15.3485 0.516671C21.7107 2.36773 25.3684 9.02496 23.5193 15.3877Z" fill="#745DDF"/>
<path d="M14.3963 15.354C14.3963 16.7291 13.1543 17.5789 12.006 17.5789C10.6275 17.5789 9.83963 16.4404 9.687 15.3832L9.55725 14.4656L6.24937 15.3964L6.39937 16.1359C6.7756 18.3524 8.44021 20.1296 10.6275 20.6497V23.9547C10.0401 23.886 9.45853 23.7743 8.88751 23.6205C8.80651 23.6009 8.72851 23.5785 8.64751 23.5556C3.52721 22.0635 0.0048866 17.3727 0 12.0394V0.510368C0.000206793 0.248879 0.212135 0.0367432 0.473625 0.0367432H10.6275V3.33675C9.43927 3.68079 8.42683 4.46473 7.79625 5.529C7.39184 6.23679 7.18151 7.03883 7.18651 7.854V7.91924C7.21875 10.611 9.19725 11.7364 11.0651 12.5827L12 12.9896L12.078 13.0271C13.5592 13.7032 14.3963 14.1476 14.3963 15.354Z" fill="#2EB6EA"/>
<path d="M17.7527 15.1886C17.7573 16.1076 17.5344 17.0133 17.1039 17.8252C16.8776 18.2516 16.5963 18.6462 16.2672 18.9993C15.6748 19.6324 14.9459 20.1217 14.1357 20.4304V23.8612L13.1768 23.946C13.1768 23.946 11.1199 24.0074 10.6302 23.946L10.6249 20.6508C8.43795 20.1298 6.77409 18.3521 6.39869 16.1354L6.24869 15.396L9.55657 14.4652L9.68631 15.3829C9.83857 16.44 10.6268 17.5785 12.0053 17.5785C13.1532 17.5785 14.3956 16.7288 14.3956 15.3536C14.3956 14.1472 13.5589 13.7036 12.0766 13.0252L11.9986 12.9877L11.0644 12.5823C9.19657 11.7359 7.21806 10.6106 7.18582 7.91883V7.85395C7.18082 7.03879 7.39115 6.23675 7.79557 5.52895C8.42614 4.46469 9.43859 3.68075 10.6268 3.33671V0.0333275C12.7906 0.0149524 12.9563 0.0277024 14.1357 0.235453V3.37045C15.4115 3.81285 16.4708 4.72469 17.0981 5.92045L17.4548 6.58195L14.7211 8.33657L14.2961 7.60045C13.748 6.6502 13.2293 6.31308 12.3147 6.31308C11.4552 6.31308 10.5439 6.87557 10.5439 7.91845C10.5439 8.67408 11.3903 9.11508 12.4962 9.6112L13.5308 10.0683C15.5735 10.9627 17.7527 12.1691 17.7527 15.1886Z" fill="white"/>
</g>
</svg>
