<?xml version="1.0" standalone="no"?>
<!DOCTYPE svg PUBLIC "-//W3C//DTD SVG 20010904//EN"
 "http://www.w3.org/TR/2001/REC-SVG-20010904/DTD/svg10.dtd">
<svg version="1.0" xmlns="http://www.w3.org/2000/svg"
 width="32.000000pt" height="32.000000pt" viewBox="0 0 32.000000 32.000000"
 preserveAspectRatio="xMidYMid meet">

<g transform="translate(0.000000,32.000000) scale(0.100000,-0.100000)"
fill="#000000" stroke="none">
<path d="M110 305 c0 -8 -7 -15 -15 -15 -8 0 -15 -4 -15 -10 0 -5 7 -10 15
-10 8 0 15 5 15 10 0 6 23 10 50 10 28 0 50 -4 50 -10 0 -5 7 -10 15 -10 8 0
15 5 15 10 0 6 -7 10 -15 10 -8 0 -15 7 -15 15 0 11 -12 15 -50 15 -38 0 -50
-4 -50 -15z"/>
<path d="M60 250 c0 -5 5 -10 10 -10 15 0 13 -157 -2 -163 -7 -2 -10 -8 -6
-12 16 -17 38 25 38 74 0 39 4 51 15 51 8 0 15 5 15 10 0 6 -7 10 -15 10 -8 0
-15 5 -15 11 0 11 -24 39 -34 39 -3 0 -6 -4 -6 -10z"/>
<path d="M233 245 c-7 -8 -13 -19 -13 -25 0 -5 -7 -10 -15 -10 -8 0 -15 -4
-15 -10 0 -5 7 -10 15 -10 11 0 15 -12 15 -51 0 -49 22 -91 38 -74 4 4 1 10
-5 12 -16 6 -18 163 -3 163 6 0 10 5 10 10 0 14 -13 12 -27 -5z"/>
<path d="M30 225 c0 -8 -7 -15 -15 -15 -11 0 -15 -12 -15 -50 0 -38 4 -50 15
-50 8 0 15 -7 15 -15 0 -8 5 -15 10 -15 6 0 10 7 10 15 0 8 -4 15 -10 15 -5 0
-10 23 -10 50 0 28 5 50 10 50 6 0 10 7 10 15 0 8 -4 15 -10 15 -5 0 -10 -7
-10 -15z"/>
<path d="M270 225 c0 -8 5 -15 10 -15 6 0 10 -22 10 -50 0 -27 -4 -50 -10 -50
-5 0 -10 -7 -10 -15 0 -8 5 -15 10 -15 6 0 10 7 10 15 0 8 7 15 15 15 11 0 15
12 15 50 0 38 -4 50 -15 50 -8 0 -15 7 -15 15 0 8 -4 15 -10 15 -5 0 -10 -7
-10 -15z"/>
<path d="M140 170 c0 -5 9 -10 20 -10 11 0 20 5 20 10 0 6 -9 10 -20 10 -11 0
-20 -4 -20 -10z"/>
<path d="M80 40 c0 -5 7 -10 15 -10 8 0 15 -7 15 -15 0 -11 12 -15 50 -15 38
0 50 4 50 15 0 8 7 15 15 15 8 0 15 5 15 10 0 6 -7 10 -15 10 -8 0 -15 -4 -15
-10 0 -5 -22 -10 -50 -10 -27 0 -50 5 -50 10 0 6 -7 10 -15 10 -8 0 -15 -4
-15 -10z"/>
</g>
</svg>
