<svg width="40" height="40" viewBox="0 0 40 40" fill="none" xmlns="http://www.w3.org/2000/svg">
<path d="M20 40C31.0457 40 40 31.0457 40 20C40 8.9543 31.0457 0 20 0C8.9543 0 0 8.9543 0 20C0 31.0457 8.9543 40 20 40Z" fill="#126969"/>
<path d="M29.28 11.45C29.28 11.45 30.48 8.45 30.28 7.81C30.08 7.17 30.13 6.95 29.05 6.14C28.4865 6.43056 27.851 6.5521 27.22 6.49C26.529 6.38893 25.8844 6.08231 25.37 5.61C24.9915 5.2652 24.7382 4.80439 24.65 4.3C24.648 4.28059 24.6517 4.26101 24.6606 4.24367C24.6696 4.22633 24.6834 4.212 24.7005 4.20243C24.7175 4.19286 24.7369 4.18848 24.7564 4.18982C24.7758 4.19117 24.7945 4.19818 24.81 4.21C25.309 4.74629 25.9299 5.15447 26.62 5.4C27.0833 5.56 27.5868 5.56 28.05 5.4C26.637 4.36059 25.1146 3.47869 23.51 2.77C23.1429 2.60305 22.7317 2.55862 22.3374 2.64325C21.943 2.72788 21.5864 2.9371 21.32 3.24L19.9 5.49C21.5894 5.79254 23.2177 6.37021 24.72 7.2C26.4807 8.33423 28.0248 9.77344 29.28 11.45Z" fill="#FAF3CE"/>
<path d="M33.09 14.82C32.6338 14.8682 32.1726 14.8309 31.73 14.71C29.35 14.04 27.89 10.12 23.73 7.64999C17.15 4.24999 13.62 7.31999 13.62 7.31999C13.17 7.62999 13.62 7.81999 13.62 7.81999L15.78 8.90999L16.78 9.44999C16.5257 9.71765 16.1831 9.88432 15.8156 9.91924C15.448 9.95416 15.0802 9.85498 14.78 9.63999C14.4449 9.51583 14.0826 9.48374 13.7309 9.54705C13.3792 9.61036 13.0508 9.76676 12.78 9.99999C12.05 10.4 12.37 11.57 11.84 12.31C11.31 13.05 10.26 12.93 10.15 14C10.04 15.07 10.92 15.29 10.94 16.1C10.9462 16.6221 10.8225 17.1376 10.58 17.6C10.5628 17.706 10.5628 17.814 10.58 17.92C10.5966 18.0779 10.6592 18.2274 10.76 18.35C10.8319 18.4259 10.9124 18.493 11 18.55C11.3518 18.7825 11.6404 19.0986 11.84 19.47C11.873 19.5322 11.9097 19.5923 11.95 19.65L12.05 19.84C12.2842 20.2449 12.3692 20.719 12.29 21.18C12.2607 21.3117 12.2607 21.4483 12.29 21.58C12.3336 21.7021 12.4066 21.8115 12.5025 21.8987C12.5984 21.9859 12.7143 22.0482 12.84 22.08C13.2186 22.1768 13.5512 22.4033 13.78 22.72V22.79C13.9991 23.3001 14.1244 23.8455 14.15 24.4C14.27 24.89 14.69 25.05 15.28 25.4C15.87 25.75 16 26.27 15.76 26.53C15.52 26.79 14.05 26.16 13.46 26.86C13.03 27.26 13.21 27.52 13 28.28C12.79 29.04 12.12 28.48 11.77 29.02C11.5856 29.3616 11.4712 29.7365 11.4334 30.1228C11.3957 30.5092 11.4353 30.8992 11.55 31.27C11.5673 31.3821 11.594 31.4925 11.63 31.6C11.8379 30.8297 12.2398 30.1255 12.7971 29.5546C13.3545 28.9838 14.0489 28.5652 14.8139 28.3389C15.579 28.1125 16.3893 28.086 17.1676 28.2618C17.9458 28.4376 18.6661 28.8099 19.2596 29.3431C19.8531 29.8763 20.3001 30.5527 20.558 31.3077C20.8159 32.0627 20.876 32.8713 20.7326 33.6561C20.5893 34.441 20.2472 35.1761 19.7391 35.7912C19.231 36.4063 18.5737 36.881 17.83 37.17C18.2581 37.2553 18.6935 37.2989 19.13 37.3C19.4245 37.3028 19.7187 37.2827 20.01 37.24C20.8375 37.0876 21.6304 36.7861 22.35 36.35C23.0757 35.8944 23.6656 35.2521 24.0579 34.4903C24.4502 33.7286 24.6305 32.8753 24.58 32.02C24.58 29.28 23.38 27.44 20.91 24.58C20.44 24 18.51 21.58 18.16 21.16C16.45 18.93 14.52 16.32 15.48 14.33L15.57 14.16C17 11.54 21.03 12.16 20.15 12.35C19.1391 12.4835 18.1897 12.9112 17.42 13.58C17.1505 13.8682 16.943 14.2085 16.81 14.58C16.6781 15.1082 16.6644 15.659 16.7698 16.1931C16.8752 16.7273 17.0973 17.2315 17.42 17.67C20.42 21.86 24.74 27.07 25.27 28.33C25.7891 29.4628 26.0585 30.6939 26.06 31.94C26.0289 32.6097 25.9622 33.2774 25.86 33.94C26.4706 33.4415 26.9798 32.8304 27.36 32.14C27.85 31.14 27.93 30.68 27.78 30.31C27.63 29.94 27.25 29.92 27.1 29.31C26.95 28.7 27.37 28.17 26.92 27.2C26.73 26.78 25.69 26.2 25.15 25.48C24.61 24.76 23.64 23.59 22.91 22.61C21.59 20.86 21.16 20.26 20.4 19.28C21.22 19.52 22.25 19.86 24.62 18.76C25.9035 19.4772 27.3611 19.8234 28.83 19.76C29.3437 19.7165 29.832 19.5177 30.23 19.19C30.4759 18.9564 30.6642 18.6688 30.78 18.35C30.7868 18.3305 30.7879 18.3094 30.7833 18.2893C30.7787 18.2692 30.7685 18.2507 30.7539 18.2361C30.7393 18.2215 30.7208 18.2113 30.7007 18.2067C30.6806 18.2021 30.6595 18.2032 30.64 18.21C28.79 18.97 27.1 18.35 25.01 17.21L24.64 17L24.27 17.2C23.5388 17.5505 22.7431 17.7465 21.9327 17.7757C21.1223 17.805 20.3146 17.6669 19.56 17.37C19.1437 17.168 18.7959 16.8481 18.56 16.45C18.4217 16.2022 18.3376 15.9278 18.3135 15.6451C18.2893 15.3623 18.3257 15.0776 18.42 14.81C18.5367 14.5866 18.7078 14.3961 18.9176 14.2563C19.1273 14.1165 19.3689 14.0318 19.62 14.01C20.2191 13.9925 20.8143 14.1122 21.36 14.36C21.3866 14.3745 21.4171 14.38 21.4471 14.3757C21.477 14.3714 21.5048 14.3575 21.5262 14.3361C21.5476 14.3147 21.5615 14.287 21.5658 14.257C21.5701 14.2271 21.5645 14.1965 21.55 14.17C21.4861 14.004 21.4522 13.8279 21.45 13.65C21.4505 13.3565 21.5412 13.0702 21.71 12.83L22.45 13.17C22.3826 13.2374 22.3314 13.3192 22.3002 13.4093C22.2691 13.4994 22.2587 13.5953 22.27 13.69C22.289 13.8371 22.3608 13.9722 22.4722 14.0701C22.5835 14.168 22.7267 14.222 22.875 14.222C23.0233 14.222 23.1665 14.168 23.2779 14.0701C23.3892 13.9722 23.4611 13.8371 23.48 13.69L24.17 14.01C24.1081 14.2509 23.9826 14.4708 23.8067 14.6467C23.6308 14.8226 23.4109 14.948 23.17 15.01C23.1461 15.01 23.1233 15.0195 23.1064 15.0364C23.0895 15.0532 23.08 15.0761 23.08 15.1C23.08 15.1239 23.0895 15.1468 23.1064 15.1636C23.1233 15.1805 23.1461 15.19 23.17 15.19L26.85 16.91C27.7678 17.4125 28.8043 17.6578 29.85 17.62C31.19 17.55 31.79 16.49 30.99 16.62C30.0694 16.5363 29.1699 16.2962 28.33 15.91L27.07 15.32L27.6 14.51C28.6618 15.1055 29.7939 15.5657 30.97 15.88C31.3629 15.9608 31.7706 15.9286 32.1459 15.787C32.5211 15.6454 32.8485 15.4002 33.09 15.08C33.1107 15.0652 33.1275 15.0457 33.1391 15.0231C33.1507 15.0004 33.1567 14.9754 33.1567 14.95C33.1567 14.9246 33.1507 14.8995 33.1391 14.8769C33.1275 14.8543 33.1107 14.8348 33.09 14.82ZM18.46 11.25C17.6762 11.368 16.9123 11.5935 16.19 11.92C16 12.0072 15.8162 12.1074 15.64 12.22C15.0757 12.5951 14.6203 13.1125 14.32 13.72C12.91 16.45 15.49 19.81 17.57 22.5L18.57 23.77C19.01 24.38 19.49 24.97 19.97 25.54C21.2697 26.968 22.3087 28.6129 23.04 30.4C23.1788 30.9385 23.2127 31.4987 23.14 32.05C23.0648 32.4703 22.8891 32.8662 22.6279 33.2039C22.3668 33.5417 22.0278 33.8114 21.64 33.99C21.8524 33.2565 21.9103 32.487 21.81 31.73C21.4456 30.2838 20.7392 28.9462 19.75 27.83L18.57 26.29C15.04 21.75 14.69 21.24 13.86 19.73C13.8373 19.678 13.8105 19.6278 13.78 19.58C13.29 18.77 12 16.58 12.56 14.32C12.6878 13.8027 12.9305 13.3207 13.27 12.91C15.33 10.17 19.29 11.08 18.46 11.25Z" fill="#FAF3CE"/>
</svg>
