<svg width="404" height="404" viewBox="0 0 404 404" fill="none" xmlns="http://www.w3.org/2000/svg">
<path fill-rule="evenodd" clip-rule="evenodd" d="M201.858 393.266C307.334 393.266 392.839 307.761 392.839 202.284C392.839 96.8081 307.334 11.3027 201.858 11.3027C96.3813 11.3027 10.876 96.8081 10.876 202.284C10.876 307.761 96.3813 393.266 201.858 393.266Z" stroke="#474799" stroke-width="20.9223"/>
<path fill-rule="evenodd" clip-rule="evenodd" d="M198.872 376.115L112.322 289.667L148.982 252.704L198.872 376.115Z" fill="url(#paint0_linear_2375_43)"/>
<path fill-rule="evenodd" clip-rule="evenodd" d="M142.721 85.4615C139.464 88.7184 97.6776 118.587 106.566 169.689C110.648 193.162 136.56 218.467 157.92 244.17C188.299 280.725 194.054 290.453 199.341 303.769C212.301 336.408 200.892 369.854 199.175 376.62C199.175 376.62 226.538 355.316 231.745 326.68C236.087 302.795 235.08 296.627 233.274 285.793C228.932 259.737 210.227 237.871 188.318 213.771C166.605 189.887 164.651 188.416 148.679 167.265C139.338 154.894 133.94 142.825 133.631 127.474C133.177 104.853 145.596 82.5856 142.721 85.4615H142.721Z" fill="url(#paint1_linear_2375_43)"/>
<path fill-rule="evenodd" clip-rule="evenodd" d="M163.778 63.5723C163.778 63.5723 165.073 65.29 167.49 66.1475C170.684 67.2803 175.584 67.5791 179.532 63.7236C183.098 60.2432 182.885 55.1982 181.73 52.0596C180.798 49.5283 179.154 48.1963 179.154 48.1963L181.351 45.9238C181.351 45.9238 182.223 47.2412 184.153 48.1201C187.428 49.6113 193.061 50.3643 197.636 45.0898C200.963 41.2549 200.209 36.6523 198.848 33.7295C197.978 31.8613 196.812 30.4756 196.803 30.3965C196.777 30.1943 199.302 27.7451 199.302 27.7451L286.75 115.774L274.516 127.575C274.516 127.575 263.708 114.042 251.893 113.438C245.061 113.086 241.108 113.088 234.039 114.704C227.688 116.156 224.303 117.883 216.641 113.803C207.006 108.674 207.205 98.2715 207.457 92.7842C207.658 88.3916 205.589 85.916 202.61 85.8154C199.983 85.7266 197.363 86.71 196.803 90.915C195.655 99.5244 196.716 105.422 203.179 115.725C209.394 125.628 233.596 149.501 241.643 158.782C250.278 168.741 257.397 174.233 271.031 193.321C280.32 206.324 292.845 224.83 292.845 247.553C292.845 264.723 287.796 275.175 281.282 288.203C274.768 301.23 254.469 321.58 254.822 320.772C255.176 319.964 262.396 297.594 261.084 270.276C259.449 236.288 229.573 209.682 213.011 189.888C199.61 173.871 187.763 161.738 174.23 143.027C151.002 110.912 163.778 63.5723 163.778 63.5723L163.778 63.5723Z" fill="url(#paint2_linear_2375_43)"/>
<defs>
<linearGradient id="paint0_linear_2375_43" x1="112.322" y1="314.41" x2="198.872" y2="314.41" gradientUnits="userSpaceOnUse">
<stop offset="0.0965195" stop-color="#73BFB4"/>
<stop offset="0.263228" stop-color="#4F9994"/>
<stop offset="0.746362" stop-color="#40418F"/>
<stop offset="1" stop-color="#403B8F"/>
</linearGradient>
<linearGradient id="paint1_linear_2375_43" x1="105.328" y1="230.915" x2="234.819" y2="230.915" gradientUnits="userSpaceOnUse">
<stop offset="0.0724702" stop-color="#79C2BA"/>
<stop offset="0.26659" stop-color="#46998F"/>
<stop offset="0.847698" stop-color="#484997"/>
<stop offset="1" stop-color="#353681"/>
</linearGradient>
<linearGradient id="paint2_linear_2375_43" x1="311.185" y1="288.261" x2="170.408" y2="44.4271" gradientUnits="userSpaceOnUse">
<stop stop-color="#79C2BA"/>
<stop offset="0.264171" stop-color="#46998F"/>
<stop offset="0.380193" stop-color="#468C90"/>
<stop offset="0.592518" stop-color="#476A93"/>
<stop offset="0.776839" stop-color="#484997"/>
<stop offset="1" stop-color="#353681"/>
</linearGradient>
</defs>
</svg>
