<svg width="24" height="24" viewBox="0 0 24 24" fill="none" xmlns="http://www.w3.org/2000/svg">
<circle cx="12" cy="12" r="12" fill="#FFFFE9"/>
<path d="M17.3761 6.67704C17.3761 6.67704 18.0911 4.90192 17.9986 4.49512C17.9123 4.10065 17.9062 3.97738 17.259 3.49661C17.0001 3.61372 16.5378 3.78014 16.1619 3.70618C15.6071 3.6014 15.3236 3.41032 15.0586 3.17611C14.7935 2.94189 14.6518 2.59673 14.6271 2.39333C14.621 2.34402 14.6764 2.30704 14.7196 2.33785C14.9476 2.50427 15.1325 2.80629 15.7797 3.02202C16.1495 3.14529 16.4516 3.10831 16.6365 3.04667C15.8167 2.47962 14.6271 1.703 13.9183 1.46878C13.0123 1.17293 12.6055 1.75231 12.6055 1.75231L11.7549 3.09598C11.7549 3.09598 13.1848 3.30554 14.6456 4.1253C16.1002 4.9389 17.3761 6.67704 17.3761 6.67704Z" fill="#3800D6"/>
<path d="M19.6566 8.69252C19.4778 8.71718 19.2066 8.71718 18.843 8.62472C17.4192 8.22409 16.5439 5.87575 14.0785 4.39648C10.1399 2.36249 8.02582 4.19925 8.02582 4.19925C7.75462 4.38415 8.03199 4.50126 8.03199 4.50126L9.32635 5.15461L9.93654 5.47511C9.93654 5.47511 9.54824 5.97437 8.75929 5.59222C8.50042 5.48128 7.98268 5.45046 7.58204 5.80795C7.14443 6.04833 7.3355 6.74482 7.01499 7.1886C6.70065 7.63238 6.07196 7.55842 6.00416 8.19943C5.94869 8.85278 6.46643 8.97605 6.47876 9.46297C6.49108 9.9499 6.31234 10.2273 6.26303 10.3567C6.24454 10.4122 6.23221 10.48 6.23221 10.5478C6.23837 10.6402 6.28152 10.7327 6.34316 10.8066C6.39247 10.8621 6.43561 10.8991 6.48492 10.9299C6.69448 11.0717 6.87323 11.2566 6.99034 11.4785C7.00883 11.5155 7.02732 11.5524 7.05197 11.5894C7.07046 11.6202 7.08895 11.6572 7.11361 11.7004C7.24921 11.9407 7.30468 12.2243 7.25537 12.5016C7.24304 12.5756 7.24921 12.6619 7.27386 12.742C7.32317 12.8899 7.45261 13.0009 7.6067 13.044C7.83475 13.0995 8.03199 13.2351 8.16759 13.4262C8.17991 13.4385 8.18608 13.457 8.1984 13.4693C8.38331 13.7282 8.34633 14.135 8.42029 14.4308C8.49426 14.7267 8.7408 14.8192 9.09829 15.0226C9.45578 15.226 9.52975 15.5465 9.38182 15.7006C9.23389 15.8546 8.35866 15.4787 8.00733 15.8978C7.74846 16.1382 7.85941 16.2923 7.72997 16.7484C7.60053 17.2106 7.20606 16.8716 6.9965 17.1921C6.78694 17.5127 6.75612 17.8578 6.8609 18.542C6.96568 19.2261 7.63135 20.1692 7.63135 20.1692C7.63135 20.1692 7.27386 18.9241 8.05048 17.8578C8.70998 17.0812 9.2154 16.9764 9.9612 16.9641C10.7132 16.9456 11.8226 17.6236 12.0507 18.9549C12.1678 19.8363 11.687 20.3479 11.65 20.3972C11.5637 20.4958 10.8549 21.2786 9.91189 20.7547C9.65302 20.576 9.42496 20.3911 9.27087 20.0336C9.15993 19.7069 9.12911 19.2693 9.31402 18.9734C9.46811 18.7269 9.71465 18.6529 9.78862 18.6468C9.89956 18.6344 10.1399 18.6406 10.294 18.7577C10.4481 18.8748 10.6145 19.0474 10.5837 19.3432C10.5529 19.6391 10.2447 19.7254 10.1276 19.7007C10.029 19.6822 10.0968 19.6946 10.1215 19.7007C9.93038 19.6884 9.84409 19.5405 9.80711 19.4357C9.80094 19.411 9.76396 19.4172 9.7578 19.4419C9.70233 19.8487 10.0105 20.1075 10.1954 20.1507C10.3988 20.1938 10.7008 20.1877 10.9474 19.935C11.1631 19.7192 11.2802 19.5343 11.2802 19.0597C11.2802 18.6714 11.12 18.4002 10.8549 18.166C10.5098 17.8455 10.0537 17.7222 9.73931 17.7469C9.44345 17.7715 8.92571 17.8948 8.58671 18.431C8.27237 18.9241 8.13677 19.6021 8.4018 20.3602L8.41413 20.3849C9.01817 21.7964 10.4296 22.1539 11.4035 22.1539C11.6007 22.1539 11.7795 22.1415 11.9274 22.1169C11.9582 22.1107 12.6547 22.0059 13.3327 21.5868C14.1709 21.0321 14.6702 20.2308 14.6702 18.9919C14.6702 17.3462 13.9491 16.2491 12.4698 14.5356C12.1863 14.1843 11.0337 12.7605 10.8241 12.4831C9.79478 11.1518 8.64218 9.58625 9.2154 8.39667C9.23389 8.35969 9.25238 8.32887 9.27087 8.29189C10.1276 6.72016 12.5438 7.10847 12.0137 7.20709C11.0953 7.36118 10.5467 7.76798 10.3803 7.94672C10.2139 8.12547 10.1215 8.27956 10.0105 8.56925C9.81944 9.04385 9.97353 9.77732 10.3803 10.4183C12.1493 12.9269 14.7627 16.0519 15.0832 16.8038C15.4961 17.753 15.5578 18.505 15.5516 18.9673C15.5454 19.4295 15.4345 20.1692 15.4345 20.1692C15.4345 20.1692 16.0447 19.6822 16.3344 19.0905C16.6241 18.4988 16.6734 18.2153 16.5871 17.9934C16.4946 17.7715 16.2666 17.7654 16.1741 17.4017C16.0817 17.0381 16.3405 16.7175 16.0693 16.1382C15.9522 15.8855 15.3297 15.5156 15.0092 15.1088C14.6887 14.702 14.1031 13.9747 13.6655 13.3892C12.8766 12.3414 12.6177 11.9839 12.1616 11.3922C12.6547 11.5401 13.2711 11.7435 14.6887 11.084C16.0015 11.7558 16.9014 11.7189 17.2158 11.7004C17.5301 11.6819 17.826 11.5401 18.054 11.3614C18.202 11.2443 18.3129 11.01 18.3807 10.856C18.4054 10.8005 18.3499 10.7512 18.2944 10.7697C17.1911 11.2258 16.1741 10.856 14.9229 10.1595L14.701 10.0362L14.4791 10.1533C13.1663 10.856 11.7856 10.3074 11.6624 10.2581C11.613 10.2334 11.2371 10.0362 11.0706 9.70335C10.9042 9.37052 10.8673 9.01919 10.9905 8.72334C11.0891 8.48296 11.3234 8.3227 11.7055 8.24258C12.0198 8.2056 12.4266 8.3227 12.7533 8.45214C12.8273 8.48296 12.8951 8.409 12.8643 8.3412C12.8273 8.24258 12.8026 8.1378 12.8026 8.02685C12.8026 7.84194 12.8643 7.67553 12.9629 7.53993L13.4005 7.74332C13.3265 7.81729 13.2834 7.92823 13.2957 8.05151C13.3142 8.21176 13.4498 8.34736 13.6101 8.36585C13.8258 8.39667 14.0045 8.23641 14.023 8.03301L14.436 8.22409C14.362 8.5261 14.1278 8.76032 13.8258 8.83429C13.7641 8.84661 13.758 8.92674 13.8196 8.94523C14.3805 9.21027 16.02 9.97455 16.02 9.97455C16.02 9.97455 16.9692 10.5046 17.8013 10.3998C18.6026 10.3567 18.9601 9.72185 18.4855 9.78348C18.0109 9.84512 16.8891 9.35819 16.8891 9.35819L16.1371 9.00687L16.4515 8.51994C16.4515 8.51994 17.524 9.13014 18.4732 9.3397C19.1018 9.4753 19.5271 9.11781 19.7429 8.85894C19.8107 8.79114 19.749 8.68019 19.6566 8.69252ZM10.8796 6.55375C10.4789 6.60306 9.86874 6.78796 9.52358 6.95438C9.39415 7.01602 9.2832 7.07765 9.19075 7.13313C8.88873 7.33036 8.61753 7.62622 8.4018 8.03301C7.55739 9.67254 9.10446 11.6819 10.3495 13.2967C10.5591 13.5679 10.7501 13.8206 10.9227 14.0549C11.1878 14.4185 11.4774 14.776 11.761 15.115C12.4883 16.0087 13.2896 16.9579 13.6347 18.0119C13.7272 18.3817 13.7395 18.7269 13.6963 19.0043C13.5484 19.8672 12.7965 20.163 12.7965 20.163C12.9074 19.8055 12.969 19.3433 12.9012 18.8132V18.8009C12.6732 17.562 11.6685 16.4648 11.6685 16.4648C11.4281 16.1443 11.1693 15.8115 10.9597 15.5403C8.84558 12.8221 8.63602 12.514 8.13677 11.6079L8.1306 11.5956C8.11828 11.5709 8.09979 11.5401 8.0813 11.5093C7.79161 11.0224 7.01499 9.72185 7.35399 8.35969C7.43412 8.04534 7.57588 7.76182 7.77928 7.51527C9.01817 5.90657 11.3912 6.45513 10.8796 6.55375Z" fill="#3800D6"/>
</svg>
