<?xml version="1.0" standalone="no"?>
<!DOCTYPE svg PUBLIC "-//W3C//DTD SVG 20010904//EN"
 "http://www.w3.org/TR/2001/REC-SVG-20010904/DTD/svg10.dtd">
<svg version="1.0" xmlns="http://www.w3.org/2000/svg"
 width="50.000000pt" height="50.000000pt" viewBox="0 0 50.000000 50.000000"
 preserveAspectRatio="xMidYMid meet">

<g transform="translate(0.000000,50.000000) scale(0.100000,-0.100000)"
fill="#000000" stroke="none">
<path d="M177 474 c-103 -32 -179 -153 -162 -257 21 -123 112 -201 235 -201
211 0 315 242 171 397 -59 64 -158 89 -244 61z m43 -144 c28 -62 39 -77 65
-88 53 -23 60 -29 63 -50 4 -29 -40 -51 -63 -32 -8 7 -15 21 -15 32 0 25 -53
78 -77 78 -38 0 -56 43 -31 68 16 16 49 11 58 -8z m124 -2 c16 -26 -4 -53 -40
-53 -23 0 -30 5 -32 23 -7 47 47 69 72 30z m-116 -129 c4 -36 -21 -55 -53 -41
-44 20 -24 76 25 70 18 -2 26 -10 28 -29z"/>
</g>
</svg>
