<svg width="24" height="24" fill="none" xmlns="http://www.w3.org/2000/svg"><g mask="url(#prefix__prefix__a)"><path d="M12 24c6.627 0 12-5.373 12-12S18.627 0 12 0 0 5.373 0 12s5.373 12 12 12z" fill="#31D8A4"/><path d="M12 22.4c5.743 0 10.4-4.656 10.4-10.4 0-5.744-4.657-10.4-10.4-10.4C6.256 1.6 1.6 6.256 1.6 12c0 5.744 4.656 10.4 10.4 10.4z" fill="#fff"/><path d="M12 21.2a9.2 9.2 0 100-18.4 9.2 9.2 0 000 18.4z" fill="#0E052F"/><path d="M11.692 16.152a3.75 3.75 0 01-1.128-.264 3.138 3.138 0 01-.912-.588 2.819 2.819 0 01-.612-.828 2.42 2.42 0 01-.24-1.02h1.476c.016.392.152.72.408.984.264.256.6.404 1.008.444v-2.376l-.564-.084c-.648-.088-1.164-.332-1.548-.732-.376-.4-.564-.908-.564-1.524 0-.32.072-.62.216-.9.144-.288.34-.54.588-.756.248-.224.532-.404.852-.54.328-.136.668-.22 1.02-.252V6.6h.876v1.14c.36.048.692.144.996.288.304.136.568.312.792.528.224.216.4.464.528.744.136.28.212.58.228.9h-1.476a1.132 1.132 0 00-.324-.744 1.469 1.469 0 00-.744-.444v2.196l.408.06c.304.048.592.132.864.252s.508.276.708.468c.208.192.368.424.48.696.12.264.18.564.18.9a2.348 2.348 0 01-.756 1.752 2.973 2.973 0 01-.84.54c-.32.136-.668.224-1.044.264v1.236h-.876v-1.224zm.876-1.284c.376-.064.668-.2.876-.408a1.13 1.13 0 00.312-.816c0-.304-.1-.528-.3-.672a1.601 1.601 0 00-.684-.3l-.204-.036v2.232zm-.876-5.892a1.694 1.694 0 00-.864.372c-.232.192-.348.452-.348.78 0 .28.076.492.228.636.16.136.368.224.624.264l.36.06V8.976z" fill="#fff"/></g><defs><linearGradient id="prefix__prefix__paint0_linear" x1="12" y1="0" x2="12" y2="35.091" gradientUnits="userSpaceOnUse"><stop stop-color="#08021E"/><stop offset="1" stop-color="#1F0777"/></linearGradient></defs></svg>