<svg width="24" height="24" viewBox="0 0 24 24" fill="none" xmlns="http://www.w3.org/2000/svg">
<circle cx="12" cy="12" r="10.6667" fill="white"/>
<path fill-rule="evenodd" clip-rule="evenodd" d="M11.9929 21.3692C17.1714 21.3692 21.3692 17.1714 21.3692 11.9929C21.3692 6.81461 17.1714 2.61663 11.9929 2.61663C6.81461 2.61663 2.61663 6.81461 2.61663 11.9929C2.61663 17.1714 6.81461 21.3692 11.9929 21.3692ZM11.9929 23.986C18.6165 23.986 23.986 18.6165 23.986 11.9929C23.986 5.36943 18.6165 0 11.9929 0C5.36943 0 0 5.36943 0 11.9929C0 18.6165 5.36943 23.986 11.9929 23.986Z" fill="black"/>
<path d="M16.0903 11.2183H7.89576C7.81176 11.2183 7.74646 11.2836 7.74646 11.3676V12.7489C7.74646 12.8329 7.81176 12.8982 7.89576 12.8982H11.0036V17.1074C11.0036 17.1914 11.0691 17.2567 11.1531 17.2567H12.8516C12.9356 17.2567 13.0009 17.1914 13.0009 17.1074V12.8982H16.1088C16.1928 12.8982 16.2581 12.8329 16.2581 12.7489V11.3676C16.2396 11.2836 16.1743 11.2183 16.0903 11.2183ZM11.9929 9.2584C12.693 9.2584 13.2529 8.68897 13.2529 7.9984C13.2529 7.29836 12.6836 6.7384 11.9929 6.7384C11.293 6.7384 10.7331 7.30771 10.7331 7.9984C10.7324 8.16405 10.7645 8.32819 10.8276 8.48136C10.8906 8.63454 10.9834 8.7737 11.1005 8.89084C11.2177 9.00798 11.3568 9.10076 11.51 9.16385C11.6632 9.22694 11.8273 9.25907 11.9929 9.2584Z" fill="black"/>
</svg>
