<svg width="24" height="24" viewBox="0 0 24 24" fill="none" xmlns="http://www.w3.org/2000/svg">
<g clip-path="url(#clip0_8151_45931)">
<path d="M23 12C23 18.0751 18.0751 23 12 23C5.92487 23 1 18.0751 1 12C1 5.92487 5.92487 1 12 1C18.0751 1 23 5.92487 23 12Z" fill="white" stroke="#7D7D7D" stroke-width="2"/>
<path d="M10.7675 17.0305H13.1545V19H10.7675V17.0307V17.0305ZM12.7786 11.8368C14.0103 11.0589 14.5034 10.3108 14.4414 9.55889C14.3232 8.12978 13.5672 7.46309 11.888 7.39148C9.9225 7.30794 8.88701 8.28566 8.88701 10.1544H6.5C6.5 6.91957 8.67504 4.86555 11.9894 5.00686C14.83 5.1274 16.5994 6.68851 16.8202 9.36244C16.9663 11.13 15.9667 12.6467 14.048 13.8581C13.4018 14.2618 13.1736 14.6189 13.1922 15.0044L13.1937 15.033V15.615H10.8066V15.0874C10.7548 13.7636 11.4698 12.6541 12.7783 11.8368H12.7786Z" fill="#7D7D7D"/>
</g>
<defs>
<clipPath id="clip0_8151_45931">
<rect width="24" height="24" fill="white"/>
</clipPath>
</defs>
</svg>
