<?xml version="1.0" standalone="no"?>
<!DOCTYPE svg PUBLIC "-//W3C//DTD SVG 20010904//EN"
 "http://www.w3.org/TR/2001/REC-SVG-20010904/DTD/svg10.dtd">
<svg version="1.0" xmlns="http://www.w3.org/2000/svg"
 width="50.000000pt" height="50.000000pt" viewBox="0 0 50.000000 50.000000"
 preserveAspectRatio="xMidYMid meet">

<g transform="translate(0.000000,50.000000) scale(0.100000,-0.100000)"
fill="#000000" stroke="none">
<path d="M161 483 c-88 -31 -161 -136 -161 -233 0 -132 118 -250 250 -250 60
0 130 30 175 75 188 188 -12 497 -264 408z m59 -113 c0 -34 -4 -42 -30 -55
-60 -31 -11 -46 70 -21 79 24 108 -2 105 -93 -1 -47 -5 -57 -33 -82 -43 -38
-52 -37 -52 11 0 34 4 42 30 55 60 31 11 46 -70 21 -79 -24 -108 2 -105 93 1
47 5 57 33 82 43 38 52 37 52 -11z"/>
<path d="M172 367 c-12 -13 -22 -31 -22 -40 0 -16 2 -16 30 -2 21 11 30 23 30
40 0 31 -10 32 -38 2z"/>
<path d="M240 273 c-19 -8 -47 -12 -62 -9 -22 4 -28 2 -28 -12 0 -43 42 -53
106 -26 21 9 50 13 66 10 22 -4 28 -2 28 12 0 42 -46 53 -110 25z"/>
<path d="M318 174 c-19 -10 -28 -23 -28 -39 0 -14 4 -25 8 -25 16 0 54 48 50
63 -3 14 -6 14 -30 1z"/>
</g>
</svg>
