<?xml version="1.0" standalone="no"?>
<!DOCTYPE svg PUBLIC "-//W3C//DTD SVG 20010904//EN"
 "http://www.w3.org/TR/2001/REC-SVG-20010904/DTD/svg10.dtd">
<svg version="1.0" xmlns="http://www.w3.org/2000/svg"
 width="64.000000pt" height="64.000000pt" viewBox="0 0 64.000000 64.000000"
 preserveAspectRatio="xMidYMid meet">

<g transform="translate(0.000000,64.000000) scale(0.100000,-0.100000)"
fill="#000000" stroke="none">
<path d="M180 531 l0 -31 85 0 c129 0 187 -37 214 -137 30 -112 -60 -223 -182
-223 l-47 0 0 115 0 115 -30 0 -30 0 0 -146 0 -146 93 4 c68 3 103 10 133 26
85 44 129 129 122 236 -5 77 -37 132 -107 181 -40 28 -50 30 -147 33 l-104 4
0 -31z"/>
</g>
</svg>
