<?xml version="1.0" encoding="UTF-8"?>
<svg width="26px" height="26px" viewBox="0 0 26 26" version="1.1" xmlns="http://www.w3.org/2000/svg" xmlns:xlink="http://www.w3.org/1999/xlink">
    <title>美元</title>
    <g id="Page-1" stroke="none" stroke-width="1" fill="none" fill-rule="evenodd">
        <g id="Artboard备份-2" transform="translate(-1013.000000, -1696.000000)">
            <g id="美元" transform="translate(1013.000000, 1696.000000)">
                <circle id="椭圆形" fill="#FFAA1D" cx="13" cy="13" r="13"></circle>
                <circle id="椭圆形备份" fill="#242A47" cx="13" cy="13" r="11"></circle>
                <circle id="椭圆形备份-2" fill="#FFFFFF" cx="13" cy="13" r="9"></circle>
                <path d="M13.7571141,17.8272992 L13.7571141,19.2959865 L12.5047452,19.2959865 L12.5047452,17.8728402 C11.6394719,17.7703736 10.6717246,17.3832778 10,16.768479 L10.8197323,15.51611 C11.5142283,16.0625982 12.1859528,16.3813833 12.9146104,16.3813833 C13.8026533,16.3813833 14.2125204,15.9829029 14.2125204,15.2656373 C14.2125204,13.5578621 10.3529449,13.7058681 10.3529449,11.0531188 C10.3529449,9.67551345 11.1726772,8.71916362 12.504747,8.46868729 L12.504747,7 L13.7571159,7 L13.7571159,8.44591589 C14.6679302,8.57115278 15.3168852,9.02656029 15.8633752,9.59581808 L14.9297914,10.6660249 C14.4060727,10.1878473 13.9506665,9.91460318 13.3017115,9.91460318 C12.5502898,9.91460318 12.1404245,10.2675426 12.1404245,10.9620386 C12.1404245,12.5331927 16,12.2941029 16,15.1290144 C15.9886148,16.5180045 15.2144239,17.5540551 13.7571123,17.8272938 L13.7571141,17.8272992 Z" id="路径" fill="#242A47" fill-rule="nonzero"></path>
            </g>
        </g>
    </g>
</svg>