<svg width="404" height="404" viewBox="0 0 404 404" fill="none" xmlns="http://www.w3.org/2000/svg">
<path fill-rule="evenodd" clip-rule="evenodd" d="M201.794 393.266C307.27 393.266 392.776 307.761 392.776 202.284C392.776 96.8081 307.27 11.3027 201.794 11.3027C96.3179 11.3027 10.8125 96.8081 10.8125 202.284C10.8125 307.761 96.3179 393.266 201.794 393.266Z" fill="#181818" stroke="#474799" stroke-width="20.9223"/>
<path fill-rule="evenodd" clip-rule="evenodd" d="M198.809 376.115L112.259 289.667L148.919 252.704L198.809 376.115Z" fill="url(#paint0_linear_2375_55)"/>
<path fill-rule="evenodd" clip-rule="evenodd" d="M142.658 85.4615C139.401 88.7184 97.6161 118.587 106.503 169.689C110.585 193.162 136.498 218.467 157.857 244.17C188.237 280.725 193.991 290.453 199.278 303.769C212.238 336.408 200.829 369.854 199.112 376.62C199.112 376.62 226.476 355.316 231.682 326.68C236.025 302.795 235.017 296.627 233.212 285.793C228.869 259.737 210.165 237.871 188.256 213.771C166.542 189.887 164.588 188.416 148.617 167.265C139.275 154.894 133.877 142.825 133.569 127.474C133.114 104.853 145.534 82.5856 142.658 85.4615V85.4615Z" fill="url(#paint1_linear_2375_55)"/>
<path fill-rule="evenodd" clip-rule="evenodd" d="M163.715 63.5723C163.715 63.5723 165.009 65.29 167.426 66.1475C170.621 67.2803 175.521 67.5791 179.469 63.7236C183.033 60.2432 182.821 55.1982 181.666 52.0596C180.735 49.5283 179.091 48.1963 179.091 48.1963L181.287 45.9238C181.287 45.9238 182.158 47.2412 184.09 48.1201C187.365 49.6113 192.997 50.3643 197.572 45.0898C200.898 41.2549 200.145 36.6523 198.783 33.7295C197.914 31.8613 196.749 30.4756 196.739 30.3965C196.714 30.1943 199.239 27.7451 199.239 27.7451L286.687 115.774L274.452 127.575C274.452 127.575 263.646 114.042 251.83 113.438C244.997 113.086 241.044 113.088 233.975 114.704C227.625 116.156 224.24 117.883 216.577 113.803C206.942 108.674 207.141 98.2715 207.394 92.7842C207.596 88.3916 205.525 85.916 202.546 85.8154C199.919 85.7266 197.3 86.71 196.739 90.915C195.591 99.5244 196.653 105.422 203.116 115.725C209.331 125.628 233.533 149.501 241.579 158.782C250.214 168.741 257.334 174.233 270.968 193.321C280.255 206.324 292.782 224.83 292.782 247.553C292.782 264.723 287.731 275.175 281.219 288.203C274.705 301.23 254.405 321.58 254.759 320.772C255.112 319.964 262.333 297.594 261.02 270.276C259.387 236.288 229.511 209.682 212.948 189.888C199.547 173.871 187.699 161.738 174.167 143.027C150.939 110.912 163.715 63.5723 163.715 63.5723L163.715 63.5723Z" fill="url(#paint2_linear_2375_55)"/>
<defs>
<linearGradient id="paint0_linear_2375_55" x1="112.259" y1="314.41" x2="198.809" y2="314.41" gradientUnits="userSpaceOnUse">
<stop offset="0.0965195" stop-color="#73BFB4"/>
<stop offset="0.263228" stop-color="#4F9994"/>
<stop offset="0.746362" stop-color="#40418F"/>
<stop offset="1" stop-color="#403B8F"/>
</linearGradient>
<linearGradient id="paint1_linear_2375_55" x1="105.266" y1="230.915" x2="234.757" y2="230.915" gradientUnits="userSpaceOnUse">
<stop offset="0.0724702" stop-color="#79C2BA"/>
<stop offset="0.26659" stop-color="#46998F"/>
<stop offset="0.847698" stop-color="#484997"/>
<stop offset="1" stop-color="#353681"/>
</linearGradient>
<linearGradient id="paint2_linear_2375_55" x1="311.122" y1="288.261" x2="170.344" y2="44.4271" gradientUnits="userSpaceOnUse">
<stop stop-color="#79C2BA"/>
<stop offset="0.264171" stop-color="#46998F"/>
<stop offset="0.380193" stop-color="#468C90"/>
<stop offset="0.592518" stop-color="#476A93"/>
<stop offset="0.776839" stop-color="#484997"/>
<stop offset="1" stop-color="#353681"/>
</linearGradient>
</defs>
</svg>
