<svg width="24" height="24" viewBox="0 0 24 24" fill="none" xmlns="http://www.w3.org/2000/svg">
<circle cx="12" cy="12" r="12" fill="white"/>
<path d="M17.3761 6.67729C17.3761 6.67729 18.0911 4.90216 17.9986 4.49536C17.9123 4.10089 17.9061 3.97762 17.259 3.49686C17.0001 3.61397 16.5378 3.78039 16.1618 3.70642C15.6071 3.60164 15.3236 3.41057 15.0586 3.17635C14.7935 2.94213 14.6518 2.59697 14.6271 2.39357C14.6209 2.34426 14.6764 2.30728 14.7196 2.3381C14.9476 2.50452 15.1325 2.80653 15.7797 3.02226C16.1495 3.14553 16.4515 3.10855 16.6364 3.04691C15.8167 2.47986 14.6271 1.70325 13.9183 1.46903C13.0122 1.17318 12.6054 1.75256 12.6054 1.75256L11.7549 3.09622C11.7549 3.09622 13.1848 3.30579 14.6456 4.12555C16.1002 4.93915 17.3761 6.67729 17.3761 6.67729Z" fill="#070713"/>
<path d="M19.6566 8.69246C19.4778 8.71712 19.2066 8.71712 18.843 8.62466C17.4192 8.22403 16.5439 5.87569 14.0785 4.39642C10.1399 2.36243 8.02582 4.19919 8.02582 4.19919C7.75462 4.3841 8.03199 4.5012 8.03199 4.5012L9.32635 5.15455L9.93654 5.47506C9.93654 5.47506 9.54824 5.97431 8.75929 5.59216C8.50042 5.48122 7.98268 5.4504 7.58204 5.80789C7.14443 6.04827 7.3355 6.74476 7.01499 7.18854C6.70065 7.63232 6.07196 7.55836 6.00416 8.19937C5.94869 8.85272 6.46643 8.97599 6.47876 9.46291C6.49108 9.94984 6.31234 10.2272 6.26303 10.3566C6.24454 10.4121 6.23221 10.4799 6.23221 10.5477C6.23838 10.6402 6.28152 10.7326 6.34316 10.8066C6.39247 10.8621 6.43561 10.899 6.48492 10.9299C6.69448 11.0716 6.87323 11.2565 6.99034 11.4784C7.00883 11.5154 7.02732 11.5524 7.05197 11.5894C7.07046 11.6202 7.08895 11.6572 7.11361 11.7003C7.24921 11.9407 7.30468 12.2242 7.25537 12.5016C7.24304 12.5755 7.24921 12.6618 7.27386 12.742C7.32317 12.8899 7.45261 13.0008 7.6067 13.044C7.83475 13.0994 8.03199 13.235 8.16759 13.4261C8.17991 13.4384 8.18608 13.4569 8.19841 13.4693C8.38331 13.7281 8.34633 14.1349 8.4203 14.4308C8.49426 14.7266 8.7408 14.8191 9.09829 15.0225C9.45578 15.2259 9.52975 15.5464 9.38182 15.7005C9.23389 15.8546 8.35866 15.4786 8.00733 15.8977C7.74846 16.1381 7.85941 16.2922 7.72997 16.7483C7.60053 17.2106 7.20606 16.8716 6.9965 17.1921C6.78694 17.5126 6.75612 17.8578 6.8609 18.5419C6.96568 19.2261 7.63135 20.1691 7.63135 20.1691C7.63135 20.1691 7.27386 18.9241 8.05048 17.8578C8.70999 17.0811 9.2154 16.9764 9.9612 16.964C10.7132 16.9455 11.8226 17.6235 12.0507 18.9549C12.1678 19.8363 11.687 20.3479 11.65 20.3972C11.5637 20.4958 10.8549 21.2786 9.91189 20.7547C9.65302 20.5759 9.42496 20.391 9.27087 20.0335C9.15993 19.7068 9.12911 19.2692 9.31402 18.9734C9.46811 18.7268 9.71465 18.6529 9.78862 18.6467C9.89956 18.6344 10.1399 18.6405 10.294 18.7576C10.4481 18.8748 10.6145 19.0473 10.5837 19.3432C10.5529 19.639 10.2447 19.7253 10.1276 19.7007C10.029 19.6822 10.0968 19.6945 10.1215 19.7007C9.93038 19.6884 9.84409 19.5404 9.80711 19.4356C9.80095 19.411 9.76396 19.4172 9.7578 19.4418C9.70233 19.8486 10.0105 20.1075 10.1954 20.1506C10.3988 20.1938 10.7008 20.1876 10.9474 19.9349C11.1631 19.7192 11.2802 19.5343 11.2802 19.0597C11.2802 18.6714 11.12 18.4002 10.8549 18.1659C10.5098 17.8454 10.0537 17.7222 9.73931 17.7468C9.44346 17.7715 8.92571 17.8947 8.58671 18.431C8.27237 18.9241 8.13677 19.6021 8.4018 20.3602L8.41413 20.3848C9.01817 21.7963 10.4296 22.1538 11.4035 22.1538C11.6007 22.1538 11.7795 22.1415 11.9274 22.1168C11.9582 22.1107 12.6547 22.0059 13.3327 21.5867C14.1709 21.032 14.6702 20.2308 14.6702 18.9919C14.6702 17.3462 13.9491 16.2491 12.4698 14.5356C12.1863 14.1842 11.0337 12.7604 10.8241 12.4831C9.79478 11.1517 8.64219 9.58619 9.2154 8.39661C9.23389 8.35963 9.25238 8.32881 9.27087 8.29183C10.1276 6.72011 12.5438 7.10841 12.0137 7.20703C11.0953 7.36112 10.5467 7.76792 10.3803 7.94667C10.2139 8.12541 10.1215 8.2795 10.0105 8.56919C9.81944 9.04379 9.97353 9.77726 10.3803 10.4183C12.1493 12.9269 14.7627 16.0518 15.0832 16.8038C15.4961 17.753 15.5578 18.5049 15.5516 18.9672C15.5454 19.4295 15.4345 20.1691 15.4345 20.1691C15.4345 20.1691 16.0447 19.6822 16.3344 19.0905C16.6241 18.4988 16.6734 18.2152 16.5871 17.9934C16.4946 17.7715 16.2666 17.7653 16.1741 17.4017C16.0817 17.038 16.3405 16.7175 16.0693 16.1381C15.9522 15.8854 15.3297 15.5156 15.0092 15.1088C14.6887 14.702 14.1031 13.9747 13.6655 13.3891C12.8766 12.3413 12.6177 11.9838 12.1616 11.3921C12.6547 11.5401 13.2711 11.7435 14.6887 11.0839C16.0015 11.7558 16.9014 11.7188 17.2158 11.7003C17.5301 11.6818 17.826 11.5401 18.054 11.3613C18.202 11.2442 18.3129 11.01 18.3807 10.8559C18.4054 10.8004 18.3499 10.7511 18.2944 10.7696C17.1911 11.2257 16.1741 10.8559 14.9229 10.1594L14.701 10.0361L14.4791 10.1532C13.1663 10.8559 11.7856 10.3073 11.6624 10.258C11.613 10.2334 11.2371 10.0361 11.0707 9.7033C10.9042 9.37046 10.8673 9.01913 10.9905 8.72328C11.0891 8.4829 11.3234 8.32265 11.7055 8.24252C12.0198 8.20554 12.4266 8.32265 12.7533 8.45208C12.8273 8.4829 12.8951 8.40894 12.8643 8.34114C12.8273 8.24252 12.8026 8.13774 12.8026 8.02679C12.8026 7.84188 12.8643 7.67547 12.9629 7.53987L13.4005 7.74327C13.3265 7.81723 13.2834 7.92817 13.2957 8.05145C13.3142 8.2117 13.4498 8.3473 13.6101 8.36579C13.8258 8.39661 14.0045 8.23636 14.023 8.03296L14.436 8.22403C14.362 8.52605 14.1278 8.76026 13.8258 8.83423C13.7642 8.84655 13.758 8.92668 13.8196 8.94517C14.3805 9.21021 16.02 9.97449 16.02 9.97449C16.02 9.97449 16.9692 10.5046 17.8013 10.3998C18.6026 10.3566 18.9601 9.72179 18.4855 9.78342C18.0109 9.84506 16.8891 9.35813 16.8891 9.35813L16.1371 9.00681L16.4515 8.51988C16.4515 8.51988 17.524 9.13008 18.4732 9.33964C19.1018 9.47524 19.5271 9.11775 19.7429 8.85888C19.8107 8.79108 19.749 8.68014 19.6566 8.69246ZM10.8796 6.55369C10.4789 6.603 9.86874 6.78791 9.52358 6.95432C9.39415 7.01596 9.2832 7.0776 9.19075 7.13307C8.88873 7.3303 8.61753 7.62616 8.4018 8.03296C7.55739 9.67248 9.10446 11.6818 10.3495 13.2967C10.5591 13.5679 10.7501 13.8206 10.9227 14.0548C11.1878 14.4185 11.4774 14.776 11.761 15.115C12.4883 16.0087 13.2896 16.9579 13.6347 18.0119C13.7272 18.3817 13.7395 18.7268 13.6964 19.0042C13.5484 19.8671 12.7965 20.163 12.7965 20.163C12.9074 19.8055 12.969 19.3432 12.9012 18.8131V18.8008C12.6732 17.5619 11.6685 16.4648 11.6685 16.4648C11.4281 16.1443 11.1693 15.8114 10.9597 15.5402C8.84559 12.8221 8.63602 12.5139 8.13677 11.6079L8.13061 11.5955C8.11828 11.5709 8.09979 11.5401 8.0813 11.5092C7.79161 11.0223 7.01499 9.72179 7.35399 8.35963C7.43412 8.04528 7.57588 7.76176 7.77928 7.51521C9.01817 5.90651 11.3912 6.45507 10.8796 6.55369Z" fill="#070713"/>
<path d="M10 23.0357C12.15 23.0357 13.8929 21.2928 13.8929 19.1429C13.8929 16.9929 12.15 15.25 10 15.25C7.85004 15.25 6.10715 16.9929 6.10715 19.1429C6.10715 21.2928 7.85004 23.0357 10 23.0357Z" fill="#C4C4C4" stroke="white" stroke-width="1.5"/>
</svg>
