<svg width="24" height="24" viewBox="0 0 24 24" fill="none" xmlns="http://www.w3.org/2000/svg">
<path d="M11.3438 4.00303C8.32501 6.1874 5.48438 8.24053 5.03438 8.56865L4.20938 9.16865L6.30001 11.0249C7.44376 12.0562 8.47501 12.9655 8.59688 13.0593L8.80313 13.228L9.48751 12.7687C9.86251 12.5155 10.2281 12.2812 10.3031 12.2343L10.4344 12.1593L10.3688 12.2624C10.2656 12.4312 12.7875 10.7062 12.9094 10.5187C12.9656 10.4343 13.8844 8.0999 14.9531 5.34365C16.0219 2.5874 16.9031 0.309278 16.9219 0.281153C16.9406 0.253028 16.9313 0.178028 16.8938 0.131153L16.8281 0.0374031L11.3438 4.00303Z" fill="#3B3B3B"/>
<path d="M10.875 12.9094C10.2281 13.35 9.67501 13.7625 9.63751 13.8187L9.57188 13.9219L10.2469 14.55C10.6219 14.8969 10.9688 15.1781 11.0344 15.1875H11.1469L11.7094 13.7344C12.0281 12.9375 12.2813 12.2437 12.2813 12.1875V12.0937H12.1688C12.1031 12.1031 11.5219 12.4594 10.875 12.9094Z" fill="#3B3B3B"/>
<path d="M10.0125 17.4656C9.75938 18.1031 9.5625 18.675 9.5625 18.7312V18.8438H9.66563C9.80625 18.8438 13.3125 16.5656 13.3125 16.4719V16.4062H12.0094C11.2875 16.4062 10.65 16.3875 10.575 16.3594L10.4531 16.3125L10.0125 17.4656Z" fill="#3B3B3B"/>
<path d="M11.6156 17.9812L9.21564 19.5468L8.40001 21.6281L7.57501 23.7093L7.61251 23.8406L7.64064 23.9812L13.5375 20.2406C16.7813 18.1781 19.4625 16.4812 19.4813 16.4531C19.5094 16.425 18.2906 16.4062 16.7719 16.4062L14.0156 16.4156L11.6156 17.9812Z" fill="#3B3B3B"/>
<path d="M14.8688 5.22187C13.7906 7.99687 12.8906 10.3219 12.8719 10.3781L12.825 10.5H12.9281H13.0406L14.5594 9.08437C15.3938 8.29688 16.2094 7.5375 16.3594 7.37812L16.6406 7.09687L16.5 7.1625C16.425 7.2 16.725 6.88125 17.1844 6.45C17.6344 6.01875 18.0094 5.625 18.0094 5.57812C18.0094 5.34375 16.9219 0.1875 16.875 0.1875C16.8375 0.1875 15.9375 2.45625 14.8688 5.22187Z" fill="#666666"/>
<path d="M17.7094 6.80632C17.4938 6.98445 16.1156 8.2782 14.6531 9.6657L12 12.1969L12.0563 12.2907L12.1125 12.3844L11.5781 13.7438C11.2875 14.4938 11.0625 15.1219 11.0813 15.1407C11.1 15.1688 11.8875 15.2157 12.8344 15.2438L14.5406 15.3094L15.1781 14.6813C15.525 14.3438 15.825 14.0813 15.8531 14.1001C15.8813 14.1282 16.425 13.6219 17.0625 12.9657C17.7094 12.3188 18.1688 11.8219 18.0938 11.8594C18.0188 11.8969 18.2156 11.6626 18.5344 11.3344L19.125 10.7344L18.675 8.59695L18.2344 6.46882H18.1688C18.1406 6.46882 17.9344 6.61882 17.7094 6.80632Z" fill="#666666"/>
<path d="M3.88126 10.4157C3.90938 10.4907 4.14376 11.3251 4.40626 12.2813C4.66876 13.2376 4.92188 14.1469 4.97813 14.3063L5.07188 14.6063L5.65313 14.4188C5.97188 14.3157 6.40313 14.2219 6.60938 14.2032C7.01251 14.1563 7.65938 13.9594 7.70626 13.8563C7.72501 13.8094 5.35313 11.6063 4.04063 10.4626L3.83438 10.2751L3.88126 10.4157Z" fill="#666666"/>
<path d="M17.4 13.2751C16.4625 14.2407 15.6938 15.0845 15.675 15.1501L15.6469 15.272L17.8313 15.3001C19.0313 15.3188 20.025 15.3282 20.0438 15.3188C20.0531 15.3188 19.8844 14.4563 19.6688 13.4251L19.2844 11.5313H19.1906C19.1344 11.5313 18.3281 12.3188 17.4 13.2751Z" fill="#666666"/>
<path d="M10.7344 11.9062L10.6781 12H10.8188H10.9688V11.9062C10.9688 11.85 10.9313 11.8125 10.8844 11.8125C10.8281 11.8125 10.7625 11.85 10.7344 11.9062Z" fill="#666666"/>
<path d="M6.14063 14.5312L6.08438 14.625H6.22501H6.37501V14.5312C6.37501 14.475 6.33751 14.4375 6.29063 14.4375C6.23438 14.4375 6.16876 14.475 6.14063 14.5312Z" fill="#666666"/>
<path d="M6.75001 14.8219C6.00001 15.0375 5.35314 15.2344 5.30626 15.2813L5.23126 15.3563L5.70939 17.1281C5.98126 18.0938 6.21564 18.9563 6.24376 19.0406L6.28126 19.1813L7.05939 19.1531C7.49064 19.1344 8.25939 19.0688 8.77501 19.0031L9.70314 18.8813L9.68439 18.7781C9.67501 18.7313 9.86251 18.1688 10.1156 17.5313L10.5656 16.3781L9.50626 15.4125L8.45626 14.4375L8.27814 14.4469C8.18439 14.4469 7.50001 14.6156 6.75001 14.8219Z" fill="#666666"/>
<path d="M7.57501 19.7251L6.65626 19.8376L6.58126 19.9219L6.49689 20.0157L7.04064 21.9376C7.33126 22.9969 7.58439 23.8782 7.59376 23.9063C7.60314 23.9532 9.11251 20.1751 9.22501 19.8001L9.29064 19.5938L8.88751 19.6032C8.66251 19.6126 8.07189 19.6688 7.57501 19.7251Z" fill="#666666"/>
<path d="M17.2406 6.8532L16.3406 7.2282L14.5594 8.88757L12.7688 10.5469L11.5969 11.3344L10.425 12.1313L10.0031 13.0407L9.58125 13.9501L10.9125 13.0501L12.2344 12.1501L14.9531 9.57195C18.3375 6.37507 18.2438 6.46882 18.1875 6.4782C18.1594 6.4782 17.7375 6.65632 17.2406 6.8532Z" fill="#D6024D"/>
<path d="M18.5625 11.7281L17.9625 11.9063L16.9125 12.9469L15.8625 13.9969L15.7969 14.3344C15.7687 14.5219 15.7219 14.7938 15.6937 14.9531L15.6375 15.2344L16.4062 14.4844C17.1656 13.7438 19.275 11.5219 19.2094 11.5406C19.1906 11.5406 18.9 11.625 18.5625 11.7281Z" fill="#D6024D"/>
<path d="M7.15312 13.9595L6.675 14.1095L6.08437 14.6251C5.76562 14.9063 5.42812 15.1876 5.35312 15.2532L5.20312 15.3657L6.23437 15.0845C6.80625 14.9345 7.54687 14.7376 7.88437 14.6532L8.49375 14.5032L8.10937 14.147C7.89375 13.9407 7.69687 13.7813 7.67812 13.7907C7.65937 13.8001 7.425 13.8751 7.15312 13.9595Z" fill="#D6024D"/>
<path d="M11.4281 17.6063L9.59063 18.8063L8.50313 18.9282L7.425 19.05L6.975 19.5188L6.51562 19.9875L6.79688 19.9313C6.95625 19.9032 7.58438 19.8282 8.19375 19.7719L9.30938 19.6594L11.7938 18.0282L14.2781 16.4063H13.7719H13.2656L11.4281 17.6063Z" fill="#D6024D"/>
</svg>
