<svg width="24" height="24" viewBox="0 0 24 24" fill="none" xmlns="http://www.w3.org/2000/svg">
<path d="M6.72792 23.8032C12.7604 23.8032 12.7604 23.7134 13.7832 23.4098C15.1199 23.013 10.0092 19.4753 6.72792 19.4753C3.44663 19.4753 0.786621 20.4442 0.786621 21.6393C0.786621 22.8344 3.44676 23.8032 6.72792 23.8032Z" fill="black"/>
<path d="M20.4259 5.40167L20.7034 5.70068L20.4608 6.02864C12.5934 16.666 8.06125 21.4823 6.13831 20.8363C4.96704 20.4429 3.79243 19.2596 2.61779 17.5413C2.20491 16.9374 1.8172 16.3014 1.46458 15.6685C1.22976 15.247 1.03101 14.8627 0.927818 14.6462C0.796181 14.37 0.740604 14.1999 0.696511 13.9764C0.693821 13.9628 0.693821 13.9628 0.691265 13.9496C0.672861 13.8547 0.666494 13.8248 0.652738 13.7729C0.416003 12.8807 0.294922 11.9563 0.294922 11.0164C0.294922 5.09514 5.09502 0.295044 11.0162 0.295044C12.8713 0.295044 14.6589 0.767158 16.2432 1.6534L16.2841 1.67899C17.5812 2.58205 18.9609 3.82293 20.4259 5.40167ZM15.742 2.50011C14.3087 1.70299 12.6938 1.27865 11.0162 1.27865C5.63825 1.27865 1.27853 5.63837 1.27853 11.0164C1.27853 11.871 1.3885 12.7106 1.60345 13.5207C1.6247 13.6008 1.63432 13.646 1.65686 13.7622C1.65923 13.7744 1.65923 13.7744 1.66151 13.786C1.68996 13.9302 1.71999 14.0221 1.81572 14.223C1.90986 14.4205 2.09904 14.7863 2.32381 15.1898C2.66273 15.798 3.03517 16.409 3.42979 16.9862C4.49106 18.5386 5.54357 19.5989 6.45153 19.9039C7.66251 20.3107 12.2214 15.4849 19.426 5.77321C18.118 4.39258 16.8892 3.30153 15.742 2.50011Z" fill="black"/>
<path d="M15.7418 2.50014C14.3085 1.70302 12.6936 1.27869 11.016 1.27869C5.63804 1.27869 1.27832 5.63841 1.27832 11.0164C1.27832 11.871 1.3883 12.7106 1.60324 13.5207C1.6245 13.6008 1.63411 13.6461 1.65666 13.7623C1.65902 13.7745 1.65902 13.7745 1.6613 13.786C1.68976 13.9302 1.71978 14.0222 1.81551 14.223C1.90965 14.4205 2.09883 14.7864 2.32361 15.1898C2.66252 15.7981 3.03496 16.409 3.42958 16.9863C4.49085 18.5387 5.54336 19.599 6.45132 19.904C7.66231 20.3108 12.2212 15.4849 19.4258 5.77325C18.1178 4.39262 16.889 3.30157 15.7418 2.50014Z" fill="#EC1C79"/>
<path d="M12.9835 23.705C7.0623 23.705 2.26221 18.9049 2.26221 12.9836C2.26221 7.06242 7.0623 2.26233 12.9835 2.26233C18.9047 2.26233 23.7048 7.06242 23.7048 12.9836C23.7048 18.9049 18.9047 23.705 12.9835 23.705ZM12.9835 22.7213C18.3615 22.7213 22.7212 18.3616 22.7212 12.9836C22.7212 7.60565 18.3615 3.24594 12.9835 3.24594C7.60553 3.24594 3.24581 7.60565 3.24581 12.9836C3.24581 18.3616 7.60553 22.7213 12.9835 22.7213Z" fill="black"/>
<path d="M12.9838 22.7213C18.3618 22.7213 22.7215 18.3615 22.7215 12.9836C22.7215 7.60557 18.3618 3.24585 12.9838 3.24585C7.60581 3.24585 3.24609 7.60557 3.24609 12.9836C3.24609 18.3615 7.60581 22.7213 12.9838 22.7213Z" fill="white"/>
<path fill-rule="evenodd" clip-rule="evenodd" d="M5.69907 14.9783L4.41016 11.095H5.53934L6.21134 13.3258L6.95494 11.084H7.87481L8.61842 13.3258L9.29042 11.095H10.3976L9.10865 14.9783H8.17776L7.40111 12.7585L6.62996 14.9783H5.69907ZM10.8217 14.9507V11.095H13.9228V12.0039H11.8793V12.5877H13.73V13.4305H11.8793V14.0419H13.9504V14.9507H10.8217ZM15.4376 14.9507V12.0314H14.2808V11.095H17.6629V12.0314H16.5062V14.9507H15.4376ZM18.1311 14.9507V11.095H19.1997V12.5381H20.5712V11.095H21.6398V14.9507H20.5712V13.4856H19.1997V14.9507H18.1311Z" fill="black"/>
<path d="M0.934001 9.93521C0.661908 9.79916 0.55162 9.4683 0.687667 9.19621C0.823713 8.92411 1.15458 8.81383 1.42667 8.94987L3.00044 9.73676C3.27253 9.87281 3.38282 10.2037 3.24677 10.4758C3.11073 10.7479 2.77986 10.8581 2.50777 10.7221L0.934001 9.93521Z" fill="black"/>
<path d="M0.752755 12.5447C0.476543 12.4173 0.355967 12.09 0.483443 11.8138C0.610918 11.5376 0.938172 11.417 1.21438 11.5445L2.78815 12.2708C3.06437 12.3983 3.18494 12.7255 3.05747 13.0017C2.92999 13.2779 2.60274 13.3985 2.32653 13.271L0.752755 12.5447Z" fill="black"/>
</svg>
