<svg width="588" height="588" viewBox="0 0 588 588" fill="none" xmlns="http://www.w3.org/2000/svg">
<path d="M189.603 180.619C184.567 186.608 181.028 193.55 179.122 201.308C170.955 234.519 189.875 266.369 196.953 278.347C197.361 279.164 197.905 279.844 198.178 280.389L198.314 280.661C210.428 302.847 215.6 310.469 267.458 377.028C272.63 383.561 278.892 391.728 284.744 399.622C284.744 399.622 309.38 426.572 314.961 456.925V457.333C316.73 470.264 315.097 481.561 312.375 490.272C312.375 490.272 330.75 483.058 334.425 461.825C335.65 455.019 335.242 446.717 332.928 437.597C324.489 411.872 304.889 388.461 287.058 366.683C280.117 358.244 273.039 349.533 266.642 340.686C262.422 334.969 257.658 328.708 252.622 322.175C222.133 282.567 184.294 233.294 204.847 193.278C210.019 183.206 216.689 176.128 224.175 171.228C226.489 169.867 229.211 168.369 232.342 166.736C240.78 162.653 255.889 158.161 265.553 156.936C278.211 154.35 220.092 140.875 189.603 180.619Z" fill="#110040"/>
<path d="M294 0C131.619 0 0 131.619 0 294C0 456.381 131.619 588 294 588C456.381 588 588 456.381 588 294C588 131.619 456.381 0 294 0ZM304.889 42.1944C304.889 42.1944 314.825 28.0389 337.011 35.3889C354.433 41.2417 383.561 60.1611 403.569 74.0444C398.942 75.5417 391.592 76.4944 382.472 73.3639C366.547 67.9194 362.056 60.5694 356.475 56.4861C355.522 55.8056 354.025 56.6222 354.161 57.8472C354.706 62.8833 358.244 71.3222 364.778 77.0389C371.175 82.7556 378.253 87.3833 391.864 89.9694C401.119 91.7389 412.417 87.6556 418.814 84.7972C434.739 96.6389 434.875 99.6333 436.917 109.297C439.094 119.233 421.672 162.653 421.672 162.653C421.672 162.653 390.503 120.05 354.706 100.042C319.044 80.0333 283.928 74.8611 283.928 74.8611L304.889 42.1944ZM482.922 213.286C477.614 219.683 467.133 228.394 451.753 225.128C428.614 220.092 402.344 205.119 402.344 205.119L394.586 217.097L412.961 225.672C412.961 225.672 440.319 237.65 452.025 236.153C463.731 234.656 455.019 250.036 435.283 251.261C414.867 253.711 391.592 240.781 391.592 240.781C391.592 240.781 351.439 221.997 337.692 215.6C336.331 215.192 336.331 213.286 337.964 212.878C345.314 211.108 351.031 205.256 352.936 197.906L342.864 193.278C342.456 198.314 337.964 202.125 332.656 201.444C328.708 200.9 325.442 197.633 325.033 193.686C324.625 190.692 325.714 188.106 327.619 186.2L317.003 181.3C314.553 184.703 313.056 188.786 313.056 193.278C313.056 196 313.6 198.586 314.553 200.9C315.233 202.669 313.6 204.439 311.831 203.622C303.8 200.492 293.864 197.497 286.106 198.45C276.85 200.492 271.133 204.303 268.683 210.292C265.689 217.642 266.506 226.217 270.589 234.383C274.672 242.55 283.792 247.178 285.017 247.858C287.875 249.083 321.903 262.558 353.889 245.272L359.333 242.414L364.778 245.408C395.403 262.422 420.311 271.542 447.397 260.381C448.758 259.836 449.983 261.061 449.439 262.422C447.942 266.233 445.083 271.95 441.544 274.808C435.964 279.164 428.614 282.703 420.992 283.111C413.233 283.519 391.319 284.608 359.197 268.003C324.489 284.2 309.381 279.164 297.267 275.489C308.428 290.053 314.825 298.764 334.017 324.489C344.769 338.917 359.061 356.611 366.956 366.547C374.85 376.483 390.094 385.467 392.953 391.728C399.486 405.883 393.225 413.778 395.539 422.625C397.717 431.472 403.433 431.744 405.611 437.189C407.789 442.633 406.564 449.575 399.486 464.003C392.408 478.567 377.572 490.408 377.572 490.408C377.572 490.408 380.294 472.442 380.431 461.008C380.431 449.575 378.933 431.2 368.861 407.925C360.967 389.55 297.131 313.056 253.711 251.533C243.775 235.881 239.964 217.914 244.592 206.208C247.45 199.131 249.628 195.319 253.711 190.964C257.794 186.608 271.269 176.536 293.728 172.725C306.658 170.275 247.586 160.747 226.625 199.267C226.217 200.083 225.672 200.9 225.264 201.717C211.108 230.844 239.419 269.228 264.6 301.894C269.772 308.564 297.947 343.544 304.889 352.119C340.958 394.042 358.789 420.856 358.789 461.144C358.789 491.361 346.539 511.097 326.122 524.572C309.517 534.917 292.503 537.503 291.822 537.639C288.147 538.183 283.792 538.592 279.028 538.592C255.208 538.592 220.636 529.744 205.936 495.172L205.664 494.492C199.131 475.981 202.397 459.239 210.156 447.261C218.594 434.194 231.253 431.2 238.467 430.519C246.089 429.839 257.25 432.969 265.689 440.728C272.086 446.581 276.033 453.114 276.169 462.642C276.169 474.211 273.175 478.839 268.003 484.147C261.878 490.272 254.392 490.408 249.492 489.319C245 488.367 237.514 481.969 238.875 472.033C239.011 471.353 239.828 471.217 240.1 471.897C241.053 474.483 243.094 478.158 247.858 478.431C247.314 478.294 245.681 478.022 247.994 478.431C250.853 478.975 258.339 476.933 259.156 469.719C259.972 462.506 255.889 458.422 252.078 455.428C248.267 452.569 242.414 452.433 239.692 452.706C237.922 452.842 231.933 454.611 228.122 460.6C223.494 467.814 224.311 478.703 227.033 486.597C230.844 495.308 236.425 499.936 242.686 504.292C265.825 517.086 283.247 497.894 285.289 495.581C286.242 494.356 297.947 481.969 295.089 460.328C289.508 427.797 262.286 411.192 243.911 411.6C225.536 412.008 213.15 414.458 197.089 433.514C178.033 459.511 186.881 490.136 186.881 490.136C186.881 490.136 170.547 466.997 167.961 450.256C165.375 433.378 166.192 425.075 171.228 417.181C176.264 409.286 186.064 417.589 189.194 406.292C192.325 394.994 189.739 391.319 196 385.467C204.575 375.258 226.081 384.514 229.619 380.703C233.158 376.892 231.525 368.997 222.678 364.097C213.831 359.197 207.842 356.747 205.936 349.533C204.167 342.319 204.983 332.383 200.492 325.986C200.219 325.578 199.947 325.306 199.675 324.897C196.408 320.269 191.508 316.867 185.928 315.506C182.117 314.553 178.986 311.831 177.761 308.156C177.081 306.114 176.944 304.072 177.217 302.167C178.306 295.497 177.081 288.556 173.678 282.567C173.133 281.478 172.589 280.525 172.181 279.844C171.772 279.028 171.228 278.075 170.683 277.122C167.825 271.678 163.469 267.05 158.297 263.647C157.208 262.967 156.119 261.878 154.894 260.653C153.397 258.883 152.308 256.706 152.172 254.392C152.036 252.758 152.308 251.261 152.853 249.764C153.942 246.633 158.433 239.828 158.161 227.85C157.889 216.008 145.231 212.878 146.864 197.089C148.497 181.3 163.878 183.206 171.636 172.317C179.394 161.428 174.767 144.414 185.519 138.561C195.319 129.85 207.978 130.531 214.375 133.253C233.567 142.508 243.231 130.258 243.231 130.258L228.258 122.5L196 106.575C196 106.575 189.331 103.717 195.864 99.225C195.864 99.225 247.586 54.1722 344.089 103.989C404.386 140.194 425.892 197.633 460.736 207.433C469.583 209.611 476.253 209.611 480.608 209.067C482.922 208.794 484.419 211.517 482.922 213.286Z" fill="#110040"/>
</svg>
