<svg width="365" height="550" viewBox="0 0 365 550" fill="none" xmlns="http://www.w3.org/2000/svg">
<path d="M300.817 139.947C300.817 139.947 319.723 93.0071 317.278 82.2501C314.997 71.8192 314.834 68.5595 297.72 55.8467C290.875 58.9434 278.651 63.344 268.709 61.3882C254.041 58.6174 246.543 53.5649 239.535 47.3715C232.527 41.1781 228.778 32.051 228.126 26.6726C227.963 25.3687 229.43 24.3908 230.571 25.2057C236.601 29.6063 241.491 37.5925 258.604 43.2969C268.383 46.5566 276.369 45.5787 281.259 43.9489C259.582 28.9543 228.126 8.41833 209.383 2.22494C185.424 -5.5983 174.667 9.72221 174.667 9.72221L152.176 45.2527C152.176 45.2527 189.988 50.7942 228.615 72.4711C267.079 93.985 300.817 139.947 300.817 139.947Z" fill="#FCEECA"/>
<path d="M361.12 193.242C356.393 193.894 349.222 193.894 339.606 191.449C301.956 180.855 278.813 118.758 213.619 79.6418C109.472 25.8571 53.5687 74.4263 53.5687 74.4263C46.3974 79.3159 53.7317 82.4126 53.7317 82.4126L87.9584 99.6889L104.094 108.164C104.094 108.164 93.8258 121.366 72.9638 111.261C66.1185 108.327 52.4278 107.512 41.8339 116.965C30.262 123.322 35.3145 141.739 26.8393 153.474C18.5271 165.208 1.90276 163.253 0.10994 180.203C-1.35692 197.479 12.3337 200.739 12.6597 213.615C12.9857 226.49 8.25914 233.825 6.95527 237.247C6.46632 238.714 6.14035 240.507 6.14035 242.3C6.30334 244.745 7.44422 247.189 9.07407 249.145C10.3779 250.612 11.5188 251.59 12.8227 252.405C18.3642 256.154 23.0907 261.043 26.1874 266.911C26.6763 267.888 27.1653 268.866 27.8172 269.844C28.3062 270.659 28.7951 271.637 29.4471 272.778C33.0327 279.134 34.4996 286.632 33.1957 293.966C32.8697 295.922 33.0327 298.203 33.6847 300.322C34.9885 304.234 38.4112 307.168 42.4858 308.309C48.5162 309.775 53.7317 313.361 57.3174 318.414C57.6433 318.739 57.8063 319.228 58.1323 319.554C63.0218 326.4 62.0439 337.157 63.9997 344.98C65.9555 352.803 72.4749 355.248 81.928 360.626C91.381 366.005 93.3368 374.48 89.4252 378.555C85.5136 382.629 62.3699 372.687 53.0798 383.77C46.2344 390.126 49.1682 394.201 45.7455 406.262C42.3228 418.486 31.8918 409.522 26.3504 417.997C20.8089 426.472 19.994 435.599 22.7647 453.69C25.5355 471.782 43.1377 496.718 43.1377 496.718C43.1377 496.718 33.6847 463.795 54.2207 435.599C71.66 415.063 85.0247 412.292 104.746 411.966C124.63 411.477 153.967 429.406 159.997 464.61C163.094 487.917 150.381 501.445 149.403 502.749C147.122 505.356 128.378 526.055 103.442 512.202C96.5965 507.475 90.5661 502.586 86.4915 493.132C83.5578 484.494 82.7429 472.922 87.6324 465.099C91.707 458.58 98.2264 456.624 100.182 456.461C103.116 456.135 109.472 456.298 113.547 459.395C117.621 462.491 122.022 467.055 121.207 474.878C120.392 482.701 112.243 484.983 109.146 484.331C106.539 483.842 108.331 484.168 108.983 484.331C103.931 484.005 101.649 480.094 100.671 477.323C100.508 476.671 99.5302 476.834 99.3673 477.486C97.9004 488.243 106.05 495.088 110.939 496.229C116.318 497.37 124.304 497.207 130.823 490.525C136.528 484.82 139.624 479.931 139.624 467.381C139.624 457.113 135.387 449.942 128.378 443.748C119.251 435.273 107.19 432.013 98.8783 432.665C91.0551 433.317 77.3644 436.577 68.4003 450.757C60.0881 463.795 56.5024 481.724 63.5107 501.771L63.8367 502.423C79.8092 539.746 117.133 549.199 142.884 549.199C148.1 549.199 152.826 548.873 156.738 548.221C157.553 548.058 175.97 545.287 193.898 534.204C216.064 519.536 229.266 498.348 229.266 465.588C229.266 422.071 210.196 393.06 171.08 347.751C163.583 338.461 133.105 300.811 127.564 293.477C100.345 258.272 69.8671 216.874 85.0247 185.419C85.5136 184.441 86.0026 183.626 86.4915 182.648C109.146 141.087 173.036 151.355 159.019 153.963C134.735 158.037 120.229 168.794 115.829 173.521C111.428 178.247 108.983 182.322 106.05 189.982C100.997 202.532 105.072 221.927 115.829 238.877C162.605 305.212 231.71 387.845 240.186 407.729C251.105 432.828 252.735 452.712 252.572 464.936C252.409 477.16 249.476 496.718 249.476 496.718C249.476 496.718 265.611 483.842 273.271 468.196C280.932 452.549 282.235 445.052 279.954 439.185C277.509 433.317 271.478 433.154 269.034 423.538C266.589 413.922 273.434 405.447 266.263 390.126C263.166 383.444 246.705 373.665 238.23 362.908C229.755 352.151 214.271 332.919 202.699 317.436C181.837 289.728 174.992 280.275 162.931 264.629C175.97 268.54 192.268 273.919 229.755 256.48C264.47 274.245 288.266 273.267 296.578 272.778C304.89 272.289 312.713 268.54 318.744 263.814C322.655 260.717 325.589 254.524 327.382 250.449C328.034 248.982 326.567 247.678 325.1 248.167C295.926 260.228 269.034 250.449 235.948 232.032L230.08 228.772L224.213 231.869C189.497 250.449 152.989 235.944 149.729 234.64C148.425 233.988 138.483 228.772 134.083 219.971C129.682 211.17 128.704 201.88 131.964 194.057C134.572 187.7 140.765 183.463 150.87 181.344C159.182 180.366 169.939 183.463 178.578 186.885C180.533 187.7 182.326 185.744 181.511 183.952C180.533 181.344 179.881 178.573 179.881 175.639C179.881 170.75 181.511 166.349 184.119 162.764L195.691 168.142C193.735 170.098 192.594 173.032 192.92 176.291C193.409 180.529 196.995 184.115 201.232 184.604C206.937 185.419 211.663 181.181 212.152 175.802L223.072 180.855C221.116 188.841 214.923 195.035 206.937 196.99C205.307 197.316 205.144 199.435 206.774 199.924C221.605 206.932 264.959 227.142 264.959 227.142C264.959 227.142 290.059 241.159 312.061 238.388C333.249 237.247 342.702 220.46 330.153 222.09C317.603 223.72 287.94 210.844 287.94 210.844L268.056 201.554L276.368 188.678C276.368 188.678 304.727 204.814 329.827 210.355C346.451 213.941 357.697 204.488 363.401 197.642C365.194 195.849 363.564 192.916 361.12 193.242ZM129.03 136.686C118.436 137.99 102.301 142.88 93.1739 147.28C89.7512 148.91 86.8175 150.54 84.3727 152.007C76.3865 157.222 69.2152 165.046 63.5107 175.802C41.1819 219.156 82.091 272.289 115.014 314.991C120.555 322.162 125.608 328.844 130.171 335.038C137.18 344.654 144.84 354.107 152.337 363.071C171.569 386.704 192.757 411.803 201.884 439.674C204.329 449.453 204.655 458.58 203.514 465.914C199.602 488.732 179.718 496.555 179.718 496.555C182.652 487.102 184.282 474.878 182.489 460.862V460.536C176.459 427.776 149.892 398.765 149.892 398.765C143.536 390.289 136.691 381.488 131.149 374.317C75.2456 302.441 69.7041 294.292 56.5024 270.333L56.3395 270.007C56.0135 269.355 55.5245 268.54 55.0356 267.725C47.3753 254.85 26.8393 220.46 35.8035 184.441C37.9222 176.128 41.6709 168.631 47.0494 162.112C79.8092 119.573 142.558 134.079 129.03 136.686Z" fill="#FCEECA"/>
</svg>
