<?xml version="1.0" encoding="utf-8"?>
<!-- Generator: Adobe Adobe Illustrator 24.2.0, SVG Export Plug-In . SVG Version: 6.00 Build 0)  -->
<svg version="1.1" id="Layer_1" xmlns="http://www.w3.org/2000/svg" xmlns:xlink="http://www.w3.org/1999/xlink" x="0px" y="0px"
	 viewBox="0 0 1208 1207.29" style="enable-background:new 0 0 1208 1207.29;" xml:space="preserve">
<style type="text/css">
	.st0{fill:#FFFFFF;}
	.st1{fill:none;stroke:#F7F7F7;stroke-width:54;stroke-linecap:round;stroke-miterlimit:10;}
</style>
<g>
	<g>
		<g>
			<path class="st0" d="M947.9,146.32c-13.5-18.13-32.41-29.56-51.54-40.33c-50.59-28.47-103.38-51.47-160.45-64.03
				c-26.76-5.89-53.5-10.2-80.89-12.56c-38.98-3.35-77.86-3.33-116.42,0.93c-50.59,5.58-99.75,18.19-147.17,37.42
				c-62.31,25.27-118.63,59.62-169.24,104.12c-79.1,69.55-134.01,154.81-167.38,254c-11.04,32.83-17.78,66.99-22.88,101.53
				c-5.68,38.44-5.63,76.93-3.9,115.25c1.91,42.43,10.47,84.15,22.63,125.07c20.01,67.33,50.82,129.33,93.47,184.87
				c78.08,101.67,178.79,171.02,302.53,206c32.88,9.29,66.27,15.48,100.43,18.91c34,3.41,68.06,3.48,101.73,1.37
				c63.23-3.97,124.39-19.39,182.58-44.87c32.03-14.03,63.34-29.68,92-50.08c31.9-22.7,29.39-26.92,10.74-54.98
				c-52.12-78.44-84.52-164.28-102.99-256.27c-11.16-55.62-15.53-111.42-14.58-167.97c0.54-32.29-0.92-64.72,2.91-96.79
				c6-50.21,15.72-99.72,30.1-148.41c18.99-64.31,47.19-124.08,83.87-179.91c6.67-10.16,12.05-20.26,14.45-32.04"/>
			<path class="st1" d="M947.9,146.32c-13.5-18.13-32.41-29.56-51.54-40.33c-50.59-28.47-103.38-51.47-160.45-64.03
				c-26.76-5.89-53.5-10.2-80.89-12.56c-38.98-3.35-77.86-3.33-116.43,0.93c-50.59,5.58-99.75,18.19-147.17,37.42
				c-62.31,25.27-118.63,59.62-169.24,104.12c-79.1,69.55-134.01,154.81-167.38,254c-11.04,32.83-17.78,66.99-22.88,101.53
				c-5.68,38.44-5.63,76.93-3.9,115.25c1.91,42.43,10.47,84.15,22.63,125.07c20.01,67.33,50.82,129.33,93.47,184.87
				c78.08,101.67,178.79,171.02,302.53,206c32.88,9.29,66.27,15.48,100.43,18.91c34,3.41,68.06,3.48,101.73,1.37
				c63.23-3.97,124.39-19.39,182.58-44.87c32.03-14.03,63.34-29.68,92-50.08c31.9-22.7,29.39-26.92,10.74-54.98
				c-52.12-78.44-84.52-164.28-102.99-256.27c-11.16-55.62-15.53-111.42-14.58-167.97c0.54-32.29-0.92-64.72,2.91-96.79
				c6-50.21,15.72-99.72,30.1-148.41c18.99-64.31,47.19-124.08,83.87-179.91c6.67-10.16,12.05-20.26,14.45-32.04"/>
		</g>
		<g>
			<path class="st0" d="M257.89,446.59c-35.6,4.93-53.33,29.75-64.77,60.12c-17.99,47.77-6.71,99.8,26.78,131.07
				c24.65,23.02,60.83,22.92,85.83,0.04c19.9-18.22,29.64-41.03,33.2-67.43c4.92-36.45-1.67-69.48-25.88-98.07
				c-14.12-16.67-31.76-25.93-53.93-25.74"/>
			<path class="st1" d="M257.89,446.59c-35.6,4.93-53.33,29.75-64.77,60.12c-17.99,47.77-6.71,99.8,26.78,131.07
				c24.65,23.02,60.83,22.92,85.83,0.04c19.9-18.22,29.64-41.03,33.2-67.43c4.92-36.45-1.67-69.48-25.88-98.07
				c-14.12-16.67-31.76-25.93-53.93-25.74"/>
		</g>
		<g>
			<path class="st0" d="M261.57,762.8c-15.8,4.75-22.26,17.2-23.04,31.88c-2.39,45.04,12.27,83.66,47.68,112.59
				c26.49,21.65,50.93,7.31,53.56-21.93c4.33-48.22-14.39-86.87-52.44-116.42c-7.31-5.67-15.75-6.47-24.52-6.12"/>
			<path class="st1" d="M261.57,762.8c-15.8,4.75-22.26,17.2-23.04,31.88c-2.39,45.04,12.27,83.66,47.68,112.59
				c26.49,21.65,50.93,7.31,53.56-21.93c4.33-48.22-14.39-86.87-52.44-116.42c-7.31-5.67-15.75-6.47-24.52-6.12"/>
		</g>
	</g>
</g>
</svg>
