<svg width="212" height="198" viewBox="0 0 212 198" fill="none" xmlns="http://www.w3.org/2000/svg">
<path d="M21 68.6648C21 60.3805 27.7157 53.6648 36 53.6648H197C205.284 53.6648 212 60.3805 212 68.6648V77.6648L209.504 74.4557C206.662 70.8019 202.293 68.6648 197.664 68.6648H21Z" fill="#FB5A52"/>
<path d="M106 98.6648C131.405 98.6648 152 78.0699 152 52.6648C152 27.2597 131.405 6.66479 106 6.66479C80.5949 6.66479 60 27.2597 60 52.6648C60 78.0699 80.5949 98.6648 106 98.6648Z" fill="#FFEB3A"/>
<path d="M143.76 49.5444C138.184 60.8564 120.466 63.5208 104.186 55.4955C87.906 47.4701 79.2289 31.7941 84.8052 20.4822C90.3815 9.17018 108.099 6.50581 124.379 14.5311C140.66 22.5565 149.337 38.2324 143.76 49.5444Z" fill="url(#paint0_radial)"/>
<path d="M119.078 46.8508C119.601 42.6033 116.286 40.4176 111.797 39.0217L113.085 33.2524L109.538 32.4792L108.283 38.0968C107.351 37.8938 106.394 37.7029 105.443 37.5162L106.703 31.8616L103.159 31.0883L101.875 36.8553L94.7223 35.306L93.8864 39.0576C93.8864 39.0576 96.5163 39.5796 96.4621 39.618C97.8984 39.932 98.1826 40.8596 98.1591 41.6021L94.6333 57.4072C94.4703 57.8411 94.0455 58.4966 93.0417 58.2777C93.0784 58.3276 90.4638 57.7116 90.4638 57.7116L88.8237 61.758L95.9667 63.3387L94.6664 69.1752L98.2086 69.9485L99.4971 64.1747C100.467 64.4066 101.405 64.6197 102.323 64.8193L101.04 70.5662L104.586 71.3394L105.887 65.5141C111.925 66.4759 116.43 65.8989 118.183 60.471C119.597 56.0981 117.922 53.6432 114.716 52.0991C117.004 51.5087 118.697 49.963 119.075 46.8531L119.078 46.8508ZM111.331 58.2468C110.357 62.6078 102.93 60.4676 100.525 59.9445L102.251 52.2132C104.655 52.7382 112.343 53.6983 111.332 58.2461L111.331 58.2468ZM112.117 46.9789C111.231 50.9478 105.046 49.112 103.043 48.6747L104.605 41.6607C106.609 42.0986 113.039 42.8404 112.115 46.9787" fill="black"/>
<path d="M0 98.2281C0 89.9438 6.71573 83.2281 15 83.2281H198.437C204.01 83.2281 209.123 80.1388 211.716 75.2058L212 74.6648V182.665C212 190.949 205.284 197.665 197 197.665H15C6.71573 197.665 0 190.949 0 182.665V98.2281Z" fill="#3800D6"/>
<path fill-rule="evenodd" clip-rule="evenodd" d="M85.333 144.528L88.667 140.802L106 156.31L123.333 140.802L126.667 144.528L106 163.019L85.333 144.528Z" fill="#FFFFE9"/>
<path fill-rule="evenodd" clip-rule="evenodd" d="M125 173.165H87V168.165H125V173.165Z" fill="#FFFFE9"/>
<path fill-rule="evenodd" clip-rule="evenodd" d="M108.5 109.165V159.165H103.5V109.165H108.5Z" fill="#FFFFE9"/>
<defs>
<radialGradient id="paint0_radial" cx="0" cy="0" r="1" gradientUnits="userSpaceOnUse" gradientTransform="translate(126.345 20.2341) rotate(123.296) scale(43.7526 104.809)">
<stop offset="0.3134" stop-color="#FFFFE9"/>
<stop offset="1" stop-color="#FFFFE9" stop-opacity="0"/>
</radialGradient>
</defs>
</svg>
